<svg xmlns="http://www.w3.org/2000/svg" xmlns:xlink="http://www.w3.org/1999/xlink" viewBox="0 0 1124.64 651.26"><defs><style>.cls-1{fill:none;}.cls-2{fill:#e6f4ff;}.cls-3{clip-path:url(#clip-path);}.cls-4{fill:#312235;}.cls-5{fill:#ce7061;}.cls-6{fill:#8bb5d8;}.cls-7{fill:#329e89;}.cls-8{clip-path:url(#clip-path-2);}.cls-9{fill:#c5e2ff;}.cls-10{clip-path:url(#clip-path-3);}.cls-11{fill:#fff;}.cls-12{fill:#3a1e1c;}.cls-13{clip-path:url(#clip-path-4);}.cls-14{fill:#d88268;}.cls-15{fill:#d98369;}.cls-16{fill:#da8469;}.cls-17{fill:#db856a;}.cls-18{fill:#dc866b;}.cls-19{fill:#dd876b;}.cls-20{fill:#de886c;}.cls-21{fill:#df896d;}.cls-22{fill:#e08a6d;}.cls-23{fill:#e18b6e;}.cls-24{fill:#e28c6f;}.cls-25{fill:#e48d70;}.cls-26{fill:#e58d70;}.cls-27{fill:#e68e71;}.cls-28{fill:#e78f72;}.cls-29{fill:#e89072;}.cls-30{fill:#e99173;}.cls-31{fill:#ea9274;}.cls-32{fill:#eb9374;}.cls-33{fill:#ec9475;}.cls-34{fill:#ed9576;}.cls-35{fill:#ee9676;}.cls-36{fill:#ef9777;}.cls-37{fill:#3d201f;}.cls-38{fill:#b5574d;}.cls-39{fill:#b3514e;}.cls-40{fill:#fc999c;}.cls-41{fill:#f9aaaa;}.cls-42{fill:#196b5d;}.cls-43{fill:#208975;}.cls-44{fill:#8acec3;}.cls-45{fill:#5b1f3c;}.cls-46{fill:#fffdfd;}.cls-47{fill:#175b4e;}</style><clipPath id="clip-path"><path class="cls-1" d="M541-384.19c-10.3-18-97.34-31.5-97.34-31.5S301.34-604.45,232.33-598s-80.25,56.59-80.25,56.59l-32.63,66.55C54.18-440,10.14-373.83,10.14-298c0,112.25,96.42,203.24,215.37,203.24,117.57,0,213.12-88.9,215.32-199.34C473.18-316.39,549-370.32,541-384.19Z"/></clipPath><clipPath id="clip-path-2"><path class="cls-2" d="M428.87,402.79a192.51,192.51,0,0,0-5.05-43.86c-32.69-73-109.23-124.15-198.45-124.15C106.43,234.78,10,325.78,10,438a193.16,193.16,0,0,0,5,43.87C47.74,554.84,124.28,606,213.5,606,332.44,606,428.87,515,428.87,402.79Z"/></clipPath><clipPath id="clip-path-3"><path class="cls-1" d="M541.22,351.81c-8.62-15-92-32.76-90.33-32.5,3.75,5-153.08-187.41-218.34-181.34-69,6.43-80.25,56.59-80.25,56.59l-32.63,66.55C54.4,296,10.36,362.17,10.36,438c0,112.25,96.43,203.24,215.37,203.24,117.57,0,213.12-88.9,215.32-199.34C473.4,419.61,549.17,365.68,541.22,351.81Z"/></clipPath><clipPath id="clip-path-4"><path class="cls-1" d="M228,319.63l-2.36,9.78s-19.92,12.9-37.91,11.87c-5.34-.3,67.76,42.8,71.74,43s34.38-50.16,34.38-50.16-20.41-3.73-27.17-4-14.47-18.28-14.47-18.28Z"/></clipPath></defs><title>4-fala3</title><g id="Camada_5" data-name="Camada 5"><g class="cls-3"><path class="cls-4" d="M189.84,293.79s-6.77,14.38-4.3,22.7,17.23,13.73,17.23,13.73,37.07,22.44,68.87,18.45,21.38-11,21.38-11l-55.79-45.94Z"/><path class="cls-4" d="M297.85,290.25s-5.18,10.44-3.05,17.43,15.57,10.15,15.57,10.15l10.35.39,104,5.36s7.44-21.13-51.75-33.44S297.85,290.25,297.85,290.25Z"/><path class="cls-5" d="M202.09,32.44l2.37,26.31s-29.12,70.66-9.27,203l-6,40.43s24.06,11.27,41.42,15.9a72.39,72.39,0,0,0,32,1.2S223,275.75,217.3,269.6L267,29.2S238.47-28.3,202.09,32.44Z"/><path class="cls-5" d="M284.44,30.63s-25.76,70.54,15.46,204.69c0,0,5.91,55.23-2,54.93s81.06,6.76,86.9,7-44.4-20.8-48.8-31.06S329.66,65,335.62,47.71a234.2,234.2,0,0,0,8.72-34.22S289.35,19.91,284.44,30.63Z"/><path class="cls-4" d="M172.55-180.28s-17.61,72.57-15.63,92.45,4.68,52.17,34,145.94c0,0,78.25,32.39,150.2-.8,0,0,6.29-1.86,10.91-43.82S364.46-129.1,343.32-174,172.55-180.28,172.55-180.28Z"/></g><ellipse class="cls-6" cx="225.37" cy="438.02" rx="215.37" ry="203.24"/><path class="cls-7" d="M225.37,234.78c119,0,215.37,91,215.37,203.24S344.32,641.26,225.37,641.26,10,550.27,10,438s96.42-203.24,215.37-203.24m0-10a235.1,235.1,0,0,0-87.54,16.69A225.72,225.72,0,0,0,66.22,287,212.37,212.37,0,0,0,17.8,354.82a203.34,203.34,0,0,0,0,166.4A212.3,212.3,0,0,0,66.22,589a225.89,225.89,0,0,0,71.61,45.57,238.05,238.05,0,0,0,175.08,0A225.94,225.94,0,0,0,384.53,589a212.12,212.12,0,0,0,48.41-67.79,203.34,203.34,0,0,0,0-166.4A212.19,212.19,0,0,0,384.53,287a225.76,225.76,0,0,0-71.62-45.57,235.1,235.1,0,0,0-87.54-16.69Z"/><path class="cls-2" d="M428.87,402.79a192.51,192.51,0,0,0-5.05-43.86c-32.69-73-109.23-124.15-198.45-124.15C106.43,234.78,10,325.78,10,438a193.16,193.16,0,0,0,5,43.87C47.74,554.84,124.28,606,213.5,606,332.44,606,428.87,515,428.87,402.79Z"/><g class="cls-8"><circle class="cls-2" cx="306.79" cy="408.71" r="104.58"/><circle class="cls-2" cx="306.79" cy="408.71" r="100.64"/><circle class="cls-2" cx="306.79" cy="408.71" r="98.66"/><circle class="cls-2" cx="306.79" cy="408.71" r="96.69"/><circle class="cls-2" cx="306.79" cy="408.71" r="94.72"/><circle class="cls-2" cx="306.79" cy="408.71" r="92.74"/><circle class="cls-2" cx="306.79" cy="408.71" r="90.77"/><circle class="cls-2" cx="306.79" cy="408.71" r="88.8"/><circle class="cls-2" cx="306.79" cy="408.71" r="86.82"/><circle class="cls-2" cx="306.79" cy="408.71" r="84.85"/><circle class="cls-2" cx="306.79" cy="408.71" r="82.88"/><circle class="cls-2" cx="306.79" cy="408.71" r="80.9"/><circle class="cls-2" cx="306.79" cy="408.71" r="78.93"/><circle class="cls-2" cx="306.79" cy="408.71" r="76.96"/><circle class="cls-2" cx="306.79" cy="408.71" r="74.98"/><circle class="cls-2" cx="306.79" cy="408.71" r="73.01"/><circle class="cls-2" cx="306.79" cy="408.71" r="71.04"/><circle class="cls-2" cx="306.79" cy="408.71" r="69.06"/><circle class="cls-2" cx="306.79" cy="408.71" r="67.09"/><circle class="cls-2" cx="306.79" cy="408.71" r="65.12"/><circle class="cls-2" cx="306.79" cy="408.71" r="63.15"/><circle class="cls-2" cx="306.79" cy="408.71" r="61.17"/><circle class="cls-2" cx="306.79" cy="408.71" r="59.2"/><circle class="cls-2" cx="306.79" cy="408.71" r="57.23"/><circle class="cls-2" cx="306.79" cy="408.71" r="55.25"/><circle class="cls-2" cx="306.79" cy="408.71" r="53.28"/><circle class="cls-2" cx="306.79" cy="408.71" r="51.31"/><circle class="cls-2" cx="306.79" cy="408.71" r="49.33"/><circle class="cls-2" cx="306.79" cy="408.71" r="47.36"/><circle class="cls-2" cx="306.79" cy="408.71" r="45.39"/><circle class="cls-2" cx="306.79" cy="408.71" r="43.41"/><circle class="cls-2" cx="306.79" cy="408.71" r="41.44"/><circle class="cls-2" cx="306.79" cy="408.71" r="39.47"/><circle class="cls-2" cx="306.79" cy="408.71" r="37.49"/><circle class="cls-2" cx="306.79" cy="408.71" r="35.52"/><circle class="cls-2" cx="306.79" cy="408.71" r="33.55"/><circle class="cls-2" cx="306.79" cy="408.71" r="31.57"/><circle class="cls-2" cx="306.79" cy="408.71" r="29.6"/><circle class="cls-2" cx="306.79" cy="408.71" r="27.63"/><circle class="cls-2" cx="306.79" cy="408.71" r="25.65"/><circle class="cls-2" cx="306.79" cy="408.71" r="23.68"/><circle class="cls-2" cx="306.79" cy="408.71" r="21.71"/><circle class="cls-2" cx="306.79" cy="408.71" r="19.73"/><circle class="cls-2" cx="306.79" cy="408.71" r="17.76"/><circle class="cls-2" cx="306.79" cy="408.71" r="15.79"/><circle class="cls-2" cx="306.79" cy="408.71" r="13.81"/><circle class="cls-2" cx="306.79" cy="408.71" r="11.84"/><circle class="cls-2" cx="306.79" cy="408.71" r="9.87"/><circle class="cls-2" cx="306.79" cy="408.71" r="7.89"/><circle class="cls-2" cx="306.79" cy="408.71" r="5.92"/><circle class="cls-2" cx="306.79" cy="408.71" r="3.95"/><circle class="cls-2" cx="306.79" cy="408.71" r="1.97"/></g><path class="cls-6" d="M787.8,44.22c-174.89,0-318.64,118.13-335.23,269.27L353,353.14s-6.51,2.41-5.85,11.74a12.7,12.7,0,0,0,7.43,10.89L458.82,407C492,541,626.68,641.26,787.8,641.26c186,0,336.84-133.65,336.84-298.52S973.83,44.22,787.8,44.22Z"/><path class="cls-9" d="M787.75,0C612.85,0,469.11,118.13,452.52,269.27L353,308.92s-6.51,2.41-5.86,11.74a12.7,12.7,0,0,0,7.44,10.88l104.21,31.28C492,496.78,626.63,597,787.75,597c186,0,336.84-133.65,336.84-298.52S973.78,0,787.75,0Z"/><g class="cls-10"><path class="cls-11" d="M153.64,564.7s24.48-21.86,24.48-27-14.34-8.35-14.34-8.35l-20.42,29.5,9.58,7.33Z"/><path class="cls-12" d="M176.3,358.82S129.4,227,183.74,159.92c0,0,58.11-39.81,101.53,7s13,178.54,13,178.54Z"/><g class="cls-13"><polygon class="cls-14" points="293.83 311.8 293.86 312.12 182.43 322.49 182.43 311.8 293.83 311.8"/><polygon class="cls-14" points="293.86 312.12 293.89 312.49 293.89 312.93 182.43 323.3 182.43 322.49 293.86 312.12"/><polygon class="cls-15" points="293.89 313.74 182.43 324.11 182.43 323.3 293.89 312.93 293.89 313.74"/><polygon class="cls-16" points="293.89 314.55 182.43 324.93 182.43 324.11 293.89 313.74 293.89 314.55"/><polygon class="cls-17" points="293.89 315.37 182.43 325.74 182.43 324.93 293.89 314.55 293.89 315.37"/><polygon class="cls-18" points="293.89 316.18 182.43 326.55 182.43 325.74 293.89 315.37 293.89 316.18"/><polygon class="cls-19" points="293.89 316.99 182.43 327.37 182.43 326.55 293.89 316.18 293.89 316.99"/><polygon class="cls-20" points="293.89 317.81 182.43 328.18 182.43 327.37 293.89 316.99 293.89 317.81"/><polygon class="cls-21" points="293.89 318.62 182.43 328.99 182.43 328.18 293.89 317.81 293.89 318.62"/><polygon class="cls-22" points="293.89 319.43 182.43 329.81 182.43 328.99 293.89 318.62 293.89 319.43"/><polygon class="cls-23" points="293.89 320.24 182.43 330.62 182.43 329.81 293.89 319.43 293.89 320.24"/><polygon class="cls-24" points="293.89 321.06 182.43 331.43 182.43 330.62 293.89 320.24 293.89 321.06"/><polygon class="cls-25" points="293.89 321.87 182.43 332.24 182.43 331.43 293.89 321.06 293.89 321.87"/><polygon class="cls-26" points="293.89 322.68 182.43 333.06 182.43 332.24 293.89 321.87 293.89 322.68"/><polygon class="cls-27" points="293.89 323.5 182.43 333.87 182.43 333.06 293.89 322.68 293.89 323.5"/><polygon class="cls-28" points="293.89 324.31 182.43 334.68 182.43 333.87 293.89 323.5 293.89 324.31"/><polygon class="cls-29" points="293.89 325.12 182.43 335.5 182.43 334.68 293.89 324.31 293.89 325.12"/><polygon class="cls-30" points="293.89 325.94 182.43 336.31 182.43 335.5 293.89 325.12 293.89 325.94"/><polygon class="cls-31" points="293.89 326.75 182.43 337.12 182.43 336.31 293.89 325.94 293.89 326.75"/><polygon class="cls-32" points="293.89 327.56 182.43 337.94 182.43 337.12 293.89 326.75 293.89 327.56"/><polygon class="cls-33" points="293.89 328.38 182.43 338.75 182.43 337.94 293.89 327.56 293.89 328.38"/><polygon class="cls-34" points="293.89 329.19 182.43 339.56 182.43 338.75 293.89 328.38 293.89 329.19"/><polygon class="cls-35" points="293.89 330 182.43 340.38 182.43 339.56 293.89 329.19 293.89 330"/><polygon class="cls-36" points="293.89 330.82 182.43 341.19 182.43 340.38 293.89 330 293.89 330.82"/><polygon class="cls-36" points="184.46 384.38 182.43 362.56 182.43 341.19 293.89 330.82 293.89 384.38 184.46 384.38"/></g><path class="cls-36" d="M182.71,220.71s-.88,110.78,64.76,101.68C283,317.47,295,282,288.35,251.47a191.55,191.55,0,0,1-3.79-46.76s-4.08-29.37-38.7-20.31-49.64,5.72-49.64,5.72S180.65,193.3,182.71,220.71Z"/><path class="cls-12" d="M177.18,226.89s25.09-2.78,36.43-7.67l.58-15.39s2.55,9.93,4.85,12.4,22.88-.73,32-3.58,4.81-14.7,4.81-14.7l4.34,11.85s28.57,3.45,28.73-.93-3.86-24.71-12.21-28.74-73.88-4.44-83.08,4.1S177.64,214.69,177.18,226.89Z"/><ellipse class="cls-37" cx="266.06" cy="242.56" rx="3.92" ry="3.17" transform="translate(-22.23 26.9) rotate(-5.56)"/><ellipse class="cls-37" cx="226.99" cy="246.26" rx="3.92" ry="3.17" transform="translate(-22.77 23.13) rotate(-5.56)"/><path class="cls-38" d="M250.66,277a15.34,15.34,0,0,1-5.17-.8l.35-.94c5.16,1.91,13.88,0,15.56-3.34,1.13-2.27-1.43-4.53-3.78-6-6.89-4.38-5.32-8.94-5.25-9.13l.94.34c-.05.16-1.33,4,4.84,7.94,4.89,3.11,5,5.69,4.15,7.32C260.83,275.31,255.48,277,250.66,277Z"/><path class="cls-39" d="M265.06,287.05c-18.37,3.57-37.46.15-36.73,1.15,0,0,1.77,10.68,18,10.61C263.08,298.73,265.06,287.05,265.06,287.05Z"/><path class="cls-11" d="M219.49,331.75s22.52,13.66,36.94,11.81c6.84-.88,18.95-14,18.95-14l13,129.73-49.8,2.24Z"/><path class="cls-4" d="M172.77,555.72s-17.61,72.57-15.62,92.45,4.67,52.17,34,145.94c0,0,78.26,32.39,150.2-.8,0,0,6.29-1.86,10.91-43.82S364.68,606.9,343.54,562,172.77,555.72,172.77,555.72Z"/><path class="cls-12" d="M271.16,224s-6.44-4.41-10.23.1a.89.89,0,0,0-.21,1.24c.5.72,1.31-2.15,10.2-.47C270.92,224.88,271.48,225,271.16,224Z"/><path class="cls-12" d="M218.84,227.22s5.76-5.29,10.14-1.36a.89.89,0,0,1,.39,1.2c-.4.78-1.61-1.94-10.16,1C219.21,228,218.66,228.24,218.84,227.22Z"/><path class="cls-11" d="M262.73,287.47s-.64,2.4-2,3.09-15.62,1.5-24.11.72c-5.38-.5-6.4-2.5-6.25-3.23C230.39,288.05,249.2,289.75,262.73,287.47Z"/><path class="cls-40" d="M249.49,298.64s-1.22-7.27-18.49-5.37C231,293.27,235.13,299.91,249.49,298.64Z"/><ellipse class="cls-41" cx="281.12" cy="252.77" rx="3.62" ry="6.23" transform="translate(5.89 511.94) rotate(-85.24)"/><ellipse class="cls-41" cx="214.9" cy="262.02" rx="6.23" ry="3.62" transform="translate(-52.55 53.92) rotate(-12.76)"/><path class="cls-42" d="M333.67,438.84l41.91,37.38s10.59,6.85,14.41,7.27c4,.44,18.28-9.52,18.28-9.52l39.67-86.66s-43.31-16.06-43.67-19.67-13.35,48.69-13.35,48.69-1-1.57-6.5-.5c-3,.58-1.8,5.6-7.87-.14-3.74-3.54-4.14-3.13-9.36-10.51-29.22-41.33-56.53-70.83-58.39-72.35s-11-6.17-14.23-4.65-19.19,1.41-19.19,1.41L278,445,219.49,331.75s-12.56,4.33-26.08,2.61S157.17,338,157.17,338s-10.23,27.71-17.55,29.81-11,20.25-11,20.25c-2.17,2.65-10.18,14.08-19.61,27.72h0s-37.48,45.93-43,49.91-2.65,13.44-2.65,13.44l78.84,83.79,27.83-35.51C163,526.89,127,477.62,127,477.62c2.53-4.53,2.3-8.26,1.56-10.72,17.3-18.49,42.63-47.18,42.63-47.18.41,4.06,6.47,16.8,16.94,32.51s9.68,42.14,9.68,42.14c-14.94,21.68-25,61.35-25,61.35s1,7.92,26.28,20.54c11,5.51,46.51,16.31,46.51,16.31L285,549.29l50.78,35.64s9.12-9.13,8.21-18.27-18.44-63.5-18.44-63.5-1.89-19,.28-24.66S333.67,438.84,333.67,438.84Z"/><path class="cls-14" d="M153.64,564.7s12.2,10.7,14.67,8.23l12.44-35.19S165.17,549,153.64,564.7Z"/><path class="cls-36" d="M171,565.87s5.9-5.86,14.86,2.8,9.68,9.26,9.68,9.26,7,2.88,7.52-4.63c0,0,8.8,1.29,6.83-8.39,0,0,6.13-4.42.71-12,0,0,5.5-1.06,2.23-11.47s-24-20.46-24-20.46S178.84,517.45,178,529c0,0-7.16.38-4.66,10.38,0,0-4.65,4.2-3.65,8.77s-.11,3.66-.11,3.66S162.9,559.29,171,565.87Z"/><path class="cls-38" d="M202.67,573.63c-.11-.14-11.87-13.67-24.48-19.79l.44-.9c12.79,6.21,24.68,19.9,24.8,20Z"/><path class="cls-38" d="M209.53,565.27c-.17-.16-17.14-16.1-29.48-22.75l.48-.88c12.45,6.72,29.52,22.74,29.69,22.9Z"/><path class="cls-38" d="M210.2,553.19c-.15-.18-15.21-17.9-27.55-21.76l.3-.95c12.61,3.94,27.39,21.33,28,22.07Z"/><path class="cls-43" d="M219.49,331.75s-24.15,11.65-37.22,31.43l44.37,12.67s-15.11,14.86-14.79,18.07S278,445,278,445s33.54-61.51,29.81-64.56-24.28-6.81-24.28-6.81S303,346,306.41,345.64s-28-16.36-31-16.05,2.52,110.28,2.52,110.28l-.15,2.38Z"/><path class="cls-4" d="M278,445s9.26,81.81,7,104.33"/><circle class="cls-44" cx="291.76" cy="469.64" r="5.33"/><circle class="cls-44" cx="293.89" cy="507.64" r="5.33"/><path class="cls-45" d="M173.92,402.9l-1-.23a76.65,76.65,0,0,0-11.56-60.85l.82-.57A77.63,77.63,0,0,1,173.92,402.9Z"/><path class="cls-45" d="M329.2,405.1l-1-.09c1.1-12.3-3.36-24.58-7.3-35.41-4.66-12.82-9.95-27.35-20.07-37.88l.72-.69c10.27,10.68,15.59,25.32,20.29,38.23C325.81,380.19,330.32,392.58,329.2,405.1Z"/><path class="cls-45" d="M146.43,375.14a27.4,27.4,0,0,0-3.49-6.94l.82-.57a28.39,28.39,0,0,1,3.62,7.19Z"/><path class="cls-45" d="M136.15,390.8a33.69,33.69,0,0,0-6.08-.83l.05-1a36.56,36.56,0,0,1,6.25.85Z"/><path class="cls-45" d="M334.55,439.12l-1-.11a73.17,73.17,0,0,0,.43-11.93l1,0A73.89,73.89,0,0,1,334.55,439.12Z"/><path class="cls-45" d="M396.5,433.11a74.37,74.37,0,0,0-2.84-11.6l.95-.31A74,74,0,0,1,397.48,433Z"/><path class="cls-45" d="M383.16,434.09l-1-.15a58.15,58.15,0,0,0,.75-10.74l1,0A59.25,59.25,0,0,1,383.16,434.09Z"/><path class="cls-45" d="M200.53,494.73l-.53-.85a60,60,0,0,1,11.6-5.54l.33.94A59.09,59.09,0,0,0,200.53,494.73Z"/><path class="cls-45" d="M127.88,467.41c-2.32,0-10-.2-12.54-2.75l.71-.71c2.65,2.66,12.36,2.45,12.46,2.45l0,1Z"/><path class="cls-45" d="M118.94,481.06v-1c3.43,0,7.7-2.83,7.74-2.86l.56.83C127.05,478.16,122.68,481.06,118.94,481.06Z"/><path class="cls-46" d="M405,372.47a11.23,11.23,0,0,1,3.26-6.3L449.13,378l-4.26,11.35Z"/><path class="cls-36" d="M413.24,368.67s2.55-5.88,1.16-10.37-5.57-14.17-4.84-19.36a101.16,101.16,0,0,0,1.33-15.6c0-16-1.25-38.25-1.16-38.92.14-1,6.37-.85,6.68,2.46.12,1.26-.27,7.05.61,12.71,1.43,9.25,3.23,20.4,3.23,20.4s12.35-3.55,16.86-.31c0,0,8.21-2.12,9,1.69,0,0,6.59-.47,6.72,2.47a76.37,76.37,0,0,1,0,9c-.08.53-3.31,5.76-3.68,8.66-.74,5.81,1,11.35-.56,14.66-2.35,5-7.64,8.17-7.83,9.53s-2.62,12.93-3.33,13.46S412.59,373.28,413.24,368.67Z"/><path class="cls-38" d="M431.15,344.62l-.38,0c-1.67-.14-3.4-1.31-3.24-4.18a17.18,17.18,0,0,1,1.35-4.27c.65-1.63,1.64-4.1,1.24-4.64a13.19,13.19,0,0,1-1.58-4.26c-1.17.7-3.23,1.63-4.27.23l.79-.6c.63.84,2.5-.14,3.51-.85l.69.08.08.1,0,.14a14.22,14.22,0,0,0,1.55,4.56c.74,1-.12,3.13-1.11,5.62a16.75,16.75,0,0,0-1.28,4c-.15,2.63,1.58,3.06,2.32,3.13a3.88,3.88,0,0,0,4.13-3.17,18.17,18.17,0,0,1,.85-2.57,32.9,32.9,0,0,0,1.46-4.53c.18-1.31-.43-10.28-.68-13.62l1-.07c0,.49.9,12.15.67,13.83a32.68,32.68,0,0,1-1.51,4.73c-.36,1-.77,2.09-.8,2.34A4.81,4.81,0,0,1,431.15,344.62Z"/><path class="cls-38" d="M440.27,344.18l-.3,0a6.62,6.62,0,0,1-5-3.46l.91-.42a5.59,5.59,0,0,0,4.18,2.89,1.16,1.16,0,0,0,.88-.26c1.28-1,2.27-4.19,2.94-9.54l.06-.43,1.65-11.64,1,.14-1.7,12.05c-.27,2.1-1.06,8.48-3.33,10.21A2.17,2.17,0,0,1,440.27,344.18Z"/><path class="cls-38" d="M447.53,342.16a4.36,4.36,0,0,1-1.46-.27,4.46,4.46,0,0,1-2.89-2.82l1-.23a3.56,3.56,0,0,0,2.26,2.11,2.37,2.37,0,0,0,2.25-.13c1.29-1,3.15-6.17,3.76-8.1l1,.31c-.24.74-2.34,7.26-4.11,8.59A2.86,2.86,0,0,1,447.53,342.16Z"/><path class="cls-36" d="M421.52,355.71c1.12.16,5.94-3.58,6.86-5.66s1.8-4.73,1.8-4.73,3.7-1.81,5.2-1.54c3.17.58,5.87-2.24,5.84-4,0-2-2.6-4.12-7.44-3,0,0-4.18,1.57-5.11,1.44s-3.64-.13-4.77.72a8.14,8.14,0,0,1-4.51,1.13c-.93-.13-3.36-.13-4.39.64"/><path class="cls-38" d="M421.57,356.21h-.12l.14-1h0c.86,0,5.41-3.34,6.31-5.37s1.78-4.66,1.78-4.69l.07-.2.19-.09c.39-.19,3.9-1.87,5.51-1.58a4.65,4.65,0,0,0,3.84-1.13,3.58,3.58,0,0,0,1.41-2.38,2.47,2.47,0,0,0-1-1.85c-1.26-1-3.38-1.26-5.8-.72-.65.25-4.28,1.58-5.29,1.45s-3.49-.07-4.4.62a8.58,8.58,0,0,1-4.88,1.22c-1-.14-3.19-.07-4,.55l-.6-.8c1.18-.89,3.76-.88,4.76-.74a7.75,7.75,0,0,0,4.14-1c1.31-1,4.23-.94,5.14-.81a22.41,22.41,0,0,0,4.86-1.42c3.8-.85,5.83.2,6.71.89a3.48,3.48,0,0,1,1.41,2.62,4.48,4.48,0,0,1-1.76,3.17,5.72,5.72,0,0,1-4.67,1.34c-.93-.17-3.3.74-4.7,1.41-.23.66-1,2.83-1.75,4.58C427.9,352.35,423.16,356.21,421.57,356.21Z"/></g><path class="cls-47" d="M567.57,239.73h-9v9.14H569l.14-3.3h1.6v4.83H554.27v-1.33l2.46-.2v-19l-2.46-.19v-1.35h16.34v4.84H569l-.14-3.3H558.54v8.28h9Z"/><path class="cls-47" d="M586.42,235.37l-2,.15,4.09,10.78.53,1.92h.09l.58-1.92,4-10.78-2-.15V234h5.51v1.35l-1.6.13-5.79,14.9h-1.45l-5.8-14.9-1.6-.13V234h5.51Z"/><path class="cls-47" d="M610.23,250.4c-.12-.56-.21-1-.26-1.44a9.9,9.9,0,0,1-.08-1.23,7.2,7.2,0,0,1-2.42,2.14,6.89,6.89,0,0,1-3.4.85,5.22,5.22,0,0,1-3.73-1.25,4.4,4.4,0,0,1-1.31-3.36,4.15,4.15,0,0,1,2-3.6,9.26,9.26,0,0,1,5.3-1.33h3.61V239a3.49,3.49,0,0,0-1.12-2.75,4.61,4.61,0,0,0-3.16-1,7.84,7.84,0,0,0-2.49.37,5.52,5.52,0,0,0-1.88,1l-.15,2.19h-1.5v-3.15a9.7,9.7,0,0,1,2.72-1.42,10.35,10.35,0,0,1,3.37-.54,6.64,6.64,0,0,1,4.36,1.37A4.86,4.86,0,0,1,611.7,239v8.06c0,.33,0,.65,0,1a6.52,6.52,0,0,0,.1.9l1.63.11v1.33Zm-6-1.29a6.51,6.51,0,0,0,3.47-.91,5.27,5.27,0,0,0,2.16-2.34v-3.29h-3.64a6.84,6.84,0,0,0-4,1,3,3,0,0,0-1.47,2.58,2.7,2.7,0,0,0,.91,2.13A3.67,3.67,0,0,0,604.26,249.11Z"/><path class="cls-47" d="M615.63,235.37V234h4.07l.17,2.71a5.72,5.72,0,0,1,2.1-2.23,6.07,6.07,0,0,1,3.14-.78,5.18,5.18,0,0,1,3.13.91,5,5,0,0,1,1.8,2.79,6.41,6.41,0,0,1,2.11-2.71,5.57,5.57,0,0,1,3.34-1,4.94,4.94,0,0,1,4,1.74c1,1.16,1.43,2.95,1.43,5.39v8l2.47.22v1.33h-6.77v-1.33l2.47-.22v-8c0-2-.36-3.45-1.07-4.28a3.7,3.7,0,0,0-3-1.25,4.06,4.06,0,0,0-3.27,1.35,6.47,6.47,0,0,0-1.41,3.43,1.62,1.62,0,0,0,0,.23v8.57l2.47.2v1.33h-6.75v-1.33l2.47-.2v-8.05a6.6,6.6,0,0,0-1.08-4.25,3.72,3.72,0,0,0-3-1.28,4.52,4.52,0,0,0-3.06,1,5.17,5.17,0,0,0-1.59,2.62v10l2.47.2v1.33h-6.75v-1.33l2.47-.2V235.56Z"/><path class="cls-47" d="M645.53,242a8.82,8.82,0,0,1,2-5.94A7.14,7.14,0,0,1,658,236a8.82,8.82,0,0,1,2,5.94v.5a8.85,8.85,0,0,1-2,5.94,7.16,7.16,0,0,1-10.53,0,8.81,8.81,0,0,1-2-5.94Zm1.81.5a7.8,7.8,0,0,0,1.44,4.78,4.72,4.72,0,0,0,4,1.94,4.68,4.68,0,0,0,4-1.94,7.8,7.8,0,0,0,1.44-4.78V242a7.8,7.8,0,0,0-1.45-4.76,5,5,0,0,0-8,0,7.8,7.8,0,0,0-1.44,4.76Z"/><path class="cls-47" d="M674.85,239.08h-1.49l-.21-2.32a4.74,4.74,0,0,0-1.72-1.11,6.71,6.71,0,0,0-2.38-.39,4.47,4.47,0,0,0-3,.86,2.56,2.56,0,0,0-1,2,2.39,2.39,0,0,0,.86,1.88,8.36,8.36,0,0,0,3.41,1.3,11.15,11.15,0,0,1,4.38,1.78,3.68,3.68,0,0,1,1.45,3.06,4,4,0,0,1-1.66,3.31,7,7,0,0,1-4.38,1.27,10.22,10.22,0,0,1-3.31-.51,8.07,8.07,0,0,1-2.58-1.43v-3.3h1.47l.26,2.33a4.22,4.22,0,0,0,1.84,1.05,8.08,8.08,0,0,0,2.32.33,5,5,0,0,0,3.1-.87,2.54,2.54,0,0,0,1.14-2.08,2.67,2.67,0,0,0-1-2,7.82,7.82,0,0,0-3.41-1.41,11.52,11.52,0,0,1-4.34-1.68,3.49,3.49,0,0,1-1.41-2.95,3.94,3.94,0,0,1,1.59-3.17,6.43,6.43,0,0,1,4.19-1.29,9.35,9.35,0,0,1,3.29.55,6.67,6.67,0,0,1,2.43,1.49Z"/><path class="cls-47" d="M689.94,234l.23,2.72v.2a5.71,5.71,0,0,1,1.9-2.37,4.78,4.78,0,0,1,2.85-.85,3.64,3.64,0,0,1,.67.05c.22,0,.4.07.54.11l-.24,1.7-1.35-.09a4.11,4.11,0,0,0-2.81,1,5.28,5.28,0,0,0-1.56,2.64v9.78l2.46.2v1.33H685.9v-1.33l2.46-.2V235.56l-2.46-.19V234h4Z"/><path class="cls-47" d="M705.41,250.72a6.58,6.58,0,0,1-5.12-2.27,8.32,8.32,0,0,1-2-5.76v-.83a8.6,8.6,0,0,1,2-5.83,6.28,6.28,0,0,1,4.89-2.31,6.06,6.06,0,0,1,4.73,1.9,7.32,7.32,0,0,1,1.73,5.09v1.54H700.07v.44a7.27,7.27,0,0,0,1.47,4.63,4.7,4.7,0,0,0,3.87,1.87,7.88,7.88,0,0,0,2.87-.47,5.77,5.77,0,0,0,2.05-1.35l.77,1.24a6.54,6.54,0,0,1-2.33,1.54A9,9,0,0,1,705.41,250.72Zm-.24-15.46a4.31,4.31,0,0,0-3.37,1.54,6.53,6.53,0,0,0-1.6,3.85l0,.08h9.6v-.46a5.23,5.23,0,0,0-1.26-3.57A4.28,4.28,0,0,0,705.17,235.26Z"/><path class="cls-47" d="M726.75,239.08h-1.48l-.21-2.32a4.82,4.82,0,0,0-1.72-1.11,6.77,6.77,0,0,0-2.39-.39,4.44,4.44,0,0,0-3,.86,2.56,2.56,0,0,0-1,2,2.38,2.38,0,0,0,.85,1.88,8.35,8.35,0,0,0,3.42,1.3,11.16,11.16,0,0,1,4.37,1.78,3.66,3.66,0,0,1,1.45,3.06,4,4,0,0,1-1.65,3.31,7.07,7.07,0,0,1-4.38,1.27,10.13,10.13,0,0,1-3.31-.51,7.86,7.86,0,0,1-2.58-1.43v-3.3h1.47l.25,2.33a4.34,4.34,0,0,0,1.84,1.05,8.15,8.15,0,0,0,2.33.33,5,5,0,0,0,3.1-.87,2.55,2.55,0,0,0,1.13-2.08,2.66,2.66,0,0,0-.94-2,7.82,7.82,0,0,0-3.42-1.41,11.46,11.46,0,0,1-4.33-1.68,3.47,3.47,0,0,1-1.42-2.95,3.94,3.94,0,0,1,1.59-3.17,6.45,6.45,0,0,1,4.19-1.29,9.44,9.44,0,0,1,3.3.55,6.67,6.67,0,0,1,2.43,1.49Z"/><path class="cls-47" d="M730.38,242a8.78,8.78,0,0,1,2-5.94,7.14,7.14,0,0,1,10.52,0,8.82,8.82,0,0,1,2,5.94v.5a8.81,8.81,0,0,1-2,5.94,6.54,6.54,0,0,1-5.24,2.31,6.61,6.61,0,0,1-5.28-2.31,8.76,8.76,0,0,1-2-5.94Zm1.82.5a7.8,7.8,0,0,0,1.44,4.78,4.71,4.71,0,0,0,4,1.94,4.66,4.66,0,0,0,4-1.94,7.8,7.8,0,0,0,1.44-4.78V242a7.8,7.8,0,0,0-1.44-4.76,5,5,0,0,0-8,0A7.8,7.8,0,0,0,732.2,242Z"/><path class="cls-47" d="M747.16,228.13v-1.35h4.26v22.09l2.47.2v1.33h-6.73v-1.33l2.46-.2V228.33Z"/><path class="cls-47" d="M761.5,235.37l-2,.15,4.09,10.78.53,1.92h.09l.57-1.92,4-10.78-2-.15V234h5.51v1.35l-1.61.13-5.78,14.9H763.4l-5.8-14.9-1.61-.13V234h5.51Z"/><path class="cls-47" d="M781.26,250.72a6.58,6.58,0,0,1-5.12-2.27,8.32,8.32,0,0,1-2-5.76v-.83a8.6,8.6,0,0,1,2-5.83,6.28,6.28,0,0,1,4.89-2.31,6.06,6.06,0,0,1,4.73,1.9,7.32,7.32,0,0,1,1.73,5.09v1.54H775.92v.44a7.27,7.27,0,0,0,1.47,4.63,4.7,4.7,0,0,0,3.87,1.87,7.88,7.88,0,0,0,2.87-.47,5.77,5.77,0,0,0,2-1.35l.77,1.24a6.54,6.54,0,0,1-2.33,1.54A9,9,0,0,1,781.26,250.72ZM781,235.26a4.31,4.31,0,0,0-3.37,1.54,6.53,6.53,0,0,0-1.6,3.85l0,.08h9.6v-.46a5.23,5.23,0,0,0-1.26-3.57A4.28,4.28,0,0,0,781,235.26Z"/><path class="cls-47" d="M794.64,234l.23,2.72v.2a5.71,5.71,0,0,1,1.9-2.37,4.78,4.78,0,0,1,2.85-.85,3.64,3.64,0,0,1,.67.05c.22,0,.4.07.54.11l-.24,1.7-1.35-.09a4.13,4.13,0,0,0-2.81,1,5.28,5.28,0,0,0-1.56,2.64v9.78l2.46.2v1.33H790.6v-1.33l2.47-.2V235.56l-2.47-.19V234h4Z"/><path class="cls-47" d="M822,250.4c-.12-.56-.2-1-.26-1.44a9.92,9.92,0,0,1-.07-1.23,7.3,7.3,0,0,1-2.42,2.14,6.93,6.93,0,0,1-3.41.85,5.21,5.21,0,0,1-3.72-1.25,4.37,4.37,0,0,1-1.32-3.36,4.15,4.15,0,0,1,1.95-3.6,9.28,9.28,0,0,1,5.3-1.33h3.62V239a3.49,3.49,0,0,0-1.13-2.75,4.56,4.56,0,0,0-3.15-1,7.84,7.84,0,0,0-2.49.37,5.57,5.57,0,0,0-1.89,1l-.15,2.19h-1.5l0-3.15a9.64,9.64,0,0,1,2.71-1.42,10.39,10.39,0,0,1,3.37-.54,6.62,6.62,0,0,1,4.36,1.37,4.86,4.86,0,0,1,1.65,3.95v8.06c0,.33,0,.65,0,1a8.54,8.54,0,0,0,.1.9l1.64.11v1.33Zm-6-1.29a6.47,6.47,0,0,0,3.46-.91,5.3,5.3,0,0,0,2.17-2.34v-3.29H818a6.81,6.81,0,0,0-3.94,1,3,3,0,0,0-1.48,2.58,2.71,2.71,0,0,0,.92,2.13A3.67,3.67,0,0,0,816.06,249.11Z"/><path class="cls-47" d="M827.46,228.13v-1.35h4.26v22.09l2.47.2v1.33h-6.73v-1.33l2.46-.2V228.33Z"/><path class="cls-47" d="M837,242.34a10.58,10.58,0,0,1,1.67-6.27,5.36,5.36,0,0,1,4.64-2.35,5.77,5.77,0,0,1,3,.76,6.07,6.07,0,0,1,2.11,2.16l.21-2.62h1.53v16.17a7,7,0,0,1-1.71,5,6.21,6.21,0,0,1-4.77,1.83,11.54,11.54,0,0,1-2.52-.29,10,10,0,0,1-2.34-.78l.49-1.53a10.94,10.94,0,0,0,2.06.73,9.9,9.9,0,0,0,2.28.25,4.34,4.34,0,0,0,3.51-1.38,5.65,5.65,0,0,0,1.18-3.82v-2.08a5.62,5.62,0,0,1-2.1,1.93,6.27,6.27,0,0,1-3,.68,5.49,5.49,0,0,1-4.62-2.2,9.46,9.46,0,0,1-1.66-5.86Zm1.81.32a8.19,8.19,0,0,0,1.21,4.72,4.07,4.07,0,0,0,3.59,1.76,4.82,4.82,0,0,0,4.75-3v-7.6a5.72,5.72,0,0,0-1.74-2.34,4.64,4.64,0,0,0-3-.9,4,4,0,0,0-3.61,2,9.55,9.55,0,0,0-1.22,5.08Z"/><path class="cls-47" d="M866.31,247.7a5.6,5.6,0,0,1-2.11,2.23,6.17,6.17,0,0,1-3.16.79,5,5,0,0,1-4-1.76q-1.47-1.76-1.47-5.45v-7.95l-2-.19V234h3.83v9.52a7.06,7.06,0,0,0,1,4.3,3.45,3.45,0,0,0,2.9,1.3,5.31,5.31,0,0,0,3.27-.91,4.78,4.78,0,0,0,1.72-2.51V235.56l-2.33-.19V234h4.15v14.85l2.19.2v1.33h-3.78Z"/><path class="cls-47" d="M872.53,235.37V234h4.07l.17,2.71a5.82,5.82,0,0,1,2.11-2.23,6,6,0,0,1,3.13-.78,5.18,5.18,0,0,1,3.13.91,5,5,0,0,1,1.8,2.79,6.41,6.41,0,0,1,2.11-2.71,5.57,5.57,0,0,1,3.34-1,4.94,4.94,0,0,1,4.05,1.74c.95,1.16,1.43,2.95,1.43,5.39v8l2.47.22v1.33h-6.77v-1.33l2.47-.22v-8c0-2-.36-3.45-1.07-4.28a3.7,3.7,0,0,0-3-1.25,4,4,0,0,0-3.26,1.35,6.4,6.4,0,0,0-1.42,3.43,1.62,1.62,0,0,0,0,.23c0,.07,0,.16,0,.27v8.3l2.46.2v1.33h-6.75v-1.33l2.47-.2v-8.05a6.6,6.6,0,0,0-1.08-4.25,3.71,3.71,0,0,0-3-1.28,4.52,4.52,0,0,0-3.06,1,5.16,5.16,0,0,0-1.58,2.62v10l2.46.2v1.33h-6.75v-1.33l2.47-.2V235.56Z"/><path class="cls-47" d="M913.89,250.4c-.12-.56-.21-1-.26-1.44a9.9,9.9,0,0,1-.08-1.23,7.2,7.2,0,0,1-2.42,2.14,6.89,6.89,0,0,1-3.4.85,5.22,5.22,0,0,1-3.73-1.25,4.4,4.4,0,0,1-1.31-3.36,4.15,4.15,0,0,1,1.95-3.6,9.26,9.26,0,0,1,5.3-1.33h3.61V239a3.49,3.49,0,0,0-1.12-2.75,4.61,4.61,0,0,0-3.16-1,7.84,7.84,0,0,0-2.49.37,5.52,5.52,0,0,0-1.88,1l-.15,2.19h-1.5v-3.15a9.7,9.7,0,0,1,2.72-1.42,10.35,10.35,0,0,1,3.37-.54,6.64,6.64,0,0,1,4.36,1.37,4.86,4.86,0,0,1,1.65,3.95v8.06c0,.33,0,.65,0,1a6.52,6.52,0,0,0,.1.9l1.63.11v1.33Zm-6-1.29a6.51,6.51,0,0,0,3.47-.91,5.27,5.27,0,0,0,2.16-2.34v-3.29h-3.64a6.84,6.84,0,0,0-3.95,1,3,3,0,0,0-1.47,2.58,2.7,2.7,0,0,0,.91,2.13A3.67,3.67,0,0,0,907.92,249.11Z"/><path class="cls-47" d="M931.57,239.08h-1.49l-.21-2.32a4.74,4.74,0,0,0-1.72-1.11,6.71,6.71,0,0,0-2.38-.39,4.44,4.44,0,0,0-3,.86,2.55,2.55,0,0,0-1,2,2.39,2.39,0,0,0,.86,1.88,8.36,8.36,0,0,0,3.41,1.3,11.15,11.15,0,0,1,4.38,1.78,3.66,3.66,0,0,1,1.45,3.06,4,4,0,0,1-1.66,3.31,7,7,0,0,1-4.38,1.27,10.22,10.22,0,0,1-3.31-.51,8.07,8.07,0,0,1-2.58-1.43v-3.3h1.47l.26,2.33a4.28,4.28,0,0,0,1.84,1.05,8.08,8.08,0,0,0,2.32.33,5,5,0,0,0,3.1-.87,2.54,2.54,0,0,0,1.14-2.08,2.67,2.67,0,0,0-1-2,7.82,7.82,0,0,0-3.41-1.41,11.52,11.52,0,0,1-4.34-1.68,3.49,3.49,0,0,1-1.41-2.95,3.94,3.94,0,0,1,1.59-3.17,6.43,6.43,0,0,1,4.19-1.29,9.35,9.35,0,0,1,3.29.55,6.59,6.59,0,0,1,2.43,1.49Z"/><path class="cls-47" d="M942.74,242.34a10.73,10.73,0,0,1,1.65-6.27,5.35,5.35,0,0,1,4.63-2.35,5.87,5.87,0,0,1,2.94.7,5.74,5.74,0,0,1,2.08,2l.19-2.42h1.59v21.13l2.46.2v1.34h-6.75v-1.34l2.47-.2v-6.9a5.64,5.64,0,0,1-2.09,1.83,6.44,6.44,0,0,1-2.92.64,5.46,5.46,0,0,1-4.6-2.2,9.52,9.52,0,0,1-1.65-5.86Zm1.83.32a8.38,8.38,0,0,0,1.19,4.75,4,4,0,0,0,3.58,1.78,5.05,5.05,0,0,0,2.85-.77,5.27,5.27,0,0,0,1.81-2.09v-8a6,6,0,0,0-1.76-2.21,4.64,4.64,0,0,0-2.87-.86,3.94,3.94,0,0,0-3.6,2,9.7,9.7,0,0,0-1.2,5.1Z"/><path class="cls-47" d="M972.09,247.7a5.67,5.67,0,0,1-2.11,2.23,6.2,6.2,0,0,1-3.16.79,5,5,0,0,1-4.05-1.76q-1.46-1.76-1.46-5.45v-7.95l-2-.19V234h3.83v9.52a7.06,7.06,0,0,0,1,4.3,3.47,3.47,0,0,0,2.9,1.3,5.34,5.34,0,0,0,3.28-.91,4.84,4.84,0,0,0,1.72-2.51V235.56l-2.33-.19V234h4.14v14.85l2.2.2v1.33h-3.79Z"/><path class="cls-47" d="M985.92,250.72a6.56,6.56,0,0,1-5.11-2.27,8.27,8.27,0,0,1-2-5.76v-.83a8.55,8.55,0,0,1,2-5.83,6.26,6.26,0,0,1,4.88-2.31,6.07,6.07,0,0,1,4.74,1.9,7.31,7.31,0,0,1,1.72,5.09v1.54H980.58v.44a7.27,7.27,0,0,0,1.47,4.63,4.73,4.73,0,0,0,3.87,1.87,8,8,0,0,0,2.88-.47,5.73,5.73,0,0,0,2-1.35l.77,1.24a6.45,6.45,0,0,1-2.33,1.54A9,9,0,0,1,985.92,250.72Zm-.24-15.46a4.33,4.33,0,0,0-3.37,1.54,6.65,6.65,0,0,0-1.6,3.85l0,.08h9.59v-.46a5.27,5.27,0,0,0-1.25-3.57A4.3,4.3,0,0,0,985.68,235.26Z"/><path class="cls-47" d="M1007.27,239.08h-1.49l-.21-2.32a4.74,4.74,0,0,0-1.72-1.11,6.71,6.71,0,0,0-2.38-.39,4.47,4.47,0,0,0-3,.86,2.56,2.56,0,0,0-1,2,2.39,2.39,0,0,0,.86,1.88,8.36,8.36,0,0,0,3.41,1.3,11.15,11.15,0,0,1,4.38,1.78,3.68,3.68,0,0,1,1.45,3.06,4,4,0,0,1-1.66,3.31,7,7,0,0,1-4.38,1.27,10.22,10.22,0,0,1-3.31-.51,8.07,8.07,0,0,1-2.58-1.43v-3.3h1.47l.26,2.33a4.22,4.22,0,0,0,1.84,1.05,8.08,8.08,0,0,0,2.32.33,5,5,0,0,0,3.1-.87,2.54,2.54,0,0,0,1.14-2.08,2.67,2.67,0,0,0-.95-2,7.82,7.82,0,0,0-3.41-1.41,11.52,11.52,0,0,1-4.34-1.68,3.49,3.49,0,0,1-1.41-2.95,3.94,3.94,0,0,1,1.59-3.17,6.43,6.43,0,0,1,4.19-1.29,9.35,9.35,0,0,1,3.29.55,6.67,6.67,0,0,1,2.43,1.49Z"/><path class="cls-47" d="M1015.06,229.83V234h3.6v1.48h-3.6v10.67a3.55,3.55,0,0,0,.58,2.28,2,2,0,0,0,1.56.68c.29,0,.57,0,.85,0s.6-.07,1-.13l.27,1.35a4.7,4.7,0,0,1-1.1.3,8.15,8.15,0,0,1-1.3.11,3.42,3.42,0,0,1-2.69-1.09,5.16,5.16,0,0,1-1-3.46V235.5h-2.81V234h2.81v-4.19Z"/><path class="cls-47" d="M1021.69,242a8.82,8.82,0,0,1,2-5.94,7.14,7.14,0,0,1,10.52,0,8.78,8.78,0,0,1,2,5.94v.5a8.81,8.81,0,0,1-2,5.94,6.54,6.54,0,0,1-5.24,2.31,6.64,6.64,0,0,1-5.29-2.31,8.81,8.81,0,0,1-2-5.94Zm1.82.5a7.8,7.8,0,0,0,1.44,4.78,5.06,5.06,0,0,0,8,0,7.8,7.8,0,0,0,1.44-4.78V242a7.8,7.8,0,0,0-1.44-4.76,5,5,0,0,0-8,0,7.8,7.8,0,0,0-1.44,4.76Zm10.66-14.75a3.06,3.06,0,0,1-.84,2.21,2.71,2.71,0,0,1-2.07.88A4,4,0,0,1,1029,230a3.6,3.6,0,0,0-2-.83,1.58,1.58,0,0,0-1.2.52,2,2,0,0,0-.48,1.35l-1.2-.27a3.12,3.12,0,0,1,.81-2.19,2.68,2.68,0,0,1,2.07-.88,4.17,4.17,0,0,1,2.23.83,4,4,0,0,0,2,.83,1.56,1.56,0,0,0,1.19-.54,2,2,0,0,0,.5-1.38Z"/><path class="cls-47" d="M1046.35,250.72a6.59,6.59,0,0,1-5.12-2.27,8.31,8.31,0,0,1-2-5.76v-.83a8.55,8.55,0,0,1,2-5.83,6.24,6.24,0,0,1,4.88-2.31,6,6,0,0,1,4.73,1.9,7.27,7.27,0,0,1,1.73,5.09v1.54H1041v.44a7.27,7.27,0,0,0,1.47,4.63,4.72,4.72,0,0,0,3.87,1.87,8,8,0,0,0,2.88-.47,5.82,5.82,0,0,0,2-1.35l.77,1.24a6.45,6.45,0,0,1-2.33,1.54A9,9,0,0,1,1046.35,250.72Zm-.24-15.46a4.33,4.33,0,0,0-3.37,1.54,6.59,6.59,0,0,0-1.6,3.85l0,.08h9.6v-.46a5.23,5.23,0,0,0-1.26-3.57A4.27,4.27,0,0,0,1046.11,235.26Z"/><path class="cls-47" d="M1067.69,239.08h-1.48l-.21-2.32a4.82,4.82,0,0,0-1.72-1.11,6.77,6.77,0,0,0-2.39-.39,4.44,4.44,0,0,0-3,.86,2.56,2.56,0,0,0-1,2,2.38,2.38,0,0,0,.85,1.88,8.35,8.35,0,0,0,3.42,1.3,11.16,11.16,0,0,1,4.37,1.78,3.66,3.66,0,0,1,1.45,3.06,4,4,0,0,1-1.65,3.31,7.07,7.07,0,0,1-4.38,1.27,10.13,10.13,0,0,1-3.31-.51,7.86,7.86,0,0,1-2.58-1.43v-3.3h1.47l.25,2.33a4.34,4.34,0,0,0,1.84,1.05,8.15,8.15,0,0,0,2.33.33,5,5,0,0,0,3.1-.87,2.55,2.55,0,0,0,1.13-2.08,2.66,2.66,0,0,0-.94-2,7.82,7.82,0,0,0-3.42-1.41,11.46,11.46,0,0,1-4.33-1.68,3.47,3.47,0,0,1-1.42-2.95,3.94,3.94,0,0,1,1.59-3.17,6.45,6.45,0,0,1,4.19-1.29,9.44,9.44,0,0,1,3.3.55,6.67,6.67,0,0,1,2.43,1.49Z"/><path class="cls-47" d="M566.69,284.9a5.54,5.54,0,0,1-2.11,2.23,6.14,6.14,0,0,1-3.15.79,5,5,0,0,1-4-1.76c-1-1.17-1.46-3-1.46-5.45v-7.95l-2-.19v-1.35h3.83v9.52a7.06,7.06,0,0,0,1,4.3,3.47,3.47,0,0,0,2.9,1.3,5.36,5.36,0,0,0,3.28-.91,4.77,4.77,0,0,0,1.71-2.51V272.76l-2.33-.19v-1.35h4.15v14.85l2.2.2v1.33h-3.79Z"/><path class="cls-47" d="M585.19,276.28h-1.48L583.5,274a4.82,4.82,0,0,0-1.72-1.11,6.77,6.77,0,0,0-2.39-.39,4.44,4.44,0,0,0-3,.86,2.56,2.56,0,0,0-1,2,2.38,2.38,0,0,0,.85,1.88,8.35,8.35,0,0,0,3.42,1.3,11.16,11.16,0,0,1,4.37,1.78,3.66,3.66,0,0,1,1.45,3.06,4,4,0,0,1-1.65,3.31,7.07,7.07,0,0,1-4.38,1.27,10.13,10.13,0,0,1-3.31-.51A7.86,7.86,0,0,1,573.6,286v-3.3h1.47l.25,2.33a4.34,4.34,0,0,0,1.84,1.05,8.15,8.15,0,0,0,2.33.33,5,5,0,0,0,3.1-.87,2.55,2.55,0,0,0,1.13-2.08,2.66,2.66,0,0,0-.94-2,7.82,7.82,0,0,0-3.42-1.41,11.46,11.46,0,0,1-4.33-1.68,3.46,3.46,0,0,1-1.42-2.95,3.94,3.94,0,0,1,1.59-3.17,6.45,6.45,0,0,1,4.19-1.29,9.44,9.44,0,0,1,3.3.55,6.67,6.67,0,0,1,2.43,1.49Z"/><path class="cls-47" d="M600.13,287.6c-.12-.56-.21-1-.26-1.44a9.92,9.92,0,0,1-.07-1.23,7.3,7.3,0,0,1-2.42,2.14,6.93,6.93,0,0,1-3.41.85,5.21,5.21,0,0,1-3.72-1.25,4.37,4.37,0,0,1-1.32-3.36,4.15,4.15,0,0,1,2-3.6,9.26,9.26,0,0,1,5.3-1.33h3.62v-2.17a3.49,3.49,0,0,0-1.13-2.75,4.57,4.57,0,0,0-3.16-1,7.82,7.82,0,0,0-2.48.37,5.57,5.57,0,0,0-1.89,1L591,276h-1.5l0-3.15a9.64,9.64,0,0,1,2.71-1.42,10.39,10.39,0,0,1,3.37-.54,6.62,6.62,0,0,1,4.36,1.37,4.87,4.87,0,0,1,1.65,4v8.05c0,.33,0,.65,0,1a8.54,8.54,0,0,0,.1.9l1.64.11v1.33Zm-6-1.29a6.47,6.47,0,0,0,3.46-.91,5.36,5.36,0,0,0,2.17-2.34v-3.29h-3.65a6.81,6.81,0,0,0-3.94,1,3,3,0,0,0-1.48,2.59,2.71,2.71,0,0,0,.92,2.12A3.67,3.67,0,0,0,594.17,286.31Z"/><path class="cls-47" d="M605.6,286.27l2.46-.2V272.76l-2.46-.19v-1.35h4.07l.16,2.86a5.64,5.64,0,0,1,5.3-3.16,5.06,5.06,0,0,1,4.06,1.62q1.39,1.63,1.39,5.08v8.45l2.47.2v1.33H616.3v-1.33l2.47-.2v-8.43a5.91,5.91,0,0,0-1.06-4,3.8,3.8,0,0,0-3-1.17,4.71,4.71,0,0,0-3.11,1,5.58,5.58,0,0,0-1.73,2.67v9.9l2.47.2v1.33H605.6Z"/><path class="cls-47" d="M637.13,285.24a5.8,5.8,0,0,1-2.11,2,6.27,6.27,0,0,1-3,.7,5.46,5.46,0,0,1-4.6-2.2,9.52,9.52,0,0,1-1.66-5.86v-.32a10.73,10.73,0,0,1,1.66-6.27,5.35,5.35,0,0,1,4.63-2.35,5.63,5.63,0,0,1,5.05,2.77v-8.16l-2.47-.2V264h4.29v22.09l2.47.2v1.33h-4.09Zm-9.55-5.38a8.34,8.34,0,0,0,1.18,4.73,4,4,0,0,0,3.58,1.75,4.9,4.9,0,0,0,4.74-2.95v-7.75a5.58,5.58,0,0,0-1.75-2.27,4.69,4.69,0,0,0-3-.88,3.93,3.93,0,0,0-3.59,2,9.66,9.66,0,0,0-1.2,5.09Z"/><path class="cls-47" d="M644.15,279.17a8.82,8.82,0,0,1,2-5.94,7.14,7.14,0,0,1,10.52,0,8.83,8.83,0,0,1,2,5.94v.5a8.81,8.81,0,0,1-2,5.94,6.55,6.55,0,0,1-5.24,2.31,6.64,6.64,0,0,1-5.29-2.31,8.81,8.81,0,0,1-2-5.94Zm1.82.5a7.86,7.86,0,0,0,1.43,4.78,4.73,4.73,0,0,0,4,1.94,4.67,4.67,0,0,0,4-1.94,7.8,7.8,0,0,0,1.44-4.78v-.5a7.74,7.74,0,0,0-1.45-4.76,5,5,0,0,0-8,0,7.86,7.86,0,0,0-1.43,4.76Z"/><path class="cls-47" d="M669.13,279.17a8.82,8.82,0,0,1,2-5.94,7.14,7.14,0,0,1,10.52,0,8.82,8.82,0,0,1,2,5.94v.5a8.85,8.85,0,0,1-2,5.94,7.16,7.16,0,0,1-10.53,0,8.81,8.81,0,0,1-2-5.94Zm1.81.5a7.8,7.8,0,0,0,1.44,4.78,4.72,4.72,0,0,0,4,1.94,4.68,4.68,0,0,0,4-1.94,7.8,7.8,0,0,0,1.44-4.78v-.5a7.8,7.8,0,0,0-1.45-4.76,5,5,0,0,0-8,0,7.8,7.8,0,0,0-1.44,4.76Z"/><path class="cls-47" d="M698.45,276.28H697l-.21-2.32a4.74,4.74,0,0,0-1.72-1.11,6.71,6.71,0,0,0-2.38-.39,4.47,4.47,0,0,0-3,.86,2.56,2.56,0,0,0-1,2,2.39,2.39,0,0,0,.86,1.88,8.36,8.36,0,0,0,3.41,1.3,11.15,11.15,0,0,1,4.38,1.78,3.68,3.68,0,0,1,1.45,3.06,4,4,0,0,1-1.66,3.31,7,7,0,0,1-4.38,1.27,10.17,10.17,0,0,1-3.31-.51,8.07,8.07,0,0,1-2.58-1.43v-3.3h1.47l.26,2.33a4.22,4.22,0,0,0,1.84,1.05,8.08,8.08,0,0,0,2.32.33,5,5,0,0,0,3.1-.87,2.54,2.54,0,0,0,1.14-2.08,2.67,2.67,0,0,0-1-2,7.82,7.82,0,0,0-3.41-1.41,11.45,11.45,0,0,1-4.34-1.68,3.47,3.47,0,0,1-1.41-2.95,3.94,3.94,0,0,1,1.59-3.17,6.41,6.41,0,0,1,4.19-1.29,9.35,9.35,0,0,1,3.29.55,6.67,6.67,0,0,1,2.43,1.49Z"/><path class="cls-47" d="M709.13,272.57v-1.35h4l.23,2.54a5.79,5.79,0,0,1,2.13-2.1,5.92,5.92,0,0,1,3-.74,5.34,5.34,0,0,1,4.62,2.35,10.65,10.65,0,0,1,1.66,6.27v.32a9.47,9.47,0,0,1-1.66,5.87,5.45,5.45,0,0,1-4.59,2.19,6.56,6.56,0,0,1-3-.66,5.51,5.51,0,0,1-2.11-1.87v7l2.47.2v1.34h-6.74v-1.34l2.47-.2V272.76Zm13.84,7a9.46,9.46,0,0,0-1.24-5.08,4,4,0,0,0-3.64-2,4.76,4.76,0,0,0-3,.87,5.35,5.35,0,0,0-1.72,2.27v7.87a5,5,0,0,0,1.79,2.12,5.28,5.28,0,0,0,2.93.77,4.1,4.1,0,0,0,3.61-1.79,8.21,8.21,0,0,0,1.24-4.74Z"/><path class="cls-47" d="M727.61,286.27l2.47-.2V272.76l-2.47-.19v-1.35h4.27v14.85l2.47.2v1.33h-6.74Zm4.27-19.74h-1.8V264h1.8Z"/><path class="cls-47" d="M737,265.33V264h4.27v22.09l2.46.2v1.33H737v-1.33l2.47-.2V265.53Z"/><path class="cls-47" d="M757.93,287.6c-.12-.56-.21-1-.26-1.44a9.92,9.92,0,0,1-.07-1.23,7.3,7.3,0,0,1-2.42,2.14,6.93,6.93,0,0,1-3.41.85,5.21,5.21,0,0,1-3.72-1.25,4.37,4.37,0,0,1-1.32-3.36,4.15,4.15,0,0,1,1.95-3.6,9.26,9.26,0,0,1,5.3-1.33h3.62v-2.17a3.49,3.49,0,0,0-1.13-2.75,4.57,4.57,0,0,0-3.16-1,7.82,7.82,0,0,0-2.48.37,5.57,5.57,0,0,0-1.89,1l-.15,2.19h-1.5l0-3.15a9.64,9.64,0,0,1,2.71-1.42,10.39,10.39,0,0,1,3.37-.54,6.62,6.62,0,0,1,4.36,1.37,4.87,4.87,0,0,1,1.65,4v8.05c0,.33,0,.65,0,1a8.54,8.54,0,0,0,.1.9l1.64.11v1.33Zm-6-1.29a6.47,6.47,0,0,0,3.46-.91,5.36,5.36,0,0,0,2.17-2.34v-3.29H754a6.81,6.81,0,0,0-3.94,1,3,3,0,0,0-1.48,2.59,2.71,2.71,0,0,0,.92,2.12A3.67,3.67,0,0,0,752,286.31Z"/><path class="cls-47" d="M767.65,271.22l.23,2.72v.2a5.71,5.71,0,0,1,1.9-2.37,4.78,4.78,0,0,1,2.85-.85,3.64,3.64,0,0,1,.67.05c.22,0,.4.07.54.11l-.24,1.7-1.35-.09a4.11,4.11,0,0,0-2.81,1,5.28,5.28,0,0,0-1.56,2.64v9.78l2.46.2v1.33h-6.73v-1.33l2.47-.2V272.76l-2.47-.19v-1.35h4Z"/><path class="cls-47" d="M783.12,287.92a6.59,6.59,0,0,1-5.12-2.27,8.32,8.32,0,0,1-2-5.76v-.83a8.55,8.55,0,0,1,2-5.83,6.24,6.24,0,0,1,4.88-2.31,6.06,6.06,0,0,1,4.73,1.9,7.32,7.32,0,0,1,1.73,5.09v1.54H777.78v.44a7.27,7.27,0,0,0,1.47,4.63,4.72,4.72,0,0,0,3.87,1.87,8,8,0,0,0,2.88-.47,5.82,5.82,0,0,0,2-1.35l.77,1.24a6.45,6.45,0,0,1-2.33,1.54A9,9,0,0,1,783.12,287.92Zm-.24-15.46a4.33,4.33,0,0,0-3.37,1.54,6.59,6.59,0,0,0-1.6,3.85l0,.08h9.6v-.46a5.23,5.23,0,0,0-1.26-3.57A4.27,4.27,0,0,0,782.88,272.46Z"/><path class="cls-47" d="M804.46,276.28H803l-.21-2.32a4.82,4.82,0,0,0-1.72-1.11,6.75,6.75,0,0,0-2.38-.39,4.45,4.45,0,0,0-3,.86,2.56,2.56,0,0,0-1,2,2.38,2.38,0,0,0,.85,1.88,8.42,8.42,0,0,0,3.42,1.3,11.1,11.1,0,0,1,4.37,1.78,3.67,3.67,0,0,1,1.46,3.06,4,4,0,0,1-1.66,3.31,7.07,7.07,0,0,1-4.38,1.27,10.17,10.17,0,0,1-3.31-.51,8,8,0,0,1-2.58-1.43v-3.3h1.47l.25,2.33a4.34,4.34,0,0,0,1.84,1.05,8.15,8.15,0,0,0,2.33.33,5,5,0,0,0,3.1-.87,2.54,2.54,0,0,0,1.14-2.08,2.67,2.67,0,0,0-1-2,7.82,7.82,0,0,0-3.41-1.41,11.45,11.45,0,0,1-4.34-1.68,3.46,3.46,0,0,1-1.42-2.95,3.94,3.94,0,0,1,1.59-3.17,6.46,6.46,0,0,1,4.2-1.29,9.39,9.39,0,0,1,3.29.55,6.67,6.67,0,0,1,2.43,1.49Z"/><path class="cls-47" d="M827,285.24a5.8,5.8,0,0,1-2.11,2,6.31,6.31,0,0,1-3,.7,5.45,5.45,0,0,1-4.59-2.2,9.52,9.52,0,0,1-1.66-5.86v-.32a10.73,10.73,0,0,1,1.66-6.27,5.35,5.35,0,0,1,4.63-2.35,5.63,5.63,0,0,1,5.05,2.77v-8.16l-2.47-.2V264h4.29v22.09l2.46.2v1.33h-4.08Zm-9.56-5.38a8.34,8.34,0,0,0,1.19,4.73,4,4,0,0,0,3.58,1.75,4.9,4.9,0,0,0,4.74-2.95v-7.75a5.58,5.58,0,0,0-1.75-2.27,4.69,4.69,0,0,0-3-.88,3.93,3.93,0,0,0-3.59,2,9.66,9.66,0,0,0-1.21,5.09Z"/><path class="cls-47" d="M834,279.17a8.82,8.82,0,0,1,2-5.94,7.14,7.14,0,0,1,10.52,0,8.83,8.83,0,0,1,2,5.94v.5a8.81,8.81,0,0,1-2,5.94,6.55,6.55,0,0,1-5.24,2.31,6.63,6.63,0,0,1-5.29-2.31,8.81,8.81,0,0,1-2-5.94Zm1.82.5a7.86,7.86,0,0,0,1.43,4.78,4.73,4.73,0,0,0,4,1.94,4.67,4.67,0,0,0,4-1.94,7.8,7.8,0,0,0,1.44-4.78v-.5a7.74,7.74,0,0,0-1.45-4.76,5,5,0,0,0-8,0,7.86,7.86,0,0,0-1.43,4.76Z"/><path class="cls-47" d="M868.75,265.56a7.7,7.7,0,0,1,5.48,1.82,6.83,6.83,0,0,1,0,9.58,7.79,7.79,0,0,1-5.48,1.8h-4.68v6.51l2.47.42v1.91h-7.92v-1.91l2.47-.42V267.9l-2.47-.42v-1.92h10.13Zm-4.68,10.87h4.68a4,4,0,0,0,4.46-4.24,4.4,4.4,0,0,0-1.11-3.06,4.29,4.29,0,0,0-3.35-1.23h-4.68Z"/><path class="cls-47" d="M885.87,287.92a6.93,6.93,0,0,1-5.45-2.28,8.61,8.61,0,0,1-2-5.91v-.67a8.4,8.4,0,0,1,2.09-5.82,6.39,6.39,0,0,1,4.92-2.32,6.21,6.21,0,0,1,5,2,7.94,7.94,0,0,1,1.7,5.32v1.87H881.49l0,.07a6.51,6.51,0,0,0,1.19,3.88,3.8,3.8,0,0,0,3.23,1.52,7.4,7.4,0,0,0,2.65-.43,5.88,5.88,0,0,0,2-1.19l1.16,1.94a7.06,7.06,0,0,1-2.32,1.43A9.22,9.22,0,0,1,885.87,287.92Zm-.46-14.66a3.22,3.22,0,0,0-2.56,1.27,6,6,0,0,0-1.3,3.17l0,.07h7.56v-.39a4.62,4.62,0,0,0-.94-2.94A3.38,3.38,0,0,0,885.41,273.26Z"/><path class="cls-47" d="M894.62,285.69l2.46-.42v-11.7l-2.46-.43v-1.92h5.13l.21,2.44a5.91,5.91,0,0,1,2-2,5.47,5.47,0,0,1,2.81-.72,5.33,5.33,0,0,1,4.1,1.55,6.79,6.79,0,0,1,1.45,4.79v8l2.47.42v1.91h-7.92v-1.91l2.47-.42v-7.95a4.42,4.42,0,0,0-.85-3.07,3.42,3.42,0,0,0-2.62-.91,4.22,4.22,0,0,0-2.27.62,4.51,4.51,0,0,0-1.58,1.69v9.62l2.46.42v1.91h-7.91Z"/><path class="cls-47" d="M927.54,276.37H925.3l-.48-2a4.21,4.21,0,0,0-1.37-.83,5.51,5.51,0,0,0-1.87-.31,3.49,3.49,0,0,0-2.37.7,2.18,2.18,0,0,0-.77,1.68,1.89,1.89,0,0,0,.68,1.53,7.13,7.13,0,0,0,2.77,1,11.76,11.76,0,0,1,4.62,1.81A3.63,3.63,0,0,1,928,283a4.23,4.23,0,0,1-1.76,3.53,7.36,7.36,0,0,1-4.61,1.35,11.85,11.85,0,0,1-3.34-.44,8.74,8.74,0,0,1-2.65-1.24l0-3.74h2.24l.56,2.19a3.17,3.17,0,0,0,1.4.68,7.86,7.86,0,0,0,1.81.21,4.21,4.21,0,0,0,2.49-.64,2,2,0,0,0,.9-1.69,2,2,0,0,0-.75-1.62,7,7,0,0,0-2.84-1.1,12.17,12.17,0,0,1-4.49-1.77,3.58,3.58,0,0,1-1.51-3,4.27,4.27,0,0,1,1.7-3.41,6.75,6.75,0,0,1,4.43-1.4,10.82,10.82,0,0,1,3.34.48,6.89,6.89,0,0,1,2.47,1.35Z"/><path class="cls-47" d="M941.5,287.6c-.09-.45-.17-.85-.22-1.2s-.08-.7-.1-1.06a7.29,7.29,0,0,1-2.16,1.84,6.15,6.15,0,0,1-6.65-.51,4.6,4.6,0,0,1-1.33-3.52,4.07,4.07,0,0,1,1.88-3.6,9.22,9.22,0,0,1,5.17-1.26h3.07v-1.91a2.94,2.94,0,0,0-.91-2.28,3.55,3.55,0,0,0-2.52-.84,6.26,6.26,0,0,0-2,.29,3.55,3.55,0,0,0-1.38.79l-.32,1.72h-2.3v-3.18a8.92,8.92,0,0,1,2.71-1.43,10.94,10.94,0,0,1,3.45-.53,6.86,6.86,0,0,1,4.51,1.42,5,5,0,0,1,1.72,4.07v7.89c0,.21,0,.42,0,.62s0,.4,0,.6l1.21.17v1.91Zm-4.8-2.18a5.35,5.35,0,0,0,2.71-.71,4.5,4.5,0,0,0,1.75-1.71v-2.7H938a4.48,4.48,0,0,0-2.89.85,2.52,2.52,0,0,0-1.07,2.06,2.05,2.05,0,0,0,.66,1.64A3.06,3.06,0,0,0,936.7,285.42Z"/><path class="cls-47" d="M947.29,285.69l2.47-.42v-11.7l-2.47-.43v-1.92h5.15l.2,2.13a5.42,5.42,0,0,1,2-1.8,6.22,6.22,0,0,1,2.87-.63,5.1,5.1,0,0,1,2.81.75,4.63,4.63,0,0,1,1.76,2.27,6.23,6.23,0,0,1,2-2.21,5.36,5.36,0,0,1,3-.81,4.93,4.93,0,0,1,4,1.71,7.85,7.85,0,0,1,1.45,5.17v7.47l2.47.42v1.91h-7.93v-1.91l2.46-.42v-7.5a5.39,5.39,0,0,0-.83-3.42,3,3,0,0,0-2.47-1,3.15,3.15,0,0,0-2.5,1.1,4.76,4.76,0,0,0-1.1,2.76v8.07l2.47.42v1.91h-7.92v-1.91l2.47-.42v-7.5a5.35,5.35,0,0,0-.86-3.36,3,3,0,0,0-2.47-1.07,4.11,4.11,0,0,0-2.24.56,3.58,3.58,0,0,0-1.35,1.57v9.8l2.47.42v1.91h-7.92Z"/><path class="cls-47" d="M984.5,287.92a6.91,6.91,0,0,1-5.44-2.28,8.56,8.56,0,0,1-2-5.91v-.67a8.39,8.39,0,0,1,2.08-5.82,6.41,6.41,0,0,1,4.93-2.32,6.18,6.18,0,0,1,5,2,7.94,7.94,0,0,1,1.7,5.32v1.87H980.13l0,.07a6.45,6.45,0,0,0,1.2,3.88,3.78,3.78,0,0,0,3.22,1.52,7.5,7.5,0,0,0,2.66-.43,5.84,5.84,0,0,0,2-1.19l1.17,1.94a7.11,7.11,0,0,1-2.33,1.43A9.22,9.22,0,0,1,984.5,287.92Zm-.45-14.66a3.21,3.21,0,0,0-2.56,1.27,5.94,5.94,0,0,0-1.3,3.17l0,.07h7.55v-.39a4.56,4.56,0,0,0-.94-2.94A3.35,3.35,0,0,0,984.05,273.26Z"/><path class="cls-47" d="M993.25,285.69l2.47-.42v-11.7l-2.47-.43v-1.92h5.13l.21,2.44a6,6,0,0,1,2-2,5.49,5.49,0,0,1,2.81-.72,5.3,5.3,0,0,1,4.1,1.55,6.8,6.8,0,0,1,1.46,4.79v8l2.46.42v1.91h-7.91v-1.91l2.46-.42v-7.95a4.42,4.42,0,0,0-.85-3.07,3.41,3.41,0,0,0-2.61-.91,4.23,4.23,0,0,0-2.28.62,4.51,4.51,0,0,0-1.58,1.69v9.62l2.47.42v1.91h-7.92Z"/><path class="cls-47" d="M1018.84,267.27v4H1022v2.21h-3.11v9.95a2.2,2.2,0,0,0,.48,1.61,1.71,1.71,0,0,0,1.27.47,7.36,7.36,0,0,0,.88-.06l.83-.15.4,2a3.44,3.44,0,0,1-1.24.45,7.54,7.54,0,0,1-1.63.18,3.86,3.86,0,0,1-2.89-1.1,4.75,4.75,0,0,1-1.08-3.44v-9.95h-2.59v-2.21h2.59v-4Z"/><path class="cls-47" d="M1024.7,279.26a9,9,0,0,1,2-6,6.58,6.58,0,0,1,5.34-2.35,6.67,6.67,0,0,1,5.37,2.34,9,9,0,0,1,2,6v.33a9,9,0,0,1-2,6,7.31,7.31,0,0,1-10.72,0,9,9,0,0,1-2-6Zm3,.33a7.78,7.78,0,0,0,1.1,4.3,4,4,0,0,0,6.49,0,7.78,7.78,0,0,0,1.1-4.3v-.33a7.81,7.81,0,0,0-1.1-4.29,3.94,3.94,0,0,0-6.5,0,7.89,7.89,0,0,0-1.09,4.29Z"/><path class="cls-47" d="M571.36,309.52h-2.11l-.56-3.11a5.62,5.62,0,0,0-1.78-1.17,6.46,6.46,0,0,0-2.53-.45,6.18,6.18,0,0,0-5.28,2.49,10.26,10.26,0,0,0-1.85,6.32v.34a10.52,10.52,0,0,0,1.81,6.34,5.84,5.84,0,0,0,5,2.5,7.61,7.61,0,0,0,2.72-.46,5.31,5.31,0,0,0,1.89-1.15l.56-3.12h2.11V322a8.38,8.38,0,0,1-2.86,2.18,9.62,9.62,0,0,1-4.42,1,8.92,8.92,0,0,1-7.06-3.18,11.82,11.82,0,0,1-2.75-8v-.31a11.91,11.91,0,0,1,2.71-8,8.89,8.89,0,0,1,7.1-3.17,9.62,9.62,0,0,1,4.42,1,8.63,8.63,0,0,1,2.86,2.18Z"/><path class="cls-47" d="M574.55,316.46a9,9,0,0,1,2-6,6.58,6.58,0,0,1,5.34-2.35,6.67,6.67,0,0,1,5.37,2.34,9,9,0,0,1,2,6v.33a9,9,0,0,1-2,6,7.31,7.31,0,0,1-10.72,0,9,9,0,0,1-2-6Zm3,.33a7.78,7.78,0,0,0,1.1,4.3,4,4,0,0,0,6.49,0,7.78,7.78,0,0,0,1.1-4.3v-.33a7.81,7.81,0,0,0-1.1-4.29,3.94,3.94,0,0,0-6.5,0,7.89,7.89,0,0,0-1.09,4.29Z"/><path class="cls-47" d="M591.34,322.89l2.47-.42v-11.7l-2.47-.43v-1.92h5.14l.2,2.13a5.5,5.5,0,0,1,2-1.8,6.3,6.3,0,0,1,2.88-.63,5.09,5.09,0,0,1,2.8.75,4.7,4.7,0,0,1,1.77,2.27,6.11,6.11,0,0,1,2-2.21,5.42,5.42,0,0,1,3-.81,4.93,4.93,0,0,1,4,1.71,7.85,7.85,0,0,1,1.46,5.17v7.47l2.46.42v1.91h-7.93v-1.91l2.47-.42V315a5.46,5.46,0,0,0-.83-3.42,3,3,0,0,0-2.47-1,3.16,3.16,0,0,0-2.51,1.1,4.75,4.75,0,0,0-1.09,2.76v8.07l2.46.42v1.91h-7.91v-1.91l2.46-.42V315a5.35,5.35,0,0,0-.85-3.36,3,3,0,0,0-2.48-1.07,4.16,4.16,0,0,0-2.24.56,3.62,3.62,0,0,0-1.34,1.57v9.8l2.46.42v1.91h-7.91Z"/><path class="cls-47" d="M620.85,329.17l2.47-.42v-18l-2.47-.43v-1.92h5l.27,2a5.5,5.5,0,0,1,2-1.71,5.89,5.89,0,0,1,2.72-.59,5.44,5.44,0,0,1,4.73,2.41,11,11,0,0,1,1.69,6.38v.32a9,9,0,0,1-1.7,5.71,5.6,5.6,0,0,1-4.67,2.18,6.47,6.47,0,0,1-2.66-.51,5.2,5.2,0,0,1-2-1.51v5.65l2.47.42v1.92h-7.92Zm13.43-12.26a8.63,8.63,0,0,0-1.09-4.58,3.55,3.55,0,0,0-3.24-1.79,4,4,0,0,0-2.18.57,4.48,4.48,0,0,0-1.47,1.58v8a4.23,4.23,0,0,0,1.46,1.56,4.15,4.15,0,0,0,2.22.55,3.68,3.68,0,0,0,3.21-1.54,6.79,6.79,0,0,0,1.09-4Z"/><path class="cls-47" d="M651.7,322.38a5.51,5.51,0,0,1-2,2,5.42,5.42,0,0,1-2.81.72,5.25,5.25,0,0,1-4.16-1.71c-1-1.15-1.5-2.92-1.5-5.33v-7.31l-1.87-.43v-1.92h4.86v9.69a6.07,6.07,0,0,0,.77,3.6,2.84,2.84,0,0,0,2.4,1,4.9,4.9,0,0,0,2.63-.64,4.11,4.11,0,0,0,1.57-1.82v-9.46l-2.2-.43v-1.92h5.18v14.05l1.88.42v1.91H651.9Z"/><path class="cls-47" d="M664,304.47v3.95h3.11v2.21H664v9.95a2.2,2.2,0,0,0,.48,1.61,1.7,1.7,0,0,0,1.26.47,7.38,7.38,0,0,0,.89-.06l.83-.15.4,2.05a3.66,3.66,0,0,1-1.24.44,7.54,7.54,0,0,1-1.63.18,3.86,3.86,0,0,1-2.89-1.1,4.75,4.75,0,0,1-1.08-3.44v-9.95h-2.59v-2.21H661v-3.95Z"/><path class="cls-47" d="M680.86,324.8c-.09-.45-.17-.84-.22-1.2s-.08-.7-.1-1.06a7.29,7.29,0,0,1-2.16,1.84,6.15,6.15,0,0,1-6.65-.51,4.6,4.6,0,0,1-1.33-3.52,4.07,4.07,0,0,1,1.88-3.6,9.22,9.22,0,0,1,5.17-1.26h3.07v-1.91a3,3,0,0,0-.9-2.28,3.59,3.59,0,0,0-2.53-.84,6.26,6.26,0,0,0-2,.29,3.68,3.68,0,0,0-1.38.79l-.32,1.72h-2.3v-3.18a8.92,8.92,0,0,1,2.71-1.43,10.94,10.94,0,0,1,3.45-.53,6.84,6.84,0,0,1,4.51,1.42,5,5,0,0,1,1.72,4.07v7.89c0,.21,0,.42,0,.62s0,.4,0,.6l1.21.17v1.91Zm-4.8-2.18a5.35,5.35,0,0,0,2.71-.71,4.5,4.5,0,0,0,1.75-1.71v-2.7h-3.18a4.48,4.48,0,0,0-2.89.85,2.53,2.53,0,0,0-1.07,2.06,2,2,0,0,0,.67,1.64A3,3,0,0,0,676.06,322.62Z"/><path class="cls-47" d="M694.6,322.78a4,4,0,0,0,2.61-.91,2.8,2.8,0,0,0,1.13-2.25H701l0,.09a4.57,4.57,0,0,1-1.89,3.76,6.84,6.84,0,0,1-4.56,1.65,6.61,6.61,0,0,1-5.46-2.34,9,9,0,0,1-1.88-5.85v-.64a9,9,0,0,1,1.89-5.83,6.6,6.6,0,0,1,5.45-2.34,9,9,0,0,1,3.53.65,7.16,7.16,0,0,1,2.6,1.78l.14,3.64h-2.38l-.65-2.58a4,4,0,0,0-1.36-.83,5.29,5.29,0,0,0-1.88-.32,3.6,3.6,0,0,0-3.35,1.69,8,8,0,0,0-1,4.14v.64a8,8,0,0,0,1,4.18A3.6,3.6,0,0,0,694.6,322.78Z"/><path class="cls-47" d="M704,322.89l2.46-.42v-11.7l-2.46-.43v-1.92h5.44v14.05l2.47.42v1.91H704Zm5.44-18.66h-3v-3.05h3Z"/><path class="cls-47" d="M714.16,316.46a9,9,0,0,1,2-6,7.29,7.29,0,0,1,10.71,0,9,9,0,0,1,2,6v.33a9,9,0,0,1-2,6,6.61,6.61,0,0,1-5.34,2.34,6.67,6.67,0,0,1-5.38-2.34,9,9,0,0,1-2-6Zm3,.33a7.69,7.69,0,0,0,1.1,4.3,4,4,0,0,0,6.48,0,7.69,7.69,0,0,0,1.11-4.3v-.33a7.73,7.73,0,0,0-1.11-4.29,3.62,3.62,0,0,0-3.25-1.71,3.58,3.58,0,0,0-3.24,1.71,7.81,7.81,0,0,0-1.09,4.29Z"/><path class="cls-47" d="M731.09,322.89l2.47-.42v-11.7l-2.47-.43v-1.92h5.14l.21,2.44a5.91,5.91,0,0,1,2-2,5.47,5.47,0,0,1,2.81-.72,5.33,5.33,0,0,1,4.1,1.55,6.79,6.79,0,0,1,1.45,4.79v8l2.47.42v1.91H741.4v-1.91l2.47-.42v-8a4.37,4.37,0,0,0-.86-3.07,3.41,3.41,0,0,0-2.61-.91,4.22,4.22,0,0,0-2.27.62,4.54,4.54,0,0,0-1.59,1.69v9.62l2.47.42v1.91h-7.92Z"/><path class="cls-47" d="M762.17,324.8c-.09-.45-.16-.84-.21-1.2s-.09-.7-.11-1.06a7.12,7.12,0,0,1-2.15,1.84,6.17,6.17,0,0,1-6.66-.51,4.64,4.64,0,0,1-1.33-3.52,4.08,4.08,0,0,1,1.89-3.6,9.18,9.18,0,0,1,5.16-1.26h3.08v-1.91a2.94,2.94,0,0,0-.91-2.28,3.59,3.59,0,0,0-2.53-.84,6.19,6.19,0,0,0-2,.29,3.73,3.73,0,0,0-1.39.79l-.32,1.72h-2.3v-3.18a9,9,0,0,1,2.71-1.43,10.94,10.94,0,0,1,3.45-.53,6.84,6.84,0,0,1,4.51,1.42,5,5,0,0,1,1.73,4.07v7.89c0,.21,0,.42,0,.62a4,4,0,0,0,0,.6l1.21.17v1.91Zm-4.8-2.18a5.35,5.35,0,0,0,2.71-.71,4.53,4.53,0,0,0,1.76-1.71v-2.7h-3.18a4.51,4.51,0,0,0-2.9.85,2.56,2.56,0,0,0-1.07,2.06,2,2,0,0,0,.67,1.64A3,3,0,0,0,757.37,322.62Z"/><path class="cls-47" d="M768.15,303.11v-1.93h5.45v21.29l2.47.42v1.91h-7.92v-1.91l2.47-.42V303.53Z"/><path class="cls-47" d="M781.29,324.8h-2.15v-2.53h2.15Zm-.18-7.24H779.3v-14.8h1.81Z"/></g></svg>