<svg xmlns="http://www.w3.org/2000/svg" xmlns:xlink="http://www.w3.org/1999/xlink" viewBox="0 0 1124.64 651.26"><defs><style>.cls-1{fill:#e6f4ff;}.cls-2{fill:none;}.cls-3{fill:#8bb5d8;}.cls-4{fill:#329e89;}.cls-5{clip-path:url(#clip-path);}.cls-6{fill:#c5e2ff;}.cls-7{clip-path:url(#clip-path-2);}.cls-8{fill:#ef9777;}.cls-9{fill:#fff;}.cls-10{fill:#3a1e1c;}.cls-11{clip-path:url(#clip-path-3);}.cls-12{fill:#d88268;}.cls-13{fill:#d98369;}.cls-14{fill:#da8469;}.cls-15{fill:#db856a;}.cls-16{fill:#dc866b;}.cls-17{fill:#dd876b;}.cls-18{fill:#de886c;}.cls-19{fill:#df896d;}.cls-20{fill:#e08a6d;}.cls-21{fill:#e18b6e;}.cls-22{fill:#e28c6f;}.cls-23{fill:#e48d70;}.cls-24{fill:#e58d70;}.cls-25{fill:#e68e71;}.cls-26{fill:#e78f72;}.cls-27{fill:#e89072;}.cls-28{fill:#e99173;}.cls-29{fill:#ea9274;}.cls-30{fill:#eb9374;}.cls-31{fill:#ec9475;}.cls-32{fill:#ed9576;}.cls-33{fill:#ee9676;}.cls-34{fill:#3d201f;}.cls-35{fill:#b5574d;}.cls-36{fill:#b3514e;}.cls-37{fill:#312235;}.cls-38{fill:#fc999c;}.cls-39{fill:#f9aaaa;}.cls-40{fill:#196b5d;}.cls-41{fill:#208975;}.cls-42{fill:#8acec3;}.cls-43{fill:#5b1f3c;}.cls-44{fill:#fffdfd;}.cls-45{clip-path:url(#clip-path-4);}.cls-46{fill:#ce7061;}.cls-47{fill:#175b4e;}</style><clipPath id="clip-path"><path class="cls-1" d="M428.87,402.79a192.51,192.51,0,0,0-5.05-43.86c-32.69-73-109.23-124.15-198.45-124.15C106.43,234.78,10,325.78,10,438a193.16,193.16,0,0,0,5,43.87C47.74,554.84,124.28,606,213.5,606,332.44,606,428.87,515,428.87,402.79Z"/></clipPath><clipPath id="clip-path-2"><path class="cls-2" d="M541,351.81c-10.3-18-97.34-31.5-97.34-31.5S301.34,131.55,232.33,138s-80.25,56.59-80.25,56.59l-32.63,66.55C54.18,296,10.14,362.17,10.14,438c0,112.25,96.42,203.24,215.37,203.24,117.57,0,213.12-88.9,215.32-199.34C473.18,419.61,549,365.68,541,351.81Z"/></clipPath><clipPath id="clip-path-3"><path class="cls-2" d="M227.82,319.63l-2.36,9.78s-19.92,12.9-37.91,11.87c-5.35-.3,67.76,42.8,71.74,43s34.38-50.16,34.38-50.16-20.41-3.73-27.17-4S252,311.8,252,311.8Z"/></clipPath><clipPath id="clip-path-4"><path class="cls-2" d="M541.11-404.43c-10.3-18-97.34-31.5-97.34-31.5S301.45-624.7,232.44-618.27s-80.25,56.59-80.25,56.59l-32.63,66.55C54.29-460.21,10.25-394.07,10.25-318.22,10.25-206,106.68-115,225.62-115c117.57,0,213.12-88.9,215.32-199.35C473.29-336.63,549.06-390.56,541.11-404.43Z"/></clipPath></defs><title>4-fala2</title><g id="Camada_5" data-name="Camada 5"><ellipse class="cls-3" cx="225.37" cy="438.02" rx="215.37" ry="203.24"/><path class="cls-4" d="M225.37,234.78c119,0,215.37,91,215.37,203.24S344.32,641.26,225.37,641.26,10,550.27,10,438s96.42-203.24,215.37-203.24m0-10a235.1,235.1,0,0,0-87.54,16.69A225.72,225.72,0,0,0,66.22,287,212.37,212.37,0,0,0,17.8,354.82a203.34,203.34,0,0,0,0,166.4A212.3,212.3,0,0,0,66.22,589a225.89,225.89,0,0,0,71.61,45.57,238.05,238.05,0,0,0,175.08,0A225.94,225.94,0,0,0,384.53,589a212.12,212.12,0,0,0,48.41-67.79,203.34,203.34,0,0,0,0-166.4A212.19,212.19,0,0,0,384.53,287a225.76,225.76,0,0,0-71.62-45.57,235.1,235.1,0,0,0-87.54-16.69Z"/><path class="cls-1" d="M428.87,402.79a192.51,192.51,0,0,0-5.05-43.86c-32.69-73-109.23-124.15-198.45-124.15C106.43,234.78,10,325.78,10,438a193.16,193.16,0,0,0,5,43.87C47.74,554.84,124.28,606,213.5,606,332.44,606,428.87,515,428.87,402.79Z"/><g class="cls-5"><circle class="cls-1" cx="306.79" cy="408.71" r="104.58"/><circle class="cls-1" cx="306.79" cy="408.71" r="100.64"/><circle class="cls-1" cx="306.79" cy="408.71" r="98.66"/><circle class="cls-1" cx="306.79" cy="408.71" r="96.69"/><circle class="cls-1" cx="306.79" cy="408.71" r="94.72"/><circle class="cls-1" cx="306.79" cy="408.71" r="92.74"/><circle class="cls-1" cx="306.79" cy="408.71" r="90.77"/><circle class="cls-1" cx="306.79" cy="408.71" r="88.8"/><circle class="cls-1" cx="306.79" cy="408.71" r="86.82"/><circle class="cls-1" cx="306.79" cy="408.71" r="84.85"/><circle class="cls-1" cx="306.79" cy="408.71" r="82.88"/><circle class="cls-1" cx="306.79" cy="408.71" r="80.9"/><circle class="cls-1" cx="306.79" cy="408.71" r="78.93"/><circle class="cls-1" cx="306.79" cy="408.71" r="76.96"/><circle class="cls-1" cx="306.79" cy="408.71" r="74.98"/><circle class="cls-1" cx="306.79" cy="408.71" r="73.01"/><circle class="cls-1" cx="306.79" cy="408.71" r="71.04"/><circle class="cls-1" cx="306.79" cy="408.71" r="69.06"/><circle class="cls-1" cx="306.79" cy="408.71" r="67.09"/><circle class="cls-1" cx="306.79" cy="408.71" r="65.12"/><circle class="cls-1" cx="306.79" cy="408.71" r="63.15"/><circle class="cls-1" cx="306.79" cy="408.71" r="61.17"/><circle class="cls-1" cx="306.79" cy="408.71" r="59.2"/><circle class="cls-1" cx="306.79" cy="408.71" r="57.23"/><circle class="cls-1" cx="306.79" cy="408.71" r="55.25"/><circle class="cls-1" cx="306.79" cy="408.71" r="53.28"/><circle class="cls-1" cx="306.79" cy="408.71" r="51.31"/><circle class="cls-1" cx="306.79" cy="408.71" r="49.33"/><circle class="cls-1" cx="306.79" cy="408.71" r="47.36"/><circle class="cls-1" cx="306.79" cy="408.71" r="45.39"/><circle class="cls-1" cx="306.79" cy="408.71" r="43.41"/><circle class="cls-1" cx="306.79" cy="408.71" r="41.44"/><circle class="cls-1" cx="306.79" cy="408.71" r="39.47"/><circle class="cls-1" cx="306.79" cy="408.71" r="37.49"/><circle class="cls-1" cx="306.79" cy="408.71" r="35.52"/><circle class="cls-1" cx="306.79" cy="408.71" r="33.55"/><circle class="cls-1" cx="306.79" cy="408.71" r="31.57"/><circle class="cls-1" cx="306.79" cy="408.71" r="29.6"/><circle class="cls-1" cx="306.79" cy="408.71" r="27.63"/><circle class="cls-1" cx="306.79" cy="408.71" r="25.65"/><circle class="cls-1" cx="306.79" cy="408.71" r="23.68"/><circle class="cls-1" cx="306.79" cy="408.71" r="21.71"/><circle class="cls-1" cx="306.79" cy="408.71" r="19.73"/><circle class="cls-1" cx="306.79" cy="408.71" r="17.76"/><circle class="cls-1" cx="306.79" cy="408.71" r="15.79"/><circle class="cls-1" cx="306.79" cy="408.71" r="13.81"/><circle class="cls-1" cx="306.79" cy="408.71" r="11.84"/><circle class="cls-1" cx="306.79" cy="408.71" r="9.87"/><circle class="cls-1" cx="306.79" cy="408.71" r="7.89"/><circle class="cls-1" cx="306.79" cy="408.71" r="5.92"/><circle class="cls-1" cx="306.79" cy="408.71" r="3.95"/><circle class="cls-1" cx="306.79" cy="408.71" r="1.97"/></g><path class="cls-3" d="M787.8,44.22c-174.89,0-318.64,118.13-335.23,269.27L353,353.14s-6.51,2.41-5.85,11.74a12.7,12.7,0,0,0,7.43,10.89L458.82,407C492,541,626.68,641.26,787.8,641.26c186,0,336.84-133.65,336.84-298.52S973.83,44.22,787.8,44.22Z"/><path class="cls-6" d="M787.75,0C612.85,0,469.11,118.13,452.52,269.27L353,308.92s-6.51,2.41-5.86,11.74a12.7,12.7,0,0,0,7.44,10.88l104.21,31.28C492,496.78,626.63,597,787.75,597c186,0,336.84-133.65,336.84-298.52S973.78,0,787.75,0Z"/><g class="cls-7"><path class="cls-8" d="M534.35,352.94a18,18,0,0,0-2.21-1.87,19.39,19.39,0,0,0-1.77-1.13,22.73,22.73,0,0,0-4.25-1.84,17.85,17.85,0,0,0-2.86-.67s-45.4,6.11-38.5,3-1.63-3.79-1.63-3.79-21.75,4.67-30,9.17c-5.48,3-12.26,25.5-12.26,25.5l12.28,14.26s13.81-9.68,18.89-14.76c3.66-3.66,20.55-3.28,33.25-5.34,4.95-.8,12.12-3.69,14.92-4.36,3.25-.78,3.54-3.18,6.58-5.16a31.06,31.06,0,0,0,4.82-3.82c1.7-1.67,1.32-1.57,1.86-3.17.28-.79,1.74-2.75,1.71-3.67A3.43,3.43,0,0,0,534.35,352.94Zm-19.63,13.12s-16.06,2.81-17-.63c-2.53,1,21.79-1.33,28.2-3.88Z"/><path class="cls-9" d="M153.42,564.7s24.48-21.86,24.48-27-14.35-8.35-14.35-8.35l-20.41,29.5,9.58,7.33Z"/><path class="cls-10" d="M176.08,358.82s-46.9-131.84,7.44-198.9c0,0,58.11-39.81,101.53,7s13,178.54,13,178.54Z"/><g class="cls-11"><polygon class="cls-12" points="293.6 311.8 293.63 312.12 182.21 322.49 182.21 311.8 293.6 311.8"/><polygon class="cls-12" points="293.63 312.12 293.67 312.49 293.67 312.93 182.21 323.3 182.21 322.49 293.63 312.12"/><polygon class="cls-13" points="293.67 313.74 182.21 324.11 182.21 323.3 293.67 312.93 293.67 313.74"/><polygon class="cls-14" points="293.67 314.55 182.21 324.93 182.21 324.11 293.67 313.74 293.67 314.55"/><polygon class="cls-15" points="293.67 315.37 182.21 325.74 182.21 324.93 293.67 314.55 293.67 315.37"/><polygon class="cls-16" points="293.67 316.18 182.21 326.55 182.21 325.74 293.67 315.37 293.67 316.18"/><polygon class="cls-17" points="293.67 316.99 182.21 327.37 182.21 326.55 293.67 316.18 293.67 316.99"/><polygon class="cls-18" points="293.67 317.81 182.21 328.18 182.21 327.37 293.67 316.99 293.67 317.81"/><polygon class="cls-19" points="293.67 318.62 182.21 328.99 182.21 328.18 293.67 317.81 293.67 318.62"/><polygon class="cls-20" points="293.67 319.43 182.21 329.81 182.21 328.99 293.67 318.62 293.67 319.43"/><polygon class="cls-21" points="293.67 320.24 182.21 330.62 182.21 329.81 293.67 319.43 293.67 320.24"/><polygon class="cls-22" points="293.67 321.06 182.21 331.43 182.21 330.62 293.67 320.24 293.67 321.06"/><polygon class="cls-23" points="293.67 321.87 182.21 332.24 182.21 331.43 293.67 321.06 293.67 321.87"/><polygon class="cls-24" points="293.67 322.68 182.21 333.06 182.21 332.24 293.67 321.87 293.67 322.68"/><polygon class="cls-25" points="293.67 323.5 182.21 333.87 182.21 333.06 293.67 322.68 293.67 323.5"/><polygon class="cls-26" points="293.67 324.31 182.21 334.68 182.21 333.87 293.67 323.5 293.67 324.31"/><polygon class="cls-27" points="293.67 325.12 182.21 335.5 182.21 334.68 293.67 324.31 293.67 325.12"/><polygon class="cls-28" points="293.67 325.94 182.21 336.31 182.21 335.5 293.67 325.12 293.67 325.94"/><polygon class="cls-29" points="293.67 326.75 182.21 337.12 182.21 336.31 293.67 325.94 293.67 326.75"/><polygon class="cls-30" points="293.67 327.56 182.21 337.94 182.21 337.12 293.67 326.75 293.67 327.56"/><polygon class="cls-31" points="293.67 328.38 182.21 338.75 182.21 337.94 293.67 327.56 293.67 328.38"/><polygon class="cls-32" points="293.67 329.19 182.21 339.56 182.21 338.75 293.67 328.38 293.67 329.19"/><polygon class="cls-33" points="293.67 330 182.21 340.38 182.21 339.56 293.67 329.19 293.67 330"/><polygon class="cls-8" points="293.67 330.82 182.21 341.19 182.21 340.38 293.67 330 293.67 330.82"/><polygon class="cls-8" points="184.24 384.38 182.21 362.56 182.21 341.19 293.67 330.82 293.67 384.38 184.24 384.38"/></g><path class="cls-8" d="M182.49,220.71s-.89,110.78,64.76,101.68c35.49-4.92,47.51-40.41,40.88-70.92a191.55,191.55,0,0,1-3.79-46.76s-4.08-29.37-38.7-20.31S196,190.12,196,190.12,180.43,193.3,182.49,220.71Z"/><path class="cls-10" d="M177,226.89s25.09-2.78,36.43-7.67l.58-15.39s2.55,9.93,4.85,12.4,22.88-.73,32-3.58,4.8-14.7,4.8-14.7L260,209.8s28.58,3.45,28.74-.93-3.86-24.71-12.21-28.74-73.88-4.44-83.08,4.1S177.42,214.69,177,226.89Z"/><ellipse class="cls-34" cx="265.84" cy="242.56" rx="3.92" ry="3.17" transform="translate(-22.23 26.87) rotate(-5.56)"/><ellipse class="cls-34" cx="226.77" cy="246.26" rx="3.92" ry="3.17" transform="matrix(1, -0.1, 0.1, 1, -22.77, 23.11)"/><path class="cls-35" d="M250.44,277a15.34,15.34,0,0,1-5.17-.8l.35-.94c5.16,1.91,13.88,0,15.56-3.34,1.13-2.27-1.44-4.53-3.78-6-6.89-4.38-5.32-8.94-5.25-9.13l.94.34c-.05.16-1.33,4,4.84,7.94,4.88,3.11,4.95,5.69,4.14,7.32C260.61,275.31,255.26,277,250.44,277Z"/><path class="cls-36" d="M264.84,287.05c-18.37,4.76-37.46.2-36.73,1.53,0,0,1.76,14.25,18,14.15C262.86,302.62,264.84,287.05,264.84,287.05Z"/><path class="cls-9" d="M219.27,331.75s22.52,13.66,36.94,11.81c6.84-.88,19-14,19-14l13,129.73-49.8,2.24Z"/><path class="cls-37" d="M172.55,555.72s-17.61,72.57-15.63,92.45,4.68,52.17,34,145.94c0,0,78.25,32.39,150.2-.8,0,0,6.29-1.86,10.91-43.82S364.46,606.9,343.32,562,172.55,555.72,172.55,555.72Z"/><path class="cls-10" d="M274.7,219.71s-4.74-6.2-9.75-3.1a.89.89,0,0,0-.58,1.12c.25.83,1.91-1.64,9.83,2.73C274.2,220.46,274.7,220.75,274.7,219.71Z"/><path class="cls-10" d="M214.82,224.15s4.75-6.21,9.75-3.11a.89.89,0,0,1,.58,1.12c-.25.84-1.91-1.63-9.83,2.73C215.32,224.89,214.82,225.18,214.82,224.15Z"/><path class="cls-9" d="M262.51,287.6s-.65,3.21-2,4.13-15.62,2-24.11.95c-5.38-.66-6.4-3.32-6.26-4.3C230.16,288.38,249,290.65,262.51,287.6Z"/><path class="cls-38" d="M249.27,302.5s-1.22-9.7-18.49-7.16C230.78,295.34,234.91,304.19,249.27,302.5Z"/><ellipse class="cls-39" cx="280.9" cy="252.77" rx="3.62" ry="6.23" transform="translate(5.69 511.72) rotate(-85.24)"/><ellipse class="cls-39" cx="214.68" cy="262.02" rx="6.23" ry="3.62" transform="translate(-52.56 53.87) rotate(-12.76)"/><path class="cls-40" d="M333.45,438.84l41.91,37.38s10.59,6.85,14.41,7.27c4,.44,11.28-4.8,11.28-4.8l67.67-73.64s-37.64-24.88-38-28.5-33.25,46.55-33.25,46.55-2.17-2.74-7.67-1.67c-3,.59-1.59,5.6-7.66-.14-3.74-3.54-9.95-8.73-15.17-16.11-29.22-41.33-56.53-70.83-58.39-72.35s-11-6.17-14.23-4.65-19.19,1.41-19.19,1.41L277.8,445,219.27,331.75s-12.56,4.33-26.08,2.61S157,338,157,338s-10.24,27.71-17.55,29.81-11,20.25-11,20.25c-2.17,2.65-10.18,14.08-19.61,27.72h0s-37.48,45.93-43,49.91-2.65,13.44-2.65,13.44L142,562.9l27.83-35.51c-7.13-.5-43.13-49.77-43.13-49.77,2.53-4.53,2.3-8.26,1.56-10.72,17.3-18.49,42.63-47.18,42.63-47.18.41,4.06,6.47,16.8,16.93,32.51s9.69,42.14,9.69,42.14c-14.94,21.68-25,61.35-25,61.35s1,7.92,26.28,20.54c11,5.51,46.51,16.31,46.51,16.31l39.46-43.28,50.78,35.64s9.12-9.13,8.21-18.27-18.44-63.5-18.44-63.5-1.89-19,.27-24.66S333.45,438.84,333.45,438.84Z"/><path class="cls-12" d="M153.42,564.7s12.2,10.7,14.67,8.23l12.43-35.19S165,549,153.42,564.7Z"/><path class="cls-8" d="M170.77,565.87s5.9-5.86,14.86,2.8,9.68,9.26,9.68,9.26,6.95,2.88,7.52-4.63c0,0,8.8,1.29,6.82-8.39,0,0,6.14-4.42.71-12,0,0,5.51-1.06,2.24-11.47s-24-20.46-24-20.46-9.94-3.49-10.82,8.07c0,0-7.16.38-4.66,10.38,0,0-4.65,4.2-3.65,8.77s-.11,3.66-.11,3.66S162.68,559.29,170.77,565.87Z"/><path class="cls-35" d="M202.45,573.63c-.11-.14-11.87-13.67-24.48-19.79l.43-.9c12.8,6.21,24.69,19.9,24.81,20Z"/><path class="cls-35" d="M209.31,565.27c-.17-.16-17.14-16.1-29.48-22.75l.48-.88c12.45,6.72,29.52,22.74,29.69,22.9Z"/><path class="cls-35" d="M210,553.19c-.15-.18-15.21-17.9-27.55-21.76l.3-.95c12.61,3.94,27.39,21.33,28,22.07Z"/><path class="cls-41" d="M219.27,331.75S195.12,343.4,182,363.18l44.38,12.67s-15.11,14.86-14.79,18.07,66.17,51,66.17,51,33.54-61.51,29.81-64.56-24.29-6.81-24.29-6.81S302.8,346,306.19,345.64s-28-16.36-31-16.05,2.52,110.28,2.52,110.28l-.15,2.38Z"/><path class="cls-37" d="M277.8,445s9.26,81.81,7,104.33"/><circle class="cls-42" cx="291.54" cy="469.64" r="5.33"/><circle class="cls-42" cx="293.67" cy="507.64" r="5.33"/><path class="cls-43" d="M173.7,402.9l-1-.23a76.61,76.61,0,0,0-11.55-60.85l.82-.57A77.63,77.63,0,0,1,173.7,402.9Z"/><path class="cls-43" d="M329,405.1l-1-.09c1.1-12.3-3.36-24.58-7.3-35.41-4.66-12.82-9.95-27.35-20.07-37.88l.72-.69c10.27,10.68,15.59,25.32,20.29,38.23C325.59,380.19,330.1,392.58,329,405.1Z"/><path class="cls-43" d="M146.21,375.14a27.73,27.73,0,0,0-3.49-6.94l.82-.57a28.39,28.39,0,0,1,3.62,7.19Z"/><path class="cls-43" d="M135.93,390.8a34.62,34.62,0,0,0-6.08-.84l.05-1a36.56,36.56,0,0,1,6.25.85Z"/><path class="cls-43" d="M334.33,439.12l-1-.11a74.31,74.31,0,0,0,.43-11.93l1,0A75,75,0,0,1,334.33,439.12Z"/><path class="cls-43" d="M400.28,437.11a74.37,74.37,0,0,0-2.84-11.6l.95-.31A74,74,0,0,1,401.26,437Z"/><path class="cls-43" d="M384.94,437.09l-1-.15a60.44,60.44,0,0,0,.75-10.74l1,0A61.34,61.34,0,0,1,384.94,437.09Z"/><path class="cls-43" d="M200.3,494.73l-.52-.85a60.15,60.15,0,0,1,11.59-5.54l.34.94A58.87,58.87,0,0,0,200.3,494.73Z"/><path class="cls-43" d="M127.66,467.41c-2.33,0-10-.2-12.54-2.75l.7-.71c2.65,2.65,12.37,2.45,12.47,2.45l0,1Z"/><path class="cls-43" d="M118.72,481.06v-1c3.43,0,7.7-2.83,7.74-2.86l.56.83C126.83,478.16,122.45,481.06,118.72,481.06Z"/><path class="cls-44" d="M429.8,380.81s2.67-5,6.17-7l37.67,21.76L464.3,407Z"/><path class="cls-35" d="M468.32,355l-.7-.71c1.94-1.94,15-3.57,16.44-3.75l.12,1C478.51,352.26,469.61,353.75,468.32,355Z"/><path class="cls-35" d="M494,354.74c-1.39,0-1.52-.19-1.63-.35a.58.58,0,0,1,.09-.77l.71.71a.41.41,0,0,0,.08-.36.36.36,0,0,0-.2-.27c1.85.69,34.51-3.93,36.74-4.53v0c.14,0,.57-.05.68.37l-.28.58c-.42.2-11.19,1.79-18.63,2.79C500.61,354.34,496,354.74,494,354.74Z"/><path class="cls-35" d="M496.65,358.81a13.91,13.91,0,0,1-4-.37l.37-.93c3.79,1.53,39.32-2.56,40.89-4.7a.17.17,0,0,0,0,.1l1,.07a1.12,1.12,0,0,1-.59.8C531,355.82,506.75,358.81,496.65,358.81Z"/><path class="cls-35" d="M506.85,368c-3.94,0-8-.56-9.1-1.28a.83.83,0,0,1-.47-1l1,.29a.28.28,0,0,0,0-.22c.26.31,2.34.86,5.94,1.08,4.89.3,9.1-.22,10.23-1.25l.15-.1,17-6.81a8.07,8.07,0,0,1,2,0,.64.64,0,0,1,.41.42c.14.44-.19,1.19-1,2.24l-.81-.59a7.23,7.23,0,0,0,.71-1.15c-.32,0-.81,0-1.25,0L515,366.49C513.65,367.62,510.28,368,506.85,368Z"/><path class="cls-35" d="M470.51,365.43l-.41-.91c.2-.09,4.9-2.33,4.62-8.69l1,0A10,10,0,0,1,470.51,365.43Z"/><path class="cls-35" d="M457.94,373l-.94-.33c.14-.4,3.66-9.84,21.35-8.16.08,0,3.77.61,5.41-1l.08-.08.11,0c.25-.09,6.15-2.07,9.66.61l-.61.79c-2.85-2.18-7.85-.74-8.62-.49-2,1.9-6,1.25-6.16,1.22C461.34,363.85,458,372.88,457.94,373Z"/><path class="cls-35" d="M498,368.5l-.92-.39c.32-.77.61-2,.29-2.32-.07-.07-6.06-7.14-5.25-8.56a17.41,17.41,0,0,0,.18-4.89l1-.06c.05.74.23,4.49-.31,5.44,0,.89,4.21,6.49,5.08,7.36S498.17,368.09,498,368.5Z"/></g><g class="cls-45"><path class="cls-37" d="M190,275.55s-6.77,14.38-4.3,22.7S202.88,312,202.88,312s37.07,22.44,68.87,18.45,21.38-11,21.38-11l-55.79-45.94Z"/><path class="cls-37" d="M298,272s-5.18,10.44-3,17.43,15.57,10.15,15.57,10.15l10.35.39,104,5.36s7.43-21.13-51.76-33.44S298,272,298,272Z"/><path class="cls-46" d="M202.2,14.2l2.37,26.31s-29.12,70.66-9.27,203l-6,40.43s24.06,11.27,41.43,15.9a72.35,72.35,0,0,0,32,1.2s-39.64-43.48-45.34-49.63L267.07,11S238.58-46.54,202.2,14.2Z"/><path class="cls-46" d="M284.55,12.39S258.79,82.93,300,217.08c0,0,5.91,55.23-2.05,54.93s81.06,6.76,86.9,7-44.4-20.8-48.8-31.06-6.29-201.14-.33-218.46a234.54,234.54,0,0,0,8.72-34.22S289.46,1.67,284.55,12.39Z"/><path class="cls-37" d="M172.66-198.52S155.05-125.95,157-106.07s4.68,52.17,34,145.94c0,0,78.26,32.39,150.2-.8,0,0,6.29-1.86,10.91-43.82s12.42-142.59-8.72-187.46S172.66-198.52,172.66-198.52Z"/></g><path class="cls-47" d="M575.43,228v1.35l-2.47.2V250h-1.8l-12.52-19-.09,0v17.4l2.47.2V250h-6.75v-1.33l2.46-.2v-19l-2.46-.2V228h4.28l12.52,18.92h.09V229.53l-2.47-.2V228h6.74Z"/><path class="cls-47" d="M585.13,250.34a6.62,6.62,0,0,1-5.12-2.26,8.31,8.31,0,0,1-2-5.76v-.84a8.5,8.5,0,0,1,2-5.82,6.22,6.22,0,0,1,4.88-2.32,6.08,6.08,0,0,1,4.74,1.91,7.27,7.27,0,0,1,1.72,5.08v1.55H579.79v.44a7.24,7.24,0,0,0,1.47,4.62,4.7,4.7,0,0,0,3.87,1.87,8,8,0,0,0,2.88-.47,5.6,5.6,0,0,0,2-1.35l.77,1.25a6.57,6.57,0,0,1-2.33,1.53A9,9,0,0,1,585.13,250.34Zm-.24-15.46a4.36,4.36,0,0,0-3.37,1.54,6.68,6.68,0,0,0-1.6,3.85l0,.08h9.6v-.46a5.23,5.23,0,0,0-1.26-3.57A4.27,4.27,0,0,0,584.89,234.88Z"/><path class="cls-47" d="M594.23,227.76v-1.35h4.27v22.08l2.46.2V250h-6.73v-1.33l2.47-.2V228Z"/><path class="cls-47" d="M611.05,250.34a6.6,6.6,0,0,1-5.12-2.26,8.32,8.32,0,0,1-2-5.76v-.84a8.5,8.5,0,0,1,2-5.82,6.25,6.25,0,0,1,4.88-2.32,6.08,6.08,0,0,1,4.74,1.91,7.28,7.28,0,0,1,1.73,5.08v1.55H605.7v.44a7.19,7.19,0,0,0,1.48,4.62,4.68,4.68,0,0,0,3.87,1.87,7.91,7.91,0,0,0,2.87-.47,5.52,5.52,0,0,0,2-1.35l.78,1.25a6.75,6.75,0,0,1-2.33,1.53A9,9,0,0,1,611.05,250.34Zm-.25-15.46a4.37,4.37,0,0,0-3.37,1.54,6.61,6.61,0,0,0-1.59,3.85l0,.08h9.59v-.46a5.22,5.22,0,0,0-1.25-3.57A4.29,4.29,0,0,0,610.8,234.88Z"/><path class="cls-47" d="M632.8,235l-2,.15,4.09,10.78.53,1.92h.09l.58-1.92,4-10.78-2-.15v-1.35h5.51V235l-1.61.14L636.14,250h-1.45l-5.8-14.89-1.6-.14v-1.35h5.51Z"/><path class="cls-47" d="M656.61,250c-.12-.55-.21-1-.26-1.44a9.87,9.87,0,0,1-.08-1.22,7.18,7.18,0,0,1-2.42,2.13,6.78,6.78,0,0,1-3.4.85,5.22,5.22,0,0,1-3.73-1.24,4.39,4.39,0,0,1-1.31-3.36,4.16,4.16,0,0,1,2-3.61,9.34,9.34,0,0,1,5.3-1.33h3.61v-2.16a3.51,3.51,0,0,0-1.12-2.76,4.66,4.66,0,0,0-3.16-1,7.84,7.84,0,0,0-2.49.38,5.51,5.51,0,0,0-1.88,1l-.16,2.2H646v-3.15a9.21,9.21,0,0,1,2.72-1.42,10.09,10.09,0,0,1,3.37-.55,6.54,6.54,0,0,1,4.35,1.38,4.86,4.86,0,0,1,1.66,3.95v8.05c0,.33,0,.66,0,1a6.52,6.52,0,0,0,.1.9l1.63.11V250Zm-6-1.29a6.62,6.62,0,0,0,3.47-.9,5.35,5.35,0,0,0,2.16-2.35V242.2h-3.64a6.84,6.84,0,0,0-4,1,3,3,0,0,0-1.47,2.58,2.67,2.67,0,0,0,.91,2.12A3.67,3.67,0,0,0,650.64,248.73Z"/><path class="cls-47" d="M662,235v-1.35h4.07l.17,2.71a5.62,5.62,0,0,1,2.1-2.22,6,6,0,0,1,3.14-.79,5.18,5.18,0,0,1,3.13.92,5,5,0,0,1,1.8,2.79,6.36,6.36,0,0,1,2.11-2.72,5.55,5.55,0,0,1,3.34-1,5,5,0,0,1,4,1.74q1.43,1.74,1.43,5.39v8l2.47.21V250h-6.77v-1.33l2.47-.21v-8c0-2-.36-3.44-1.07-4.28a3.69,3.69,0,0,0-3-1.24,4,4,0,0,0-3.27,1.34,6.5,6.5,0,0,0-1.41,3.44,1.77,1.77,0,0,0,0,.23v8.56l2.47.2V250h-6.75v-1.33l2.47-.2v-8.05a6.55,6.55,0,0,0-1.09-4.25,3.68,3.68,0,0,0-3-1.27,4.51,4.51,0,0,0-3.06,1,5.2,5.2,0,0,0-1.59,2.63v10l2.47.2V250H662v-1.33l2.47-.2v-13.3Z"/><path class="cls-47" d="M691.91,241.59a8.8,8.8,0,0,1,2-5.93,7.12,7.12,0,0,1,10.52,0,8.8,8.8,0,0,1,2,5.93v.5a8.85,8.85,0,0,1-2,5.94,7.16,7.16,0,0,1-10.53,0,8.81,8.81,0,0,1-2-5.94Zm1.81.5a7.78,7.78,0,0,0,1.44,4.78,4.7,4.7,0,0,0,4,1.94,4.65,4.65,0,0,0,4-1.94,7.84,7.84,0,0,0,1.43-4.78v-.5a7.77,7.77,0,0,0-1.44-4.75,5,5,0,0,0-8,0,7.77,7.77,0,0,0-1.44,4.75Z"/><path class="cls-47" d="M721.22,238.7h-1.48l-.21-2.32a4.59,4.59,0,0,0-1.72-1.1,6.7,6.7,0,0,0-2.38-.4,4.47,4.47,0,0,0-3,.86,2.58,2.58,0,0,0-1,2,2.37,2.37,0,0,0,.86,1.87,8.15,8.15,0,0,0,3.41,1.3,11.18,11.18,0,0,1,4.37,1.78,3.7,3.7,0,0,1,1.46,3.07,4,4,0,0,1-1.66,3.31,7,7,0,0,1-4.38,1.26,10.17,10.17,0,0,1-3.31-.51,7.88,7.88,0,0,1-2.58-1.43v-3.3h1.47l.26,2.33a4.16,4.16,0,0,0,1.83,1.06,8.57,8.57,0,0,0,2.33.32,5,5,0,0,0,3.1-.86,2.56,2.56,0,0,0,1.14-2.09,2.64,2.64,0,0,0-1-2,7.59,7.59,0,0,0-3.41-1.41,11.6,11.6,0,0,1-4.34-1.69,3.45,3.45,0,0,1-1.41-2.94,4,4,0,0,1,1.58-3.18,6.46,6.46,0,0,1,4.2-1.29,9.58,9.58,0,0,1,3.29.55,6.81,6.81,0,0,1,2.43,1.49Z"/><path class="cls-47" d="M739.62,250.34a6.6,6.6,0,0,1-5.12-2.26,8.32,8.32,0,0,1-2-5.76v-.84a8.55,8.55,0,0,1,2-5.82,6.26,6.26,0,0,1,4.89-2.32,6.07,6.07,0,0,1,4.73,1.91,7.28,7.28,0,0,1,1.73,5.08v1.55H734.27v.44a7.24,7.24,0,0,0,1.48,4.62,4.68,4.68,0,0,0,3.87,1.87,7.88,7.88,0,0,0,2.87-.47,5.64,5.64,0,0,0,2-1.35l.77,1.25a6.66,6.66,0,0,1-2.33,1.53A9,9,0,0,1,739.62,250.34Zm-.24-15.46a4.34,4.34,0,0,0-3.37,1.54,6.55,6.55,0,0,0-1.6,3.85l0,.08H744v-.46a5.23,5.23,0,0,0-1.26-3.57A4.28,4.28,0,0,0,739.38,234.88Z"/><path class="cls-47" d="M748.71,248.69l1.84-.17,5.17-6.84-4.93-6.52-1.85-.17v-1.35h5.56V235l-1.7.09,3.91,5.25,3.92-5.26L759,235v-1.35h5.55V235l-1.83.17-4.93,6.52,5.16,6.84,1.84.17V250H759.2v-1.33l1.68-.08L756.72,243l-4.15,5.57,1.68.08V250h-5.54Z"/><path class="cls-47" d="M766.64,235v-1.35h4l.22,2.55a5.72,5.72,0,0,1,5.16-2.85,5.36,5.36,0,0,1,4.62,2.35,10.69,10.69,0,0,1,1.67,6.28v.32a9.44,9.44,0,0,1-1.67,5.86,5.44,5.44,0,0,1-4.58,2.19,6.53,6.53,0,0,1-3-.66,5.54,5.54,0,0,1-2.12-1.87v7l2.47.2v1.35h-6.73V255l2.46-.2V235.19Zm13.83,7a9.38,9.38,0,0,0-1.24-5.09,4,4,0,0,0-3.63-2,4.79,4.79,0,0,0-3,.87,5.4,5.4,0,0,0-1.72,2.26v7.87a5.05,5.05,0,0,0,1.8,2.12,5.26,5.26,0,0,0,2.93.77,4.13,4.13,0,0,0,3.61-1.79,8.2,8.2,0,0,0,1.23-4.73Z"/><path class="cls-47" d="M784.73,227.76v-1.35H789v22.08l2.47.2V250h-6.73v-1.33l2.46-.2V228Z"/><path class="cls-47" d="M794,241.59a8.8,8.8,0,0,1,2-5.93,7.12,7.12,0,0,1,10.52,0,8.8,8.8,0,0,1,2,5.93v.5a8.8,8.8,0,0,1-2,5.94A7.16,7.16,0,0,1,796,248a8.81,8.81,0,0,1-2-5.94Zm1.82.5a7.77,7.77,0,0,0,1.43,4.78,4.7,4.7,0,0,0,4,1.94,4.65,4.65,0,0,0,4-1.94,7.78,7.78,0,0,0,1.44-4.78v-.5a7.71,7.71,0,0,0-1.45-4.75,5,5,0,0,0-8,0,7.76,7.76,0,0,0-1.43,4.75Z"/><path class="cls-47" d="M815.38,233.64l.22,2.73v.19a5.9,5.9,0,0,1,1.9-2.36,4.82,4.82,0,0,1,2.86-.86,4.91,4.91,0,0,1,.67,0l.54.12-.24,1.69-1.35-.09a4.11,4.11,0,0,0-2.81,1,5.36,5.36,0,0,0-1.57,2.64v9.78l2.47.2V250h-6.73v-1.33l2.46-.2v-13.3l-2.46-.2v-1.35h4Z"/><path class="cls-47" d="M835.22,250c-.12-.55-.21-1-.26-1.44a9.87,9.87,0,0,1-.07-1.22,7.27,7.27,0,0,1-2.42,2.13,6.82,6.82,0,0,1-3.41.85,5.21,5.21,0,0,1-3.72-1.24,4.4,4.4,0,0,1-1.32-3.36,4.16,4.16,0,0,1,2-3.61,9.34,9.34,0,0,1,5.3-1.33h3.62v-2.16a3.52,3.52,0,0,0-1.13-2.76,4.62,4.62,0,0,0-3.16-1,7.82,7.82,0,0,0-2.48.38,5.56,5.56,0,0,0-1.89,1l-.15,2.2h-1.5l0-3.15a9.15,9.15,0,0,1,2.71-1.42,10.14,10.14,0,0,1,3.37-.55,6.57,6.57,0,0,1,4.36,1.38,4.85,4.85,0,0,1,1.65,3.95v8.05c0,.33,0,.66,0,1a8.54,8.54,0,0,0,.1.9l1.64.11V250Zm-6-1.29a6.56,6.56,0,0,0,3.46-.9,5.43,5.43,0,0,0,2.17-2.35V242.2h-3.65a6.81,6.81,0,0,0-3.94,1,3,3,0,0,0-1.48,2.58,2.68,2.68,0,0,0,.92,2.12A3.67,3.67,0,0,0,829.26,248.73Z"/><path class="cls-47" d="M844.94,233.64l.23,2.73v.19a5.74,5.74,0,0,1,1.9-2.36,5,5,0,0,1,3.52-.81l.54.12-.24,1.69-1.35-.09a4.11,4.11,0,0,0-2.81,1,5.28,5.28,0,0,0-1.56,2.64v9.78l2.46.2V250H840.9v-1.33l2.46-.2v-13.3l-2.46-.2v-1.35h4Z"/><path class="cls-47" d="M872.9,238.7h-1.49l-.21-2.32a4.59,4.59,0,0,0-1.72-1.1,6.7,6.7,0,0,0-2.38-.4,4.44,4.44,0,0,0-3,.86,2.56,2.56,0,0,0-1,2,2.37,2.37,0,0,0,.86,1.87,8.21,8.21,0,0,0,3.41,1.3,11.3,11.3,0,0,1,4.38,1.78,3.69,3.69,0,0,1,1.45,3.07,4,4,0,0,1-1.66,3.31,7,7,0,0,1-4.38,1.26,10.22,10.22,0,0,1-3.31-.51,7.88,7.88,0,0,1-2.58-1.43v-3.3h1.47l.26,2.33a4.2,4.2,0,0,0,1.84,1.06,8.44,8.44,0,0,0,2.32.32,5,5,0,0,0,3.1-.86,2.56,2.56,0,0,0,1.14-2.09,2.64,2.64,0,0,0-.95-2,7.59,7.59,0,0,0-3.41-1.41,11.67,11.67,0,0,1-4.34-1.69,3.45,3.45,0,0,1-1.41-2.94,4,4,0,0,1,1.59-3.18,6.43,6.43,0,0,1,4.19-1.29,9.58,9.58,0,0,1,3.29.55,6.72,6.72,0,0,1,2.43,1.49Z"/><path class="cls-47" d="M876.41,248.69l2.47-.2v-13.3l-2.47-.2v-1.35h4.27v14.85l2.46.2V250h-6.73ZM880.68,229h-1.8v-2.54h1.8Z"/><path class="cls-47" d="M890.35,229.45v4.19H894v1.49h-3.6V245.8a3.49,3.49,0,0,0,.58,2.28,2,2,0,0,0,1.55.67,8,8,0,0,0,.86,0c.28,0,.6-.07,1-.13l.27,1.35a4.7,4.7,0,0,1-1.1.3,8.25,8.25,0,0,1-1.3.11,3.38,3.38,0,0,1-2.69-1.09,5.15,5.15,0,0,1-1-3.45V235.13H885.7v-1.49h2.82v-4.19Z"/><path class="cls-47" d="M909.32,247.33a5.54,5.54,0,0,1-2.12,2.22,6,6,0,0,1-3.15.79,5,5,0,0,1-4-1.76c-1-1.17-1.46-3-1.46-5.45v-7.94l-2-.2v-1.35h3.83v9.52a7,7,0,0,0,1,4.3,3.47,3.47,0,0,0,2.9,1.31,5.43,5.43,0,0,0,3.28-.91,4.84,4.84,0,0,0,1.71-2.52V235.19l-2.33-.2v-1.35h4.15v14.85l2.2.2V250h-3.79Z"/><path class="cls-47" d="M927.24,250c-.12-.55-.21-1-.26-1.44a9.87,9.87,0,0,1-.08-1.22,7.18,7.18,0,0,1-2.42,2.13,6.78,6.78,0,0,1-3.4.85,5.22,5.22,0,0,1-3.73-1.24,4.43,4.43,0,0,1-1.31-3.36,4.16,4.16,0,0,1,2-3.61,9.34,9.34,0,0,1,5.3-1.33h3.61v-2.16a3.51,3.51,0,0,0-1.12-2.76,4.66,4.66,0,0,0-3.16-1,7.84,7.84,0,0,0-2.49.38,5.51,5.51,0,0,0-1.88,1l-.16,2.2H916.6v-3.15a9.21,9.21,0,0,1,2.72-1.42,10.09,10.09,0,0,1,3.37-.55,6.58,6.58,0,0,1,4.36,1.38,4.85,4.85,0,0,1,1.65,3.95v8.05c0,.33,0,.66,0,1a6.52,6.52,0,0,0,.1.9l1.63.11V250Zm-6-1.29a6.6,6.6,0,0,0,3.47-.9,5.35,5.35,0,0,0,2.16-2.35V242.2h-3.64a6.84,6.84,0,0,0-4,1,3,3,0,0,0-1.47,2.58,2.67,2.67,0,0,0,.91,2.12A3.67,3.67,0,0,0,921.27,248.73Z"/><path class="cls-47" d="M940,248.81a5.15,5.15,0,0,0,3.18-1,3.39,3.39,0,0,0,1.37-2.86h1.61l0,.09a4.49,4.49,0,0,1-1.81,3.8,6.76,6.76,0,0,1-4.38,1.53,6.22,6.22,0,0,1-5.16-2.29,9.13,9.13,0,0,1-1.84-5.9v-.64a9.1,9.1,0,0,1,1.84-5.87,6.2,6.2,0,0,1,5.14-2.3,8.41,8.41,0,0,1,3.47.71A6.88,6.88,0,0,1,946,236l.07,3.57h-1.54l-.29-2.9a5.12,5.12,0,0,0-1.81-1.3,6,6,0,0,0-2.46-.48,4.38,4.38,0,0,0-3.9,1.89,8.37,8.37,0,0,0-1.26,4.74v.64a8.39,8.39,0,0,0,1.26,4.78A4.37,4.37,0,0,0,940,248.81Zm.47,1.35-.17,1a3.61,3.61,0,0,1,1.93.73,2.25,2.25,0,0,1,.73,1.85,2.57,2.57,0,0,1-1.19,2.21,6,6,0,0,1-3.42.82l-.11-1.18a5.06,5.06,0,0,0,2.28-.46,1.46,1.46,0,0,0,.93-1.35,1.27,1.27,0,0,0-.62-1.21,5.86,5.86,0,0,0-2.19-.46l.42-1.92Z"/><path class="cls-47" d="M949.59,241.59a8.75,8.75,0,0,1,2-5.93,7.12,7.12,0,0,1,10.52,0,8.8,8.8,0,0,1,2,5.93v.5a8.81,8.81,0,0,1-2,5.94,6.54,6.54,0,0,1-5.24,2.31,6.61,6.61,0,0,1-5.28-2.31,8.76,8.76,0,0,1-2-5.94Zm1.82.5a7.78,7.78,0,0,0,1.44,4.78,5.07,5.07,0,0,0,8,0,7.84,7.84,0,0,0,1.43-4.78v-.5a7.77,7.77,0,0,0-1.44-4.75,5,5,0,0,0-8,0,7.77,7.77,0,0,0-1.44,4.75Zm10.66-14.74a3.09,3.09,0,0,1-.84,2.21,2.73,2.73,0,0,1-2.07.87,3.86,3.86,0,0,1-2.28-.83,3.7,3.7,0,0,0-2-.83,1.56,1.56,0,0,0-1.19.53,1.89,1.89,0,0,0-.49,1.35l-1.19-.28a3.11,3.11,0,0,1,.81-2.18,2.66,2.66,0,0,1,2.06-.89,4.23,4.23,0,0,1,2.24.83,4,4,0,0,0,2,.84,1.56,1.56,0,0,0,1.2-.55,2,2,0,0,0,.5-1.38Z"/><path class="cls-47" d="M974.25,250.34a6.58,6.58,0,0,1-5.11-2.26,8.27,8.27,0,0,1-2-5.76v-.84a8.5,8.5,0,0,1,2-5.82,6.24,6.24,0,0,1,4.88-2.32,6.08,6.08,0,0,1,4.74,1.91,7.27,7.27,0,0,1,1.72,5.08v1.55H968.91v.44a7.24,7.24,0,0,0,1.47,4.62,4.7,4.7,0,0,0,3.87,1.87,8,8,0,0,0,2.88-.47,5.6,5.6,0,0,0,2-1.35l.77,1.25a6.57,6.57,0,0,1-2.33,1.53A9,9,0,0,1,974.25,250.34ZM974,234.88a4.36,4.36,0,0,0-3.37,1.54,6.61,6.61,0,0,0-1.59,3.85l0,.08h9.59v-.46a5.27,5.27,0,0,0-1.25-3.57A4.3,4.3,0,0,0,974,234.88Z"/><path class="cls-47" d="M995.59,238.7h-1.48l-.21-2.32a4.67,4.67,0,0,0-1.72-1.1,6.74,6.74,0,0,0-2.38-.4,4.45,4.45,0,0,0-3,.86,2.58,2.58,0,0,0-1,2,2.37,2.37,0,0,0,.86,1.87,8.15,8.15,0,0,0,3.41,1.3,11.25,11.25,0,0,1,4.37,1.78,3.7,3.7,0,0,1,1.46,3.07,4,4,0,0,1-1.66,3.31,7.07,7.07,0,0,1-4.38,1.26,10.17,10.17,0,0,1-3.31-.51A7.88,7.88,0,0,1,984,248.4v-3.3h1.47l.25,2.33a4.25,4.25,0,0,0,1.84,1.06,8.57,8.57,0,0,0,2.33.32A5,5,0,0,0,993,248a2.56,2.56,0,0,0,1.14-2.09,2.64,2.64,0,0,0-1-2,7.59,7.59,0,0,0-3.41-1.41,11.6,11.6,0,0,1-4.34-1.69,3.46,3.46,0,0,1-1.42-2.94,4,4,0,0,1,1.59-3.18,6.46,6.46,0,0,1,4.2-1.29,9.62,9.62,0,0,1,3.29.55,6.81,6.81,0,0,1,2.43,1.49Z"/><path class="cls-47" d="M558.58,270.84l.23,2.73v.19a5.82,5.82,0,0,1,1.9-2.36,5,5,0,0,1,3.52-.81l.54.12-.24,1.69-1.35-.09a4.09,4.09,0,0,0-2.8,1,5.21,5.21,0,0,0-1.57,2.65v9.77l2.47.2v1.33h-6.74v-1.33l2.47-.2v-13.3l-2.47-.2v-1.35h4Z"/><path class="cls-47" d="M574.05,287.54a6.59,6.59,0,0,1-5.12-2.26,8.31,8.31,0,0,1-2-5.76v-.84a8.5,8.5,0,0,1,2-5.82,6.22,6.22,0,0,1,4.88-2.32,6.08,6.08,0,0,1,4.74,1.91,7.29,7.29,0,0,1,1.72,5.08v1.55H568.71v.44a7.24,7.24,0,0,0,1.47,4.62,4.7,4.7,0,0,0,3.87,1.87,8,8,0,0,0,2.88-.47,5.6,5.6,0,0,0,2-1.35l.77,1.25a6.57,6.57,0,0,1-2.33,1.53A9,9,0,0,1,574.05,287.54Zm-.24-15.46a4.36,4.36,0,0,0-3.37,1.54,6.68,6.68,0,0,0-1.6,3.85l0,.08h9.6v-.46a5.23,5.23,0,0,0-1.26-3.57A4.27,4.27,0,0,0,573.81,272.08Z"/><path class="cls-47" d="M583.15,265v-1.35h4.27v22.08l2.46.2v1.33h-6.73v-1.33l2.46-.2V265.15Z"/><path class="cls-47" d="M604.05,287.22c-.12-.55-.21-1-.26-1.44a9.87,9.87,0,0,1-.07-1.22,7.17,7.17,0,0,1-2.42,2.13,6.82,6.82,0,0,1-3.41.85,5.21,5.21,0,0,1-3.72-1.24,4.4,4.4,0,0,1-1.32-3.36,4.16,4.16,0,0,1,1.95-3.61,9.34,9.34,0,0,1,5.3-1.33h3.62v-2.16a3.52,3.52,0,0,0-1.13-2.76,4.62,4.62,0,0,0-3.16-1,7.82,7.82,0,0,0-2.48.38,5.56,5.56,0,0,0-1.89,1l-.15,2.2h-1.5l0-3.15a9.15,9.15,0,0,1,2.71-1.42,10.14,10.14,0,0,1,3.37-.55,6.57,6.57,0,0,1,4.36,1.38,4.85,4.85,0,0,1,1.65,3.95v8.05c0,.33,0,.66,0,1a8.54,8.54,0,0,0,.1.9l1.64.11v1.33Zm-6-1.29a6.56,6.56,0,0,0,3.46-.9,5.43,5.43,0,0,0,2.17-2.35V279.4h-3.65a6.81,6.81,0,0,0-3.94,1,3,3,0,0,0-1.48,2.58,2.71,2.71,0,0,0,.92,2.13A3.67,3.67,0,0,0,598.09,285.93Z"/><path class="cls-47" d="M614,266.65v4.19h3.6v1.49H614V283a3.55,3.55,0,0,0,.58,2.28,2,2,0,0,0,1.56.67,7.94,7.94,0,0,0,.85,0c.28,0,.6-.07,1-.13l.27,1.35a4.7,4.7,0,0,1-1.1.3,8.15,8.15,0,0,1-1.3.11,3.39,3.39,0,0,1-2.69-1.09,5.15,5.15,0,0,1-1-3.45V272.33h-2.82v-1.49h2.82v-4.19Z"/><path class="cls-47" d="M620.82,285.89l2.47-.2v-13.3l-2.47-.2v-1.35h4.27v14.85l2.47.2v1.33h-6.74Zm4.27-19.74h-1.8v-2.54h1.8Z"/><path class="cls-47" d="M635.35,272.19l-2,.15,4.09,10.78.53,1.92H638l.57-1.92,4-10.78-2-.15v-1.35h5.51v1.35l-1.61.14-5.78,14.89h-1.45l-5.8-14.89-1.61-.14v-1.35h5.51Z"/><path class="cls-47" d="M659.16,287.22c-.12-.55-.2-1-.25-1.44a9.87,9.87,0,0,1-.08-1.22,7.07,7.07,0,0,1-2.42,2.13,6.82,6.82,0,0,1-3.41.85,5.21,5.21,0,0,1-3.72-1.24,4.4,4.4,0,0,1-1.32-3.36,4.15,4.15,0,0,1,2-3.61,9.31,9.31,0,0,1,5.29-1.33h3.62v-2.16a3.48,3.48,0,0,0-1.13-2.76,4.61,4.61,0,0,0-3.15-1,7.84,7.84,0,0,0-2.49.38,5.66,5.66,0,0,0-1.89,1l-.15,2.2h-1.5l0-3.15a9.27,9.27,0,0,1,2.71-1.42,10.14,10.14,0,0,1,3.37-.55,6.57,6.57,0,0,1,4.36,1.38,4.85,4.85,0,0,1,1.65,3.95v8.05c0,.33,0,.66,0,1a6.53,6.53,0,0,0,.09.9l1.64.11v1.33Zm-6-1.29a6.62,6.62,0,0,0,3.47-.9,5.35,5.35,0,0,0,2.16-2.35V279.4h-3.65a6.81,6.81,0,0,0-3.94,1,3.05,3.05,0,0,0-1.48,2.58,2.71,2.71,0,0,0,.92,2.13A3.67,3.67,0,0,0,653.2,285.93Z"/><path class="cls-47" d="M676.84,275.9h-1.48l-.21-2.32a4.67,4.67,0,0,0-1.72-1.1,6.74,6.74,0,0,0-2.38-.4,4.45,4.45,0,0,0-3,.86,2.58,2.58,0,0,0-1,2,2.37,2.37,0,0,0,.86,1.87,8.15,8.15,0,0,0,3.41,1.3,11.25,11.25,0,0,1,4.37,1.78,3.7,3.7,0,0,1,1.46,3.07,4,4,0,0,1-1.66,3.31,7.07,7.07,0,0,1-4.38,1.26,10.17,10.17,0,0,1-3.31-.51,7.88,7.88,0,0,1-2.58-1.43v-3.3h1.47l.25,2.33a4.25,4.25,0,0,0,1.84,1.06,8.57,8.57,0,0,0,2.33.32,5,5,0,0,0,3.1-.86,2.56,2.56,0,0,0,1.14-2.09,2.64,2.64,0,0,0-1-2,7.59,7.59,0,0,0-3.41-1.41,11.6,11.6,0,0,1-4.34-1.69,3.46,3.46,0,0,1-1.42-2.94,4,4,0,0,1,1.59-3.18,6.46,6.46,0,0,1,4.2-1.29,9.62,9.62,0,0,1,3.29.55,6.81,6.81,0,0,1,2.43,1.49Z"/><path class="cls-47" d="M699.32,287.22c-.12-.55-.21-1-.26-1.44a9.87,9.87,0,0,1-.07-1.22,7.17,7.17,0,0,1-2.42,2.13,6.82,6.82,0,0,1-3.41.85,5.21,5.21,0,0,1-3.72-1.24,4.4,4.4,0,0,1-1.32-3.36,4.16,4.16,0,0,1,2-3.61,9.34,9.34,0,0,1,5.3-1.33H699v-2.16a3.52,3.52,0,0,0-1.13-2.76,4.62,4.62,0,0,0-3.16-1,7.93,7.93,0,0,0-2.49.38,5.6,5.6,0,0,0-1.88,1l-.15,2.2h-1.5l0-3.15a9.15,9.15,0,0,1,2.71-1.42,10.14,10.14,0,0,1,3.37-.55,6.57,6.57,0,0,1,4.36,1.38,4.85,4.85,0,0,1,1.65,3.95v8.05c0,.33,0,.66,0,1a8.54,8.54,0,0,0,.1.9l1.64.11v1.33Zm-6-1.29a6.56,6.56,0,0,0,3.46-.9,5.43,5.43,0,0,0,2.17-2.35V279.4h-3.65a6.81,6.81,0,0,0-3.94,1,3,3,0,0,0-1.48,2.58,2.71,2.71,0,0,0,.92,2.13A3.67,3.67,0,0,0,693.36,285.93Z"/><path class="cls-47" d="M705.12,278.79a8.8,8.8,0,0,1,2-5.93,7.12,7.12,0,0,1,10.52,0,8.8,8.8,0,0,1,2,5.93v.5a8.8,8.8,0,0,1-2,5.94,7.16,7.16,0,0,1-10.53,0,8.81,8.81,0,0,1-2-5.94Zm1.82.5a7.77,7.77,0,0,0,1.43,4.78,4.7,4.7,0,0,0,4,1.94,4.65,4.65,0,0,0,4-1.94,7.78,7.78,0,0,0,1.44-4.78v-.5a7.71,7.71,0,0,0-1.45-4.75,5,5,0,0,0-8,0,7.76,7.76,0,0,0-1.43,4.75Z"/><path class="cls-47" d="M745,279.65a9.05,9.05,0,0,1-1.7,5.72,5.63,5.63,0,0,1-4.69,2.17,6,6,0,0,1-2.78-.61,5.16,5.16,0,0,1-2-1.81l-.27,2.1H731V266l-2.47-.42v-1.92H734v9.17a5.17,5.17,0,0,1,1.92-1.66,5.77,5.77,0,0,1,2.67-.58,5.44,5.44,0,0,1,4.72,2.42,10.91,10.91,0,0,1,1.7,6.37Zm-3-.32a9.08,9.08,0,0,0-1-4.6,3.39,3.39,0,0,0-3.15-1.77,3.9,3.9,0,0,0-2.32.67,4.75,4.75,0,0,0-1.51,1.79v7.23a4.58,4.58,0,0,0,1.53,1.8,4,4,0,0,0,2.33.67,3.52,3.52,0,0,0,3.13-1.5,6.93,6.93,0,0,0,1-4Z"/><path class="cls-47" d="M758.61,287.22c-.09-.44-.16-.84-.21-1.19s-.09-.71-.11-1.06a7.26,7.26,0,0,1-2.15,1.84,5.64,5.64,0,0,1-2.76.73,5.52,5.52,0,0,1-3.9-1.25,4.61,4.61,0,0,1-1.33-3.52,4.07,4.07,0,0,1,1.89-3.59,9.11,9.11,0,0,1,5.17-1.27h3.07V276a2.93,2.93,0,0,0-.91-2.27,3.58,3.58,0,0,0-2.53-.84,6.25,6.25,0,0,0-2,.28,4,4,0,0,0-1.39.79l-.32,1.73h-2.3v-3.18a8.82,8.82,0,0,1,2.71-1.43,10.66,10.66,0,0,1,3.45-.54,7,7,0,0,1,4.52,1.42,5,5,0,0,1,1.72,4.08v7.88c0,.21,0,.42,0,.62s0,.41,0,.61l1.21.16v1.91Zm-4.8-2.18a5.32,5.32,0,0,0,2.71-.71,4.34,4.34,0,0,0,1.76-1.71v-2.69H755.1a4.57,4.57,0,0,0-2.9.84,2.56,2.56,0,0,0-1.07,2.06,2,2,0,0,0,.67,1.64A3,3,0,0,0,753.81,285Z"/><path class="cls-47" d="M765,285.31l2.47-.42v-11.7l-2.47-.42v-1.93h5.45v14.05l2.47.42v1.91H765Zm5.45-18.66h-3v-3h3Z"/><path class="cls-47" d="M775.19,272.77v-1.93h5.13l.28,2.38a5.84,5.84,0,0,1,1.72-2,4,4,0,0,1,2.34-.71,6.09,6.09,0,0,1,.72,0,4.48,4.48,0,0,1,.57.12l-.4,2.77-1.69-.09a3.37,3.37,0,0,0-2,.55,3.56,3.56,0,0,0-1.24,1.55v9.4l2.46.42v1.91h-7.91v-1.91l2.46-.42v-11.7Z"/><path class="cls-47" d="M788,272.77v-1.93h5.13l.28,2.38a5.84,5.84,0,0,1,1.72-2,4,4,0,0,1,2.34-.71,6.09,6.09,0,0,1,.72,0,4.48,4.48,0,0,1,.57.12l-.39,2.77-1.7-.09a3.37,3.37,0,0,0-2,.55,3.56,3.56,0,0,0-1.24,1.55v9.4l2.46.42v1.91H788v-1.91l2.46-.42v-11.7Z"/><path class="cls-47" d="M800.54,278.88a9,9,0,0,1,2-6,7.28,7.28,0,0,1,10.71,0,9,9,0,0,1,2,6v.33a8.94,8.94,0,0,1-2,6,7.31,7.31,0,0,1-10.71,0,9,9,0,0,1-2-6Zm3,.33a7.78,7.78,0,0,0,1.1,4.3,3.94,3.94,0,0,0,6.48,0,7.69,7.69,0,0,0,1.11-4.3v-.33a7.72,7.72,0,0,0-1.11-4.28,3.93,3.93,0,0,0-6.49,0,7.8,7.8,0,0,0-1.09,4.28Z"/><path class="cls-47" d="M825.64,278.88a9,9,0,0,1,2-6,7.28,7.28,0,0,1,10.71,0,9,9,0,0,1,2,6v.33a9,9,0,0,1-2,6,7.32,7.32,0,0,1-10.72,0,9,9,0,0,1-2-6Zm3,.33a7.69,7.69,0,0,0,1.1,4.3,3.94,3.94,0,0,0,6.48,0,7.69,7.69,0,0,0,1.11-4.3v-.33a7.72,7.72,0,0,0-1.11-4.28,3.62,3.62,0,0,0-3.25-1.71,3.58,3.58,0,0,0-3.24,1.71,7.8,7.8,0,0,0-1.09,4.28Z"/><path class="cls-47" d="M842.58,285.31l2.46-.42v-11.7l-2.46-.42v-1.93h5.13l.21,2.44a5.91,5.91,0,0,1,2.05-2,5.47,5.47,0,0,1,2.81-.72,5.37,5.37,0,0,1,4.1,1.55,6.81,6.81,0,0,1,1.45,4.79v8l2.47.42v1.91h-7.92v-1.91l2.47-.42v-7.95a4.44,4.44,0,0,0-.85-3.07,3.49,3.49,0,0,0-2.62-.91,4.22,4.22,0,0,0-2.27.62,4.65,4.65,0,0,0-1.59,1.7v9.61l2.47.42v1.91h-7.91Z"/><path class="cls-47" d="M873.85,285.27a5.27,5.27,0,0,1-2,1.69,5.89,5.89,0,0,1-2.69.58,5.57,5.57,0,0,1-4.68-2.17,9.05,9.05,0,0,1-1.69-5.72v-.32a10.91,10.91,0,0,1,1.69-6.37,5.42,5.42,0,0,1,4.71-2.42,5.85,5.85,0,0,1,2.57.54,5.34,5.34,0,0,1,1.9,1.55V266l-2.47-.42v-1.92h5.45v21.28l2.47.42v1.91h-5.06Zm-8-5.62a7,7,0,0,0,1,4,3.54,3.54,0,0,0,3.14,1.5,3.91,3.91,0,0,0,2.24-.61,4.67,4.67,0,0,0,1.5-1.71v-7.6a4.72,4.72,0,0,0-1.5-1.63A4,4,0,0,0,870,273a3.4,3.4,0,0,0-3.16,1.77,9.19,9.19,0,0,0-1,4.6Z"/><path class="cls-47" d="M888.89,287.54a6.91,6.91,0,0,1-5.44-2.28,8.56,8.56,0,0,1-2-5.91v-.67a8.39,8.39,0,0,1,2.08-5.82,6.44,6.44,0,0,1,4.93-2.32,6.2,6.2,0,0,1,5,2,7.91,7.91,0,0,1,1.7,5.33v1.86H884.52l0,.07a6.48,6.48,0,0,0,1.2,3.89,3.82,3.82,0,0,0,3.22,1.52,7.69,7.69,0,0,0,2.66-.43,6.34,6.34,0,0,0,2-1.19l1.16,1.94a7.23,7.23,0,0,1-2.32,1.43A9.49,9.49,0,0,1,888.89,287.54Zm-.45-14.65a3.24,3.24,0,0,0-2.56,1.26,5.94,5.94,0,0,0-1.3,3.17l0,.08h7.55V277a4.52,4.52,0,0,0-.94-2.93A3.32,3.32,0,0,0,888.44,272.89Z"/><path class="cls-47" d="M905.2,285.31l2.46-.42v-11.7l-2.46-.42v-1.93h5.14l.2,2.14a5.25,5.25,0,0,1,2-1.8,6.13,6.13,0,0,1,2.87-.64,5,5,0,0,1,2.81.76,4.61,4.61,0,0,1,1.77,2.27,6,6,0,0,1,2-2.21,5.34,5.34,0,0,1,3-.82,4.9,4.9,0,0,1,4,1.72,7.84,7.84,0,0,1,1.45,5.17v7.46l2.47.42v1.91H925v-1.91l2.47-.42V277.4a5.47,5.47,0,0,0-.83-3.43,3,3,0,0,0-2.47-1,3.16,3.16,0,0,0-2.51,1.1,4.75,4.75,0,0,0-1.09,2.76v8.07l2.46.42v1.91H915.1v-1.91l2.46-.42V277.4a5.37,5.37,0,0,0-.85-3.37,3,3,0,0,0-2.48-1.07,4.13,4.13,0,0,0-2.24.56,3.65,3.65,0,0,0-1.34,1.58v9.79l2.46.42v1.91H905.2Z"/><path class="cls-47" d="M934.94,278.88a9,9,0,0,1,2-6,7.28,7.28,0,0,1,10.71,0,9,9,0,0,1,2,6v.33a8.94,8.94,0,0,1-2,6,7.31,7.31,0,0,1-10.71,0,9,9,0,0,1-2-6Zm3,.33a7.78,7.78,0,0,0,1.1,4.3,3.94,3.94,0,0,0,6.48,0,7.69,7.69,0,0,0,1.11-4.3v-.33a7.72,7.72,0,0,0-1.11-4.28,3.93,3.93,0,0,0-6.49,0,7.8,7.8,0,0,0-1.09,4.28Z"/><path class="cls-47" d="M952.32,272.77v-1.93h5.13l.29,2.38a5.71,5.71,0,0,1,1.71-2,4,4,0,0,1,2.34-.71,6.09,6.09,0,0,1,.72,0,4.48,4.48,0,0,1,.57.12l-.39,2.77-1.7-.09a3.37,3.37,0,0,0-2,.55,3.56,3.56,0,0,0-1.24,1.55v9.4l2.46.42v1.91h-7.91v-1.91l2.46-.42v-11.7Z"/><path class="cls-47" d="M975.82,287.22c-.09-.44-.16-.84-.21-1.19s-.08-.71-.1-1.06a7.43,7.43,0,0,1-2.16,1.84,5.58,5.58,0,0,1-2.76.73,5.48,5.48,0,0,1-3.89-1.25,4.57,4.57,0,0,1-1.34-3.52,4.07,4.07,0,0,1,1.89-3.59,9.11,9.11,0,0,1,5.17-1.27h3.07V276a2.93,2.93,0,0,0-.91-2.27,3.58,3.58,0,0,0-2.53-.84,6.25,6.25,0,0,0-2,.28,4,4,0,0,0-1.39.79l-.31,1.73h-2.3v-3.18a8.71,8.71,0,0,1,2.71-1.43,10.62,10.62,0,0,1,3.45-.54,6.92,6.92,0,0,1,4.51,1.42,5,5,0,0,1,1.72,4.08v7.88c0,.21,0,.42,0,.62s0,.41,0,.61l1.21.16v1.91ZM971,285a5.38,5.38,0,0,0,2.71-.71,4.37,4.37,0,0,0,1.75-1.71v-2.69h-3.18a4.59,4.59,0,0,0-2.9.84,2.55,2.55,0,0,0-1.06,2.06,2,2,0,0,0,.66,1.64A3.06,3.06,0,0,0,971,285Z"/><path class="cls-47" d="M981.62,285.31l2.47-.42v-11.7l-2.47-.42v-1.93h5.15L987,273a5.4,5.4,0,0,1,2-1.8,6.17,6.17,0,0,1,2.88-.64,5,5,0,0,1,2.81.76,4.54,4.54,0,0,1,1.76,2.27,6,6,0,0,1,2-2.21,5.34,5.34,0,0,1,3-.82,4.91,4.91,0,0,1,4,1.72,7.89,7.89,0,0,1,1.45,5.17v7.46l2.47.42v1.91h-7.93v-1.91l2.46-.42V277.4A5.47,5.47,0,0,0,1003,274a3,3,0,0,0-2.47-1,3.14,3.14,0,0,0-2.5,1.1,4.76,4.76,0,0,0-1.1,2.76v8.07l2.47.42v1.91h-7.92v-1.91l2.47-.42V277.4a5.36,5.36,0,0,0-.86-3.37,3,3,0,0,0-2.47-1.07,4.11,4.11,0,0,0-2.24.56,3.61,3.61,0,0,0-1.35,1.58v9.79l2.47.42v1.91h-7.92Z"/><path class="cls-47" d="M1011.36,278.88a9,9,0,0,1,2-6,7.28,7.28,0,0,1,10.71,0,9,9,0,0,1,2,6v.33a9,9,0,0,1-2,6,7.32,7.32,0,0,1-10.72,0,9,9,0,0,1-2-6Zm3,.33a7.77,7.77,0,0,0,1.09,4.3,3.95,3.95,0,0,0,6.49,0,7.69,7.69,0,0,0,1.11-4.3v-.33a7.72,7.72,0,0,0-1.11-4.28,3.63,3.63,0,0,0-3.25-1.71,3.58,3.58,0,0,0-3.24,1.71,7.8,7.8,0,0,0-1.09,4.28Z"/><path class="cls-47" d="M1041.28,276H1039l-.49-2a3.94,3.94,0,0,0-1.37-.82,5.2,5.2,0,0,0-1.87-.31,3.45,3.45,0,0,0-2.36.69,2.21,2.21,0,0,0-.77,1.68,1.85,1.85,0,0,0,.68,1.53,6.9,6.9,0,0,0,2.77,1,12.07,12.07,0,0,1,4.62,1.81,3.66,3.66,0,0,1,1.51,3.07,4.24,4.24,0,0,1-1.76,3.52,7.4,7.4,0,0,1-4.61,1.35,11.94,11.94,0,0,1-3.35-.43,9.12,9.12,0,0,1-2.65-1.25v-3.74h2.24l.56,2.2a3.11,3.11,0,0,0,1.4.68,7.79,7.79,0,0,0,1.81.21,4.28,4.28,0,0,0,2.49-.64,2,2,0,0,0,.9-1.69,2,2,0,0,0-.75-1.62,7.08,7.08,0,0,0-2.84-1.11,11.82,11.82,0,0,1-4.5-1.77,3.59,3.59,0,0,1-1.51-3,4.28,4.28,0,0,1,1.7-3.4,6.72,6.72,0,0,1,4.43-1.41,10.58,10.58,0,0,1,3.35.49,6.9,6.9,0,0,1,2.46,1.34Z"/><path class="cls-47" d="M1047.3,286.5a6.88,6.88,0,0,1-.57,2.72,6.6,6.6,0,0,1-1.55,2.26l-1.07-.79a8.28,8.28,0,0,0,1.05-2,6.87,6.87,0,0,0,.34-2.18v-2.15h1.8Z"/><path class="cls-47" d="M558.82,303.85V308h3.61v1.49h-3.61V320.2a3.49,3.49,0,0,0,.59,2.28,1.92,1.92,0,0,0,1.55.67,7.81,7.81,0,0,0,.85,0c.28,0,.6-.07,1-.13l.28,1.35a4.79,4.79,0,0,1-1.11.3,8.15,8.15,0,0,1-1.3.11,3.39,3.39,0,0,1-2.69-1.09,5.15,5.15,0,0,1-1-3.45V309.53h-2.81V308H557v-4.19Z"/><path class="cls-47" d="M577.06,324.42c-.12-.55-.2-1-.25-1.44a9.87,9.87,0,0,1-.08-1.22,7.07,7.07,0,0,1-2.42,2.13,6.82,6.82,0,0,1-3.41.85,5.21,5.21,0,0,1-3.72-1.24,4.4,4.4,0,0,1-1.32-3.36,4.13,4.13,0,0,1,2-3.6,9.23,9.23,0,0,1,5.29-1.34h3.62V313a3.52,3.52,0,0,0-1.13-2.76,4.61,4.61,0,0,0-3.15-1,7.84,7.84,0,0,0-2.49.37,5.66,5.66,0,0,0-1.89,1l-.15,2.2h-1.5l0-3.15a9.15,9.15,0,0,1,2.71-1.42,10.14,10.14,0,0,1,3.37-.55,6.57,6.57,0,0,1,4.36,1.38,4.85,4.85,0,0,1,1.65,3.95v8.05c0,.34,0,.66,0,1a8.54,8.54,0,0,0,.1.9l1.64.11v1.33Zm.65-22.69a3,3,0,0,1-.83,2.21,2.71,2.71,0,0,1-2.07.88,4,4,0,0,1-2.29-.83,3.6,3.6,0,0,0-2-.84,1.59,1.59,0,0,0-1.2.53,2,2,0,0,0-.48,1.35l-1.2-.27a3.12,3.12,0,0,1,.81-2.19,2.68,2.68,0,0,1,2.07-.88,4.09,4.09,0,0,1,2.23.83,4,4,0,0,0,2,.83,1.56,1.56,0,0,0,1.19-.54,2,2,0,0,0,.5-1.38Zm-6.61,21.4a6.62,6.62,0,0,0,3.47-.9,5.35,5.35,0,0,0,2.16-2.35V316.6h-3.65a6.81,6.81,0,0,0-3.94,1,3.05,3.05,0,0,0-1.48,2.58,2.71,2.71,0,0,0,.92,2.13A3.67,3.67,0,0,0,571.1,323.13Z"/><path class="cls-47" d="M582.86,316a8.8,8.8,0,0,1,2-5.93,7.12,7.12,0,0,1,10.52,0,8.75,8.75,0,0,1,2,5.93v.5a8.81,8.81,0,0,1-2,5.94,6.55,6.55,0,0,1-5.24,2.31,6.64,6.64,0,0,1-5.29-2.31,8.81,8.81,0,0,1-2-5.94Zm1.82.5a7.78,7.78,0,0,0,1.44,4.78,5.06,5.06,0,0,0,8,0,7.78,7.78,0,0,0,1.44-4.78V316a7.77,7.77,0,0,0-1.44-4.75,4.71,4.71,0,0,0-4-1.95,4.65,4.65,0,0,0-4,1.95,7.77,7.77,0,0,0-1.44,4.75Z"/><path class="cls-47" d="M607.72,323.09l2.46-.2v-13.3l-2.46-.2V308H612v14.85l2.47.2v1.33h-6.73ZM612,303.35h-1.8v-2.54H612Z"/><path class="cls-47" d="M617.1,309.39V308h4.07l.17,2.71a5.62,5.62,0,0,1,2.1-2.22,6,6,0,0,1,3.14-.79,5.18,5.18,0,0,1,3.13.92,5,5,0,0,1,1.8,2.79,6.36,6.36,0,0,1,2.11-2.72,5.57,5.57,0,0,1,3.34-1,5,5,0,0,1,4,1.74q1.43,1.74,1.43,5.39v8l2.47.21v1.33h-6.77v-1.33l2.47-.21v-8c0-2-.36-3.44-1.07-4.28a3.69,3.69,0,0,0-3-1.24,4,4,0,0,0-3.27,1.34,6.5,6.5,0,0,0-1.41,3.44,1.77,1.77,0,0,0,0,.23v8.56l2.47.2v1.33h-6.75v-1.33l2.47-.2v-8.05a6.55,6.55,0,0,0-1.09-4.25,3.68,3.68,0,0,0-3-1.27,4.51,4.51,0,0,0-3.06,1,5.2,5.2,0,0,0-1.59,2.63v10l2.47.2v1.33H617.1v-1.33l2.47-.2v-13.3Z"/><path class="cls-47" d="M646.66,309.39V308h4l.23,2.55a5.72,5.72,0,0,1,5.16-2.85,5.36,5.36,0,0,1,4.62,2.35,10.69,10.69,0,0,1,1.66,6.28v.32a9.44,9.44,0,0,1-1.66,5.86,5.45,5.45,0,0,1-4.59,2.19,6.59,6.59,0,0,1-3-.66,5.58,5.58,0,0,1-2.11-1.87v7l2.47.2v1.35h-6.74v-1.35l2.47-.2V309.59Zm13.84,7a9.47,9.47,0,0,0-1.24-5.09,4,4,0,0,0-3.64-2,4.76,4.76,0,0,0-3,.87,5.32,5.32,0,0,0-1.72,2.26v7.87a5,5,0,0,0,1.79,2.12,5.28,5.28,0,0,0,2.93.77,4.08,4.08,0,0,0,3.61-1.79,8.12,8.12,0,0,0,1.24-4.73Z"/><path class="cls-47" d="M665.27,316a8.8,8.8,0,0,1,2-5.93,7.12,7.12,0,0,1,10.52,0,8.8,8.8,0,0,1,2,5.93v.5a8.85,8.85,0,0,1-2,5.94,7.16,7.16,0,0,1-10.53,0,8.81,8.81,0,0,1-2-5.94Zm1.81.5a7.78,7.78,0,0,0,1.44,4.78,4.7,4.7,0,0,0,4,1.94,4.65,4.65,0,0,0,4-1.94,7.78,7.78,0,0,0,1.44-4.78V316a7.77,7.77,0,0,0-1.45-4.75,5,5,0,0,0-8,0,7.77,7.77,0,0,0-1.44,4.75Z"/><path class="cls-47" d="M686.62,308l.23,2.73V311a5.9,5.9,0,0,1,1.9-2.36,4.79,4.79,0,0,1,2.85-.86,4.94,4.94,0,0,1,.68.05l.54.12-.25,1.69-1.34-.09a4.11,4.11,0,0,0-2.81,1,5.28,5.28,0,0,0-1.57,2.65v9.77l2.47.2v1.33h-6.74v-1.33l2.47-.2v-13.3l-2.47-.2V308h4Z"/><path class="cls-47" d="M699.81,303.85V308h3.6v1.49h-3.6V320.2a3.49,3.49,0,0,0,.58,2.28,2,2,0,0,0,1.55.67,8.12,8.12,0,0,0,.86,0c.27,0,.6-.07,1-.13l.27,1.35a4.7,4.7,0,0,1-1.1.3,8.27,8.27,0,0,1-1.31.11,3.37,3.37,0,0,1-2.68-1.09,5.15,5.15,0,0,1-1-3.45V309.53h-2.82V308H698v-4.19Z"/><path class="cls-47" d="M718.05,324.42c-.12-.55-.21-1-.26-1.44a9.87,9.87,0,0,1-.08-1.22,7.07,7.07,0,0,1-2.42,2.13,6.78,6.78,0,0,1-3.4.85,5.22,5.22,0,0,1-3.73-1.24,4.43,4.43,0,0,1-1.31-3.36,4.14,4.14,0,0,1,1.95-3.6,9.26,9.26,0,0,1,5.3-1.34h3.61V313a3.51,3.51,0,0,0-1.12-2.76,4.64,4.64,0,0,0-3.16-1,7.84,7.84,0,0,0-2.49.37,5.51,5.51,0,0,0-1.88,1l-.15,2.2h-1.5v-3.15a9.21,9.21,0,0,1,2.72-1.42,10.09,10.09,0,0,1,3.37-.55,6.58,6.58,0,0,1,4.36,1.38,4.85,4.85,0,0,1,1.65,3.95v8.05c0,.34,0,.66,0,1a6.52,6.52,0,0,0,.1.9l1.63.11v1.33Zm-6-1.29a6.6,6.6,0,0,0,3.47-.9,5.35,5.35,0,0,0,2.16-2.35V316.6h-3.64a6.84,6.84,0,0,0-4,1,3,3,0,0,0-1.47,2.58,2.7,2.7,0,0,0,.91,2.13A3.67,3.67,0,0,0,712.08,323.13Z"/><path class="cls-47" d="M723.51,323.09l2.47-.2v-13.3l-2.47-.2V308h4.07l.17,2.86a5.68,5.68,0,0,1,5.3-3.16,5,5,0,0,1,4.06,1.63,7.74,7.74,0,0,1,1.39,5.08v8.44l2.46.2v1.33h-6.75v-1.33l2.47-.2v-8.43a5.93,5.93,0,0,0-1-4,3.81,3.81,0,0,0-3-1.16,4.68,4.68,0,0,0-3.11,1A5.58,5.58,0,0,0,727.8,313v9.9l2.46.2v1.33h-6.75Z"/><path class="cls-47" d="M748,303.85V308h3.61v1.49H748V320.2a3.49,3.49,0,0,0,.59,2.28,1.92,1.92,0,0,0,1.55.67,7.81,7.81,0,0,0,.85,0c.28,0,.6-.07,1-.13l.28,1.35a4.79,4.79,0,0,1-1.11.3,8.15,8.15,0,0,1-1.3.11,3.39,3.39,0,0,1-2.69-1.09,5.15,5.15,0,0,1-1-3.45V309.53h-2.81V308h2.81v-4.19Z"/><path class="cls-47" d="M762.13,324.74a6.57,6.57,0,0,1-5.12-2.26,8.32,8.32,0,0,1-2-5.76v-.84a8.55,8.55,0,0,1,2-5.82,6.25,6.25,0,0,1,4.88-2.32,6.08,6.08,0,0,1,4.74,1.91,7.29,7.29,0,0,1,1.73,5.08v1.55H756.78v.44a7.24,7.24,0,0,0,1.48,4.62,4.68,4.68,0,0,0,3.87,1.87,7.88,7.88,0,0,0,2.87-.47,5.64,5.64,0,0,0,2-1.35l.77,1.25a6.66,6.66,0,0,1-2.33,1.53A9,9,0,0,1,762.13,324.74Zm-.25-15.45a4.33,4.33,0,0,0-3.36,1.53,6.55,6.55,0,0,0-1.6,3.85l0,.08h9.6v-.46a5.23,5.23,0,0,0-1.26-3.57A4.28,4.28,0,0,0,761.88,309.29Z"/><path class="cls-47" d="M778.64,309.39V308h4l.23,2.55a5.9,5.9,0,0,1,2.13-2.11,6,6,0,0,1,3-.74,5.36,5.36,0,0,1,4.62,2.35,10.69,10.69,0,0,1,1.66,6.28v.32a9.44,9.44,0,0,1-1.66,5.86,5.45,5.45,0,0,1-4.59,2.19,6.56,6.56,0,0,1-3-.66,5.51,5.51,0,0,1-2.11-1.87v7l2.47.2v1.35h-6.74v-1.35l2.47-.2V309.59Zm13.84,7a9.47,9.47,0,0,0-1.24-5.09,4,4,0,0,0-3.64-2,4.76,4.76,0,0,0-3,.87,5.32,5.32,0,0,0-1.72,2.26v7.87a5,5,0,0,0,1.79,2.12,5.28,5.28,0,0,0,2.93.77,4.08,4.08,0,0,0,3.61-1.79,8.2,8.2,0,0,0,1.24-4.73Z"/><path class="cls-47" d="M808.55,324.42c-.12-.55-.21-1-.26-1.44a9.87,9.87,0,0,1-.07-1.22,7.17,7.17,0,0,1-2.42,2.13,6.82,6.82,0,0,1-3.41.85,5.21,5.21,0,0,1-3.72-1.24,4.4,4.4,0,0,1-1.32-3.36,4.14,4.14,0,0,1,1.95-3.6,9.26,9.26,0,0,1,5.3-1.34h3.62V313a3.52,3.52,0,0,0-1.13-2.76,4.62,4.62,0,0,0-3.16-1,7.82,7.82,0,0,0-2.48.37,5.56,5.56,0,0,0-1.89,1l-.15,2.2h-1.5l0-3.15a9.15,9.15,0,0,1,2.71-1.42,10.14,10.14,0,0,1,3.37-.55,6.57,6.57,0,0,1,4.36,1.38,4.85,4.85,0,0,1,1.65,3.95v8.05c0,.34,0,.66,0,1a8.54,8.54,0,0,0,.1.9l1.64.11v1.33Zm-6-1.29a6.56,6.56,0,0,0,3.46-.9,5.43,5.43,0,0,0,2.17-2.35V316.6h-3.65a6.81,6.81,0,0,0-3.94,1,3,3,0,0,0-1.48,2.58,2.71,2.71,0,0,0,.92,2.13A3.67,3.67,0,0,0,802.59,323.13Z"/><path class="cls-47" d="M818.27,308l.23,2.73V311a5.74,5.74,0,0,1,1.9-2.36,5,5,0,0,1,3.52-.81l.54.12-.24,1.69-1.35-.09a4.13,4.13,0,0,0-2.81,1,5.26,5.26,0,0,0-1.56,2.65v9.77l2.46.2v1.33h-6.73v-1.33l2.47-.2v-13.3l-2.47-.2V308h4Z"/><path class="cls-47" d="M838.11,324.42c-.12-.55-.2-1-.25-1.44a9.87,9.87,0,0,1-.08-1.22,7.07,7.07,0,0,1-2.42,2.13,6.82,6.82,0,0,1-3.41.85,5.21,5.21,0,0,1-3.72-1.24,4.4,4.4,0,0,1-1.32-3.36,4.13,4.13,0,0,1,2-3.6,9.23,9.23,0,0,1,5.29-1.34h3.62V313a3.48,3.48,0,0,0-1.13-2.76,4.61,4.61,0,0,0-3.15-1,7.84,7.84,0,0,0-2.49.37,5.66,5.66,0,0,0-1.89,1l-.15,2.2h-1.5l0-3.15a9.21,9.21,0,0,1,2.72-1.42,10,10,0,0,1,3.36-.55,6.57,6.57,0,0,1,4.36,1.38,4.85,4.85,0,0,1,1.65,3.95v8.05q0,.51,0,1a6.53,6.53,0,0,0,.09.9l1.64.11v1.33Zm-6-1.29a6.62,6.62,0,0,0,3.47-.9,5.35,5.35,0,0,0,2.16-2.35V316.6h-3.65a6.81,6.81,0,0,0-3.94,1,3.05,3.05,0,0,0-1.48,2.58,2.71,2.71,0,0,0,.92,2.13A3.67,3.67,0,0,0,832.15,323.13Z"/><path class="cls-47" d="M862.76,324.42c-.12-.55-.21-1-.26-1.44a9.87,9.87,0,0,1-.08-1.22,7.07,7.07,0,0,1-2.42,2.13,6.78,6.78,0,0,1-3.4.85,5.22,5.22,0,0,1-3.73-1.24,4.43,4.43,0,0,1-1.31-3.36,4.14,4.14,0,0,1,2-3.6,9.26,9.26,0,0,1,5.3-1.34h3.61V313a3.51,3.51,0,0,0-1.12-2.76,4.66,4.66,0,0,0-3.16-1,7.84,7.84,0,0,0-2.49.37,5.51,5.51,0,0,0-1.88,1l-.16,2.2h-1.49v-3.15a9.21,9.21,0,0,1,2.72-1.42,10.09,10.09,0,0,1,3.37-.55,6.58,6.58,0,0,1,4.36,1.38,4.88,4.88,0,0,1,1.65,3.95v8.05c0,.34,0,.66,0,1a6.52,6.52,0,0,0,.1.9l1.63.11v1.33Zm-6-1.29a6.62,6.62,0,0,0,3.47-.9,5.35,5.35,0,0,0,2.16-2.35V316.6h-3.64a6.84,6.84,0,0,0-3.95,1,3,3,0,0,0-1.47,2.58,2.7,2.7,0,0,0,.91,2.13A3.67,3.67,0,0,0,856.79,323.13Z"/><path class="cls-47" d="M875.76,323.09l2.47-.2v-13.3l-2.47-.2V308h4.07l.17,2.86a5.84,5.84,0,0,1,2.12-2.33,6,6,0,0,1,3.18-.83,5,5,0,0,1,4.05,1.63c.93,1.08,1.4,2.78,1.4,5.08v8.44l2.46.2v1.33h-6.75v-1.33l2.47-.2v-8.43a5.93,5.93,0,0,0-1-4,3.82,3.82,0,0,0-3-1.16,4.68,4.68,0,0,0-3.11,1A5.6,5.6,0,0,0,880,313v9.9l2.47.2v1.33h-6.75Z"/><path class="cls-47" d="M895.91,316a8.8,8.8,0,0,1,2-5.93,7.12,7.12,0,0,1,10.52,0,8.8,8.8,0,0,1,2,5.93v.5a8.85,8.85,0,0,1-2,5.94,7.16,7.16,0,0,1-10.53,0,8.81,8.81,0,0,1-2-5.94Zm1.81.5a7.78,7.78,0,0,0,1.44,4.78,4.7,4.7,0,0,0,4,1.94,4.65,4.65,0,0,0,4-1.94,7.78,7.78,0,0,0,1.44-4.78V316a7.77,7.77,0,0,0-1.45-4.75,5,5,0,0,0-8,0,7.77,7.77,0,0,0-1.44,4.75Z"/><path class="cls-47" d="M925.23,313.1h-1.49l-.21-2.32a4.59,4.59,0,0,0-1.72-1.1,6.71,6.71,0,0,0-2.38-.39,4.47,4.47,0,0,0-3,.85,2.58,2.58,0,0,0-1,2,2.37,2.37,0,0,0,.86,1.87,8.21,8.21,0,0,0,3.41,1.3,11.3,11.3,0,0,1,4.38,1.78,3.72,3.72,0,0,1,1.45,3.07,4,4,0,0,1-1.66,3.31,7,7,0,0,1-4.38,1.26,10.22,10.22,0,0,1-3.31-.51,7.88,7.88,0,0,1-2.58-1.43v-3.3h1.47l.26,2.33a4.14,4.14,0,0,0,1.84,1.06,8.44,8.44,0,0,0,2.32.32,5,5,0,0,0,3.1-.86,2.56,2.56,0,0,0,1.14-2.09,2.64,2.64,0,0,0-1-2,7.59,7.59,0,0,0-3.41-1.41,11.6,11.6,0,0,1-4.34-1.69,3.45,3.45,0,0,1-1.41-2.94,3.94,3.94,0,0,1,1.59-3.17,6.38,6.38,0,0,1,4.19-1.3,9.58,9.58,0,0,1,3.29.55,6.69,6.69,0,0,1,2.43,1.5Z"/><path class="cls-47" d="M940.74,313.1h-1.48l-.21-2.32a4.67,4.67,0,0,0-1.72-1.1,6.77,6.77,0,0,0-2.39-.39,4.44,4.44,0,0,0-3,.85,2.58,2.58,0,0,0-1,2,2.36,2.36,0,0,0,.85,1.87,8.21,8.21,0,0,0,3.42,1.3,11.32,11.32,0,0,1,4.37,1.78,3.69,3.69,0,0,1,1.45,3.07,4,4,0,0,1-1.65,3.31,7.07,7.07,0,0,1-4.38,1.26,10.13,10.13,0,0,1-3.31-.51,7.69,7.69,0,0,1-2.58-1.43v-3.3h1.47l.25,2.33a4.25,4.25,0,0,0,1.84,1.06,8.51,8.51,0,0,0,2.33.32,5,5,0,0,0,3.1-.86,2.57,2.57,0,0,0,1.13-2.09,2.63,2.63,0,0,0-.94-2,7.59,7.59,0,0,0-3.42-1.41,11.62,11.62,0,0,1-4.33-1.69,3.44,3.44,0,0,1-1.42-2.94,3.94,3.94,0,0,1,1.59-3.17,6.4,6.4,0,0,1,4.19-1.3,9.68,9.68,0,0,1,3.3.55,6.69,6.69,0,0,1,2.43,1.5Z"/><path class="cls-47" d="M955.68,324.42c-.12-.55-.21-1-.26-1.44a9.87,9.87,0,0,1-.07-1.22,7.17,7.17,0,0,1-2.42,2.13,6.82,6.82,0,0,1-3.41.85,5.21,5.21,0,0,1-3.72-1.24,4.4,4.4,0,0,1-1.32-3.36,4.14,4.14,0,0,1,1.95-3.6,9.26,9.26,0,0,1,5.3-1.34h3.62V313a3.52,3.52,0,0,0-1.13-2.76,4.62,4.62,0,0,0-3.16-1,7.82,7.82,0,0,0-2.48.37,5.56,5.56,0,0,0-1.89,1l-.15,2.2H945l0-3.15a9.15,9.15,0,0,1,2.71-1.42,10.14,10.14,0,0,1,3.37-.55,6.57,6.57,0,0,1,4.36,1.38,4.85,4.85,0,0,1,1.65,3.95v8.05c0,.34,0,.66,0,1a8.54,8.54,0,0,0,.1.9l1.64.11v1.33Zm-6-1.29a6.56,6.56,0,0,0,3.46-.9,5.43,5.43,0,0,0,2.17-2.35V316.6H951.7a6.81,6.81,0,0,0-3.94,1,3,3,0,0,0-1.48,2.58,2.71,2.71,0,0,0,.92,2.13A3.67,3.67,0,0,0,949.72,323.13Z"/><path class="cls-47" d="M973.77,309.39l-2,.15,4.08,10.78.53,1.92h.09l.58-1.92,4-10.78-2-.15V308h5.51v1.35l-1.6.14-5.78,14.89h-1.46l-5.79-14.89-1.61-.14V308h5.51Z"/><path class="cls-47" d="M986.38,323.09l2.47-.2v-13.3l-2.47-.2V308h4.27v14.85l2.46.2v1.33h-6.73Zm4.27-19.74h-1.8v-2.54h1.8Z"/><path class="cls-47" d="M1007.54,322.06a5.61,5.61,0,0,1-2.1,2,6.22,6.22,0,0,1-3,.7,5.44,5.44,0,0,1-4.6-2.2,9.49,9.49,0,0,1-1.65-5.85v-.32a10.76,10.76,0,0,1,1.65-6.28,5.37,5.37,0,0,1,4.63-2.35,5.6,5.6,0,0,1,5,2.77v-8.16l-2.46-.19v-1.35h4.28v22.08l2.47.2v1.33h-4.09ZM998,316.69a8.23,8.23,0,0,0,1.19,4.72,4,4,0,0,0,3.58,1.76,5.14,5.14,0,0,0,2.91-.79,5.25,5.25,0,0,0,1.82-2.17v-7.75a5.7,5.7,0,0,0-1.74-2.27,4.77,4.77,0,0,0-3-.87,3.94,3.94,0,0,0-3.6,2,9.61,9.61,0,0,0-1.2,5.09Z"/><path class="cls-47" d="M1025.87,324.42c-.12-.55-.21-1-.26-1.44a9.87,9.87,0,0,1-.07-1.22,7.26,7.26,0,0,1-2.42,2.13,6.82,6.82,0,0,1-3.41.85,5.18,5.18,0,0,1-3.72-1.24,4.4,4.4,0,0,1-1.32-3.36,4.14,4.14,0,0,1,2-3.6,9.26,9.26,0,0,1,5.3-1.34h3.62V313a3.52,3.52,0,0,0-1.13-2.76,4.62,4.62,0,0,0-3.16-1,7.84,7.84,0,0,0-2.49.37,5.51,5.51,0,0,0-1.88,1l-.15,2.2h-1.5v-3.15a9.33,9.33,0,0,1,2.72-1.42,10.14,10.14,0,0,1,3.37-.55,6.57,6.57,0,0,1,4.36,1.38,4.85,4.85,0,0,1,1.65,3.95v8.05c0,.34,0,.66,0,1a8.54,8.54,0,0,0,.1.9l1.63.11v1.33Zm-6-1.29a6.59,6.59,0,0,0,3.46-.9,5.43,5.43,0,0,0,2.17-2.35V316.6h-3.65a6.79,6.79,0,0,0-3.94,1,3,3,0,0,0-1.48,2.58,2.71,2.71,0,0,0,.92,2.13A3.67,3.67,0,0,0,1019.91,323.13Z"/><path class="cls-47" d="M554.4,346.73v-1.49h2.71v-2.39a5.46,5.46,0,0,1,1.24-3.81,4.49,4.49,0,0,1,3.47-1.35,5.77,5.77,0,0,1,1,.08,10.08,10.08,0,0,1,1,.21l-.22,1.5c-.25-.06-.49-.11-.74-.15a7.85,7.85,0,0,0-.9-.05,2.81,2.81,0,0,0-2.28.94,3.93,3.93,0,0,0-.79,2.63v2.39h3.91v1.49h-3.91v13.36l2.47.2v1.33h-6.75v-1.33l2.46-.2V346.73Z"/><path class="cls-47" d="M576.94,361.62c-.12-.55-.2-1-.26-1.44a9.87,9.87,0,0,1-.07-1.22,7.27,7.27,0,0,1-2.42,2.13,6.82,6.82,0,0,1-3.41.85,5.21,5.21,0,0,1-3.72-1.24,4.4,4.4,0,0,1-1.32-3.36,4.16,4.16,0,0,1,2-3.61,9.36,9.36,0,0,1,5.3-1.33h3.62v-2.16a3.52,3.52,0,0,0-1.13-2.76,4.61,4.61,0,0,0-3.15-1,7.84,7.84,0,0,0-2.49.38,5.56,5.56,0,0,0-1.89,1l-.15,2.2h-1.5l0-3.15a9.15,9.15,0,0,1,2.71-1.42,10.14,10.14,0,0,1,3.37-.55,6.57,6.57,0,0,1,4.36,1.38,4.85,4.85,0,0,1,1.65,3.95v8.05c0,.33,0,.65,0,1a8.54,8.54,0,0,0,.1.9l1.64.11v1.33Zm-6-1.29a6.56,6.56,0,0,0,3.46-.9,5.37,5.37,0,0,0,2.17-2.35v-3.29H573a6.81,6.81,0,0,0-3.94,1,3,3,0,0,0-1.48,2.58,2.68,2.68,0,0,0,.92,2.12A3.67,3.67,0,0,0,571,360.33Z"/><path class="cls-47" d="M582.35,346.59v-1.35h4.07l.16,2.71a5.72,5.72,0,0,1,2.11-2.22,5.94,5.94,0,0,1,3.13-.79,5.21,5.21,0,0,1,3.14.92,5.13,5.13,0,0,1,1.8,2.79,6.29,6.29,0,0,1,2.11-2.72,5.53,5.53,0,0,1,3.34-1,4.93,4.93,0,0,1,4,1.74q1.44,1.74,1.44,5.39v8l2.46.21v1.33h-6.76v-1.33l2.46-.21v-8c0-2-.35-3.44-1.06-4.28a3.72,3.72,0,0,0-3-1.25,4,4,0,0,0-3.26,1.35,6.59,6.59,0,0,0-1.42,3.44c0,.08,0,.15,0,.23a2.1,2.1,0,0,1,0,.27v8.29l2.47.2v1.33h-6.75v-1.33l2.46-.2v-8a6.62,6.62,0,0,0-1.08-4.25,3.69,3.69,0,0,0-3-1.28,4.54,4.54,0,0,0-3.07,1,5.19,5.19,0,0,0-1.58,2.63v10l2.47.2v1.33h-6.75v-1.33l2.46-.2v-13.3Z"/><path class="cls-47" d="M612.27,360.29l2.47-.2v-13.3l-2.47-.2v-1.35h4.27v14.85l2.47.2v1.33h-6.74Zm4.27-19.74h-1.8V338h1.8Z"/><path class="cls-47" d="M621.69,339.36V338H626v22.08l2.46.2v1.33h-6.73v-1.33l2.46-.2V339.55Z"/><path class="cls-47" d="M631.16,360.29l2.47-.2v-13.3l-2.47-.2v-1.35h4.27v14.85l2.47.2v1.33h-6.74Zm4.27-19.74h-1.8V338h1.8Z"/><path class="cls-47" d="M652.25,361.62c-.12-.55-.21-1-.26-1.44a9.87,9.87,0,0,1-.07-1.22,7.31,7.31,0,0,1-2.43,2.13,6.78,6.78,0,0,1-3.4.85,5.22,5.22,0,0,1-3.73-1.24,4.43,4.43,0,0,1-1.31-3.36,4.16,4.16,0,0,1,2-3.61,9.34,9.34,0,0,1,5.3-1.33h3.62v-2.16a3.52,3.52,0,0,0-1.13-2.76,4.64,4.64,0,0,0-3.16-1,7.84,7.84,0,0,0-2.49.38,5.51,5.51,0,0,0-1.88,1l-.15,2.2h-1.5v-3.15a9.21,9.21,0,0,1,2.72-1.42,10.09,10.09,0,0,1,3.37-.55,6.58,6.58,0,0,1,4.36,1.38,4.85,4.85,0,0,1,1.65,3.95v8.05c0,.33,0,.65,0,1a6.52,6.52,0,0,0,.1.9l1.63.11v1.33Zm-6-1.29a6.6,6.6,0,0,0,3.47-.9,5.43,5.43,0,0,0,2.17-2.35v-3.29h-3.65a6.84,6.84,0,0,0-3.95,1,3,3,0,0,0-1.47,2.58,2.67,2.67,0,0,0,.91,2.12A3.67,3.67,0,0,0,646.28,360.33Z"/><path class="cls-47" d="M662,345.24l.22,2.73v.19a5.9,5.9,0,0,1,1.9-2.36,4.82,4.82,0,0,1,2.86-.86,4.91,4.91,0,0,1,.67.05l.54.12-.24,1.69-1.35-.09a4.11,4.11,0,0,0-2.81,1,5.36,5.36,0,0,0-1.57,2.64v9.78l2.47.2v1.33h-6.74v-1.33l2.47-.2v-13.3l-2.47-.2v-1.35H662Z"/><path class="cls-47" d="M685.26,361.94a6.62,6.62,0,0,1-5.12-2.26,8.31,8.31,0,0,1-2-5.76v-.84a8.5,8.5,0,0,1,2-5.82,6.22,6.22,0,0,1,4.88-2.32,6.08,6.08,0,0,1,4.74,1.91,7.27,7.27,0,0,1,1.72,5.08v1.55H679.92v.44a7.26,7.26,0,0,0,1.47,4.62,4.7,4.7,0,0,0,3.87,1.87,8,8,0,0,0,2.88-.47,5.6,5.6,0,0,0,2-1.35l.77,1.24a6.45,6.45,0,0,1-2.33,1.54A9,9,0,0,1,685.26,361.94ZM685,346.48a4.36,4.36,0,0,0-3.37,1.54,6.65,6.65,0,0,0-1.6,3.85l0,.08h9.6v-.46a5.23,5.23,0,0,0-1.26-3.57A4.27,4.27,0,0,0,685,346.48Z"/><path class="cls-47" d="M713.64,359.26a5.53,5.53,0,0,1-2.1,2,6.22,6.22,0,0,1-3,.7,5.4,5.4,0,0,1-4.59-2.2,9.43,9.43,0,0,1-1.66-5.85v-.32a10.69,10.69,0,0,1,1.66-6.28,5.34,5.34,0,0,1,4.62-2.35,5.63,5.63,0,0,1,5.06,2.77v-8.16l-2.47-.19V338h4.28v22.08l2.47.2v1.33h-4.09Zm-9.55-5.37a8.33,8.33,0,0,0,1.19,4.72,4,4,0,0,0,3.58,1.76,5.14,5.14,0,0,0,2.91-.79,5.35,5.35,0,0,0,1.83-2.17v-7.75a5.74,5.74,0,0,0-1.75-2.27,4.76,4.76,0,0,0-3-.88,4,4,0,0,0-3.6,2,9.67,9.67,0,0,0-1.2,5.1Z"/><path class="cls-47" d="M727.89,361.94a6.6,6.6,0,0,1-5.12-2.26,8.32,8.32,0,0,1-2-5.76v-.84a8.55,8.55,0,0,1,2-5.82,6.25,6.25,0,0,1,4.88-2.32,6.08,6.08,0,0,1,4.74,1.91,7.28,7.28,0,0,1,1.73,5.08v1.55H722.54v.44a7.21,7.21,0,0,0,1.48,4.62,4.68,4.68,0,0,0,3.87,1.87,7.91,7.91,0,0,0,2.87-.47,5.52,5.52,0,0,0,2-1.35l.78,1.24a6.63,6.63,0,0,1-2.33,1.54A9,9,0,0,1,727.89,361.94Zm-.25-15.46a4.34,4.34,0,0,0-3.36,1.54,6.53,6.53,0,0,0-1.6,3.85l0,.08h9.6v-.46a5.23,5.23,0,0,0-1.26-3.57A4.29,4.29,0,0,0,727.64,346.48Z"/><path class="cls-47" d="M744.55,360.29l2.47-.2v-13.3l-2.47-.2v-1.35h4.07l.17,2.86a5.73,5.73,0,0,1,2.13-2.33,5.92,5.92,0,0,1,3.17-.83,5,5,0,0,1,4,1.63c.93,1.08,1.4,2.78,1.4,5.08v8.44l2.46.2v1.33h-6.75v-1.33l2.47-.2v-8.43a5.93,5.93,0,0,0-1.05-4,3.81,3.81,0,0,0-3-1.17,4.69,4.69,0,0,0-3.11,1,5.58,5.58,0,0,0-1.73,2.67v9.9l2.46.2v1.33h-6.75Z"/><path class="cls-47" d="M764.7,353.19a8.8,8.8,0,0,1,2-5.93,7.12,7.12,0,0,1,10.52,0,8.8,8.8,0,0,1,2,5.93v.5a8.8,8.8,0,0,1-2,5.94,7.16,7.16,0,0,1-10.53,0,8.81,8.81,0,0,1-2-5.94Zm1.82.5a7.77,7.77,0,0,0,1.43,4.78,4.72,4.72,0,0,0,4,1.94,4.68,4.68,0,0,0,4-1.94,7.78,7.78,0,0,0,1.44-4.78v-.5a7.71,7.71,0,0,0-1.45-4.75,5,5,0,0,0-8,0,7.76,7.76,0,0,0-1.43,4.75Z"/><path class="cls-47" d="M794,350.3h-1.48l-.22-2.32a4.55,4.55,0,0,0-1.71-1.1,6.8,6.8,0,0,0-2.39-.4,4.44,4.44,0,0,0-3,.86,2.58,2.58,0,0,0-1,2,2.36,2.36,0,0,0,.85,1.87,8.21,8.21,0,0,0,3.41,1.3,11.3,11.3,0,0,1,4.38,1.78,3.68,3.68,0,0,1,1.45,3.07,3.94,3.94,0,0,1-1.66,3.3,7,7,0,0,1-4.38,1.27,10.22,10.22,0,0,1-3.31-.51,7.88,7.88,0,0,1-2.58-1.43v-3.3h1.47l.26,2.33a4.09,4.09,0,0,0,1.84,1.05,8.08,8.08,0,0,0,2.32.33,5.08,5.08,0,0,0,3.11-.86,2.57,2.57,0,0,0,1.13-2.09,2.64,2.64,0,0,0-.95-2,7.54,7.54,0,0,0-3.41-1.41,11.67,11.67,0,0,1-4.34-1.69,3.45,3.45,0,0,1-1.41-2.94,4,4,0,0,1,1.59-3.18,6.45,6.45,0,0,1,4.19-1.29,9.58,9.58,0,0,1,3.29.55,6.64,6.64,0,0,1,2.43,1.49Z"/><path class="cls-47" d="M809.53,350.3h-1.48l-.21-2.32a4.67,4.67,0,0,0-1.72-1.1,6.74,6.74,0,0,0-2.38-.4,4.47,4.47,0,0,0-3,.86,2.58,2.58,0,0,0-1,2,2.37,2.37,0,0,0,.86,1.87,8.15,8.15,0,0,0,3.41,1.3,11.18,11.18,0,0,1,4.37,1.78,3.68,3.68,0,0,1,1.46,3.07,4,4,0,0,1-1.66,3.3,7,7,0,0,1-4.38,1.27,10.17,10.17,0,0,1-3.31-.51,7.88,7.88,0,0,1-2.58-1.43v-3.3h1.47l.26,2.33a4.05,4.05,0,0,0,1.83,1.05,8.2,8.2,0,0,0,2.33.33,5,5,0,0,0,3.1-.86,2.56,2.56,0,0,0,1.14-2.09,2.64,2.64,0,0,0-1-2,7.59,7.59,0,0,0-3.41-1.41,11.6,11.6,0,0,1-4.34-1.69,3.45,3.45,0,0,1-1.41-2.94,4,4,0,0,1,1.58-3.18,6.46,6.46,0,0,1,4.2-1.29,9.58,9.58,0,0,1,3.29.55,6.81,6.81,0,0,1,2.43,1.49Z"/><path class="cls-47" d="M824.47,361.62c-.12-.55-.2-1-.25-1.44a9.87,9.87,0,0,1-.08-1.22,7.18,7.18,0,0,1-2.42,2.13,6.8,6.8,0,0,1-3.41.85,5.21,5.21,0,0,1-3.72-1.24,4.4,4.4,0,0,1-1.32-3.36,4.15,4.15,0,0,1,2-3.61,9.31,9.31,0,0,1,5.29-1.33h3.62v-2.16a3.48,3.48,0,0,0-1.13-2.76,4.61,4.61,0,0,0-3.15-1,7.84,7.84,0,0,0-2.49.38,5.66,5.66,0,0,0-1.89,1l-.15,2.2h-1.5l0-3.15a9.21,9.21,0,0,1,2.72-1.42,10,10,0,0,1,3.36-.55,6.57,6.57,0,0,1,4.36,1.38,4.85,4.85,0,0,1,1.65,3.95v8.05q0,.49,0,1a6.53,6.53,0,0,0,.09.9l1.64.11v1.33Zm-6-1.29a6.62,6.62,0,0,0,3.47-.9,5.35,5.35,0,0,0,2.16-2.35v-3.29h-3.65a6.81,6.81,0,0,0-3.94,1,3.05,3.05,0,0,0-1.48,2.58,2.68,2.68,0,0,0,.92,2.12A3.67,3.67,0,0,0,818.51,360.33Z"/><path class="cls-47" d="M842.15,350.3h-1.48l-.21-2.32a4.67,4.67,0,0,0-1.72-1.1,6.74,6.74,0,0,0-2.38-.4,4.47,4.47,0,0,0-3,.86,2.58,2.58,0,0,0-1,2,2.37,2.37,0,0,0,.86,1.87,8.15,8.15,0,0,0,3.41,1.3A11.18,11.18,0,0,1,841,354.3a3.68,3.68,0,0,1,1.46,3.07,4,4,0,0,1-1.66,3.3,7,7,0,0,1-4.38,1.27,10.17,10.17,0,0,1-3.31-.51,7.88,7.88,0,0,1-2.58-1.43v-3.3H832l.26,2.33a4.05,4.05,0,0,0,1.83,1.05,8.2,8.2,0,0,0,2.33.33,5,5,0,0,0,3.1-.86,2.56,2.56,0,0,0,1.14-2.09,2.64,2.64,0,0,0-1-2,7.59,7.59,0,0,0-3.41-1.41,11.6,11.6,0,0,1-4.34-1.69,3.45,3.45,0,0,1-1.41-2.94,4,4,0,0,1,1.58-3.18,6.46,6.46,0,0,1,4.2-1.29,9.58,9.58,0,0,1,3.29.55,6.81,6.81,0,0,1,2.43,1.49Z"/><path class="cls-47" d="M860.32,360.41a5.15,5.15,0,0,0,3.18-1,3.36,3.36,0,0,0,1.37-2.86h1.61l0,.09a4.49,4.49,0,0,1-1.81,3.8,6.76,6.76,0,0,1-4.38,1.53,6.25,6.25,0,0,1-5.16-2.29,9.18,9.18,0,0,1-1.83-5.9v-.64a9.15,9.15,0,0,1,1.83-5.87,6.2,6.2,0,0,1,5.14-2.3,8.41,8.41,0,0,1,3.47.71,6.88,6.88,0,0,1,2.56,1.94l.07,3.57h-1.54l-.29-2.9a5.12,5.12,0,0,0-1.81-1.3,6,6,0,0,0-2.46-.48,4.35,4.35,0,0,0-3.89,1.89,8.29,8.29,0,0,0-1.27,4.74v.64a8.39,8.39,0,0,0,1.26,4.78A4.39,4.39,0,0,0,860.32,360.41Z"/><path class="cls-47" d="M873.8,345.24,874,348v.19a5.9,5.9,0,0,1,1.9-2.36,4.8,4.8,0,0,1,2.86-.86,4.91,4.91,0,0,1,.67.05l.54.12-.25,1.69-1.34-.09a4.11,4.11,0,0,0-2.81,1,5.29,5.29,0,0,0-1.57,2.64v9.78l2.47.2v1.33h-6.74v-1.33l2.47-.2v-13.3l-2.47-.2v-1.35h4Z"/><path class="cls-47" d="M882.22,360.29l2.47-.2v-13.3l-2.47-.2v-1.35h4.27v14.85l2.47.2v1.33h-6.74Zm4.27-19.74h-1.8V338h1.8Z"/><path class="cls-47" d="M903.31,361.62a13.18,13.18,0,0,1-.26-1.44A9.87,9.87,0,0,1,903,359a7.18,7.18,0,0,1-2.42,2.13,6.78,6.78,0,0,1-3.4.85,5.22,5.22,0,0,1-3.73-1.24,4.4,4.4,0,0,1-1.32-3.36,4.15,4.15,0,0,1,2-3.61,9.33,9.33,0,0,1,5.29-1.33H903v-2.16a3.48,3.48,0,0,0-1.13-2.76,4.61,4.61,0,0,0-3.15-1,7.84,7.84,0,0,0-2.49.38,5.66,5.66,0,0,0-1.89,1l-.15,2.2h-1.49v-3.15a9.21,9.21,0,0,1,2.72-1.42,10,10,0,0,1,3.36-.55,6.57,6.57,0,0,1,4.36,1.38,4.85,4.85,0,0,1,1.65,3.95v8.05q0,.49,0,1a5.28,5.28,0,0,0,.1.9l1.63.11v1.33Zm-6-1.29a6.62,6.62,0,0,0,3.47-.9,5.35,5.35,0,0,0,2.16-2.35v-3.29h-3.64a6.84,6.84,0,0,0-4,1,3,3,0,0,0-1.47,2.58,2.67,2.67,0,0,0,.91,2.12A3.67,3.67,0,0,0,897.34,360.33Z"/><path class="cls-47" d="M908.77,360.29l2.47-.2v-13.3l-2.47-.2v-1.35h4.07l.17,2.86a5.78,5.78,0,0,1,2.12-2.33,6,6,0,0,1,3.18-.83,5,5,0,0,1,4.05,1.63c.93,1.08,1.4,2.78,1.4,5.08v8.44l2.46.2v1.33h-6.75v-1.33l2.47-.2v-8.43a5.93,5.93,0,0,0-1.05-4,3.81,3.81,0,0,0-3-1.17,4.69,4.69,0,0,0-3.11,1,5.6,5.6,0,0,0-1.74,2.67v9.9l2.47.2v1.33h-6.75Z"/><path class="cls-47" d="M935.91,360.41a5.15,5.15,0,0,0,3.18-1,3.37,3.37,0,0,0,1.38-2.86h1.6l0,.09a4.49,4.49,0,0,1-1.81,3.8,6.72,6.72,0,0,1-4.38,1.53,6.25,6.25,0,0,1-5.16-2.29,9.18,9.18,0,0,1-1.83-5.9v-.64a9.15,9.15,0,0,1,1.83-5.87,6.2,6.2,0,0,1,5.14-2.3,8.38,8.38,0,0,1,3.47.71,6.88,6.88,0,0,1,2.56,1.94l.08,3.57h-1.55l-.29-2.9a5,5,0,0,0-1.81-1.3,6,6,0,0,0-2.46-.48,4.35,4.35,0,0,0-3.89,1.89,8.29,8.29,0,0,0-1.27,4.74v.64a8.39,8.39,0,0,0,1.26,4.78A4.39,4.39,0,0,0,935.91,360.41Zm.47,1.35-.17,1a3.61,3.61,0,0,1,1.93.73,2.26,2.26,0,0,1,.74,1.85,2.56,2.56,0,0,1-1.2,2.21,6,6,0,0,1-3.42.82l-.11-1.18a5.06,5.06,0,0,0,2.28-.46,1.46,1.46,0,0,0,.93-1.36,1.24,1.24,0,0,0-.62-1.2,5.81,5.81,0,0,0-2.19-.46l.42-1.92Z"/><path class="cls-47" d="M956.78,361.62c-.12-.55-.2-1-.25-1.44a9.87,9.87,0,0,1-.08-1.22,7.27,7.27,0,0,1-2.42,2.13,6.82,6.82,0,0,1-3.41.85,5.21,5.21,0,0,1-3.72-1.24,4.4,4.4,0,0,1-1.32-3.36,4.15,4.15,0,0,1,2-3.61,9.31,9.31,0,0,1,5.29-1.33h3.62v-2.16a3.52,3.52,0,0,0-1.13-2.76,4.61,4.61,0,0,0-3.15-1,7.84,7.84,0,0,0-2.49.38,5.56,5.56,0,0,0-1.89,1l-.15,2.2h-1.5l0-3.15a9.15,9.15,0,0,1,2.71-1.42,10.14,10.14,0,0,1,3.37-.55,6.57,6.57,0,0,1,4.36,1.38,4.85,4.85,0,0,1,1.65,3.95v8.05c0,.33,0,.65,0,1a8.54,8.54,0,0,0,.1.9l1.64.11v1.33Zm-6-1.29a6.62,6.62,0,0,0,3.47-.9,5.35,5.35,0,0,0,2.16-2.35v-3.29H952.8a6.81,6.81,0,0,0-3.94,1,3.05,3.05,0,0,0-1.48,2.58,2.68,2.68,0,0,0,.92,2.12A3.67,3.67,0,0,0,950.82,360.33Z"/><path class="cls-47" d="M974.46,350.3H973l-.21-2.32a4.67,4.67,0,0,0-1.72-1.1,6.74,6.74,0,0,0-2.38-.4,4.45,4.45,0,0,0-3,.86,2.58,2.58,0,0,0-1,2,2.36,2.36,0,0,0,.85,1.87,8.27,8.27,0,0,0,3.42,1.3,11.25,11.25,0,0,1,4.37,1.78,3.68,3.68,0,0,1,1.46,3.07,4,4,0,0,1-1.66,3.3,7,7,0,0,1-4.38,1.27,10.17,10.17,0,0,1-3.31-.51,7.78,7.78,0,0,1-2.58-1.43v-3.3h1.47l.25,2.33a4.14,4.14,0,0,0,1.84,1.05,8.15,8.15,0,0,0,2.33.33,5,5,0,0,0,3.1-.86,2.56,2.56,0,0,0,1.14-2.09,2.64,2.64,0,0,0-1-2,7.59,7.59,0,0,0-3.41-1.41,11.6,11.6,0,0,1-4.34-1.69,3.44,3.44,0,0,1-1.42-2.94,4,4,0,0,1,1.59-3.18,6.46,6.46,0,0,1,4.2-1.29,9.62,9.62,0,0,1,3.29.55,6.81,6.81,0,0,1,2.43,1.49Z"/><path class="cls-47" d="M980.9,361.62h-2.08v-2.48h2.08Z"/></g></svg>