<svg xmlns="http://www.w3.org/2000/svg" xmlns:xlink="http://www.w3.org/1999/xlink" viewBox="0 0 799.78 479.02"><defs><style>.cls-1{fill:none;}.cls-2{clip-path:url(#clip-path);}.cls-3{fill:#ffbf61;}.cls-4{fill:#ffd392;}.cls-5{fill:#f4ca87;}.cls-6{fill:#f7d5a4;}.cls-7{fill:#e5edf9;}.cls-8{fill:#d5c5ea;}.cls-9{fill:#8593af;}.cls-10{fill:#c1abd8;}.cls-11{fill:#737d8e;}.cls-12{fill:#8b97af;}.cls-13{fill:#95a2c1;}.cls-14{fill:#a4b1d8;}.cls-15{fill:#97a3c1;}.cls-16{fill:#aab9d6;}.cls-17{fill:#916a1c;}.cls-18{fill:#807699;}.cls-19{fill:#296032;}.cls-20{fill:#18c434;}.cls-21{fill:#41d335;}.cls-22{fill:#3d122c;}.cls-23{fill:#35d34f;}.cls-24{fill:#c64017;}.cls-25{fill:#d65234;}.cls-26{fill:#6d2818;}.cls-27{fill:#4def67;}.cls-28{fill:#f2d24c;}.cls-29{fill:#4f350f;}.cls-30{fill:#3ca511;}.cls-31{fill:#229134;}.cls-32{fill:#d1a139;}.cls-33{fill:#fff;}.cls-34{fill:#b7ac8f;}.cls-35{fill:#3a2523;}.cls-36{fill:#625777;}.cls-37{fill:#352a47;}.cls-38{fill:#faf5c1;}.cls-39{fill:#6d4e53;}.cls-40{fill:#f4d419;}.cls-41{fill:#654543;}.cls-42{fill:#cead16;}.cls-43{fill:#6b0c17;}.cls-44{fill:#eec51e;}.cls-45{fill:#f3e0a9;}.cls-46{fill:#139929;}.cls-47{fill:#f9572b;}.cls-48{fill:#21db21;}.cls-49{fill:#36cc4e;}.cls-50{fill:#13992f;}.cls-51{fill:#3df95c;}.cls-52{fill:#34c14c;}.cls-53{fill:#351e2f;}.cls-54{fill:#b77629;}.cls-55{fill:#7f511f;}.cls-56{fill:#aa6109;}.cls-57{fill:#351c2e;}.cls-58{clip-path:url(#clip-path-10);}.cls-59{fill:#734818;}.cls-60{fill:#8c5311;}.cls-61{fill:#864e0c;}.cls-62{fill:#6b3a15;}.cls-63{fill:#0d681c;}</style><clipPath id="clip-path"><rect class="cls-1" x="36.64" y="62.64" width="717.12" height="403.43"/></clipPath><clipPath id="clip-path-10"><path class="cls-1" d="M258,373.5a10.21,10.21,0,0,1-1.12-.06,34,34,0,0,1-5.27-1.18A47.6,47.6,0,0,0,241,370.65l-1.09,0a28.22,28.22,0,0,0-4.36.33,13.73,13.73,0,0,0-4.72,1.55,12.41,12.41,0,0,1,4.61-1.74,26.88,26.88,0,0,1,5.12-.45H241a45.53,45.53,0,0,1,10.88,1.53A37.91,37.91,0,0,0,257,373a9.35,9.35,0,0,0,1.06.06,13.94,13.94,0,0,0,1.56-.1c.89-.1,1.78-.24,2.66-.39,3.52-.63,7-1.39,10.4-2.2h.09l3.78.06,3.78.07-3.78.07-3.72.06c-3.37.88-6.77,1.73-10.32,2.37-.9.16-1.8.31-2.73.42a15,15,0,0,1-1.8.12"/></clipPath></defs><title>Bairro</title><g id="Camada_2" data-name="Camada 2"><g id="Camada_3" data-name="Camada 3"><g class="cls-2"><polyline class="cls-3" points="754.76 62.64 754.76 466.07 36.8 466.07 36.8 62.64 754.76 62.64"/><path class="cls-4" d="M36.8,417.55V73.61c20.1-.56,54.31-1.27,97.21-1.27,191.66,0,557.38,14.26,619.77,120.77v64.36c-28,46.34-117.16,79.68-226.62,103.63q-9.66-2-19.34-3.83V339.85c100.49-26,173.4-62.52,171.52-113.69-4.46-120.79-377.15-136-564.51-136-32.58,0-59.57.46-78,.9V399.59h0v18h0"/></g><path class="cls-5" d="M36.8,399.59V91.08c18.46-.44,45.45-.9,78-.9,187.36,0,560.05,15.2,564.51,136,1.89,51.17-71,87.68-171.52,113.69V303.4c46.63-19.64,76-44.11,74.86-74.53-3.86-104.84-327.28-118-490-118-22,0-41,.24-55.93.53V378.78h0v20.81h0"/><path class="cls-6" d="M36.8,378.78V111.36c14.92-.29,34-.53,55.93-.53,162.68,0,486.09,13.21,490,118,1.12,30.42-28.23,54.88-74.86,74.53V190H410.95v8.82H371.16v14.6h-3V219h4.37v49.31h-9V170.1H369v-6.89h-9.74V145.31H306.8v17.91h-3v6.89h4.37v53.6H271.94v34.14h-8.66V246.17H210.87v9.13c-1-.19-2.08-.35-3.16-.45l-.26-9.51-.17,9.47c-.69-.05-1.39-.08-2.07-.08-4.15,0-7.92,1.08-8.7,4.39a9.32,9.32,0,0,0-2.08,1.5l-.64-.06c-3.91-.34-7.72-1.54-10.9-1.54s-5.84,1.26-7.18,6v-54h5.37v-5.85h-9.74V190H118.93v15.21h-3v5.85h4.37V274.3c-3.7,4.17-6.3,11.86-6.67,20.83a21.9,21.9,0,0,0-11.21,14.54,13.6,13.6,0,0,0-8.64,10.57,21.48,21.48,0,0,0-8.56-1.74c-5.86,0-11,2.22-14.12,5.6a23.21,23.21,0,0,0-4-.34,19.46,19.46,0,0,0-10.36,2.69l-1.92-70-1.28,72.9-4.18.46c-4.21.49-8.41,1-12.6,1.64v.21h0v47.16h0m235.14-52.34-.38,0c.14-.59.27-1.2.38-1.82v1.84m0-13.48a20.85,20.85,0,0,0-4.29-9.56V262.32h4.29V313m-65.51-10.13a22.81,22.81,0,0,0-3.08-4.52c.24-.85.46-1.68.67-2.47h0l1.24-2.57a13.75,13.75,0,0,0,1.34-.34l-.17,9.89m2.54-1.68-.23-8.39,3.5.88V300a8,8,0,0,0-3.27,1.18m-6.51-3.8a23.35,23.35,0,0,0-4.69-3.7l-.1-1.11a8.6,8.6,0,0,1,.93.27,12.41,12.41,0,0,0,3.88.72c0,1.56,0,2.92,0,3.83m.52-.29a14.57,14.57,0,0,1-.18-3.54c.34,0,.69,0,1,0-.28,1.26-.56,2.49-.85,3.59m1.3-2.57c.07-.29.16-.66.25-1.1l.41-.07a5.7,5.7,0,0,1-.66,1.16"/><polyline class="cls-7" points="359.22 163.21 359.22 145.31 306.8 145.31 306.8 163.21 303.8 163.21 303.8 170.1 308.17 170.1 308.17 434.87 363.58 434.87 363.58 170.1 368.95 170.1 368.95 163.21 359.22 163.21"/><polyline class="cls-7" points="423.58 213.42 423.58 198.83 371.16 198.83 371.16 213.42 368.17 213.42 368.17 219.04 372.54 219.04 372.54 434.87 427.95 434.87 427.95 219.04 433.32 219.04 433.32 213.42 423.58 213.42"/><polygon class="cls-8" points="569.18 112.12 569.18 90.85 516.76 90.85 516.76 112.12 513.76 112.12 513.76 120.3 518.14 120.3 518.14 434.87 573.54 434.87 573.54 120.3 578.91 120.3 578.91 112.12 569.18 112.12 569.18 112.12"/><polygon class="cls-8" points="663.27 116.72 663.27 95.44 610.85 95.44 610.85 116.72 607.86 116.72 607.86 124.9 612.23 124.9 612.23 439.47 667.64 439.47 667.64 124.9 673.01 124.9 673.01 116.72 663.27 116.72 663.27 116.72"/><polygon class="cls-8" points="632 172.66 632 159.4 579.58 159.4 579.58 172.66 576.58 172.66 576.58 177.75 580.96 177.75 580.96 373.8 636.37 373.8 636.37 177.75 641.73 177.75 641.73 172.66 632 172.66 632 172.66"/><polyline class="cls-9" points="171.35 205.22 171.35 190 118.93 190 118.93 205.22 115.93 205.22 115.93 211.06 120.3 211.06 120.3 436 175.71 436 175.71 211.06 181.08 211.06 181.08 205.22 171.35 205.22"/><polyline class="cls-9" points="263.29 257.84 263.29 246.17 210.87 246.17 210.87 257.84 207.87 257.84 207.87 262.32 212.24 262.32 212.24 434.87 267.65 434.87 267.65 262.32 273.02 262.32 273.02 257.84 263.29 257.84"/><polyline class="cls-10" points="271.94 436 120.3 436 120.3 327.32 271.94 327.32 271.94 436"/><polyline class="cls-11" points="271.94 332.12 120.3 332.12 120.3 327.32 271.94 327.32 271.94 332.12"/><polyline class="cls-10" points="356.19 436 271.94 436 271.94 223.7 356.19 223.7 356.19 436"/><polyline class="cls-12" points="410.95 436 356.19 436 356.19 268.35 410.95 268.35 410.95 436"/><polygon class="cls-11" points="410.95 277.22 356.19 277.22 356.19 268.35 410.95 268.35 410.95 277.22 410.95 277.22"/><polyline class="cls-10" points="507.83 436 410.95 436 410.95 190 507.83 190 507.83 436"/><polygon class="cls-13" points="543.21 436 507.83 436 507.83 337.43 543.21 337.43 543.21 436 543.21 436"/><polygon class="cls-10" points="619.95 436 584.57 436 584.57 337.43 619.95 337.43 619.95 436 619.95 436"/><polygon class="cls-10" points="665.6 436 609.16 436 609.16 211.06 665.6 211.06 665.6 436 665.6 436"/><polygon class="cls-10" points="588.94 441.05 534.54 441.05 534.54 251.5 588.94 251.5 588.94 441.05 588.94 441.05"/><path class="cls-13" d="M584.12,236.34H539.37a4.82,4.82,0,0,0-4.82,4.82V251.5h54.39V241.16a4.82,4.82,0,0,0-4.82-4.82Z"/><path class="cls-10" d="M584.12,236.34H539.37v-8.1a6.22,6.22,0,0,1,6.22-6.22H577.9a6.22,6.22,0,0,1,6.22,6.22v8.1Z"/><polygon class="cls-14" points="578.27 198.19 545.22 198.19 545.22 222.02 578.27 222.02 578.27 198.19 578.27 198.19"/><polygon class="cls-15" points="587.92 198.19 535.56 198.19 535.56 195.06 587.92 195.06 587.92 198.19 587.92 198.19"/><polygon class="cls-14" points="561.74 126.21 562.3 170.58 561.18 170.58 561.74 126.21 561.74 126.21"/><polygon class="cls-15" points="591.18 255.53 532.07 255.53 532.07 251.5 591.18 251.5 591.18 255.53 591.18 255.53"/><path class="cls-10" d="M578.91,195.06H544.57l11.17-22.63a7.35,7.35,0,0,1,13.32.29l9.85,22.34Z"/><polygon class="cls-15" points="357.89 226.75 268.51 226.75 268.51 222.02 357.89 222.02 357.89 226.75 357.89 226.75"/><polygon class="cls-15" points="510.03 193.7 408.37 193.7 408.37 188.97 510.03 188.97 510.03 193.7 510.03 193.7"/><path class="cls-10" d="M645,158.41c0,.07,0,.14,0,.21V160h4.54V436H716.1V160h4.54v-1.37c0-.07,0-.14,0-.21Z"/><polygon class="cls-13" points="155.25 230.3 150 230.3 150 212.14 155.25 212.14 155.25 230.3 155.25 230.3"/><polygon class="cls-13" points="165.73 230.3 159.93 230.3 159.93 212.14 165.73 212.14 165.73 230.3 165.73 230.3"/><polygon class="cls-13" points="155.25 253.52 150 253.52 150 235.35 155.25 235.35 155.25 253.52 155.25 253.52"/><polygon class="cls-13" points="155.25 253.33 150 253.33 150 235.17 155.25 235.17 155.25 253.33 155.25 253.33"/><polygon class="cls-13" points="165.73 253.52 159.93 253.52 159.93 235.35 165.73 235.35 165.73 253.52 165.73 253.52"/><polygon class="cls-13" points="135.78 253.52 130.53 253.52 130.53 235.35 135.78 235.35 135.78 253.52 135.78 253.52"/><polygon class="cls-13" points="146.26 253.52 140.46 253.52 140.46 235.35 146.26 235.35 146.26 253.52 146.26 253.52"/><polygon class="cls-13" points="155.25 279.07 150 279.07 150 260.91 155.25 260.91 155.25 279.07 155.25 279.07"/><polygon class="cls-13" points="165.73 279.26 159.93 279.26 159.93 261.1 165.73 261.1 165.73 279.26 165.73 279.26"/><polygon class="cls-13" points="135.78 279.26 130.53 279.26 130.53 261.1 135.78 261.1 135.78 279.26 135.78 279.26"/><polygon class="cls-13" points="146.26 279.26 140.46 279.26 140.46 261.1 146.26 261.1 146.26 279.26 146.26 279.26"/><polygon class="cls-13" points="239.14 284.41 233.9 284.41 233.9 266.25 239.14 266.25 239.14 284.41 239.14 284.41"/><polygon class="cls-13" points="249.63 284.6 243.82 284.6 243.82 266.43 249.63 266.43 249.63 284.6 249.63 284.6"/><polygon class="cls-13" points="219.67 284.6 214.43 284.6 214.43 266.43 219.67 266.43 219.67 284.6 219.67 284.6"/><polygon class="cls-13" points="230.16 284.6 224.35 284.6 224.35 266.43 230.16 266.43 230.16 284.6 230.16 284.6"/><polygon class="cls-13" points="237.27 310.91 232.03 310.91 232.03 292.75 237.27 292.75 237.27 310.91 237.27 310.91"/><polygon class="cls-13" points="247.75 311.1 241.95 311.1 241.95 292.93 247.75 292.93 247.75 311.1 247.75 311.1"/><polygon class="cls-13" points="217.8 311.1 212.56 311.1 212.56 292.93 217.8 292.93 217.8 311.1 217.8 311.1"/><polygon class="cls-13" points="228.28 311.1 222.48 311.1 222.48 292.93 228.28 292.93 228.28 311.1 228.28 311.1"/><polygon class="cls-13" points="299.8 249.76 294.56 249.76 294.56 231.59 299.8 231.59 299.8 249.76 299.8 249.76"/><polygon class="cls-13" points="310.29 249.94 304.48 249.94 304.48 231.78 310.29 231.78 310.29 249.94 310.29 249.94"/><polygon class="cls-13" points="280.33 249.94 275.09 249.94 275.09 231.78 280.33 231.78 280.33 249.94 280.33 249.94"/><polygon class="cls-13" points="290.81 249.94 285.01 249.94 285.01 231.78 290.81 231.78 290.81 249.94 290.81 249.94"/><polygon class="cls-13" points="338.78 249.76 333.54 249.76 333.54 231.59 338.78 231.59 338.78 249.76 338.78 249.76"/><polygon class="cls-13" points="349.26 249.94 343.46 249.94 343.46 231.78 349.26 231.78 349.26 249.94 349.26 249.94"/><polygon class="cls-13" points="319.31 249.94 314.07 249.94 314.07 231.78 319.31 231.78 319.31 249.94 319.31 249.94"/><polygon class="cls-13" points="329.79 249.94 323.99 249.94 323.99 231.78 329.79 231.78 329.79 249.94 329.79 249.94"/><polygon class="cls-13" points="299.8 272.57 294.56 272.57 294.56 254.41 299.8 254.41 299.8 272.57 299.8 272.57"/><polygon class="cls-13" points="310.29 272.76 304.48 272.76 304.48 254.59 310.29 254.59 310.29 272.76 310.29 272.76"/><polygon class="cls-13" points="280.33 272.76 275.09 272.76 275.09 254.59 280.33 254.59 280.33 272.76 280.33 272.76"/><polygon class="cls-13" points="290.81 272.76 285.01 272.76 285.01 254.59 290.81 254.59 290.81 272.76 290.81 272.76"/><polygon class="cls-13" points="338.78 272.57 333.54 272.57 333.54 254.41 338.78 254.41 338.78 272.57 338.78 272.57"/><polygon class="cls-13" points="349.26 272.76 343.46 272.76 343.46 254.59 349.26 254.59 349.26 272.76 349.26 272.76"/><polygon class="cls-13" points="319.31 272.76 314.07 272.76 314.07 254.59 319.31 254.59 319.31 272.76 319.31 272.76"/><polygon class="cls-13" points="329.79 272.76 323.99 272.76 323.99 254.59 329.79 254.59 329.79 272.76 329.79 272.76"/><polygon class="cls-13" points="299.8 295.38 294.56 295.38 294.56 277.22 299.8 277.22 299.8 295.38 299.8 295.38"/><polygon class="cls-13" points="310.29 295.57 304.48 295.57 304.48 277.41 310.29 277.41 310.29 295.57 310.29 295.57"/><polygon class="cls-13" points="280.33 295.57 275.09 295.57 275.09 277.41 280.33 277.41 280.33 295.57 280.33 295.57"/><polygon class="cls-13" points="290.81 295.57 285.01 295.57 285.01 277.41 290.81 277.41 290.81 295.57 290.81 295.57"/><polygon class="cls-13" points="338.78 295.38 333.54 295.38 333.54 277.22 338.78 277.22 338.78 295.38 338.78 295.38"/><polygon class="cls-13" points="349.26 295.57 343.46 295.57 343.46 277.41 349.26 277.41 349.26 295.57 349.26 295.57"/><polygon class="cls-13" points="319.31 295.57 314.07 295.57 314.07 277.41 319.31 277.41 319.31 295.57 319.31 295.57"/><polygon class="cls-13" points="329.79 295.57 323.99 295.57 323.99 277.41 329.79 277.41 329.79 295.57 329.79 295.57"/><polygon class="cls-13" points="299.8 318.2 294.56 318.2 294.56 300.03 299.8 300.03 299.8 318.2 299.8 318.2"/><polygon class="cls-13" points="310.29 318.38 304.48 318.38 304.48 300.22 310.29 300.22 310.29 318.38 310.29 318.38"/><polygon class="cls-13" points="280.33 318.38 275.09 318.38 275.09 300.22 280.33 300.22 280.33 318.38 280.33 318.38"/><polygon class="cls-13" points="290.81 318.38 285.01 318.38 285.01 300.22 290.81 300.22 290.81 318.38 290.81 318.38"/><polygon class="cls-13" points="338.78 318.2 333.54 318.2 333.54 300.03 338.78 300.03 338.78 318.2 338.78 318.2"/><polygon class="cls-13" points="349.26 318.38 343.46 318.38 343.46 300.22 349.26 300.22 349.26 318.38 349.26 318.38"/><polygon class="cls-13" points="319.31 318.38 314.07 318.38 314.07 300.22 319.31 300.22 319.31 318.38 319.31 318.38"/><polygon class="cls-13" points="329.79 318.38 323.99 318.38 323.99 300.22 329.79 300.22 329.79 318.38 329.79 318.38"/><polygon class="cls-13" points="299.8 341.01 294.56 341.01 294.56 322.85 299.8 322.85 299.8 341.01 299.8 341.01"/><polygon class="cls-13" points="310.29 341.2 304.48 341.2 304.48 323.04 310.29 323.04 310.29 341.2 310.29 341.2"/><polygon class="cls-13" points="280.33 341.2 275.09 341.2 275.09 323.04 280.33 323.04 280.33 341.2 280.33 341.2"/><polygon class="cls-13" points="290.81 341.2 285.01 341.2 285.01 323.04 290.81 323.04 290.81 341.2 290.81 341.2"/><polygon class="cls-13" points="338.78 341.01 333.54 341.01 333.54 322.85 338.78 322.85 338.78 341.01 338.78 341.01"/><polygon class="cls-13" points="349.26 341.2 343.46 341.2 343.46 323.04 349.26 323.04 349.26 341.2 349.26 341.2"/><polygon class="cls-13" points="319.31 341.2 314.07 341.2 314.07 323.04 319.31 323.04 319.31 341.2 319.31 341.2"/><polygon class="cls-13" points="329.79 341.2 323.99 341.2 323.99 323.04 329.79 323.04 329.79 341.2 329.79 341.2"/><polyline class="cls-13" points="299.8 363.82 294.56 363.82 294.56 345.66 299.8 345.66 299.8 363.82"/><polyline class="cls-13" points="310.29 364.01 304.48 364.01 304.48 345.85 310.29 345.85 310.29 364.01"/><polyline class="cls-13" points="280.33 364.01 275.09 364.01 275.09 345.85 280.33 345.85 280.33 364.01"/><polyline class="cls-13" points="290.81 364.01 285.01 364.01 285.01 345.85 290.81 345.85 290.81 364.01"/><polyline class="cls-13" points="338.78 363.82 333.54 363.82 333.54 345.66 338.78 345.66 338.78 363.82"/><polyline class="cls-13" points="349.26 364.01 343.46 364.01 343.46 345.85 349.26 345.85 349.26 364.01"/><polyline class="cls-13" points="319.31 364.01 314.07 364.01 314.07 345.85 319.31 345.85 319.31 364.01"/><polyline class="cls-13" points="329.79 364.01 323.99 364.01 323.99 345.85 329.79 345.85 329.79 364.01"/><polyline class="cls-13" points="299.8 386.64 294.56 386.64 294.56 368.48 299.8 368.48 299.8 386.64"/><polyline class="cls-13" points="310.29 386.82 304.48 386.82 304.48 368.66 310.29 368.66 310.29 386.82"/><polyline class="cls-13" points="280.33 386.82 275.09 386.82 275.09 368.66 280.33 368.66 280.33 386.82"/><polyline class="cls-13" points="290.81 386.82 285.01 386.82 285.01 368.66 290.81 368.66 290.81 386.82"/><polyline class="cls-13" points="338.78 386.64 333.54 386.64 333.54 368.48 338.78 368.48 338.78 386.64"/><polyline class="cls-13" points="349.26 386.82 343.46 386.82 343.46 368.66 349.26 368.66 349.26 386.82"/><polyline class="cls-13" points="319.31 386.82 314.07 386.82 314.07 368.66 319.31 368.66 319.31 386.82"/><polyline class="cls-13" points="329.79 386.82 323.99 386.82 323.99 368.66 329.79 368.66 329.79 386.82"/><polyline class="cls-13" points="299.8 409.45 294.56 409.45 294.56 391.29 299.8 391.29 299.8 409.45"/><polyline class="cls-13" points="310.29 409.64 304.48 409.64 304.48 391.48 310.29 391.48 310.29 409.64"/><polyline class="cls-13" points="280.33 409.64 275.09 409.64 275.09 391.48 280.33 391.48 280.33 409.64"/><polyline class="cls-13" points="290.81 409.64 285.01 409.64 285.01 391.48 290.81 391.48 290.81 409.64"/><polyline class="cls-13" points="338.78 409.45 333.54 409.45 333.54 391.29 338.78 391.29 338.78 409.45"/><polyline class="cls-13" points="349.26 409.64 343.46 409.64 343.46 391.48 349.26 391.48 349.26 409.64"/><polyline class="cls-13" points="319.31 409.64 314.07 409.64 314.07 391.48 319.31 391.48 319.31 409.64"/><polyline class="cls-13" points="329.79 409.64 323.99 409.64 323.99 391.48 329.79 391.48 329.79 409.64"/><polyline class="cls-13" points="299.8 432.26 294.56 432.26 294.56 414.1 299.8 414.1 299.8 432.26"/><polyline class="cls-13" points="310.29 432.45 304.48 432.45 304.48 414.29 310.29 414.29 310.29 432.45"/><polyline class="cls-13" points="280.33 432.45 275.09 432.45 275.09 414.29 280.33 414.29 280.33 432.45"/><polyline class="cls-13" points="290.81 432.45 285.01 432.45 285.01 414.29 290.81 414.29 290.81 432.45"/><polyline class="cls-13" points="338.78 432.26 333.54 432.26 333.54 414.1 338.78 414.1 338.78 432.26"/><polyline class="cls-13" points="349.26 432.45 343.46 432.45 343.46 414.29 349.26 414.29 349.26 432.45"/><polyline class="cls-13" points="319.31 432.45 314.07 432.45 314.07 414.29 319.31 414.29 319.31 432.45"/><polyline class="cls-13" points="329.79 432.45 323.99 432.45 323.99 414.29 329.79 414.29 329.79 432.45"/><polygon class="cls-13" points="447.01 219.99 441.77 219.99 441.77 199.79 447.01 199.79 447.01 219.99 447.01 219.99"/><polygon class="cls-13" points="457.5 220.2 451.69 220.2 451.69 200 457.5 200 457.5 220.2 457.5 220.2"/><polygon class="cls-13" points="427.54 220.2 422.3 220.2 422.3 200 427.54 200 427.54 220.2 427.54 220.2"/><polygon class="cls-13" points="438.02 220.2 432.22 220.2 432.22 200 438.02 200 438.02 220.2 438.02 220.2"/><polygon class="cls-13" points="485.99 219.99 480.75 219.99 480.75 199.79 485.99 199.79 485.99 219.99 485.99 219.99"/><polygon class="cls-13" points="496.47 220.2 490.67 220.2 490.67 200 496.47 200 496.47 220.2 496.47 220.2"/><polygon class="cls-13" points="466.52 220.2 461.28 220.2 461.28 200 466.52 200 466.52 220.2 466.52 220.2"/><polygon class="cls-13" points="477 220.2 471.2 220.2 471.2 200 477 200 477 220.2 477 220.2"/><polygon class="cls-13" points="447.01 245.37 441.77 245.37 441.77 225.17 447.01 225.17 447.01 245.37 447.01 245.37"/><polygon class="cls-13" points="457.5 245.57 451.69 245.57 451.69 225.37 457.5 225.37 457.5 245.57 457.5 245.57"/><polygon class="cls-13" points="427.54 245.57 422.3 245.57 422.3 225.37 427.54 225.37 427.54 245.57 427.54 245.57"/><polygon class="cls-13" points="438.02 245.57 432.22 245.57 432.22 225.37 438.02 225.37 438.02 245.57 438.02 245.57"/><polygon class="cls-13" points="485.99 245.37 480.75 245.37 480.75 225.17 485.99 225.17 485.99 245.37 485.99 245.37"/><polygon class="cls-13" points="496.47 245.57 490.67 245.57 490.67 225.37 496.47 225.37 496.47 245.57 496.47 245.57"/><polygon class="cls-13" points="466.52 245.57 461.28 245.57 461.28 225.37 466.52 225.37 466.52 245.57 466.52 245.57"/><polygon class="cls-13" points="477 245.57 471.2 245.57 471.2 225.37 477 225.37 477 245.57 477 245.57"/><polygon class="cls-13" points="447.01 270.74 441.77 270.74 441.77 250.54 447.01 250.54 447.01 270.74 447.01 270.74"/><polygon class="cls-13" points="457.5 270.95 451.69 270.95 451.69 250.75 457.5 250.75 457.5 270.95 457.5 270.95"/><polygon class="cls-13" points="427.54 270.95 422.3 270.95 422.3 250.75 427.54 250.75 427.54 270.95 427.54 270.95"/><polygon class="cls-13" points="438.02 270.95 432.22 270.95 432.22 250.75 438.02 250.75 438.02 270.95 438.02 270.95"/><polygon class="cls-13" points="485.99 270.74 480.75 270.74 480.75 250.54 485.99 250.54 485.99 270.74 485.99 270.74"/><polygon class="cls-13" points="496.47 270.95 490.67 270.95 490.67 250.75 496.47 250.75 496.47 270.95 496.47 270.95"/><polygon class="cls-13" points="466.52 270.95 461.28 270.95 461.28 250.75 466.52 250.75 466.52 270.95 466.52 270.95"/><polygon class="cls-13" points="477 270.95 471.2 270.95 471.2 250.75 477 250.75 477 270.95 477 270.95"/><polygon class="cls-13" points="447.01 296.11 441.77 296.11 441.77 275.91 447.01 275.91 447.01 296.11 447.01 296.11"/><polygon class="cls-13" points="457.5 296.32 451.69 296.32 451.69 276.12 457.5 276.12 457.5 296.32 457.5 296.32"/><polygon class="cls-13" points="427.54 296.32 422.3 296.32 422.3 276.12 427.54 276.12 427.54 296.32 427.54 296.32"/><polygon class="cls-13" points="438.02 296.32 432.22 296.32 432.22 276.12 438.02 276.12 438.02 296.32 438.02 296.32"/><polygon class="cls-13" points="485.99 296.11 480.75 296.11 480.75 275.91 485.99 275.91 485.99 296.11 485.99 296.11"/><polygon class="cls-13" points="496.47 296.32 490.67 296.32 490.67 276.12 496.47 276.12 496.47 296.32 496.47 296.32"/><polygon class="cls-13" points="466.52 296.32 461.28 296.32 461.28 276.12 466.52 276.12 466.52 296.32 466.52 296.32"/><polygon class="cls-13" points="477 296.32 471.2 296.32 471.2 276.12 477 276.12 477 296.32 477 296.32"/><polygon class="cls-13" points="447.01 321.48 441.77 321.48 441.77 301.28 447.01 301.28 447.01 321.48 447.01 321.48"/><polygon class="cls-13" points="457.5 321.69 451.69 321.69 451.69 301.49 457.5 301.49 457.5 321.69 457.5 321.69"/><polygon class="cls-13" points="427.54 321.69 422.3 321.69 422.3 301.49 427.54 301.49 427.54 321.69 427.54 321.69"/><polygon class="cls-13" points="438.02 321.69 432.22 321.69 432.22 301.49 438.02 301.49 438.02 321.69 438.02 321.69"/><polygon class="cls-13" points="485.99 321.48 480.75 321.48 480.75 301.28 485.99 301.28 485.99 321.48 485.99 321.48"/><polygon class="cls-13" points="496.47 321.69 490.67 321.69 490.67 301.49 496.47 301.49 496.47 321.69 496.47 321.69"/><polygon class="cls-13" points="466.52 321.69 461.28 321.69 461.28 301.49 466.52 301.49 466.52 321.69 466.52 321.69"/><polygon class="cls-13" points="477 321.69 471.2 321.69 471.2 301.49 477 301.49 477 321.69 477 321.69"/><polygon class="cls-13" points="447.01 346.86 441.77 346.86 441.77 326.66 447.01 326.66 447.01 346.86 447.01 346.86"/><polygon class="cls-13" points="457.5 347.06 451.69 347.06 451.69 326.87 457.5 326.87 457.5 347.06 457.5 347.06"/><polygon class="cls-13" points="427.54 347.06 422.3 347.06 422.3 326.87 427.54 326.87 427.54 347.06 427.54 347.06"/><polygon class="cls-13" points="438.02 347.06 432.22 347.06 432.22 326.87 438.02 326.87 438.02 347.06 438.02 347.06"/><polygon class="cls-13" points="485.99 346.86 480.75 346.86 480.75 326.66 485.99 326.66 485.99 346.86 485.99 346.86"/><polygon class="cls-13" points="496.47 347.06 490.67 347.06 490.67 326.87 496.47 326.87 496.47 347.06 496.47 347.06"/><polygon class="cls-13" points="466.52 347.06 461.28 347.06 461.28 326.87 466.52 326.87 466.52 347.06 466.52 347.06"/><polygon class="cls-13" points="477 347.06 471.2 347.06 471.2 326.87 477 326.87 477 347.06 477 347.06"/><polygon class="cls-13" points="447.01 372.23 441.77 372.23 441.77 352.03 447.01 352.03 447.01 372.23 447.01 372.23"/><polygon class="cls-13" points="457.5 372.44 451.69 372.44 451.69 352.24 457.5 352.24 457.5 372.44 457.5 372.44"/><polygon class="cls-13" points="427.54 372.44 422.3 372.44 422.3 352.24 427.54 352.24 427.54 372.44 427.54 372.44"/><polygon class="cls-13" points="438.02 372.44 432.22 372.44 432.22 352.24 438.02 352.24 438.02 372.44 438.02 372.44"/><polygon class="cls-13" points="485.99 372.23 480.75 372.23 480.75 352.03 485.99 352.03 485.99 372.23 485.99 372.23"/><polygon class="cls-13" points="496.47 372.44 490.67 372.44 490.67 352.24 496.47 352.24 496.47 372.44 496.47 372.44"/><polygon class="cls-13" points="466.52 372.44 461.28 372.44 461.28 352.24 466.52 352.24 466.52 372.44 466.52 372.44"/><polygon class="cls-13" points="477 372.44 471.2 372.44 471.2 352.24 477 352.24 477 372.44 477 372.44"/><polygon class="cls-13" points="447.01 397.6 441.77 397.6 441.77 377.4 447.01 377.4 447.01 397.6 447.01 397.6"/><polygon class="cls-13" points="457.5 397.81 451.69 397.81 451.69 377.61 457.5 377.61 457.5 397.81 457.5 397.81"/><polyline class="cls-13" points="427.54 397.81 422.3 397.81 422.3 377.61 427.54 377.61 427.54 397.81"/><polygon class="cls-13" points="438.02 397.81 432.22 397.81 432.22 377.61 438.02 377.61 438.02 397.81 438.02 397.81"/><polygon class="cls-13" points="485.99 397.6 480.75 397.6 480.75 377.4 485.99 377.4 485.99 397.6 485.99 397.6"/><polygon class="cls-13" points="496.47 397.81 490.67 397.81 490.67 377.61 496.47 377.61 496.47 397.81 496.47 397.81"/><polygon class="cls-13" points="466.52 397.81 461.28 397.81 461.28 377.61 466.52 377.61 466.52 397.81 466.52 397.81"/><polygon class="cls-13" points="477 397.81 471.2 397.81 471.2 377.61 477 377.61 477 397.81 477 397.81"/><polyline class="cls-13" points="447.01 422.98 441.77 422.98 441.77 402.77 447.01 402.77 447.01 422.98"/><polyline class="cls-13" points="457.5 423.18 451.69 423.18 451.69 402.98 457.5 402.98 457.5 423.18"/><polyline class="cls-13" points="427.54 423.18 422.3 423.18 422.3 402.98 427.54 402.98 427.54 423.18"/><polyline class="cls-13" points="438.02 423.18 432.22 423.18 432.22 402.98 438.02 402.98 438.02 423.18"/><polygon class="cls-13" points="485.99 422.98 480.75 422.98 480.75 402.77 485.99 402.77 485.99 422.98 485.99 422.98"/><polygon class="cls-13" points="496.47 423.18 490.67 423.18 490.67 402.98 496.47 402.98 496.47 423.18 496.47 423.18"/><polyline class="cls-13" points="466.52 423.18 461.28 423.18 461.28 402.98 466.52 402.98 466.52 423.18"/><polygon class="cls-13" points="477 423.18 471.2 423.18 471.2 402.98 477 402.98 477 423.18 477 423.18"/><polygon class="cls-13" points="543.21 441.05 538.91 441.05 538.91 255.53 543.21 255.53 543.21 441.05 543.21 441.05"/><polygon class="cls-13" points="550.46 441.05 546.16 441.05 546.16 255.53 550.46 255.53 550.46 441.05 550.46 441.05"/><polygon class="cls-13" points="557.71 441.05 553.41 441.05 553.41 255.53 557.71 255.53 557.71 441.05 557.71 441.05"/><polygon class="cls-13" points="564.97 441.05 560.67 441.05 560.67 255.53 564.97 255.53 564.97 441.05 564.97 441.05"/><polygon class="cls-13" points="572.22 441.05 567.92 441.05 567.92 255.53 572.22 255.53 572.22 441.05 572.22 441.05"/><polygon class="cls-13" points="579.47 441.05 575.17 441.05 575.17 255.53 579.47 255.53 579.47 441.05 579.47 441.05"/><polygon class="cls-13" points="586.72 441.05 582.42 441.05 582.42 255.53 586.72 255.53 586.72 441.05 586.72 441.05"/><polygon class="cls-13" points="548.78 222.02 545.6 222.02 545.6 198.19 548.78 198.19 548.78 222.02 548.78 222.02"/><polygon class="cls-13" points="553.62 222.02 550.43 222.02 550.43 198.19 553.62 198.19 553.62 222.02 553.62 222.02"/><polygon class="cls-13" points="558.45 222.02 555.27 222.02 555.27 198.19 558.45 198.19 558.45 222.02 558.45 222.02"/><polygon class="cls-13" points="563.29 222.02 560.11 222.02 560.11 198.19 563.29 198.19 563.29 222.02 563.29 222.02"/><polygon class="cls-13" points="568.13 222.02 564.94 222.02 564.94 198.19 568.13 198.19 568.13 222.02 568.13 222.02"/><polygon class="cls-13" points="572.96 222.02 569.78 222.02 569.78 198.19 572.96 198.19 572.96 222.02 572.96 222.02"/><polygon class="cls-13" points="577.8 222.02 574.62 222.02 574.62 198.19 577.8 198.19 577.8 222.02 577.8 222.02"/><polygon class="cls-14" points="722.05 160.47 643.14 160.47 643.14 158.78 722.05 158.78 722.05 160.47 722.05 160.47"/><polygon class="cls-13" points="654.37 436 649.88 436 649.88 159.63 654.37 159.63 654.37 436 654.37 436"/><polygon class="cls-13" points="664.38 436 659.89 436 659.89 159.63 664.38 159.63 664.38 436 664.38 436"/><polygon class="cls-13" points="674.4 436 669.91 436 669.91 159.63 674.4 159.63 674.4 436 674.4 436"/><polygon class="cls-13" points="684.42 436 679.93 436 679.93 159.63 684.42 159.63 684.42 436 684.42 436"/><polygon class="cls-13" points="694.43 436 689.94 436 689.94 159.63 694.43 159.63 694.43 436 694.43 436"/><polygon class="cls-13" points="704.45 436 699.96 436 699.96 159.63 704.45 159.63 704.45 436 704.45 436"/><polygon class="cls-13" points="714.47 436 709.98 436 709.98 159.63 714.47 159.63 714.47 436 714.47 436"/><polygon class="cls-14" points="720.83 158.78 645.01 158.78 645.01 154.29 720.83 154.29 720.83 158.78 720.83 158.78"/><polygon class="cls-14" points="714.47 154.29 650.63 154.29 650.63 126.21 714.47 126.21 714.47 154.29 714.47 154.29"/><polygon class="cls-13" points="662.14 140.25 654.37 140.25 654.37 129.21 662.14 129.21 662.14 140.25 662.14 140.25"/><polygon class="cls-13" points="672.16 140.25 664.38 140.25 664.38 129.21 672.16 129.21 672.16 140.25 672.16 140.25"/><polygon class="cls-13" points="682.17 140.25 674.4 140.25 674.4 129.21 682.17 129.21 682.17 140.25 682.17 140.25"/><polygon class="cls-13" points="692.19 140.25 684.42 140.25 684.42 129.21 692.19 129.21 692.19 140.25 692.19 140.25"/><polygon class="cls-13" points="702.21 140.25 694.43 140.25 694.43 129.21 702.21 129.21 702.21 140.25 702.21 140.25"/><polygon class="cls-13" points="712.22 140.25 704.45 140.25 704.45 129.21 712.22 129.21 712.22 140.25 712.22 140.25"/><polygon class="cls-13" points="662.14 152.79 654.37 152.79 654.37 141.75 662.14 141.75 662.14 152.79 662.14 152.79"/><polygon class="cls-13" points="672.16 152.79 664.38 152.79 664.38 141.75 672.16 141.75 672.16 152.79 672.16 152.79"/><polygon class="cls-13" points="682.17 152.79 674.4 152.79 674.4 141.75 682.17 141.75 682.17 152.79 682.17 152.79"/><polygon class="cls-13" points="692.19 152.79 684.42 152.79 684.42 141.75 692.19 141.75 692.19 152.79 692.19 152.79"/><polygon class="cls-13" points="702.21 152.79 694.43 152.79 694.43 141.75 702.21 141.75 702.21 152.79 702.21 152.79"/><g class="cls-2"><polygon class="cls-13" points="712.22 152.79 704.45 152.79 704.45 141.75 712.22 141.75 712.22 152.79 712.22 152.79"/><polygon class="cls-13" points="799.78 436 722.05 436 722.05 177.06 799.78 177.06 799.78 436 799.78 436"/></g><polygon class="cls-16" points="750.32 201.44 745.08 201.44 745.08 181.24 750.32 181.24 750.32 201.44 750.32 201.44"/><polygon class="cls-16" points="730.85 201.65 725.61 201.65 725.61 181.45 730.85 181.45 730.85 201.65 730.85 201.65"/><polygon class="cls-16" points="741.34 201.65 735.54 201.65 735.54 181.45 741.34 181.45 741.34 201.65 741.34 201.65"/><polygon class="cls-16" points="750.32 226.81 745.08 226.81 745.08 206.61 750.32 206.61 750.32 226.81 750.32 226.81"/><polygon class="cls-16" points="730.85 227.02 725.61 227.02 725.61 206.82 730.85 206.82 730.85 227.02 730.85 227.02"/><polygon class="cls-16" points="741.34 227.02 735.54 227.02 735.54 206.82 741.34 206.82 741.34 227.02 741.34 227.02"/><polygon class="cls-16" points="750.32 252.18 745.08 252.18 745.08 231.98 750.32 231.98 750.32 252.18 750.32 252.18"/><polygon class="cls-16" points="730.85 252.39 725.61 252.39 725.61 232.19 730.85 232.19 730.85 252.39 730.85 252.39"/><polygon class="cls-16" points="741.34 252.39 735.54 252.39 735.54 232.19 741.34 232.19 741.34 252.39 741.34 252.39"/><polygon class="cls-16" points="750.32 277.56 745.08 277.56 745.08 257.36 750.32 257.36 750.32 277.56 750.32 277.56"/><polygon class="cls-16" points="730.85 277.76 725.61 277.76 725.61 257.56 730.85 257.56 730.85 277.76 730.85 277.76"/><polygon class="cls-16" points="741.34 277.76 735.54 277.76 735.54 257.56 741.34 257.56 741.34 277.76 741.34 277.76"/><polygon class="cls-16" points="750.32 302.93 745.08 302.93 745.08 282.73 750.32 282.73 750.32 302.93 750.32 302.93"/><polygon class="cls-16" points="730.85 303.14 725.61 303.14 725.61 282.94 730.85 282.94 730.85 303.14 730.85 303.14"/><polygon class="cls-16" points="741.34 303.14 735.54 303.14 735.54 282.94 741.34 282.94 741.34 303.14 741.34 303.14"/><polygon class="cls-16" points="750.32 328.3 745.08 328.3 745.08 308.1 750.32 308.1 750.32 328.3 750.32 328.3"/><polygon class="cls-16" points="730.85 328.51 725.61 328.51 725.61 308.31 730.85 308.31 730.85 328.51 730.85 328.51"/><polygon class="cls-16" points="741.34 328.51 735.54 328.51 735.54 308.31 741.34 308.31 741.34 328.51 741.34 328.51"/><polygon class="cls-16" points="750.32 353.67 745.08 353.67 745.08 333.47 750.32 333.47 750.32 353.67 750.32 353.67"/><polygon class="cls-16" points="730.85 353.88 725.61 353.88 725.61 333.68 730.85 333.68 730.85 353.88 730.85 353.88"/><polygon class="cls-16" points="741.34 353.88 735.54 353.88 735.54 333.68 741.34 333.68 741.34 353.88 741.34 353.88"/><polygon class="cls-16" points="750.32 379.05 745.08 379.05 745.08 358.85 750.32 358.85 750.32 379.05 750.32 379.05"/><polygon class="cls-16" points="730.85 379.25 725.61 379.25 725.61 359.06 730.85 359.06 730.85 379.25 730.85 379.25"/><polygon class="cls-16" points="741.34 379.25 735.54 379.25 735.54 359.06 741.34 359.06 741.34 379.25 741.34 379.25"/><polygon class="cls-16" points="750.32 404.42 745.08 404.42 745.08 384.22 750.32 384.22 750.32 404.42 750.32 404.42"/><polygon class="cls-16" points="730.85 404.63 725.61 404.63 725.61 384.43 730.85 384.43 730.85 404.63 730.85 404.63"/><polygon class="cls-16" points="741.34 404.63 735.54 404.63 735.54 384.43 741.34 384.43 741.34 404.63 741.34 404.63"/><g class="cls-2"><path class="cls-14" d="M204.29,294.5c.07-.29.16-.66.25-1.1l.41-.07a5.7,5.7,0,0,1-.66,1.16m-1.48-1c.34,0,.69,0,1,0-.28,1.26-.56,2.49-.85,3.59a14.57,14.57,0,0,1-.18-3.54m-3.25,13.86a39.67,39.67,0,0,0-.71-4.27c-.25-1.07-.71-5.46-1.18-10.58a8.6,8.6,0,0,1,.93.27,12.41,12.41,0,0,0,3.88.72,42.49,42.49,0,0,0,.05,4.79,63.67,63.67,0,0,1-3,9.07m38.18-23.63a5.73,5.73,0,0,0-5-4.4c2.21-1.85,3.83-4.23,3.41-6.43a4.47,4.47,0,0,0-2.87-3.74V269c0-3-4-5.54-9.49-6.27-3.76-2.16-7.52-2.23-9.34-1.07.83-2,1.3-5.25-2.12-6.07-5.82-1.39-14.65-1.76-15.88,3.5a9.32,9.32,0,0,0-2.08,1.5l-.64-.06c-8-.7-15.65-5-18.19,4.89-.09.36-4,2.87-5.36,6a6.4,6.4,0,0,0-3.14,4.41,18.49,18.49,0,0,0-8,3.18c-2.88.77-4.74,2-4.74,3.32a2.52,2.52,0,0,0,1.39,1.95c0,.16,0,.33,0,.5,0,5.13,7,9.28,15.55,9.28a25.47,25.47,0,0,0,4.19-.34,4.67,4.67,0,0,0,6.61,1.29c3.4-.29,7.7-2.28,11.8-2.71a30.47,30.47,0,0,1,2.74,11.21c.33,8.67.46,32.47.46,32.47h3.08l-.49-25.32c1.2-3.67,3.11-10,4.39-14.87h0l1.24-2.57a13.8,13.8,0,0,0,2.51-.75c3.68.89,9.12,2.27,11.79,3.27,4.26,1.6,20.22-3.7,18.18-12"/><path class="cls-17" d="M754.76,369v97H119.54C173.8,441,255.62,406.24,329.79,386.83c107.63-28.17,357.76-20.47,425-17.8"/></g><path class="cls-18" d="M283.92,151.27h-.41a19.84,19.84,0,0,0-1.35-4.66,14.89,14.89,0,0,0-2.93-4.47,9.86,9.86,0,0,0-3.94-2.51,8.54,8.54,0,0,0-8.43,2.08,13.79,13.79,0,0,0-3.15,4.39c-.38.82-1,2.54-1,2.54h-1a30,30,0,0,0-2.18-4.84,11.33,11.33,0,0,0-3.64-3.5,8.19,8.19,0,0,0-8.55.17,12,12,0,0,0-3.56,3.5,17.68,17.68,0,0,0-2.33,5.16c-.16.58-.29,1.18-.4,1.79h-.57l-7,5.86.77-.23c0,5,2.91,9.16,6.48,9.18s6.52-4.22,6.55-9.35l1.36.46-7.1-5.91h-.22c.12-.56.26-1.11.43-1.64a16.54,16.54,0,0,1,2.39-4.86,11.08,11.08,0,0,1,3.47-3.19,7.53,7.53,0,0,1,8,.23,12.23,12.23,0,0,1,3.35,3.23,18,18,0,0,1,2.84,6.53L260.6,287.49h-1.9l.32,12.09h-1.92l1.07,25.63,6.68,0,1.22-25.62h-1.91l.4-12.09h-1.7l-.12-136.27a19.15,19.15,0,0,1,4.58-8.47,8,8,0,0,1,7.83-2.32,9.12,9.12,0,0,1,3.81,2.22,13.8,13.8,0,0,1,3,4.15,19,19,0,0,1,1.45,4.45h-.48l-7,5.86,1.11-.34c0,5.06,2.87,9.27,6.48,9.28s6.5-4.12,6.54-9.24l1,.35-7.1-5.91Z"/><path class="cls-19" d="M269.77,331.41a29.52,29.52,0,0,0,2.7-12.8c0-10.32-5.16-18.69-11.53-18.69a8.82,8.82,0,0,0-6.5,3.25,23.28,23.28,0,0,0-17.15-12.55c-2-5-4.9-8.1-8.14-8.1-4.07,0-7.61,4.93-9.48,12.21a23.24,23.24,0,0,0-5.31,5.3,7.26,7.26,0,0,0-1.28-.12,8.82,8.82,0,0,0-6.5,3.25,23.47,23.47,0,0,0-43.84,5.45l-.61.27c-2.09-4.54-5.52-7.51-9.4-7.51a9,9,0,0,0-6.5,3.09,22.17,22.17,0,0,0-6.53-7.56c-.12-14.37-5.92-25.94-13.08-25.94-6.85,0-12.46,10.62-13,24.15a21.9,21.9,0,0,0-11.21,14.54,13.6,13.6,0,0,0-8.64,10.57,21.48,21.48,0,0,0-8.56-1.74c-5.86,0-11,2.22-14.12,5.6a23.21,23.21,0,0,0-4-.34c-7.4,0-13.45,3.37-14,7.64H269.77"/><path class="cls-20" d="M398.78,271.69a211.45,211.45,0,0,1-2.17,31.12c-2.88,19.1-8.32,32-14.56,32-9.24,0-16.73-28.25-16.73-63.1,0-31.74,6.21-58,14.3-62.44a5,5,0,0,1,2.43-.66c9.24,0,16.73,28.26,16.73,63.11Z"/><path class="cls-21" d="M398.78,271.69a211.45,211.45,0,0,1-2.17,31.12c-1.84-3.66-3.1-8-1.34-15.34,4.77-19.81-5.34-27.93-11.27-38.09s.32-11.18,1.95-25.79c.57-5.16-2.33-10.1-6.33-14.34a5,5,0,0,1,2.43-.66c9.24,0,16.73,28.26,16.73,63.11Z"/><path class="cls-20" d="M475.93,290.84c0,33.92-6.35,61.42-14.18,61.42-5.25,0-9.83-12.37-12.28-30.74a235.06,235.06,0,0,1-1.9-30.68c0-33.92,6.35-61.42,14.18-61.42a3.43,3.43,0,0,1,1.26.25c7.24,2.77,12.91,29.1,12.91,61.17Z"/><polygon class="cls-22" points="384 363.97 380.1 363.97 381.62 277.47 384 363.97 384 363.97"/><path class="cls-20" d="M441.65,278.42a211.38,211.38,0,0,1-2.17,31.12c-2.88,19.1-8.32,32-14.56,32-9.24,0-16.73-28.25-16.73-63.1,0-31.74,6.21-58,14.3-62.45a5,5,0,0,1,2.43-.66c9.24,0,16.73,28.26,16.73,63.11Z"/><path class="cls-23" d="M441.65,278.42a211.38,211.38,0,0,1-2.17,31.12c-1.84-3.66-3.1-8-1.34-15.34,4.77-19.81-5.34-27.93-11.27-38.09s.32-11.18,1.95-25.79c.57-5.16-2.33-10.1-6.33-14.34a5,5,0,0,1,2.43-.66c9.24,0,16.73,28.26,16.73,63.11Z"/><polygon class="cls-22" points="428.82 370.18 424.92 370.18 426.44 283.68 428.82 370.18 428.82 370.18"/><path class="cls-20" d="M224.6,240.09a211.46,211.46,0,0,1-2.17,31.12c-2.88,19.1-8.32,32-14.56,32-9.24,0-16.73-28.25-16.73-63.1,0-31.74,6.21-58,14.3-62.44a5,5,0,0,1,2.43-.66c9.24,0,16.73,28.26,16.73,63.11Z"/><path class="cls-21" d="M224.6,240.09a211.46,211.46,0,0,1-2.17,31.12c-1.84-3.66-3.1-8-1.34-15.34,4.77-19.81-5.34-27.93-11.27-38.09s.32-11.18,1.95-25.79c.57-5.16-2.33-10.1-6.33-14.34a5,5,0,0,1,2.43-.66c9.24,0,16.73,28.26,16.73,63.11Z"/><polyline class="cls-22" points="209.82 331.84 205.92 331.84 207.44 245.34 209.82 331.84"/><path class="cls-24" d="M68.17,251.83A185,185,0,0,1,66.27,279c-2.52,16.71-7.28,28-12.73,28-8.09,0-14.64-24.71-14.64-55.2,0-27.76,5.43-50.74,12.51-54.62a4.36,4.36,0,0,1,2.13-.58c8.08,0,14.64,24.72,14.64,55.2Z"/><path class="cls-25" d="M68.17,251.83A185,185,0,0,1,66.27,279c-1.61-3.2-2.71-7-1.17-13.42,4.18-17.33-4.67-24.43-9.86-33.32s.28-9.78,1.7-22.55c.5-4.51-2-8.84-5.54-12.55a4.36,4.36,0,0,1,2.13-.58c8.08,0,14.64,24.72,14.64,55.2Z"/><polyline class="cls-26" points="56.94 332.08 53.53 332.08 54.87 256.43 56.94 332.08"/><polygon class="cls-22" points="463.7 365.13 459.8 365.13 461.33 278.63 463.7 365.13 463.7 365.13"/><path class="cls-23" d="M452.52,274.73c-4.91,19.62-2.86,18.22,0,31.14,1.88,8.51-1,11.46-3,15.64a235.06,235.06,0,0,1-1.9-30.68c0-33.92,6.35-61.42,14.18-61.42a3.43,3.43,0,0,1,1.26.25c-3.59,7.2-7.12,16.65-5.12,23.13,3.65,11.79-.47,2.31-5.39,21.94Z"/><path class="cls-27" d="M433.95,352.39a15,15,0,1,1-15-15,15,15,0,0,1,15,15Z"/><path class="cls-27" d="M454,336.38c0,10.1-7,18.29-15.72,18.29s-15.72-8.19-15.72-18.29,7-18.29,15.72-18.29S454,326.27,454,336.38Z"/><path class="cls-28" d="M466.24,353.82a13,13,0,1,1-13-13.06,13,13,0,0,1,13,13.06Z"/><path class="cls-29" d="M453.25,355.24c-1.39,1.12-2.83,2.17-4.26,3.24l-4.3,3.19-7.76,5.73.3-34.17-1.7,31.71-16.18-12,16.09,13.61-.27,5H437l0-2.49,8.16-6.86,4.09-3.46c1.29-1.11,2.6-2.2,3.86-3.34l.19-.17Z"/><path class="cls-30" d="M414.52,358.84a7.72,7.72,0,0,1,1.16-1.78,1.56,1.56,0,0,1,1.24-.08,1.57,1.57,0,0,1-.39,1.19,7.65,7.65,0,0,1-2,.67Z"/><path class="cls-30" d="M417,360.28a7.76,7.76,0,0,1,.2-2.11c.24-.52,1.06-.65,1.06-.65a1.58,1.58,0,0,1,.2,1.24,7.68,7.68,0,0,1-1.46,1.53Z"/><path class="cls-30" d="M416.83,354.57a6.85,6.85,0,0,0,.49,1.7c.26.38.9.3.9.3a1.48,1.48,0,0,0-.05-1.06,5.4,5.4,0,0,0-1.34-.93Z"/><path class="cls-30" d="M418.92,353.82a7.49,7.49,0,0,0-.28,1.8c.07.48.65.74.65.74a1.49,1.49,0,0,0,.4-1,6.37,6.37,0,0,0-.77-1.55Z"/><path class="cls-30" d="M419.75,360.68a7.74,7.74,0,0,1-.77-2c0-.57.66-1.06.66-1.06s.71.44.73,1a7.73,7.73,0,0,1-.62,2Z"/><path class="cls-30" d="M412.57,355.16a11,11,0,0,1,2.56.17.83.83,0,1,1-.47,1.32,11.06,11.06,0,0,1-2.1-1.49Z"/><path class="cls-30" d="M416.11,356.42a18.47,18.47,0,0,0,1.87.48,11,11,0,0,0,1.9.23,6,6,0,0,0,1.87-.25,17.24,17.24,0,0,0,1.81-.65,9.51,9.51,0,0,1-1.76.83,5.53,5.53,0,0,1-1.93.3,9.18,9.18,0,0,1-1.93-.29,10.32,10.32,0,0,1-1.83-.64Z"/><path class="cls-30" d="M426.12,347.51a7.7,7.7,0,0,0-1.69,1.28,1.58,1.58,0,0,0,0,1.25s.84,0,1.15-.48a7.74,7.74,0,0,0,.53-2.06Z"/><path class="cls-30" d="M427.71,349.86a7.62,7.62,0,0,0-2.09.34c-.5.27-.58,1.11-.58,1.11a1.55,1.55,0,0,0,1.24.12,7.7,7.7,0,0,0,1.42-1.57Z"/><path class="cls-30" d="M422,350.13a6.74,6.74,0,0,1,1.72.38c.39.24.36.88.36.88a1.46,1.46,0,0,1-1.06,0,5.43,5.43,0,0,1-1-1.28Z"/><path class="cls-30" d="M421.44,352.27a7.36,7.36,0,0,1,1.77-.4c.48,0,.78.6.78.6a1.48,1.48,0,0,1-1,.47,6.31,6.31,0,0,1-1.59-.67Z"/><path class="cls-30" d="M428.31,352.63a7.66,7.66,0,0,0-2-.64c-.57,0-1,.73-1,.73s.48.68,1.06.67a7.65,7.65,0,0,0,2-.76Z"/><path class="cls-30" d="M422.33,345.82a11.18,11.18,0,0,0,.35,2.56.83.83,0,1,0,1.28-.56,11.09,11.09,0,0,0-1.62-2Z"/><path class="cls-30" d="M423.83,349.28a18.79,18.79,0,0,1,.6,1.84,11.1,11.1,0,0,1,.36,1.89,6,6,0,0,1-.12,1.9,17.19,17.19,0,0,1-.53,1.86,9.59,9.59,0,0,0,.7-1.82,5.61,5.61,0,0,0,.17-2,9.38,9.38,0,0,0-.42-1.91,10.45,10.45,0,0,0-.76-1.79Z"/><path class="cls-30" d="M417.22,342.57a7.73,7.73,0,0,0-1.25,1.72,1.58,1.58,0,0,0,.36,1.2s.8-.24,1-.79a7.76,7.76,0,0,0-.09-2.12Z"/><path class="cls-30" d="M419.42,344.35a7.64,7.64,0,0,0-1.9.94,1.58,1.58,0,0,0-.23,1.23,1.56,1.56,0,0,0,1.22-.25,7.72,7.72,0,0,0,.91-1.92Z"/><path class="cls-30" d="M414.07,346.26a6.75,6.75,0,0,1,1.75-.14c.44.11.6.74.6.74a1.46,1.46,0,0,1-1,.33,5.4,5.4,0,0,1-1.34-.93Z"/><path class="cls-30" d="M414.11,348.49a7.4,7.4,0,0,1,1.57-.9,1.17,1.17,0,0,1,.92.35s-.31.62-.78.73a6.33,6.33,0,0,1-1.71-.17Z"/><path class="cls-30" d="M420.79,346.84a7.63,7.63,0,0,0-2.11,0c-.54.18-.76,1-.76,1a1.56,1.56,0,0,0,1.2.33,7.69,7.69,0,0,0,1.67-1.3Z"/><path class="cls-30" d="M413.11,342a11.14,11.14,0,0,0,1.07,2.35,2,2,0,0,0,1.36.53,2,2,0,0,0-.3-1.43,11.09,11.09,0,0,0-2.13-1.44Z"/><path class="cls-30" d="M415.54,344.93a18.43,18.43,0,0,1,1.1,1.59,11.12,11.12,0,0,1,.88,1.7,6,6,0,0,1,.43,1.85,17.3,17.3,0,0,1,0,1.93,9.61,9.61,0,0,0,.15-1.94,5.61,5.61,0,0,0-.4-1.92,9.33,9.33,0,0,0-.95-1.71,10.36,10.36,0,0,0-1.24-1.49Z"/><path class="cls-30" d="M459.44,358.63a7.7,7.7,0,0,0-1.51-1.48,1.55,1.55,0,0,0-1.23.19s.12.83.64,1.07a7.66,7.66,0,0,0,2.1.22Z"/><path class="cls-30" d="M457.38,360.57a7.75,7.75,0,0,0-.65-2c-.34-.46-1.18-.41-1.18-.41a1.58,1.58,0,0,0,.07,1.25,7.66,7.66,0,0,0,1.76,1.18Z"/><path class="cls-30" d="M456.26,355a6.82,6.82,0,0,1-.12,1.76c-.17.42-.81.49-.81.49a1.48,1.48,0,0,1-.18-1,5.41,5.41,0,0,1,1.11-1.2Z"/><path class="cls-30" d="M454.06,354.69a7.47,7.47,0,0,1,.66,1.69,1.18,1.18,0,0,1-.48.86,1.48,1.48,0,0,1-.6-.88,6.38,6.38,0,0,1,.42-1.68Z"/><path class="cls-30" d="M454.73,361.57a7.76,7.76,0,0,0,.32-2.1c-.1-.56-.87-.9-.87-.9s-.6.58-.5,1.15a7.72,7.72,0,0,0,1,1.85Z"/><path class="cls-30" d="M460.55,354.62a11,11,0,0,0-2.46.73,2,2,0,0,0-.72,1.28,2,2,0,0,0,1.45-.09,11.11,11.11,0,0,0,1.73-1.91Z"/><path class="cls-30" d="M457.36,356.62a18.62,18.62,0,0,1-1.72.87,11,11,0,0,1-1.8.64,5.94,5.94,0,0,1-1.88.16,17,17,0,0,1-1.91-.24,9.45,9.45,0,0,0,1.89.42,5.53,5.53,0,0,0,2-.13,9.25,9.25,0,0,0,1.82-.7,10.39,10.39,0,0,0,1.65-1Z"/><path class="cls-30" d="M449.86,351.12a7.74,7.74,0,0,1,.78,2c0,.57-.65,1.07-.65,1.07s-.71-.43-.74-1a7.73,7.73,0,0,1,.6-2Z"/><path class="cls-30" d="M447.28,352.29a7.7,7.7,0,0,1,1.61,1.38,1.57,1.57,0,0,1-.08,1.25s-.83,0-1.12-.54a7.75,7.75,0,0,1-.41-2.08Z"/><path class="cls-30" d="M452,355.48a6.76,6.76,0,0,0-1.66-.57c-.46,0-.76.57-.76.57s.44.57.89.57a5.38,5.38,0,0,0,1.53-.57Z"/><path class="cls-30" d="M451.41,357.62a7.4,7.4,0,0,0-1.3-1.26,1.16,1.16,0,0,0-1,.11,1.48,1.48,0,0,0,.58.9,6.32,6.32,0,0,0,1.7.26Z"/><path class="cls-30" d="M445.35,354.36a7.66,7.66,0,0,1,2.05.5c.48.31.49,1.15.49,1.15a1.55,1.55,0,0,1-1.25,0,7.7,7.7,0,0,1-1.3-1.68Z"/><path class="cls-30" d="M454,351.63a11.13,11.13,0,0,1-1.61,2,2,2,0,0,1-1.45.18,2,2,0,0,1,.64-1.32,11,11,0,0,1,2.42-.87Z"/><path class="cls-30" d="M450.91,353.82a18.66,18.66,0,0,0-1.46,1.26,11,11,0,0,0-1.28,1.43,6,6,0,0,0-.87,1.68,17,17,0,0,0-.51,1.86,9.62,9.62,0,0,1,.34-1.92,5.6,5.6,0,0,1,.87-1.76,9.32,9.32,0,0,1,1.34-1.42,10.35,10.35,0,0,1,1.57-1.14Z"/><path class="cls-30" d="M449.77,338a6.12,6.12,0,0,0-1.85-1c-.59-.06-1.27.73-1.27.73s.27.88.86.93a8.45,8.45,0,0,0,2.27-.63Z"/><path class="cls-30" d="M447.9,341a7.24,7.24,0,0,0-1-2c-.44-.37-1.32,0-1.32,0s-.16,1,.28,1.37a6.38,6.38,0,0,0,2.06.58Z"/><path class="cls-30" d="M445.79,335.2a8.16,8.16,0,0,1,.17,2,1.59,1.59,0,0,1-.78.88,1.49,1.49,0,0,1-.36-1.1,8.56,8.56,0,0,1,1-1.81Z"/><path class="cls-30" d="M443.41,335.8a6.67,6.67,0,0,1,1,1.62,1.77,1.77,0,0,1-.36,1.17s-.67-.21-.79-.73a8.61,8.61,0,0,1,.16-2Z"/><path class="cls-30" d="M445.26,343.22a9.87,9.87,0,0,0,0-2.48c-.2-.59-1.07-.64-1.07-.64a2.29,2.29,0,0,0-.34,1.49,6.45,6.45,0,0,0,1.41,1.63Z"/><path class="cls-30" d="M450.28,333a15.36,15.36,0,0,0-2.49,1.84,2.91,2.91,0,0,0-.55,1.73,2.33,2.33,0,0,0,1.53-.71,17.51,17.51,0,0,0,1.52-2.86Z"/><path class="cls-30" d="M447.23,336.58q-.81.89-1.68,1.69a15.64,15.64,0,0,1-1.81,1.46,7.4,7.4,0,0,1-2,1,18.06,18.06,0,0,1-2.06.52,9.55,9.55,0,0,0,2.08-.32,6.83,6.83,0,0,0,2-1,13.41,13.41,0,0,0,1.81-1.54,16,16,0,0,0,1.58-1.83Z"/><path class="cls-30" d="M444.18,325.23a6.1,6.1,0,0,0-2.11.08c-.53.26-.72,1.28-.72,1.28s.68.61,1.21.35a8.49,8.49,0,0,0,1.62-1.72Z"/><path class="cls-30" d="M444.13,328.79a7.21,7.21,0,0,0-1.9-1.17c-.57-.09-1.11.71-1.11.71s.38.94.94,1a6.35,6.35,0,0,0,2.06-.57Z"/><path class="cls-30" d="M439.35,324.92a8.17,8.17,0,0,1,1.18,1.64,1.6,1.6,0,0,1-.22,1.16,1.47,1.47,0,0,1-.88-.75,8.57,8.57,0,0,1-.09-2.05Z"/><path class="cls-30" d="M437.62,326.67a6.62,6.62,0,0,1,1.67.88,1.77,1.77,0,0,1,.29,1.19,1.21,1.21,0,0,1-1-.22,8.59,8.59,0,0,1-.91-1.84Z"/><path class="cls-30" d="M443,332.06a9.85,9.85,0,0,0-1.28-2.12c-.48-.4-1.25,0-1.25,0s0,1.05.48,1.45a6.41,6.41,0,0,0,2,.66Z"/><path class="cls-30" d="M442.07,320.72a15.43,15.43,0,0,0-1.19,2.87,2.91,2.91,0,0,0,.41,1.76,2.34,2.34,0,0,0,.95-1.4,17.56,17.56,0,0,0-.17-3.23Z"/><path class="cls-30" d="M441.29,325.35q-.24,1.18-.57,2.32a15.78,15.78,0,0,1-.8,2.19,7.47,7.47,0,0,1-1.19,1.85,18.67,18.67,0,0,1-1.5,1.52,9.65,9.65,0,0,0,1.62-1.35,6.84,6.84,0,0,0,1.26-1.88,13.45,13.45,0,0,0,.76-2.26,16.1,16.1,0,0,0,.41-2.39Z"/><path class="cls-30" d="M429,334.63a6.1,6.1,0,0,1,2.11.08c.53.26.72,1.28.72,1.28s-.68.61-1.21.35a8.49,8.49,0,0,1-1.62-1.72Z"/><path class="cls-30" d="M429,338.19a7.2,7.2,0,0,1,1.9-1.17c.57-.09,1.11.71,1.11.71s-.38.94-.94,1a6.38,6.38,0,0,1-2.07-.57Z"/><path class="cls-30" d="M433.82,334.32a8.15,8.15,0,0,0-1.18,1.64,1.6,1.6,0,0,0,.22,1.16,1.48,1.48,0,0,0,.88-.75,8.58,8.58,0,0,0,.09-2.05Z"/><path class="cls-30" d="M435.54,336.07a6.63,6.63,0,0,0-1.67.88,1.77,1.77,0,0,0-.29,1.19,1.21,1.21,0,0,0,1-.22,8.57,8.57,0,0,0,.91-1.84Z"/><path class="cls-30" d="M430.16,341.46a9.85,9.85,0,0,1,1.28-2.12c.48-.4,1.25,0,1.25,0s0,1.05-.48,1.45a6.4,6.4,0,0,1-2,.66Z"/><path class="cls-30" d="M431.1,330.12a15.49,15.49,0,0,1,1.19,2.87,2.91,2.91,0,0,1-.42,1.76,2.35,2.35,0,0,1-.95-1.4,17.51,17.51,0,0,1,.17-3.23Z"/><path class="cls-30" d="M431.87,334.75c.16.79.35,1.56.57,2.32a15.82,15.82,0,0,0,.8,2.19,7.45,7.45,0,0,0,1.19,1.85,18.49,18.49,0,0,0,1.5,1.52,9.69,9.69,0,0,1-1.62-1.35,6.87,6.87,0,0,1-1.26-1.88,13.54,13.54,0,0,1-.76-2.26,16,16,0,0,1-.41-2.39Z"/><g class="cls-2"><path class="cls-31" d="M740.06,366.79c2.83-5.39,4.47-13.54,4.47-21.16,0-17.06-8.54-30.89-19.06-30.89-4,0-7.68,2-10.74,5.37a38.48,38.48,0,0,0-28.34-20.74c-3.3-8.19-8.09-13.38-13.45-13.38-6.72,0-12.57,8.14-15.67,20.19a38.35,38.35,0,0,0-8.77,8.77,12,12,0,0,0-2.11-.2c-4,0-7.68,2-10.74,5.37A38.6,38.6,0,0,0,601,298.84c-18.68,0-34.26,13-37.78,30.28-.34.14-.67.3-1,.45-3.45-7.5-9.12-12.41-15.53-12.41-4,0-7.68,1.89-10.74,5.11a36.62,36.62,0,0,0-10.79-12.49c-.2-23.75-9.79-42.88-21.61-42.88-11.32,0-20.6,17.56-21.54,39.91a36.19,36.19,0,0,0-18.52,24,22.47,22.47,0,0,0-14.29,17.47A35.5,35.5,0,0,0,435,345.47c-9.69,0-18.23,3.67-23.34,9.25a38.49,38.49,0,0,0-6.53-.56c-12.24,0-22.23,5.57-23.09,12.63Z"/><path class="cls-19" d="M771.64,369.75c0-9.82-14.14-17.85-32-18.46a28.73,28.73,0,0,0,1.12-8c0-14.25-10.3-25.8-23-25.8-8.52,0-16,5.2-19.92,12.92a26.64,26.64,0,0,0-13.39-3.52c-10.06,0-18.66,5.32-22.13,12.85a39.24,39.24,0,0,0-4.14,2.1,39.24,39.24,0,0,0-4.14-2.1c-3.47-7.52-12.06-12.85-22.12-12.85a26.64,26.64,0,0,0-13.39,3.52c-4-7.72-11.41-12.92-19.93-12.92-12.71,0-23,11.55-23,25.8a28.73,28.73,0,0,0,1.12,8c-10.11.35-19,3.07-24.85,7.15a1.4,1.4,0,0,1-2.17-.82c-1.9-7.68-8.91-14.23-18.68-18.12-3.79-7.52-13.2-12.85-24.22-12.85a31.32,31.32,0,0,0-14.66,3.52,25.06,25.06,0,0,0-21.82-12.92c-13.91,0-25.18,11.55-25.18,25.8a26.41,26.41,0,0,0,1.23,8c-19.55.61-35,8.64-35,18.46,0,.93,0,2.59.13,4.06l109.41.22,24,0h0l99.94.22h3.65l0,0,9.72,0,9.72,0,0,0h3.65l99.94-.22c.13-1.46.12-3.13.12-4.06Z"/><path class="cls-32" d="M753.78,382.57v83.5H336.27C387.21,443.81,451,418.67,510,403.23c24.92-6.53,57.47-11.13,93.62-14.3q7.56-.67,15.31-1.25h0q7.74-.58,15.65-1.09c24.91-1.61,50.9-2.66,76.81-3.3q7.29-.19,14.56-.32,14-.27,27.84-.4"/></g><path class="cls-33" d="M689,113c0,8.54-4.89,15.45-10.86,15.43s-10.78-7-10.75-15.5l11-4.69L689,113Z"/><g class="cls-2"><path class="cls-34" d="M687.21,112.18l-8.76-3.94-11,4.69c0,6.25,2.55,11.64,6.27,14.09a7.61,7.61,0,0,0,2.25.35c5.81,0,10.62-6.63,11.26-15.19Z"/><path class="cls-33" d="M760,113.6c0,8.54-4.89,15.45-10.85,15.43s-10.78-7-10.75-15.5l11-4.69L760,113.6Z"/><path class="cls-34" d="M758.13,112.78l-8.75-3.94-11,4.69c0,6.25,2.55,11.64,6.27,14.09a7.65,7.65,0,0,0,2.25.35c5.81,0,10.62-6.63,11.25-15.19Z"/><path class="cls-35" d="M749.87,104.48h-.69a32.93,32.93,0,0,0-2.24-7.74c-2.24-5.15-6.05-9.85-11.4-11.57-5-1.63-10.07-.05-14,3.44a22.93,22.93,0,0,0-5.22,7.29c-.63,1.36-1.58,4.21-1.58,4.21h-1.68s-2-5.63-3.62-8a18.66,18.66,0,0,0-6-5.8,13.58,13.58,0,0,0-14.18.28c-5,3.09-8.21,8.71-9.77,14.37-.27,1-.49,2-.67,3h-.94l-11.69,9.72s8.21-2.58,12-3a9.38,9.38,0,0,1,1-.07c3.15,0,12.13,3.18,12.13,3.18l-11.77-9.8h-.37c.2-.93.44-1.84.71-2.72,1.63-5.27,4.89-10.64,9.72-13.35a12.49,12.49,0,0,1,13.26.38,20.28,20.28,0,0,1,5.55,5.36,28.36,28.36,0,0,1,3.9,7.88c.31,1,.57,1.95.8,3l-2.24,263.8H715l-.22-263.79a25,25,0,0,1,2.8-7.33,24.8,24.8,0,0,1,4.8-6.73c3.9-3.85,8.63-5.05,13-3.85,5.07,1.39,9,5.79,11.23,10.58a31.35,31.35,0,0,1,2.4,7.39h-.79l-11.68,9.72s9.87-3.1,13-3.09,12.13,3.18,12.13,3.18l-11.78-9.8Z"/></g><polygon class="cls-36" points="716.41 372.27 709.17 372.25 708.05 330.43 717.78 330.46 716.41 372.27 716.41 372.27"/><polygon class="cls-37" points="720.29 350.52 718.27 393.03 707.19 392.99 705.41 350.47 720.29 350.52 720.29 350.52"/><path class="cls-36" d="M717.87,393l-10.68,0-1.78-42.52,11.35,0c-1.55,13.91-3.45,33.29-2.45,36.85a9.86,9.86,0,0,0,3.57,5.67Z"/><path class="cls-27" d="M267,317.48a9,9,0,1,1-9-9,9,9,0,0,1,9,9Z"/><path class="cls-27" d="M279,307.87c0,6.07-4.23,11-9.44,11s-9.44-4.92-9.44-11,4.23-11,9.44-11,9.44,4.92,9.44,11Z"/><path class="cls-27" d="M286.35,318.34a7.8,7.8,0,1,1-7.8-7.84,7.82,7.82,0,0,1,7.8,7.84Z"/><path class="cls-29" d="M278.55,319.19c-.83.67-1.7,1.3-2.56,1.95l-2.58,1.92-4.66,3.44.18-20.51-1,19-9.71-7.21,9.66,8.17-.16,3h1.08l0-1.5,4.9-4.12,2.46-2.08c.78-.67,1.56-1.32,2.32-2l.11-.1Z"/><path class="cls-30" d="M255.3,321.35a4.64,4.64,0,0,1,.69-1.07.93.93,0,0,1,.75,0s0,.5-.24.71a4.59,4.59,0,0,1-1.2.4Z"/><path class="cls-30" d="M256.76,322.21a4.64,4.64,0,0,1,.12-1.27c.14-.31.64-.39.64-.39a.94.94,0,0,1,.12.74,4.62,4.62,0,0,1-.88.92Z"/><path class="cls-30" d="M256.69,318.79a4.12,4.12,0,0,0,.3,1c.16.23.54.18.54.18a.89.89,0,0,0,0-.64,3.24,3.24,0,0,0-.81-.56Z"/><path class="cls-30" d="M257.94,318.34a4.48,4.48,0,0,0-.17,1.08c0,.29.39.44.39.44a.89.89,0,0,0,.24-.59,3.82,3.82,0,0,0-.46-.93Z"/><path class="cls-30" d="M258.44,322.46a4.63,4.63,0,0,1-.46-1.19c0-.34.39-.64.39-.64s.43.26.44.61a4.66,4.66,0,0,1-.37,1.22Z"/><path class="cls-30" d="M254.13,319.14a6.59,6.59,0,0,1,1.54.1.5.5,0,1,1-.28.79,6.65,6.65,0,0,1-1.26-.89Z"/><path class="cls-30" d="M256.25,319.9a10.91,10.91,0,0,0,1.12.28,6.58,6.58,0,0,0,1.14.14,3.58,3.58,0,0,0,1.13-.15,10.26,10.26,0,0,0,1.09-.39,5.74,5.74,0,0,1-1.05.5,3.34,3.34,0,0,1-1.16.18,5.53,5.53,0,0,1-1.16-.17,6.2,6.2,0,0,1-1.1-.38Z"/><path class="cls-30" d="M262.26,314.55a4.6,4.6,0,0,0-1,.77,1,1,0,0,0,0,.75s.5,0,.69-.29a4.65,4.65,0,0,0,.32-1.23Z"/><path class="cls-30" d="M263.22,316a4.58,4.58,0,0,0-1.25.21c-.3.16-.35.67-.35.67a.93.93,0,0,0,.74.07,4.61,4.61,0,0,0,.85-.94Z"/><path class="cls-30" d="M259.81,316.12a4,4,0,0,1,1,.23c.23.14.21.53.21.53a.88.88,0,0,1-.63,0,3.25,3.25,0,0,1-.61-.77Z"/><path class="cls-30" d="M259.45,317.41a4.42,4.42,0,0,1,1.06-.24c.29,0,.47.36.47.36a.88.88,0,0,1-.57.28,3.8,3.8,0,0,1-1-.4Z"/><path class="cls-30" d="M263.57,317.63a4.59,4.59,0,0,0-1.21-.38c-.34,0-.61.44-.61.44s.29.41.63.4a4.59,4.59,0,0,0,1.18-.46Z"/><path class="cls-30" d="M260,313.53a6.7,6.7,0,0,0,.21,1.54.5.5,0,1,0,.77-.33,6.68,6.68,0,0,0-1-1.2Z"/><path class="cls-30" d="M260.89,315.61a11.09,11.09,0,0,1,.36,1.1,6.66,6.66,0,0,1,.21,1.13,3.61,3.61,0,0,1-.07,1.14,10.37,10.37,0,0,1-.32,1.12,5.75,5.75,0,0,0,.42-1.09,3.38,3.38,0,0,0,.1-1.18,5.64,5.64,0,0,0-.25-1.15,6.26,6.26,0,0,0-.46-1.08Z"/><path class="cls-30" d="M256.92,311.59a4.62,4.62,0,0,0-.75,1,.94.94,0,0,0,.22.72s.48-.15.58-.48a4.66,4.66,0,0,0-.05-1.27Z"/><path class="cls-30" d="M258.24,312.65a4.6,4.6,0,0,0-1.14.56,1,1,0,0,0-.14.74.93.93,0,0,0,.73-.15,4.65,4.65,0,0,0,.55-1.15Z"/><path class="cls-30" d="M255,313.8a4,4,0,0,1,1.05-.08c.27.07.36.44.36.44a.88.88,0,0,1-.6.2,3.24,3.24,0,0,1-.8-.56Z"/><path class="cls-30" d="M255.05,315.14a4.46,4.46,0,0,1,.94-.54.7.7,0,0,1,.55.21s-.19.37-.47.44a3.78,3.78,0,0,1-1-.11Z"/><path class="cls-30" d="M259.06,314.14a4.59,4.59,0,0,0-1.27,0c-.33.11-.46.6-.46.6a.94.94,0,0,0,.72.2,4.6,4.6,0,0,0,1-.78Z"/><path class="cls-30" d="M254.45,311.27a6.69,6.69,0,0,0,.64,1.41,1.17,1.17,0,0,0,.82.32,1.19,1.19,0,0,0-.18-.86,6.65,6.65,0,0,0-1.28-.87Z"/><path class="cls-30" d="M255.91,313a11.42,11.42,0,0,1,.66,1,6.65,6.65,0,0,1,.53,1,3.6,3.6,0,0,1,.26,1.11,10.23,10.23,0,0,1,0,1.16,5.75,5.75,0,0,0,.09-1.17,3.36,3.36,0,0,0-.24-1.15,5.59,5.59,0,0,0-.57-1,6.32,6.32,0,0,0-.75-.9Z"/><path class="cls-30" d="M282.27,321.23a4.62,4.62,0,0,0-.91-.89.93.93,0,0,0-.74.11s.07.5.38.64a4.57,4.57,0,0,0,1.26.13Z"/><path class="cls-30" d="M281,322.39a4.63,4.63,0,0,0-.39-1.21c-.21-.27-.71-.24-.71-.24a1,1,0,0,0,0,.75,4.59,4.59,0,0,0,1.06.71Z"/><path class="cls-30" d="M280.36,319a4.09,4.09,0,0,1-.07,1.06c-.11.25-.49.29-.49.29a.89.89,0,0,1-.11-.63,3.25,3.25,0,0,1,.67-.72Z"/><path class="cls-30" d="M279,318.86a4.47,4.47,0,0,1,.4,1,.71.71,0,0,1-.29.52.89.89,0,0,1-.36-.53,3.83,3.83,0,0,1,.25-1Z"/><path class="cls-30" d="M279.44,323a4.65,4.65,0,0,0,.19-1.26c-.06-.34-.52-.54-.52-.54s-.36.35-.3.69a4.65,4.65,0,0,0,.63,1.11Z"/><path class="cls-30" d="M282.93,318.82a6.63,6.63,0,0,0-1.48.44.5.5,0,1,0,.44.71,6.66,6.66,0,0,0,1-1.15Z"/><path class="cls-30" d="M281,320a11.12,11.12,0,0,1-1,.52,6.5,6.5,0,0,1-1.08.38,3.55,3.55,0,0,1-1.13.1,10.23,10.23,0,0,1-1.15-.15,5.66,5.66,0,0,0,1.14.25,3.32,3.32,0,0,0,1.17-.08,5.48,5.48,0,0,0,1.09-.42,6.19,6.19,0,0,0,1-.61Z"/><path class="cls-30" d="M276.51,316.72a4.65,4.65,0,0,1,.47,1.18c0,.34-.39.64-.39.64s-.43-.26-.44-.6a4.65,4.65,0,0,1,.36-1.22Z"/><path class="cls-30" d="M275,317.42a4.64,4.64,0,0,1,1,.83,1,1,0,0,1,0,.75s-.5,0-.67-.33a4.66,4.66,0,0,1-.24-1.25Z"/><path class="cls-30" d="M277.8,319.33a4.05,4.05,0,0,0-1-.34c-.27,0-.46.34-.46.34s.26.34.54.34a3.23,3.23,0,0,0,.92-.34Z"/><path class="cls-30" d="M277.45,320.62a4.46,4.46,0,0,0-.78-.76.7.7,0,0,0-.59.07.89.89,0,0,0,.35.54,3.78,3.78,0,0,0,1,.15Z"/><path class="cls-30" d="M273.81,318.66a4.58,4.58,0,0,1,1.23.3c.29.19.29.69.29.69a.93.93,0,0,1-.75,0,4.62,4.62,0,0,1-.78-1Z"/><path class="cls-30" d="M279,317a6.68,6.68,0,0,1-1,1.21,1.17,1.17,0,0,1-.87.11,1.18,1.18,0,0,1,.39-.79A6.63,6.63,0,0,1,279,317Z"/><path class="cls-30" d="M277.14,318.34a11.08,11.08,0,0,0-.88.76,6.63,6.63,0,0,0-.77.86,3.6,3.6,0,0,0-.52,1,10.47,10.47,0,0,0-.3,1.12,5.79,5.79,0,0,1,.2-1.15,3.37,3.37,0,0,1,.52-1.06,5.6,5.6,0,0,1,.8-.85,6.24,6.24,0,0,1,.94-.68Z"/><path class="cls-30" d="M276.46,308.82a3.67,3.67,0,0,0-1.11-.62c-.35,0-.76.44-.76.44s.16.53.51.56a5.08,5.08,0,0,0,1.36-.38Z"/><path class="cls-30" d="M275.34,310.64a4.36,4.36,0,0,0-.62-1.19c-.27-.22-.79,0-.79,0s-.1.6.17.82a3.81,3.81,0,0,0,1.24.35Z"/><path class="cls-30" d="M274.07,307.16a4.91,4.91,0,0,1,.1,1.21,1,1,0,0,1-.47.53.89.89,0,0,1-.22-.66,5.14,5.14,0,0,1,.59-1.08Z"/><path class="cls-30" d="M272.64,307.52a4,4,0,0,1,.59,1,1.06,1.06,0,0,1-.22.7s-.4-.13-.47-.44a5.17,5.17,0,0,1,.1-1.23Z"/><path class="cls-30" d="M273.75,312a5.94,5.94,0,0,0,0-1.49c-.12-.35-.64-.38-.64-.38a1.37,1.37,0,0,0-.2.9,3.88,3.88,0,0,0,.85,1Z"/><path class="cls-30" d="M276.76,305.85a9.2,9.2,0,0,0-1.5,1.11,1.75,1.75,0,0,0-.33,1,1.4,1.4,0,0,0,.92-.43,10.52,10.52,0,0,0,.91-1.72Z"/><path class="cls-30" d="M274.94,308c-.33.36-.66.7-1,1a9.44,9.44,0,0,1-1.08.88,4.47,4.47,0,0,1-1.18.58,11.06,11.06,0,0,1-1.24.31,5.76,5.76,0,0,0,1.25-.19,4.09,4.09,0,0,0,1.23-.57,8.11,8.11,0,0,0,1.09-.93,9.61,9.61,0,0,0,.95-1.1Z"/><path class="cls-30" d="M273.1,301.17a3.65,3.65,0,0,0-1.27,0c-.32.15-.43.77-.43.77s.41.37.73.21a5.12,5.12,0,0,0,1-1Z"/><path class="cls-30" d="M273.07,303.31a4.33,4.33,0,0,0-1.14-.7c-.34-.05-.67.43-.67.43s.23.56.57.62a3.82,3.82,0,0,0,1.24-.34Z"/><path class="cls-30" d="M270.2,301a4.87,4.87,0,0,1,.71,1,1,1,0,0,1-.13.7.89.89,0,0,1-.53-.45,5.14,5.14,0,0,1-.05-1.23Z"/><path class="cls-30" d="M269.17,302a4,4,0,0,1,1,.53,1.06,1.06,0,0,1,.17.71.73.73,0,0,1-.63-.13,5.15,5.15,0,0,1-.55-1.11Z"/><path class="cls-30" d="M272.4,305.27a5.93,5.93,0,0,0-.77-1.27c-.29-.24-.75,0-.75,0s0,.63.29.87a3.84,3.84,0,0,0,1.23.4Z"/><path class="cls-30" d="M271.84,298.47a9.34,9.34,0,0,0-.72,1.72,1.75,1.75,0,0,0,.25,1.06,1.41,1.41,0,0,0,.57-.84,10.56,10.56,0,0,0-.1-1.94Z"/><path class="cls-30" d="M271.37,301.25c-.1.47-.21.94-.34,1.39a9.49,9.49,0,0,1-.48,1.31,4.47,4.47,0,0,1-.71,1.11,11.13,11.13,0,0,1-.9.91,5.79,5.79,0,0,0,1-.81,4.12,4.12,0,0,0,.76-1.13,8.14,8.14,0,0,0,.46-1.36,9.64,9.64,0,0,0,.25-1.43Z"/><path class="cls-30" d="M264,306.82a3.65,3.65,0,0,1,1.27,0c.32.15.43.77.43.77s-.41.37-.73.21a5.12,5.12,0,0,1-1-1Z"/><path class="cls-30" d="M264,309a4.33,4.33,0,0,1,1.14-.7c.34-.05.67.43.67.43s-.23.57-.57.62A3.83,3.83,0,0,1,264,309Z"/><path class="cls-30" d="M266.89,306.63a4.89,4.89,0,0,0-.71,1,1,1,0,0,0,.13.7.89.89,0,0,0,.53-.45,5.14,5.14,0,0,0,.05-1.23Z"/><path class="cls-30" d="M267.92,307.68a4,4,0,0,0-1,.53,1.06,1.06,0,0,0-.17.71.73.73,0,0,0,.63-.13,5.14,5.14,0,0,0,.55-1.1Z"/><path class="cls-30" d="M264.69,310.92a5.93,5.93,0,0,1,.77-1.28c.29-.24.75,0,.75,0s0,.63-.29.87a3.85,3.85,0,0,1-1.23.4Z"/><path class="cls-30" d="M265.25,304.11a9.27,9.27,0,0,1,.72,1.72,1.74,1.74,0,0,1-.25,1.06,1.41,1.41,0,0,1-.57-.84,10.53,10.53,0,0,1,.1-1.94Z"/><g class="cls-2"><path class="cls-30" d="M265.72,306.89c.1.47.21.94.34,1.39a9.48,9.48,0,0,0,.48,1.31,4.48,4.48,0,0,0,.71,1.11,11.12,11.12,0,0,0,.9.91,5.77,5.77,0,0,1-1-.81,4.12,4.12,0,0,1-.76-1.13,8.09,8.09,0,0,1-.46-1.36,9.64,9.64,0,0,1-.25-1.43Z"/><path class="cls-38" d="M753.78,431l-2.4,5L736.8,466.07H36.8V331.63c19-2.48,60.16-6.31,127-4.94,11.86.24,23.68.44,35.49.65,51.62.93,102.82,2.19,154.35,9.21,88.34,12,178.1,27.86,265.28,51.13h0q40,10.68,79.18,23.56,23.77,7.84,47.12,16.61c2.78,1,5.64,2.09,8.55,3.16"/><path class="cls-39" d="M748.89,423.36,725,414.7q-12.89-4.55-25.88-8.79-32-10.47-64.52-19.33l-6.81-1.85C595,375.92,562,368.27,528.84,361.44s-66.52-12.72-100-17.93l-25.09-3.79-25.12-3.56-25.15-3.32c-4.22-.49-8.42-1-12.64-1.5s-8.44-.91-12.66-1.29c-16.89-1.6-33.81-2.65-50.72-3.38l-6.35-.26-6.34-.22-6.35-.21-6.34-.17c-8.46-.22-16.91-.35-25.36-.47-16.91-.22-33.81-.31-50.69-.44l-12.67-.11-12.68,0c-4.23,0-8.46,0-12.69.09s-8.46.08-12.69.2c-16.91.37-33.81,1.06-50.67,2.35-4.22.33-8.43.66-12.64,1.08s-8.41.85-12.61,1.31-8.41,1-12.6,1.64v.43h.08l6.3-.67,6.31-.58c4.21-.33,8.41-.68,12.62-.93s8.42-.49,12.64-.7c16.86-.81,33.73-1.11,50.61-1s33.72.52,50.62,1c11.83.34,23.66.66,35.47,1q7.59.24,15.17.49c8.44.29,16.87.61,25.29,1l6.32.28,6.31.32,6.31.33,6.31.38c16.82,1,33.61,2.38,50.34,4.2,4.18.44,8.35,1,12.52,1.47s8.33,1.12,12.5,1.67l25,3.69,25,3.88,25,4.11c33.26,5.65,66.4,11.86,99.35,19q38.58,8.25,76.73,18.19,10.74,2.8,21.44,5.75,36.52,10.05,72.45,22,12,4,23.85,8.22l23.71,8.69,6.32,2.34,2.4.89V425.16l-4.9-1.8"/></g><path class="cls-40" d="M503.94,466.07H36.8V331.63c19-2.48,60.16-6.31,127-4.94,11.86.24,23.68.44,35.49.65L211.46,330c87.15,19,172.85,41.72,213.46,64.36,33.49,18.66,59.39,45,79,71.75"/><path class="cls-41" d="M198.72,327.33l-6.68-.12,6.68.12"/><path class="cls-42" d="M432.13,416.54a220,220,0,0,0-28-19.62c-12-7.08-27.13-14.12-44.74-21.06h19.91l.12-1.1c18.22,6.47,33.72,13,45.45,19.56a221.87,221.87,0,0,1,31,20.92c-6.57.46-14.57.89-23.75,1.29m-93.75-55h-19.1l-6.66-2.13H331l7.36,2.13m-61.26-16.42H263.65C243.39,339.68,222,334.37,200,329.29c-2.6-.6-14.49-1.66-17.09-2.25l9.13.16,6.68.12h.57L211.46,330c22.22,4.84,44.36,9.93,65.67,15.19"/><g class="cls-2"><path class="cls-43" d="M717.66,417.11A9.51,9.51,0,0,1,713,421a8.14,8.14,0,0,1,5.3-10,9.52,9.52,0,0,1-.65,6Z"/><path class="cls-38" d="M36.64,421.68s430.11-.46,439.28-9.26,13.67-21.91,13.67-21.91L601.18,439v35.37H36.64V421.68"/></g><path class="cls-44" d="M36.8,421.68V410.41c8.63,1,22.78,2.74,41.27,4.92,14.7,1.73,32.13,3.77,51.73,6-52.39.28-90.22.33-93,.34"/><path class="cls-45" d="M590.32,466.07H36.8V421.68c2.77,0,40.61-.05,93-.34,118.25,13.57,314.95,35,460.52,44.73"/><g class="cls-2"><polygon class="cls-39" points="213.99 421.66 456.41 419.83 456.41 414.73 140.46 418.19 140.46 421.66 213.99 421.66 213.99 421.66"/><path class="cls-46" d="M185.45,191.54c0,30.68-2.9,58.93-7.78,81.39v0q-.62,2.9-1.3,5.66c-.42,1.71-.84,3.37-1.28,5l0,.05c-6.71,24.91-16.12,40.4-26.54,40.4-13.69,0-25.63-26.68-32-66.34a421.56,421.56,0,0,1-4.94-66.2c0-65.94,13.43-120.63,31-130.83A11.74,11.74,0,0,1,148.52,59a10.71,10.71,0,0,1,3.29.53c18.86,6,33.64,62.79,33.64,132Z"/></g><path class="cls-47" d="M159.93,134.73l.08.11c-.28,1.06-.08-.11-.08-.11Z"/><g class="cls-2"><path class="cls-47" d="M176.66,276.57c-.08.7-.18,1.38-.3,2.06a31.94,31.94,0,0,1-1.28,5l0,.05c-1.22,3.48-.48.43,1.6-7.11Z"/><path class="cls-48" d="M185.45,191.54c0,30.68-2.9,58.93-7.78,81.39v0c-.36,1.29-.7,2.49-1,3.59C179.21,255.3,165.73,227,165.73,227s7.39-3.83,11.35-33.32c3.83-28.43-15.67-56.86-17.07-58.86.38-1.48,1.68-7.3,5.72-26.72,4-19.2-10.09-36.24-23.16-47.4A11.74,11.74,0,0,1,148.52,59a10.71,10.71,0,0,1,3.29.53c18.86,6,33.64,62.79,33.64,132Z"/><path class="cls-49" d="M124.44,156.8c-12.81,42.34-7.45,39.31,0,67.19,4.9,18.37-2.49,24.72-7.93,33.75a421.34,421.34,0,0,1-4.95-66.19c0-73.2,16.55-132.53,37-132.53a10.62,10.62,0,0,1,3.29.53c-9.35,15.54-18.56,35.93-13.33,49.92,9.51,25.45-1.23,5-14,47.34Z"/><polygon class="cls-22" points="177.09 241.36 153.76 303.03 152.43 251.76 171.88 175.78 152.25 244.76 149.96 156.41 149.29 197.13 138.98 154.95 149.06 203.31 149.19 203.28 147.53 302.94 119.93 241.36 147.39 311.61 145.97 397.29 156.19 397.29 154.01 312.97 177.09 241.36 177.09 241.36"/><path class="cls-50" d="M100.71,171.05c0,94.46-16.65,171.05-37.19,171.05-13.78,0-25.8-34.44-32.23-85.62a694.3,694.3,0,0,1-5-85.43C26.31,76.58,43,0,63.51,0a8.58,8.58,0,0,1,3.32.69c19,7.71,33.88,81,33.88,170.37Z"/><path class="cls-49" d="M39.27,126.21c-12.89,54.65-7.5,50.74,0,86.72,4.94,23.71-2.5,31.91-8,43.56a694.3,694.3,0,0,1-5-85.43C26.31,76.58,43,0,63.51,0a8.58,8.58,0,0,1,3.32.69C57.41,20.74,48.14,47.06,53.41,65.12,63,98,52.17,71.54,39.27,126.21Z"/><polygon class="cls-22" points="89.51 222.02 66.18 283.69 64.86 232.42 84.3 156.44 64.67 225.42 62.39 137.07 61.71 177.79 51.41 135.61 61.49 183.97 61.61 183.94 59.96 283.6 32.35 222.02 59.81 292.27 58.4 377.94 68.62 377.94 66.44 293.63 89.51 222.02 89.51 222.02"/><path class="cls-51" d="M215.18,414.25c0-15.71-15.68-29.11-37.74-34.38,5.24-12.88,3.31-23.46-6.36-26.6-7.38-2.4-17.77,0-28.37,5.78,5.82-21.85.94-39.47-13-41.93-8.21-1.44-18,2.6-27.4,10.35C93,313.07,78.7,303.84,62.68,303.84,34.71,303.84,12,332,12,366.65c0,1.34,0,2.67.1,4C4.51,378,0,387.09,0,396.94c0,9.15,3.89,17.66,10.56,24.71H214a23.83,23.83,0,0,0,1.19-7.41Z"/><path class="cls-52" d="M162.18,395.23c5.24-12.88,3.31-23.46-6.36-26.6-7.38-2.4-17.77,0-28.37,5.78,5.82-21.85.94-39.47-13-41.93-8.21-1.44-18,2.6-27.4,10.35-9.28-14.4-23.56-23.63-39.58-23.63a42.85,42.85,0,0,0-23.67,7.28C16.44,337.36,12,351.36,12,366.65c0,1.34,0,2.67.1,4C4.51,378,0,387.09,0,396.94c0,9.15,3.89,17.66,10.56,24.71h188c-4.27-12.17-18.14-22.08-36.36-26.43Z"/></g><polyline class="cls-53" points="218.06 390.93 212.99 390.93 212.99 341.01 218.06 341.01 218.06 390.93"/><polyline class="cls-53" points="356.91 390.93 352.67 390.93 352.67 342.96 356.91 342.96 356.91 390.93"/><polygon class="cls-54" points="374.58 393.8 201.11 393.8 201.11 390.51 374.58 390.51 374.58 393.8 374.58 393.8"/><polygon class="cls-55" points="374.58 401.26 201.11 401.26 201.11 393.8 374.58 393.8 374.58 401.26 374.58 401.26"/><polyline class="cls-56" points="380.69 363.87 380.95 361.57 193.25 361.57 193.77 366.41 201.11 366.41 193.83 366.94 194.64 374.47 195.21 375.86 379.34 375.86 380.66 364.19 377.2 364.19 380.69 363.87"/><polygon class="cls-57" points="221.06 424.96 216.07 424.96 216.07 401.26 221.06 401.26 221.06 424.96 221.06 424.96"/><polygon class="cls-57" points="356.93 424.96 351 424.96 351 401.26 356.93 401.26 356.93 424.96 356.93 424.96"/><g class="cls-58"><rect class="cls-59" x="230.86" y="370.32" width="49.47" height="3.18"/></g><path class="cls-60" d="M307.59,370.22c-2.9-.27-5.83-.4-8.76-.48-1.32,0-2.64-.06-4-.06-1.61,0-3.22,0-4.8.15-.73,0-1.4.13-2.16.2s-1.49.11-2.23.14l-1.42,0c-1,0-2,0-3-.08-1.48-.07-2.94-.19-4.4-.33s-2.89-.25-4.37-.44c-2.91-.4-5.61-1.07-8.43-1.45a25.2,25.2,0,0,0-3.45-.27l-.79,0a26.49,26.49,0,0,0-4.14.63c-1.36.3-2.71.64-4.15.88a29.88,29.88,0,0,1-4.41.39h-.44a33.31,33.31,0,0,1-8.19-1,35,35,0,0,0,7.26.75l1.35,0a29.46,29.46,0,0,0,4.27-.44c1.37-.26,2.7-.61,4.06-.93a24.92,24.92,0,0,1,4.32-.71l1,0a26.66,26.66,0,0,1,3.53.26c2.91.38,5.64,1,8.45,1.41,1.39.18,2.87.31,4.3.46s2.89.26,4.34.34c1.07.06,2.14.1,3.22.1h1.13c1.45,0,2.84-.21,4.35-.3,1.18-.06,2.37-.09,3.55-.09,1.78,0,3.55.06,5.31.13,2.93.16,5.87.34,8.74.71"/><polyline class="cls-56" points="381.48 347.77 382.52 347.68 382.8 345.15 191.49 345.15 192.01 349.99 195.43 349.99 192.03 350.23 193.02 359.44 381.19 359.44 382.51 347.77 381.48 347.77"/><path class="cls-59" d="M237.73,357.11a11.4,11.4,0,0,1-1.18-.06,37.53,37.53,0,0,1-5.56-1.18,53,53,0,0,0-11.17-1.61l-1.15,0a31.55,31.55,0,0,0-4.6.33,15.09,15.09,0,0,0-5,1.55,13.58,13.58,0,0,1,4.88-1.74,30,30,0,0,1,5.41-.45h.48a50.66,50.66,0,0,1,11.5,1.53,42,42,0,0,0,5.36,1.13,10.41,10.41,0,0,0,1.12.06,15.41,15.41,0,0,0,1.65-.1c.94-.1,1.88-.24,2.81-.39,3.71-.63,7.38-1.39,11-2.2h.1l4,.06,4,.07-4,.07-3.94.06c-3.65.91-7,1.7-10.91,2.37-.95.16-1.9.31-2.88.42a16.75,16.75,0,0,1-1.91.12"/><path class="cls-60" d="M289.82,353.93c-3.07-.27-6.16-.4-9.26-.48-1.39,0-2.79-.06-4.18-.06-1.7,0-3.4,0-5.08.15-.77,0-1.48.13-2.28.2s-1.57.11-2.36.14l-1.5,0c-1.08,0-2.15,0-3.21-.08-1.56-.07-3.11-.19-4.65-.33s-3.05-.25-4.61-.44c-3.08-.4-5.63-1-8.91-1.45a28.12,28.12,0,0,0-3.65-.27l-.84,0a29.55,29.55,0,0,0-4.38.64c-1.44.3-2.87.64-4.38.88a33.31,33.31,0,0,1-4.65.39h-.47a37.1,37.1,0,0,1-8.65-1,38.88,38.88,0,0,0,7.67.75l1.43,0a32.66,32.66,0,0,0,4.51-.44c1.45-.26,2.85-.61,4.29-.93a27.72,27.72,0,0,1,4.56-.71l1,0a29.83,29.83,0,0,1,3.73.26c3.07.38,6,1,8.93,1.41,1.46.18,3,.31,4.55.46s3.05.26,4.58.34c1.13.06,2.27.09,3.4.09h1.2c1.53,0,3-.21,4.6-.3,1.25-.06,2.5-.09,3.75-.09,1.88,0,3.75.06,5.61.13,3.1.16,6.2.34,9.23.71"/><path class="cls-61" d="M372.9,355.32c-3.07-.27-6.16-.4-9.26-.48-1.39,0-2.79-.06-4.18-.06-1.7,0-3.4,0-5.08.15-.77,0-1.48.13-2.28.2s-1.57.11-2.36.14l-1.49,0c-1.08,0-2.15,0-3.22-.08-1.56-.07-3.11-.19-4.65-.33s-3.05-.25-4.61-.44c-3.07-.4-5.93-1.07-8.91-1.45a28.14,28.14,0,0,0-3.65-.27l-.84,0a29.45,29.45,0,0,0-4.38.64c-1.44.3-2.87.64-4.38.88a33.24,33.24,0,0,1-4.66.39h-.47a37.12,37.12,0,0,1-8.65-1,39,39,0,0,0,7.67.75l1.42,0a32.66,32.66,0,0,0,4.51-.44c1.45-.25,2.85-.61,4.29-.93a27.71,27.71,0,0,1,4.56-.71l1,0a29.86,29.86,0,0,1,3.73.26c3.07.38,6,1,8.93,1.41,1.46.18,3,.31,4.55.46s3.05.26,4.58.34c1.13.06,2.27.09,3.4.09h1.2c1.53,0,3-.21,4.6-.3,1.25-.06,2.5-.09,3.75-.09,1.88,0,3.75.06,5.61.13,3.1.16,6.2.34,9.23.71"/><path class="cls-59" d="M237,354.8a2.28,2.28,0,0,1-1.13-.24,3,3,0,0,0-1.22-.3,9.27,9.27,0,0,0,2-.45,10.59,10.59,0,0,1,3.21-.81,5,5,0,0,1,1.41.22c1.79.52,3.88.17,6.26.42,0,0-3.88.39-5.28.39h-.61a14.62,14.62,0,0,0-3,.55,7.92,7.92,0,0,1-1.72.24m-2.85-.52a2.66,2.66,0,0,1-.44,0h.44l.5,0-.5,0"/><polygon class="cls-62" points="213.41 393.8 212.99 398.26 212.56 393.8 213.41 393.8 213.41 393.8"/><polygon class="cls-62" points="222.7 393.8 222.28 399.77 221.85 393.8 222.7 393.8 222.7 393.8"/><polygon class="cls-62" points="229.05 393.8 228.63 396.79 228.2 393.8 229.05 393.8 229.05 393.8"/><polygon class="cls-62" points="236 393.8 234.76 398.26 235.26 393.8 236 393.8 236 393.8"/><polygon class="cls-62" points="245.98 393.8 245.56 399.05 245.13 393.8 245.98 393.8 245.98 393.8"/><polygon class="cls-62" points="261.85 393.8 261.43 397.53 261.01 393.8 261.85 393.8 261.85 393.8"/><polygon class="cls-62" points="272.44 393.8 272.01 399.77 271.59 393.8 272.44 393.8 272.44 393.8"/><polygon class="cls-62" points="294.67 393.8 295.3 396.79 293.95 393.8 294.67 393.8 294.67 393.8"/><polygon class="cls-62" points="310.6 393.8 308.42 399.05 309.88 393.8 310.6 393.8 310.6 393.8"/><polygon class="cls-62" points="317.52 393.8 317.1 398.15 316.67 393.8 317.52 393.8 317.52 393.8"/><path class="cls-63" d="M87.93,333c-2.65,5-8.42,7.09-8.42,7.09s-1.48-6,1.17-10.95S89.1,322,89.1,322s1.48,6-1.17,10.95Z"/><path class="cls-63" d="M79.71,325.5c.91,4.16-1.7,8.27-1.7,8.27s-4.08-2.64-5-6.8,1.7-8.27,1.7-8.27,4.08,2.64,5,6.8Z"/><g class="cls-2"><path class="cls-63" d="M73.25,331C78,334.09,79.5,340,79.5,340s-6.08.9-10.78-2.21-6.25-9.06-6.25-9.06,6.08-.9,10.78,2.21Z"/><path class="cls-63" d="M42.31,362.69c.17,5.64-3.8,10.33-3.8,10.33s-4.24-4.45-4.41-10.09,3.8-10.33,3.8-10.33,4.24,4.45,4.41,10.09Z"/><path class="cls-63" d="M28.59,368.26c5.63.37,9.92,4.77,9.92,4.77s-4.83,3.8-10.46,3.43-9.92-4.77-9.92-4.77,4.83-3.8,10.46-3.43Z"/><path class="cls-63" d="M52.51,372.67c.17,5.64-3.8,10.33-3.8,10.33s-4.24-4.45-4.41-10.09,3.8-10.33,3.8-10.33,4.24,4.45,4.41,10.09Z"/><path class="cls-63" d="M38.79,378.24c5.63.37,9.92,4.77,9.92,4.77s-4.83,3.8-10.46,3.43-9.92-4.77-9.92-4.77,4.83-3.8,10.46-3.43Z"/></g><path class="cls-63" d="M105.42,404c-5.63.36-10.46-3.44-10.46-3.44s4.3-4.39,9.93-4.76,10.46,3.44,10.46,3.44-4.3,4.39-9.93,4.76Z"/><path class="cls-63" d="M99.38,390.46C99.21,396.1,95,400.54,95,400.54s-4-4.7-3.79-10.34,4.42-10.08,4.42-10.08,4,4.7,3.79,10.34Z"/><path class="cls-63" d="M110.06,395.71a12.11,12.11,0,0,1-7.34-2.41,12.11,12.11,0,0,1,7-3.34,12.11,12.11,0,0,1,7.33,2.41,12.11,12.11,0,0,1-7,3.34Z"/><path class="cls-63" d="M116,389.93a12.11,12.11,0,0,1-7.34-2.41,12.11,12.11,0,0,1,7-3.34,12.11,12.11,0,0,1,7.33,2.41,12.11,12.11,0,0,1-7,3.34Z"/><path class="cls-63" d="M120,380.37a12.11,12.11,0,0,1-7.27,2.6,10.35,10.35,0,0,1,10.72-9.51,12.11,12.11,0,0,1-3.45,6.91Z"/><path class="cls-63" d="M106.17,385.77a12.11,12.11,0,0,1-3.1,7.07,10.35,10.35,0,0,1,.45-14.32,12.11,12.11,0,0,1,2.66,7.25Z"/><path class="cls-63" d="M111.54,380.21a12.11,12.11,0,0,1-3.1,7.07,10.35,10.35,0,0,1,.45-14.32,12.11,12.11,0,0,1,2.66,7.25Z"/><path class="cls-63" d="M88.86,349.8c-3.4,4.5-9.43,5.68-9.43,5.68s-.52-6.12,2.87-10.63,9.43-5.68,9.43-5.68.52,6.12-2.87,10.63Z"/><path class="cls-63" d="M74.67,345.55c4.16,3.81,4.76,9.93,4.76,9.93s-6.15-.06-10.3-3.87-4.76-9.93-4.76-9.93,6.15.06,10.3,3.87Z"/><path class="cls-22" d="M85.77,410.33l77.06-2.67-74.52.16,6.16-6.08,7.41-7.37c2.34-2.36,4.71-4.68,7-7.12l.34-.36c-2.51,2.39-5.13,4.62-7.71,6.91l-7.79,6.8-14.07,12.2.23-30.58,63.48-57.17L79.9,378.5,80.19,340l-3.08,67.54L47.8,382,77,411l-.49,10.68h3.26l0-5.31,6.09-6Z"/><path class="cls-63" d="M126.27,353.09c-5.63.36-10.46-3.44-10.46-3.44s4.3-4.39,9.93-4.76,10.46,3.44,10.46,3.44-4.3,4.39-9.93,4.76Z"/><path class="cls-63" d="M119.92,338.92c-.18,5.64-4.42,10.08-4.42,10.08s-4-4.7-3.79-10.34,4.42-10.08,4.42-10.08,4,4.7,3.79,10.34Z"/><path class="cls-63" d="M130.72,344.55a12.11,12.11,0,0,1-7.34-2.41,12.11,12.11,0,0,1,7-3.34,12.11,12.11,0,0,1,7.33,2.41,12.11,12.11,0,0,1-7,3.34Z"/><path class="cls-63" d="M137.67,339.16a12.11,12.11,0,0,1-7.34-2.41,12.11,12.11,0,0,1,7-3.34,12.11,12.11,0,0,1,7.34,2.41,12.11,12.11,0,0,1-7,3.34Z"/><path class="cls-63" d="M140.61,330.9a12.11,12.11,0,0,1-7.27,2.6A10.35,10.35,0,0,1,144.05,324a12.11,12.11,0,0,1-3.45,6.91Z"/><path class="cls-63" d="M127.26,334.68a12.11,12.11,0,0,1-3.55,6.86,10.35,10.35,0,0,1,1.36-14.26,12.11,12.11,0,0,1,2.19,7.4Z"/><g class="cls-2"><path class="cls-63" d="M133.21,329.45a12.11,12.11,0,0,1-3.1,7.07,10.35,10.35,0,0,1,.45-14.32,12.11,12.11,0,0,1,2.66,7.25Z"/><path class="cls-51" d="M772,378.21v96.56H552.21A57.05,57.05,0,0,1,566,473.11a59.12,59.12,0,0,1,10.1.88,40.13,40.13,0,0,1,10.51-8.2,48,48,0,0,1-.49-6.63c0-31.27,30.55-56.62,68.23-56.62a81,81,0,0,1,20.91,2.72,59.46,59.46,0,0,1,9.51-6.48c.06-1.4.13-2.79.23-4.17.22-3,.53-6,.94-8.88s.92-5.85,1.52-8.64c3.62-16.94,10.49-30.29,19-36.73a19,19,0,0,1,11.61-4.25,18.72,18.72,0,0,1,10.9,3.73c10.64,7.52,18.84,25.76,21.55,48.43A49.54,49.54,0,0,1,772,378.21Z"/><path class="cls-52" d="M772,474.77v-70c-15.8-12.49-25.62-4.89-25.62-4.89-.9-13.73-4.89-22.14-15.8-33.08s-19.76-4.26-29.6,13.38S691.92,407,691.92,407c-25.88,1.85-19.85,21.25-24.48,20s-38.2-1.82-56,16.42-23.27,31.34-23.27,31.34Z"/></g><path class="cls-63" d="M704.76,358.8c-3.42,6.75-10.87,9.61-10.87,9.61s-1.9-8.09,1.52-14.84S706.27,344,706.27,344s1.91,8.09-1.51,14.84Z"/><path class="cls-63" d="M694.15,348.69c1.17,5.64-2.19,11.21-2.19,11.21s-5.27-3.58-6.44-9.22,2.19-11.21,2.19-11.21,5.27,3.58,6.44,9.22Z"/><path class="cls-63" d="M685.82,356.12c6.07,4.22,8.07,12.28,8.07,12.28s-7.84,1.22-13.91-3-8.07-12.28-8.07-12.28,7.84-1.22,13.91,3Z"/><path class="cls-63" d="M645.9,399.1c.22,7.64-4.9,14-4.9,14s-5.48-6-5.7-13.67,4.9-14,4.9-14,5.47,6,5.69,13.67Z"/><path class="cls-63" d="M631.92,395.85c3.68,4.29,3.39,10.87,3.39,10.87s-6.27-.36-10-4.65S622,391.2,622,391.2s6.26.36,9.95,4.65Z"/><path class="cls-63" d="M628.19,406.65c7.26.5,12.81,6.46,12.81,6.46s-6.23,5.15-13.5,4.65-12.8-6.46-12.8-6.46,6.23-5.15,13.5-4.65Z"/><path class="cls-63" d="M659,412.63c.22,7.64-4.9,14-4.9,14s-5.47-6-5.69-13.67,4.9-14,4.9-14,5.48,6,5.7,13.67Z"/><path class="cls-63" d="M641.35,420.18c7.26.5,12.8,6.46,12.8,6.46s-6.23,5.15-13.5,4.65-12.81-6.46-12.81-6.46,6.23-5.15,13.5-4.65Z"/><path class="cls-63" d="M727.32,455.07c-7.27.49-13.5-4.66-13.5-4.66s5.55-6,12.81-6.45,13.5,4.66,13.5,4.66-5.55,6-12.81,6.45Z"/><path class="cls-63" d="M719.53,436.74c-.22,7.64-5.71,13.66-5.71,13.66s-5.11-6.37-4.89-14,5.71-13.66,5.71-13.66,5.11,6.37,4.88,14Z"/><path class="cls-63" d="M733.32,443.86c-5.09.34-9.46-3.27-9.46-3.27s3.89-4.18,9-4.52,9.46,3.27,9.46,3.27-3.89,4.18-9,4.52Z"/><path class="cls-63" d="M741,436c-5.1.35-9.47-3.27-9.47-3.27s3.89-4.18,9-4.52S750,431.5,750,431.5s-3.89,4.18-9,4.52Z"/><path class="cls-63" d="M746.18,423.06c-3.82,3.56-9.38,3.53-9.38,3.53s.62-5.81,4.44-9.37,9.39-3.53,9.39-3.53-.63,5.81-4.45,9.37Z"/><path class="cls-63" d="M728.29,430.38c-.16,5.36-4,9.58-4,9.58s-3.59-4.47-3.43-9.83,4-9.58,4-9.58,3.59,4.47,3.43,9.83Z"/><path class="cls-63" d="M735.23,422.85c-.16,5.36-4,9.58-4,9.58s-3.58-4.47-3.43-9.83,4-9.58,4-9.58,3.58,4.47,3.43,9.83Z"/><path class="cls-63" d="M706,381.63c-4.38,6.1-12.17,7.7-12.17,7.7s-.68-8.3,3.71-14.4,12.17-7.7,12.17-7.7.68,8.3-3.71,14.4Z"/><g class="cls-2"><path class="cls-63" d="M687.65,375.87c5.37,5.17,6.14,13.46,6.14,13.46s-7.93-.08-13.3-5.25-6.13-13.46-6.13-13.46,7.93.08,13.29,5.25Z"/><path class="cls-22" d="M732.22,431.92c-3.25,3.24-6.62,6.26-10,9.36l-10,9.21L694.06,467l.71-98.62-4,91.54L653,425.26l37.62,39.29L690,479h4.21l-.06-7.19L713.19,452l9.56-10c3-3.2,6.08-6.34,9-9.65l.43-.48Z"/></g></g></g></svg>