<svg xmlns="http://www.w3.org/2000/svg" viewBox="0 0 539.48 269.5"><defs><style>.cls-1{fill:#8cbfff;}.cls-2{opacity:0.4;}.cls-3{font-size:20px;font-family:Raleway-Regular, Raleway;}.cls-4{letter-spacing:0em;}.cls-5{letter-spacing:-0.01em;}.cls-6{letter-spacing:0em;}.cls-7{letter-spacing:-0.01em;}.cls-8{letter-spacing:0em;}.cls-9{letter-spacing:-0.03em;}.cls-10{letter-spacing:0em;}.cls-11{letter-spacing:-0.03em;}.cls-12{letter-spacing:0em;}.cls-13{letter-spacing:-0.02em;}.cls-14{letter-spacing:-0.01em;}.cls-15{letter-spacing:-0.03em;}.cls-16{letter-spacing:-0.03em;}.cls-17{letter-spacing:-0.01em;}.cls-18{letter-spacing:0em;}.cls-19{letter-spacing:-0.03em;}.cls-20{letter-spacing:-0.03em;}.cls-21{letter-spacing:-0.01em;}.cls-22{letter-spacing:-0.02em;}.cls-23{letter-spacing:-0.01em;}.cls-24{letter-spacing:-0.02em;}.cls-25{letter-spacing:-0.01em;}.cls-26{letter-spacing:-0.01em;}.cls-27{letter-spacing:-0.03em;}.cls-28{letter-spacing:-0.01em;}.cls-29{letter-spacing:-0.02em;}</style></defs><title>micromundo3pg3</title><g id="Camada_2" data-name="Camada 2"><g id="Camada_1-2" data-name="Camada 1"><g id="Camada_2-2" data-name="Camada 2"><g id="Camada_1-2-2" data-name="Camada 1-2"><polygon class="cls-1" points="9.74 9.74 45 9.74 45 0 0 0 0 45 9.74 45 9.74 9.74"/><polygon class="cls-1" points="9.74 259.76 9.74 224.5 0 224.5 0 269.5 45 269.5 45 259.76 9.74 259.76"/><polygon class="cls-1" points="529.74 259.76 494.48 259.76 494.48 269.5 539.48 269.5 539.48 224.5 529.74 224.5 529.74 259.76"/><polygon class="cls-1" points="529.74 9.74 529.74 45 539.48 45 539.48 0 494.48 0 494.48 9.74 529.74 9.74"/><g class="cls-2"><rect class="cls-1" x="9.74" y="10.16" width="520" height="251.76"/></g><text class="cls-3" transform="translate(38.74 55.27)">Os estuda<tspan class="cls-4" x="93.26" y="0">n</tspan><tspan class="cls-5" x="104.82" y="0">t</tspan><tspan x="111.26" y="0">es de uma es</tspan><tspan class="cls-6" x="234.86" y="0">c</tspan><tspan x="245.74" y="0">ola de </tspan><tspan class="cls-7" x="308.36" y="0">E</tspan><tspan class="cls-8" x="320.42" y="0">nsino </tspan><tspan class="cls-9" x="0" y="24">F</tspan><tspan x="11.1" y="24">undame</tspan><tspan class="cls-4" x="88.1" y="24">n</tspan><tspan class="cls-10" x="99.66" y="24">ta</tspan><tspan class="cls-11" x="117.26" y="24">l</tspan><tspan x="122.08" y="24" xml:space="preserve"> -</tspan><tspan class="cls-11" x="135.62" y="24"> </tspan><tspan class="cls-12" x="140.1" y="24">Anos Finais, </tspan><tspan class="cls-13" x="254.42" y="24">e</tspan><tspan x="265.78" y="24">xis</tspan><tspan class="cls-14" x="289.96" y="24">t</tspan><tspan class="cls-10" x="296.4" y="24">e</tspan><tspan class="cls-4" x="308.14" y="24">n</tspan><tspan class="cls-14" x="319.7" y="24">t</tspan><tspan x="326.14" y="24">e no bair</tspan><tspan class="cls-15" x="406.25" y="24">r</tspan><tspan class="cls-8" x="412.76" y="24">o, </tspan><tspan x="0" y="48">p</tspan><tspan class="cls-16" x="12.34" y="48">r</tspan><tspan x="18.84" y="48">oduzi</tspan><tspan class="cls-17" x="69.26" y="48">r</tspan><tspan x="76.14" y="48">am um ri</tspan><tspan class="cls-6" x="157.26" y="48">c</tspan><tspan x="168.14" y="48">o m</tspan><tspan class="cls-18" x="203.52" y="48">a</tspan><tspan class="cls-14" x="214.34" y="48">t</tspan><tspan class="cls-10" x="220.78" y="48">eria</tspan><tspan class="cls-19" x="254.8" y="48">l</tspan><tspan x="259.62" y="48" xml:space="preserve"> sob a perspecti</tspan><tspan class="cls-14" x="406.76" y="48">v</tspan><tspan x="417.16" y="48">a de </tspan><tspan x="0" y="72">seus mo</tspan><tspan class="cls-17" x="78.48" y="72">r</tspan><tspan x="85.36" y="72">ado</tspan><tspan class="cls-20" x="120.6" y="72">r</tspan><tspan x="127.1" y="72">es, o que e</tspan><tspan class="cls-21" x="227.98" y="72">n</tspan><tspan class="cls-22" x="239.4" y="72">v</tspan><tspan x="249.7" y="72">o</tspan><tspan class="cls-23" x="261.6" y="72">l</tspan><tspan class="cls-24" x="266.82" y="72">v</tspan><tspan class="cls-10" x="277.12" y="72">eu o l</tspan><tspan class="cls-25" x="328.28" y="72">e</tspan><tspan class="cls-26" x="339.74" y="72">v</tspan><tspan x="350.14" y="72">a</tspan><tspan class="cls-4" x="361.04" y="72">n</tspan><tspan x="372.6" y="72">tame</tspan><tspan class="cls-4" x="420.31" y="72">n</tspan><tspan class="cls-26" x="431.88" y="72">t</tspan><tspan class="cls-8" x="438.32" y="72">o, </tspan><tspan x="0" y="96">obser</tspan><tspan class="cls-5" x="52.74" y="96">v</tspan><tspan class="cls-12" x="63.14" y="96">ação, </tspan><tspan class="cls-20" x="117.42" y="96">r</tspan><tspan x="123.92" y="96">egist</tspan><tspan class="cls-20" x="168.82" y="96">r</tspan><tspan x="175.32" y="96">o e o</tspan><tspan class="cls-16" x="221.06" y="96">r</tspan><tspan x="227.56" y="96">ganização de</tspan><tspan class="cls-27" x="350.64" y="96"> </tspan><tspan class="cls-14" x="355.2" y="96">v</tspan><tspan x="365.6" y="96">ários </tspan><tspan x="0" y="120">aspec</tspan><tspan class="cls-5" x="55.7" y="120">t</tspan><tspan class="cls-12" x="62.14" y="120">os de cada rua do bair</tspan><tspan class="cls-20" x="267.44" y="120">r</tspan><tspan x="273.94" y="120">o. </tspan><tspan class="cls-28" x="294.72" y="120">E</tspan><tspan x="306.78" y="120">sse port</tspan><tspan class="cls-15" x="381.06" y="120">f</tspan><tspan class="cls-8" x="387.14" y="120">ólio </tspan><tspan x="0" y="144">pode se</tspan><tspan class="cls-29" x="75" y="144">r</tspan><tspan x="81.54" y="144" xml:space="preserve"> usado pa</tspan><tspan class="cls-17" x="171.84" y="144">r</tspan><tspan x="178.72" y="144">a justifica</tspan><tspan class="cls-29" x="263.86" y="144">r</tspan><tspan x="270.4" y="144" xml:space="preserve"> demandas ju</tspan><tspan class="cls-4" x="395.18" y="144">n</tspan><tspan class="cls-14" x="406.74" y="144">t</tspan><tspan x="413.18" y="144">o à </tspan><tspan x="0" y="168">administ</tspan><tspan class="cls-17" x="78.54" y="168">r</tspan><tspan x="85.42" y="168">ação municipal.</tspan></text></g></g></g></g></svg>