<svg xmlns="http://www.w3.org/2000/svg" viewBox="0 0 539.48 269.5"><defs><style>.cls-1{fill:#8cbfff;}.cls-2{opacity:0.4;}.cls-3{font-size:20px;font-family:Raleway-Regular, Raleway;}.cls-4{letter-spacing:-0.01em;}.cls-5{letter-spacing:0em;}.cls-6{letter-spacing:-0.03em;}.cls-7{letter-spacing:-0.01em;}.cls-8{letter-spacing:0em;}.cls-9{letter-spacing:0em;}.cls-10{letter-spacing:-0.03em;}.cls-11{letter-spacing:-0.01em;}.cls-12{letter-spacing:0em;}.cls-13{letter-spacing:-0.02em;}.cls-14{letter-spacing:-0.03em;}.cls-15{letter-spacing:-0.01em;}.cls-16{letter-spacing:0em;}.cls-17{letter-spacing:-0.05em;}</style></defs><title>micromundo3pg7</title><g id="Camada_2" data-name="Camada 2"><g id="Camada_1-2" data-name="Camada 1"><g id="Camada_2-2" data-name="Camada 2"><g id="Camada_1-2-2" data-name="Camada 1-2"><polygon class="cls-1" points="9.74 9.74 45 9.74 45 0 0 0 0 45 9.74 45 9.74 9.74"/><polygon class="cls-1" points="9.74 259.76 9.74 224.5 0 224.5 0 269.5 45 269.5 45 259.76 9.74 259.76"/><polygon class="cls-1" points="529.74 259.76 494.48 259.76 494.48 269.5 539.48 269.5 539.48 224.5 529.74 224.5 529.74 259.76"/><polygon class="cls-1" points="529.74 9.74 529.74 45 539.48 45 539.48 0 494.48 0 494.48 9.74 529.74 9.74"/><g class="cls-2"><rect class="cls-1" x="9.74" y="10.16" width="520" height="251.76"/></g><text class="cls-3" transform="translate(42.82 61.91)">Um <tspan class="cls-4" x="38.58" y="0">t</tspan><tspan class="cls-5" x="45.02" y="0">er</tspan><tspan class="cls-6" x="63.78" y="0">r</tspan><tspan x="70.28" y="0">eno per</tspan><tspan class="cls-7" x="141.78" y="0">t</tspan><tspan class="cls-8" x="148.22" y="0">en</tspan><tspan class="cls-9" x="171.62" y="0">c</tspan><tspan x="182.5" y="0">e</tspan><tspan class="cls-9" x="194.24" y="0">n</tspan><tspan class="cls-4" x="205.8" y="0">t</tspan><tspan x="212.24" y="0">e ao município, localizado </tspan><tspan x="0" y="24">em nosso bair</tspan><tspan class="cls-10" x="129.88" y="24">r</tspan><tspan x="136.38" y="24">o, </tspan><tspan class="cls-4" x="157.88" y="24">t</tspan><tspan x="164.32" y="24">em dimensão equi</tspan><tspan class="cls-7" x="336.08" y="24">v</tspan><tspan x="346.48" y="24">ale</tspan><tspan class="cls-9" x="374.55" y="24">n</tspan><tspan class="cls-7" x="386.11" y="24">t</tspan><tspan x="392.55" y="24">e a um </tspan><tspan x="0" y="48">quar</tspan><tspan class="cls-4" x="42.14" y="48">t</tspan><tspan class="cls-5" x="48.58" y="48">ei</tspan><tspan class="cls-11" x="64.68" y="48">r</tspan><tspan x="71.56" y="48">ão típi</tspan><tspan class="cls-12" x="127.22" y="48">c</tspan><tspan x="138.1" y="48">o e en</tspan><tspan class="cls-9" x="195.34" y="48">c</tspan><tspan x="206.22" y="48">o</tspan><tspan class="cls-12" x="218.12" y="48">n</tspan><tspan x="229.68" y="48">t</tspan><tspan class="cls-11" x="236.38" y="48">r</tspan><tspan x="243.26" y="48">a-se sem uso, o que </tspan><tspan x="0" y="72">originou a ideia de t</tspan><tspan class="cls-11" x="181.42" y="72">r</tspan><tspan x="188.3" y="72">ans</tspan><tspan class="cls-10" x="220.6" y="72">f</tspan><tspan class="cls-8" x="226.68" y="72">ormá-lo em um pa</tspan><tspan class="cls-10" x="399.57" y="72">r</tspan><tspan x="406.07" y="72">que </tspan><tspan x="0" y="96">urbano, ou seja, um espa</tspan><tspan class="cls-9" x="230.74" y="96">ç</tspan><tspan x="241.62" y="96">o ao a</tspan><tspan class="cls-13" x="297.42" y="96">r</tspan><tspan x="303.96" y="96" xml:space="preserve"> liv</tspan><tspan class="cls-14" x="329.51" y="96">r</tspan><tspan x="336.01" y="96">e pa</tspan><tspan class="cls-15" x="376.09" y="96">r</tspan><tspan x="382.97" y="96">a </tspan><tspan x="0" y="120">di</tspan><tspan class="cls-10" x="16.8" y="120">f</tspan><tspan x="22.88" y="120">e</tspan><tspan class="cls-6" x="34.62" y="120">r</tspan><tspan x="41.12" y="120">e</tspan><tspan class="cls-12" x="52.86" y="120">n</tspan><tspan class="cls-7" x="64.42" y="120">t</tspan><tspan x="70.86" y="120">es </tspan><tspan class="cls-16" x="97.44" y="120">a</tspan><tspan x="108.26" y="120">tividades físicas. Conside</tspan><tspan class="cls-10" x="337.82" y="120">r</tspan><tspan x="344.32" y="120">e esse </tspan><tspan class="cls-9" x="0" y="144">c</tspan><tspan x="10.88" y="144">enário nas ques</tspan><tspan class="cls-4" x="156.66" y="144">t</tspan><tspan x="163.1" y="144">ões a segui</tspan><tspan class="cls-17" x="267.66" y="144">r</tspan><tspan x="273.76" y="144">.</tspan></text></g></g></g></g></svg>