<svg xmlns="http://www.w3.org/2000/svg" xmlns:xlink="http://www.w3.org/1999/xlink" viewBox="0 0 672.45 578.61"><defs><style>.cls-1,.cls-10,.cls-15,.cls-17,.cls-22{fill:none;}.cls-2{fill:#c4dcff;}.cls-3{fill:#8acec3;}.cls-4{fill:#8cbfff;}.cls-5{fill:#c5e2ff;opacity:0.6;}.cls-6{clip-path:url(#clip-path);}.cls-7{fill:#fff;}.cls-8{fill:#312235;}.cls-9{fill:#cb7061;}.cls-10{stroke:#0add0a;stroke-linecap:round;stroke-linejoin:round;}.cls-11{fill:#3a1e1c;}.cls-12{fill:url(#Gradiente_sem_nome_13);}.cls-13,.cls-24{fill:#ec9477;}.cls-14{fill:#3d201f;}.cls-15,.cls-24{stroke:#b2574d;}.cls-15,.cls-17,.cls-22,.cls-24{stroke-miterlimit:10;}.cls-16{fill:#b0514e;}.cls-17{stroke:#ec0a0a;}.cls-18{fill:#f99699;}.cls-19{fill:#f6a7a7;}.cls-20,.cls-25{fill:#229383;}.cls-21{fill:#d58068;}.cls-22{stroke:#1b6d5f;}.cls-23{fill:snow;}.cls-25{font-size:17px;font-family:Raleway-Regular, Raleway;}.cls-26{letter-spacing:0em;}.cls-27{letter-spacing:-0.03em;}.cls-28{letter-spacing:0em;}.cls-29{letter-spacing:-0.01em;}.cls-30{letter-spacing:0em;}.cls-31{letter-spacing:-0.01em;}.cls-32{letter-spacing:-0.01em;}.cls-33{letter-spacing:0em;}.cls-34{letter-spacing:-0.03em;}.cls-35{letter-spacing:-0.01em;}.cls-36{letter-spacing:-0.03em;}.cls-37{letter-spacing:-0.03em;}.cls-38{letter-spacing:-0.02em;}.cls-39{letter-spacing:-0.01em;}.cls-40{letter-spacing:-0.02em;}.cls-41{letter-spacing:-0.02em;}.cls-42{letter-spacing:-0.01em;}.cls-43{letter-spacing:0em;}.cls-44{letter-spacing:-0.01em;}.cls-45{letter-spacing:-0.02em;}.cls-46{letter-spacing:-0.01em;}.cls-47{letter-spacing:-0.02em;}.cls-48{letter-spacing:-0.01em;}.cls-49{letter-spacing:-0.03em;}.cls-50{letter-spacing:-0.02em;}.cls-51{opacity:0.25;}.cls-52{fill:#00890a;}</style><clipPath id="clip-path"><path class="cls-1" d="M299.14,173.18c-4.77-8.32-50.87-18.11-49.94-18C251.27,158,164.57,51.61,128.49,55,90.34,58.52,84.12,86.25,84.12,86.25L66.08,123C30,142.35,5.65,178.91,5.65,220.85c0,62.06,53.31,112.36,119.07,112.36,65,0,117.82-49.15,119-110.21C261.65,210.67,303.53,180.85,299.14,173.18Z"/></clipPath><linearGradient id="Gradiente_sem_nome_13" x1="131.93" y1="154.07" x2="132.89" y2="164.33" gradientUnits="userSpaceOnUse"><stop offset="0" stop-color="#d58068"/><stop offset="1" stop-color="#ec9477"/></linearGradient></defs><title>Micromundo3pg2</title><g id="Camada_2" data-name="Camada 2"><g id="Camada_1-2" data-name="Camada 1"><path class="cls-2" d="M608.16,2H135.32a6.8,6.8,0,0,0-7,6.59v387.9a6.8,6.8,0,0,0,7,6.59H608.16a6.8,6.8,0,0,0,7-6.59V8.62A6.8,6.8,0,0,0,608.16,2Z"/><path class="cls-3" d="M124.6,108.49c65.76,0,119.07,50.31,119.07,112.36S190.36,333.21,124.6,333.21,5.53,282.91,5.53,220.85,58.84,108.49,124.6,108.49m0-5.53a130,130,0,0,0-48.4,9.22,124.81,124.81,0,0,0-39.59,25.19A117.37,117.37,0,0,0,9.84,174.85a112.42,112.42,0,0,0,0,92,117.37,117.37,0,0,0,26.77,37.48A124.81,124.81,0,0,0,76.2,329.52a131.58,131.58,0,0,0,96.79,0,124.81,124.81,0,0,0,39.59-25.19,117.37,117.37,0,0,0,26.77-37.48,112.42,112.42,0,0,0,0-92,117.37,117.37,0,0,0-26.77-37.48A124.81,124.81,0,0,0,173,112.18,130,130,0,0,0,124.6,103Z"/><ellipse class="cls-4" cx="124.6" cy="220.85" rx="119.07" ry="112.36"/><path class="cls-5" d="M237.1,201.37a106.66,106.66,0,0,0-2.79-24.25c-18.07-40.33-60.39-68.63-109.72-68.63-65.76,0-119.07,50.31-119.07,112.36A106.67,106.67,0,0,0,8.32,245.1C26.39,285.43,68.71,313.73,118,313.73,183.79,313.73,237.1,263.43,237.1,201.37Z"/><g class="cls-6"><path class="cls-7" d="M84.86,290.88S98.4,278.79,98.4,276s-7.93-4.61-7.93-4.61L79.18,287.67l5.3,4.05Z"/><path class="cls-8" d="M105,548s-3.74,8-2.37,12.55,9.52,7.59,9.52,7.59,20.49,12.41,38.08,10.2S162,572.26,162,572.26l-30.84-25.4Z"/><path class="cls-8" d="M164.71,546.05s-2.86,5.77-1.68,9.63,8.61,5.61,8.61,5.61l5.72.21,57.47,3s4.11-11.68-28.62-18.49S164.71,546.05,164.71,546.05Z"/><path class="cls-9" d="M111.77,403.52l1.31,14.55S97,457.13,108,530.27l-3.3,22.36s13.3,6.23,22.9,8.79a40,40,0,0,0,17.69.66s-21.91-24-25.07-27.44l27.45-132.91S131.88,369.94,111.77,403.52Z"/><path class="cls-9" d="M157.3,402.52s-14.24,39,8.55,113.16c0,0,3.26,30.53-1.14,30.37s44.82,3.73,48,3.85-24.55-11.5-27-17.17S182.3,421.54,185.6,412A130.26,130.26,0,0,0,190.42,393S160,396.59,157.3,402.52Z"/><path class="cls-10" d="M165.65,544.47"/><path class="cls-11" d="M97.39,177.06s-25.93-72.89,4.11-110c0,0,32.12-22,56.13,3.86s7.18,98.7,7.18,98.7Z"/><path class="cls-12" d="M126,155.39l-1.3,5.41s-11,7.13-21,6.56c-3-.17,37.46,23.66,39.66,23.74s19-27.73,19-27.73-11.28-2.07-15-2.21-8-10.11-8-10.11Z"/><path class="cls-13" d="M100.94,100.71s-.49,61.24,35.8,56.21c19.62-2.72,26.27-22.34,22.6-39.2a105.85,105.85,0,0,1-2.09-25.86S155,75.62,135.85,80.63,108.4,83.8,108.4,83.8,99.8,85.55,100.94,100.71Z"/><path class="cls-11" d="M97.88,104.12s13.87-1.54,20.14-4.24l.32-8.51s1.41,5.49,2.68,6.86,12.65-.41,17.7-2,2.65-8.13,2.65-8.13l2.4,6.55s15.8,1.91,15.89-.52-2.13-13.66-6.75-15.89S112.07,75.82,107,80.54,98.13,97.38,97.88,104.12Z"/><path class="cls-10" d="M157.15,184.43"/><ellipse class="cls-14" cx="147.02" cy="112.79" rx="2.17" ry="1.75" transform="translate(-10.23 14.76) rotate(-5.56)"/><ellipse class="cls-14" cx="125.42" cy="114.83" rx="2.17" ry="1.75" transform="translate(-10.53 12.68) rotate(-5.56)"/><path class="cls-15" d="M135.74,131.12c4.29,1.59,13.45-1.41,6.75-5.67-3.66-2.33-2.79-4.72-2.79-4.72"/><path class="cls-16" d="M146.46,137.38c-10.16,2-20.71.08-20.31.63,0,0,1,5.91,9.93,5.87C145.37,143.84,146.46,137.38,146.46,137.38Z"/><path class="cls-7" d="M121.27,162.1s12.45,7.55,20.42,6.53c3.78-.49,10.48-7.72,10.48-7.72l7.17,71.72-27.53,1.24Z"/><path class="cls-8" d="M95.44,285.92S85.7,326,86.8,337s2.58,28.84,18.8,80.69c0,0,43.27,17.91,83-.44,0,0,3.47-1,6-24.22s6.86-78.83-4.82-103.64S95.44,285.92,95.44,285.92Z"/><path class="cls-17" d="M64.38,499.79"/><path class="cls-11" d="M149.83,102.53s-3.56-2.44-5.65.05a.49.49,0,0,0-.12.69c.28.4.72-1.19,5.64-.26C149.7,103,150,103.08,149.83,102.53Z"/><path class="cls-11" d="M120.91,104.3s3.18-2.92,5.61-.75a.49.49,0,0,1,.21.66c-.22.43-.89-1.07-5.62.54C121.11,104.76,120.81,104.87,120.91,104.3Z"/><path class="cls-7" d="M145.17,137.61s-.36,1.33-1.1,1.71-8.64.83-13.33.4c-3-.27-3.54-1.38-3.46-1.78C127.29,137.94,137.7,138.88,145.17,137.61Z"/><path class="cls-18" d="M137.86,143.79s-.68-4-10.22-3C127.63,140.82,129.91,144.49,137.86,143.79Z"/><ellipse class="cls-19" cx="155.34" cy="118.43" rx="2" ry="3.44" transform="translate(24.43 263.41) rotate(-85.24)"/><ellipse class="cls-19" cx="118.73" cy="123.54" rx="3.44" ry="2" transform="translate(-24.35 29.27) rotate(-12.76)"/><path class="cls-20" d="M184.39,221.3,207.56,242s5.86,3.79,8,4,10.1-5.26,10.1-5.26l21.93-47.91s-23.94-8.88-24.14-10.87S216,208.85,216,208.85s-.56-.87-3.59-.28c-1.66.32-1,3.1-4.35-.08a24.23,24.23,0,0,1-5.18-5.81c-16.15-22.85-31.25-39.16-32.28-40s-6.06-3.41-7.86-2.57-10.61.78-10.61.78l1.46,63.78L121.27,162.1a35.79,35.79,0,0,1-14.42,1.44c-7.47-1-20,2-20,2s-5.66,15.32-9.7,16.48S71,193.22,71,193.22c-1.2,1.46-5.63,7.79-10.84,15.32h0s-20.72,25.39-23.75,27.6S35,243.56,35,243.56l43.59,46.32L94,270.25C90,270,70.11,242.74,70.11,242.74a7.46,7.46,0,0,0,.86-5.92c9.57-10.22,23.57-26.09,23.57-26.09.22,2.25,3.58,9.29,9.36,18s5.35,23.3,5.35,23.3c-8.26,12-13.82,33.91-13.82,33.91S96,290.3,110,297.28c6.09,3,25.71,9,25.71,9l21.82-23.93,28.07,19.7s5-5,4.54-10.1-10.19-35.11-10.19-35.11-1-10.49.15-13.63S184.39,221.3,184.39,221.3Z"/><path class="cls-21" d="M84.86,290.88s6.75,5.92,8.11,4.55L99.85,276A76.9,76.9,0,0,0,84.86,290.88Z"/><path class="cls-13" d="M94.45,291.53s3.26-3.24,8.21,1.55,5.36,5.12,5.36,5.12,3.84,1.59,4.16-2.56c0,0,4.87.71,3.77-4.64,0,0,3.39-2.44.39-6.66,0,0,3-.58,1.23-6.34s-13.29-11.32-13.29-11.32-5.49-1.93-6,4.47c0,0-4,.21-2.58,5.73,0,0-2.57,2.33-2,4.85s-.06,2-.06,2S90,287.89,94.45,291.53Z"/><path class="cls-15" d="M112.18,295.64s-6.52-7.56-13.63-11"/><path class="cls-15" d="M116,291s-9.42-8.88-16.36-12.62"/><path class="cls-15" d="M116.35,284.34S108,274.41,101,272.23"/><path class="cls-3" d="M121.27,162.1s-13.35,6.44-20.58,17.38l24.53,7s-8.35,8.21-8.17,10,36.58,28.21,36.58,28.21,18.54-34,16.48-35.69-13.43-3.77-13.43-3.77,10.77-15.26,12.64-15.45-15.47-9-17.15-8.88,1.39,61,1.39,61l-.09,1.32Z"/><path class="cls-8" d="M153.63,224.68s5.12,45.23,3.87,57.68"/><circle class="cls-3" cx="161.22" cy="238.33" r="2.95"/><circle class="cls-3" cx="162.4" cy="259.34" r="2.95"/><path class="cls-22" d="M95.81,201.37a42.62,42.62,0,0,0-6.43-33.86"/><path class="cls-22" d="M166.44,161.89c5.54,5.77,8.42,13.52,11.16,21,2.31,6.35,4.66,13,4.05,19.69"/><path class="cls-22" d="M79.17,182.09a15.52,15.52,0,0,1,2,3.91"/><path class="cls-22" d="M71.85,194a19.51,19.51,0,0,1,3.41.47"/><path class="cls-22" d="M184.61,221.42a41.06,41.06,0,0,0,.24-6.64"/><path class="cls-22" d="M219.4,218.09a41.06,41.06,0,0,0-1.58-6.45"/><path class="cls-22" d="M211.48,218.63a32.56,32.56,0,0,0,.42-6"/><path class="cls-22" d="M110.64,252a32.87,32.87,0,0,1,6.36-3"/><path class="cls-22" d="M71,236.81s-5.53.13-7.09-1.43"/><path class="cls-22" d="M70.11,242.74a10,10,0,0,1-4.43,1.63"/><path class="cls-23" d="M223.83,184.61a6.2,6.2,0,0,1,1.8-3.48l22.59,6.56L245.87,194Z"/><path class="cls-13" d="M228.38,182.51s1.41-3.25.64-5.73-3.08-7.83-2.67-10.71a56,56,0,0,0,.73-8.62c0-8.83-.69-21.15-.64-21.52.08-.55,3.52-.47,3.7,1.36a50.73,50.73,0,0,0,.34,7c.79,5.12,1.78,11.28,1.78,11.28s6.83-2,9.32-.17c0,0,4.54-1.18,5,.93,0,0,3.64-.26,3.72,1.37a42.41,42.41,0,0,1,0,5c0,.3-1.83,3.18-2,4.79-.41,3.21.55,6.27-.31,8.1-1.3,2.75-4.22,4.51-4.33,5.27s-1.45,7.15-1.84,7.44S228,185.06,228.38,182.51Z"/><path class="cls-15" d="M241.58,155.42s.5,6.68.37,7.59-1.23,3.51-1.27,3.91c-.26,2.34-4.29,3-4.11,0,.07-1.29,1.92-4.38,1.37-5.11a8.81,8.81,0,0,1-.91-2.64s-1.7,1.25-2.33.42"/><path class="cls-15" d="M246.57,156.36l-.91,6.44c-.1.73-.64,6.15-2.46,5.89a3.39,3.39,0,0,1-2.52-1.75"/><path class="cls-15" d="M250.31,162.72s-1.24,3.91-2.18,4.61-2.69-.24-2.93-1.25"/><path class="cls-24" d="M233,175.34c.62.09,3.28-2,3.79-3.13s1-2.62,1-2.62,2-1,2.88-.85a2.82,2.82,0,0,0,3.23-2.22c0-1.11-1.44-2.28-4.11-1.69a13.53,13.53,0,0,1-2.82.8,4.65,4.65,0,0,0-2.64.39,4.49,4.49,0,0,1-2.5.62,4.2,4.2,0,0,0-2.42.36"/></g><text class="cls-25" transform="translate(246.77 31.55)">De<tspan class="cls-26" x="22.13" y="0">n</tspan><tspan x="31.96" y="0">t</tspan><tspan class="cls-27" x="37.65" y="0">r</tspan><tspan x="43.18" y="0">e as inici</tspan><tspan class="cls-28" x="109.73" y="0">a</tspan><tspan x="118.93" y="0">ti</tspan><tspan class="cls-29" x="128.33" y="0">v</tspan><tspan x="137.17" y="0">as de des</tspan><tspan class="cls-30" x="212.77" y="0">c</tspan><tspan x="222.02" y="0">e</tspan><tspan class="cls-26" x="232" y="0">n</tspan><tspan x="241.82" y="0">t</tspan><tspan class="cls-31" x="247.52" y="0">r</tspan><tspan x="253.36" y="0">alização da </tspan><tspan x="-16.17" y="20.4">administ</tspan><tspan class="cls-31" x="50.59" y="20.4">r</tspan><tspan x="56.44" y="20.4">ação pública municipal, a criação de </tspan><tspan class="cls-32" x="-24.24" y="40.8">&quot;</tspan><tspan class="cls-33" x="-19.46" y="40.8">subp</tspan><tspan class="cls-34" x="19.89" y="40.8">r</tspan><tspan class="cls-26" x="25.41" y="40.8">e</tspan><tspan class="cls-34" x="35.31" y="40.8">f</tspan><tspan x="40.48" y="40.8">eitu</tspan><tspan class="cls-31" x="69.95" y="40.8">r</tspan><tspan x="75.8" y="40.8">a</tspan><tspan class="cls-35" x="85.07" y="40.8">s</tspan><tspan class="cls-36" x="93.21" y="40.8">&quot;</tspan><tspan x="97.66" y="40.8" xml:space="preserve"> ou de</tspan><tspan class="cls-37" x="147.1" y="40.8"> </tspan><tspan class="cls-38" x="150.92" y="40.8">&quot;</tspan><tspan class="cls-26" x="155.6" y="40.8">c</tspan><tspan x="164.85" y="40.8">oo</tspan><tspan class="cls-27" x="185.08" y="40.8">r</tspan><tspan x="190.6" y="40.8">dena</tspan><tspan class="cls-26" x="230.33" y="40.8">ç</tspan><tspan x="239.58" y="40.8">ões distritai</tspan><tspan class="cls-39" x="328.88" y="40.8">s</tspan><tspan class="cls-37" x="337.02" y="40.8">&quot;</tspan><tspan x="341.47" y="40.8"> </tspan><tspan x="39.75" y="61.2">são </tspan><tspan class="cls-40" x="71.74" y="61.2">e</tspan><tspan class="cls-41" x="81.4" y="61.2">x</tspan><tspan x="89.59" y="61.2">emplos onde a participação dos </tspan><tspan x="34.49" y="81.6">memb</tspan><tspan class="cls-34" x="86.21" y="81.6">r</tspan><tspan x="91.73" y="81.6">os da </tspan><tspan class="cls-30" x="138.63" y="81.6">c</tspan><tspan x="147.88" y="81.6">omunidade </tspan><tspan class="cls-42" x="242.06" y="81.6">t</tspan><tspan x="247.54" y="81.6">em impac</tspan><tspan class="cls-29" x="325.89" y="81.6">t</tspan><tspan x="331.36" y="81.6">o </tspan><tspan x="69.95" y="102">di</tspan><tspan class="cls-34" x="84.23" y="102">r</tspan><tspan class="cls-43" x="89.76" y="102">e</tspan><tspan class="cls-29" x="99.67" y="102">t</tspan><tspan x="105.14" y="102">o na d</tspan><tspan class="cls-26" x="153.68" y="102">e</tspan><tspan x="163.57" y="102">finição de demandas e </tspan><tspan x="32.44" y="122.4">prioridades e no a</tspan><tspan class="cls-26" x="173.33" y="122.4">c</tspan><tspan x="182.58" y="122.4">ompanhame</tspan><tspan class="cls-30" x="282.76" y="122.4">n</tspan><tspan class="cls-42" x="292.58" y="122.4">t</tspan><tspan x="298.06" y="122.4">o dos </tspan><tspan x="29.92" y="142.8">i</tspan><tspan class="cls-44" x="33.63" y="142.8">n</tspan><tspan class="cls-45" x="43.33" y="142.8">v</tspan><tspan x="52.09" y="142.8">estime</tspan><tspan class="cls-26" x="105.35" y="142.8">n</tspan><tspan class="cls-29" x="115.17" y="142.8">t</tspan><tspan x="120.65" y="142.8">os e qualidade dos </tspan><tspan class="cls-27" x="273.9" y="142.8">r</tspan><tspan x="279.43" y="142.8">ecursos </tspan><tspan x="187.93" y="163.2">e servi</tspan><tspan class="cls-26" x="239.24" y="163.2">ç</tspan><tspan x="248.49" y="163.2">os públi</tspan><tspan class="cls-30" x="310.62" y="163.2">c</tspan><tspan x="319.87" y="163.2">os. </tspan><tspan class="cls-46" x="93.62" y="204">P</tspan><tspan x="104.04" y="204">odemos </tspan><tspan class="cls-26" x="173.06" y="204">c</tspan><tspan x="182.31" y="204">onside</tspan><tspan class="cls-31" x="234.87" y="204">r</tspan><tspan x="240.72" y="204">a</tspan><tspan class="cls-47" x="249.98" y="204">r</tspan><tspan x="255.54" y="204" xml:space="preserve"> que nosso </tspan><tspan x="60.42" y="224.4">bair</tspan><tspan class="cls-34" x="89.84" y="224.4">r</tspan><tspan x="95.37" y="224.4">o </tspan><tspan class="cls-30" x="109.82" y="224.4">c</tspan><tspan x="119.07" y="224.4">o</tspan><tspan class="cls-26" x="129.18" y="224.4">n</tspan><tspan x="139.01" y="224.4">ta </tspan><tspan class="cls-26" x="158.3" y="224.4">c</tspan><tspan x="167.55" y="224.4">om uma subp</tspan><tspan class="cls-34" x="276.3" y="224.4">r</tspan><tspan class="cls-30" x="281.82" y="224.4">e</tspan><tspan class="cls-34" x="291.72" y="224.4">f</tspan><tspan x="296.88" y="224.4">eitu</tspan><tspan class="cls-31" x="326.36" y="224.4">r</tspan><tspan x="332.21" y="224.4">a </tspan><tspan class="cls-34" x="37.42" y="244.8">r</tspan><tspan x="42.94" y="244.8">espons</tspan><tspan class="cls-48" x="99.99" y="244.8">á</tspan><tspan class="cls-45" x="109.02" y="244.8">v</tspan><tspan x="117.77" y="244.8">e</tspan><tspan class="cls-49" x="127.75" y="244.8">l</tspan><tspan x="131.85" y="244.8" xml:space="preserve"> po</tspan><tspan class="cls-47" x="156.79" y="244.8">r</tspan><tspan x="162.35" y="244.8" xml:space="preserve"> l</tspan><tspan class="cls-48" x="171.31" y="244.8">e</tspan><tspan class="cls-42" x="181.05" y="244.8">v</tspan><tspan x="189.89" y="244.8">a</tspan><tspan class="cls-30" x="199.15" y="244.8">n</tspan><tspan x="208.98" y="244.8">ta</tspan><tspan class="cls-47" x="223.94" y="244.8">r</tspan><tspan x="229.5" y="244.8" xml:space="preserve"> demandas da </tspan><tspan class="cls-26" x="22.53" y="265.2">c</tspan><tspan x="31.77" y="265.2">omunidade local, bem </tspan><tspan class="cls-30" x="212.5" y="265.2">c</tspan><tspan x="221.75" y="265.2">omo po</tspan><tspan class="cls-50" x="282.54" y="265.2">r</tspan><tspan x="288.1" y="265.2" xml:space="preserve"> opina</tspan><tspan class="cls-47" x="335.92" y="265.2">r</tspan><tspan x="341.48" y="265.2"> </tspan><tspan x="53.33" y="285.6">sob</tspan><tspan class="cls-34" x="82.21" y="285.6">r</tspan><tspan x="87.74" y="285.6">e ques</tspan><tspan class="cls-29" x="140.89" y="285.6">t</tspan><tspan x="146.37" y="285.6">ões est</tspan><tspan class="cls-31" x="203.03" y="285.6">r</tspan><tspan class="cls-43" x="208.88" y="285.6">a</tspan><tspan class="cls-29" x="218.07" y="285.6">t</tspan><tspan x="223.55" y="285.6">égicas, </tspan><tspan class="cls-26" x="282.77" y="285.6">c</tspan><tspan x="292.02" y="285.6">omo a </tspan><tspan x="18.8" y="306">prioridade pa</tspan><tspan class="cls-31" x="123.23" y="306">r</tspan><tspan x="129.08" y="306">a uso dos </tspan><tspan class="cls-34" x="208.81" y="306">r</tspan><tspan x="214.33" y="306">ecursos na á</tspan><tspan class="cls-34" x="313.49" y="306">r</tspan><tspan x="319.02" y="306">ea. </tspan><tspan x="25.14" y="326.4">Anualme</tspan><tspan class="cls-26" x="96.13" y="326.4">n</tspan><tspan class="cls-29" x="105.96" y="326.4">t</tspan><tspan x="111.43" y="326.4">e, os mo</tspan><tspan class="cls-31" x="178.04" y="326.4">r</tspan><tspan x="183.89" y="326.4">ado</tspan><tspan class="cls-34" x="213.84" y="326.4">r</tspan><tspan x="219.37" y="326.4">es podem </tspan><tspan class="cls-35" x="303.07" y="326.4">f</tspan><tspan x="308.55" y="326.4">a</tspan><tspan class="cls-48" x="317.81" y="326.4">z</tspan><tspan x="325.94" y="326.4">e</tspan><tspan class="cls-47" x="335.92" y="326.4">r</tspan><tspan x="341.48" y="326.4"> </tspan><tspan x="-42.43" y="346.8">p</tspan><tspan class="cls-34" x="-31.94" y="346.8">r</tspan><tspan x="-26.42" y="346.8">opostas que são analisadas po</tspan><tspan class="cls-47" x="214.42" y="346.8">r</tspan><tspan x="219.98" y="346.8" xml:space="preserve"> uma </tspan><tspan class="cls-26" x="263.63" y="346.8">c</tspan><tspan x="272.88" y="346.8">omissão.</tspan></text><g class="cls-51"><path class="cls-52" d="M89,0,83.92,21.15h7.15V41.72h-20V21.15L78.56,0Zm29.27,0L113.2,21.15h7.15V41.72h-20V21.15L107.83,0Z"/></g><g class="cls-51"><path class="cls-52" d="M665,362.47l7.45,21.15v20.57h-20V383.62h7.15l-5.07-21.15Zm-29.27,0,7.45,21.15v20.57h-20V383.62h7.15l-5.06-21.15Z"/></g></g></g></svg>