<svg xmlns="http://www.w3.org/2000/svg" xmlns:xlink="http://www.w3.org/1999/xlink" viewBox="0 0 1124.64 651.26"><defs><style>.cls-1{fill:#e6f4ff;}.cls-2{fill:none;}.cls-3{fill:#8bb5d8;}.cls-4{fill:#329e89;}.cls-5{clip-path:url(#clip-path);}.cls-6{fill:#c5e2ff;}.cls-7{clip-path:url(#clip-path-2);}.cls-8{fill:#fffdfd;}.cls-9{fill:#fff;}.cls-10{fill:#3a1e1c;}.cls-11{clip-path:url(#clip-path-3);}.cls-12{fill:#d88268;}.cls-13{fill:#d98369;}.cls-14{fill:#da8469;}.cls-15{fill:#db856a;}.cls-16{fill:#dc866b;}.cls-17{fill:#dd876b;}.cls-18{fill:#de886c;}.cls-19{fill:#df896d;}.cls-20{fill:#e08a6d;}.cls-21{fill:#e18b6e;}.cls-22{fill:#e28c6f;}.cls-23{fill:#e48d70;}.cls-24{fill:#e58d70;}.cls-25{fill:#e68e71;}.cls-26{fill:#e78f72;}.cls-27{fill:#e89072;}.cls-28{fill:#e99173;}.cls-29{fill:#ea9274;}.cls-30{fill:#eb9374;}.cls-31{fill:#ec9475;}.cls-32{fill:#ed9576;}.cls-33{fill:#ee9676;}.cls-34{fill:#ef9777;}.cls-35{fill:#3d201f;}.cls-36{fill:#b5574d;}.cls-37{fill:#b3514e;}.cls-38{fill:#312235;}.cls-39{fill:#fc999c;}.cls-40{fill:#f9aaaa;}.cls-41{fill:#196b5d;}.cls-42{fill:#208975;}.cls-43{fill:#8acec3;}.cls-44{fill:#5b1f3c;}.cls-45{fill:#175b4e;}</style><clipPath id="clip-path"><path class="cls-1" d="M428.87,402.79a192.51,192.51,0,0,0-5.05-43.86c-32.69-73-109.23-124.15-198.45-124.15C106.43,234.78,10,325.78,10,438a193.16,193.16,0,0,0,5,43.87C47.74,554.84,124.28,606,213.5,606,332.44,606,428.87,515,428.87,402.79Z"/></clipPath><clipPath id="clip-path-2"><path class="cls-2" d="M541.11,351.64c-10.3-18-97.34-31.5-97.34-31.5S301.45,131.38,232.44,137.81s-80.25,56.58-80.25,56.58l-32.63,66.55C54.29,295.86,10.25,362,10.25,437.86c0,112.25,96.43,203.24,215.37,203.24,117.57,0,213.12-88.9,215.32-199.35C473.29,419.44,549.06,365.51,541.11,351.64Z"/></clipPath><clipPath id="clip-path-3"><path class="cls-2" d="M227.93,321.46l-2.36,9.79s-19.92,12.89-37.91,11.87c-5.34-.31,67.76,42.79,71.74,42.94s34.38-50.15,34.38-50.15-20.41-3.74-27.17-4-14.47-18.28-14.47-18.28Z"/></clipPath></defs><title>1-fala1</title><g id="Camada_5" data-name="Camada 5"><ellipse class="cls-3" cx="225.37" cy="438.02" rx="215.37" ry="203.24"/><path class="cls-4" d="M225.37,234.78c119,0,215.37,91,215.37,203.24S344.32,641.26,225.37,641.26,10,550.27,10,438s96.42-203.24,215.37-203.24m0-10a235.1,235.1,0,0,0-87.54,16.69A225.72,225.72,0,0,0,66.22,287,212.37,212.37,0,0,0,17.8,354.82a203.34,203.34,0,0,0,0,166.4A212.3,212.3,0,0,0,66.22,589a225.89,225.89,0,0,0,71.61,45.57,238.05,238.05,0,0,0,175.08,0A225.94,225.94,0,0,0,384.53,589a212.12,212.12,0,0,0,48.41-67.79,203.34,203.34,0,0,0,0-166.4A212.19,212.19,0,0,0,384.53,287a225.76,225.76,0,0,0-71.62-45.57,235.1,235.1,0,0,0-87.54-16.69Z"/><path class="cls-1" d="M428.87,402.79a192.51,192.51,0,0,0-5.05-43.86c-32.69-73-109.23-124.15-198.45-124.15C106.43,234.78,10,325.78,10,438a193.16,193.16,0,0,0,5,43.87C47.74,554.84,124.28,606,213.5,606,332.44,606,428.87,515,428.87,402.79Z"/><g class="cls-5"><circle class="cls-1" cx="306.79" cy="408.71" r="104.58"/><circle class="cls-1" cx="306.79" cy="408.71" r="100.64"/><circle class="cls-1" cx="306.79" cy="408.71" r="98.66"/><circle class="cls-1" cx="306.79" cy="408.71" r="96.69"/><circle class="cls-1" cx="306.79" cy="408.71" r="94.72"/><circle class="cls-1" cx="306.79" cy="408.71" r="92.74"/><circle class="cls-1" cx="306.79" cy="408.71" r="90.77"/><circle class="cls-1" cx="306.79" cy="408.71" r="88.8"/><circle class="cls-1" cx="306.79" cy="408.71" r="86.82"/><circle class="cls-1" cx="306.79" cy="408.71" r="84.85"/><circle class="cls-1" cx="306.79" cy="408.71" r="82.88"/><circle class="cls-1" cx="306.79" cy="408.71" r="80.9"/><circle class="cls-1" cx="306.79" cy="408.71" r="78.93"/><circle class="cls-1" cx="306.79" cy="408.71" r="76.96"/><circle class="cls-1" cx="306.79" cy="408.71" r="74.98"/><circle class="cls-1" cx="306.79" cy="408.71" r="73.01"/><circle class="cls-1" cx="306.79" cy="408.71" r="71.04"/><circle class="cls-1" cx="306.79" cy="408.71" r="69.06"/><circle class="cls-1" cx="306.79" cy="408.71" r="67.09"/><circle class="cls-1" cx="306.79" cy="408.71" r="65.12"/><circle class="cls-1" cx="306.79" cy="408.71" r="63.15"/><circle class="cls-1" cx="306.79" cy="408.71" r="61.17"/><circle class="cls-1" cx="306.79" cy="408.71" r="59.2"/><circle class="cls-1" cx="306.79" cy="408.71" r="57.23"/><circle class="cls-1" cx="306.79" cy="408.71" r="55.25"/><circle class="cls-1" cx="306.79" cy="408.71" r="53.28"/><circle class="cls-1" cx="306.79" cy="408.71" r="51.31"/><circle class="cls-1" cx="306.79" cy="408.71" r="49.33"/><circle class="cls-1" cx="306.79" cy="408.71" r="47.36"/><circle class="cls-1" cx="306.79" cy="408.71" r="45.39"/><circle class="cls-1" cx="306.79" cy="408.71" r="43.41"/><circle class="cls-1" cx="306.79" cy="408.71" r="41.44"/><circle class="cls-1" cx="306.79" cy="408.71" r="39.47"/><circle class="cls-1" cx="306.79" cy="408.71" r="37.49"/><circle class="cls-1" cx="306.79" cy="408.71" r="35.52"/><circle class="cls-1" cx="306.79" cy="408.71" r="33.55"/><circle class="cls-1" cx="306.79" cy="408.71" r="31.57"/><circle class="cls-1" cx="306.79" cy="408.71" r="29.6"/><circle class="cls-1" cx="306.79" cy="408.71" r="27.63"/><circle class="cls-1" cx="306.79" cy="408.71" r="25.65"/><circle class="cls-1" cx="306.79" cy="408.71" r="23.68"/><circle class="cls-1" cx="306.79" cy="408.71" r="21.71"/><circle class="cls-1" cx="306.79" cy="408.71" r="19.73"/><circle class="cls-1" cx="306.79" cy="408.71" r="17.76"/><circle class="cls-1" cx="306.79" cy="408.71" r="15.79"/><circle class="cls-1" cx="306.79" cy="408.71" r="13.81"/><circle class="cls-1" cx="306.79" cy="408.71" r="11.84"/><circle class="cls-1" cx="306.79" cy="408.71" r="9.87"/><circle class="cls-1" cx="306.79" cy="408.71" r="7.89"/><circle class="cls-1" cx="306.79" cy="408.71" r="5.92"/><circle class="cls-1" cx="306.79" cy="408.71" r="3.95"/><circle class="cls-1" cx="306.79" cy="408.71" r="1.97"/></g><path class="cls-3" d="M787.8,44.22c-174.89,0-318.64,118.13-335.23,269.27L353,353.14s-6.51,2.41-5.85,11.74a12.7,12.7,0,0,0,7.43,10.89L458.82,407C492,541,626.68,641.26,787.8,641.26c186,0,336.84-133.65,336.84-298.52S973.83,44.22,787.8,44.22Z"/><path class="cls-6" d="M787.75,0C612.85,0,469.11,118.13,452.52,269.27L353,308.92s-6.51,2.41-5.86,11.74a12.7,12.7,0,0,0,7.44,10.88l104.21,31.28C492,496.78,626.63,597,787.75,597c186,0,336.84-133.65,336.84-298.52S973.78,0,787.75,0Z"/><g class="cls-7"><path class="cls-8" d="M329.94,510.18s.78-10,4.41-10.57l24.22,31.55-9.37,5.44Z"/><path class="cls-9" d="M153.53,566.53s24.48-21.86,24.48-27-14.35-8.34-14.35-8.34l-20.41,29.5,9.58,7.33Z"/><path class="cls-10" d="M176.44,360.74s-46.9-131.84,7.44-198.9c0,0,58.11-39.81,101.53,7s13,178.54,13,178.54Z"/><g class="cls-11"><polygon class="cls-12" points="293.71 313.64 293.74 313.95 182.31 324.32 182.31 313.64 293.71 313.64"/><polygon class="cls-12" points="293.74 313.95 293.78 314.33 293.78 314.76 182.31 325.13 182.31 324.32 293.74 313.95"/><polygon class="cls-13" points="293.78 315.57 182.31 325.95 182.31 325.13 293.78 314.76 293.78 315.57"/><polygon class="cls-14" points="293.78 316.39 182.31 326.76 182.31 325.95 293.78 315.57 293.78 316.39"/><polygon class="cls-15" points="293.78 317.2 182.31 327.57 182.31 326.76 293.78 316.39 293.78 317.2"/><polygon class="cls-16" points="293.78 318.01 182.31 328.39 182.31 327.57 293.78 317.2 293.78 318.01"/><polygon class="cls-17" points="293.78 318.83 182.31 329.2 182.31 328.39 293.78 318.01 293.78 318.83"/><polygon class="cls-18" points="293.78 319.64 182.31 330.01 182.31 329.2 293.78 318.83 293.78 319.64"/><polygon class="cls-19" points="293.78 320.45 182.31 330.83 182.31 330.01 293.78 319.64 293.78 320.45"/><polygon class="cls-20" points="293.78 321.27 182.31 331.64 182.31 330.83 293.78 320.45 293.78 321.27"/><polygon class="cls-21" points="293.78 322.08 182.31 332.45 182.31 331.64 293.78 321.27 293.78 322.08"/><polygon class="cls-22" points="293.78 322.89 182.31 333.27 182.31 332.45 293.78 322.08 293.78 322.89"/><polygon class="cls-23" points="293.78 323.71 182.31 334.08 182.31 333.27 293.78 322.89 293.78 323.71"/><polygon class="cls-24" points="293.78 324.52 182.31 334.89 182.31 334.08 293.78 323.71 293.78 324.52"/><polygon class="cls-25" points="293.78 325.33 182.31 335.71 182.31 334.89 293.78 324.52 293.78 325.33"/><polygon class="cls-26" points="293.78 326.14 182.31 336.52 182.31 335.71 293.78 325.33 293.78 326.14"/><polygon class="cls-27" points="293.78 326.96 182.31 337.33 182.31 336.52 293.78 326.14 293.78 326.96"/><polygon class="cls-28" points="293.78 327.77 182.31 338.14 182.31 337.33 293.78 326.96 293.78 327.77"/><polygon class="cls-29" points="293.78 328.58 182.31 338.96 182.31 338.14 293.78 327.77 293.78 328.58"/><polygon class="cls-30" points="293.78 329.4 182.31 339.77 182.31 338.96 293.78 328.58 293.78 329.4"/><polygon class="cls-31" points="293.78 330.21 182.31 340.58 182.31 339.77 293.78 329.4 293.78 330.21"/><polygon class="cls-32" points="293.78 331.02 182.31 341.4 182.31 340.58 293.78 330.21 293.78 331.02"/><polygon class="cls-33" points="293.78 331.84 182.31 342.21 182.31 341.4 293.78 331.02 293.78 331.84"/><polygon class="cls-34" points="293.78 332.65 182.31 343.02 182.31 342.21 293.78 331.84 293.78 332.65"/><polygon class="cls-34" points="184.35 386.21 182.31 364.39 182.31 343.02 293.78 332.65 293.78 386.21 184.35 386.21"/></g><path class="cls-34" d="M182.6,222.54s-.88,110.78,64.76,101.68c35.49-4.92,47.51-40.41,40.88-70.91a191.62,191.62,0,0,1-3.79-46.77s-4.08-29.37-38.7-20.3S196.11,192,196.11,192,180.54,195.13,182.6,222.54Z"/><path class="cls-10" d="M177.07,228.73s25.09-2.78,36.43-7.67l.58-15.4s2.55,9.93,4.85,12.41,22.88-.74,32-3.59,4.81-14.7,4.81-14.7l4.34,11.86s28.57,3.44,28.73-.93S285,186,276.62,182s-73.88-4.43-83.08,4.1S177.53,216.52,177.07,228.73Z"/><ellipse class="cls-35" cx="262.95" cy="244.39" rx="3.92" ry="3.17" transform="translate(-22.42 26.6) rotate(-5.56)"/><ellipse class="cls-35" cx="223.88" cy="248.1" rx="3.92" ry="3.17" transform="translate(-22.97 22.84) rotate(-5.56)"/><path class="cls-36" d="M250.55,278.83a15.34,15.34,0,0,1-5.17-.8l.35-.94c5.16,1.91,13.88,0,15.56-3.33,1.13-2.28-1.44-4.53-3.78-6-6.89-4.38-5.32-8.93-5.25-9.13l.94.35c0,.16-1.33,4,4.84,7.94,4.88,3.1,4.95,5.69,4.14,7.31C260.72,277.15,255.37,278.83,250.55,278.83Z"/><path class="cls-37" d="M262,289.89c-18.37,4.75-31.32.71-30.6,2,0,0-.78,13.73,15.42,13.63C263.55,305.45,262,289.89,262,289.89Z"/><path class="cls-9" d="M219.38,333.59s22.52,13.65,36.94,11.8c6.84-.87,18.95-14,18.95-14l13,129.74-49.8,2.24Z"/><path class="cls-38" d="M172.66,557.55S155.05,630.13,157,650s4.68,52.17,34,146c0,0,78.26,32.38,150.2-.81,0,0,6.29-1.86,10.91-43.81s12.42-142.59-8.72-187.47S172.66,557.55,172.66,557.55Z"/><path class="cls-10" d="M270.81,230.55s-4.74-6.21-9.75-3.11a.89.89,0,0,0-.58,1.12c.25.84,1.91-1.63,9.83,2.73C270.31,231.29,270.81,231.58,270.81,230.55Z"/><path class="cls-10" d="M213.93,234s4.75-6.2,9.75-3.1a.89.89,0,0,1,.58,1.12c-.25.83-1.91-1.64-9.83,2.73C214.43,234.73,213.93,235,213.93,234Z"/><path class="cls-9" d="M259.62,290.44s-.65,3.21-2,4.12-15.59,1.66-24.11,1c-2.87-.24-2.32-2.92-2.18-3.89C231.35,291.63,246.09,293.49,259.62,290.44Z"/><path class="cls-39" d="M251.34,305.09s-1.86-9.5-19.13-7C232.21,298.13,235.94,307.82,251.34,305.09Z"/><ellipse class="cls-40" cx="281.01" cy="254.61" rx="3.62" ry="6.23" transform="translate(3.96 513.52) rotate(-85.24)"/><ellipse class="cls-40" cx="214.79" cy="263.85" rx="6.23" ry="3.62" transform="translate(-52.96 53.94) rotate(-12.76)"/><path class="cls-41" d="M334.61,435.84,357,461.35s-6.12,9.16-12,18.65c-6.27,10.12-15.54,20.35-13.57,20.57,4,.44,26.78,31.77,26.78,31.77l28-38s21.11-33.38,20.75-37-18.37-28.47-24.44-34.21c-3.74-3.54-9.95-8.73-15.17-16.12-29.22-41.32-56.53-70.82-58.39-72.35s-11-6.17-14.23-4.64-19.19,1.4-19.19,1.4l2.64,115.37L219.63,333.58s-12.56,4.34-26.08,2.61-36.24,3.62-36.24,3.62-10.24,27.71-17.55,29.81-11,20.26-11,20.26c-2.17,2.65-10.18,14.08-19.61,27.71h0s-37.48,45.94-43,49.92S63.56,481,63.56,481l78.84,83.79,27.83-35.52c-7.13-.49-43.13-49.77-43.13-49.77,2.53-4.53,2.3-8.25,1.56-10.71,17.3-18.49,42.63-47.19,42.63-47.19.41,4.07,6.47,16.8,16.93,32.52s9.69,42.14,9.69,42.14c-14.94,21.68-25,61.34-25,61.34s1,7.93,26.28,20.55c11,5.5,46.51,16.31,46.51,16.31l39.46-43.29,50.78,35.64s9.12-9.12,8.21-18.27S325.71,505,325.71,505s-1.89-19,.27-24.66S334.61,435.84,334.61,435.84Z"/><path class="cls-12" d="M153.53,566.53s12.2,10.71,14.67,8.24l12.43-35.2S165.06,550.81,153.53,566.53Z"/><path class="cls-34" d="M170.88,567.7s5.9-5.86,14.86,2.8,9.68,9.26,9.68,9.26,7,2.88,7.52-4.62c0,0,8.8,1.29,6.83-8.4,0,0,6.13-4.42.7-12,0,0,5.51-1.05,2.24-11.46s-24-20.47-24-20.47-9.94-3.49-10.82,8.08c0,0-7.16.37-4.66,10.37,0,0-4.65,4.21-3.65,8.77s-.11,3.67-.11,3.67S162.79,561.13,170.88,567.7Z"/><path class="cls-36" d="M202.56,575.46c-.11-.13-11.87-13.67-24.48-19.79l.43-.9c12.8,6.21,24.69,19.9,24.81,20Z"/><path class="cls-36" d="M209.42,567.1c-.17-.16-17.14-16.09-29.48-22.74l.48-.88c12.45,6.71,29.52,22.73,29.69,22.9Z"/><path class="cls-36" d="M210.09,555c-.15-.18-15.21-17.91-27.55-21.76l.3-1c12.61,4,27.39,21.33,28,22.07Z"/><path class="cls-34" d="M347.86,556.51l-16.17,4.75s-6.95,2.88-7.52-4.62c0,0-8.8,1.29-6.82-8.4,0,0-6.14-4.42-.71-12,0,0-5.51-1.05-2.24-11.46s15.67-13.15,15.67-13.15,9.94-3.49,10.82,8.07c0,0,7.16.38,4.66,10.37,0,0,4.65,4.21,3.65,8.78s.11,3.66.11,3.66S356,549.94,347.86,556.51Z"/><path class="cls-36" d="M324.44,557.06l-.54-.84A275.12,275.12,0,0,1,349.1,542l.43.9A273.55,273.55,0,0,0,324.44,557.06Z"/><path class="cls-36" d="M317.64,548.64l-.59-.8c.16-.12,15.84-11.55,28.27-18.25l.47.88C333.42,537.14,317.8,548.53,317.64,548.64Z"/><path class="cls-36" d="M317.07,536.46l-.86-.51c.09-.16,9.39-15.38,24.63-16.79l.09,1C326.2,521.52,317.16,536.31,317.07,536.46Z"/><path class="cls-42" d="M219.38,333.59S195.23,345.24,182.15,365l44.38,12.67s-15.11,14.85-14.79,18.07,66.17,51,66.17,51,33.54-61.51,29.81-64.56-24.29-6.81-24.29-6.81,19.48-27.6,22.87-27.94-28-16.36-31-16.06,2.52,110.28,2.52,110.28l-.15,2.38Z"/><path class="cls-38" d="M277.91,446.79s9.26,81.81,7,104.33"/><circle class="cls-43" cx="291.65" cy="471.48" r="5.33"/><circle class="cls-43" cx="293.78" cy="509.48" r="5.33"/><path class="cls-44" d="M173.81,404.74l-1-.23a76.6,76.6,0,0,0-11.55-60.85l.82-.58A77.66,77.66,0,0,1,173.81,404.74Z"/><path class="cls-44" d="M329.09,406.93l-1-.09c1.1-12.29-3.36-24.57-7.3-35.4-4.66-12.82-10-27.36-20.07-37.89l.72-.69c10.27,10.68,15.59,25.32,20.29,38.23C325.7,382,330.21,394.42,329.09,406.93Z"/><path class="cls-44" d="M146.32,377a27.46,27.46,0,0,0-3.49-7l.82-.57a28.62,28.62,0,0,1,3.62,7.2Z"/><path class="cls-44" d="M136,392.63a35.57,35.57,0,0,0-6.08-.83l0-1a35.6,35.6,0,0,1,6.25.86Z"/><path class="cls-44" d="M334.44,441l-1-.12a74.23,74.23,0,0,0,.43-11.92l1-.05A75.14,75.14,0,0,1,334.44,441Z"/><path class="cls-44" d="M355.5,460.4l-.14-1a75,75,0,0,1,12.07-.73l0,1A74.13,74.13,0,0,0,355.5,460.4Z"/><path class="cls-44" d="M365,468.05a59.33,59.33,0,0,0-8.69-6.35l.52-.86a62,62,0,0,1,8.83,6.45Z"/><path class="cls-44" d="M200.41,496.57l-.52-.85a60,60,0,0,1,11.6-5.55l.33.94A58.91,58.91,0,0,0,200.41,496.57Z"/><path class="cls-44" d="M127.77,469.24c-2.33,0-10-.2-12.54-2.74l.7-.71c2.66,2.65,12.37,2.44,12.47,2.45l0,1Z"/><path class="cls-44" d="M118.83,482.89v-1c3.43,0,7.7-2.82,7.74-2.85l.56.83C126.94,480,122.56,482.89,118.83,482.89Z"/></g><path class="cls-45" d="M573.9,199.67a11.75,11.75,0,0,1-2.76,8,9,9,0,0,1-7.15,3.18,8.63,8.63,0,0,1-6.94-3.18,12,12,0,0,1-2.66-8v-.32a12.08,12.08,0,0,1,2.66-8,8.61,8.61,0,0,1,6.94-3.19,9,9,0,0,1,7.15,3.19,11.78,11.78,0,0,1,2.76,8Zm-3-.35a10.08,10.08,0,0,0-1.84-6.27,6,6,0,0,0-5.09-2.43,5.65,5.65,0,0,0-4.87,2.44,10.44,10.44,0,0,0-1.75,6.26v.35a10.52,10.52,0,0,0,1.75,6.31,5.67,5.67,0,0,0,4.87,2.43A6,6,0,0,0,569.1,206a10.23,10.23,0,0,0,1.82-6.31Z"/><path class="cls-45" d="M576,188.83v-1.92h5.45v21.28l2.47.43v1.9H576v-1.9l2.47-.43V189.26Z"/><path class="cls-45" d="M596.86,210.52c-.09-.44-.16-.84-.21-1.19s-.08-.71-.1-1.06a7.29,7.29,0,0,1-2.16,1.84,6.19,6.19,0,0,1-6.65-.52,4.57,4.57,0,0,1-1.34-3.52,4.07,4.07,0,0,1,1.89-3.59,9.19,9.19,0,0,1,5.17-1.26h3.07v-1.91a2.94,2.94,0,0,0-.91-2.28,3.58,3.58,0,0,0-2.53-.84,6.24,6.24,0,0,0-2,.29,3.67,3.67,0,0,0-1.39.79l-.31,1.72h-2.3v-3.18a8.92,8.92,0,0,1,2.71-1.43,10.62,10.62,0,0,1,3.45-.54,6.87,6.87,0,0,1,4.51,1.43,5,5,0,0,1,1.72,4.07v7.89c0,.21,0,.41,0,.62s0,.4,0,.6l1.21.17v1.9Zm-4.79-2.17a5.28,5.28,0,0,0,2.71-.72,4.37,4.37,0,0,0,1.75-1.71v-2.69h-3.18a4.51,4.51,0,0,0-2.9.85,2.54,2.54,0,0,0-1.06,2.06,2.05,2.05,0,0,0,.66,1.64A3.06,3.06,0,0,0,592.07,208.35Zm2-20.5h3.48l0,.09-4.07,3.94h-2.23Z"/><path class="cls-45" d="M607.05,203.29h-3v-14.8h3Zm0,7.23h-3v-3.08h3Z"/><path class="cls-45" d="M618,210.52v-1.9l2.47-.43V190.83l-2.47-.42v-1.92h16.93v5.29h-2.56l-.24-2.95h-8.68V198h8.43v2.35h-8.43v7.88h8.86l.24-2.95h2.54v5.28Z"/><path class="cls-45" d="M649.49,208.1a5.3,5.3,0,0,1-4.79,2.74,5.26,5.26,0,0,1-4.17-1.71c-1-1.14-1.5-2.91-1.5-5.33v-7.31l-1.87-.42v-1.92H642v9.68a6.09,6.09,0,0,0,.77,3.61,2.87,2.87,0,0,0,2.4,1,4.88,4.88,0,0,0,2.63-.64,4.09,4.09,0,0,0,1.57-1.83v-9.46l-2.2-.42v-1.92h5.18v14l1.88.43v1.9h-4.56Z"/><path class="cls-45" d="M676.85,199.29H674.6l-.48-2a4,4,0,0,0-1.37-.83,5.2,5.2,0,0,0-1.87-.31,3.4,3.4,0,0,0-2.36.7,2.18,2.18,0,0,0-.77,1.68,1.87,1.87,0,0,0,.68,1.53,7.23,7.23,0,0,0,2.77,1,11.92,11.92,0,0,1,4.62,1.8,3.66,3.66,0,0,1,1.51,3.07,4.25,4.25,0,0,1-1.76,3.53,7.46,7.46,0,0,1-4.61,1.34,11.94,11.94,0,0,1-3.35-.43,8.87,8.87,0,0,1-2.65-1.25v-3.74h2.24l.56,2.2a3.11,3.11,0,0,0,1.4.68,7.79,7.79,0,0,0,1.81.21,4.21,4.21,0,0,0,2.49-.64,2,2,0,0,0,.9-1.69,2,2,0,0,0-.75-1.62,7.1,7.1,0,0,0-2.84-1.1,12,12,0,0,1-4.49-1.77,3.59,3.59,0,0,1-1.52-3,4.3,4.3,0,0,1,1.7-3.41,6.72,6.72,0,0,1,4.43-1.41,10.87,10.87,0,0,1,3.35.49,6.76,6.76,0,0,1,2.46,1.35Z"/><path class="cls-45" d="M680.13,202.19a9,9,0,0,1,2-6,6.59,6.59,0,0,1,5.34-2.36,6.68,6.68,0,0,1,5.37,2.35,9,9,0,0,1,2,6v.33a8.92,8.92,0,0,1-2,6,7.31,7.31,0,0,1-10.71,0,9,9,0,0,1-2-6Zm3,.33a7.8,7.8,0,0,0,1.1,4.3,4,4,0,0,0,6.48,0,7.72,7.72,0,0,0,1.11-4.3v-.33a7.73,7.73,0,0,0-1.11-4.29,3.93,3.93,0,0,0-6.49,0,7.81,7.81,0,0,0-1.09,4.29Z"/><path class="cls-45" d="M709.22,208.1a5.47,5.47,0,0,1-2,2,5.4,5.4,0,0,1-2.8.71,5.26,5.26,0,0,1-4.17-1.71c-1-1.14-1.5-2.91-1.5-5.33v-7.31l-1.87-.42v-1.92h4.86v9.68a6.09,6.09,0,0,0,.77,3.61,2.87,2.87,0,0,0,2.4,1,4.9,4.9,0,0,0,2.63-.64,4.09,4.09,0,0,0,1.57-1.83v-9.46l-2.2-.42v-1.92h5.18v14l1.88.43v1.9h-4.56Z"/><path class="cls-45" d="M734.73,210.52c-.09-.44-.16-.84-.21-1.19s-.09-.71-.11-1.06a7,7,0,0,1-2.16,1.84,6.19,6.19,0,0,1-6.65-.52,4.57,4.57,0,0,1-1.33-3.52,4.08,4.08,0,0,1,1.88-3.59,9.22,9.22,0,0,1,5.17-1.26h3.08v-1.91a3,3,0,0,0-.91-2.28,3.59,3.59,0,0,0-2.53-.84,6.26,6.26,0,0,0-2,.29,3.55,3.55,0,0,0-1.38.79l-.32,1.72H725v-3.18a9,9,0,0,1,2.71-1.43,10.66,10.66,0,0,1,3.45-.54,6.85,6.85,0,0,1,4.51,1.43,5,5,0,0,1,1.73,4.07v7.89c0,.21,0,.41,0,.62s0,.4,0,.6l1.21.17v1.9Zm-4.8-2.17a5.26,5.26,0,0,0,2.71-.72,4.4,4.4,0,0,0,1.76-1.71v-2.69h-3.18a4.51,4.51,0,0,0-2.9.85,2.55,2.55,0,0,0-1.07,2.06,2,2,0,0,0,.67,1.64A3,3,0,0,0,729.93,208.35Z"/><path class="cls-45" d="M770.09,192.88l-.08,0-7.13,17.66h-2l-7.13-17.64h-.08l.31,8.92v6.38l2.47.43v1.9h-7.92v-1.9l2.47-.43V190.83l-2.47-.42v-1.92h6.28l7,17.9h.09l7-17.9h6.3v1.92l-2.47.42v17.36l2.47.43v1.9h-7.92v-1.9l2.47-.43v-6.38Z"/><path class="cls-45" d="M788.34,210.52c-.09-.44-.16-.84-.21-1.19s-.08-.71-.1-1.06a7.29,7.29,0,0,1-2.16,1.84,6.19,6.19,0,0,1-6.65-.52,4.57,4.57,0,0,1-1.34-3.52,4.07,4.07,0,0,1,1.89-3.59,9.19,9.19,0,0,1,5.17-1.26H788v-1.91a2.94,2.94,0,0,0-.91-2.28,3.55,3.55,0,0,0-2.52-.84,6.26,6.26,0,0,0-2,.29,3.67,3.67,0,0,0-1.39.79L780.9,199h-2.3v-3.18a8.92,8.92,0,0,1,2.71-1.43,10.62,10.62,0,0,1,3.45-.54,6.87,6.87,0,0,1,4.51,1.43,5,5,0,0,1,1.72,4.07v7.89c0,.21,0,.41,0,.62s0,.4,0,.6l1.21.17v1.9Zm-4.79-2.17a5.28,5.28,0,0,0,2.71-.72,4.37,4.37,0,0,0,1.75-1.71v-2.69h-3.18a4.53,4.53,0,0,0-2.9.85,2.54,2.54,0,0,0-1.06,2.06,2.05,2.05,0,0,0,.66,1.64A3.06,3.06,0,0,0,783.55,208.35Z"/><path class="cls-45" d="M794.73,196.07v-1.92h5.13l.29,2.37a5.7,5.7,0,0,1,1.72-2,4,4,0,0,1,2.34-.72,4.56,4.56,0,0,1,.72.06,3.44,3.44,0,0,1,.56.11l-.39,2.77-1.69-.09a3.43,3.43,0,0,0-2,.55,3.63,3.63,0,0,0-1.24,1.55v9.4l2.47.43v1.9h-7.92v-1.9l2.47-.43v-11.7Z"/><path class="cls-45" d="M807.55,208.62l2.47-.43v-11.7l-2.47-.42v-1.92H813v14l2.47.43v1.9h-7.92ZM813,190h-3v-3h3Z"/><path class="cls-45" d="M828.43,210.52c-.09-.44-.16-.84-.22-1.19s-.08-.71-.1-1.06a7.29,7.29,0,0,1-2.16,1.84,6.19,6.19,0,0,1-6.65-.52,4.57,4.57,0,0,1-1.33-3.52,4.08,4.08,0,0,1,1.88-3.59,9.22,9.22,0,0,1,5.17-1.26h3.07v-1.91a2.94,2.94,0,0,0-.91-2.28,3.55,3.55,0,0,0-2.52-.84,6.26,6.26,0,0,0-2,.29,3.55,3.55,0,0,0-1.38.79L821,199h-2.3v-3.18a9,9,0,0,1,2.71-1.43,10.66,10.66,0,0,1,3.45-.54,6.87,6.87,0,0,1,4.51,1.43,5,5,0,0,1,1.73,4.07v8.51c0,.2,0,.4,0,.6l1.21.17v1.9Zm-4.8-2.17a5.26,5.26,0,0,0,2.71-.72,4.37,4.37,0,0,0,1.75-1.71v-2.69h-3.18a4.48,4.48,0,0,0-2.89.85,2.52,2.52,0,0,0-1.07,2.06,2.05,2.05,0,0,0,.66,1.64A3.06,3.06,0,0,0,823.63,208.35Z"/><path class="cls-45" d="M834.37,208.62l2.47-.43v-11.7l-2.47-.42v-1.92h5.14l.21,2.43a6,6,0,0,1,2-2,5.47,5.47,0,0,1,2.81-.72,5.34,5.34,0,0,1,4.1,1.56,6.79,6.79,0,0,1,1.45,4.79v8l2.47.43v1.9h-7.92v-1.9l2.47-.43v-7.94a4.45,4.45,0,0,0-.86-3.08,3.44,3.44,0,0,0-2.61-.9,4.14,4.14,0,0,0-2.27.62,4.62,4.62,0,0,0-1.59,1.69v9.61l2.47.43v1.9h-7.92Z"/><path class="cls-45" d="M865.45,210.52c-.09-.44-.16-.84-.21-1.19s-.09-.71-.11-1.06a7.12,7.12,0,0,1-2.15,1.84,5.54,5.54,0,0,1-2.77.73,5.46,5.46,0,0,1-3.89-1.25,4.61,4.61,0,0,1-1.33-3.52,4.07,4.07,0,0,1,1.89-3.59,9.19,9.19,0,0,1,5.17-1.26h3.07v-1.91a2.94,2.94,0,0,0-.91-2.28,3.59,3.59,0,0,0-2.53-.84,6.19,6.19,0,0,0-2,.29,3.67,3.67,0,0,0-1.39.79L858,199h-2.3v-3.18a9,9,0,0,1,2.71-1.43,10.66,10.66,0,0,1,3.45-.54,6.85,6.85,0,0,1,4.51,1.43,5,5,0,0,1,1.73,4.07v7.89c0,.21,0,.41,0,.62s0,.4,0,.6l1.21.17v1.9Zm-4.8-2.17a5.26,5.26,0,0,0,2.71-.72,4.34,4.34,0,0,0,1.76-1.71v-2.69h-3.18a4.51,4.51,0,0,0-2.9.85,2.55,2.55,0,0,0-1.07,2.06,2.06,2.06,0,0,0,.67,1.64A3,3,0,0,0,860.65,208.35Z"/><path class="cls-45" d="M875.67,210.52h-3v-3.05h3Z"/><path class="cls-45" d="M559.7,264.23l-2.06.17,6.09,16.8.44,1.47h.09l.44-1.47,6.07-16.8-2.06-.17v-1.34h5.72v1.34l-1.71.14-7.66,20.56h-1.71l-7.67-20.56-1.7-.14v-1.34h5.72Z"/><path class="cls-45" d="M576,276.49a8.8,8.8,0,0,1,2-5.93,7.12,7.12,0,0,1,10.52,0,8.8,8.8,0,0,1,2,5.93v.5a8.81,8.81,0,0,1-2,5.95,7.18,7.18,0,0,1-10.53,0,8.81,8.81,0,0,1-2-5.95Zm1.82.5a7.82,7.82,0,0,0,1.43,4.79,4.72,4.72,0,0,0,4,1.93,4.67,4.67,0,0,0,4-1.93,7.83,7.83,0,0,0,1.44-4.79v-.5a7.73,7.73,0,0,0-1.45-4.75,5,5,0,0,0-8,0,7.78,7.78,0,0,0-1.43,4.75Z"/><path class="cls-45" d="M605.46,282.23a5.67,5.67,0,0,1-2.11,2.23,6.2,6.2,0,0,1-3.16.78,5,5,0,0,1-4.05-1.75q-1.46-1.75-1.46-5.45v-8l-2-.2v-1.34h3.83v9.52a7,7,0,0,0,1,4.3,3.47,3.47,0,0,0,2.89,1.3,5.32,5.32,0,0,0,3.28-.91,4.78,4.78,0,0,0,1.72-2.51V270.09l-2.33-.2v-1.34h4.15V283.4l2.19.19v1.34h-3.78Z"/><path class="cls-45" d="M630.92,284.93c-.12-.56-.21-1-.26-1.44a10,10,0,0,1-.07-1.23,7.4,7.4,0,0,1-2.42,2.14,6.92,6.92,0,0,1-3.41.84A5.22,5.22,0,0,1,621,284a4.43,4.43,0,0,1-1.31-3.36,4.15,4.15,0,0,1,1.95-3.6,9.26,9.26,0,0,1,5.3-1.33h3.62v-2.17a3.48,3.48,0,0,0-1.13-2.75,4.57,4.57,0,0,0-3.16-1,7.84,7.84,0,0,0-2.49.37,5.52,5.52,0,0,0-1.88,1l-.15,2.19h-1.5v-3.15a9.58,9.58,0,0,1,2.72-1.42,10.4,10.4,0,0,1,3.37-.55,6.58,6.58,0,0,1,4.36,1.38,4.86,4.86,0,0,1,1.65,3.95v8.06c0,.33,0,.65,0,1s.05.6.1.9l1.63.1v1.34Zm-6-1.29a6.5,6.5,0,0,0,3.46-.91,5.43,5.43,0,0,0,2.17-2.35V277.1h-3.65a6.79,6.79,0,0,0-3.94,1,3,3,0,0,0-1.48,2.58,2.74,2.74,0,0,0,.91,2.13A3.71,3.71,0,0,0,625,283.64Z"/><path class="cls-45" d="M643.71,283.71a5.21,5.21,0,0,0,3.18-1,3.38,3.38,0,0,0,1.38-2.87h1.6l0,.1a4.48,4.48,0,0,1-1.81,3.79,6.72,6.72,0,0,1-4.38,1.53,6.22,6.22,0,0,1-5.16-2.29,9.16,9.16,0,0,1-1.83-5.9v-.63a9.13,9.13,0,0,1,1.83-5.87,6.19,6.19,0,0,1,5.14-2.31,8.23,8.23,0,0,1,3.47.72,6.86,6.86,0,0,1,2.56,1.93l.08,3.58h-1.55l-.29-2.91a5.06,5.06,0,0,0-1.8-1.29,6.08,6.08,0,0,0-2.47-.48,4.37,4.37,0,0,0-3.89,1.88,8.3,8.3,0,0,0-1.27,4.75v.63a8.43,8.43,0,0,0,1.26,4.79A4.38,4.38,0,0,0,643.71,283.71Z"/><path class="cls-45" d="M653.28,276.49a8.8,8.8,0,0,1,2-5.93,7.12,7.12,0,0,1,10.52,0,8.8,8.8,0,0,1,2,5.93v.5a8.86,8.86,0,0,1-2,5.95,7.18,7.18,0,0,1-10.53,0,8.81,8.81,0,0,1-2-5.95Zm1.81.5a7.83,7.83,0,0,0,1.44,4.79,4.72,4.72,0,0,0,4,1.93,4.67,4.67,0,0,0,4-1.93A7.83,7.83,0,0,0,666,277v-.5a7.79,7.79,0,0,0-1.45-4.75,5,5,0,0,0-8,0,7.79,7.79,0,0,0-1.44,4.75Z"/><path class="cls-45" d="M670.32,269.89v-1.34h4.07l.17,2.71a5.72,5.72,0,0,1,2.1-2.23,6.07,6.07,0,0,1,3.14-.79,5.18,5.18,0,0,1,3.13.92,5,5,0,0,1,1.8,2.79,6.41,6.41,0,0,1,2.11-2.71,5.58,5.58,0,0,1,3.34-1,4.93,4.93,0,0,1,4.05,1.75q1.42,1.74,1.43,5.38v8l2.47.21v1.34h-6.77v-1.34l2.47-.21v-8c0-2-.36-3.44-1.07-4.27a3.67,3.67,0,0,0-3-1.25,4.06,4.06,0,0,0-3.27,1.35,6.43,6.43,0,0,0-1.41,3.43,1.69,1.69,0,0,0,0,.23v8.57l2.47.19v1.34h-6.75v-1.34l2.47-.19v-8.06a6.58,6.58,0,0,0-1.08-4.24,3.72,3.72,0,0,0-3-1.28,4.47,4.47,0,0,0-3.06,1,5.17,5.17,0,0,0-1.59,2.62v10l2.47.19v1.34h-6.75v-1.34l2.47-.19V270.09Z"/><path class="cls-45" d="M699.88,269.89v-1.34h4l.23,2.54a5.77,5.77,0,0,1,5.16-2.85,5.35,5.35,0,0,1,4.62,2.36,10.65,10.65,0,0,1,1.66,6.27v.32a9.47,9.47,0,0,1-1.66,5.87,5.46,5.46,0,0,1-4.59,2.18,6.59,6.59,0,0,1-3-.66,5.56,5.56,0,0,1-2.11-1.86v7l2.47.19v1.35h-6.74v-1.35l2.47-.19V270.09Zm13.84,7a9.44,9.44,0,0,0-1.24-5.08,4,4,0,0,0-3.63-2,4.77,4.77,0,0,0-3,.87,5.32,5.32,0,0,0-1.72,2.26v7.87a5,5,0,0,0,1.79,2.12,5.2,5.2,0,0,0,2.93.77,4.1,4.1,0,0,0,3.61-1.78,8.13,8.13,0,0,0,1.24-4.74Z"/><path class="cls-45" d="M729.79,284.93c-.12-.56-.2-1-.25-1.44a10,10,0,0,1-.08-1.23A7.3,7.3,0,0,1,727,284.4a6.92,6.92,0,0,1-3.41.84,5.21,5.21,0,0,1-3.72-1.24,4.4,4.4,0,0,1-1.32-3.36,4.14,4.14,0,0,1,2-3.6,9.23,9.23,0,0,1,5.29-1.33h3.62v-2.17a3.45,3.45,0,0,0-1.13-2.75,4.56,4.56,0,0,0-3.15-1,7.84,7.84,0,0,0-2.49.37,5.57,5.57,0,0,0-1.89,1l-.15,2.19h-1.5l0-3.15a9.52,9.52,0,0,1,2.71-1.42,10.4,10.4,0,0,1,3.37-.55,6.57,6.57,0,0,1,4.36,1.38,4.86,4.86,0,0,1,1.65,3.95v8.06c0,.33,0,.65,0,1s.05.6.1.9l1.64.1v1.34Zm-6-1.29a6.53,6.53,0,0,0,3.47-.91,5.35,5.35,0,0,0,2.16-2.35V277.1h-3.65a6.81,6.81,0,0,0-3.94,1,3.05,3.05,0,0,0-1.48,2.58,2.71,2.71,0,0,0,.92,2.13A3.67,3.67,0,0,0,723.83,283.64Z"/><path class="cls-45" d="M735.26,283.59l2.47-.19V270.09l-2.47-.2v-1.34h4.07l.17,2.86a5.81,5.81,0,0,1,2.12-2.34,5.94,5.94,0,0,1,3.17-.83,5.07,5.07,0,0,1,4.06,1.63q1.39,1.63,1.39,5.08v8.45l2.47.19v1.34H746v-1.34l2.47-.19V275a5.91,5.91,0,0,0-1.06-4,3.82,3.82,0,0,0-3-1.16,4.66,4.66,0,0,0-3.12,1,5.65,5.65,0,0,0-1.73,2.67v9.9l2.47.19v1.34h-6.75Z"/><path class="cls-45" d="M755,262.66v-1.35h4.27v10a5.85,5.85,0,0,1,5.35-3.11,5,5,0,0,1,4,1.61,7.52,7.52,0,0,1,1.38,5v8.57l2.47.19v1.34h-6.75v-1.34l2.47-.19v-8.6a5.56,5.56,0,0,0-1.06-3.82,3.67,3.67,0,0,0-2.89-1.16,4.89,4.89,0,0,0-3.12,1,5.63,5.63,0,0,0-1.83,2.59v10l2.46.19v1.34H755v-1.34l2.47-.19V262.86Z"/><path class="cls-45" d="M786.51,284.93c-.12-.56-.21-1-.26-1.44a10,10,0,0,1-.07-1.23,7.3,7.3,0,0,1-2.42,2.14,6.92,6.92,0,0,1-3.41.84,5.21,5.21,0,0,1-3.72-1.24,4.4,4.4,0,0,1-1.32-3.36,4.15,4.15,0,0,1,2-3.6,9.26,9.26,0,0,1,5.3-1.33h3.62v-2.17a3.48,3.48,0,0,0-1.13-2.75,4.57,4.57,0,0,0-3.16-1,7.82,7.82,0,0,0-2.48.37,5.48,5.48,0,0,0-1.89,1l-.15,2.19h-1.5l0-3.15a9.39,9.39,0,0,1,2.71-1.42,10.4,10.4,0,0,1,3.37-.55,6.57,6.57,0,0,1,4.36,1.38,4.86,4.86,0,0,1,1.65,3.95v8.06c0,.33,0,.65,0,1s0,.6.1.9l1.64.1v1.34Zm-6-1.29a6.47,6.47,0,0,0,3.46-.91,5.43,5.43,0,0,0,2.17-2.35V277.1h-3.65a6.81,6.81,0,0,0-3.94,1,3,3,0,0,0-1.48,2.58,2.71,2.71,0,0,0,.92,2.13A3.67,3.67,0,0,0,780.55,283.64Zm3.07-21.34h2.23l0,.09-3.77,3.93H780.5Z"/><path class="cls-45" d="M800.41,276.3h-7.24v-1.53h7.24Z"/><path class="cls-45" d="M804,262.66v-1.35h4.27V283.4l2.46.19v1.34H804v-1.34l2.47-.19V262.86Z"/><path class="cls-45" d="M838,277.16a10.87,10.87,0,0,1-1.77,5.68,5.36,5.36,0,0,1-4.74,2.4,2.71,2.71,0,0,1-2-.77,3.72,3.72,0,0,1-1-2.13,5.76,5.76,0,0,1-2,2.18,5.16,5.16,0,0,1-2.74.72,3.27,3.27,0,0,1-3-1.81,8.11,8.11,0,0,1-.74-4.8,11.62,11.62,0,0,1,2.13-6.17,5.54,5.54,0,0,1,6.61-1.91,10.51,10.51,0,0,1,1.92,1.22l0,0h0l-.76,8.69a4,4,0,0,0,.46,2.72,1.8,1.8,0,0,0,1.44.73,3.91,3.91,0,0,0,3.4-1.88,9.65,9.65,0,0,0,1.39-4.9c.2-3.93-.55-7-2.25-9.15s-4.37-3.26-8-3.26a10.36,10.36,0,0,0-8.08,3.56,14.62,14.62,0,0,0-3.43,9.38q-.29,5.73,2.48,9.27a9.38,9.38,0,0,0,7.86,3.54,11.48,11.48,0,0,0,2.7-.34,9.29,9.29,0,0,0,2.3-.86l.47,1.14a8.2,8.2,0,0,1-2.53,1,13.34,13.34,0,0,1-3,.36q-5.75,0-8.9-3.77t-2.86-10.32a15.91,15.91,0,0,1,3.82-10.34,11.88,11.88,0,0,1,9.23-3.92q5.91,0,8.89,3.66T838,277.16Zm-16.34,1.47a7.36,7.36,0,0,0,.4,3.74,2.15,2.15,0,0,0,2.09,1.39,4.46,4.46,0,0,0,2.36-.65,5.24,5.24,0,0,0,1.86-2.38v-.13a.52.52,0,0,1,0-.11l.71-8.22a4.13,4.13,0,0,0-1.09-.55,3.85,3.85,0,0,0-1.3-.21,4,4,0,0,0-3.37,1.81A10.86,10.86,0,0,0,821.7,278.63Z"/><path class="cls-45" d="M852.81,273.6h-1.48l-.22-2.31a4.45,4.45,0,0,0-1.71-1.11,6.77,6.77,0,0,0-2.39-.39,4.44,4.44,0,0,0-3,.85,2.58,2.58,0,0,0-1,2,2.38,2.38,0,0,0,.85,1.88,8.5,8.5,0,0,0,3.42,1.3,11,11,0,0,1,4.37,1.78,3.66,3.66,0,0,1,1.45,3.06,4,4,0,0,1-1.65,3.31,7.08,7.08,0,0,1-4.39,1.26,10.39,10.39,0,0,1-3.3-.5,7.86,7.86,0,0,1-2.58-1.43V280h1.46l.26,2.33a4.34,4.34,0,0,0,1.84,1.05,8.13,8.13,0,0,0,2.32.32,5,5,0,0,0,3.11-.86,2.56,2.56,0,0,0,1.13-2.09,2.64,2.64,0,0,0-.94-2,7.59,7.59,0,0,0-3.42-1.41,11.22,11.22,0,0,1-4.33-1.69,3.44,3.44,0,0,1-1.42-2.94,3.94,3.94,0,0,1,1.59-3.17,6.46,6.46,0,0,1,4.19-1.3,9.44,9.44,0,0,1,3.3.56,6.67,6.67,0,0,1,2.43,1.49Z"/><path class="cls-45" d="M863.65,283.59l2.47-.19V270.09l-2.47-.2v-1.34h4.07l.17,2.86a5.81,5.81,0,0,1,2.12-2.34,5.94,5.94,0,0,1,3.17-.83,5.07,5.07,0,0,1,4.06,1.63q1.39,1.63,1.39,5.08v8.45l2.47.19v1.34h-6.75v-1.34l2.47-.19V275a6,6,0,0,0-1.05-4,3.86,3.86,0,0,0-3-1.16,4.64,4.64,0,0,0-3.11,1,5.6,5.6,0,0,0-1.74,2.67v9.9l2.47.19v1.34h-6.75Z"/><path class="cls-45" d="M895.26,284.93a14.09,14.09,0,0,1-.26-1.44,10,10,0,0,1-.08-1.23,7.2,7.2,0,0,1-2.42,2.14,6.91,6.91,0,0,1-3.4.84,5.22,5.22,0,0,1-3.73-1.24,4.4,4.4,0,0,1-1.32-3.36,4.14,4.14,0,0,1,2-3.6,9.23,9.23,0,0,1,5.29-1.33h3.62v-2.17a3.45,3.45,0,0,0-1.13-2.75,4.56,4.56,0,0,0-3.15-1,7.84,7.84,0,0,0-2.49.37,5.67,5.67,0,0,0-1.89,1l-.15,2.19h-1.5l0-3.15a9.45,9.45,0,0,1,2.72-1.42,10.29,10.29,0,0,1,3.36-.55,6.57,6.57,0,0,1,4.36,1.38,4.86,4.86,0,0,1,1.65,3.95v8.06q0,.5,0,1a5.51,5.51,0,0,0,.1.9l1.63.1v1.34Zm-6-1.29a6.53,6.53,0,0,0,3.47-.91,5.35,5.35,0,0,0,2.16-2.35V277.1h-3.65a6.81,6.81,0,0,0-3.94,1,3.05,3.05,0,0,0-1.48,2.58,2.71,2.71,0,0,0,.92,2.13A3.67,3.67,0,0,0,889.29,283.64Z"/><path class="cls-45" d="M915.81,285.24a6.59,6.59,0,0,1-5.12-2.26,8.31,8.31,0,0,1-2-5.76v-.83a8.53,8.53,0,0,1,2-5.83,6.25,6.25,0,0,1,4.88-2.32,6.08,6.08,0,0,1,4.74,1.91,7.3,7.3,0,0,1,1.72,5.09v1.54H910.47v.44a7.27,7.27,0,0,0,1.47,4.63,4.72,4.72,0,0,0,3.87,1.86,8,8,0,0,0,2.88-.46,5.87,5.87,0,0,0,2-1.35l.77,1.24a6.59,6.59,0,0,1-2.33,1.54A9.16,9.16,0,0,1,915.81,285.24Zm-.24-15.45a4.35,4.35,0,0,0-3.37,1.53,6.68,6.68,0,0,0-1.6,3.86l0,.07h9.6v-.45a5.23,5.23,0,0,0-1.26-3.57A4.27,4.27,0,0,0,915.57,269.79Z"/><path class="cls-45" d="M924.91,283.59l1.83-.16,5.18-6.84L927,270.06l-1.85-.17v-1.34h5.56v1.34l-1.7.1,3.91,5.25,3.92-5.27-1.68-.08v-1.34h5.55v1.34l-1.83.17-4.93,6.53,5.16,6.84,1.85.16v1.34H935.4v-1.34l1.68-.07L932.92,278l-4.15,5.57,1.68.07v1.34h-5.54Z"/><path class="cls-45" d="M942.83,269.89v-1.34h4l.23,2.54a5.84,5.84,0,0,1,2.12-2.1,6,6,0,0,1,3-.75,5.35,5.35,0,0,1,4.62,2.36,10.65,10.65,0,0,1,1.66,6.27v.32a9.47,9.47,0,0,1-1.66,5.87,5.46,5.46,0,0,1-4.59,2.18,6.56,6.56,0,0,1-3-.66,5.48,5.48,0,0,1-2.11-1.86v7l2.47.19v1.35h-6.74v-1.35l2.47-.19V270.09Zm13.83,7a9.35,9.35,0,0,0-1.24-5.08,4,4,0,0,0-3.63-2,4.76,4.76,0,0,0-3,.87A5.24,5.24,0,0,0,947.1,273v7.87a4.9,4.9,0,0,0,1.79,2.12,5.18,5.18,0,0,0,2.93.77,4.1,4.1,0,0,0,3.61-1.78,8.21,8.21,0,0,0,1.23-4.74Z"/><path class="cls-45" d="M960.92,262.66v-1.35h4.26V283.4l2.47.19v1.34h-6.73v-1.34l2.46-.19V262.86Z"/><path class="cls-45" d="M970.21,276.49a8.8,8.8,0,0,1,2-5.93,7.12,7.12,0,0,1,10.52,0,8.75,8.75,0,0,1,2,5.93v.5a8.81,8.81,0,0,1-2,5.95,6.56,6.56,0,0,1-5.24,2.3,6.66,6.66,0,0,1-5.29-2.3,8.81,8.81,0,0,1-2-5.95Zm1.82.5a7.83,7.83,0,0,0,1.44,4.79,5.08,5.08,0,0,0,8,0,7.83,7.83,0,0,0,1.44-4.79v-.5a7.73,7.73,0,0,0-1.45-4.75,5,5,0,0,0-8,0,7.79,7.79,0,0,0-1.44,4.75Z"/><path class="cls-45" d="M991.57,268.55l.23,2.72v.2a5.71,5.71,0,0,1,1.9-2.37,4.79,4.79,0,0,1,2.85-.86,3.63,3.63,0,0,1,.67.06,3.89,3.89,0,0,1,.54.11l-.24,1.7-1.35-.09a4.13,4.13,0,0,0-2.81,1,5.28,5.28,0,0,0-1.56,2.64v9.78l2.46.19v1.34h-6.73v-1.34l2.47-.19V270.09l-2.47-.2v-1.34h4Z"/><path class="cls-45" d="M1011.41,284.93c-.12-.56-.2-1-.25-1.44a10,10,0,0,1-.08-1.23,7.2,7.2,0,0,1-2.42,2.14,6.89,6.89,0,0,1-3.41.84,5.21,5.21,0,0,1-3.72-1.24,4.4,4.4,0,0,1-1.32-3.36,4.14,4.14,0,0,1,2-3.6,9.23,9.23,0,0,1,5.29-1.33h3.62v-2.17a3.48,3.48,0,0,0-1.13-2.75,4.56,4.56,0,0,0-3.15-1,7.84,7.84,0,0,0-2.49.37,5.67,5.67,0,0,0-1.89,1l-.15,2.19h-1.5l0-3.15a9.32,9.32,0,0,1,2.72-1.42,10.29,10.29,0,0,1,3.36-.55,6.57,6.57,0,0,1,4.36,1.38,4.86,4.86,0,0,1,1.65,3.95v8.06q0,.5,0,1a6.86,6.86,0,0,0,.09.9l1.64.1v1.34Zm-6-1.29a6.53,6.53,0,0,0,3.47-.91,5.35,5.35,0,0,0,2.16-2.35V277.1h-3.65a6.81,6.81,0,0,0-3.94,1,3.05,3.05,0,0,0-1.48,2.58,2.71,2.71,0,0,0,.92,2.13A3.67,3.67,0,0,0,1005.45,283.64Z"/><path class="cls-45" d="M1024.2,283.71a5.19,5.19,0,0,0,3.18-1,3.38,3.38,0,0,0,1.38-2.87h1.6l0,.1a4.51,4.51,0,0,1-1.81,3.79,6.77,6.77,0,0,1-4.39,1.53A6.22,6.22,0,0,1,1019,283a9.16,9.16,0,0,1-1.83-5.9v-.63a9.13,9.13,0,0,1,1.83-5.87,6.2,6.2,0,0,1,5.15-2.31,8.26,8.26,0,0,1,3.47.72,6.82,6.82,0,0,1,2.55,1.93l.08,3.58h-1.54l-.29-2.91a5.19,5.19,0,0,0-1.81-1.29,6,6,0,0,0-2.46-.48,4.37,4.37,0,0,0-3.9,1.88,8.38,8.38,0,0,0-1.26,4.75v.63a8.5,8.5,0,0,0,1.25,4.79A4.39,4.39,0,0,0,1024.2,283.71Zm.47,1.35-.16,1a3.73,3.73,0,0,1,1.93.73,2.26,2.26,0,0,1,.73,1.86,2.56,2.56,0,0,1-1.19,2.2,6,6,0,0,1-3.43.83l-.1-1.18a5.06,5.06,0,0,0,2.28-.47,1.45,1.45,0,0,0,.93-1.35,1.24,1.24,0,0,0-.62-1.2,5.89,5.89,0,0,0-2.2-.47l.43-1.92Z"/><path class="cls-45" d="M1045.08,284.93c-.12-.56-.21-1-.26-1.44a10,10,0,0,1-.07-1.23,7.34,7.34,0,0,1-2.43,2.14,6.88,6.88,0,0,1-3.4.84,5.22,5.22,0,0,1-3.73-1.24,4.43,4.43,0,0,1-1.31-3.36,4.15,4.15,0,0,1,1.95-3.6,9.26,9.26,0,0,1,5.3-1.33h3.62v-2.17a3.48,3.48,0,0,0-1.13-2.75,4.61,4.61,0,0,0-3.16-1,7.84,7.84,0,0,0-2.49.37,5.52,5.52,0,0,0-1.88,1l-.16,2.19h-1.49v-3.15a9.45,9.45,0,0,1,2.72-1.42,10.35,10.35,0,0,1,3.37-.55,6.58,6.58,0,0,1,4.36,1.38,4.86,4.86,0,0,1,1.65,3.95v8.06c0,.33,0,.65,0,1a6.88,6.88,0,0,0,.1.9l1.63.1v1.34Zm.65-22.69a3.08,3.08,0,0,1-.83,2.2,2.74,2.74,0,0,1-2.08.88,3.88,3.88,0,0,1-2.28-.83,3.7,3.7,0,0,0-2-.83,1.52,1.52,0,0,0-1.19.53,1.88,1.88,0,0,0-.49,1.34l-1.19-.27a3.1,3.1,0,0,1,.81-2.18,2.65,2.65,0,0,1,2.06-.89,4.23,4.23,0,0,1,2.24.83,4,4,0,0,0,2,.83,1.58,1.58,0,0,0,1.2-.54,2,2,0,0,0,.5-1.38Zm-6.62,21.4a6.51,6.51,0,0,0,3.47-.91,5.43,5.43,0,0,0,2.17-2.35V277.1h-3.65a6.84,6.84,0,0,0-3.95,1,3,3,0,0,0-1.47,2.58,2.7,2.7,0,0,0,.91,2.13A3.67,3.67,0,0,0,1039.11,283.64Z"/><path class="cls-45" d="M1050.88,276.49a8.8,8.8,0,0,1,2-5.93,7.12,7.12,0,0,1,10.52,0,8.8,8.8,0,0,1,2,5.93v.5a8.86,8.86,0,0,1-2,5.95,7.18,7.18,0,0,1-10.53,0,8.81,8.81,0,0,1-2-5.95Zm1.81.5a7.83,7.83,0,0,0,1.44,4.79,4.72,4.72,0,0,0,4,1.93,4.67,4.67,0,0,0,4-1.93,7.82,7.82,0,0,0,1.43-4.79v-.5a7.79,7.79,0,0,0-1.44-4.75,5,5,0,0,0-8,0,7.79,7.79,0,0,0-1.44,4.75Z"/><path class="cls-45" d="M566,319.76a5.64,5.64,0,0,1-2.1,2,6.33,6.33,0,0,1-3,.69,5.43,5.43,0,0,1-4.59-2.19,9.48,9.48,0,0,1-1.66-5.86v-.32a10.65,10.65,0,0,1,1.66-6.27,5.34,5.34,0,0,1,4.62-2.36,5.89,5.89,0,0,1,3,.72,6,6,0,0,1,2.09,2v-8.15l-2.47-.2v-1.35h4.29V320.6l2.46.19v1.33H566.2Zm-9.55-5.37a8.31,8.31,0,0,0,1.19,4.72,4,4,0,0,0,3.58,1.76,5.06,5.06,0,0,0,2.91-.79,5.17,5.17,0,0,0,1.83-2.16v-7.75a5.58,5.58,0,0,0-1.75-2.27,4.69,4.69,0,0,0-3-.88,3.93,3.93,0,0,0-3.59,2,9.54,9.54,0,0,0-1.21,5.09Z"/><path class="cls-45" d="M573.07,313.69a8.8,8.8,0,0,1,2-5.93,7.12,7.12,0,0,1,10.52,0,8.8,8.8,0,0,1,2,5.93v.5a8.78,8.78,0,0,1-2,5.94,7.16,7.16,0,0,1-10.53,0,8.79,8.79,0,0,1-2-5.94Zm1.81.5a7.83,7.83,0,0,0,1.44,4.79,4.72,4.72,0,0,0,4,1.93,4.67,4.67,0,0,0,4-1.93,7.83,7.83,0,0,0,1.44-4.79v-.5a7.79,7.79,0,0,0-1.45-4.75,5,5,0,0,0-8,0,7.79,7.79,0,0,0-1.44,4.75Z"/><path class="cls-45" d="M602.39,310.8H600.9l-.21-2.31a4.49,4.49,0,0,0-1.72-1.11,6.71,6.71,0,0,0-2.38-.39,4.44,4.44,0,0,0-3,.85,2.59,2.59,0,0,0-1,2,2.41,2.41,0,0,0,.86,1.88,8.51,8.51,0,0,0,3.41,1.3,11,11,0,0,1,4.38,1.78,3.66,3.66,0,0,1,1.45,3.06,4,4,0,0,1-1.66,3.31,7,7,0,0,1-4.38,1.26,10.5,10.5,0,0,1-3.31-.5,8.07,8.07,0,0,1-2.58-1.43V317.2h1.47l.26,2.34a4.28,4.28,0,0,0,1.84,1,8.08,8.08,0,0,0,2.32.32,5,5,0,0,0,3.1-.86,2.54,2.54,0,0,0,1.14-2.09,2.64,2.64,0,0,0-.95-2,7.54,7.54,0,0,0-3.41-1.41,11.34,11.34,0,0,1-4.34-1.69,3.45,3.45,0,0,1-1.41-2.94,3.94,3.94,0,0,1,1.59-3.17,6.44,6.44,0,0,1,4.19-1.3,9.35,9.35,0,0,1,3.29.56,6.38,6.38,0,0,1,2.43,1.49Z"/><path class="cls-45" d="M613.08,307.09v-1.34h4l.22,2.54a5.77,5.77,0,0,1,5.16-2.85,5.35,5.35,0,0,1,4.62,2.36,10.65,10.65,0,0,1,1.67,6.27v.32a9.47,9.47,0,0,1-1.67,5.87,5.46,5.46,0,0,1-4.59,2.18,6.59,6.59,0,0,1-3-.66,5.5,5.5,0,0,1-2.11-1.87v7l2.47.19v1.35h-6.73v-1.35l2.46-.19V307.29Zm13.83,7a9.35,9.35,0,0,0-1.24-5.08,4,4,0,0,0-3.63-2,4.77,4.77,0,0,0-3,.87,5.4,5.4,0,0,0-1.72,2.26V318a4.92,4.92,0,0,0,1.8,2.12,5.18,5.18,0,0,0,2.93.77,4.12,4.12,0,0,0,3.61-1.78,8.21,8.21,0,0,0,1.23-4.74Z"/><path class="cls-45" d="M631.56,320.79l2.46-.19V307.29l-2.46-.2v-1.34h4.26V320.6l2.47.19v1.33h-6.73Zm4.26-19.74H634v-2.54h1.8Z"/><path class="cls-45" d="M641,299.86v-1.35h4.27V320.6l2.47.19v1.33H641v-1.33l2.47-.19V300.06Z"/><path class="cls-45" d="M661.87,322.12c-.12-.55-.2-1-.25-1.43a10.16,10.16,0,0,1-.08-1.23,7.2,7.2,0,0,1-2.42,2.14,6.89,6.89,0,0,1-3.41.84A5.21,5.21,0,0,1,652,321.2a4.4,4.4,0,0,1-1.32-3.36,4.14,4.14,0,0,1,2-3.6,9.23,9.23,0,0,1,5.29-1.33h3.62v-2.17a3.45,3.45,0,0,0-1.13-2.75,4.56,4.56,0,0,0-3.15-1,7.84,7.84,0,0,0-2.49.37,5.84,5.84,0,0,0-1.89,1l-.15,2.2h-1.5l0-3.15A9.45,9.45,0,0,1,654,306a10.29,10.29,0,0,1,3.36-.55,6.57,6.57,0,0,1,4.36,1.38,4.86,4.86,0,0,1,1.65,3.95v8.05c0,.34,0,.66,0,1a6.86,6.86,0,0,0,.09.9l1.64.1v1.33Zm-6-1.28a6.63,6.63,0,0,0,3.47-.91,5.35,5.35,0,0,0,2.16-2.35V314.3h-3.65a6.81,6.81,0,0,0-3.94,1,3.05,3.05,0,0,0-1.48,2.58,2.71,2.71,0,0,0,.92,2.13A3.67,3.67,0,0,0,655.91,320.84Z"/><path class="cls-45" d="M671.59,305.75l.23,2.72v.2a5.79,5.79,0,0,1,1.9-2.37,4.79,4.79,0,0,1,2.85-.86,3.82,3.82,0,0,1,.68.06,4,4,0,0,1,.53.11l-.24,1.7-1.35-.1a4.09,4.09,0,0,0-2.8,1,5.22,5.22,0,0,0-1.57,2.64v9.78l2.47.19v1.33h-6.74v-1.33l2.47-.19V307.29l-2.47-.2v-1.34h4Z"/><path class="cls-45" d="M687.06,322.44a6.57,6.57,0,0,1-5.11-2.26,8.32,8.32,0,0,1-2-5.76v-.83a8.53,8.53,0,0,1,2-5.83,6.27,6.27,0,0,1,4.88-2.32,6.08,6.08,0,0,1,4.74,1.91,7.3,7.3,0,0,1,1.72,5.09V314H681.72v.44A7.17,7.17,0,0,0,683.2,319a4.67,4.67,0,0,0,3.86,1.87,7.76,7.76,0,0,0,2.88-.47,5.62,5.62,0,0,0,2-1.34l.78,1.24a6.56,6.56,0,0,1-2.34,1.53A8.91,8.91,0,0,1,687.06,322.44ZM686.82,307a4.36,4.36,0,0,0-3.37,1.53,6.61,6.61,0,0,0-1.59,3.86l0,.07h9.59V312a5.25,5.25,0,0,0-1.25-3.57A4.3,4.3,0,0,0,686.82,307Z"/><path class="cls-45" d="M708.41,310.8h-1.49l-.21-2.31a4.49,4.49,0,0,0-1.72-1.11,6.71,6.71,0,0,0-2.38-.39,4.47,4.47,0,0,0-3,.85,2.58,2.58,0,0,0-1,2,2.41,2.41,0,0,0,.86,1.88,8.44,8.44,0,0,0,3.41,1.3,10.89,10.89,0,0,1,4.37,1.78,3.67,3.67,0,0,1,1.46,3.06,4,4,0,0,1-1.66,3.31,7,7,0,0,1-4.38,1.26,10.45,10.45,0,0,1-3.31-.5,8.07,8.07,0,0,1-2.58-1.43V317.2h1.47l.26,2.34a4.24,4.24,0,0,0,1.83,1,8.2,8.2,0,0,0,2.33.32,5,5,0,0,0,3.1-.86,2.54,2.54,0,0,0,1.14-2.09,2.64,2.64,0,0,0-1-2,7.59,7.59,0,0,0-3.41-1.41,11.27,11.27,0,0,1-4.34-1.69,3.45,3.45,0,0,1-1.41-2.94,3.92,3.92,0,0,1,1.59-3.17,6.42,6.42,0,0,1,4.19-1.3,9.35,9.35,0,0,1,3.29.56,6.54,6.54,0,0,1,2.43,1.49Z"/><path class="cls-45" d="M731,319.76a5.74,5.74,0,0,1-2.11,2,6.26,6.26,0,0,1-3,.69,5.45,5.45,0,0,1-4.6-2.19,9.54,9.54,0,0,1-1.65-5.86v-.32a10.73,10.73,0,0,1,1.65-6.27,5.35,5.35,0,0,1,4.63-2.36,5.82,5.82,0,0,1,3,.72,5.94,5.94,0,0,1,2.09,2v-8.15l-2.47-.2v-1.35h4.29V320.6l2.47.19v1.33h-4.09Zm-9.55-5.37a8.23,8.23,0,0,0,1.19,4.72,4,4,0,0,0,3.58,1.76,5.06,5.06,0,0,0,2.91-.79,5.22,5.22,0,0,0,1.82-2.16v-7.75a5.56,5.56,0,0,0-1.74-2.27,4.72,4.72,0,0,0-3-.88,3.93,3.93,0,0,0-3.59,2,9.64,9.64,0,0,0-1.2,5.09Z"/><path class="cls-45" d="M738,313.69a8.8,8.8,0,0,1,2-5.93,7.12,7.12,0,0,1,10.52,0,8.75,8.75,0,0,1,2,5.93v.5a8.79,8.79,0,0,1-2,5.94,6.54,6.54,0,0,1-5.24,2.31,6.64,6.64,0,0,1-5.29-2.31,8.79,8.79,0,0,1-2-5.94Zm1.82.5a7.83,7.83,0,0,0,1.44,4.79,5.08,5.08,0,0,0,8,0,7.83,7.83,0,0,0,1.44-4.79v-.5a7.79,7.79,0,0,0-1.44-4.75,4.71,4.71,0,0,0-4-1.95,4.65,4.65,0,0,0-4,1.95,7.79,7.79,0,0,0-1.44,4.75Z"/><path class="cls-45" d="M772.69,300.09a7.79,7.79,0,0,1,5.49,1.81,6.83,6.83,0,0,1,0,9.58,7.83,7.83,0,0,1-5.49,1.8H768v6.51l2.47.43v1.9h-7.92v-1.9l2.47-.43V302.43l-2.47-.42v-1.92h10.13ZM768,311h4.68a4.35,4.35,0,0,0,3.35-1.2,4.25,4.25,0,0,0,1.12-3,4.34,4.34,0,0,0-1.12-3.06,4.29,4.29,0,0,0-3.35-1.23H768Z"/><path class="cls-45" d="M789.81,322.44a6.91,6.91,0,0,1-5.44-2.28,8.53,8.53,0,0,1-2-5.91v-.66a8.39,8.39,0,0,1,2.08-5.82,6.42,6.42,0,0,1,4.93-2.33,6.22,6.22,0,0,1,5,2,7.91,7.91,0,0,1,1.7,5.33v1.86H785.44l-.05.08a6.45,6.45,0,0,0,1.2,3.88,3.81,3.81,0,0,0,3.22,1.52,7.5,7.5,0,0,0,2.66-.43,6,6,0,0,0,2-1.19l1.17,1.94a7.28,7.28,0,0,1-2.33,1.43A9.23,9.23,0,0,1,789.81,322.44Zm-.45-14.65a3.24,3.24,0,0,0-2.56,1.26,6,6,0,0,0-1.3,3.18l0,.07h7.55v-.39a4.56,4.56,0,0,0-.94-2.94A3.32,3.32,0,0,0,789.36,307.79Z"/><path class="cls-45" d="M798.56,320.22l2.47-.43v-11.7l-2.47-.42v-1.92h5.13l.21,2.43a6.08,6.08,0,0,1,2.05-2,5.49,5.49,0,0,1,2.81-.72,5.31,5.31,0,0,1,4.1,1.56,6.8,6.8,0,0,1,1.46,4.79v8l2.46.43v1.9h-7.91v-1.9l2.47-.43v-7.94a4.45,4.45,0,0,0-.86-3.08,3.44,3.44,0,0,0-2.61-.9,4.15,4.15,0,0,0-2.28.62,4.51,4.51,0,0,0-1.58,1.69v9.61l2.47.43v1.9h-7.92Z"/><path class="cls-45" d="M831.48,310.89h-2.24l-.48-2a4,4,0,0,0-1.37-.83,5.2,5.2,0,0,0-1.87-.31,3.4,3.4,0,0,0-2.36.7,2.15,2.15,0,0,0-.77,1.68,1.84,1.84,0,0,0,.68,1.52,6.84,6.84,0,0,0,2.77,1,12,12,0,0,1,4.61,1.81,3.67,3.67,0,0,1,1.52,3.07,4.24,4.24,0,0,1-1.77,3.53,7.41,7.41,0,0,1-4.6,1.34,11.89,11.89,0,0,1-3.35-.43,8.87,8.87,0,0,1-2.65-1.25V317h2.24l.56,2.2a3.11,3.11,0,0,0,1.4.68,7.79,7.79,0,0,0,1.81.21,4.21,4.21,0,0,0,2.49-.64,2.08,2.08,0,0,0,.15-3.31,7.1,7.1,0,0,0-2.84-1.1,12,12,0,0,1-4.5-1.78,3.55,3.55,0,0,1-1.51-3,4.3,4.3,0,0,1,1.7-3.41,6.72,6.72,0,0,1,4.43-1.41,10.47,10.47,0,0,1,3.34.49,7,7,0,0,1,2.47,1.34Z"/><path class="cls-45" d="M845.44,322.12c-.09-.44-.16-.84-.21-1.19s-.09-.71-.11-1.06a7,7,0,0,1-2.16,1.84,6.19,6.19,0,0,1-6.65-.52,4.61,4.61,0,0,1-1.33-3.52,4.08,4.08,0,0,1,1.88-3.59,9.24,9.24,0,0,1,5.17-1.26h3.08v-1.91a3,3,0,0,0-.91-2.28,3.59,3.59,0,0,0-2.53-.84,6.3,6.3,0,0,0-2,.29,3.67,3.67,0,0,0-1.38.78l-.32,1.73h-2.3v-3.18A9,9,0,0,1,838.4,306a10.66,10.66,0,0,1,3.45-.54,6.85,6.85,0,0,1,4.51,1.43,5,5,0,0,1,1.73,4.07v7.88c0,.22,0,.42,0,.62a6.08,6.08,0,0,0,0,.61l1.22.17v1.9Zm-4.8-2.18a5.25,5.25,0,0,0,2.71-.71,4.4,4.4,0,0,0,1.76-1.71v-2.69h-3.18a4.51,4.51,0,0,0-2.9.85,2.54,2.54,0,0,0-1.07,2.05,2,2,0,0,0,.67,1.65A3,3,0,0,0,840.64,319.94Z"/><path class="cls-45" d="M851.24,320.22l2.46-.43v-11.7l-2.46-.42v-1.92h5.14l.2,2.13a5.25,5.25,0,0,1,2-1.8,6.26,6.26,0,0,1,2.87-.64,5.11,5.11,0,0,1,2.81.76,4.66,4.66,0,0,1,1.77,2.27,6,6,0,0,1,2-2.21,5.42,5.42,0,0,1,3-.82,4.93,4.93,0,0,1,4,1.72,7.85,7.85,0,0,1,1.46,5.17v7.46l2.46.43v1.9H871v-1.9l2.47-.43V312.3a5.49,5.49,0,0,0-.83-3.43,3,3,0,0,0-2.47-1,3.15,3.15,0,0,0-2.51,1.09,4.78,4.78,0,0,0-1.09,2.77v8.06l2.46.43v1.9h-7.91v-1.9l2.46-.43V312.3a5.39,5.39,0,0,0-.85-3.37,3,3,0,0,0-2.48-1.06,4,4,0,0,0-2.24.56,3.57,3.57,0,0,0-1.34,1.57v9.79l2.46.43v1.9h-7.91Z"/><path class="cls-45" d="M888.44,322.44a6.91,6.91,0,0,1-5.44-2.28,8.58,8.58,0,0,1-2-5.91v-.66a8.44,8.44,0,0,1,2.08-5.82,6.42,6.42,0,0,1,4.93-2.33,6.2,6.2,0,0,1,5,2,7.91,7.91,0,0,1,1.7,5.33v1.86H884.07l-.05.08a6.45,6.45,0,0,0,1.2,3.88,3.82,3.82,0,0,0,3.22,1.52,7.46,7.46,0,0,0,2.66-.43,6.15,6.15,0,0,0,2-1.19l1.16,1.94a7.23,7.23,0,0,1-2.32,1.43A9.29,9.29,0,0,1,888.44,322.44ZM888,307.79a3.24,3.24,0,0,0-2.56,1.26,6.05,6.05,0,0,0-1.3,3.18l0,.07h7.55v-.39a4.56,4.56,0,0,0-.94-2.94A3.32,3.32,0,0,0,888,307.79Z"/><path class="cls-45" d="M897.19,320.22l2.47-.43v-11.7l-2.47-.42v-1.92h5.13l.22,2.43a6,6,0,0,1,2.05-2,5.47,5.47,0,0,1,2.81-.72,5.34,5.34,0,0,1,4.1,1.56,6.79,6.79,0,0,1,1.45,4.79v8l2.47.43v1.9H907.5v-1.9l2.47-.43v-7.94a4.45,4.45,0,0,0-.86-3.08,3.44,3.44,0,0,0-2.61-.9,4.15,4.15,0,0,0-2.28.62,4.59,4.59,0,0,0-1.58,1.69v9.61l2.47.43v1.9h-7.92Z"/><path class="cls-45" d="M922.79,301.8v3.95h3.1V308h-3.1v9.94a2.21,2.21,0,0,0,.48,1.62,1.72,1.72,0,0,0,1.26.47,6,6,0,0,0,.89-.07c.32,0,.6-.09.82-.14l.41,2a4,4,0,0,1-1.24.45,8.3,8.3,0,0,1-1.64.17,3.87,3.87,0,0,1-2.89-1.09,4.82,4.82,0,0,1-1.07-3.45V308h-2.59v-2.21h2.59V301.8Z"/><path class="cls-45" d="M928.65,313.78a9,9,0,0,1,2-6,7.27,7.27,0,0,1,10.71,0,9,9,0,0,1,2,6v.34a9,9,0,0,1-2,6,6.6,6.6,0,0,1-5.34,2.33,6.67,6.67,0,0,1-5.38-2.34,9,9,0,0,1-2-6Zm3,.34a7.8,7.8,0,0,0,1.1,4.3,4,4,0,0,0,6.48,0,7.72,7.72,0,0,0,1.11-4.3v-.34a7.72,7.72,0,0,0-1.11-4.28,3.62,3.62,0,0,0-3.25-1.71,3.58,3.58,0,0,0-3.24,1.71,7.8,7.8,0,0,0-1.09,4.28Z"/><path class="cls-45" d="M571.36,344.05h-2.11l-.56-3.12a5.77,5.77,0,0,0-1.78-1.16,6.46,6.46,0,0,0-2.53-.46,6.18,6.18,0,0,0-5.28,2.49,10.34,10.34,0,0,0-1.85,6.32v.35a10.54,10.54,0,0,0,1.81,6.34,5.84,5.84,0,0,0,5,2.5,7.61,7.61,0,0,0,2.72-.47,5,5,0,0,0,1.89-1.15l.56-3.12h2.11v3.92a8.27,8.27,0,0,1-2.86,2.19,9.75,9.75,0,0,1-4.42,1,8.92,8.92,0,0,1-7.06-3.18,11.79,11.79,0,0,1-2.75-8v-.32a11.86,11.86,0,0,1,2.71-8,8.86,8.86,0,0,1,7.1-3.17,9.62,9.62,0,0,1,4.42,1,8.65,8.65,0,0,1,2.86,2.19Z"/><path class="cls-45" d="M574.55,351a9,9,0,0,1,2-6,6.59,6.59,0,0,1,5.34-2.36,6.68,6.68,0,0,1,5.37,2.35,9,9,0,0,1,2,6v.34a9,9,0,0,1-2,6,7.32,7.32,0,0,1-10.72,0,9,9,0,0,1-2-6Zm3,.34a7.8,7.8,0,0,0,1.1,4.3,4,4,0,0,0,6.49,0,7.8,7.8,0,0,0,1.1-4.3V351a7.8,7.8,0,0,0-1.1-4.28,3.94,3.94,0,0,0-6.5,0,7.88,7.88,0,0,0-1.09,4.28Z"/><path class="cls-45" d="M591.34,357.42l2.47-.43v-11.7l-2.47-.42V343h5.15l.19,2.13a5.33,5.33,0,0,1,2-1.8,6.3,6.3,0,0,1,2.88-.64,5.07,5.07,0,0,1,2.8.76,4.6,4.6,0,0,1,1.77,2.27,6,6,0,0,1,2-2.21,5.42,5.42,0,0,1,3-.82,4.92,4.92,0,0,1,4,1.72,7.85,7.85,0,0,1,1.46,5.17V357l2.46.43v1.9h-7.93v-1.9l2.47-.43V349.5a5.49,5.49,0,0,0-.83-3.43,3,3,0,0,0-2.47-1,3.17,3.17,0,0,0-2.51,1.09,4.78,4.78,0,0,0-1.09,2.77V357l2.46.43v1.9h-7.91v-1.9l2.46-.43V349.5a5.39,5.39,0,0,0-.85-3.37,3,3,0,0,0-2.48-1.06,4.07,4.07,0,0,0-2.24.56,3.57,3.57,0,0,0-1.34,1.57V357l2.47.43v1.9h-7.92Z"/><path class="cls-45" d="M620.85,363.7l2.47-.42v-18l-2.47-.42V343h5l.27,2a5.7,5.7,0,0,1,2-1.71,6,6,0,0,1,2.72-.59,5.45,5.45,0,0,1,4.73,2.42,10.87,10.87,0,0,1,1.69,6.38v.32a9,9,0,0,1-1.7,5.71,5.59,5.59,0,0,1-4.67,2.17,6.64,6.64,0,0,1-2.66-.5,5.2,5.2,0,0,1-2-1.51v5.65l2.47.42v1.92h-7.92Zm13.43-12.26a8.67,8.67,0,0,0-1.09-4.59,3.56,3.56,0,0,0-3.24-1.78,4,4,0,0,0-2.18.57,4.39,4.39,0,0,0-1.47,1.58v8a3.91,3.91,0,0,0,3.68,2.12,3.67,3.67,0,0,0,3.21-1.54,6.79,6.79,0,0,0,1.09-4Z"/><path class="cls-45" d="M651.7,356.9a5.47,5.47,0,0,1-2,2,5.4,5.4,0,0,1-2.8.71,5.26,5.26,0,0,1-4.17-1.71c-1-1.14-1.5-2.91-1.5-5.33v-7.31l-1.87-.42V343h4.86v9.68a6.09,6.09,0,0,0,.77,3.61,2.87,2.87,0,0,0,2.4,1,4.9,4.9,0,0,0,2.63-.64,4.09,4.09,0,0,0,1.57-1.83v-9.46l-2.2-.42V343h5.18v14l1.88.43v1.9H651.9Z"/><path class="cls-45" d="M664,339V343h3.11v2.21H664v9.94a2.21,2.21,0,0,0,.48,1.62,1.75,1.75,0,0,0,1.27.47,5.85,5.85,0,0,0,.88-.07c.33,0,.6-.09.83-.14l.4,2a3.87,3.87,0,0,1-1.24.45,8.2,8.2,0,0,1-1.63.17,3.85,3.85,0,0,1-2.89-1.09A4.77,4.77,0,0,1,661,355.1v-9.94h-2.59V343H661V339Z"/><path class="cls-45" d="M680.86,359.32c-.09-.44-.17-.84-.21-1.19s-.09-.71-.11-1.06a7.16,7.16,0,0,1-2.16,1.84,6.19,6.19,0,0,1-6.65-.52,4.57,4.57,0,0,1-1.33-3.52,4.06,4.06,0,0,1,1.88-3.59,9.22,9.22,0,0,1,5.17-1.26h3.07v-1.91a3,3,0,0,0-.9-2.28,3.59,3.59,0,0,0-2.53-.84,6.26,6.26,0,0,0-2,.29,3.67,3.67,0,0,0-1.38.78l-.32,1.73h-2.3v-3.18a8.92,8.92,0,0,1,2.71-1.43,10.66,10.66,0,0,1,3.45-.54,6.85,6.85,0,0,1,4.51,1.43,5,5,0,0,1,1.73,4.07v8.5c0,.21,0,.41,0,.61l1.21.17v1.9Zm-4.8-2.18a5.25,5.25,0,0,0,2.71-.71,4.31,4.31,0,0,0,1.75-1.71V352h-3.17a4.49,4.49,0,0,0-2.9.85,2.55,2.55,0,0,0-1.07,2.06,2,2,0,0,0,.67,1.64A3,3,0,0,0,676.06,357.14Z"/><path class="cls-45" d="M694.6,357.31a4,4,0,0,0,2.61-.91,2.8,2.8,0,0,0,1.13-2.25H701l0,.09a4.6,4.6,0,0,1-1.88,3.76,6.88,6.88,0,0,1-4.57,1.64,6.6,6.6,0,0,1-5.46-2.33,9,9,0,0,1-1.88-5.86v-.63a9,9,0,0,1,1.89-5.84,6.6,6.6,0,0,1,5.45-2.34,9.08,9.08,0,0,1,3.54.66,7.09,7.09,0,0,1,2.59,1.78l.14,3.63h-2.38l-.65-2.57a4,4,0,0,0-1.36-.83,5.29,5.29,0,0,0-1.88-.32,3.58,3.58,0,0,0-3.35,1.69,7.94,7.94,0,0,0-1,4.14v.63a8.12,8.12,0,0,0,1,4.19A3.62,3.62,0,0,0,694.6,357.31Z"/><path class="cls-45" d="M704,357.42l2.46-.43v-11.7l-2.46-.42V343h5.45v14l2.46.43v1.9H704Zm5.45-18.67h-3v-3h3Z"/><path class="cls-45" d="M714.16,351a9,9,0,0,1,2-6,7.27,7.27,0,0,1,10.71,0,9,9,0,0,1,2,6v.34a9,9,0,0,1-2,6,6.6,6.6,0,0,1-5.34,2.33,6.67,6.67,0,0,1-5.38-2.34,9,9,0,0,1-2-6Zm3,.34a7.8,7.8,0,0,0,1.1,4.3,4,4,0,0,0,6.48,0,7.72,7.72,0,0,0,1.11-4.3V351a7.72,7.72,0,0,0-1.11-4.28,3.62,3.62,0,0,0-3.25-1.71,3.58,3.58,0,0,0-3.24,1.71,7.8,7.8,0,0,0-1.09,4.28Z"/><path class="cls-45" d="M731.1,357.42l2.46-.43v-11.7l-2.46-.42V343h5.13l.21,2.43a6,6,0,0,1,2-2,5.47,5.47,0,0,1,2.81-.72,5.34,5.34,0,0,1,4.1,1.56,6.79,6.79,0,0,1,1.45,4.79v8l2.47.43v1.9H741.4v-1.9l2.47-.43v-7.94A4.45,4.45,0,0,0,743,346a3.47,3.47,0,0,0-2.62-.9,4.14,4.14,0,0,0-2.27.62,4.62,4.62,0,0,0-1.59,1.69V357l2.47.43v1.9H731.1Z"/><path class="cls-45" d="M762.17,359.32c-.09-.44-.16-.84-.21-1.19s-.09-.71-.11-1.06a7.12,7.12,0,0,1-2.15,1.84,5.54,5.54,0,0,1-2.77.73,5.46,5.46,0,0,1-3.89-1.25,4.61,4.61,0,0,1-1.33-3.52,4.07,4.07,0,0,1,1.89-3.59,9.19,9.19,0,0,1,5.17-1.26h3.07v-1.91a2.94,2.94,0,0,0-.91-2.28,3.58,3.58,0,0,0-2.53-.84,6.24,6.24,0,0,0-2,.29,3.8,3.8,0,0,0-1.39.78l-.32,1.73h-2.3v-3.18a9,9,0,0,1,2.71-1.43,10.66,10.66,0,0,1,3.45-.54,6.89,6.89,0,0,1,4.52,1.43,5,5,0,0,1,1.72,4.07V356c0,.22,0,.42,0,.62a6,6,0,0,0,0,.61l1.21.17v1.9Zm-4.8-2.18a5.22,5.22,0,0,0,2.71-.71,4.34,4.34,0,0,0,1.76-1.71V352h-3.18a4.51,4.51,0,0,0-2.9.85,2.55,2.55,0,0,0-1.07,2.06,2.06,2.06,0,0,0,.67,1.64A3,3,0,0,0,757.37,357.14Z"/><path class="cls-45" d="M768.15,337.63v-1.92h5.45V357l2.47.43v1.9h-7.92v-1.9l2.47-.43V338.06Z"/><path class="cls-45" d="M781.08,358.6a6.81,6.81,0,0,1-.57,2.72,6.74,6.74,0,0,1-1.55,2.26l-1.08-.79a7.47,7.47,0,0,0,1-2,6.56,6.56,0,0,0,.34-2.18v-2.15h1.81Z"/><path class="cls-45" d="M791.58,358l2.47-.19V344.49l-2.47-.2V343h4.07l.17,2.86a5.83,5.83,0,0,1,2.13-2.34,5.92,5.92,0,0,1,3.17-.83,5.08,5.08,0,0,1,4.06,1.63,7.76,7.76,0,0,1,1.39,5.08v8.45L809,358v1.33h-6.75V358l2.47-.19v-8.44a6,6,0,0,0-1-4,3.84,3.84,0,0,0-3-1.16,4.64,4.64,0,0,0-3.11,1,5.67,5.67,0,0,0-1.74,2.67v9.9l2.47.19v1.33h-6.75Z"/><path class="cls-45" d="M811.73,350.89a8.8,8.8,0,0,1,2-5.93,7.12,7.12,0,0,1,10.52,0,8.8,8.8,0,0,1,2,5.93v.5a8.78,8.78,0,0,1-2,5.94,7.15,7.15,0,0,1-10.53,0,8.79,8.79,0,0,1-2-5.94Zm1.82.5a7.82,7.82,0,0,0,1.43,4.79,4.72,4.72,0,0,0,4,1.93,4.66,4.66,0,0,0,4-1.93,7.83,7.83,0,0,0,1.44-4.79v-.5a7.73,7.73,0,0,0-1.45-4.75,5,5,0,0,0-8,0,7.78,7.78,0,0,0-1.43,4.75Z"/><path class="cls-45" d="M840.87,338.75V343h3.6v1.48h-3.6V355.1a3.49,3.49,0,0,0,.58,2.28,1.94,1.94,0,0,0,1.55.67c.29,0,.58,0,.86,0l1-.13.27,1.34a4.67,4.67,0,0,1-1.1.31,8.26,8.26,0,0,1-1.31.1,3.37,3.37,0,0,1-2.68-1.09,5.06,5.06,0,0,1-1-3.45V344.43h-2.81V343H839v-4.2Z"/><path class="cls-45" d="M851.72,343l.23,2.72v.2a5.71,5.71,0,0,1,1.9-2.37,4.79,4.79,0,0,1,2.85-.86,3.63,3.63,0,0,1,.67.06,3.89,3.89,0,0,1,.54.11l-.24,1.7-1.35-.1a4.14,4.14,0,0,0-2.81,1A5.28,5.28,0,0,0,852,348v9.78l2.46.19v1.33h-6.73V358l2.47-.19V344.49l-2.47-.2V343h4Z"/><path class="cls-45" d="M871.56,359.32c-.12-.55-.2-1-.25-1.43a10.16,10.16,0,0,1-.08-1.23,7.3,7.3,0,0,1-2.42,2.14,6.92,6.92,0,0,1-3.41.84,5.21,5.21,0,0,1-3.72-1.24,4.4,4.4,0,0,1-1.32-3.36,4.14,4.14,0,0,1,2-3.6,9.23,9.23,0,0,1,5.29-1.33h3.62v-2.17a3.48,3.48,0,0,0-1.13-2.75,4.56,4.56,0,0,0-3.15-1,7.84,7.84,0,0,0-2.49.37,5.74,5.74,0,0,0-1.89,1l-.15,2.2h-1.5l0-3.15a9.39,9.39,0,0,1,2.71-1.42,10.4,10.4,0,0,1,3.37-.55,6.57,6.57,0,0,1,4.36,1.38,4.86,4.86,0,0,1,1.65,4v8c0,.34,0,.66,0,1s.05.6.1.9l1.64.1v1.33Zm-6-1.28a6.63,6.63,0,0,0,3.47-.91,5.35,5.35,0,0,0,2.16-2.35V351.5h-3.65a6.81,6.81,0,0,0-3.94,1,3.05,3.05,0,0,0-1.48,2.58,2.71,2.71,0,0,0,.92,2.13A3.67,3.67,0,0,0,865.6,358Z"/><path class="cls-45" d="M891.44,351.59a9.47,9.47,0,0,1-1.67,5.87,5.46,5.46,0,0,1-4.58,2.18,6.35,6.35,0,0,1-3.11-.72,5.6,5.6,0,0,1-2.1-2.06l-.2,2.46h-1.54V337.26l-2.47-.2v-1.35H880v9.81a5.93,5.93,0,0,1,2.09-2.13,5.87,5.87,0,0,1,3-.75,5.34,5.34,0,0,1,4.61,2.36,10.65,10.65,0,0,1,1.67,6.27Zm-1.83-.32a9.63,9.63,0,0,0-1.21-5.09,3.94,3.94,0,0,0-3.58-2,4.68,4.68,0,0,0-3.06.94,5.53,5.53,0,0,0-1.72,2.4V355a5.19,5.19,0,0,0,1.81,2.26,5.11,5.11,0,0,0,3,.84,4,4,0,0,0,3.56-1.76,8.23,8.23,0,0,0,1.2-4.72Z"/><path class="cls-45" d="M905.82,359.32c-.12-.55-.21-1-.26-1.43a10.16,10.16,0,0,1-.08-1.23,7.2,7.2,0,0,1-2.42,2.14,6.88,6.88,0,0,1-3.4.84,5.22,5.22,0,0,1-3.73-1.24,4.43,4.43,0,0,1-1.31-3.36,4.15,4.15,0,0,1,2-3.6,9.26,9.26,0,0,1,5.3-1.33h3.61v-2.17a3.47,3.47,0,0,0-1.12-2.75,4.61,4.61,0,0,0-3.16-1,7.84,7.84,0,0,0-2.49.37,5.69,5.69,0,0,0-1.88,1l-.15,2.2h-1.5v-3.15a9.45,9.45,0,0,1,2.72-1.42,10.35,10.35,0,0,1,3.37-.55,6.58,6.58,0,0,1,4.36,1.38,4.86,4.86,0,0,1,1.65,4v8c0,.34,0,.66,0,1a6.88,6.88,0,0,0,.1.9l1.63.1v1.33Zm-6-1.28a6.6,6.6,0,0,0,3.47-.91,5.35,5.35,0,0,0,2.16-2.35V351.5h-3.64a6.84,6.84,0,0,0-4,1,3,3,0,0,0-1.47,2.58,2.7,2.7,0,0,0,.91,2.13A3.67,3.67,0,0,0,899.85,358Z"/><path class="cls-45" d="M911.25,337.06v-1.35h4.27V357.8L918,358v1.33h-6.74V358l2.47-.19V337.26Z"/><path class="cls-45" d="M920.32,337.06v-1.35h4.27v10a6,6,0,0,1,2.18-2.29,6.08,6.08,0,0,1,3.17-.82,5,5,0,0,1,4,1.61,7.52,7.52,0,0,1,1.38,5v8.57l2.47.19v1.33H931V358l2.47-.19v-8.6a5.56,5.56,0,0,0-1.06-3.82,3.67,3.67,0,0,0-2.89-1.16,4.89,4.89,0,0,0-3.11,1,5.66,5.66,0,0,0-1.84,2.6v10l2.46.19v1.33h-6.73V358l2.47-.19V337.26Z"/><path class="cls-45" d="M940.35,350.89a8.8,8.8,0,0,1,2-5.93,7.12,7.12,0,0,1,10.52,0,8.8,8.8,0,0,1,2,5.93v.5a8.79,8.79,0,0,1-2,5.94,6.54,6.54,0,0,1-5.24,2.31,6.61,6.61,0,0,1-5.28-2.31,8.79,8.79,0,0,1-2-5.94Zm1.81.5a7.83,7.83,0,0,0,1.44,4.79,5.09,5.09,0,0,0,8,0,7.89,7.89,0,0,0,1.43-4.79v-.5a7.79,7.79,0,0,0-1.44-4.75,5,5,0,0,0-8,0,7.79,7.79,0,0,0-1.44,4.75Z"/><path class="cls-45" d="M972.31,358.11a5.15,5.15,0,0,0,3.18-1,3.36,3.36,0,0,0,1.38-2.86h1.6l0,.09a4.49,4.49,0,0,1-1.81,3.8,6.72,6.72,0,0,1-4.38,1.53,6.22,6.22,0,0,1-5.16-2.29,9.18,9.18,0,0,1-1.83-5.9v-.63a9.18,9.18,0,0,1,1.83-5.88,6.22,6.22,0,0,1,5.15-2.3,8.21,8.21,0,0,1,3.46.72,6.78,6.78,0,0,1,2.56,1.93l.08,3.58h-1.55l-.28-2.91a5.22,5.22,0,0,0-1.81-1.3,6.17,6.17,0,0,0-2.46-.47,4.37,4.37,0,0,0-3.9,1.88,8.38,8.38,0,0,0-1.26,4.75v.63a8.42,8.42,0,0,0,1.25,4.79A4.39,4.39,0,0,0,972.31,358.11Z"/><path class="cls-45" d="M981.88,350.89a8.8,8.8,0,0,1,2-5.93,7.12,7.12,0,0,1,10.52,0,8.8,8.8,0,0,1,2,5.93v.5a8.78,8.78,0,0,1-2,5.94,7.15,7.15,0,0,1-10.53,0,8.79,8.79,0,0,1-2-5.94Zm1.82.5a7.89,7.89,0,0,0,1.43,4.79,4.72,4.72,0,0,0,4,1.93,4.66,4.66,0,0,0,4-1.93,7.83,7.83,0,0,0,1.44-4.79v-.5a7.73,7.73,0,0,0-1.45-4.75,5,5,0,0,0-8,0,7.85,7.85,0,0,0-1.43,4.75Z"/><path class="cls-45" d="M998.92,344.29V343H1003l.16,2.71a5.82,5.82,0,0,1,2.11-2.23,6,6,0,0,1,3.13-.79,5.18,5.18,0,0,1,3.13.92,5,5,0,0,1,1.8,2.79,6.41,6.41,0,0,1,2.11-2.71,5.58,5.58,0,0,1,3.34-1,4.92,4.92,0,0,1,4.05,1.75q1.42,1.74,1.43,5.38v8l2.47.21v1.33H1020V358l2.47-.21v-8c0-2-.35-3.44-1.07-4.27a3.67,3.67,0,0,0-3-1.25,4.06,4.06,0,0,0-3.26,1.34,6.43,6.43,0,0,0-1.42,3.44,1.69,1.69,0,0,0,0,.23c0,.07,0,.16,0,.27v8.3l2.46.19v1.33h-6.75V358l2.47-.19v-8.06a6.58,6.58,0,0,0-1.08-4.24,3.68,3.68,0,0,0-3-1.28,4.51,4.51,0,0,0-3.06,1,5.23,5.23,0,0,0-1.58,2.63v10l2.47.19v1.33h-6.76V358l2.47-.19V344.49Z"/><path class="cls-45" d="M566.54,385.2h-1.48l-.21-2.31a4.57,4.57,0,0,0-1.72-1.11,6.75,6.75,0,0,0-2.38-.39,4.45,4.45,0,0,0-3,.85,2.58,2.58,0,0,0-1,2,2.39,2.39,0,0,0,.86,1.88,8.44,8.44,0,0,0,3.41,1.3,10.89,10.89,0,0,1,4.37,1.78,3.67,3.67,0,0,1,1.46,3.06,4,4,0,0,1-1.66,3.31,7.07,7.07,0,0,1-4.38,1.26,10.45,10.45,0,0,1-3.31-.5,8.07,8.07,0,0,1-2.58-1.43V391.6h1.47l.25,2.34a4.34,4.34,0,0,0,1.84,1.05,8.2,8.2,0,0,0,2.33.32,5,5,0,0,0,3.1-.86,2.54,2.54,0,0,0,1.14-2.09,2.65,2.65,0,0,0-1-2,7.59,7.59,0,0,0-3.41-1.41,11.27,11.27,0,0,1-4.34-1.69,3.46,3.46,0,0,1-1.42-2.94,3.94,3.94,0,0,1,1.59-3.17,6.47,6.47,0,0,1,4.2-1.3,9.39,9.39,0,0,1,3.29.56,6.67,6.67,0,0,1,2.43,1.49Z"/><path class="cls-45" d="M577.4,396.84a6.57,6.57,0,0,1-5.12-2.26,8.32,8.32,0,0,1-2-5.76V388a8.58,8.58,0,0,1,2-5.83,6.29,6.29,0,0,1,4.89-2.32,6.07,6.07,0,0,1,4.73,1.91,7.3,7.3,0,0,1,1.73,5.09v1.54H572.05v.44a7.23,7.23,0,0,0,1.48,4.62,4.68,4.68,0,0,0,3.87,1.87,7.89,7.89,0,0,0,2.87-.46,5.91,5.91,0,0,0,2.05-1.35l.77,1.24a6.52,6.52,0,0,1-2.33,1.53A9,9,0,0,1,577.4,396.84Zm-.24-15.45a4.33,4.33,0,0,0-3.37,1.53,6.56,6.56,0,0,0-1.6,3.86l0,.07h9.6v-.45a5.21,5.21,0,0,0-1.26-3.57A4.28,4.28,0,0,0,577.16,381.39Z"/><path class="cls-45" d="M598.89,393.83a5.6,5.6,0,0,1-2.11,2.23,6.17,6.17,0,0,1-3.16.78,5,5,0,0,1-4-1.75q-1.47-1.75-1.47-5.45v-7.95l-2-.2v-1.34h3.82v9.52a7.05,7.05,0,0,0,1,4.3,3.48,3.48,0,0,0,2.9,1.3,5.31,5.31,0,0,0,3.27-.91,4.78,4.78,0,0,0,1.72-2.51V381.69l-2.33-.2v-1.34h4.15V395l2.19.19v1.33h-3.78Z"/><path class="cls-45" d="M617.39,385.2h-1.48l-.22-2.31a4.45,4.45,0,0,0-1.71-1.11,6.81,6.81,0,0,0-2.39-.39,4.44,4.44,0,0,0-3,.85,2.58,2.58,0,0,0-1,2,2.38,2.38,0,0,0,.85,1.88,8.51,8.51,0,0,0,3.41,1.3,11,11,0,0,1,4.38,1.78,3.66,3.66,0,0,1,1.45,3.06,4,4,0,0,1-1.66,3.31,7,7,0,0,1-4.38,1.26,10.5,10.5,0,0,1-3.31-.5,8.07,8.07,0,0,1-2.58-1.43V391.6h1.47l.26,2.34a4.28,4.28,0,0,0,1.84,1.05,8.08,8.08,0,0,0,2.32.32,5,5,0,0,0,3.1-.86,2.54,2.54,0,0,0,1.14-2.09,2.65,2.65,0,0,0-.95-2,7.54,7.54,0,0,0-3.41-1.41,11.34,11.34,0,0,1-4.34-1.69,3.45,3.45,0,0,1-1.41-2.94,3.94,3.94,0,0,1,1.59-3.17,6.44,6.44,0,0,1,4.19-1.3,9.35,9.35,0,0,1,3.29.56,6.51,6.51,0,0,1,2.43,1.49Z"/><path class="cls-45" d="M639.87,396.52c-.12-.55-.21-1-.26-1.43a10.16,10.16,0,0,1-.08-1.23,7.2,7.2,0,0,1-2.42,2.14,6.88,6.88,0,0,1-3.4.84A5.22,5.22,0,0,1,630,395.6a4.39,4.39,0,0,1-1.31-3.36,4.15,4.15,0,0,1,2-3.6,9.24,9.24,0,0,1,5.3-1.33h3.61v-2.17a3.47,3.47,0,0,0-1.12-2.75,4.61,4.61,0,0,0-3.16-1,7.84,7.84,0,0,0-2.49.37,5.67,5.67,0,0,0-1.89,1l-.15,2.19h-1.49v-3.15a9.45,9.45,0,0,1,2.72-1.42,10.31,10.31,0,0,1,3.37-.55,6.54,6.54,0,0,1,4.35,1.38,4.87,4.87,0,0,1,1.66,3.95v8.06c0,.33,0,.65,0,1a6.88,6.88,0,0,0,.1.9l1.63.1v1.33Zm-6-1.28a6.53,6.53,0,0,0,3.47-.91,5.35,5.35,0,0,0,2.16-2.35V388.7h-3.64a6.84,6.84,0,0,0-3.95,1,3,3,0,0,0-1.47,2.58,2.7,2.7,0,0,0,.91,2.13A3.67,3.67,0,0,0,633.9,395.24Z"/><path class="cls-45" d="M645.3,374.26v-1.35h4.27V395l2.47.19v1.33H645.3v-1.33l2.47-.19V374.46Z"/><path class="cls-45" d="M666.93,393.83a5.6,5.6,0,0,1-2.11,2.23,6.17,6.17,0,0,1-3.16.78,5,5,0,0,1-4-1.75q-1.46-1.75-1.46-5.45v-7.95l-2-.2v-1.34H658v9.52a7,7,0,0,0,1,4.3,3.47,3.47,0,0,0,2.89,1.3,5.32,5.32,0,0,0,3.28-.91,4.78,4.78,0,0,0,1.72-2.51V381.69l-2.33-.2v-1.34h4.15V395l2.19.19v1.33H667.1Z"/><path class="cls-45" d="M673.21,395.19l2.47-.19V381.69l-2.47-.2v-1.34h4.07l.17,2.86a5.83,5.83,0,0,1,2.13-2.34,5.92,5.92,0,0,1,3.17-.83,5.08,5.08,0,0,1,4.06,1.63,7.76,7.76,0,0,1,1.39,5.08V395l2.47.19v1.33h-6.76v-1.33l2.47-.19v-8.44a6,6,0,0,0-1-4,3.84,3.84,0,0,0-3-1.16,4.64,4.64,0,0,0-3.11,1,5.58,5.58,0,0,0-1.73,2.67V395l2.46.19v1.33h-6.75Z"/><path class="cls-45" d="M693.36,388.09a8.8,8.8,0,0,1,2-5.93,7.12,7.12,0,0,1,10.52,0,8.8,8.8,0,0,1,2,5.93v.5a8.77,8.77,0,0,1-2,5.94,6.55,6.55,0,0,1-5.24,2.31,6.64,6.64,0,0,1-5.29-2.31,8.77,8.77,0,0,1-2-5.94Zm1.82.5a7.89,7.89,0,0,0,1.43,4.79,4.72,4.72,0,0,0,4,1.93,4.66,4.66,0,0,0,4-1.93,7.83,7.83,0,0,0,1.44-4.79v-.5a7.73,7.73,0,0,0-1.45-4.75,5,5,0,0,0-8,0,7.85,7.85,0,0,0-1.43,4.75Z"/><path class="cls-45" d="M722.68,385.2H721.2l-.22-2.31a4.45,4.45,0,0,0-1.71-1.11,6.77,6.77,0,0,0-2.39-.39,4.44,4.44,0,0,0-3,.85,2.58,2.58,0,0,0-1,2,2.38,2.38,0,0,0,.85,1.88,8.51,8.51,0,0,0,3.41,1.3,11,11,0,0,1,4.38,1.78,3.66,3.66,0,0,1,1.45,3.06,4,4,0,0,1-1.66,3.31,7,7,0,0,1-4.38,1.26,10.39,10.39,0,0,1-3.3-.5,7.86,7.86,0,0,1-2.58-1.43V391.6h1.46l.26,2.34a4.28,4.28,0,0,0,1.84,1.05,8.13,8.13,0,0,0,2.32.32,5,5,0,0,0,3.11-.86,2.56,2.56,0,0,0,1.13-2.09,2.64,2.64,0,0,0-.94-2,7.64,7.64,0,0,0-3.42-1.41,11.22,11.22,0,0,1-4.33-1.69,3.44,3.44,0,0,1-1.42-2.94,3.94,3.94,0,0,1,1.59-3.17,6.46,6.46,0,0,1,4.19-1.3,9.44,9.44,0,0,1,3.3.56,6.54,6.54,0,0,1,2.42,1.49Z"/><path class="cls-45" d="M733.52,395.19,736,395V381.69l-2.47-.2v-1.34h4.07l.17,2.86a5.81,5.81,0,0,1,2.12-2.34,5.94,5.94,0,0,1,3.17-.83,5.07,5.07,0,0,1,4.06,1.63q1.39,1.63,1.39,5.08V395l2.47.19v1.33h-6.75v-1.33l2.47-.19v-8.44a5.89,5.89,0,0,0-1.06-4,3.82,3.82,0,0,0-3-1.16,4.66,4.66,0,0,0-3.12,1,5.65,5.65,0,0,0-1.73,2.67V395l2.47.19v1.33h-6.75Z"/><path class="cls-45" d="M753.67,388.09a8.8,8.8,0,0,1,2-5.93,7.12,7.12,0,0,1,10.52,0,8.8,8.8,0,0,1,2,5.93v.5a8.81,8.81,0,0,1-2,5.94,7.16,7.16,0,0,1-10.53,0,8.77,8.77,0,0,1-2-5.94Zm1.81.5a7.83,7.83,0,0,0,1.44,4.79,4.72,4.72,0,0,0,4,1.93,4.67,4.67,0,0,0,4-1.93,7.89,7.89,0,0,0,1.44-4.79v-.5a7.79,7.79,0,0,0-1.45-4.75,5,5,0,0,0-8,0,7.79,7.79,0,0,0-1.44,4.75Z"/><path class="cls-45" d="M783,385.2H781.5l-.21-2.31a4.49,4.49,0,0,0-1.72-1.11,6.71,6.71,0,0,0-2.38-.39,4.47,4.47,0,0,0-3,.85,2.58,2.58,0,0,0-1,2,2.39,2.39,0,0,0,.86,1.88,8.44,8.44,0,0,0,3.41,1.3,10.89,10.89,0,0,1,4.37,1.78,3.67,3.67,0,0,1,1.46,3.06,4,4,0,0,1-1.66,3.31,7,7,0,0,1-4.38,1.26,10.45,10.45,0,0,1-3.31-.5,8.07,8.07,0,0,1-2.58-1.43V391.6h1.47l.26,2.34A4.24,4.24,0,0,0,775,395a8.2,8.2,0,0,0,2.33.32,5,5,0,0,0,3.1-.86,2.54,2.54,0,0,0,1.14-2.09,2.65,2.65,0,0,0-.95-2,7.59,7.59,0,0,0-3.41-1.41,11.34,11.34,0,0,1-4.34-1.69,3.45,3.45,0,0,1-1.41-2.94,3.92,3.92,0,0,1,1.59-3.17,6.42,6.42,0,0,1,4.19-1.3,9.35,9.35,0,0,1,3.29.56,6.67,6.67,0,0,1,2.43,1.49Z"/><path class="cls-45" d="M793.52,394.62l1.64-.23,7.7-19.9h2.56l7.57,19.9,1.62.23v1.9h-6.33v-1.9l1.66-.29-1.45-4.06h-8.82l-1.5,4.06,1.66.29v1.9h-6.31Zm7.07-6.84h7l-3.42-9.46h-.09Z"/><path class="cls-45" d="M816.3,394.62l2.47-.43v-11.7l-2.47-.42v-1.92h5.13l.22,2.43a5.91,5.91,0,0,1,2.05-2,5.43,5.43,0,0,1,2.8-.72,5.34,5.34,0,0,1,4.11,1.56,6.79,6.79,0,0,1,1.45,4.79v8l2.47.43v1.9h-7.92v-1.9l2.47-.43v-7.94a4.45,4.45,0,0,0-.86-3.08,3.44,3.44,0,0,0-2.61-.9,4.15,4.15,0,0,0-2.28.62,4.51,4.51,0,0,0-1.58,1.69v9.61l2.47.43v1.9H816.3Z"/><path class="cls-45" d="M836.55,388.19a9,9,0,0,1,2-6,7.27,7.27,0,0,1,10.71,0,9,9,0,0,1,2,6v.33a9,9,0,0,1-2,6,7.32,7.32,0,0,1-10.72,0,9,9,0,0,1-2-6Zm3,.33a7.8,7.8,0,0,0,1.09,4.3,4,4,0,0,0,6.49,0,7.72,7.72,0,0,0,1.11-4.3v-.33a7.73,7.73,0,0,0-1.11-4.29,3.63,3.63,0,0,0-3.25-1.71,3.58,3.58,0,0,0-3.24,1.71,7.81,7.81,0,0,0-1.09,4.29Z"/><path class="cls-45" d="M866.47,385.29h-2.24l-.49-2a4,4,0,0,0-1.37-.83,5.2,5.2,0,0,0-1.87-.31,3.41,3.41,0,0,0-2.36.7,2.18,2.18,0,0,0-.77,1.68,1.9,1.9,0,0,0,.68,1.53,7.23,7.23,0,0,0,2.77,1,11.92,11.92,0,0,1,4.62,1.8A3.69,3.69,0,0,1,867,392a4.25,4.25,0,0,1-1.76,3.53,7.46,7.46,0,0,1-4.61,1.34,11.94,11.94,0,0,1-3.35-.43,8.87,8.87,0,0,1-2.65-1.25v-3.74h2.24l.56,2.2a3.11,3.11,0,0,0,1.4.68,7.79,7.79,0,0,0,1.81.21,4.21,4.21,0,0,0,2.49-.64,2,2,0,0,0,.9-1.69,2,2,0,0,0-.75-1.62,7.1,7.1,0,0,0-2.84-1.1,12.15,12.15,0,0,1-4.5-1.77,3.6,3.6,0,0,1-1.51-3,4.3,4.3,0,0,1,1.7-3.41,6.72,6.72,0,0,1,4.43-1.41,10.87,10.87,0,0,1,3.35.49,6.76,6.76,0,0,1,2.46,1.35Z"/><path class="cls-45" d="M877.17,394.62l2.46-.43V376.83l-2.46-.42v-1.92h17v5.29h-2.55l-.24-2.95h-8.79v7.6h8.52v2.35h-8.52v7.41l2.46.43v1.9h-7.91Z"/><path class="cls-45" d="M896.71,394.62l2.47-.43v-11.7l-2.47-.42v-1.92h5.45v14l2.47.43v1.9h-7.92ZM902.16,376h-3v-3h3Z"/><path class="cls-45" d="M906.46,394.62l2.47-.43v-11.7l-2.47-.42v-1.92h5.13l.21,2.43a6.08,6.08,0,0,1,2.05-2,5.49,5.49,0,0,1,2.81-.72,5.32,5.32,0,0,1,4.1,1.56,6.8,6.8,0,0,1,1.46,4.79v8l2.46.43v1.9h-7.91v-1.9l2.46-.43v-7.94a4.45,4.45,0,0,0-.85-3.08,3.44,3.44,0,0,0-2.61-.9,4.15,4.15,0,0,0-2.28.62,4.51,4.51,0,0,0-1.58,1.69v9.61l2.46.43v1.9h-7.91Z"/><path class="cls-45" d="M937.53,396.52c-.09-.44-.16-.84-.21-1.19s-.08-.71-.1-1.06a7.29,7.29,0,0,1-2.16,1.84,5.51,5.51,0,0,1-2.76.73,5.43,5.43,0,0,1-3.89-1.25,4.57,4.57,0,0,1-1.34-3.52,4.07,4.07,0,0,1,1.89-3.59,9.19,9.19,0,0,1,5.17-1.26h3.07v-1.91a2.94,2.94,0,0,0-.91-2.28,3.55,3.55,0,0,0-2.52-.84,6.26,6.26,0,0,0-2,.29,3.67,3.67,0,0,0-1.39.79l-.31,1.72h-2.31v-3.18a9,9,0,0,1,2.72-1.43,10.58,10.58,0,0,1,3.45-.54,6.87,6.87,0,0,1,4.51,1.43,5,5,0,0,1,1.72,4.07v7.89c0,.21,0,.41,0,.62s0,.4,0,.6l1.21.17v1.9Zm-4.79-2.17a5.22,5.22,0,0,0,2.7-.72,4.34,4.34,0,0,0,1.76-1.71v-2.69H934a4.53,4.53,0,0,0-2.9.85,2.54,2.54,0,0,0-1.06,2.06,2.05,2.05,0,0,0,.66,1.64A3.06,3.06,0,0,0,932.74,394.35Z"/><path class="cls-45" d="M943.92,394.62l2.47-.43v-11.7l-2.47-.42v-1.92h5.45v14l2.47.43v1.9h-7.92ZM949.37,376h-3v-3h3Z"/><path class="cls-45" d="M966.64,385.29H964.4l-.48-2a4,4,0,0,0-1.37-.83,5.24,5.24,0,0,0-1.87-.31,3.4,3.4,0,0,0-2.36.7,2.16,2.16,0,0,0-.78,1.68,1.88,1.88,0,0,0,.69,1.53,7.16,7.16,0,0,0,2.77,1,11.93,11.93,0,0,1,4.61,1.8,3.67,3.67,0,0,1,1.52,3.07,4.24,4.24,0,0,1-1.77,3.53,7.42,7.42,0,0,1-4.61,1.34,11.86,11.86,0,0,1-3.34-.43,8.87,8.87,0,0,1-2.65-1.25l0-3.74H957l.56,2.2a3.17,3.17,0,0,0,1.4.68,7.86,7.86,0,0,0,1.81.21,4.21,4.21,0,0,0,2.49-.64,2,2,0,0,0,.9-1.69,2,2,0,0,0-.75-1.62,7,7,0,0,0-2.83-1.1,12.15,12.15,0,0,1-4.5-1.77,3.58,3.58,0,0,1-1.51-3,4.27,4.27,0,0,1,1.7-3.41,6.7,6.7,0,0,1,4.43-1.41,10.81,10.81,0,0,1,3.34.49,6.89,6.89,0,0,1,2.47,1.35Z"/><path class="cls-45" d="M988.65,394.57a5.39,5.39,0,0,1-2,1.7,6,6,0,0,1-2.69.57,5.59,5.59,0,0,1-4.68-2.17,9,9,0,0,1-1.69-5.71v-.32a10.88,10.88,0,0,1,1.69-6.37,5.41,5.41,0,0,1,4.71-2.43,5.82,5.82,0,0,1,2.57.54,5.44,5.44,0,0,1,1.9,1.55v-6.67l-2.47-.43v-1.92h5.45v21.28l2.47.43v1.9h-5.06Zm-8-5.61a6.92,6.92,0,0,0,1,4,3.51,3.51,0,0,0,3.13,1.5,4,4,0,0,0,2.24-.6,4.69,4.69,0,0,0,1.5-1.72v-7.59a4.57,4.57,0,0,0-1.5-1.64,4,4,0,0,0-2.21-.6,3.41,3.41,0,0,0-3.16,1.77,9.14,9.14,0,0,0-1,4.6Z"/><path class="cls-45" d="M996.23,388.19a9,9,0,0,1,2-6,7.27,7.27,0,0,1,10.71,0,9,9,0,0,1,2,6v.33a9,9,0,0,1-2,6,7.32,7.32,0,0,1-10.72,0,9,9,0,0,1-2-6Zm3,.33a7.8,7.8,0,0,0,1.09,4.3,4,4,0,0,0,6.49,0,7.72,7.72,0,0,0,1.11-4.3v-.33a7.73,7.73,0,0,0-1.11-4.29,3.63,3.63,0,0,0-3.25-1.71,3.58,3.58,0,0,0-3.24,1.71,7.81,7.81,0,0,0-1.09,4.29Z"/><path class="cls-45" d="M554.27,433.73v-1.91l2.47-.43V414l-2.47-.42v-1.92h16.92V417h-2.56l-.24-3h-8.67v7.13h8.43v2.35h-8.43v7.88h8.85l.24-2.95h2.55v5.29Z"/><path class="cls-45" d="M573.87,431.82l2.47-.43v-11.7l-2.47-.42v-1.92H579l.21,2.43a6.08,6.08,0,0,1,2-2,5.49,5.49,0,0,1,2.81-.72,5.31,5.31,0,0,1,4.1,1.56,6.8,6.8,0,0,1,1.46,4.79v8l2.46.43v1.91h-7.91v-1.91l2.47-.43v-7.94a4.45,4.45,0,0,0-.86-3.08,3.44,3.44,0,0,0-2.61-.9,4.15,4.15,0,0,0-2.28.62,4.51,4.51,0,0,0-1.58,1.69v9.61l2.47.43v1.91h-7.92Z"/><path class="cls-45" d="M606.79,422.49h-2.24l-.48-2a4,4,0,0,0-1.37-.83,5.2,5.2,0,0,0-1.87-.31,3.4,3.4,0,0,0-2.36.7,2.15,2.15,0,0,0-.77,1.68,1.87,1.87,0,0,0,.68,1.53,7.16,7.16,0,0,0,2.77,1,11.93,11.93,0,0,1,4.61,1.8,3.67,3.67,0,0,1,1.52,3.07,4.24,4.24,0,0,1-1.77,3.53A7.42,7.42,0,0,1,600.9,434a11.86,11.86,0,0,1-3.34-.43,8.87,8.87,0,0,1-2.65-1.25l0-3.74h2.24l.57,2.2a3.06,3.06,0,0,0,1.4.68,7.77,7.77,0,0,0,1.8.21,4.21,4.21,0,0,0,2.49-.64,2,2,0,0,0,.9-1.69,2.07,2.07,0,0,0-.74-1.62,7.1,7.1,0,0,0-2.84-1.1,12.15,12.15,0,0,1-4.5-1.77,3.58,3.58,0,0,1-1.51-3,4.3,4.3,0,0,1,1.7-3.41,6.72,6.72,0,0,1,4.43-1.41,10.81,10.81,0,0,1,3.34.49,6.81,6.81,0,0,1,2.47,1.35Z"/><path class="cls-45" d="M610.06,431.82l2.47-.43v-11.7l-2.47-.42v-1.92h5.45v14l2.47.43v1.91h-7.92Zm5.45-18.67h-3v-3h3Z"/><path class="cls-45" d="M619.81,431.82l2.47-.43v-11.7l-2.47-.42v-1.92h5.13l.21,2.43a6.08,6.08,0,0,1,2.05-2A5.49,5.49,0,0,1,630,417a5.31,5.31,0,0,1,4.1,1.56,6.8,6.8,0,0,1,1.46,4.79v8l2.46.43v1.91h-7.91v-1.91l2.47-.43v-7.94a4.45,4.45,0,0,0-.86-3.08,3.44,3.44,0,0,0-2.61-.9,4.15,4.15,0,0,0-2.28.62,4.51,4.51,0,0,0-1.58,1.69v9.61l2.47.43v1.91h-7.92Z"/><path class="cls-45" d="M640.06,425.39a9,9,0,0,1,2-6,6.59,6.59,0,0,1,5.34-2.36,6.68,6.68,0,0,1,5.37,2.35,9,9,0,0,1,2,6v.33a9,9,0,0,1-2,6,7.32,7.32,0,0,1-10.72,0,9,9,0,0,1-2-6Zm3,.33a7.8,7.8,0,0,0,1.1,4.3,4,4,0,0,0,6.49,0,7.8,7.8,0,0,0,1.1-4.3v-.33a7.81,7.81,0,0,0-1.1-4.29,3.94,3.94,0,0,0-6.5,0,7.89,7.89,0,0,0-1.09,4.29Z"/><path class="cls-45" d="M664.87,431.82l2.47-.43V414l-2.47-.42v-1.92h17V417h-2.54l-.24-3h-8.8v7.6h8.52V424h-8.52v7.41l2.47.43v1.91h-7.92Z"/><path class="cls-45" d="M695.8,431.3a5.54,5.54,0,0,1-2,2A5.44,5.44,0,0,1,691,434a5.23,5.23,0,0,1-4.16-1.71c-1-1.14-1.5-2.91-1.5-5.33v-7.31l-1.88-.42v-1.92h4.86V427a6.16,6.16,0,0,0,.77,3.61,2.9,2.9,0,0,0,2.41,1,4.87,4.87,0,0,0,2.62-.64,4,4,0,0,0,1.57-1.83v-9.46l-2.19-.42v-1.92h5.17v14l1.88.43v1.91H696Z"/><path class="cls-45" d="M702.47,431.82l2.47-.43v-11.7l-2.47-.42v-1.92h5.13l.22,2.43a5.91,5.91,0,0,1,2-2,5.44,5.44,0,0,1,2.81-.72,5.34,5.34,0,0,1,4.1,1.56,6.79,6.79,0,0,1,1.45,4.79v8l2.47.43v1.91h-7.92v-1.91l2.47-.43v-7.94a4.45,4.45,0,0,0-.86-3.08,3.44,3.44,0,0,0-2.61-.9,4.15,4.15,0,0,0-2.28.62,4.59,4.59,0,0,0-1.58,1.69v9.61l2.47.43v1.91h-7.92Z"/><path class="cls-45" d="M733.75,431.77a5.34,5.34,0,0,1-2,1.7,6,6,0,0,1-2.68.57,5.61,5.61,0,0,1-4.69-2.17,9.08,9.08,0,0,1-1.68-5.71v-.32a11,11,0,0,1,1.68-6.37,5.43,5.43,0,0,1,4.72-2.43,5.77,5.77,0,0,1,2.56.54,5.35,5.35,0,0,1,1.9,1.55v-6.67l-2.46-.43v-1.92h5.45v21.28l2.46.43v1.91h-5Zm-8-5.61a7,7,0,0,0,1,4,3.52,3.52,0,0,0,3.13,1.5,4,4,0,0,0,2.25-.6,4.72,4.72,0,0,0,1.49-1.71v-7.6a4.63,4.63,0,0,0-1.49-1.64,4,4,0,0,0-2.22-.6,3.39,3.39,0,0,0-3.15,1.77,9.14,9.14,0,0,0-1,4.6Z"/><path class="cls-45" d="M752,433.73q-.13-.68-.21-1.2c0-.35-.09-.71-.11-1.06a7,7,0,0,1-2.16,1.84,6.19,6.19,0,0,1-6.65-.52,4.57,4.57,0,0,1-1.33-3.52,4.07,4.07,0,0,1,1.89-3.59,9.16,9.16,0,0,1,5.16-1.26h3.08v-1.91a3,3,0,0,0-.91-2.28,3.59,3.59,0,0,0-2.53-.84,6.19,6.19,0,0,0-2,.29,3.53,3.53,0,0,0-1.39.79l-.32,1.72h-2.3V419a9,9,0,0,1,2.71-1.43,10.66,10.66,0,0,1,3.45-.54,6.85,6.85,0,0,1,4.51,1.43,5,5,0,0,1,1.73,4.07v7.89c0,.21,0,.41,0,.62s0,.4,0,.6l1.22.17v1.91Zm-4.8-2.18a5.26,5.26,0,0,0,2.71-.72,4.4,4.4,0,0,0,1.76-1.71v-2.69h-3.18a4.51,4.51,0,0,0-2.9.85,2.55,2.55,0,0,0-1.07,2.06,2,2,0,0,0,.67,1.64A3,3,0,0,0,747.2,431.55Z"/><path class="cls-45" d="M757.8,431.82l2.47-.43v-11.7l-2.47-.42v-1.92h5.14l.2,2.13a5.33,5.33,0,0,1,2-1.8A6.26,6.26,0,0,1,768,417a5.11,5.11,0,0,1,2.81.76,4.66,4.66,0,0,1,1.77,2.27,6,6,0,0,1,2-2.21,5.42,5.42,0,0,1,3-.82,4.93,4.93,0,0,1,4,1.72,7.85,7.85,0,0,1,1.45,5.17v7.46l2.47.43v1.91h-7.93v-1.91l2.47-.43V423.9a5.49,5.49,0,0,0-.83-3.43,3,3,0,0,0-2.47-1,3.15,3.15,0,0,0-2.51,1.09,4.81,4.81,0,0,0-1.09,2.77v8.06l2.46.43v1.91H767.7v-1.91l2.46-.43V423.9a5.39,5.39,0,0,0-.85-3.37,3,3,0,0,0-2.48-1.06,4.07,4.07,0,0,0-2.24.56,3.57,3.57,0,0,0-1.34,1.57v9.79l2.46.43v1.91H757.8Z"/><path class="cls-45" d="M795,434a6.93,6.93,0,0,1-5.44-2.27,8.57,8.57,0,0,1-2-5.92v-.66a8.39,8.39,0,0,1,2.08-5.82,6.42,6.42,0,0,1,4.93-2.33,6.2,6.2,0,0,1,5,2,7.91,7.91,0,0,1,1.7,5.33v1.86H790.63l0,.08a6.45,6.45,0,0,0,1.2,3.88,3.81,3.81,0,0,0,3.22,1.52,7.46,7.46,0,0,0,2.66-.43,6,6,0,0,0,2-1.19L800.8,432a7.17,7.17,0,0,1-2.32,1.43A9.32,9.32,0,0,1,795,434Zm-.45-14.65a3.24,3.24,0,0,0-2.56,1.26,6,6,0,0,0-1.3,3.18l0,.07h7.55v-.39a4.56,4.56,0,0,0-.94-2.94A3.32,3.32,0,0,0,794.55,419.39Z"/><path class="cls-45" d="M803.75,431.82l2.47-.43v-11.7l-2.47-.42v-1.92h5.13l.22,2.43a5.91,5.91,0,0,1,2-2A5.43,5.43,0,0,1,814,417a5.34,5.34,0,0,1,4.11,1.56,6.84,6.84,0,0,1,1.45,4.79v8l2.47.43v1.91h-7.92v-1.91l2.47-.43v-7.94a4.45,4.45,0,0,0-.86-3.08,3.44,3.44,0,0,0-2.61-.9,4.15,4.15,0,0,0-2.28.62,4.59,4.59,0,0,0-1.58,1.69v9.61l2.47.43v1.91h-7.92Z"/><path class="cls-45" d="M829.35,413.4v4h3.1v2.21h-3.1v9.94a2.21,2.21,0,0,0,.48,1.62,1.71,1.71,0,0,0,1.26.47,5.75,5.75,0,0,0,.88-.07,8.32,8.32,0,0,0,.83-.14l.41,2a4,4,0,0,1-1.24.45,8.3,8.3,0,0,1-1.64.17,3.87,3.87,0,0,1-2.89-1.09,4.77,4.77,0,0,1-1.07-3.45v-9.94h-2.59v-2.21h2.59v-4Z"/><path class="cls-45" d="M846.18,433.73q-.13-.68-.21-1.2c-.05-.35-.09-.71-.11-1.06a7,7,0,0,1-2.16,1.84,6.19,6.19,0,0,1-6.65-.52,4.61,4.61,0,0,1-1.33-3.52,4.08,4.08,0,0,1,1.88-3.59,9.24,9.24,0,0,1,5.17-1.26h3.08v-1.91a3,3,0,0,0-.91-2.28,3.59,3.59,0,0,0-2.53-.84,6.3,6.3,0,0,0-2,.29,3.55,3.55,0,0,0-1.38.79l-.32,1.72h-2.3V419a9,9,0,0,1,2.71-1.43,10.66,10.66,0,0,1,3.45-.54,6.85,6.85,0,0,1,4.51,1.43,5,5,0,0,1,1.73,4.07v7.89c0,.21,0,.41,0,.62s0,.4,0,.6l1.22.17v1.91Zm-4.8-2.18a5.26,5.26,0,0,0,2.71-.72,4.4,4.4,0,0,0,1.76-1.71v-2.69h-3.18a4.51,4.51,0,0,0-2.9.85,2.55,2.55,0,0,0-1.07,2.06,2.06,2.06,0,0,0,.67,1.64A3,3,0,0,0,841.38,431.55Z"/><path class="cls-45" d="M852.16,412v-1.92h5.45v21.28l2.47.43v1.91h-7.92v-1.91l2.47-.43V412.46Z"/><path class="cls-45" d="M865.3,433.73h-2.15V431.2h2.15Zm-.18-7.24h-1.8v-14.8h1.8Z"/></g></svg>