<svg xmlns="http://www.w3.org/2000/svg" xmlns:xlink="http://www.w3.org/1999/xlink" viewBox="0 0 1124.64 1086.98"><defs><style>.cls-1{fill:#e6f4ff;}.cls-12,.cls-2,.cls-41{fill:none;}.cls-3{fill:#8bb5d8;}.cls-4{fill:#329e89;}.cls-5{clip-path:url(#clip-path);}.cls-6{fill:#c5e2ff;}.cls-7{clip-path:url(#clip-path-2);}.cls-8{fill:#fffdfd;}.cls-9{fill:#fff;}.cls-10{fill:#312235;}.cls-11{fill:#ce7061;}.cls-12{stroke:#0ae00a;stroke-linecap:round;stroke-linejoin:round;}.cls-13{fill:#3a1e1c;}.cls-14{clip-path:url(#clip-path-3);}.cls-15{fill:#d88268;}.cls-16{fill:#d98369;}.cls-17{fill:#da8469;}.cls-18{fill:#db856a;}.cls-19{fill:#dc866b;}.cls-20{fill:#dd876b;}.cls-21{fill:#de886c;}.cls-22{fill:#df896d;}.cls-23{fill:#e08a6d;}.cls-24{fill:#e18b6e;}.cls-25{fill:#e28c6f;}.cls-26{fill:#e48d70;}.cls-27{fill:#e58d70;}.cls-28{fill:#e68e71;}.cls-29{fill:#e78f72;}.cls-30{fill:#e89072;}.cls-31{fill:#e99173;}.cls-32{fill:#ea9274;}.cls-33{fill:#eb9374;}.cls-34{fill:#ec9475;}.cls-35{fill:#ed9576;}.cls-36{fill:#ee9676;}.cls-37{fill:#ef9777;}.cls-38{fill:#3d201f;}.cls-39{fill:#b5574d;}.cls-40{fill:#b3514e;}.cls-41{stroke:#ef0a0a;stroke-miterlimit:10;}.cls-42{fill:#fc999c;}.cls-43{fill:#f9aaaa;}.cls-44{fill:#196b5d;}.cls-45{fill:#208975;}.cls-46{fill:#8acec3;}.cls-47{fill:#5b1f3c;}.cls-48{fill:#175b4e;}</style><clipPath id="clip-path"><path class="cls-1" d="M428.87,402.79a192.93,192.93,0,0,0-5-43.86c-32.69-73-109.24-124.14-198.45-124.14C106.43,234.78,10,325.78,10,438a192.94,192.94,0,0,0,5,43.86C47.74,554.84,124.28,606,213.5,606,332.44,606,428.87,515,428.87,402.79Z"/></clipPath><clipPath id="clip-path-2"><path class="cls-2" d="M541.11,351.64c-10.3-18-97.33-31.5-97.33-31.5S301.45,131.38,232.44,137.81s-80.25,56.58-80.25,56.58l-32.63,66.55C54.29,295.86,10.25,362,10.25,437.86c0,112.25,96.43,203.24,215.37,203.24,117.57,0,213.12-88.9,215.32-199.35C473.29,419.44,549.06,365.51,541.11,351.64Z"/></clipPath><clipPath id="clip-path-3"><path class="cls-2" d="M227.93,321.46l-2.36,9.78s-19.92,12.9-37.91,11.87c-5.34-.31,67.76,42.8,71.74,42.95s34.38-50.15,34.38-50.15-20.41-3.74-27.17-4-14.46-18.28-14.46-18.28Z"/></clipPath></defs><title>1-fala1</title><g id="Camada_2" data-name="Camada 2"><g id="Camada_5" data-name="Camada 5"><ellipse class="cls-3" cx="225.37" cy="438.02" rx="215.37" ry="203.24"/><path class="cls-4" d="M225.37,234.78c118.95,0,215.37,91,215.37,203.24S344.32,641.26,225.37,641.26,10,550.27,10,438s96.42-203.24,215.37-203.24m0-10a235.06,235.06,0,0,0-87.54,16.68A225.76,225.76,0,0,0,66.22,287,212.29,212.29,0,0,0,17.8,354.82a203.35,203.35,0,0,0,0,166.4A212.29,212.29,0,0,0,66.22,589a225.76,225.76,0,0,0,71.61,45.57,238,238,0,0,0,175.08,0A225.76,225.76,0,0,0,384.53,589a212.29,212.29,0,0,0,48.42-67.79,203.35,203.35,0,0,0,0-166.4A212.29,212.29,0,0,0,384.53,287a225.76,225.76,0,0,0-71.61-45.57,235.06,235.06,0,0,0-87.54-16.68Z"/><path class="cls-1" d="M428.87,402.79a192.93,192.93,0,0,0-5-43.86c-32.69-73-109.24-124.14-198.45-124.14C106.43,234.78,10,325.78,10,438a192.94,192.94,0,0,0,5,43.86C47.74,554.84,124.28,606,213.5,606,332.44,606,428.87,515,428.87,402.79Z"/><g class="cls-5"><circle class="cls-1" cx="306.79" cy="408.71" r="104.58" transform="translate(-175.58 239.93) rotate(-33.82)"/><circle class="cls-1" cx="306.79" cy="408.71" r="100.64" transform="translate(-175.58 239.93) rotate(-33.82)"/><circle class="cls-1" cx="306.79" cy="408.71" r="98.66" transform="translate(-175.58 239.93) rotate(-33.82)"/><circle class="cls-1" cx="306.79" cy="408.71" r="96.69" transform="translate(-175.58 239.93) rotate(-33.82)"/><circle class="cls-1" cx="306.79" cy="408.71" r="94.72" transform="translate(-175.58 239.93) rotate(-33.82)"/><circle class="cls-1" cx="306.79" cy="408.71" r="92.74" transform="translate(-175.58 239.93) rotate(-33.82)"/><circle class="cls-1" cx="306.79" cy="408.71" r="90.77" transform="translate(-175.58 239.93) rotate(-33.82)"/><circle class="cls-1" cx="306.79" cy="408.71" r="88.8" transform="translate(-175.58 239.93) rotate(-33.82)"/><circle class="cls-1" cx="306.79" cy="408.71" r="86.82" transform="translate(-175.58 239.93) rotate(-33.82)"/><circle class="cls-1" cx="306.79" cy="408.71" r="84.85" transform="translate(-175.58 239.93) rotate(-33.82)"/><circle class="cls-1" cx="306.79" cy="408.71" r="82.88" transform="translate(-175.58 239.93) rotate(-33.82)"/><circle class="cls-1" cx="306.79" cy="408.71" r="80.9" transform="translate(-175.58 239.93) rotate(-33.82)"/><circle class="cls-1" cx="306.79" cy="408.71" r="78.93" transform="matrix(0.83, -0.56, 0.56, 0.83, -175.58, 239.93)"/><circle class="cls-1" cx="306.79" cy="408.71" r="76.96" transform="translate(-175.58 239.93) rotate(-33.82)"/><circle class="cls-1" cx="306.79" cy="408.71" r="74.98" transform="translate(-175.58 239.93) rotate(-33.82)"/><circle class="cls-1" cx="306.79" cy="408.71" r="73.01" transform="translate(-175.58 239.93) rotate(-33.82)"/><circle class="cls-1" cx="306.79" cy="408.71" r="71.04" transform="translate(-175.58 239.93) rotate(-33.82)"/><circle class="cls-1" cx="306.79" cy="408.71" r="69.06" transform="translate(-175.58 239.93) rotate(-33.82)"/><circle class="cls-1" cx="306.79" cy="408.71" r="67.09" transform="translate(-175.58 239.93) rotate(-33.82)"/><circle class="cls-1" cx="306.79" cy="408.71" r="65.12" transform="translate(-175.58 239.93) rotate(-33.82)"/><circle class="cls-1" cx="306.79" cy="408.71" r="63.15" transform="translate(-175.58 239.93) rotate(-33.82)"/><circle class="cls-1" cx="306.79" cy="408.71" r="61.17" transform="translate(-175.58 239.93) rotate(-33.82)"/><circle class="cls-1" cx="306.79" cy="408.71" r="59.2" transform="translate(-175.58 239.93) rotate(-33.82)"/><circle class="cls-1" cx="306.79" cy="408.71" r="57.23" transform="translate(-175.58 239.93) rotate(-33.82)"/><circle class="cls-1" cx="306.79" cy="408.71" r="55.25" transform="translate(-175.58 239.93) rotate(-33.82)"/><circle class="cls-1" cx="306.79" cy="408.71" r="53.28" transform="translate(-175.58 239.93) rotate(-33.82)"/><circle class="cls-1" cx="306.79" cy="408.71" r="51.31" transform="translate(-175.58 239.93) rotate(-33.82)"/><circle class="cls-1" cx="306.79" cy="408.71" r="49.33" transform="translate(-175.58 239.93) rotate(-33.82)"/><circle class="cls-1" cx="306.79" cy="408.71" r="47.36" transform="matrix(0.83, -0.56, 0.56, 0.83, -175.58, 239.93)"/><circle class="cls-1" cx="306.79" cy="408.71" r="45.39" transform="translate(-175.58 239.93) rotate(-33.82)"/><circle class="cls-1" cx="306.79" cy="408.71" r="43.41" transform="translate(-175.58 239.93) rotate(-33.82)"/><circle class="cls-1" cx="306.79" cy="408.71" r="41.44" transform="translate(-175.58 239.93) rotate(-33.82)"/><circle class="cls-1" cx="306.79" cy="408.71" r="39.47" transform="translate(-175.58 239.93) rotate(-33.82)"/><circle class="cls-1" cx="306.79" cy="408.71" r="37.49" transform="translate(-175.58 239.93) rotate(-33.82)"/><circle class="cls-1" cx="306.79" cy="408.71" r="35.52" transform="translate(-175.58 239.93) rotate(-33.82)"/><circle class="cls-1" cx="306.79" cy="408.71" r="33.55" transform="translate(-175.58 239.93) rotate(-33.82)"/><circle class="cls-1" cx="306.79" cy="408.71" r="31.57" transform="translate(-175.58 239.93) rotate(-33.82)"/><circle class="cls-1" cx="306.79" cy="408.71" r="29.6" transform="translate(-175.58 239.93) rotate(-33.82)"/><circle class="cls-1" cx="306.79" cy="408.71" r="27.63" transform="translate(-175.58 239.93) rotate(-33.82)"/><circle class="cls-1" cx="306.79" cy="408.71" r="25.65" transform="translate(-175.58 239.93) rotate(-33.82)"/><circle class="cls-1" cx="306.79" cy="408.71" r="23.68" transform="translate(-175.58 239.93) rotate(-33.82)"/><circle class="cls-1" cx="306.79" cy="408.71" r="21.71" transform="translate(-175.58 239.93) rotate(-33.82)"/><circle class="cls-1" cx="306.79" cy="408.71" r="19.73" transform="translate(-175.58 239.93) rotate(-33.82)"/><circle class="cls-1" cx="306.79" cy="408.71" r="17.76" transform="translate(-175.58 239.93) rotate(-33.82)"/><circle class="cls-1" cx="306.79" cy="408.71" r="15.79" transform="translate(-175.58 239.93) rotate(-33.82)"/><circle class="cls-1" cx="306.79" cy="408.71" r="13.81" transform="translate(-175.58 239.93) rotate(-33.82)"/><circle class="cls-1" cx="306.79" cy="408.71" r="11.84" transform="translate(-175.58 239.93) rotate(-33.82)"/><circle class="cls-1" cx="306.79" cy="408.71" r="9.87" transform="translate(-175.58 239.93) rotate(-33.82)"/><circle class="cls-1" cx="306.79" cy="408.71" r="7.89" transform="translate(-175.58 239.93) rotate(-33.82)"/><circle class="cls-1" cx="306.79" cy="408.71" r="5.92" transform="translate(-175.58 239.93) rotate(-33.82)"/><circle class="cls-1" cx="306.79" cy="408.71" r="3.95" transform="translate(-175.58 239.93) rotate(-33.82)"/><circle class="cls-1" cx="306.79" cy="408.71" r="1.97" transform="translate(-175.58 239.93) rotate(-33.82)"/></g><path class="cls-3" d="M787.8,44.22c-174.89,0-318.64,118.13-335.23,269.27L353,353.14s-6.51,2.41-5.86,11.74a12.7,12.7,0,0,0,7.44,10.88L458.82,407C492,541,626.68,641.26,787.8,641.26c186,0,336.84-133.65,336.84-298.52S973.83,44.22,787.8,44.22Z"/><path class="cls-6" d="M787.75,0C612.85,0,469.11,118.13,452.52,269.27L353,308.92s-6.51,2.41-5.86,11.74a12.7,12.7,0,0,0,7.44,10.88l104.21,31.27c33.19,134,167.86,234.22,329,234.22,186,0,336.84-133.65,336.84-298.52S973.78,0,787.75,0Z"/><g class="cls-7"><path class="cls-8" d="M329.94,510.18s.78-10,4.42-10.57l24.22,31.55-9.37,5.44Z"/><path class="cls-9" d="M153.53,566.53s24.48-21.86,24.48-27-14.35-8.35-14.35-8.35l-20.42,29.5,9.58,7.33Z"/><path class="cls-10" d="M189.95,1031.62s-6.76,14.39-4.29,22.71,17.22,13.73,17.22,13.73,37.07,22.44,68.87,18.45,21.38-11,21.38-11l-55.78-45.95Z"/><path class="cls-10" d="M298,1028.09s-5.17,10.44-3,17.43,15.57,10.15,15.57,10.15l10.35.39,104,5.37s7.43-21.13-51.76-33.44S298,1028.09,298,1028.09Z"/><path class="cls-11" d="M202.2,770.27l2.38,26.31s-29.12,70.66-9.27,203l-6,40.44s24.06,11.26,41.42,15.9a72.41,72.41,0,0,0,32,1.2s-39.64-43.49-45.34-49.63L267.07,767S238.58,709.54,202.2,770.27Z"/><path class="cls-11" d="M284.55,768.47S258.79,839,300,973.16c0,0,5.91,55.23-2.06,54.93s81.07,6.75,86.9,7-44.4-20.8-48.8-31.06-6.29-201.14-.33-218.46a235.61,235.61,0,0,0,8.72-34.22S289.46,757.74,284.55,768.47Z"/><path class="cls-12" d="M299.66,1025.23"/><path class="cls-13" d="M176.44,360.74s-46.9-131.84,7.44-198.9c0,0,58.1-39.81,101.53,7s13,178.54,13,178.54Z"/><g class="cls-14"><polygon class="cls-15" points="293.71 313.64 293.74 313.95 182.31 324.32 182.31 313.64 293.71 313.64"/><polygon class="cls-15" points="293.74 313.95 293.78 314.33 293.78 314.76 182.31 325.13 182.31 324.32 293.74 313.95"/><polygon class="cls-16" points="293.78 315.57 182.31 325.95 182.31 325.13 293.78 314.76 293.78 315.57"/><polygon class="cls-17" points="293.78 316.39 182.31 326.76 182.31 325.95 293.78 315.57 293.78 316.39"/><polygon class="cls-18" points="293.78 317.2 182.31 327.57 182.31 326.76 293.78 316.39 293.78 317.2"/><polygon class="cls-19" points="293.78 318.01 182.31 328.39 182.31 327.57 293.78 317.2 293.78 318.01"/><polygon class="cls-20" points="293.78 318.83 182.31 329.2 182.31 328.39 293.78 318.01 293.78 318.83"/><polygon class="cls-21" points="293.78 319.64 182.31 330.01 182.31 329.2 293.78 318.83 293.78 319.64"/><polygon class="cls-22" points="293.78 320.45 182.31 330.83 182.31 330.01 293.78 319.64 293.78 320.45"/><polygon class="cls-23" points="293.78 321.27 182.31 331.64 182.31 330.83 293.78 320.45 293.78 321.27"/><polygon class="cls-24" points="293.78 322.08 182.31 332.45 182.31 331.64 293.78 321.27 293.78 322.08"/><polygon class="cls-25" points="293.78 322.89 182.31 333.27 182.31 332.45 293.78 322.08 293.78 322.89"/><polygon class="cls-26" points="293.78 323.71 182.31 334.08 182.31 333.27 293.78 322.89 293.78 323.71"/><polygon class="cls-27" points="293.78 324.52 182.31 334.89 182.31 334.08 293.78 323.71 293.78 324.52"/><polygon class="cls-28" points="293.78 325.33 182.31 335.71 182.31 334.89 293.78 324.52 293.78 325.33"/><polygon class="cls-29" points="293.78 326.14 182.31 336.52 182.31 335.71 293.78 325.33 293.78 326.14"/><polygon class="cls-30" points="293.78 326.96 182.31 337.33 182.31 336.52 293.78 326.14 293.78 326.96"/><polygon class="cls-31" points="293.78 327.77 182.31 338.14 182.31 337.33 293.78 326.96 293.78 327.77"/><polygon class="cls-32" points="293.78 328.58 182.31 338.96 182.31 338.14 293.78 327.77 293.78 328.58"/><polygon class="cls-33" points="293.78 329.4 182.31 339.77 182.31 338.96 293.78 328.58 293.78 329.4"/><polygon class="cls-34" points="293.78 330.21 182.31 340.58 182.31 339.77 293.78 329.4 293.78 330.21"/><polygon class="cls-35" points="293.78 331.02 182.31 341.4 182.31 340.58 293.78 330.21 293.78 331.02"/><polygon class="cls-36" points="293.78 331.84 182.31 342.21 182.31 341.4 293.78 331.02 293.78 331.84"/><polygon class="cls-37" points="293.78 332.65 182.31 343.02 182.31 342.21 293.78 331.84 293.78 332.65"/><polygon class="cls-37" points="184.35 386.21 182.31 364.39 182.31 343.02 293.78 332.65 293.78 386.21 184.35 386.21"/></g><path class="cls-37" d="M182.6,222.54s-.89,110.78,64.76,101.68c35.49-4.92,47.51-40.41,40.88-70.91a191.46,191.46,0,0,1-3.79-46.77s-4.08-29.37-38.7-20.3S196.11,192,196.11,192,180.54,195.13,182.6,222.54Z"/><path class="cls-13" d="M177.07,228.73s25.08-2.78,36.43-7.67l.58-15.39s2.55,9.93,4.85,12.41,22.88-.74,32-3.59,4.8-14.7,4.8-14.7l4.34,11.86s28.57,3.45,28.74-.93S285,186,276.62,182s-73.88-4.44-83.08,4.1S177.53,216.52,177.07,228.73Z"/><path class="cls-12" d="M284.29,374"/><ellipse class="cls-38" cx="262.95" cy="244.39" rx="3.92" ry="3.17" transform="translate(-22.42 26.6) rotate(-5.56)"/><ellipse class="cls-38" cx="223.88" cy="248.1" rx="3.92" ry="3.17" transform="translate(-22.97 22.84) rotate(-5.56)"/><path class="cls-39" d="M250.55,278.83a15.21,15.21,0,0,1-5.16-.8l.35-.94c5.16,1.91,13.88,0,15.56-3.34,1.13-2.27-1.43-4.53-3.78-6-6.89-4.38-5.31-8.94-5.24-9.13l.94.34c-.06.16-1.33,4,4.84,7.94,4.88,3.1,4.95,5.69,4.14,7.31C260.72,277.15,255.37,278.83,250.55,278.83Z"/><path class="cls-40" d="M262,289.89c-18.38,4.76-31.33.71-30.6,2,0,0-.78,13.74,15.42,13.63C263.55,305.45,262,289.89,262,289.89Z"/><path class="cls-9" d="M219.38,333.59s22.52,13.66,36.94,11.81c6.84-.88,19-14,19-14l13,129.73-49.8,2.24Z"/><path class="cls-10" d="M172.66,557.55S155,630.13,157,650s4.67,52.17,34,145.94c0,0,78.26,32.39,150.21-.8,0,0,6.28-1.86,10.91-43.82s12.42-142.59-8.72-187.46S172.66,557.55,172.66,557.55Z"/><path class="cls-41" d="M116.48,944.41"/><path class="cls-13" d="M270.81,230.55s-4.74-6.21-9.75-3.1a.9.9,0,0,0-.59,1.12c.25.84,1.92-1.63,9.83,2.73C270.31,231.29,270.81,231.58,270.81,230.55Z"/><path class="cls-13" d="M213.93,234s4.74-6.21,9.75-3.1a.9.9,0,0,1,.59,1.12c-.25.84-1.92-1.63-9.83,2.73C214.43,234.73,213.93,235,213.93,234Z"/><path class="cls-9" d="M259.62,290.44s-.65,3.21-2,4.13-15.59,1.65-24.11,1c-2.88-.24-2.32-2.91-2.18-3.89C231.35,291.63,246.09,293.49,259.62,290.44Z"/><path class="cls-42" d="M251.34,305.09s-1.87-9.49-19.14-7C232.21,298.13,235.94,307.82,251.34,305.09Z"/><ellipse class="cls-43" cx="281.01" cy="254.61" rx="3.62" ry="6.23" transform="translate(3.96 513.52) rotate(-85.24)"/><ellipse class="cls-43" cx="214.79" cy="263.85" rx="6.23" ry="3.62" transform="matrix(0.98, -0.22, 0.22, 0.98, -52.96, 53.94)"/><path class="cls-44" d="M334.61,435.84,357,461.35s-6.12,9.16-12,18.66c-6.27,10.12-15.54,20.35-13.57,20.56,4,.44,26.78,31.77,26.78,31.77l28-38s21.11-33.39,20.75-37-18.37-28.48-24.44-34.22c-3.74-3.54-9.95-8.73-15.17-16.11-29.22-41.33-56.53-70.83-58.4-72.35s-11-6.17-14.22-4.65-19.19,1.4-19.19,1.4l2.63,115.37L219.63,333.58s-12.57,4.33-26.08,2.61-36.24,3.62-36.24,3.62-10.23,27.71-17.55,29.81-11,20.26-11,20.26c-2.17,2.65-10.19,14.08-19.62,27.72h0s-37.48,45.93-43,49.92-2.65,13.44-2.65,13.44l78.85,83.79,27.83-35.51c-7.13-.5-43.13-49.77-43.13-49.77,2.54-4.53,2.3-8.26,1.56-10.72,17.3-18.49,42.63-47.19,42.63-47.19.41,4.06,6.47,16.8,16.93,32.52s9.68,42.14,9.68,42.14c-14.94,21.68-25,61.34-25,61.34s1,7.93,26.28,20.55c11,5.5,46.51,16.31,46.51,16.31l39.47-43.29,50.77,35.64s9.12-9.12,8.21-18.27S325.71,505,325.71,505s-1.9-19,.27-24.66S334.61,435.84,334.61,435.84Z"/><path class="cls-15" d="M153.53,566.53s12.21,10.71,14.68,8.24l12.43-35.19S165.06,550.81,153.53,566.53Z"/><path class="cls-37" d="M170.88,567.7s5.9-5.86,14.86,2.8,9.69,9.26,9.69,9.26,7,2.88,7.52-4.62c0,0,8.8,1.29,6.82-8.4,0,0,6.14-4.42.71-12,0,0,5.51-1.06,2.23-11.46s-24-20.47-24-20.47-9.94-3.49-10.82,8.08c0,0-7.16.37-4.67,10.37,0,0-4.65,4.21-3.65,8.77s-.11,3.66-.11,3.66S162.79,561.13,170.88,567.7Z"/><path class="cls-39" d="M202.56,575.46c-.12-.14-11.87-13.67-24.48-19.79l.44-.9c12.8,6.21,24.69,19.9,24.81,20Z"/><path class="cls-39" d="M209.42,567.1c-.17-.16-17.14-16.1-29.48-22.75l.47-.88c12.46,6.72,29.52,22.74,29.69,22.9Z"/><path class="cls-39" d="M210.09,555c-.15-.18-15.22-17.9-27.55-21.76l.3-1c12.61,3.94,27.39,21.33,28,22.07Z"/><path class="cls-37" d="M347.86,556.51l-16.17,4.75s-7,2.88-7.52-4.62c0,0-8.8,1.29-6.82-8.4,0,0-6.14-4.42-.71-12,0,0-5.51-1.06-2.23-11.46s15.67-13.15,15.67-13.15,9.94-3.49,10.82,8.08c0,0,7.16.37,4.67,10.37,0,0,4.65,4.21,3.65,8.77s.11,3.66.11,3.66S356,549.94,347.86,556.51Z"/><path class="cls-39" d="M324.44,557.06l-.54-.84A277.14,277.14,0,0,1,349.1,542l.44.9A276.08,276.08,0,0,0,324.44,557.06Z"/><path class="cls-39" d="M317.64,548.64l-.59-.81c.16-.12,15.84-11.54,28.26-18.24l.47.88C333.42,537.14,317.8,548.53,317.64,548.64Z"/><path class="cls-39" d="M317.07,536.46l-.86-.51c.09-.15,9.39-15.38,24.63-16.78l.09,1C326.2,521.52,317.16,536.31,317.07,536.46Z"/><path class="cls-45" d="M219.38,333.59S195.23,345.24,182.15,365l44.37,12.67s-15.11,14.85-14.79,18.07,66.17,51,66.17,51,33.54-61.51,29.81-64.56-24.29-6.81-24.29-6.81,19.48-27.61,22.87-27.94-28-16.36-31-16.06,2.52,110.28,2.52,110.28l-.15,2.38Z"/><path class="cls-10" d="M277.91,446.79s9.27,81.81,7,104.33"/><circle class="cls-46" cx="291.65" cy="471.48" r="5.33"/><circle class="cls-46" cx="293.78" cy="509.48" r="5.33"/><path class="cls-47" d="M173.81,404.74l-1-.23a76.63,76.63,0,0,0-11.56-60.85l.82-.57A77.64,77.64,0,0,1,173.81,404.74Z"/><path class="cls-47" d="M329.09,406.93l-1-.09c1.1-12.29-3.37-24.57-7.31-35.41-4.66-12.82-9.95-27.35-20.07-37.88l.72-.69c10.27,10.68,15.59,25.32,20.29,38.23C325.7,382,330.21,394.42,329.09,406.93Z"/><path class="cls-47" d="M146.32,377a27.53,27.53,0,0,0-3.49-6.94l.82-.57a28.53,28.53,0,0,1,3.62,7.19Z"/><path class="cls-47" d="M136,392.63a34.92,34.92,0,0,0-6.08-.83l0-1a35.77,35.77,0,0,1,6.25.86Z"/><path class="cls-47" d="M334.44,441l-1-.12a74,74,0,0,0,.43-11.92l1,0A75,75,0,0,1,334.44,441Z"/><path class="cls-47" d="M355.5,460.4l-.14-1a75.56,75.56,0,0,1,12.07-.73l0,1A73.81,73.81,0,0,0,355.5,460.4Z"/><path class="cls-47" d="M365,468a60.31,60.31,0,0,0-8.69-6.35l.52-.86a61.39,61.39,0,0,1,8.84,6.45Z"/><path class="cls-47" d="M200.41,496.57l-.53-.85a60.08,60.08,0,0,1,11.6-5.55l.33.94A59,59,0,0,0,200.41,496.57Z"/><path class="cls-47" d="M127.77,469.24c-2.32,0-10-.2-12.54-2.75l.71-.71c2.65,2.65,12.37,2.44,12.47,2.45l0,1Z"/><path class="cls-47" d="M118.83,482.89v-1c3.43,0,7.7-2.83,7.74-2.86l.56.83C126.94,480,122.56,482.89,118.83,482.89Z"/></g><path class="cls-48" d="M573.9,199.67a11.75,11.75,0,0,1-2.76,8,9,9,0,0,1-7.15,3.18,8.62,8.62,0,0,1-6.93-3.18,12,12,0,0,1-2.66-8v-.32a12.06,12.06,0,0,1,2.66-8,8.6,8.6,0,0,1,6.93-3.19,9,9,0,0,1,7.15,3.19,11.78,11.78,0,0,1,2.76,8Zm-3-.35a10.11,10.11,0,0,0-1.84-6.27,6,6,0,0,0-5.09-2.43,5.65,5.65,0,0,0-4.87,2.44,10.5,10.5,0,0,0-1.75,6.27v.35a10.55,10.55,0,0,0,1.75,6.3,5.66,5.66,0,0,0,4.87,2.43A6,6,0,0,0,569.1,206a10.25,10.25,0,0,0,1.82-6.31Z"/><path class="cls-48" d="M576,188.83v-1.92h5.45v21.28l2.47.42v1.91H576v-1.91l2.47-.42V189.26Z"/><path class="cls-48" d="M596.86,210.52c-.09-.44-.16-.84-.21-1.2s-.09-.71-.11-1.06a7.2,7.2,0,0,1-2.16,1.84,6.18,6.18,0,0,1-6.65-.51,4.59,4.59,0,0,1-1.33-3.52,4.08,4.08,0,0,1,1.88-3.59,9.18,9.18,0,0,1,5.17-1.26h3.07v-1.91a3,3,0,0,0-.91-2.28,3.58,3.58,0,0,0-2.53-.84,6.21,6.21,0,0,0-2,.29,3.71,3.71,0,0,0-1.38.79l-.32,1.73h-2.3v-3.18a8.85,8.85,0,0,1,2.71-1.43,10.73,10.73,0,0,1,3.45-.54,6.86,6.86,0,0,1,4.51,1.42,5,5,0,0,1,1.73,4.07v7.89c0,.21,0,.42,0,.62s0,.4,0,.61l1.21.17v1.91Zm-4.8-2.18a5.31,5.31,0,0,0,2.71-.71,4.43,4.43,0,0,0,1.76-1.71v-2.69h-3.18a4.53,4.53,0,0,0-2.9.85,2.55,2.55,0,0,0-1.07,2.06,2,2,0,0,0,.67,1.64A3,3,0,0,0,592.07,208.35Zm2-20.5h3.48l0,.09-4.07,3.94h-2.22Z"/><path class="cls-48" d="M607.05,203.29h-3v-14.8h3Zm0,7.24h-3v-3.09h3Z"/><path class="cls-48" d="M618,210.52v-1.91l2.47-.42V190.83l-2.47-.42v-1.92h16.92v5.3h-2.56l-.24-3h-8.67V198h8.43v2.35h-8.43v7.89h8.86l.24-3h2.54v5.28Z"/><path class="cls-48" d="M649.49,208.1a5.52,5.52,0,0,1-2,2,5.46,5.46,0,0,1-2.81.71,5.25,5.25,0,0,1-4.16-1.71q-1.5-1.71-1.5-5.33v-7.31l-1.88-.42v-1.92H642v9.69a6.11,6.11,0,0,0,.77,3.6,2.87,2.87,0,0,0,2.41,1,4.91,4.91,0,0,0,2.63-.64,4,4,0,0,0,1.57-1.82v-9.46l-2.2-.42v-1.92h5.18v14l1.88.42v1.91h-4.56Z"/><path class="cls-48" d="M676.85,199.29H674.6l-.48-2a4.05,4.05,0,0,0-1.37-.83,5.31,5.31,0,0,0-1.87-.31,3.44,3.44,0,0,0-2.36.7,2.19,2.19,0,0,0-.77,1.68,1.87,1.87,0,0,0,.68,1.53,7,7,0,0,0,2.77,1,11.93,11.93,0,0,1,4.62,1.81,3.64,3.64,0,0,1,1.51,3.06,4.23,4.23,0,0,1-1.76,3.53,7.38,7.38,0,0,1-4.61,1.35,12,12,0,0,1-3.35-.43,8.93,8.93,0,0,1-2.65-1.25l0-3.74h2.24l.56,2.2a3.13,3.13,0,0,0,1.4.68,7.78,7.78,0,0,0,1.81.21,4.22,4.22,0,0,0,2.49-.64,2,2,0,0,0,.9-1.69,2,2,0,0,0-.75-1.62,7.05,7.05,0,0,0-2.84-1.1,11.92,11.92,0,0,1-4.49-1.77,3.57,3.57,0,0,1-1.51-3,4.27,4.27,0,0,1,1.7-3.41,6.72,6.72,0,0,1,4.43-1.41,10.74,10.74,0,0,1,3.35.48,7,7,0,0,1,2.47,1.35Z"/><path class="cls-48" d="M680.13,202.19a9,9,0,0,1,2-6,7.27,7.27,0,0,1,10.71,0,9,9,0,0,1,2,6v.33a9,9,0,0,1-2,6,7.31,7.31,0,0,1-10.72,0,9,9,0,0,1-2-6Zm3,.33a7.78,7.78,0,0,0,1.1,4.3,3.95,3.95,0,0,0,6.49,0,7.73,7.73,0,0,0,1.11-4.3v-.33a7.75,7.75,0,0,0-1.11-4.28,3.94,3.94,0,0,0-6.49,0,7.83,7.83,0,0,0-1.09,4.28Z"/><path class="cls-48" d="M709.22,208.1a5.52,5.52,0,0,1-2,2,5.46,5.46,0,0,1-2.81.71,5.25,5.25,0,0,1-4.16-1.71q-1.5-1.71-1.5-5.33v-7.31l-1.88-.42v-1.92h4.86v9.69a6.11,6.11,0,0,0,.77,3.6,2.87,2.87,0,0,0,2.41,1,4.91,4.91,0,0,0,2.63-.64,4,4,0,0,0,1.57-1.82v-9.46l-2.2-.42v-1.92h5.18v14l1.88.42v1.91h-4.56Z"/><path class="cls-48" d="M734.73,210.52q-.13-.67-.21-1.2t-.11-1.06a7.22,7.22,0,0,1-2.16,1.84,6.18,6.18,0,0,1-6.65-.51,4.59,4.59,0,0,1-1.33-3.52,4.08,4.08,0,0,1,1.88-3.59,9.18,9.18,0,0,1,5.17-1.26h3.07v-1.91a3,3,0,0,0-.91-2.28,3.58,3.58,0,0,0-2.53-.84,6.21,6.21,0,0,0-2,.29,3.71,3.71,0,0,0-1.38.79l-.32,1.73H725v-3.18a8.86,8.86,0,0,1,2.71-1.43,10.73,10.73,0,0,1,3.45-.54,6.86,6.86,0,0,1,4.51,1.42,5,5,0,0,1,1.73,4.07v7.89c0,.21,0,.42,0,.62s0,.4,0,.61l1.21.17v1.91Zm-4.8-2.18a5.31,5.31,0,0,0,2.71-.71,4.43,4.43,0,0,0,1.76-1.71v-2.69h-3.18a4.54,4.54,0,0,0-2.9.85,2.55,2.55,0,0,0-1.07,2.06,2,2,0,0,0,.67,1.64A3,3,0,0,0,729.93,208.35Z"/><path class="cls-48" d="M770.09,192.88H770l-7.13,17.66h-2l-7.13-17.65h-.08l.3,8.92v6.39l2.47.42v1.91h-7.92v-1.91l2.47-.42V190.83l-2.47-.42v-1.92h6.28l7,17.91h.09l7-17.91h6.3v1.92l-2.47.42v17.36l2.47.42v1.91h-7.92v-1.91l2.47-.42v-6.39Z"/><path class="cls-48" d="M788.34,210.52q-.13-.67-.21-1.2t-.11-1.06a7.22,7.22,0,0,1-2.16,1.84,6.18,6.18,0,0,1-6.65-.51,4.59,4.59,0,0,1-1.33-3.52,4.08,4.08,0,0,1,1.88-3.59,9.18,9.18,0,0,1,5.17-1.26H788v-1.91a3,3,0,0,0-.91-2.28,3.58,3.58,0,0,0-2.53-.84,6.21,6.21,0,0,0-2,.29,3.71,3.71,0,0,0-1.38.79L780.9,199h-2.3v-3.18a8.86,8.86,0,0,1,2.71-1.43,10.73,10.73,0,0,1,3.45-.54,6.86,6.86,0,0,1,4.51,1.42,5,5,0,0,1,1.73,4.07v7.89c0,.21,0,.42,0,.62s0,.4,0,.61l1.21.17v1.91Zm-4.8-2.18a5.31,5.31,0,0,0,2.71-.71,4.43,4.43,0,0,0,1.76-1.71v-2.69h-3.18a4.54,4.54,0,0,0-2.9.85,2.55,2.55,0,0,0-1.07,2.06,2,2,0,0,0,.67,1.64A3,3,0,0,0,783.55,208.35Z"/><path class="cls-48" d="M794.73,196.07v-1.92h5.13l.29,2.38a5.72,5.72,0,0,1,1.72-2,4,4,0,0,1,2.34-.71,5.14,5.14,0,0,1,.72.05,4,4,0,0,1,.57.11l-.39,2.77-1.7-.09a3.42,3.42,0,0,0-2,.55,3.59,3.59,0,0,0-1.24,1.55v9.4l2.47.42v1.91h-7.92v-1.91l2.47-.42v-11.7Z"/><path class="cls-48" d="M807.55,208.62l2.47-.42v-11.7l-2.47-.42v-1.92H813v14l2.47.42v1.91h-7.92ZM813,190h-3v-3h3Z"/><path class="cls-48" d="M828.43,210.52q-.13-.67-.21-1.2t-.11-1.06a7.22,7.22,0,0,1-2.16,1.84,6.18,6.18,0,0,1-6.65-.51,4.59,4.59,0,0,1-1.33-3.52,4.08,4.08,0,0,1,1.88-3.59,9.18,9.18,0,0,1,5.17-1.26h3.07v-1.91a3,3,0,0,0-.91-2.28,3.58,3.58,0,0,0-2.53-.84,6.21,6.21,0,0,0-2,.29,3.71,3.71,0,0,0-1.38.79L821,199h-2.3v-3.18a8.86,8.86,0,0,1,2.71-1.43,10.73,10.73,0,0,1,3.45-.54,6.86,6.86,0,0,1,4.51,1.42,5,5,0,0,1,1.73,4.07v7.89c0,.21,0,.42,0,.62s0,.4,0,.61l1.21.17v1.91Zm-4.8-2.18a5.31,5.31,0,0,0,2.71-.71,4.43,4.43,0,0,0,1.76-1.71v-2.69h-3.18a4.54,4.54,0,0,0-2.9.85,2.55,2.55,0,0,0-1.07,2.06,2,2,0,0,0,.67,1.64A3,3,0,0,0,823.63,208.35Z"/><path class="cls-48" d="M834.37,208.62l2.47-.42v-11.7l-2.47-.42v-1.92h5.13l.21,2.44a6,6,0,0,1,2.05-2,5.48,5.48,0,0,1,2.81-.72,5.35,5.35,0,0,1,4.1,1.55,6.81,6.81,0,0,1,1.45,4.79v8l2.47.42v1.91h-7.92v-1.91l2.47-.42v-7.95a4.43,4.43,0,0,0-.86-3.07,3.43,3.43,0,0,0-2.61-.91,4.2,4.2,0,0,0-2.28.62,4.55,4.55,0,0,0-1.58,1.7v9.61l2.47.42v1.91h-7.92Z"/><path class="cls-48" d="M865.45,210.52q-.13-.67-.21-1.2t-.11-1.06a7.22,7.22,0,0,1-2.16,1.84,6.18,6.18,0,0,1-6.65-.51,4.59,4.59,0,0,1-1.33-3.52,4.08,4.08,0,0,1,1.88-3.59,9.18,9.18,0,0,1,5.17-1.26h3.07v-1.91a3,3,0,0,0-.91-2.28,3.58,3.58,0,0,0-2.53-.84,6.21,6.21,0,0,0-2,.29,3.71,3.71,0,0,0-1.38.79L858,199h-2.3v-3.18a8.86,8.86,0,0,1,2.71-1.43,10.73,10.73,0,0,1,3.45-.54,6.86,6.86,0,0,1,4.51,1.42,5,5,0,0,1,1.73,4.07v7.89c0,.21,0,.42,0,.62s0,.4,0,.61l1.21.17v1.91Zm-4.8-2.18a5.31,5.31,0,0,0,2.71-.71,4.43,4.43,0,0,0,1.76-1.71v-2.69h-3.18a4.54,4.54,0,0,0-2.9.85,2.55,2.55,0,0,0-1.07,2.06,2,2,0,0,0,.67,1.64A3,3,0,0,0,860.65,208.35Z"/><path class="cls-48" d="M875.67,210.52h-3v-3.06h3Z"/><path class="cls-48" d="M559.7,264.23l-2.06.17,6.08,16.8.44,1.47h.09l.44-1.47,6.07-16.8-2.06-.17v-1.35h5.72v1.35l-1.71.14-7.66,20.56h-1.71l-7.67-20.56-1.7-.14v-1.35h5.72Z"/><path class="cls-48" d="M576,276.49a8.8,8.8,0,0,1,2-5.93,7.13,7.13,0,0,1,10.52,0,8.8,8.8,0,0,1,2,5.93v.5a8.81,8.81,0,0,1-2,5.94,7.15,7.15,0,0,1-10.53,0,8.79,8.79,0,0,1-2-5.94Zm1.82.5a7.8,7.8,0,0,0,1.44,4.78,4.71,4.71,0,0,0,4,1.94,4.66,4.66,0,0,0,4-1.94,7.8,7.8,0,0,0,1.44-4.78v-.5a7.77,7.77,0,0,0-1.45-4.75,5,5,0,0,0-8,0,7.79,7.79,0,0,0-1.44,4.75Z"/><path class="cls-48" d="M605.46,282.23a5.59,5.59,0,0,1-2.11,2.23,6.13,6.13,0,0,1-3.16.79,5,5,0,0,1-4-1.76q-1.46-1.76-1.46-5.45v-7.95l-2-.2v-1.35h3.83v9.52a7,7,0,0,0,1,4.3,3.47,3.47,0,0,0,2.9,1.3,5.36,5.36,0,0,0,3.28-.91,4.82,4.82,0,0,0,1.72-2.51V270.09l-2.33-.2v-1.35h4.15V283.4l2.2.2v1.33h-3.79Z"/><path class="cls-48" d="M630.92,284.93q-.18-.83-.26-1.44a10.21,10.21,0,0,1-.07-1.23,7.25,7.25,0,0,1-2.42,2.13,6.86,6.86,0,0,1-3.41.85A5.22,5.22,0,0,1,621,284a4.4,4.4,0,0,1-1.32-3.36,4.15,4.15,0,0,1,2-3.6,9.27,9.27,0,0,1,5.3-1.33h3.62v-2.16a3.49,3.49,0,0,0-1.13-2.75,4.6,4.6,0,0,0-3.16-1,7.92,7.92,0,0,0-2.49.37,5.62,5.62,0,0,0-1.88,1l-.15,2.2h-1.5l0-3.15a9.41,9.41,0,0,1,2.72-1.42,10.27,10.27,0,0,1,3.37-.54,6.58,6.58,0,0,1,4.36,1.38,4.86,4.86,0,0,1,1.65,4v8.05q0,.5,0,1a7.11,7.11,0,0,0,.1.9l1.63.11v1.33Zm-6-1.29a6.55,6.55,0,0,0,3.46-.91,5.37,5.37,0,0,0,2.17-2.35V277.1h-3.65a6.81,6.81,0,0,0-3.94,1,3,3,0,0,0-1.48,2.58,2.71,2.71,0,0,0,.92,2.13A3.67,3.67,0,0,0,625,283.64Z"/><path class="cls-48" d="M643.71,283.71a5.17,5.17,0,0,0,3.18-1,3.37,3.37,0,0,0,1.38-2.86h1.6l0,.09a4.5,4.5,0,0,1-1.81,3.8,6.75,6.75,0,0,1-4.38,1.53,6.23,6.23,0,0,1-5.16-2.29,9.16,9.16,0,0,1-1.83-5.9v-.64a9.14,9.14,0,0,1,1.83-5.87,6.2,6.2,0,0,1,5.15-2.3,8.31,8.31,0,0,1,3.47.71,6.8,6.8,0,0,1,2.56,1.94l.08,3.57h-1.54l-.29-2.91a5.18,5.18,0,0,0-1.81-1.29,6.06,6.06,0,0,0-2.46-.48,4.36,4.36,0,0,0-3.9,1.88,8.33,8.33,0,0,0-1.26,4.75v.64a8.43,8.43,0,0,0,1.26,4.78A4.38,4.38,0,0,0,643.71,283.71Z"/><path class="cls-48" d="M653.28,276.49a8.8,8.8,0,0,1,2-5.93,7.13,7.13,0,0,1,10.52,0,8.8,8.8,0,0,1,2,5.93v.5a8.81,8.81,0,0,1-2,5.94,7.15,7.15,0,0,1-10.53,0,8.79,8.79,0,0,1-2-5.94Zm1.82.5a7.8,7.8,0,0,0,1.44,4.78,4.71,4.71,0,0,0,4,1.94,4.66,4.66,0,0,0,4-1.94,7.8,7.8,0,0,0,1.44-4.78v-.5a7.77,7.77,0,0,0-1.45-4.75,5,5,0,0,0-8,0,7.79,7.79,0,0,0-1.44,4.75Z"/><path class="cls-48" d="M670.32,269.89v-1.35h4.07l.17,2.71a5.74,5.74,0,0,1,2.11-2.23,6,6,0,0,1,3.13-.79,5.18,5.18,0,0,1,3.13.92,5.05,5.05,0,0,1,1.8,2.79,6.38,6.38,0,0,1,2.11-2.72,5.54,5.54,0,0,1,3.34-1,5,5,0,0,1,4.05,1.74q1.43,1.74,1.43,5.39v8l2.47.21v1.33h-6.77v-1.33l2.47-.21v-8q0-3-1.07-4.28a3.7,3.7,0,0,0-3-1.25,4,4,0,0,0-3.26,1.35,6.48,6.48,0,0,0-1.42,3.44c0,.08,0,.16,0,.23s0,.16,0,.27v8.29l2.47.2v1.33h-6.75v-1.33l2.47-.2v-8.05a6.59,6.59,0,0,0-1.08-4.25,3.69,3.69,0,0,0-3-1.28,4.52,4.52,0,0,0-3.06,1,5.19,5.19,0,0,0-1.58,2.63v10l2.47.2v1.33h-6.75v-1.33l2.47-.2v-13.3Z"/><path class="cls-48" d="M699.88,269.89v-1.35h4l.23,2.54a5.94,5.94,0,0,1,2.13-2.1,6,6,0,0,1,3-.74,5.35,5.35,0,0,1,4.62,2.35,10.66,10.66,0,0,1,1.66,6.27v.32a9.45,9.45,0,0,1-1.66,5.87,5.45,5.45,0,0,1-4.59,2.19,6.57,6.57,0,0,1-3-.66,5.53,5.53,0,0,1-2.11-1.87v7l2.47.2v1.35h-6.73v-1.35l2.47-.2V270.09Zm13.83,7a9.41,9.41,0,0,0-1.24-5.09,4,4,0,0,0-3.63-2,4.77,4.77,0,0,0-3,.87,5.34,5.34,0,0,0-1.72,2.26v7.87a5,5,0,0,0,1.79,2.12,5.23,5.23,0,0,0,2.93.77,4.11,4.11,0,0,0,3.61-1.79,8.19,8.19,0,0,0,1.23-4.74Z"/><path class="cls-48" d="M729.79,284.93q-.18-.83-.26-1.44a9.82,9.82,0,0,1-.08-1.23A7.23,7.23,0,0,1,727,284.4a6.85,6.85,0,0,1-3.4.85,5.22,5.22,0,0,1-3.72-1.24,4.4,4.4,0,0,1-1.32-3.36,4.15,4.15,0,0,1,2-3.6,9.27,9.27,0,0,1,5.3-1.33h3.62v-2.16a3.49,3.49,0,0,0-1.13-2.75,4.6,4.6,0,0,0-3.16-1,7.94,7.94,0,0,0-2.49.37,5.64,5.64,0,0,0-1.88,1l-.15,2.2h-1.5v-3.15a9.43,9.43,0,0,1,2.72-1.42,10.27,10.27,0,0,1,3.37-.54,6.58,6.58,0,0,1,4.36,1.38,4.86,4.86,0,0,1,1.65,4v8.05c0,.33,0,.65,0,1a7.48,7.48,0,0,0,.1.9l1.63.11v1.33Zm-6-1.29a6.55,6.55,0,0,0,3.47-.91,5.35,5.35,0,0,0,2.16-2.35V277.1h-3.65a6.8,6.8,0,0,0-3.94,1,3,3,0,0,0-1.48,2.58,2.7,2.7,0,0,0,.92,2.13A3.67,3.67,0,0,0,723.83,283.64Z"/><path class="cls-48" d="M735.26,283.59l2.47-.2v-13.3l-2.47-.2v-1.35h4.07l.17,2.86a5.84,5.84,0,0,1,2.13-2.34,5.94,5.94,0,0,1,3.17-.83,5,5,0,0,1,4.06,1.63q1.39,1.63,1.39,5.08v8.45l2.47.2v1.33H746v-1.33l2.47-.2V275a5.93,5.93,0,0,0-1.05-4,3.82,3.82,0,0,0-3-1.17,4.69,4.69,0,0,0-3.11,1,5.6,5.6,0,0,0-1.73,2.67v9.9l2.47.2v1.33h-6.75Z"/><path class="cls-48" d="M755,262.66v-1.35h4.27v10a5.85,5.85,0,0,1,5.36-3.1,5,5,0,0,1,4,1.6,7.5,7.5,0,0,1,1.38,5v8.57l2.47.2v1.33h-6.75v-1.33l2.47-.2v-8.6a5.62,5.62,0,0,0-1.05-3.82,3.72,3.72,0,0,0-2.9-1.16,4.9,4.9,0,0,0-3.11,1,5.67,5.67,0,0,0-1.84,2.6v10l2.47.2v1.33H755v-1.33l2.47-.2V262.86Z"/><path class="cls-48" d="M786.51,284.93q-.18-.83-.26-1.44a10.21,10.21,0,0,1-.07-1.23,7.25,7.25,0,0,1-2.42,2.13,6.86,6.86,0,0,1-3.41.85,5.22,5.22,0,0,1-3.72-1.24,4.4,4.4,0,0,1-1.32-3.36,4.15,4.15,0,0,1,2-3.6,9.27,9.27,0,0,1,5.3-1.33h3.62v-2.16a3.49,3.49,0,0,0-1.13-2.75,4.6,4.6,0,0,0-3.16-1,7.92,7.92,0,0,0-2.49.37,5.62,5.62,0,0,0-1.88,1l-.15,2.2h-1.5l0-3.15a9.41,9.41,0,0,1,2.72-1.42,10.27,10.27,0,0,1,3.37-.54,6.58,6.58,0,0,1,4.36,1.38,4.86,4.86,0,0,1,1.65,4v8.05q0,.5,0,1a7.11,7.11,0,0,0,.1.9l1.63.11v1.33Zm-6-1.29a6.55,6.55,0,0,0,3.46-.91,5.37,5.37,0,0,0,2.17-2.35V277.1h-3.65a6.81,6.81,0,0,0-3.94,1,3,3,0,0,0-1.48,2.58,2.71,2.71,0,0,0,.92,2.13A3.67,3.67,0,0,0,780.55,283.64Zm3.07-21.34h2.22l0,.09-3.77,3.94H780.5Z"/><path class="cls-48" d="M800.41,276.3h-7.24v-1.53h7.24Z"/><path class="cls-48" d="M804,262.66v-1.35h4.27V283.4l2.47.2v1.33H804v-1.33l2.47-.2V262.86Z"/><path class="cls-48" d="M838,277.16a10.84,10.84,0,0,1-1.77,5.68,5.35,5.35,0,0,1-4.74,2.41,2.75,2.75,0,0,1-2-.77,3.79,3.79,0,0,1-1-2.13,5.76,5.76,0,0,1-2,2.18,5.09,5.09,0,0,1-2.73.73,3.28,3.28,0,0,1-3-1.81,8.09,8.09,0,0,1-.74-4.81,11.66,11.66,0,0,1,2.13-6.17,5.31,5.31,0,0,1,4.33-2.32,5.4,5.4,0,0,1,2.28.41,10.33,10.33,0,0,1,1.92,1.23l0,0h0l-.76,8.69a4,4,0,0,0,.45,2.72,1.82,1.82,0,0,0,1.44.73,3.88,3.88,0,0,0,3.4-1.88,9.61,9.61,0,0,0,1.4-4.9q.29-5.89-2.25-9.15t-8-3.26a10.33,10.33,0,0,0-8.07,3.57,14.6,14.6,0,0,0-3.43,9.38q-.29,5.74,2.47,9.27a9.4,9.4,0,0,0,7.86,3.53,11.34,11.34,0,0,0,2.7-.33,9.07,9.07,0,0,0,2.3-.86l.47,1.13a8.08,8.08,0,0,1-2.53,1,13.21,13.21,0,0,1-3,.36q-5.75,0-8.9-3.78t-2.86-10.32a15.87,15.87,0,0,1,3.82-10.34,11.86,11.86,0,0,1,9.22-3.92q5.92,0,8.89,3.66T838,277.16Zm-16.33,1.47a7.3,7.3,0,0,0,.39,3.74,2.15,2.15,0,0,0,2.09,1.39,4.42,4.42,0,0,0,2.36-.65,5.29,5.29,0,0,0,1.86-2.38v-.13a.5.5,0,0,1,0-.11l.71-8.22a4.13,4.13,0,0,0-1.08-.55,4.1,4.1,0,0,0-4.67,1.6A10.73,10.73,0,0,0,821.7,278.63Z"/><path class="cls-48" d="M846.65,283.59l2.47-.2v-13.3l-2.47-.2v-1.35h4.07l.17,2.86a5.84,5.84,0,0,1,2.13-2.34,5.94,5.94,0,0,1,3.17-.83,5,5,0,0,1,4.06,1.63q1.39,1.63,1.39,5.08v8.45l2.47.2v1.33h-6.75v-1.33l2.47-.2V275a5.93,5.93,0,0,0-1.05-4,3.82,3.82,0,0,0-3-1.17,4.69,4.69,0,0,0-3.11,1,5.6,5.6,0,0,0-1.73,2.67v9.9l2.47.2v1.33h-6.75Z"/><path class="cls-48" d="M878.26,284.93q-.18-.83-.26-1.44a9.82,9.82,0,0,1-.08-1.23,7.23,7.23,0,0,1-2.42,2.13,6.85,6.85,0,0,1-3.4.85,5.22,5.22,0,0,1-3.72-1.24,4.4,4.4,0,0,1-1.32-3.36,4.15,4.15,0,0,1,2-3.6,9.27,9.27,0,0,1,5.3-1.33h3.62v-2.16a3.49,3.49,0,0,0-1.13-2.75,4.6,4.6,0,0,0-3.16-1,7.94,7.94,0,0,0-2.49.37,5.64,5.64,0,0,0-1.88,1l-.15,2.2h-1.5v-3.15a9.43,9.43,0,0,1,2.72-1.42,10.27,10.27,0,0,1,3.37-.54,6.58,6.58,0,0,1,4.36,1.38,4.86,4.86,0,0,1,1.65,4v8.05c0,.33,0,.65,0,1a7.48,7.48,0,0,0,.1.9l1.63.11v1.33Zm-6-1.29a6.55,6.55,0,0,0,3.47-.91,5.35,5.35,0,0,0,2.16-2.35V277.1h-3.65a6.8,6.8,0,0,0-3.94,1,3,3,0,0,0-1.48,2.58,2.7,2.7,0,0,0,.92,2.13A3.67,3.67,0,0,0,872.29,283.64Z"/><path class="cls-48" d="M898.81,285.24a6.57,6.57,0,0,1-5.12-2.26,8.3,8.3,0,0,1-2-5.76v-.83a8.55,8.55,0,0,1,2-5.83,6.26,6.26,0,0,1,4.88-2.32,6.07,6.07,0,0,1,4.74,1.91,7.29,7.29,0,0,1,1.73,5.09v1.54H893.47v.44a7.23,7.23,0,0,0,1.47,4.63,4.69,4.69,0,0,0,3.87,1.87,7.89,7.89,0,0,0,2.88-.47,5.7,5.7,0,0,0,2-1.35l.77,1.24a6.55,6.55,0,0,1-2.33,1.54A9,9,0,0,1,898.81,285.24Zm-.24-15.46a4.34,4.34,0,0,0-3.37,1.54,6.59,6.59,0,0,0-1.6,3.85l0,.08h9.6v-.46a5.24,5.24,0,0,0-1.26-3.57A4.29,4.29,0,0,0,898.57,269.79Z"/><path class="cls-48" d="M907.91,283.59l1.83-.17,5.18-6.84L910,270.06l-1.85-.17v-1.35h5.55v1.35L912,270l3.91,5.25,3.92-5.27-1.68-.08v-1.35h5.55v1.35l-1.83.17-4.93,6.52,5.16,6.84,1.85.17v1.33H918.4v-1.33l1.68-.08-4.16-5.57-4.15,5.57,1.68.08v1.33h-5.54Z"/><path class="cls-48" d="M925.83,269.89v-1.35h4l.23,2.54a5.73,5.73,0,0,1,5.16-2.85,5.34,5.34,0,0,1,4.62,2.35,10.66,10.66,0,0,1,1.66,6.27v.32a9.45,9.45,0,0,1-1.66,5.87,5.45,5.45,0,0,1-4.59,2.19,6.56,6.56,0,0,1-3-.66,5.53,5.53,0,0,1-2.11-1.87v7l2.47.2v1.35h-6.74v-1.35l2.47-.2V270.09Zm13.83,7a9.39,9.39,0,0,0-1.24-5.09,4,4,0,0,0-3.63-2,4.78,4.78,0,0,0-3,.87A5.37,5.37,0,0,0,930.1,273v7.87a5,5,0,0,0,1.79,2.12,5.22,5.22,0,0,0,2.93.77,4.11,4.11,0,0,0,3.61-1.79,8.19,8.19,0,0,0,1.23-4.74Z"/><path class="cls-48" d="M943.92,262.66v-1.35h4.27V283.4l2.47.2v1.33h-6.74v-1.33l2.47-.2V262.86Z"/><path class="cls-48" d="M953.21,276.49a8.8,8.8,0,0,1,2-5.93,7.13,7.13,0,0,1,10.52,0,8.8,8.8,0,0,1,2,5.93v.5a8.82,8.82,0,0,1-2,5.94,7.15,7.15,0,0,1-10.53,0,8.79,8.79,0,0,1-2-5.94Zm1.82.5a7.8,7.8,0,0,0,1.44,4.78,5.07,5.07,0,0,0,8,0,7.8,7.8,0,0,0,1.44-4.78v-.5a7.77,7.77,0,0,0-1.45-4.75,5,5,0,0,0-8,0,7.79,7.79,0,0,0-1.44,4.75Z"/><path class="cls-48" d="M974.57,268.55l.23,2.72v.2a5.81,5.81,0,0,1,1.9-2.37,4.79,4.79,0,0,1,2.85-.86,4.2,4.2,0,0,1,.67.05,5,5,0,0,1,.54.11l-.24,1.7-1.35-.09a4.11,4.11,0,0,0-2.81,1,5.29,5.29,0,0,0-1.57,2.64v9.78l2.47.2v1.33h-6.73v-1.33l2.47-.2v-13.3l-2.47-.2v-1.35h4Z"/><path class="cls-48" d="M994.41,284.93q-.18-.83-.26-1.44a10.21,10.21,0,0,1-.07-1.23,7.25,7.25,0,0,1-2.42,2.13,6.86,6.86,0,0,1-3.41.85,5.22,5.22,0,0,1-3.72-1.24,4.4,4.4,0,0,1-1.32-3.36,4.15,4.15,0,0,1,2-3.6,9.27,9.27,0,0,1,5.3-1.33h3.62v-2.16a3.49,3.49,0,0,0-1.13-2.75,4.6,4.6,0,0,0-3.16-1,7.92,7.92,0,0,0-2.49.37,5.62,5.62,0,0,0-1.88,1l-.15,2.2h-1.5l0-3.15a9.41,9.41,0,0,1,2.72-1.42,10.27,10.27,0,0,1,3.37-.54,6.58,6.58,0,0,1,4.36,1.38,4.86,4.86,0,0,1,1.65,4v8.05q0,.5,0,1a7.11,7.11,0,0,0,.1.9l1.63.11v1.33Zm-6-1.29a6.55,6.55,0,0,0,3.46-.91,5.37,5.37,0,0,0,2.17-2.35V277.1h-3.65a6.81,6.81,0,0,0-3.94,1A3,3,0,0,0,985,280.7a2.71,2.71,0,0,0,.92,2.13A3.67,3.67,0,0,0,988.45,283.64Z"/><path class="cls-48" d="M1007.2,283.71a5.17,5.17,0,0,0,3.18-1,3.37,3.37,0,0,0,1.38-2.86h1.6l0,.09a4.5,4.5,0,0,1-1.81,3.8,6.75,6.75,0,0,1-4.38,1.53,6.23,6.23,0,0,1-5.16-2.29,9.16,9.16,0,0,1-1.83-5.9v-.64a9.14,9.14,0,0,1,1.83-5.87,6.2,6.2,0,0,1,5.15-2.3,8.31,8.31,0,0,1,3.47.71,6.8,6.8,0,0,1,2.56,1.94l.08,3.57h-1.54l-.29-2.91a5.18,5.18,0,0,0-1.81-1.29,6.06,6.06,0,0,0-2.46-.48,4.36,4.36,0,0,0-3.9,1.88,8.33,8.33,0,0,0-1.26,4.75v.64a8.43,8.43,0,0,0,1.26,4.78A4.38,4.38,0,0,0,1007.2,283.71Zm.47,1.35-.17,1a3.63,3.63,0,0,1,1.93.73,2.25,2.25,0,0,1,.73,1.85,2.55,2.55,0,0,1-1.2,2.2,6,6,0,0,1-3.42.83l-.11-1.18a5.09,5.09,0,0,0,2.28-.46,1.46,1.46,0,0,0,.93-1.35,1.25,1.25,0,0,0-.62-1.2,5.93,5.93,0,0,0-2.19-.46l.42-1.92Z"/><path class="cls-48" d="M1028.08,284.93q-.18-.83-.26-1.44a10.21,10.21,0,0,1-.07-1.23,7.25,7.25,0,0,1-2.42,2.13,6.86,6.86,0,0,1-3.41.85,5.22,5.22,0,0,1-3.72-1.24,4.4,4.4,0,0,1-1.32-3.36,4.15,4.15,0,0,1,2-3.6,9.27,9.27,0,0,1,5.3-1.33h3.62v-2.16a3.49,3.49,0,0,0-1.13-2.75,4.6,4.6,0,0,0-3.16-1,7.92,7.92,0,0,0-2.49.37,5.62,5.62,0,0,0-1.88,1l-.15,2.2h-1.5l0-3.15a9.41,9.41,0,0,1,2.72-1.42,10.27,10.27,0,0,1,3.37-.54,6.58,6.58,0,0,1,4.36,1.38,4.86,4.86,0,0,1,1.65,4v8.05q0,.5,0,1a7.11,7.11,0,0,0,.1.9l1.63.11v1.33Zm.65-22.69a3.08,3.08,0,0,1-.83,2.21,2.74,2.74,0,0,1-2.07.88,3.94,3.94,0,0,1-2.29-.83,3.66,3.66,0,0,0-2-.83,1.55,1.55,0,0,0-1.2.53,1.91,1.91,0,0,0-.48,1.35l-1.2-.27a3.12,3.12,0,0,1,.81-2.19,2.67,2.67,0,0,1,2.07-.89,4.16,4.16,0,0,1,2.23.83,4,4,0,0,0,2,.83,1.57,1.57,0,0,0,1.2-.54,2,2,0,0,0,.5-1.38Zm-6.61,21.4a6.55,6.55,0,0,0,3.46-.91,5.37,5.37,0,0,0,2.17-2.35V277.1h-3.65a6.81,6.81,0,0,0-3.94,1,3,3,0,0,0-1.48,2.58,2.71,2.71,0,0,0,.92,2.13A3.67,3.67,0,0,0,1022.11,283.64Z"/><path class="cls-48" d="M1033.88,276.49a8.8,8.8,0,0,1,2-5.93,7.13,7.13,0,0,1,10.52,0,8.8,8.8,0,0,1,2,5.93v.5a8.82,8.82,0,0,1-2,5.94,7.15,7.15,0,0,1-10.53,0,8.79,8.79,0,0,1-2-5.94Zm1.82.5a7.8,7.8,0,0,0,1.44,4.78,5.07,5.07,0,0,0,8,0,7.8,7.8,0,0,0,1.44-4.78v-.5a7.77,7.77,0,0,0-1.45-4.75,5,5,0,0,0-8,0,7.79,7.79,0,0,0-1.44,4.75Z"/><path class="cls-48" d="M566,319.76a5.66,5.66,0,0,1-2.1,2,6.26,6.26,0,0,1-3,.7,5.43,5.43,0,0,1-4.59-2.2,9.48,9.48,0,0,1-1.66-5.86v-.32a10.69,10.69,0,0,1,1.66-6.27,5.34,5.34,0,0,1,4.62-2.35,5.62,5.62,0,0,1,5.06,2.77v-8.16l-2.47-.2v-1.35h4.28V320.6l2.47.2v1.33H566.2Zm-9.55-5.37a8.3,8.3,0,0,0,1.19,4.72,4,4,0,0,0,3.58,1.76,5.12,5.12,0,0,0,2.91-.79,5.24,5.24,0,0,0,1.82-2.17v-7.75a5.64,5.64,0,0,0-1.75-2.27,4.73,4.73,0,0,0-3-.88,4,4,0,0,0-3.59,2,9.63,9.63,0,0,0-1.2,5.09Z"/><path class="cls-48" d="M573.07,313.69a8.8,8.8,0,0,1,2-5.93,7.13,7.13,0,0,1,10.52,0,8.8,8.8,0,0,1,2,5.93v.5a8.81,8.81,0,0,1-2,5.94,7.15,7.15,0,0,1-10.53,0,8.79,8.79,0,0,1-2-5.94Zm1.82.5a7.8,7.8,0,0,0,1.44,4.78,4.71,4.71,0,0,0,4,1.94,4.66,4.66,0,0,0,4-1.94,7.8,7.8,0,0,0,1.44-4.78v-.5a7.77,7.77,0,0,0-1.45-4.75,5,5,0,0,0-8,0,7.79,7.79,0,0,0-1.44,4.75Z"/><path class="cls-48" d="M602.39,310.8H600.9l-.21-2.32a4.61,4.61,0,0,0-1.72-1.1,6.69,6.69,0,0,0-2.38-.39,4.45,4.45,0,0,0-3,.86,2.58,2.58,0,0,0-1,2,2.38,2.38,0,0,0,.85,1.88,8.33,8.33,0,0,0,3.41,1.3,11.17,11.17,0,0,1,4.38,1.78,3.67,3.67,0,0,1,1.45,3.06,4,4,0,0,1-1.66,3.31,7,7,0,0,1-4.38,1.26,10.23,10.23,0,0,1-3.31-.51,7.86,7.86,0,0,1-2.58-1.43v-3.3h1.47l.26,2.33a4.22,4.22,0,0,0,1.84,1.05,8.25,8.25,0,0,0,2.32.33,5,5,0,0,0,3.1-.86,2.55,2.55,0,0,0,1.14-2.09,2.65,2.65,0,0,0-.95-2,7.68,7.68,0,0,0-3.41-1.41,11.48,11.48,0,0,1-4.34-1.69,3.45,3.45,0,0,1-1.42-2.94,4,4,0,0,1,1.59-3.17,6.44,6.44,0,0,1,4.19-1.29,9.42,9.42,0,0,1,3.29.55,6.64,6.64,0,0,1,2.43,1.49Z"/><path class="cls-48" d="M613.08,307.09v-1.35h4l.23,2.54a5.94,5.94,0,0,1,2.13-2.1,6,6,0,0,1,3-.74,5.35,5.35,0,0,1,4.62,2.35,10.66,10.66,0,0,1,1.66,6.27v.32a9.45,9.45,0,0,1-1.66,5.87,5.45,5.45,0,0,1-4.59,2.19,6.57,6.57,0,0,1-3-.66,5.53,5.53,0,0,1-2.11-1.87v7l2.47.2v1.35h-6.73v-1.35l2.47-.2V307.29Zm13.83,7a9.41,9.41,0,0,0-1.24-5.09,4,4,0,0,0-3.63-2,4.77,4.77,0,0,0-3,.87,5.34,5.34,0,0,0-1.72,2.26V318a5,5,0,0,0,1.79,2.12,5.23,5.23,0,0,0,2.93.77,4.11,4.11,0,0,0,3.61-1.79,8.19,8.19,0,0,0,1.23-4.74Z"/><path class="cls-48" d="M631.56,320.79l2.47-.2v-13.3l-2.47-.2v-1.35h4.27V320.6l2.47.2v1.33h-6.74Zm4.27-19.74H634v-2.54h1.8Z"/><path class="cls-48" d="M641,299.86v-1.35h4.27V320.6l2.47.2v1.33H641v-1.33l2.47-.2V300.06Z"/><path class="cls-48" d="M661.87,322.12q-.18-.83-.26-1.44a10.21,10.21,0,0,1-.07-1.23,7.25,7.25,0,0,1-2.42,2.13,6.86,6.86,0,0,1-3.41.85A5.22,5.22,0,0,1,652,321.2a4.4,4.4,0,0,1-1.32-3.36,4.15,4.15,0,0,1,2-3.6,9.27,9.27,0,0,1,5.3-1.33h3.62v-2.16a3.49,3.49,0,0,0-1.13-2.75,4.6,4.6,0,0,0-3.16-1,7.92,7.92,0,0,0-2.49.37,5.62,5.62,0,0,0-1.88,1l-.15,2.2h-1.5l0-3.15A9.41,9.41,0,0,1,654,306a10.27,10.27,0,0,1,3.37-.54,6.58,6.58,0,0,1,4.36,1.38,4.86,4.86,0,0,1,1.65,4v8.05q0,.5,0,1a7.11,7.11,0,0,0,.1.9l1.63.11v1.33Zm-6-1.29a6.55,6.55,0,0,0,3.46-.91,5.37,5.37,0,0,0,2.17-2.35V314.3h-3.65a6.81,6.81,0,0,0-3.94,1,3,3,0,0,0-1.48,2.58,2.71,2.71,0,0,0,.92,2.13A3.67,3.67,0,0,0,655.91,320.84Z"/><path class="cls-48" d="M671.59,305.75l.23,2.72v.2a5.81,5.81,0,0,1,1.9-2.37,4.79,4.79,0,0,1,2.85-.86,4.2,4.2,0,0,1,.67.05,5,5,0,0,1,.54.11l-.24,1.7-1.35-.09a4.11,4.11,0,0,0-2.81,1,5.29,5.29,0,0,0-1.57,2.64v9.78l2.47.2v1.33h-6.73v-1.33l2.47-.2v-13.3l-2.47-.2v-1.35h4Z"/><path class="cls-48" d="M687.06,322.44a6.58,6.58,0,0,1-5.12-2.26,8.3,8.3,0,0,1-2-5.76v-.83a8.55,8.55,0,0,1,2-5.83,6.26,6.26,0,0,1,4.88-2.32,6.06,6.06,0,0,1,4.74,1.91,7.29,7.29,0,0,1,1.73,5.09V314H681.72v.44A7.23,7.23,0,0,0,683.2,319a4.69,4.69,0,0,0,3.87,1.87,7.88,7.88,0,0,0,2.88-.47,5.7,5.7,0,0,0,2-1.35l.77,1.24a6.54,6.54,0,0,1-2.33,1.54A9,9,0,0,1,687.06,322.44ZM686.82,307a4.34,4.34,0,0,0-3.37,1.54,6.58,6.58,0,0,0-1.6,3.85l0,.08h9.6V312a5.24,5.24,0,0,0-1.26-3.57A4.29,4.29,0,0,0,686.82,307Z"/><path class="cls-48" d="M708.41,310.8h-1.48l-.21-2.32a4.61,4.61,0,0,0-1.72-1.1,6.69,6.69,0,0,0-2.38-.39,4.45,4.45,0,0,0-3,.86,2.58,2.58,0,0,0-1,2,2.38,2.38,0,0,0,.86,1.88,8.32,8.32,0,0,0,3.41,1.3,11.16,11.16,0,0,1,4.38,1.78,3.67,3.67,0,0,1,1.45,3.06,4,4,0,0,1-1.66,3.31,7,7,0,0,1-4.38,1.26,10.22,10.22,0,0,1-3.31-.51,7.87,7.87,0,0,1-2.58-1.43v-3.3h1.47l.26,2.33a4.22,4.22,0,0,0,1.84,1.05,8.25,8.25,0,0,0,2.32.33,5,5,0,0,0,3.1-.86,2.56,2.56,0,0,0,1.13-2.09,2.65,2.65,0,0,0-.95-2,7.69,7.69,0,0,0-3.41-1.41,11.49,11.49,0,0,1-4.34-1.69,3.45,3.45,0,0,1-1.42-2.94,4,4,0,0,1,1.59-3.17,6.43,6.43,0,0,1,4.19-1.29,9.42,9.42,0,0,1,3.29.55,6.63,6.63,0,0,1,2.43,1.49Z"/><path class="cls-48" d="M731,319.76a5.65,5.65,0,0,1-2.1,2,6.26,6.26,0,0,1-3,.7,5.43,5.43,0,0,1-4.59-2.2,9.48,9.48,0,0,1-1.66-5.86v-.32a10.69,10.69,0,0,1,1.66-6.27,5.34,5.34,0,0,1,4.62-2.35,5.62,5.62,0,0,1,5.06,2.77v-8.16l-2.47-.2v-1.35h4.29V320.6l2.47.2v1.33h-4.09Zm-9.55-5.37a8.3,8.3,0,0,0,1.19,4.72,4,4,0,0,0,3.58,1.76,5.12,5.12,0,0,0,2.91-.79,5.24,5.24,0,0,0,1.82-2.17v-7.75a5.64,5.64,0,0,0-1.75-2.27,4.73,4.73,0,0,0-3-.88,4,4,0,0,0-3.59,2,9.62,9.62,0,0,0-1.2,5.09Z"/><path class="cls-48" d="M738,313.69a8.8,8.8,0,0,1,2-5.93,7.13,7.13,0,0,1,10.52,0,8.8,8.8,0,0,1,2,5.93v.5a8.81,8.81,0,0,1-2,5.94,7.15,7.15,0,0,1-10.53,0,8.79,8.79,0,0,1-2-5.94Zm1.82.5a7.8,7.8,0,0,0,1.44,4.78,4.71,4.71,0,0,0,4,1.94,4.66,4.66,0,0,0,4-1.94,7.8,7.8,0,0,0,1.44-4.78v-.5a7.77,7.77,0,0,0-1.45-4.75,5,5,0,0,0-8,0,7.79,7.79,0,0,0-1.44,4.75Z"/><path class="cls-48" d="M772.69,300.09a7.77,7.77,0,0,1,5.49,1.82,6.84,6.84,0,0,1,0,9.58,7.82,7.82,0,0,1-5.49,1.8H768v6.51l2.47.42v1.91h-7.92v-1.91l2.47-.42V302.43l-2.47-.42v-1.92h10.13ZM768,311h4.68a4.35,4.35,0,0,0,3.35-1.2,4.3,4.3,0,0,0,1.11-3,4.38,4.38,0,0,0-1.11-3.06,4.3,4.3,0,0,0-3.35-1.23H768Z"/><path class="cls-48" d="M789.81,322.44a6.91,6.91,0,0,1-5.44-2.28,8.58,8.58,0,0,1-2-5.91v-.67a8.4,8.4,0,0,1,2.08-5.82,6.42,6.42,0,0,1,4.93-2.32,6.21,6.21,0,0,1,5,2,7.93,7.93,0,0,1,1.7,5.33v1.86H785.44l0,.08a6.48,6.48,0,0,0,1.2,3.88,3.81,3.81,0,0,0,3.22,1.52,7.53,7.53,0,0,0,2.66-.43,6.11,6.11,0,0,0,2-1.19l1.17,1.94a7.17,7.17,0,0,1-2.32,1.43A9.3,9.3,0,0,1,789.81,322.44Zm-.45-14.65a3.23,3.23,0,0,0-2.56,1.26,6,6,0,0,0-1.3,3.17l0,.08h7.55v-.39a4.58,4.58,0,0,0-.94-2.94A3.34,3.34,0,0,0,789.36,307.79Z"/><path class="cls-48" d="M798.56,320.22l2.47-.42v-11.7l-2.47-.42v-1.92h5.13l.21,2.44a6,6,0,0,1,2.05-2,5.48,5.48,0,0,1,2.81-.72,5.35,5.35,0,0,1,4.1,1.55,6.81,6.81,0,0,1,1.45,4.79v8l2.47.42v1.91h-7.92v-1.91l2.47-.42v-7.95a4.43,4.43,0,0,0-.86-3.07,3.43,3.43,0,0,0-2.61-.91,4.2,4.2,0,0,0-2.28.62,4.55,4.55,0,0,0-1.58,1.7v9.61l2.47.42v1.91h-7.92Z"/><path class="cls-48" d="M831.48,310.89h-2.24l-.48-2a4.05,4.05,0,0,0-1.37-.83,5.31,5.31,0,0,0-1.87-.31,3.44,3.44,0,0,0-2.36.7,2.19,2.19,0,0,0-.77,1.68,1.87,1.87,0,0,0,.68,1.53,7,7,0,0,0,2.77,1,11.93,11.93,0,0,1,4.62,1.81,3.64,3.64,0,0,1,1.51,3.06,4.23,4.23,0,0,1-1.76,3.53,7.38,7.38,0,0,1-4.61,1.35,12,12,0,0,1-3.35-.43,8.93,8.93,0,0,1-2.65-1.25l0-3.74h2.24l.56,2.2a3.13,3.13,0,0,0,1.4.68,7.78,7.78,0,0,0,1.81.21,4.22,4.22,0,0,0,2.49-.64,2,2,0,0,0,.9-1.69,2,2,0,0,0-.75-1.62,7.05,7.05,0,0,0-2.84-1.1,11.92,11.92,0,0,1-4.49-1.77,3.57,3.57,0,0,1-1.51-3,4.27,4.27,0,0,1,1.7-3.41,6.72,6.72,0,0,1,4.43-1.41,10.74,10.74,0,0,1,3.35.48,7,7,0,0,1,2.47,1.35Z"/><path class="cls-48" d="M845.44,322.12q-.13-.67-.21-1.2t-.11-1.06a7.22,7.22,0,0,1-2.16,1.84,6.18,6.18,0,0,1-6.65-.51,4.59,4.59,0,0,1-1.33-3.52,4.08,4.08,0,0,1,1.88-3.59,9.18,9.18,0,0,1,5.17-1.26h3.07v-1.91a3,3,0,0,0-.91-2.28,3.58,3.58,0,0,0-2.53-.84,6.21,6.21,0,0,0-2,.29,3.71,3.71,0,0,0-1.38.79l-.32,1.73h-2.3v-3.18A8.86,8.86,0,0,1,838.4,306a10.73,10.73,0,0,1,3.45-.54,6.86,6.86,0,0,1,4.51,1.42,5,5,0,0,1,1.73,4.07v7.89c0,.21,0,.42,0,.62s0,.4,0,.61l1.21.17v1.91Zm-4.8-2.18a5.31,5.31,0,0,0,2.71-.71,4.43,4.43,0,0,0,1.76-1.71v-2.69h-3.18a4.54,4.54,0,0,0-2.9.85,2.55,2.55,0,0,0-1.07,2.06,2,2,0,0,0,.67,1.64A3,3,0,0,0,840.64,319.94Z"/><path class="cls-48" d="M851.24,320.22l2.47-.42v-11.7l-2.47-.42v-1.92h5.15l.2,2.13a5.37,5.37,0,0,1,2-1.8,6.22,6.22,0,0,1,2.88-.64,5.06,5.06,0,0,1,2.81.76,4.59,4.59,0,0,1,1.76,2.27,6.06,6.06,0,0,1,2-2.21,5.37,5.37,0,0,1,3-.82,4.92,4.92,0,0,1,4,1.72,7.85,7.85,0,0,1,1.45,5.17v7.46l2.47.42v1.91H871v-1.91l2.47-.42V312.3a5.44,5.44,0,0,0-.83-3.43,3,3,0,0,0-2.47-1,3.15,3.15,0,0,0-2.51,1.1,4.77,4.77,0,0,0-1.1,2.76v8.07l2.47.42v1.91h-7.92v-1.91l2.47-.42V312.3a5.38,5.38,0,0,0-.85-3.37,3,3,0,0,0-2.48-1.07,4.1,4.1,0,0,0-2.24.56,3.63,3.63,0,0,0-1.35,1.57v9.79l2.47.42v1.91h-7.92Z"/><path class="cls-48" d="M888.44,322.44a6.91,6.91,0,0,1-5.44-2.28,8.58,8.58,0,0,1-2-5.91v-.67a8.4,8.4,0,0,1,2.08-5.82,6.42,6.42,0,0,1,4.93-2.32,6.21,6.21,0,0,1,5,2,7.93,7.93,0,0,1,1.7,5.33v1.86H884.07l0,.08a6.48,6.48,0,0,0,1.2,3.88,3.81,3.81,0,0,0,3.22,1.52,7.53,7.53,0,0,0,2.66-.43,6.11,6.11,0,0,0,2-1.19l1.17,1.94a7.17,7.17,0,0,1-2.32,1.43A9.3,9.3,0,0,1,888.44,322.44ZM888,307.79a3.23,3.23,0,0,0-2.56,1.26,6,6,0,0,0-1.3,3.17l0,.08h7.55v-.39a4.58,4.58,0,0,0-.94-2.94A3.34,3.34,0,0,0,888,307.79Z"/><path class="cls-48" d="M897.19,320.22l2.47-.42v-11.7l-2.47-.42v-1.92h5.13l.21,2.44a6,6,0,0,1,2.05-2,5.48,5.48,0,0,1,2.81-.72,5.35,5.35,0,0,1,4.1,1.55,6.81,6.81,0,0,1,1.45,4.79v8l2.47.42v1.91H907.5v-1.91l2.47-.42v-7.95a4.43,4.43,0,0,0-.86-3.07,3.43,3.43,0,0,0-2.61-.91,4.2,4.2,0,0,0-2.28.62,4.55,4.55,0,0,0-1.58,1.7v9.61l2.47.42v1.91h-7.92Z"/><path class="cls-48" d="M922.79,301.8v4h3.1V308h-3.1v9.95a2.22,2.22,0,0,0,.48,1.62,1.73,1.73,0,0,0,1.26.47,6.59,6.59,0,0,0,.89-.07c.33,0,.6-.09.82-.14l.41,2a3.81,3.81,0,0,1-1.24.45,7.82,7.82,0,0,1-1.63.17,3.87,3.87,0,0,1-2.89-1.1,4.77,4.77,0,0,1-1.07-3.44V308h-2.59v-2.21h2.59v-4Z"/><path class="cls-48" d="M928.65,313.78a9,9,0,0,1,2-6,7.27,7.27,0,0,1,10.71,0,9,9,0,0,1,2,6v.33a9,9,0,0,1-2,6,7.31,7.31,0,0,1-10.72,0,9,9,0,0,1-2-6Zm3,.33a7.78,7.78,0,0,0,1.1,4.3,3.95,3.95,0,0,0,6.49,0,7.73,7.73,0,0,0,1.11-4.3v-.33a7.75,7.75,0,0,0-1.11-4.28,3.94,3.94,0,0,0-6.49,0,7.83,7.83,0,0,0-1.09,4.28Z"/><path class="cls-48" d="M571.36,344.05h-2.1l-.56-3.12a5.76,5.76,0,0,0-1.79-1.17,6.39,6.39,0,0,0-2.53-.45,6.18,6.18,0,0,0-5.28,2.49,10.32,10.32,0,0,0-1.85,6.32v.35a10.55,10.55,0,0,0,1.81,6.33,5.84,5.84,0,0,0,5,2.5,7.57,7.57,0,0,0,2.72-.47,5.21,5.21,0,0,0,1.89-1.15l.56-3.12h2.1v3.92a8.27,8.27,0,0,1-2.86,2.19,9.68,9.68,0,0,1-4.42,1,8.91,8.91,0,0,1-7.05-3.18,11.77,11.77,0,0,1-2.76-8v-.32a11.9,11.9,0,0,1,2.71-8,8.89,8.89,0,0,1,7.1-3.17,9.57,9.57,0,0,1,4.42,1,8.51,8.51,0,0,1,2.86,2.19Z"/><path class="cls-48" d="M574.55,351a9,9,0,0,1,2-6,7.27,7.27,0,0,1,10.71,0,9,9,0,0,1,2,6v.33a9,9,0,0,1-2,6,7.31,7.31,0,0,1-10.72,0,9,9,0,0,1-2-6Zm3,.33a7.77,7.77,0,0,0,1.1,4.3,3.95,3.95,0,0,0,6.49,0,7.73,7.73,0,0,0,1.11-4.3V351a7.75,7.75,0,0,0-1.11-4.28,3.94,3.94,0,0,0-6.49,0,7.83,7.83,0,0,0-1.09,4.28Z"/><path class="cls-48" d="M591.34,357.42l2.47-.42v-11.7l-2.47-.42v-1.92h5.15l.2,2.13a5.37,5.37,0,0,1,2-1.8,6.22,6.22,0,0,1,2.88-.64,5.06,5.06,0,0,1,2.81.76,4.59,4.59,0,0,1,1.76,2.27,6.06,6.06,0,0,1,2-2.21,5.37,5.37,0,0,1,3-.82,4.92,4.92,0,0,1,4,1.72,7.85,7.85,0,0,1,1.45,5.17V357l2.47.42v1.91h-7.93v-1.91l2.47-.42V349.5a5.44,5.44,0,0,0-.83-3.43,3,3,0,0,0-2.47-1,3.15,3.15,0,0,0-2.51,1.1,4.77,4.77,0,0,0-1.1,2.76V357l2.47.42v1.91h-7.92v-1.91l2.47-.42V349.5a5.38,5.38,0,0,0-.85-3.37,3,3,0,0,0-2.48-1.07,4.1,4.1,0,0,0-2.24.56,3.62,3.62,0,0,0-1.35,1.57V357l2.47.42v1.91h-7.92Z"/><path class="cls-48" d="M620.85,363.7l2.47-.42v-18l-2.47-.42v-1.92h5l.27,2a5.49,5.49,0,0,1,2-1.71,6,6,0,0,1,2.72-.59,5.45,5.45,0,0,1,4.73,2.41,10.93,10.93,0,0,1,1.69,6.38v.32a9,9,0,0,1-1.7,5.71,5.61,5.61,0,0,1-4.68,2.17,6.5,6.5,0,0,1-2.66-.51,5.14,5.14,0,0,1-1.95-1.51v5.65l2.47.42v1.92h-7.92Zm13.43-12.26a8.69,8.69,0,0,0-1.09-4.59,3.56,3.56,0,0,0-3.24-1.79,4,4,0,0,0-2.18.58,4.33,4.33,0,0,0-1.47,1.57v8a4.12,4.12,0,0,0,1.46,1.57,4.17,4.17,0,0,0,2.22.55,3.67,3.67,0,0,0,3.21-1.54,6.81,6.81,0,0,0,1.09-4Z"/><path class="cls-48" d="M651.7,356.9a5.52,5.52,0,0,1-2,2,5.46,5.46,0,0,1-2.81.71,5.25,5.25,0,0,1-4.16-1.71q-1.5-1.71-1.5-5.33v-7.31l-1.88-.42v-1.92h4.86v9.69a6.11,6.11,0,0,0,.77,3.6,2.87,2.87,0,0,0,2.41,1,4.91,4.91,0,0,0,2.63-.64,4,4,0,0,0,1.57-1.82v-9.46l-2.2-.42v-1.92h5.18v14l1.88.42v1.91H651.9Z"/><path class="cls-48" d="M664,339v4h3.1v2.21H664v9.95a2.22,2.22,0,0,0,.48,1.62,1.73,1.73,0,0,0,1.26.47,6.59,6.59,0,0,0,.89-.07c.33,0,.6-.09.82-.14l.41,2a3.81,3.81,0,0,1-1.24.45,7.82,7.82,0,0,1-1.63.17,3.87,3.87,0,0,1-2.89-1.1A4.77,4.77,0,0,1,661,355.1v-9.95h-2.59v-2.21H661v-4Z"/><path class="cls-48" d="M680.86,359.32c-.09-.44-.16-.84-.21-1.2s-.09-.71-.11-1.06a7.19,7.19,0,0,1-2.16,1.84,6.18,6.18,0,0,1-6.65-.51,4.59,4.59,0,0,1-1.33-3.52,4.07,4.07,0,0,1,1.88-3.59,9.18,9.18,0,0,1,5.17-1.26h3.07v-1.91a3,3,0,0,0-.91-2.28,3.58,3.58,0,0,0-2.53-.84,6.2,6.2,0,0,0-2,.29,3.71,3.71,0,0,0-1.38.79l-.32,1.73h-2.3v-3.18a8.85,8.85,0,0,1,2.71-1.43,10.74,10.74,0,0,1,3.45-.54,6.86,6.86,0,0,1,4.51,1.42,5,5,0,0,1,1.72,4.07V356c0,.21,0,.42,0,.62s0,.4,0,.61l1.21.17v1.91Zm-4.8-2.18a5.31,5.31,0,0,0,2.71-.71,4.43,4.43,0,0,0,1.76-1.71V352h-3.18a4.53,4.53,0,0,0-2.9.85,2.55,2.55,0,0,0-1.07,2.06,2,2,0,0,0,.67,1.64A3,3,0,0,0,676.06,357.14Z"/><path class="cls-48" d="M694.6,357.31a4,4,0,0,0,2.61-.92,2.79,2.79,0,0,0,1.13-2.25H701l0,.09a4.6,4.6,0,0,1-1.88,3.76,6.9,6.9,0,0,1-4.56,1.64,6.61,6.61,0,0,1-5.46-2.33,9,9,0,0,1-1.88-5.86v-.64a9,9,0,0,1,1.89-5.83,6.6,6.6,0,0,1,5.45-2.34,9.13,9.13,0,0,1,3.54.65,7.17,7.17,0,0,1,2.6,1.79l.14,3.63h-2.38l-.65-2.57a4,4,0,0,0-1.36-.83,5.23,5.23,0,0,0-1.88-.32,3.59,3.59,0,0,0-3.35,1.69,8,8,0,0,0-1,4.14v.64a8,8,0,0,0,1,4.19A3.6,3.6,0,0,0,694.6,357.31Z"/><path class="cls-48" d="M704,357.42l2.47-.42v-11.7l-2.47-.42v-1.92h5.45v14l2.47.42v1.91H704Zm5.45-18.66h-3v-3h3Z"/><path class="cls-48" d="M714.16,351a9,9,0,0,1,2-6,7.27,7.27,0,0,1,10.71,0,9,9,0,0,1,2,6v.33a9,9,0,0,1-2,6,7.31,7.31,0,0,1-10.72,0,9,9,0,0,1-2-6Zm3,.33a7.78,7.78,0,0,0,1.1,4.3,3.95,3.95,0,0,0,6.49,0,7.73,7.73,0,0,0,1.11-4.3V351a7.75,7.75,0,0,0-1.11-4.28,3.94,3.94,0,0,0-6.49,0,7.83,7.83,0,0,0-1.09,4.28Z"/><path class="cls-48" d="M731.1,357.42l2.47-.42v-11.7l-2.47-.42v-1.92h5.13l.21,2.44a6,6,0,0,1,2.05-2,5.48,5.48,0,0,1,2.81-.72,5.35,5.35,0,0,1,4.1,1.55,6.81,6.81,0,0,1,1.45,4.79v8l2.47.42v1.91H741.4v-1.91l2.47-.42V349A4.43,4.43,0,0,0,743,346a3.43,3.43,0,0,0-2.61-.91,4.2,4.2,0,0,0-2.28.62,4.55,4.55,0,0,0-1.58,1.7V357l2.47.42v1.91H731.1Z"/><path class="cls-48" d="M762.17,359.32c-.09-.44-.16-.84-.21-1.2s-.09-.71-.11-1.06a7.19,7.19,0,0,1-2.16,1.84,6.18,6.18,0,0,1-6.65-.51,4.59,4.59,0,0,1-1.33-3.52,4.07,4.07,0,0,1,1.88-3.59,9.18,9.18,0,0,1,5.17-1.26h3.07v-1.91a3,3,0,0,0-.91-2.28,3.58,3.58,0,0,0-2.53-.84,6.2,6.2,0,0,0-2,.29,3.71,3.71,0,0,0-1.38.79l-.32,1.73h-2.3v-3.18a8.85,8.85,0,0,1,2.71-1.43,10.74,10.74,0,0,1,3.45-.54,6.86,6.86,0,0,1,4.51,1.42,5,5,0,0,1,1.72,4.07V356c0,.21,0,.42,0,.62s0,.4,0,.61l1.21.17v1.91Zm-4.8-2.18a5.31,5.31,0,0,0,2.71-.71,4.43,4.43,0,0,0,1.76-1.71V352h-3.18a4.53,4.53,0,0,0-2.9.85,2.55,2.55,0,0,0-1.07,2.06,2,2,0,0,0,.67,1.64A3,3,0,0,0,757.37,357.14Z"/><path class="cls-48" d="M768.15,337.63v-1.92h5.45V357l2.47.42v1.91h-7.92v-1.91l2.47-.42V338.06Z"/><path class="cls-48" d="M781.08,358.6a6.88,6.88,0,0,1-.57,2.72,6.61,6.61,0,0,1-1.55,2.26l-1.07-.79a7.86,7.86,0,0,0,1.05-2,6.64,6.64,0,0,0,.34-2.18v-2.15h1.8Z"/><path class="cls-48" d="M791.58,358l2.47-.2v-13.3l-2.47-.2v-1.35h4.07l.17,2.86a5.84,5.84,0,0,1,2.13-2.34,5.93,5.93,0,0,1,3.17-.83,5,5,0,0,1,4.06,1.63q1.39,1.63,1.39,5.08v8.45l2.47.2v1.33h-6.75V358l2.47-.2v-8.43a5.93,5.93,0,0,0-1.05-4,3.82,3.82,0,0,0-3-1.17,4.68,4.68,0,0,0-3.11,1,5.6,5.6,0,0,0-1.73,2.67v9.9l2.47.2v1.33h-6.75Z"/><path class="cls-48" d="M811.73,350.89a8.8,8.8,0,0,1,2-5.93,7.13,7.13,0,0,1,10.52,0,8.8,8.8,0,0,1,2,5.93v.5a8.82,8.82,0,0,1-2,5.94,7.15,7.15,0,0,1-10.53,0,8.79,8.79,0,0,1-2-5.94Zm1.82.5a7.8,7.8,0,0,0,1.44,4.78,5.07,5.07,0,0,0,8,0,7.8,7.8,0,0,0,1.44-4.78v-.5a7.77,7.77,0,0,0-1.45-4.75,5,5,0,0,0-8,0,7.79,7.79,0,0,0-1.44,4.75Z"/><path class="cls-48" d="M840.87,338.75v4.19h3.6v1.48h-3.6V355.1a3.49,3.49,0,0,0,.58,2.28,1.94,1.94,0,0,0,1.55.67q.44,0,.86,0t1-.13l.27,1.35a4.69,4.69,0,0,1-1.1.3,8.14,8.14,0,0,1-1.3.11,3.39,3.39,0,0,1-2.69-1.09,5.13,5.13,0,0,1-1-3.45V344.43h-2.81v-1.48H839v-4.19Z"/><path class="cls-48" d="M851.72,342.95l.23,2.72v.2a5.81,5.81,0,0,1,1.9-2.37,4.79,4.79,0,0,1,2.85-.86,4.2,4.2,0,0,1,.67.05,5,5,0,0,1,.54.11l-.24,1.7-1.35-.09a4.11,4.11,0,0,0-2.81,1,5.29,5.29,0,0,0-1.57,2.64v9.78l2.47.2v1.33h-6.73V358l2.47-.2v-13.3l-2.47-.2v-1.35h4Z"/><path class="cls-48" d="M871.56,359.32q-.18-.83-.26-1.44a9.82,9.82,0,0,1-.08-1.23,7.23,7.23,0,0,1-2.42,2.13,6.85,6.85,0,0,1-3.4.85,5.22,5.22,0,0,1-3.72-1.24,4.4,4.4,0,0,1-1.32-3.36,4.15,4.15,0,0,1,2-3.6,9.27,9.27,0,0,1,5.3-1.33h3.62v-2.16a3.49,3.49,0,0,0-1.13-2.75,4.6,4.6,0,0,0-3.16-1,7.94,7.94,0,0,0-2.49.37,5.64,5.64,0,0,0-1.88,1l-.15,2.2h-1.5v-3.15a9.43,9.43,0,0,1,2.72-1.42,10.27,10.27,0,0,1,3.37-.54,6.58,6.58,0,0,1,4.36,1.38,4.86,4.86,0,0,1,1.65,4V356c0,.33,0,.65,0,1a7.49,7.49,0,0,0,.1.9l1.63.11v1.33Zm-6-1.29a6.55,6.55,0,0,0,3.47-.91,5.35,5.35,0,0,0,2.16-2.35V351.5h-3.65a6.8,6.8,0,0,0-3.94,1,3,3,0,0,0-1.48,2.58,2.7,2.7,0,0,0,.92,2.13A3.67,3.67,0,0,0,865.6,358Z"/><path class="cls-48" d="M891.44,351.59a9.45,9.45,0,0,1-1.66,5.87,5.45,5.45,0,0,1-4.59,2.19,6.32,6.32,0,0,1-3.1-.72,5.55,5.55,0,0,1-2.1-2.07l-.2,2.47h-1.54V337.26l-2.47-.2v-1.35H880v9.81a5.59,5.59,0,0,1,5.12-2.88,5.34,5.34,0,0,1,4.62,2.35,10.66,10.66,0,0,1,1.66,6.27Zm-1.83-.32a9.58,9.58,0,0,0-1.21-5.09,3.94,3.94,0,0,0-3.57-2,4.72,4.72,0,0,0-3.07.94,5.6,5.6,0,0,0-1.72,2.41V355a4.9,4.9,0,0,0,4.81,3.1,4,4,0,0,0,3.56-1.76,8.25,8.25,0,0,0,1.2-4.72Z"/><path class="cls-48" d="M905.82,359.32q-.18-.83-.26-1.44a9.82,9.82,0,0,1-.08-1.23,7.23,7.23,0,0,1-2.42,2.13,6.85,6.85,0,0,1-3.4.85,5.22,5.22,0,0,1-3.72-1.24,4.4,4.4,0,0,1-1.32-3.36,4.15,4.15,0,0,1,2-3.6,9.27,9.27,0,0,1,5.3-1.33h3.62v-2.16a3.49,3.49,0,0,0-1.13-2.75,4.6,4.6,0,0,0-3.16-1,7.94,7.94,0,0,0-2.49.37,5.64,5.64,0,0,0-1.88,1l-.15,2.2h-1.5v-3.15a9.43,9.43,0,0,1,2.72-1.42,10.27,10.27,0,0,1,3.37-.54,6.58,6.58,0,0,1,4.36,1.38,4.86,4.86,0,0,1,1.65,4V356c0,.33,0,.65,0,1a7.48,7.48,0,0,0,.1.9L909,358v1.33Zm-6-1.29a6.55,6.55,0,0,0,3.47-.91,5.35,5.35,0,0,0,2.16-2.35V351.5h-3.65a6.8,6.8,0,0,0-3.94,1,3,3,0,0,0-1.48,2.58,2.7,2.7,0,0,0,.92,2.13A3.67,3.67,0,0,0,899.85,358Z"/><path class="cls-48" d="M911.25,337.06v-1.35h4.27V357.8l2.47.2v1.33h-6.74V358l2.47-.2V337.26Z"/><path class="cls-48" d="M920.32,337.06v-1.35h4.27v10a5.85,5.85,0,0,1,5.36-3.1,5,5,0,0,1,4,1.6,7.5,7.5,0,0,1,1.38,5v8.57l2.47.2v1.33H931V358l2.47-.2v-8.6a5.62,5.62,0,0,0-1.05-3.82,3.72,3.72,0,0,0-2.9-1.16,4.9,4.9,0,0,0-3.11,1,5.67,5.67,0,0,0-1.84,2.6v10l2.47.2v1.33h-6.74V358l2.47-.2V337.26Z"/><path class="cls-48" d="M940.35,350.89a8.8,8.8,0,0,1,2-5.93,7.13,7.13,0,0,1,10.52,0,8.8,8.8,0,0,1,2,5.93v.5a8.82,8.82,0,0,1-2,5.94,7.15,7.15,0,0,1-10.53,0,8.79,8.79,0,0,1-2-5.94Zm1.82.5a7.8,7.8,0,0,0,1.44,4.78,5.07,5.07,0,0,0,8,0,7.8,7.8,0,0,0,1.44-4.78v-.5a7.77,7.77,0,0,0-1.45-4.75,5,5,0,0,0-8,0,7.79,7.79,0,0,0-1.44,4.75Z"/><path class="cls-48" d="M972.31,358.11a5.17,5.17,0,0,0,3.18-1,3.37,3.37,0,0,0,1.38-2.86h1.61l0,.09a4.5,4.5,0,0,1-1.81,3.8,6.75,6.75,0,0,1-4.38,1.53,6.23,6.23,0,0,1-5.16-2.29,9.16,9.16,0,0,1-1.83-5.9v-.64a9.14,9.14,0,0,1,1.83-5.87,6.2,6.2,0,0,1,5.15-2.3,8.3,8.3,0,0,1,3.46.71,6.79,6.79,0,0,1,2.56,1.94l.08,3.57h-1.54l-.29-2.91a5.18,5.18,0,0,0-1.81-1.29,6,6,0,0,0-2.46-.48,4.37,4.37,0,0,0-3.9,1.88,8.35,8.35,0,0,0-1.26,4.75v.64a8.43,8.43,0,0,0,1.26,4.78A4.38,4.38,0,0,0,972.31,358.11Z"/><path class="cls-48" d="M981.88,350.89a8.8,8.8,0,0,1,2-5.93,7.13,7.13,0,0,1,10.52,0,8.8,8.8,0,0,1,2,5.93v.5a8.82,8.82,0,0,1-2,5.94,7.15,7.15,0,0,1-10.53,0,8.79,8.79,0,0,1-2-5.94Zm1.82.5a7.8,7.8,0,0,0,1.44,4.78,5.07,5.07,0,0,0,8,0,7.8,7.8,0,0,0,1.44-4.78v-.5a7.77,7.77,0,0,0-1.45-4.75,5,5,0,0,0-8,0,7.79,7.79,0,0,0-1.44,4.75Z"/><path class="cls-48" d="M998.92,344.29v-1.35H1003l.17,2.71a5.74,5.74,0,0,1,2.1-2.23,6,6,0,0,1,3.13-.79,5.18,5.18,0,0,1,3.13.92,5.05,5.05,0,0,1,1.8,2.79,6.36,6.36,0,0,1,2.11-2.72,5.55,5.55,0,0,1,3.34-1,4.94,4.94,0,0,1,4,1.74q1.43,1.74,1.43,5.39v8l2.47.21v1.33H1020V358l2.47-.21v-8q0-3-1.07-4.28a3.7,3.7,0,0,0-3-1.25,4,4,0,0,0-3.26,1.35,6.48,6.48,0,0,0-1.41,3.44c0,.08,0,.16,0,.23s0,.16,0,.27v8.29l2.47.2v1.33h-6.75V358l2.47-.2v-8.05a6.57,6.57,0,0,0-1.08-4.25,3.69,3.69,0,0,0-3-1.28,4.52,4.52,0,0,0-3.07,1,5.19,5.19,0,0,0-1.58,2.63v10l2.47.2v1.33h-6.75V358l2.47-.2v-13.3Z"/><path class="cls-48" d="M566.54,385.2h-1.48l-.21-2.32a4.61,4.61,0,0,0-1.72-1.1,6.69,6.69,0,0,0-2.38-.39,4.45,4.45,0,0,0-3,.86,2.58,2.58,0,0,0-1,2,2.38,2.38,0,0,0,.85,1.88,8.33,8.33,0,0,0,3.41,1.3,11.17,11.17,0,0,1,4.38,1.78,3.67,3.67,0,0,1,1.45,3.06,4,4,0,0,1-1.66,3.31,7,7,0,0,1-4.38,1.26,10.23,10.23,0,0,1-3.31-.51,7.86,7.86,0,0,1-2.58-1.43v-3.3h1.47l.26,2.33a4.22,4.22,0,0,0,1.84,1.05,8.25,8.25,0,0,0,2.32.33,5,5,0,0,0,3.1-.86,2.55,2.55,0,0,0,1.14-2.09,2.65,2.65,0,0,0-.95-2,7.68,7.68,0,0,0-3.41-1.41,11.48,11.48,0,0,1-4.34-1.69,3.45,3.45,0,0,1-1.42-2.94,4,4,0,0,1,1.59-3.17,6.44,6.44,0,0,1,4.19-1.29,9.42,9.42,0,0,1,3.29.55,6.64,6.64,0,0,1,2.43,1.49Z"/><path class="cls-48" d="M577.4,396.84a6.58,6.58,0,0,1-5.12-2.26,8.3,8.3,0,0,1-2-5.76V388a8.55,8.55,0,0,1,2-5.83,6.26,6.26,0,0,1,4.88-2.32,6.07,6.07,0,0,1,4.74,1.91,7.29,7.29,0,0,1,1.73,5.09v1.54H572.05v.44a7.23,7.23,0,0,0,1.48,4.63,4.69,4.69,0,0,0,3.87,1.87,7.88,7.88,0,0,0,2.88-.47,5.7,5.7,0,0,0,2-1.35l.77,1.24a6.54,6.54,0,0,1-2.33,1.54A9,9,0,0,1,577.4,396.84Zm-.24-15.46a4.34,4.34,0,0,0-3.37,1.54,6.59,6.59,0,0,0-1.6,3.85l0,.08h9.6v-.46a5.24,5.24,0,0,0-1.26-3.57A4.29,4.29,0,0,0,577.16,381.39Z"/><path class="cls-48" d="M598.89,393.83a5.58,5.58,0,0,1-2.11,2.23,6.12,6.12,0,0,1-3.16.79,5,5,0,0,1-4-1.76q-1.46-1.76-1.46-5.45v-7.95l-2-.2v-1.35h3.83v9.52a7,7,0,0,0,1,4.3,3.47,3.47,0,0,0,2.9,1.3,5.36,5.36,0,0,0,3.28-.91,4.82,4.82,0,0,0,1.72-2.51V381.69l-2.33-.2v-1.35h4.15V395l2.2.2v1.33h-3.79Z"/><path class="cls-48" d="M617.39,385.2h-1.48l-.21-2.32a4.6,4.6,0,0,0-1.72-1.1,6.69,6.69,0,0,0-2.38-.39,4.45,4.45,0,0,0-3,.86,2.58,2.58,0,0,0-1,2,2.38,2.38,0,0,0,.85,1.88,8.33,8.33,0,0,0,3.41,1.3,11.17,11.17,0,0,1,4.38,1.78,3.67,3.67,0,0,1,1.45,3.06,4,4,0,0,1-1.66,3.31,7,7,0,0,1-4.38,1.26,10.24,10.24,0,0,1-3.31-.51,7.86,7.86,0,0,1-2.58-1.43v-3.3h1.47l.26,2.33a4.22,4.22,0,0,0,1.84,1.05,8.24,8.24,0,0,0,2.32.33,5,5,0,0,0,3.1-.86,2.55,2.55,0,0,0,1.14-2.09,2.65,2.65,0,0,0-.95-2,7.68,7.68,0,0,0-3.41-1.41,11.48,11.48,0,0,1-4.34-1.69,3.46,3.46,0,0,1-1.41-2.94,4,4,0,0,1,1.59-3.17,6.44,6.44,0,0,1,4.19-1.29,9.42,9.42,0,0,1,3.29.55,6.66,6.66,0,0,1,2.43,1.49Z"/><path class="cls-48" d="M639.87,396.52q-.18-.83-.26-1.44a9.82,9.82,0,0,1-.08-1.23,7.23,7.23,0,0,1-2.42,2.13,6.85,6.85,0,0,1-3.4.85A5.22,5.22,0,0,1,630,395.6a4.4,4.4,0,0,1-1.32-3.36,4.15,4.15,0,0,1,2-3.6,9.27,9.27,0,0,1,5.3-1.33h3.62v-2.16a3.49,3.49,0,0,0-1.13-2.75,4.6,4.6,0,0,0-3.16-1,7.94,7.94,0,0,0-2.49.37,5.64,5.64,0,0,0-1.88,1l-.15,2.2h-1.5v-3.15a9.43,9.43,0,0,1,2.72-1.42,10.27,10.27,0,0,1,3.37-.54,6.58,6.58,0,0,1,4.36,1.38,4.86,4.86,0,0,1,1.65,4v8.05c0,.33,0,.65,0,1a7.48,7.48,0,0,0,.1.9l1.63.11v1.33Zm-6-1.29a6.55,6.55,0,0,0,3.47-.91,5.35,5.35,0,0,0,2.16-2.35V388.7h-3.65a6.8,6.8,0,0,0-3.94,1,3,3,0,0,0-1.48,2.58,2.7,2.7,0,0,0,.92,2.13A3.67,3.67,0,0,0,633.9,395.24Z"/><path class="cls-48" d="M645.3,374.26v-1.35h4.27V395l2.47.2v1.33H645.3v-1.33l2.47-.2V374.46Z"/><path class="cls-48" d="M666.93,393.83a5.59,5.59,0,0,1-2.11,2.23,6.13,6.13,0,0,1-3.16.79,5,5,0,0,1-4-1.76q-1.46-1.76-1.46-5.45v-7.95l-2-.2v-1.35H658v9.52a7,7,0,0,0,1,4.3,3.47,3.47,0,0,0,2.9,1.3,5.36,5.36,0,0,0,3.28-.91,4.82,4.82,0,0,0,1.72-2.51V381.69l-2.33-.2v-1.35h4.15V395l2.2.2v1.33H667.1Z"/><path class="cls-48" d="M673.21,395.19l2.47-.2v-13.3l-2.47-.2v-1.35h4.07l.17,2.86a5.84,5.84,0,0,1,2.13-2.34,5.93,5.93,0,0,1,3.17-.83,5,5,0,0,1,4.06,1.63q1.39,1.63,1.39,5.08V395l2.47.2v1.33h-6.75v-1.33l2.47-.2v-8.43a5.93,5.93,0,0,0-1.05-4,3.82,3.82,0,0,0-3-1.17,4.68,4.68,0,0,0-3.11,1,5.6,5.6,0,0,0-1.73,2.67V395l2.47.2v1.33h-6.75Z"/><path class="cls-48" d="M693.36,388.09a8.8,8.8,0,0,1,2-5.93,7.13,7.13,0,0,1,10.52,0,8.8,8.8,0,0,1,2,5.93v.5a8.82,8.82,0,0,1-2,5.94,7.15,7.15,0,0,1-10.53,0,8.79,8.79,0,0,1-2-5.94Zm1.82.5a7.8,7.8,0,0,0,1.44,4.78,5.07,5.07,0,0,0,8,0,7.8,7.8,0,0,0,1.44-4.78v-.5a7.77,7.77,0,0,0-1.45-4.75,5,5,0,0,0-8,0,7.79,7.79,0,0,0-1.44,4.75Z"/><path class="cls-48" d="M722.68,385.2H721.2l-.21-2.32a4.6,4.6,0,0,0-1.72-1.1,6.69,6.69,0,0,0-2.38-.39,4.45,4.45,0,0,0-3,.86,2.58,2.58,0,0,0-1,2,2.38,2.38,0,0,0,.85,1.88,8.33,8.33,0,0,0,3.41,1.3,11.17,11.17,0,0,1,4.38,1.78,3.67,3.67,0,0,1,1.45,3.06,4,4,0,0,1-1.66,3.31,7,7,0,0,1-4.38,1.26,10.24,10.24,0,0,1-3.31-.51,7.86,7.86,0,0,1-2.58-1.43v-3.3h1.47l.26,2.33a4.22,4.22,0,0,0,1.84,1.05,8.24,8.24,0,0,0,2.32.33,5,5,0,0,0,3.1-.86,2.55,2.55,0,0,0,1.14-2.09,2.65,2.65,0,0,0-.95-2,7.68,7.68,0,0,0-3.41-1.41,11.48,11.48,0,0,1-4.34-1.69,3.46,3.46,0,0,1-1.41-2.94,4,4,0,0,1,1.59-3.17,6.44,6.44,0,0,1,4.19-1.29,9.42,9.42,0,0,1,3.29.55,6.66,6.66,0,0,1,2.43,1.49Z"/><path class="cls-48" d="M733.52,395.19,736,395v-13.3l-2.47-.2v-1.35h4.07l.17,2.86a5.84,5.84,0,0,1,2.13-2.34,5.94,5.94,0,0,1,3.17-.83,5,5,0,0,1,4.06,1.63q1.39,1.63,1.39,5.08V395l2.47.2v1.33h-6.75v-1.33l2.47-.2v-8.43a5.93,5.93,0,0,0-1.05-4,3.82,3.82,0,0,0-3-1.17,4.69,4.69,0,0,0-3.11,1,5.6,5.6,0,0,0-1.73,2.67V395l2.47.2v1.33h-6.75Z"/><path class="cls-48" d="M753.67,388.09a8.8,8.8,0,0,1,2-5.93,7.13,7.13,0,0,1,10.52,0,8.8,8.8,0,0,1,2,5.93v.5a8.81,8.81,0,0,1-2,5.94,7.15,7.15,0,0,1-10.53,0,8.79,8.79,0,0,1-2-5.94Zm1.82.5a7.8,7.8,0,0,0,1.44,4.78,4.71,4.71,0,0,0,4,1.94,4.66,4.66,0,0,0,4-1.94,7.8,7.8,0,0,0,1.44-4.78v-.5a7.77,7.77,0,0,0-1.45-4.75,5,5,0,0,0-8,0,7.79,7.79,0,0,0-1.44,4.75Z"/><path class="cls-48" d="M783,385.2H781.5l-.21-2.32a4.61,4.61,0,0,0-1.72-1.1,6.69,6.69,0,0,0-2.38-.39,4.45,4.45,0,0,0-3,.86,2.58,2.58,0,0,0-1,2,2.38,2.38,0,0,0,.86,1.88,8.32,8.32,0,0,0,3.41,1.3,11.16,11.16,0,0,1,4.38,1.78,3.67,3.67,0,0,1,1.45,3.06,4,4,0,0,1-1.66,3.31,7,7,0,0,1-4.38,1.26,10.22,10.22,0,0,1-3.31-.51,7.87,7.87,0,0,1-2.58-1.43v-3.3h1.47l.26,2.33A4.22,4.22,0,0,0,775,395a8.25,8.25,0,0,0,2.32.33,5,5,0,0,0,3.1-.86,2.56,2.56,0,0,0,1.13-2.09,2.65,2.65,0,0,0-.95-2,7.69,7.69,0,0,0-3.41-1.41,11.49,11.49,0,0,1-4.34-1.69,3.45,3.45,0,0,1-1.42-2.94,4,4,0,0,1,1.59-3.17,6.43,6.43,0,0,1,4.19-1.29,9.42,9.42,0,0,1,3.29.55,6.63,6.63,0,0,1,2.43,1.49Z"/><path class="cls-48" d="M793.52,394.62l1.63-.23,7.71-19.9h2.56l7.57,19.9,1.62.23v1.91h-6.33v-1.91l1.67-.29-1.45-4.06h-8.82l-1.5,4.06,1.67.29v1.91h-6.31Zm7.07-6.84h7l-3.42-9.46h-.09Z"/><path class="cls-48" d="M816.3,394.62l2.47-.42v-11.7l-2.47-.42v-1.92h5.13l.21,2.44a5.94,5.94,0,0,1,2.05-2,5.48,5.48,0,0,1,2.81-.72,5.35,5.35,0,0,1,4.1,1.55,6.81,6.81,0,0,1,1.45,4.79v8l2.47.42v1.91h-7.92v-1.91l2.47-.42v-7.95a4.43,4.43,0,0,0-.86-3.07,3.43,3.43,0,0,0-2.61-.91,4.2,4.2,0,0,0-2.28.62,4.52,4.52,0,0,0-1.58,1.7v9.61l2.47.42v1.91H816.3Z"/><path class="cls-48" d="M836.55,388.19a9,9,0,0,1,2-6,7.27,7.27,0,0,1,10.71,0,9,9,0,0,1,2,6v.33a9,9,0,0,1-2,6,7.31,7.31,0,0,1-10.72,0,9,9,0,0,1-2-6Zm3,.33a7.76,7.76,0,0,0,1.1,4.3,3.95,3.95,0,0,0,6.49,0,7.73,7.73,0,0,0,1.11-4.3v-.33a7.75,7.75,0,0,0-1.11-4.28,3.94,3.94,0,0,0-6.49,0,7.83,7.83,0,0,0-1.09,4.28Z"/><path class="cls-48" d="M866.47,385.29h-2.24l-.48-2a4,4,0,0,0-1.37-.83,5.3,5.3,0,0,0-1.87-.31,3.44,3.44,0,0,0-2.36.7,2.19,2.19,0,0,0-.77,1.68,1.87,1.87,0,0,0,.68,1.53,7,7,0,0,0,2.77,1,11.93,11.93,0,0,1,4.62,1.81A3.65,3.65,0,0,1,867,392a4.24,4.24,0,0,1-1.76,3.53,7.39,7.39,0,0,1-4.61,1.35,12,12,0,0,1-3.35-.43,8.93,8.93,0,0,1-2.65-1.25l0-3.74h2.24l.56,2.2a3.11,3.11,0,0,0,1.4.68,7.78,7.78,0,0,0,1.81.21,4.23,4.23,0,0,0,2.49-.64,2,2,0,0,0,.9-1.69,2,2,0,0,0-.75-1.62,7,7,0,0,0-2.84-1.1,11.93,11.93,0,0,1-4.5-1.77,3.57,3.57,0,0,1-1.51-3,4.28,4.28,0,0,1,1.7-3.41,6.73,6.73,0,0,1,4.43-1.41,10.75,10.75,0,0,1,3.35.48,7,7,0,0,1,2.47,1.35Z"/><path class="cls-48" d="M877.17,394.62l2.47-.42V376.83l-2.47-.42v-1.92h17v5.3h-2.54l-.24-3h-8.79v7.6h8.52v2.35h-8.52v7.42l2.47.42v1.91h-7.92Z"/><path class="cls-48" d="M896.71,394.62l2.47-.42v-11.7l-2.47-.42v-1.92h5.45v14l2.47.42v1.91h-7.92ZM902.16,376h-3v-3h3Z"/><path class="cls-48" d="M906.46,394.62l2.47-.42v-11.7l-2.47-.42v-1.92h5.13l.21,2.44a5.94,5.94,0,0,1,2.05-2,5.48,5.48,0,0,1,2.81-.72,5.35,5.35,0,0,1,4.1,1.55,6.81,6.81,0,0,1,1.45,4.79v8l2.47.42v1.91h-7.92v-1.91l2.47-.42v-7.95a4.43,4.43,0,0,0-.86-3.07,3.43,3.43,0,0,0-2.61-.91,4.2,4.2,0,0,0-2.28.62,4.52,4.52,0,0,0-1.58,1.7v9.61l2.47.42v1.91h-7.92Z"/><path class="cls-48" d="M937.53,396.52q-.13-.67-.21-1.2t-.11-1.06a7.22,7.22,0,0,1-2.16,1.84,6.18,6.18,0,0,1-6.65-.51,4.59,4.59,0,0,1-1.33-3.52,4.08,4.08,0,0,1,1.88-3.59,9.18,9.18,0,0,1,5.17-1.26h3.07v-1.91a3,3,0,0,0-.91-2.28,3.58,3.58,0,0,0-2.53-.84,6.21,6.21,0,0,0-2,.29,3.71,3.71,0,0,0-1.38.79l-.32,1.73h-2.3v-3.18a8.86,8.86,0,0,1,2.71-1.43,10.73,10.73,0,0,1,3.45-.54,6.86,6.86,0,0,1,4.51,1.42,5,5,0,0,1,1.73,4.07v7.89c0,.21,0,.42,0,.62s0,.4,0,.61l1.21.17v1.91Zm-4.8-2.18a5.31,5.31,0,0,0,2.71-.71,4.43,4.43,0,0,0,1.76-1.71v-2.69H934a4.54,4.54,0,0,0-2.9.85,2.55,2.55,0,0,0-1.07,2.06,2,2,0,0,0,.67,1.64A3,3,0,0,0,932.74,394.35Z"/><path class="cls-48" d="M943.92,394.62l2.47-.42v-11.7l-2.47-.42v-1.92h5.45v14l2.47.42v1.91h-7.92ZM949.37,376h-3v-3h3Z"/><path class="cls-48" d="M966.64,385.29H964.4l-.48-2a4,4,0,0,0-1.37-.83,5.3,5.3,0,0,0-1.87-.31,3.44,3.44,0,0,0-2.36.7,2.19,2.19,0,0,0-.77,1.68,1.87,1.87,0,0,0,.68,1.53,7,7,0,0,0,2.77,1,11.93,11.93,0,0,1,4.62,1.81,3.65,3.65,0,0,1,1.51,3.06,4.24,4.24,0,0,1-1.76,3.53,7.39,7.39,0,0,1-4.61,1.35,12,12,0,0,1-3.35-.43,8.93,8.93,0,0,1-2.65-1.25l0-3.74H957l.56,2.2a3.11,3.11,0,0,0,1.4.68,7.78,7.78,0,0,0,1.81.21,4.23,4.23,0,0,0,2.49-.64,2,2,0,0,0,.9-1.69,2,2,0,0,0-.75-1.62,7,7,0,0,0-2.84-1.1,11.93,11.93,0,0,1-4.5-1.77,3.57,3.57,0,0,1-1.51-3,4.28,4.28,0,0,1,1.7-3.41,6.73,6.73,0,0,1,4.43-1.41,10.75,10.75,0,0,1,3.35.48,7,7,0,0,1,2.47,1.35Z"/><path class="cls-48" d="M988.65,394.57a5.28,5.28,0,0,1-2,1.7,6,6,0,0,1-2.69.58,5.6,5.6,0,0,1-4.69-2.17,9.05,9.05,0,0,1-1.69-5.71v-.32a10.93,10.93,0,0,1,1.69-6.37,5.43,5.43,0,0,1,4.72-2.42,5.84,5.84,0,0,1,2.56.54,5.31,5.31,0,0,1,1.9,1.55v-6.68l-2.47-.42v-1.92h5.45v21.28l2.47.42v1.91h-5.06Zm-8-5.62a7,7,0,0,0,1,4,3.52,3.52,0,0,0,3.13,1.5,4,4,0,0,0,2.24-.61,4.63,4.63,0,0,0,1.5-1.71v-7.6a4.6,4.6,0,0,0-1.5-1.63,4,4,0,0,0-2.21-.61,3.4,3.4,0,0,0-3.16,1.77,9.14,9.14,0,0,0-1,4.6Z"/><path class="cls-48" d="M996.23,388.19a9,9,0,0,1,2-6,7.27,7.27,0,0,1,10.71,0,9,9,0,0,1,2,6v.33a9,9,0,0,1-2,6,7.31,7.31,0,0,1-10.72,0,9,9,0,0,1-2-6Zm3,.33a7.76,7.76,0,0,0,1.1,4.3,3.95,3.95,0,0,0,6.49,0,7.73,7.73,0,0,0,1.11-4.3v-.33a7.75,7.75,0,0,0-1.11-4.28,3.94,3.94,0,0,0-6.49,0,7.83,7.83,0,0,0-1.09,4.28Z"/><path class="cls-48" d="M554.27,433.73v-1.91l2.47-.42V414l-2.47-.42v-1.92h16.92V417h-2.56l-.24-3h-8.67v7.13h8.43v2.35h-8.43v7.89h8.86l.24-3h2.54v5.28Z"/><path class="cls-48" d="M573.87,431.82l2.47-.42v-11.7l-2.47-.42v-1.92H579l.21,2.44a6,6,0,0,1,2.05-2,5.48,5.48,0,0,1,2.81-.72,5.35,5.35,0,0,1,4.1,1.55,6.81,6.81,0,0,1,1.45,4.79v8l2.47.42v1.91h-7.92v-1.91l2.47-.42v-7.95a4.43,4.43,0,0,0-.86-3.07,3.43,3.43,0,0,0-2.61-.91,4.2,4.2,0,0,0-2.28.62,4.54,4.54,0,0,0-1.58,1.7v9.61l2.47.42v1.91h-7.92Z"/><path class="cls-48" d="M606.79,422.49h-2.24l-.48-2a4.05,4.05,0,0,0-1.37-.83,5.31,5.31,0,0,0-1.87-.31,3.44,3.44,0,0,0-2.36.7,2.19,2.19,0,0,0-.77,1.68,1.87,1.87,0,0,0,.68,1.53,7,7,0,0,0,2.77,1,11.93,11.93,0,0,1,4.62,1.81,3.64,3.64,0,0,1,1.51,3.06,4.23,4.23,0,0,1-1.76,3.53A7.38,7.38,0,0,1,600.9,434a12,12,0,0,1-3.35-.43,8.93,8.93,0,0,1-2.65-1.25l0-3.74h2.24l.56,2.2a3.12,3.12,0,0,0,1.4.68,7.78,7.78,0,0,0,1.81.21,4.22,4.22,0,0,0,2.49-.64,2,2,0,0,0,.9-1.69,2,2,0,0,0-.75-1.62,7.05,7.05,0,0,0-2.84-1.1,11.92,11.92,0,0,1-4.5-1.77,3.57,3.57,0,0,1-1.51-3,4.28,4.28,0,0,1,1.7-3.41,6.72,6.72,0,0,1,4.43-1.41,10.73,10.73,0,0,1,3.35.48,7,7,0,0,1,2.47,1.35Z"/><path class="cls-48" d="M610.06,431.82l2.47-.42v-11.7l-2.47-.42v-1.92h5.45v14l2.47.42v1.91h-7.92Zm5.45-18.66h-3v-3h3Z"/><path class="cls-48" d="M619.81,431.82l2.47-.42v-11.7l-2.47-.42v-1.92h5.13l.21,2.44a6,6,0,0,1,2.05-2A5.48,5.48,0,0,1,630,417a5.35,5.35,0,0,1,4.1,1.55,6.81,6.81,0,0,1,1.45,4.79v8l2.47.42v1.91h-7.92v-1.91l2.47-.42v-7.95a4.43,4.43,0,0,0-.86-3.07,3.43,3.43,0,0,0-2.61-.91,4.2,4.2,0,0,0-2.28.62,4.55,4.55,0,0,0-1.58,1.7v9.61l2.47.42v1.91h-7.92Z"/><path class="cls-48" d="M640.06,425.39a9,9,0,0,1,2-6,7.27,7.27,0,0,1,10.71,0,9,9,0,0,1,2,6v.33a9,9,0,0,1-2,6,7.31,7.31,0,0,1-10.72,0,9,9,0,0,1-2-6Zm3,.33a7.78,7.78,0,0,0,1.1,4.3,3.95,3.95,0,0,0,6.49,0,7.73,7.73,0,0,0,1.11-4.3v-.33a7.75,7.75,0,0,0-1.11-4.28,3.94,3.94,0,0,0-6.49,0,7.83,7.83,0,0,0-1.09,4.28Z"/><path class="cls-48" d="M664.87,431.82l2.47-.42V414l-2.47-.42v-1.92h17V417h-2.54l-.24-3h-8.79v7.6h8.52V424h-8.52v7.42l2.47.42v1.91h-7.92Z"/><path class="cls-48" d="M695.8,431.3a5.52,5.52,0,0,1-2,2A5.46,5.46,0,0,1,691,434a5.25,5.25,0,0,1-4.16-1.71q-1.5-1.71-1.5-5.33v-7.31l-1.88-.42v-1.92h4.86V427a6.11,6.11,0,0,0,.77,3.6,2.87,2.87,0,0,0,2.41,1,4.91,4.91,0,0,0,2.63-.64,4,4,0,0,0,1.57-1.82v-9.46l-2.2-.42v-1.92h5.18v14l1.88.42v1.91H696Z"/><path class="cls-48" d="M702.47,431.82l2.47-.42v-11.7l-2.47-.42v-1.92h5.13l.21,2.44a6,6,0,0,1,2.05-2,5.48,5.48,0,0,1,2.81-.72,5.35,5.35,0,0,1,4.1,1.55,6.81,6.81,0,0,1,1.45,4.79v8l2.47.42v1.91h-7.92v-1.91l2.47-.42v-7.95a4.43,4.43,0,0,0-.86-3.07,3.43,3.43,0,0,0-2.61-.91,4.2,4.2,0,0,0-2.28.62,4.55,4.55,0,0,0-1.58,1.7v9.61l2.47.42v1.91h-7.92Z"/><path class="cls-48" d="M733.75,431.77a5.29,5.29,0,0,1-2,1.7,6,6,0,0,1-2.69.58,5.6,5.6,0,0,1-4.68-2.17,9.05,9.05,0,0,1-1.69-5.71v-.32a10.93,10.93,0,0,1,1.69-6.37,5.42,5.42,0,0,1,4.71-2.42,5.85,5.85,0,0,1,2.57.54,5.3,5.3,0,0,1,1.9,1.55v-6.68l-2.47-.42v-1.92h5.45v21.28l2.47.42v1.91H734Zm-8-5.62a7,7,0,0,0,1,4,3.52,3.52,0,0,0,3.13,1.5,4,4,0,0,0,2.24-.61,4.61,4.61,0,0,0,1.5-1.71v-7.6a4.59,4.59,0,0,0-1.5-1.63,3.94,3.94,0,0,0-2.21-.61,3.39,3.39,0,0,0-3.15,1.77,9.14,9.14,0,0,0-1,4.6Z"/><path class="cls-48" d="M752,433.73c-.09-.44-.16-.84-.21-1.2s-.09-.71-.11-1.06a7.19,7.19,0,0,1-2.16,1.84,6.18,6.18,0,0,1-6.65-.51,4.59,4.59,0,0,1-1.33-3.52,4.07,4.07,0,0,1,1.88-3.59,9.18,9.18,0,0,1,5.17-1.26h3.07v-1.91a3,3,0,0,0-.91-2.28,3.58,3.58,0,0,0-2.53-.84,6.2,6.2,0,0,0-2,.29,3.71,3.71,0,0,0-1.38.79l-.32,1.73h-2.3V419a8.85,8.85,0,0,1,2.71-1.43,10.74,10.74,0,0,1,3.45-.54,6.86,6.86,0,0,1,4.51,1.42,5,5,0,0,1,1.72,4.07v7.89c0,.21,0,.42,0,.62s0,.4,0,.61l1.21.17v1.91Zm-4.8-2.18a5.31,5.31,0,0,0,2.71-.71,4.43,4.43,0,0,0,1.76-1.71v-2.69h-3.18a4.53,4.53,0,0,0-2.9.85,2.55,2.55,0,0,0-1.07,2.06,2,2,0,0,0,.67,1.64A3,3,0,0,0,747.2,431.55Z"/><path class="cls-48" d="M757.8,431.82l2.47-.42v-11.7l-2.47-.42v-1.92h5.15l.2,2.13a5.37,5.37,0,0,1,2-1.8A6.22,6.22,0,0,1,768,417a5.07,5.07,0,0,1,2.81.76,4.59,4.59,0,0,1,1.76,2.27,6.06,6.06,0,0,1,2-2.21,5.36,5.36,0,0,1,3-.82,4.92,4.92,0,0,1,4,1.72,7.85,7.85,0,0,1,1.45,5.17v7.46l2.47.42v1.91h-7.93v-1.91l2.47-.42V423.9a5.44,5.44,0,0,0-.83-3.43,3,3,0,0,0-2.47-1,3.14,3.14,0,0,0-2.5,1.1,4.76,4.76,0,0,0-1.1,2.76v8.07l2.47.42v1.91H767.7v-1.91l2.47-.42V423.9a5.37,5.37,0,0,0-.86-3.37,3,3,0,0,0-2.47-1.07,4.1,4.1,0,0,0-2.24.56,3.62,3.62,0,0,0-1.35,1.57v9.79l2.47.42v1.91H757.8Z"/><path class="cls-48" d="M795,434a6.91,6.91,0,0,1-5.44-2.28,8.58,8.58,0,0,1-2-5.91v-.67a8.4,8.4,0,0,1,2.08-5.82,6.42,6.42,0,0,1,4.93-2.32,6.21,6.21,0,0,1,5,2,7.93,7.93,0,0,1,1.7,5.33v1.86H790.63l0,.08a6.48,6.48,0,0,0,1.2,3.88,3.81,3.81,0,0,0,3.22,1.52,7.53,7.53,0,0,0,2.66-.43,6.11,6.11,0,0,0,2-1.19L800.8,432a7.17,7.17,0,0,1-2.32,1.43A9.3,9.3,0,0,1,795,434Zm-.45-14.65a3.23,3.23,0,0,0-2.56,1.26,6,6,0,0,0-1.3,3.17l0,.08h7.55v-.39a4.58,4.58,0,0,0-.94-2.94A3.34,3.34,0,0,0,794.55,419.39Z"/><path class="cls-48" d="M803.75,431.82l2.47-.42v-11.7l-2.47-.42v-1.92h5.13l.21,2.44a6,6,0,0,1,2.05-2A5.48,5.48,0,0,1,814,417a5.35,5.35,0,0,1,4.1,1.55,6.81,6.81,0,0,1,1.45,4.79v8l2.47.42v1.91h-7.92v-1.91l2.47-.42v-7.95a4.43,4.43,0,0,0-.86-3.07,3.43,3.43,0,0,0-2.61-.91,4.2,4.2,0,0,0-2.28.62,4.55,4.55,0,0,0-1.58,1.7v9.61l2.47.42v1.91h-7.92Z"/><path class="cls-48" d="M829.35,413.4v4h3.1v2.21h-3.1v9.95a2.22,2.22,0,0,0,.48,1.62,1.72,1.72,0,0,0,1.26.47,6.59,6.59,0,0,0,.88-.07q.49-.07.83-.14l.41,2a3.84,3.84,0,0,1-1.24.45,7.82,7.82,0,0,1-1.63.17,3.86,3.86,0,0,1-2.89-1.1,4.76,4.76,0,0,1-1.07-3.44v-9.95h-2.59v-2.21h2.59v-4Z"/><path class="cls-48" d="M846.18,433.73q-.13-.67-.21-1.2t-.11-1.06a7.22,7.22,0,0,1-2.16,1.84,6.18,6.18,0,0,1-6.65-.51,4.59,4.59,0,0,1-1.33-3.52,4.08,4.08,0,0,1,1.88-3.59,9.18,9.18,0,0,1,5.17-1.26h3.07v-1.91a3,3,0,0,0-.91-2.28,3.58,3.58,0,0,0-2.53-.84,6.21,6.21,0,0,0-2,.29,3.71,3.71,0,0,0-1.38.79l-.32,1.73h-2.3V419a8.86,8.86,0,0,1,2.71-1.43,10.73,10.73,0,0,1,3.45-.54,6.86,6.86,0,0,1,4.51,1.42,5,5,0,0,1,1.73,4.07v7.89c0,.21,0,.42,0,.62s0,.4,0,.61l1.21.17v1.91Zm-4.8-2.18a5.31,5.31,0,0,0,2.71-.71,4.43,4.43,0,0,0,1.76-1.71v-2.69h-3.18a4.54,4.54,0,0,0-2.9.85,2.55,2.55,0,0,0-1.07,2.06,2,2,0,0,0,.67,1.64A3,3,0,0,0,841.38,431.55Z"/><path class="cls-48" d="M852.16,412v-1.92h5.45v21.28l2.47.42v1.91h-7.92v-1.91l2.47-.42V412.46Z"/><path class="cls-48" d="M865.3,433.73h-2.15V431.2h2.15Zm-.18-7.24h-1.8v-14.8h1.8Z"/></g></g></svg>