<svg xmlns="http://www.w3.org/2000/svg" xmlns:xlink="http://www.w3.org/1999/xlink" viewBox="0 0 1124.64 651.26"><defs><style>.cls-1{fill:#e6f4ff;}.cls-2{fill:none;}.cls-3{fill:#8bb5d8;}.cls-4{fill:#329e89;}.cls-5{clip-path:url(#clip-path);}.cls-6{fill:#c5e2ff;}.cls-7{clip-path:url(#clip-path-2);}.cls-8{fill:#ef9777;}.cls-9{fill:#fff;}.cls-10{fill:#3a1e1c;}.cls-11{clip-path:url(#clip-path-3);}.cls-12{fill:#d88268;}.cls-13{fill:#d98369;}.cls-14{fill:#da8469;}.cls-15{fill:#db856a;}.cls-16{fill:#dc866b;}.cls-17{fill:#dd876b;}.cls-18{fill:#de886c;}.cls-19{fill:#df896d;}.cls-20{fill:#e08a6d;}.cls-21{fill:#e18b6e;}.cls-22{fill:#e28c6f;}.cls-23{fill:#e48d70;}.cls-24{fill:#e58d70;}.cls-25{fill:#e68e71;}.cls-26{fill:#e78f72;}.cls-27{fill:#e89072;}.cls-28{fill:#e99173;}.cls-29{fill:#ea9274;}.cls-30{fill:#eb9374;}.cls-31{fill:#ec9475;}.cls-32{fill:#ed9576;}.cls-33{fill:#ee9676;}.cls-34{fill:#3d201f;}.cls-35{fill:#b5574d;}.cls-36{fill:#b3514e;}.cls-37{fill:#312235;}.cls-38{fill:#fc999c;}.cls-39{fill:#f9aaaa;}.cls-40{fill:#196b5d;}.cls-41{fill:#208975;}.cls-42{fill:#8acec3;}.cls-43{fill:#5b1f3c;}.cls-44{fill:#fffdfd;}.cls-45{clip-path:url(#clip-path-4);}.cls-46{fill:#ce7061;}.cls-47{fill:#175b4e;}</style><clipPath id="clip-path"><path class="cls-1" d="M428.87,402.79a192.51,192.51,0,0,0-5.05-43.86c-32.69-73-109.23-124.15-198.45-124.15C106.43,234.78,10,325.78,10,438a193.16,193.16,0,0,0,5,43.87C47.74,554.84,124.28,606,213.5,606,332.44,606,428.87,515,428.87,402.79Z"/></clipPath><clipPath id="clip-path-2"><path class="cls-2" d="M541,351.81c-10.3-18-97.34-31.5-97.34-31.5S301.34,131.55,232.33,138s-80.25,56.59-80.25,56.59l-32.63,66.55C54.18,296,10.14,362.17,10.14,438c0,112.25,96.42,203.24,215.37,203.24,117.57,0,213.12-88.9,215.32-199.34C473.18,419.61,549,365.68,541,351.81Z"/></clipPath><clipPath id="clip-path-3"><path class="cls-2" d="M227.82,319.63l-2.36,9.78s-19.92,12.9-37.91,11.87c-5.35-.3,67.76,42.8,71.74,43s34.38-50.16,34.38-50.16-20.41-3.73-27.17-4S252,311.8,252,311.8Z"/></clipPath><clipPath id="clip-path-4"><path class="cls-2" d="M541.11-404.43c-10.3-18-97.34-31.5-97.34-31.5S301.45-624.7,232.44-618.27s-80.25,56.59-80.25,56.59l-32.63,66.55C54.29-460.21,10.25-394.07,10.25-318.22,10.25-206,106.68-115,225.62-115c117.57,0,213.12-88.9,215.32-199.35C473.29-336.63,549.06-390.56,541.11-404.43Z"/></clipPath></defs><title>1-fala2</title><g id="Camada_5" data-name="Camada 5"><ellipse class="cls-3" cx="225.37" cy="438.02" rx="215.37" ry="203.24"/><path class="cls-4" d="M225.37,234.78c119,0,215.37,91,215.37,203.24S344.32,641.26,225.37,641.26,10,550.27,10,438s96.42-203.24,215.37-203.24m0-10a235.1,235.1,0,0,0-87.54,16.69A225.72,225.72,0,0,0,66.22,287,212.37,212.37,0,0,0,17.8,354.82a203.34,203.34,0,0,0,0,166.4A212.3,212.3,0,0,0,66.22,589a225.89,225.89,0,0,0,71.61,45.57,238.05,238.05,0,0,0,175.08,0A225.94,225.94,0,0,0,384.53,589a212.12,212.12,0,0,0,48.41-67.79,203.34,203.34,0,0,0,0-166.4A212.19,212.19,0,0,0,384.53,287a225.76,225.76,0,0,0-71.62-45.57,235.1,235.1,0,0,0-87.54-16.69Z"/><path class="cls-1" d="M428.87,402.79a192.51,192.51,0,0,0-5.05-43.86c-32.69-73-109.23-124.15-198.45-124.15C106.43,234.78,10,325.78,10,438a193.16,193.16,0,0,0,5,43.87C47.74,554.84,124.28,606,213.5,606,332.44,606,428.87,515,428.87,402.79Z"/><g class="cls-5"><circle class="cls-1" cx="306.79" cy="408.71" r="104.58"/><circle class="cls-1" cx="306.79" cy="408.71" r="100.64"/><circle class="cls-1" cx="306.79" cy="408.71" r="98.66"/><circle class="cls-1" cx="306.79" cy="408.71" r="96.69"/><circle class="cls-1" cx="306.79" cy="408.71" r="94.72"/><circle class="cls-1" cx="306.79" cy="408.71" r="92.74"/><circle class="cls-1" cx="306.79" cy="408.71" r="90.77"/><circle class="cls-1" cx="306.79" cy="408.71" r="88.8"/><circle class="cls-1" cx="306.79" cy="408.71" r="86.82"/><circle class="cls-1" cx="306.79" cy="408.71" r="84.85"/><circle class="cls-1" cx="306.79" cy="408.71" r="82.88"/><circle class="cls-1" cx="306.79" cy="408.71" r="80.9"/><circle class="cls-1" cx="306.79" cy="408.71" r="78.93"/><circle class="cls-1" cx="306.79" cy="408.71" r="76.96"/><circle class="cls-1" cx="306.79" cy="408.71" r="74.98"/><circle class="cls-1" cx="306.79" cy="408.71" r="73.01"/><circle class="cls-1" cx="306.79" cy="408.71" r="71.04"/><circle class="cls-1" cx="306.79" cy="408.71" r="69.06"/><circle class="cls-1" cx="306.79" cy="408.71" r="67.09"/><circle class="cls-1" cx="306.79" cy="408.71" r="65.12"/><circle class="cls-1" cx="306.79" cy="408.71" r="63.15"/><circle class="cls-1" cx="306.79" cy="408.71" r="61.17"/><circle class="cls-1" cx="306.79" cy="408.71" r="59.2"/><circle class="cls-1" cx="306.79" cy="408.71" r="57.23"/><circle class="cls-1" cx="306.79" cy="408.71" r="55.25"/><circle class="cls-1" cx="306.79" cy="408.71" r="53.28"/><circle class="cls-1" cx="306.79" cy="408.71" r="51.31"/><circle class="cls-1" cx="306.79" cy="408.71" r="49.33"/><circle class="cls-1" cx="306.79" cy="408.71" r="47.36"/><circle class="cls-1" cx="306.79" cy="408.71" r="45.39"/><circle class="cls-1" cx="306.79" cy="408.71" r="43.41"/><circle class="cls-1" cx="306.79" cy="408.71" r="41.44"/><circle class="cls-1" cx="306.79" cy="408.71" r="39.47"/><circle class="cls-1" cx="306.79" cy="408.71" r="37.49"/><circle class="cls-1" cx="306.79" cy="408.71" r="35.52"/><circle class="cls-1" cx="306.79" cy="408.71" r="33.55"/><circle class="cls-1" cx="306.79" cy="408.71" r="31.57"/><circle class="cls-1" cx="306.79" cy="408.71" r="29.6"/><circle class="cls-1" cx="306.79" cy="408.71" r="27.63"/><circle class="cls-1" cx="306.79" cy="408.71" r="25.65"/><circle class="cls-1" cx="306.79" cy="408.71" r="23.68"/><circle class="cls-1" cx="306.79" cy="408.71" r="21.71"/><circle class="cls-1" cx="306.79" cy="408.71" r="19.73"/><circle class="cls-1" cx="306.79" cy="408.71" r="17.76"/><circle class="cls-1" cx="306.79" cy="408.71" r="15.79"/><circle class="cls-1" cx="306.79" cy="408.71" r="13.81"/><circle class="cls-1" cx="306.79" cy="408.71" r="11.84"/><circle class="cls-1" cx="306.79" cy="408.71" r="9.87"/><circle class="cls-1" cx="306.79" cy="408.71" r="7.89"/><circle class="cls-1" cx="306.79" cy="408.71" r="5.92"/><circle class="cls-1" cx="306.79" cy="408.71" r="3.95"/><circle class="cls-1" cx="306.79" cy="408.71" r="1.97"/></g><path class="cls-3" d="M787.8,44.22c-174.89,0-318.64,118.13-335.23,269.27L353,353.14s-6.51,2.41-5.85,11.74a12.7,12.7,0,0,0,7.43,10.89L458.82,407C492,541,626.68,641.26,787.8,641.26c186,0,336.84-133.65,336.84-298.52S973.83,44.22,787.8,44.22Z"/><path class="cls-6" d="M787.75,0C612.85,0,469.11,118.13,452.52,269.27L353,308.92s-6.51,2.41-5.86,11.74a12.7,12.7,0,0,0,7.44,10.88l104.21,31.28C492,496.78,626.63,597,787.75,597c186,0,336.84-133.65,336.84-298.52S973.78,0,787.75,0Z"/><g class="cls-7"><path class="cls-8" d="M534.35,352.94a18,18,0,0,0-2.21-1.87,19.39,19.39,0,0,0-1.77-1.13,22.73,22.73,0,0,0-4.25-1.84,17.85,17.85,0,0,0-2.86-.67s-45.4,6.11-38.5,3-1.63-3.79-1.63-3.79-21.75,4.67-30,9.17c-5.48,3-12.26,25.5-12.26,25.5l12.28,14.26s13.81-9.68,18.89-14.76c3.66-3.66,20.55-3.28,33.25-5.34,4.95-.8,12.12-3.69,14.92-4.36,3.25-.78,3.54-3.18,6.58-5.16a31.06,31.06,0,0,0,4.82-3.82c1.7-1.67,1.32-1.57,1.86-3.17.28-.79,1.74-2.75,1.71-3.67A3.43,3.43,0,0,0,534.35,352.94Zm-19.63,13.12s-16.06,2.81-17-.63c-2.53,1,21.79-1.33,28.2-3.88Z"/><path class="cls-9" d="M153.42,564.7s24.48-21.86,24.48-27-14.35-8.35-14.35-8.35l-20.41,29.5,9.58,7.33Z"/><path class="cls-10" d="M176.08,358.82s-46.9-131.84,7.44-198.9c0,0,58.11-39.81,101.53,7s13,178.54,13,178.54Z"/><g class="cls-11"><polygon class="cls-12" points="293.6 311.8 293.63 312.12 182.21 322.49 182.21 311.8 293.6 311.8"/><polygon class="cls-12" points="293.63 312.12 293.67 312.49 293.67 312.93 182.21 323.3 182.21 322.49 293.63 312.12"/><polygon class="cls-13" points="293.67 313.74 182.21 324.11 182.21 323.3 293.67 312.93 293.67 313.74"/><polygon class="cls-14" points="293.67 314.55 182.21 324.93 182.21 324.11 293.67 313.74 293.67 314.55"/><polygon class="cls-15" points="293.67 315.37 182.21 325.74 182.21 324.93 293.67 314.55 293.67 315.37"/><polygon class="cls-16" points="293.67 316.18 182.21 326.55 182.21 325.74 293.67 315.37 293.67 316.18"/><polygon class="cls-17" points="293.67 316.99 182.21 327.37 182.21 326.55 293.67 316.18 293.67 316.99"/><polygon class="cls-18" points="293.67 317.81 182.21 328.18 182.21 327.37 293.67 316.99 293.67 317.81"/><polygon class="cls-19" points="293.67 318.62 182.21 328.99 182.21 328.18 293.67 317.81 293.67 318.62"/><polygon class="cls-20" points="293.67 319.43 182.21 329.81 182.21 328.99 293.67 318.62 293.67 319.43"/><polygon class="cls-21" points="293.67 320.24 182.21 330.62 182.21 329.81 293.67 319.43 293.67 320.24"/><polygon class="cls-22" points="293.67 321.06 182.21 331.43 182.21 330.62 293.67 320.24 293.67 321.06"/><polygon class="cls-23" points="293.67 321.87 182.21 332.24 182.21 331.43 293.67 321.06 293.67 321.87"/><polygon class="cls-24" points="293.67 322.68 182.21 333.06 182.21 332.24 293.67 321.87 293.67 322.68"/><polygon class="cls-25" points="293.67 323.5 182.21 333.87 182.21 333.06 293.67 322.68 293.67 323.5"/><polygon class="cls-26" points="293.67 324.31 182.21 334.68 182.21 333.87 293.67 323.5 293.67 324.31"/><polygon class="cls-27" points="293.67 325.12 182.21 335.5 182.21 334.68 293.67 324.31 293.67 325.12"/><polygon class="cls-28" points="293.67 325.94 182.21 336.31 182.21 335.5 293.67 325.12 293.67 325.94"/><polygon class="cls-29" points="293.67 326.75 182.21 337.12 182.21 336.31 293.67 325.94 293.67 326.75"/><polygon class="cls-30" points="293.67 327.56 182.21 337.94 182.21 337.12 293.67 326.75 293.67 327.56"/><polygon class="cls-31" points="293.67 328.38 182.21 338.75 182.21 337.94 293.67 327.56 293.67 328.38"/><polygon class="cls-32" points="293.67 329.19 182.21 339.56 182.21 338.75 293.67 328.38 293.67 329.19"/><polygon class="cls-33" points="293.67 330 182.21 340.38 182.21 339.56 293.67 329.19 293.67 330"/><polygon class="cls-8" points="293.67 330.82 182.21 341.19 182.21 340.38 293.67 330 293.67 330.82"/><polygon class="cls-8" points="184.24 384.38 182.21 362.56 182.21 341.19 293.67 330.82 293.67 384.38 184.24 384.38"/></g><path class="cls-8" d="M182.49,220.71s-.89,110.78,64.76,101.68c35.49-4.92,47.51-40.41,40.88-70.92a191.55,191.55,0,0,1-3.79-46.76s-4.08-29.37-38.7-20.31S196,190.12,196,190.12,180.43,193.3,182.49,220.71Z"/><path class="cls-10" d="M177,226.89s25.09-2.78,36.43-7.67l.58-15.39s2.55,9.93,4.85,12.4,22.88-.73,32-3.58,4.8-14.7,4.8-14.7L260,209.8s28.58,3.45,28.74-.93-3.86-24.71-12.21-28.74-73.88-4.44-83.08,4.1S177.42,214.69,177,226.89Z"/><ellipse class="cls-34" cx="265.84" cy="242.56" rx="3.92" ry="3.17" transform="translate(-22.23 26.87) rotate(-5.56)"/><ellipse class="cls-34" cx="226.77" cy="246.26" rx="3.92" ry="3.17" transform="translate(-22.77 23.11) rotate(-5.56)"/><path class="cls-35" d="M250.44,277a15.34,15.34,0,0,1-5.17-.8l.35-.94c5.16,1.91,13.88,0,15.56-3.34,1.13-2.27-1.44-4.53-3.78-6-6.89-4.38-5.32-8.94-5.25-9.13l.94.34c-.05.16-1.33,4,4.84,7.94,4.88,3.11,4.95,5.69,4.14,7.32C260.61,275.31,255.26,277,250.44,277Z"/><path class="cls-36" d="M264.84,287.05c-18.37,4.76-37.46.2-36.73,1.53,0,0,1.76,14.25,18,14.15C262.86,302.62,264.84,287.05,264.84,287.05Z"/><path class="cls-9" d="M219.27,331.75s22.52,13.66,36.94,11.81c6.84-.88,19-14,19-14l13,129.73-49.8,2.24Z"/><path class="cls-37" d="M172.55,555.72s-17.61,72.57-15.63,92.45,4.68,52.17,34,145.94c0,0,78.25,32.39,150.2-.8,0,0,6.29-1.86,10.91-43.82S364.46,606.9,343.32,562,172.55,555.72,172.55,555.72Z"/><path class="cls-10" d="M274.7,219.71s-4.74-6.2-9.75-3.1a.89.89,0,0,0-.58,1.12c.25.83,1.91-1.64,9.83,2.73C274.2,220.46,274.7,220.75,274.7,219.71Z"/><path class="cls-10" d="M214.82,224.15s4.75-6.21,9.75-3.11a.89.89,0,0,1,.58,1.12c-.25.84-1.91-1.63-9.83,2.73C215.32,224.89,214.82,225.18,214.82,224.15Z"/><path class="cls-9" d="M262.51,287.6s-.65,3.21-2,4.13-15.62,2-24.11.95c-5.38-.66-6.4-3.32-6.26-4.3C230.16,288.38,249,290.65,262.51,287.6Z"/><path class="cls-38" d="M249.27,302.5s-1.22-9.7-18.49-7.16C230.78,295.34,234.91,304.19,249.27,302.5Z"/><ellipse class="cls-39" cx="280.9" cy="252.77" rx="3.62" ry="6.23" transform="translate(5.69 511.72) rotate(-85.24)"/><ellipse class="cls-39" cx="214.68" cy="262.02" rx="6.23" ry="3.62" transform="translate(-52.56 53.87) rotate(-12.76)"/><path class="cls-40" d="M333.45,438.84l41.91,37.38s10.59,6.85,14.41,7.27c4,.44,11.28-4.8,11.28-4.8l67.67-73.64s-37.64-24.88-38-28.5-33.25,46.55-33.25,46.55-2.17-2.74-7.67-1.67c-3,.59-1.59,5.6-7.66-.14-3.74-3.54-9.95-8.73-15.17-16.11-29.22-41.33-56.53-70.83-58.39-72.35s-11-6.17-14.23-4.65-19.19,1.41-19.19,1.41L277.8,445,219.27,331.75s-12.56,4.33-26.08,2.61S157,338,157,338s-10.24,27.71-17.55,29.81-11,20.25-11,20.25c-2.17,2.65-10.18,14.08-19.61,27.72h0s-37.48,45.93-43,49.91-2.65,13.44-2.65,13.44L142,562.9l27.83-35.51c-7.13-.5-43.13-49.77-43.13-49.77,2.53-4.53,2.3-8.26,1.56-10.72,17.3-18.49,42.63-47.18,42.63-47.18.41,4.06,6.47,16.8,16.93,32.51s9.69,42.14,9.69,42.14c-14.94,21.68-25,61.35-25,61.35s1,7.92,26.28,20.54c11,5.51,46.51,16.31,46.51,16.31l39.46-43.28,50.78,35.64s9.12-9.13,8.21-18.27-18.44-63.5-18.44-63.5-1.89-19,.27-24.66S333.45,438.84,333.45,438.84Z"/><path class="cls-12" d="M153.42,564.7s12.2,10.7,14.67,8.23l12.43-35.19S165,549,153.42,564.7Z"/><path class="cls-8" d="M170.77,565.87s5.9-5.86,14.86,2.8,9.68,9.26,9.68,9.26,6.95,2.88,7.52-4.63c0,0,8.8,1.29,6.82-8.39,0,0,6.14-4.42.71-12,0,0,5.51-1.06,2.24-11.47s-24-20.46-24-20.46-9.94-3.49-10.82,8.07c0,0-7.16.38-4.66,10.38,0,0-4.65,4.2-3.65,8.77s-.11,3.66-.11,3.66S162.68,559.29,170.77,565.87Z"/><path class="cls-35" d="M202.45,573.63c-.11-.14-11.87-13.67-24.48-19.79l.43-.9c12.8,6.21,24.69,19.9,24.81,20Z"/><path class="cls-35" d="M209.31,565.27c-.17-.16-17.14-16.1-29.48-22.75l.48-.88c12.45,6.72,29.52,22.74,29.69,22.9Z"/><path class="cls-35" d="M210,553.19c-.15-.18-15.21-17.9-27.55-21.76l.3-.95c12.61,3.94,27.39,21.33,28,22.07Z"/><path class="cls-41" d="M219.27,331.75S195.12,343.4,182,363.18l44.38,12.67s-15.11,14.86-14.79,18.07,66.17,51,66.17,51,33.54-61.51,29.81-64.56-24.29-6.81-24.29-6.81S302.8,346,306.19,345.64s-28-16.36-31-16.05,2.52,110.28,2.52,110.28l-.15,2.38Z"/><path class="cls-37" d="M277.8,445s9.26,81.81,7,104.33"/><circle class="cls-42" cx="291.54" cy="469.64" r="5.33"/><circle class="cls-42" cx="293.67" cy="507.64" r="5.33"/><path class="cls-43" d="M173.7,402.9l-1-.23a76.61,76.61,0,0,0-11.55-60.85l.82-.57A77.63,77.63,0,0,1,173.7,402.9Z"/><path class="cls-43" d="M329,405.1l-1-.09c1.1-12.3-3.36-24.58-7.3-35.41-4.66-12.82-9.95-27.35-20.07-37.88l.72-.69c10.27,10.68,15.59,25.32,20.29,38.23C325.59,380.19,330.1,392.58,329,405.1Z"/><path class="cls-43" d="M146.21,375.14a27.73,27.73,0,0,0-3.49-6.94l.82-.57a28.39,28.39,0,0,1,3.62,7.19Z"/><path class="cls-43" d="M135.93,390.8a34.62,34.62,0,0,0-6.08-.84l.05-1a36.56,36.56,0,0,1,6.25.85Z"/><path class="cls-43" d="M334.33,439.12l-1-.11a74.31,74.31,0,0,0,.43-11.93l1,0A75,75,0,0,1,334.33,439.12Z"/><path class="cls-43" d="M400.28,437.11a74.37,74.37,0,0,0-2.84-11.6l.95-.31A74,74,0,0,1,401.26,437Z"/><path class="cls-43" d="M384.94,437.09l-1-.15a60.44,60.44,0,0,0,.75-10.74l1,0A61.34,61.34,0,0,1,384.94,437.09Z"/><path class="cls-43" d="M200.3,494.73l-.52-.85a60.15,60.15,0,0,1,11.59-5.54l.34.94A58.87,58.87,0,0,0,200.3,494.73Z"/><path class="cls-43" d="M127.66,467.41c-2.33,0-10-.2-12.54-2.75l.7-.71c2.65,2.65,12.37,2.45,12.47,2.45l0,1Z"/><path class="cls-43" d="M118.72,481.06v-1c3.43,0,7.7-2.83,7.74-2.86l.56.83C126.83,478.16,122.45,481.06,118.72,481.06Z"/><path class="cls-44" d="M429.8,380.81s2.67-5,6.17-7l37.67,21.76L464.3,407Z"/><path class="cls-35" d="M468.32,355l-.7-.71c1.94-1.94,15-3.57,16.44-3.75l.12,1C478.51,352.26,469.61,353.75,468.32,355Z"/><path class="cls-35" d="M494,354.74c-1.39,0-1.52-.19-1.63-.35a.58.58,0,0,1,.09-.77l.71.71a.41.41,0,0,0,.08-.36.36.36,0,0,0-.2-.27c1.85.69,34.51-3.93,36.74-4.53v0c.14,0,.57-.05.68.37l-.28.58c-.42.2-11.19,1.79-18.63,2.79C500.61,354.34,496,354.74,494,354.74Z"/><path class="cls-35" d="M496.65,358.81a13.91,13.91,0,0,1-4-.37l.37-.93c3.79,1.53,39.32-2.56,40.89-4.7a.17.17,0,0,0,0,.1l1,.07a1.12,1.12,0,0,1-.59.8C531,355.82,506.75,358.81,496.65,358.81Z"/><path class="cls-35" d="M506.85,368c-3.94,0-8-.56-9.1-1.28a.83.83,0,0,1-.47-1l1,.29a.28.28,0,0,0,0-.22c.26.31,2.34.86,5.94,1.08,4.89.3,9.1-.22,10.23-1.25l.15-.1,17-6.81a8.07,8.07,0,0,1,2,0,.64.64,0,0,1,.41.42c.14.44-.19,1.19-1,2.24l-.81-.59a7.23,7.23,0,0,0,.71-1.15c-.32,0-.81,0-1.25,0L515,366.49C513.65,367.62,510.28,368,506.85,368Z"/><path class="cls-35" d="M470.51,365.43l-.41-.91c.2-.09,4.9-2.33,4.62-8.69l1,0A10,10,0,0,1,470.51,365.43Z"/><path class="cls-35" d="M457.94,373l-.94-.33c.14-.4,3.66-9.84,21.35-8.16.08,0,3.77.61,5.41-1l.08-.08.11,0c.25-.09,6.15-2.07,9.66.61l-.61.79c-2.85-2.18-7.85-.74-8.62-.49-2,1.9-6,1.25-6.16,1.22C461.34,363.85,458,372.88,457.94,373Z"/><path class="cls-35" d="M498,368.5l-.92-.39c.32-.77.61-2,.29-2.32-.07-.07-6.06-7.14-5.25-8.56a17.41,17.41,0,0,0,.18-4.89l1-.06c.05.74.23,4.49-.31,5.44,0,.89,4.21,6.49,5.08,7.36S498.17,368.09,498,368.5Z"/></g><g class="cls-45"><path class="cls-37" d="M190,275.55s-6.77,14.38-4.3,22.7S202.88,312,202.88,312s37.07,22.44,68.87,18.45,21.38-11,21.38-11l-55.79-45.94Z"/><path class="cls-37" d="M298,272s-5.18,10.44-3,17.43,15.57,10.15,15.57,10.15l10.35.39,104,5.36s7.43-21.13-51.76-33.44S298,272,298,272Z"/><path class="cls-46" d="M202.2,14.2l2.37,26.31s-29.12,70.66-9.27,203l-6,40.43s24.06,11.27,41.43,15.9a72.35,72.35,0,0,0,32,1.2s-39.64-43.48-45.34-49.63L267.07,11S238.58-46.54,202.2,14.2Z"/><path class="cls-46" d="M284.55,12.39S258.79,82.93,300,217.08c0,0,5.91,55.23-2.05,54.93s81.06,6.76,86.9,7-44.4-20.8-48.8-31.06-6.29-201.14-.33-218.46a234.54,234.54,0,0,0,8.72-34.22S289.46,1.67,284.55,12.39Z"/><path class="cls-37" d="M172.66-198.52S155.05-125.95,157-106.07s4.68,52.17,34,145.94c0,0,78.26,32.39,150.2-.8,0,0,6.29-1.86,10.91-43.82s12.42-142.59-8.72-187.46S172.66-198.52,172.66-198.52Z"/></g><path class="cls-47" d="M559.7,229.33l-2.06.17,6.09,16.8.44,1.47h.09l.44-1.47,6.07-16.8-2.06-.17V228h5.72v1.35l-1.71.14L565.06,250h-1.71l-7.68-20.55-1.69-.14V228h5.72Z"/><path class="cls-47" d="M587.29,250c-.12-.55-.2-1-.25-1.44a9.87,9.87,0,0,1-.08-1.22,7.18,7.18,0,0,1-2.42,2.13,6.8,6.8,0,0,1-3.41.85,5.21,5.21,0,0,1-3.72-1.24,4.4,4.4,0,0,1-1.32-3.36,4.15,4.15,0,0,1,2-3.61,9.31,9.31,0,0,1,5.29-1.33H587v-2.16a3.48,3.48,0,0,0-1.13-2.76,4.61,4.61,0,0,0-3.15-1,7.84,7.84,0,0,0-2.49.38,5.66,5.66,0,0,0-1.89,1l-.15,2.2h-1.5l0-3.15a9.21,9.21,0,0,1,2.72-1.42,10,10,0,0,1,3.36-.55,6.57,6.57,0,0,1,4.36,1.38,4.85,4.85,0,0,1,1.65,3.95v8.05c0,.33,0,.66,0,1a6.53,6.53,0,0,0,.09.9l1.64.11V250Zm-6-1.29a6.62,6.62,0,0,0,3.47-.9,5.35,5.35,0,0,0,2.16-2.35V242.2h-3.65a6.81,6.81,0,0,0-3.94,1,3.05,3.05,0,0,0-1.48,2.58,2.68,2.68,0,0,0,.92,2.12A3.67,3.67,0,0,0,581.33,248.73Z"/><path class="cls-47" d="M592.7,235v-1.35h4.07l.17,2.71a5.62,5.62,0,0,1,2.1-2.22,5.94,5.94,0,0,1,3.13-.79,5.19,5.19,0,0,1,3.14.92,5,5,0,0,1,1.8,2.79,6.36,6.36,0,0,1,2.11-2.72,5.55,5.55,0,0,1,3.34-1,5,5,0,0,1,4.05,1.74q1.42,1.74,1.43,5.39v8l2.47.21V250h-6.77v-1.33l2.47-.21v-8c0-2-.36-3.44-1.07-4.28a3.69,3.69,0,0,0-3-1.24,4,4,0,0,0-3.27,1.34,6.5,6.5,0,0,0-1.41,3.44,1.77,1.77,0,0,0,0,.23v8.56l2.47.2V250h-6.75v-1.33l2.47-.2v-8.05a6.55,6.55,0,0,0-1.09-4.25,3.68,3.68,0,0,0-3-1.27,4.56,4.56,0,0,0-3.07,1,5.26,5.26,0,0,0-1.58,2.63v10l2.47.2V250H592.7v-1.33l2.47-.2v-13.3Z"/><path class="cls-47" d="M622.6,241.59a8.8,8.8,0,0,1,2-5.93,7.12,7.12,0,0,1,10.52,0,8.8,8.8,0,0,1,2,5.93v.5a8.81,8.81,0,0,1-2,5.94,6.54,6.54,0,0,1-5.24,2.31,6.61,6.61,0,0,1-5.28-2.31,8.81,8.81,0,0,1-2-5.94Zm1.81.5a7.78,7.78,0,0,0,1.44,4.78,5.07,5.07,0,0,0,8,0,7.84,7.84,0,0,0,1.43-4.78v-.5a7.77,7.77,0,0,0-1.44-4.75,5,5,0,0,0-8,0,7.77,7.77,0,0,0-1.44,4.75Z"/><path class="cls-47" d="M651.91,238.7h-1.48l-.21-2.32a4.59,4.59,0,0,0-1.72-1.1,6.7,6.7,0,0,0-2.38-.4,4.47,4.47,0,0,0-3,.86,2.58,2.58,0,0,0-1,2,2.37,2.37,0,0,0,.86,1.87,8.15,8.15,0,0,0,3.41,1.3,11.18,11.18,0,0,1,4.37,1.78,3.7,3.7,0,0,1,1.46,3.07,4,4,0,0,1-1.66,3.31,7.07,7.07,0,0,1-4.38,1.26,10.17,10.17,0,0,1-3.31-.51,7.88,7.88,0,0,1-2.58-1.43v-3.3h1.47l.26,2.33a4.16,4.16,0,0,0,1.83,1.06,8.57,8.57,0,0,0,2.33.32,5,5,0,0,0,3.1-.86,2.56,2.56,0,0,0,1.14-2.09,2.64,2.64,0,0,0-1-2,7.59,7.59,0,0,0-3.41-1.41,11.6,11.6,0,0,1-4.34-1.69,3.45,3.45,0,0,1-1.41-2.94,4,4,0,0,1,1.58-3.18,6.46,6.46,0,0,1,4.2-1.29,9.58,9.58,0,0,1,3.29.55,6.81,6.81,0,0,1,2.43,1.49Z"/><path class="cls-47" d="M670.31,250.34a6.6,6.6,0,0,1-5.12-2.26,8.32,8.32,0,0,1-2-5.76v-.84a8.55,8.55,0,0,1,2-5.82,6.25,6.25,0,0,1,4.88-2.32,6.08,6.08,0,0,1,4.74,1.91,7.28,7.28,0,0,1,1.73,5.08v1.55H665v.44a7.19,7.19,0,0,0,1.48,4.62,4.68,4.68,0,0,0,3.87,1.87,7.88,7.88,0,0,0,2.87-.47,5.64,5.64,0,0,0,2.05-1.35l.77,1.25a6.75,6.75,0,0,1-2.33,1.53A9,9,0,0,1,670.31,250.34Zm-.25-15.46a4.34,4.34,0,0,0-3.36,1.54,6.55,6.55,0,0,0-1.6,3.85l0,.08h9.6v-.46a5.23,5.23,0,0,0-1.26-3.57A4.29,4.29,0,0,0,670.06,234.88Z"/><path class="cls-47" d="M679.4,248.69l1.83-.17,5.18-6.84-4.93-6.52-1.85-.17v-1.35h5.55V235l-1.69.09,3.91,5.25,3.92-5.26-1.68-.08v-1.35h5.55V235l-1.83.17-4.93,6.52,5.16,6.84,1.84.17V250h-5.54v-1.33l1.68-.08L687.41,243l-4.15,5.57,1.68.08V250H679.4Z"/><path class="cls-47" d="M697.33,235v-1.35h4l.22,2.55a5.72,5.72,0,0,1,5.16-2.85,5.36,5.36,0,0,1,4.62,2.35A10.69,10.69,0,0,1,713,242v.32a9.44,9.44,0,0,1-1.67,5.86,5.44,5.44,0,0,1-4.58,2.19,6.53,6.53,0,0,1-3-.66,5.54,5.54,0,0,1-2.12-1.87v7l2.47.2v1.35h-6.73V255l2.46-.2V235.19Zm13.83,7a9.38,9.38,0,0,0-1.24-5.09,4,4,0,0,0-3.63-2,4.77,4.77,0,0,0-3,.87,5.4,5.4,0,0,0-1.72,2.26v7.87a5,5,0,0,0,1.8,2.12,5.26,5.26,0,0,0,2.93.77,4.13,4.13,0,0,0,3.61-1.79,8.2,8.2,0,0,0,1.23-4.73Z"/><path class="cls-47" d="M715.41,227.76v-1.35h4.27v22.08l2.47.2V250h-6.74v-1.33l2.47-.2V228Z"/><path class="cls-47" d="M724.71,241.59a8.8,8.8,0,0,1,2-5.93,7.12,7.12,0,0,1,10.52,0,8.8,8.8,0,0,1,2,5.93v.5a8.8,8.8,0,0,1-2,5.94,7.16,7.16,0,0,1-10.53,0,8.81,8.81,0,0,1-2-5.94Zm1.81.5a7.78,7.78,0,0,0,1.44,4.78,4.7,4.7,0,0,0,4,1.94,4.65,4.65,0,0,0,4-1.94,7.78,7.78,0,0,0,1.44-4.78v-.5a7.77,7.77,0,0,0-1.45-4.75,5,5,0,0,0-8,0,7.77,7.77,0,0,0-1.44,4.75Z"/><path class="cls-47" d="M746.07,233.64l.22,2.73v.19a5.9,5.9,0,0,1,1.9-2.36,4.82,4.82,0,0,1,2.86-.86,4.91,4.91,0,0,1,.67,0l.54.12L752,235.2l-1.35-.09a4.11,4.11,0,0,0-2.81,1,5.36,5.36,0,0,0-1.57,2.64v9.78l2.47.2V250H742v-1.33l2.47-.2v-13.3L742,235v-1.35h4.05Z"/><path class="cls-47" d="M765.91,250c-.12-.55-.21-1-.26-1.44a9.87,9.87,0,0,1-.07-1.22,7.37,7.37,0,0,1-2.42,2.13,6.82,6.82,0,0,1-3.41.85A5.18,5.18,0,0,1,756,249.1a4.4,4.4,0,0,1-1.32-3.36,4.16,4.16,0,0,1,1.95-3.61,9.34,9.34,0,0,1,5.3-1.33h3.62v-2.16a3.52,3.52,0,0,0-1.13-2.76,4.62,4.62,0,0,0-3.16-1,7.93,7.93,0,0,0-2.49.38,5.51,5.51,0,0,0-1.88,1l-.15,2.2h-1.5v-3.15a9.33,9.33,0,0,1,2.72-1.42,10.14,10.14,0,0,1,3.37-.55,6.57,6.57,0,0,1,4.36,1.38,4.85,4.85,0,0,1,1.65,3.95v8.05c0,.33,0,.66,0,1a8.54,8.54,0,0,0,.1.9l1.64.11V250Zm-6-1.29a6.59,6.59,0,0,0,3.46-.9,5.43,5.43,0,0,0,2.17-2.35V242.2h-3.65a6.79,6.79,0,0,0-3.94,1,3,3,0,0,0-1.48,2.58,2.68,2.68,0,0,0,.92,2.12A3.67,3.67,0,0,0,760,248.73Z"/><path class="cls-47" d="M775.63,233.64l.22,2.73v.19a5.84,5.84,0,0,1,1.91-2.36,4.79,4.79,0,0,1,2.85-.86,4.91,4.91,0,0,1,.67,0l.54.12-.24,1.69-1.35-.09a4.11,4.11,0,0,0-2.81,1,5.36,5.36,0,0,0-1.57,2.64v9.78l2.47.2V250h-6.73v-1.33l2.46-.2v-13.3l-2.46-.2v-1.35h4Z"/><path class="cls-47" d="M791.6,242.13a10.91,10.91,0,0,1,1.69-6.37,5.42,5.42,0,0,1,4.71-2.42,5.83,5.83,0,0,1,2.56.54,5.24,5.24,0,0,1,1.91,1.57l.24-1.81h2.57V254l2.47.43v1.92h-7.92V254.4l2.47-.43v-5.49a5.18,5.18,0,0,1-1.87,1.39,6.17,6.17,0,0,1-2.46.47,5.57,5.57,0,0,1-4.68-2.17,9.05,9.05,0,0,1-1.69-5.72Zm3,.32a7.21,7.21,0,0,0,1,4,3.49,3.49,0,0,0,3.14,1.54,3.83,3.83,0,0,0,2.11-.55,4.34,4.34,0,0,0,1.46-1.54V237.7a4.59,4.59,0,0,0-1.47-1.47,3.85,3.85,0,0,0-2.07-.54,3.38,3.38,0,0,0-3.16,1.81,9.34,9.34,0,0,0-1,4.63Z"/><path class="cls-47" d="M820.78,247.6a5.31,5.31,0,0,1-4.8,2.74,5.25,5.25,0,0,1-4.16-1.71q-1.5-1.71-1.5-5.33V236l-1.88-.42v-1.93h4.86v9.69a6,6,0,0,0,.78,3.6,2.84,2.84,0,0,0,2.4,1,4.9,4.9,0,0,0,2.63-.65,4,4,0,0,0,1.57-1.82V236l-2.2-.42v-1.93h5.18v14.05l1.87.42V250H821Z"/><path class="cls-47" d="M838.58,250c-.09-.44-.16-.84-.21-1.19s-.09-.71-.11-1.06a7.26,7.26,0,0,1-2.15,1.84,5.64,5.64,0,0,1-2.76.73,5.52,5.52,0,0,1-3.9-1.25,4.62,4.62,0,0,1-1.33-3.52A4.07,4.07,0,0,1,830,242a9.11,9.11,0,0,1,5.17-1.27h3.07V238.8a2.93,2.93,0,0,0-.91-2.27,3.58,3.58,0,0,0-2.53-.84,6.25,6.25,0,0,0-2,.28,4,4,0,0,0-1.39.79l-.32,1.73h-2.3v-3.18a8.82,8.82,0,0,1,2.71-1.43,10.66,10.66,0,0,1,3.45-.54,7,7,0,0,1,4.52,1.42,5,5,0,0,1,1.72,4.08v7.88c0,.21,0,.42,0,.62s0,.41,0,.61l1.21.16V250Zm-4.8-2.18a5.32,5.32,0,0,0,2.71-.71,4.34,4.34,0,0,0,1.76-1.71v-2.69h-3.18a4.57,4.57,0,0,0-2.9.84,2.56,2.56,0,0,0-1.07,2.06,2,2,0,0,0,.67,1.64A3,3,0,0,0,833.78,247.84Z"/><path class="cls-47" d="M850.18,229.69v3.95h3.1v2.21h-3.1v10a2.26,2.26,0,0,0,.47,1.62,1.75,1.75,0,0,0,1.27.47,7.38,7.38,0,0,0,.88-.07c.33,0,.61-.09.83-.14l.41,2a4.06,4.06,0,0,1-1.24.45,8.3,8.3,0,0,1-1.64.17,3.87,3.87,0,0,1-2.89-1.1,4.75,4.75,0,0,1-1.08-3.44v-10h-2.58v-2.21h2.58v-3.95Z"/><path class="cls-47" d="M856.32,235.57v-1.93h5.13l.29,2.38a5.84,5.84,0,0,1,1.72-2,4,4,0,0,1,2.34-.71,6.09,6.09,0,0,1,.72,0,4.65,4.65,0,0,1,.56.12l-.39,2.77-1.69-.09a3.43,3.43,0,0,0-2,.55,3.63,3.63,0,0,0-1.24,1.55v9.4l2.47.42V250h-7.92v-1.91l2.47-.42V236Z"/><path class="cls-47" d="M868.86,241.68a9,9,0,0,1,2-6,7.28,7.28,0,0,1,10.71,0,9,9,0,0,1,2,6V242a9,9,0,0,1-2,6,7.32,7.32,0,0,1-10.72,0,9,9,0,0,1-2-6Zm3,.33a7.77,7.77,0,0,0,1.09,4.3,3.65,3.65,0,0,0,3.27,1.7,3.61,3.61,0,0,0,3.22-1.7,7.69,7.69,0,0,0,1.11-4.3v-.33a7.72,7.72,0,0,0-1.11-4.28,3.63,3.63,0,0,0-3.25-1.71,3.58,3.58,0,0,0-3.24,1.71,7.8,7.8,0,0,0-1.09,4.28Z"/><path class="cls-47" d="M575.81,269.57h-.08l-7.13,17.66h-2l-7.13-17.65-.08,0,.31,8.91v6.39l2.46.42v1.91h-7.91v-1.91l2.46-.42V267.53l-2.46-.43v-1.92h6.28l7,17.91h.09l7-17.91H581v1.92l-2.47.43v17.36l2.47.42v1.91h-7.92v-1.91l2.47-.42V278.5Z"/><path class="cls-47" d="M583.38,285.31l2.46-.42v-11.7l-2.46-.42v-1.93h5.45v14.05l2.46.42v1.91h-7.91Zm5.45-18.66h-3v-3h3Z"/><path class="cls-47" d="M600.92,285.21a4,4,0,0,0,2.61-.92,2.8,2.8,0,0,0,1.13-2.25h2.68l0,.1a4.6,4.6,0,0,1-1.89,3.76,6.88,6.88,0,0,1-4.56,1.64,6.63,6.63,0,0,1-5.46-2.33,9.07,9.07,0,0,1-1.88-5.86v-.64a9,9,0,0,1,1.89-5.83,6.6,6.6,0,0,1,5.45-2.34,9.18,9.18,0,0,1,3.53.65,7.18,7.18,0,0,1,2.6,1.79l.14,3.63h-2.38l-.65-2.57a3.82,3.82,0,0,0-1.36-.83,5.08,5.08,0,0,0-1.88-.32,3.58,3.58,0,0,0-3.35,1.69,7.92,7.92,0,0,0-1,4.13v.64a8,8,0,0,0,1,4.19A3.6,3.6,0,0,0,600.92,285.21Z"/><path class="cls-47" d="M610.27,272.77v-1.93h5.14l.28,2.38a5.84,5.84,0,0,1,1.72-2,4,4,0,0,1,2.34-.71,6.09,6.09,0,0,1,.72,0,4.48,4.48,0,0,1,.57.12l-.4,2.77-1.69-.09a3.43,3.43,0,0,0-2,.55,3.7,3.7,0,0,0-1.24,1.55v9.4l2.47.42v1.91h-7.92v-1.91l2.47-.42v-11.7Z"/><path class="cls-47" d="M622.81,278.88a9,9,0,0,1,2-6,7.28,7.28,0,0,1,10.71,0,9,9,0,0,1,2,6v.33a9,9,0,0,1-2,6,7.32,7.32,0,0,1-10.72,0,9,9,0,0,1-2-6Zm3,.33a7.69,7.69,0,0,0,1.1,4.3,3.94,3.94,0,0,0,6.48,0,7.69,7.69,0,0,0,1.11-4.3v-.33a7.72,7.72,0,0,0-1.11-4.28,3.62,3.62,0,0,0-3.25-1.71,3.58,3.58,0,0,0-3.24,1.71,7.8,7.8,0,0,0-1.09,4.28Z"/><path class="cls-47" d="M639.59,285.31l2.47-.42v-11.7l-2.47-.42v-1.93h5.15l.2,2.14a5.25,5.25,0,0,1,2-1.8,6.1,6.1,0,0,1,2.87-.64,5,5,0,0,1,2.81.76,4.54,4.54,0,0,1,1.76,2.27,6.07,6.07,0,0,1,2.05-2.21,5.29,5.29,0,0,1,3-.82,4.91,4.91,0,0,1,4,1.72,7.84,7.84,0,0,1,1.45,5.17v7.46l2.47.42v1.91h-7.93v-1.91l2.47-.42V277.4A5.4,5.4,0,0,0,661,274a3,3,0,0,0-2.46-1,3.16,3.16,0,0,0-2.51,1.1,4.76,4.76,0,0,0-1.1,2.76v8.07l2.47.42v1.91h-7.92v-1.91l2.47-.42V277.4a5.37,5.37,0,0,0-.85-3.37,3,3,0,0,0-2.48-1.07,4.13,4.13,0,0,0-2.24.56A3.74,3.74,0,0,0,645,275.1v9.79l2.47.42v1.91h-7.92Z"/><path class="cls-47" d="M681.19,284.8a5.31,5.31,0,0,1-4.8,2.74,5.23,5.23,0,0,1-4.16-1.71q-1.5-1.71-1.5-5.33v-7.31l-1.88-.42v-1.93h4.86v9.69a6.1,6.1,0,0,0,.77,3.6,2.88,2.88,0,0,0,2.41,1,4.9,4.9,0,0,0,2.63-.65,3.93,3.93,0,0,0,1.56-1.82v-9.46l-2.19-.42v-1.93h5.18v14.05l1.87.42v1.91h-4.55Z"/><path class="cls-47" d="M687.86,285.31l2.47-.42v-11.7l-2.47-.42v-1.93H693l.21,2.44a5.91,5.91,0,0,1,2-2,5.47,5.47,0,0,1,2.81-.72,5.37,5.37,0,0,1,4.1,1.55,6.81,6.81,0,0,1,1.45,4.79v8l2.47.42v1.91h-7.92v-1.91l2.47-.42v-7.95a4.43,4.43,0,0,0-.86-3.07,3.45,3.45,0,0,0-2.61-.91,4.22,4.22,0,0,0-2.27.62,4.57,4.57,0,0,0-1.59,1.7v9.61l2.47.42v1.91h-7.92Z"/><path class="cls-47" d="M719.14,285.27a5.27,5.27,0,0,1-2,1.69,5.92,5.92,0,0,1-2.69.58,5.57,5.57,0,0,1-4.68-2.17,9.05,9.05,0,0,1-1.69-5.72v-.32a10.91,10.91,0,0,1,1.69-6.37,5.42,5.42,0,0,1,4.71-2.42,5.85,5.85,0,0,1,2.57.54,5.34,5.34,0,0,1,1.9,1.55V266l-2.47-.42v-1.92H722v21.28l2.46.42v1.91h-5Zm-8-5.62a7,7,0,0,0,1,4,3.53,3.53,0,0,0,3.14,1.5,3.91,3.91,0,0,0,2.24-.61,4.67,4.67,0,0,0,1.5-1.71v-7.6a4.72,4.72,0,0,0-1.5-1.63,4,4,0,0,0-2.21-.61,3.39,3.39,0,0,0-3.16,1.77,9.19,9.19,0,0,0-1,4.6Z"/><path class="cls-47" d="M726.72,278.88a9,9,0,0,1,2-6,7.28,7.28,0,0,1,10.71,0,9,9,0,0,1,2,6v.33a8.94,8.94,0,0,1-2,6,7.31,7.31,0,0,1-10.71,0,9,9,0,0,1-2-6Zm3,.33a7.78,7.78,0,0,0,1.1,4.3,3.95,3.95,0,0,0,6.49,0,7.78,7.78,0,0,0,1.1-4.3v-.33a7.8,7.8,0,0,0-1.1-4.28,3.64,3.64,0,0,0-3.26-1.71,3.6,3.6,0,0,0-3.24,1.71,7.8,7.8,0,0,0-1.09,4.28Z"/><path class="cls-47" d="M756.63,276h-2.24l-.48-2a4,4,0,0,0-1.37-.82,5.24,5.24,0,0,0-1.87-.31,3.45,3.45,0,0,0-2.36.69,2.19,2.19,0,0,0-.78,1.68,1.86,1.86,0,0,0,.69,1.53,6.84,6.84,0,0,0,2.76,1,12.07,12.07,0,0,1,4.62,1.81,3.64,3.64,0,0,1,1.52,3.07,4.22,4.22,0,0,1-1.77,3.52,7.36,7.36,0,0,1-4.61,1.35,11.86,11.86,0,0,1-3.34-.43,9.12,9.12,0,0,1-2.65-1.25l0-3.74H747l.56,2.2a3.17,3.17,0,0,0,1.4.68,7.86,7.86,0,0,0,1.81.21,4.28,4.28,0,0,0,2.49-.64,2,2,0,0,0,.9-1.69,2,2,0,0,0-.75-1.62,7,7,0,0,0-2.83-1.11,11.82,11.82,0,0,1-4.5-1.77,3.56,3.56,0,0,1-1.51-3,4.25,4.25,0,0,1,1.7-3.4,6.7,6.7,0,0,1,4.43-1.41A10.52,10.52,0,0,1,754,271a7,7,0,0,1,2.47,1.34Z"/><path class="cls-47" d="M767.82,278.32a22.53,22.53,0,0,1,2.09-9.85q2.1-4.37,4.69-5.83h.09l.39,1.11a12.34,12.34,0,0,0-3.83,5.53,23.55,23.55,0,0,0-1.63,9v.3a23.46,23.46,0,0,0,1.63,9,12.92,12.92,0,0,0,3.83,5.6l-.39,1.06h-.09c-1.75-1-3.31-2.94-4.7-5.78a22.32,22.32,0,0,1-2.08-9.9Z"/><path class="cls-47" d="M776.93,272.33v-1.49h2.71v-2.39a5.41,5.41,0,0,1,1.24-3.81,4.48,4.48,0,0,1,3.47-1.35,7.07,7.07,0,0,1,1,.08,10.08,10.08,0,0,1,1,.21l-.23,1.5c-.24-.06-.49-.11-.74-.15a7.53,7.53,0,0,0-.89-.05,2.81,2.81,0,0,0-2.28.94,3.94,3.94,0,0,0-.8,2.63v2.39h3.91v1.49h-3.91v13.36l2.47.2v1.33h-6.75v-1.33l2.47-.2V272.33Z"/><path class="cls-47" d="M799.47,287.22c-.12-.55-.21-1-.26-1.44a9.87,9.87,0,0,1-.07-1.22,7.2,7.2,0,0,1-2.43,2.13,6.78,6.78,0,0,1-3.4.85,5.22,5.22,0,0,1-3.73-1.24,4.43,4.43,0,0,1-1.31-3.36,4.16,4.16,0,0,1,2-3.61,9.34,9.34,0,0,1,5.3-1.33h3.62v-2.16a3.52,3.52,0,0,0-1.13-2.76,4.64,4.64,0,0,0-3.16-1,7.84,7.84,0,0,0-2.49.38,5.51,5.51,0,0,0-1.88,1l-.15,2.2h-1.5v-3.15a9.21,9.21,0,0,1,2.72-1.42,10.09,10.09,0,0,1,3.37-.55,6.58,6.58,0,0,1,4.36,1.38,4.85,4.85,0,0,1,1.65,3.95v8.05c0,.33,0,.66,0,1a6.52,6.52,0,0,0,.1.9l1.63.11v1.33Zm-6-1.29A6.6,6.6,0,0,0,797,285a5.43,5.43,0,0,0,2.17-2.35V279.4h-3.65a6.84,6.84,0,0,0-4,1,3,3,0,0,0-1.47,2.58,2.7,2.7,0,0,0,.91,2.13A3.67,3.67,0,0,0,793.5,285.93Z"/><path class="cls-47" d="M804.87,272.19v-1.35h4.07l.17,2.71a5.77,5.77,0,0,1,2.1-2.22,6,6,0,0,1,3.14-.79,5.18,5.18,0,0,1,3.13.92,5,5,0,0,1,1.8,2.79,6.44,6.44,0,0,1,2.11-2.72,5.57,5.57,0,0,1,3.34-1,4.94,4.94,0,0,1,4,1.74q1.43,1.74,1.43,5.39v8l2.47.21v1.33h-6.77v-1.33l2.47-.21v-8c0-2-.36-3.44-1.07-4.28a3.69,3.69,0,0,0-3-1.24,4,4,0,0,0-3.26,1.34,6.43,6.43,0,0,0-1.42,3.44,1.77,1.77,0,0,0,0,.23c0,.07,0,.16,0,.27v8.29l2.46.2v1.33h-6.75v-1.33l2.47-.2v-8.05a6.62,6.62,0,0,0-1.08-4.25,3.7,3.7,0,0,0-3-1.27,4.51,4.51,0,0,0-3.06,1,5.19,5.19,0,0,0-1.58,2.63v10l2.46.2v1.33h-6.75v-1.33l2.47-.2v-13.3Z"/><path class="cls-47" d="M834.81,272.19v-1.35h4.27v14.85l2.47.2v1.33h-6.74v-1.33l2.47-.2v-13.3Zm5-7.42h2.22l.05.09-3.77,3.94h-1.62Z"/><path class="cls-47" d="M844.2,265v-1.35h4.27v22.08l2.46.2v1.33H844.2v-1.33l2.47-.2V265.15Z"/><path class="cls-47" d="M853.67,285.89l2.47-.2v-13.3l-2.47-.2v-1.35h4.27v14.85l2.47.2v1.33h-6.74Zm4.27-19.74h-1.8v-2.54h1.8Z"/><path class="cls-47" d="M874.76,287.22c-.12-.55-.21-1-.26-1.44a9.87,9.87,0,0,1-.07-1.22,7.2,7.2,0,0,1-2.43,2.13,6.76,6.76,0,0,1-3.4.85,5.22,5.22,0,0,1-3.73-1.24,4.43,4.43,0,0,1-1.31-3.36,4.16,4.16,0,0,1,2-3.61,9.34,9.34,0,0,1,5.3-1.33h3.62v-2.16a3.52,3.52,0,0,0-1.13-2.76,4.64,4.64,0,0,0-3.16-1,7.84,7.84,0,0,0-2.49.38,5.51,5.51,0,0,0-1.88,1l-.15,2.2h-1.5v-3.15a9.33,9.33,0,0,1,2.72-1.42,10.09,10.09,0,0,1,3.37-.55,6.58,6.58,0,0,1,4.36,1.38,4.85,4.85,0,0,1,1.65,3.95v8.05c0,.33,0,.66,0,1a8.54,8.54,0,0,0,.1.9l1.63.11v1.33Zm-6-1.29a6.59,6.59,0,0,0,3.46-.9,5.43,5.43,0,0,0,2.17-2.35V279.4h-3.65a6.79,6.79,0,0,0-3.94,1,3,3,0,0,0-1.48,2.58,2.7,2.7,0,0,0,.91,2.13A3.71,3.71,0,0,0,868.8,285.93Z"/><path class="cls-47" d="M883.19,286.5a6.88,6.88,0,0,1-.57,2.72,6.6,6.6,0,0,1-1.55,2.26l-1.07-.79a8.28,8.28,0,0,0,1-2,6.6,6.6,0,0,0,.34-2.18v-2.15h1.8Z"/><path class="cls-47" d="M893.77,272.33v-1.49h2.71v-2.39a5.41,5.41,0,0,1,1.24-3.81,4.48,4.48,0,0,1,3.47-1.35,7.07,7.07,0,0,1,1,.08,10.08,10.08,0,0,1,1,.21l-.23,1.5c-.24-.06-.48-.11-.74-.15a7.53,7.53,0,0,0-.89-.05,2.81,2.81,0,0,0-2.28.94,3.93,3.93,0,0,0-.79,2.63v2.39h3.9v1.49h-3.9v13.36l2.46.2v1.33H894v-1.33l2.47-.2V272.33Z"/><path class="cls-47" d="M911.86,287.54a6.59,6.59,0,0,1-5.12-2.26,8.31,8.31,0,0,1-2-5.76v-.84a8.5,8.5,0,0,1,2-5.82,6.22,6.22,0,0,1,4.88-2.32,6.05,6.05,0,0,1,4.73,1.91,7.25,7.25,0,0,1,1.73,5.08v1.55H906.52v.44a7.24,7.24,0,0,0,1.47,4.62,4.7,4.7,0,0,0,3.87,1.87,8,8,0,0,0,2.88-.47,5.69,5.69,0,0,0,2-1.35l.77,1.25a6.57,6.57,0,0,1-2.33,1.53A9,9,0,0,1,911.86,287.54Zm-.24-15.46a4.36,4.36,0,0,0-3.37,1.54,6.62,6.62,0,0,0-1.6,3.85l0,.08h9.6v-.46a5.23,5.23,0,0,0-1.26-3.57A4.27,4.27,0,0,0,911.62,272.08Z"/><path class="cls-47" d="M921.2,285.89l2.47-.2v-13.3l-2.47-.2v-1.35h4.27v14.85l2.46.2v1.33H921.2Zm4.27-19.74h-1.8v-2.54h1.8Z"/><path class="cls-47" d="M934.9,270.84l.22,2.73v.19a5.9,5.9,0,0,1,1.9-2.36,4.84,4.84,0,0,1,2.86-.86,4.91,4.91,0,0,1,.67,0l.54.12-.24,1.69-1.35-.09a4.11,4.11,0,0,0-2.81,1,5.35,5.35,0,0,0-1.57,2.65v9.77l2.47.2v1.33h-6.73v-1.33l2.46-.2v-13.3l-2.46-.2v-1.35h4Z"/><path class="cls-47" d="M954.74,287.22c-.12-.55-.21-1-.26-1.44a9.87,9.87,0,0,1-.07-1.22,7.17,7.17,0,0,1-2.42,2.13,6.82,6.82,0,0,1-3.41.85,5.21,5.21,0,0,1-3.72-1.24,4.4,4.4,0,0,1-1.32-3.36,4.16,4.16,0,0,1,2-3.61,9.34,9.34,0,0,1,5.3-1.33h3.62v-2.16a3.52,3.52,0,0,0-1.13-2.76,4.62,4.62,0,0,0-3.16-1,7.82,7.82,0,0,0-2.48.38,5.56,5.56,0,0,0-1.89,1l-.15,2.2h-1.5l0-3.15a9.15,9.15,0,0,1,2.71-1.42,10.14,10.14,0,0,1,3.37-.55,6.57,6.57,0,0,1,4.36,1.38,4.85,4.85,0,0,1,1.65,3.95v8.05c0,.33,0,.66,0,1a8.54,8.54,0,0,0,.1.9l1.64.11v1.33Zm-6-1.29a6.56,6.56,0,0,0,3.46-.9,5.43,5.43,0,0,0,2.17-2.35V279.4h-3.65a6.81,6.81,0,0,0-3.94,1,3,3,0,0,0-1.48,2.58,2.71,2.71,0,0,0,.92,2.13A3.67,3.67,0,0,0,948.78,285.93Z"/><path class="cls-47" d="M967.71,265v-1.35H972v22.08l2.47.2v1.33h-6.74v-1.33l2.47-.2V265.15Z"/><path class="cls-47" d="M977.19,285.89l2.47-.2v-13.3l-2.47-.2v-1.35h4.27v14.85l2.47.2v1.33h-6.74Zm4.27-19.74h-1.8v-2.54h1.8Z"/><path class="cls-47" d="M991.72,272.19l-2,.15,4.08,10.78.53,1.92h.09l.58-1.92,4-10.78-2-.15v-1.35h5.51v1.35l-1.6.14-5.78,14.89h-1.46l-5.79-14.89-1.61-.14v-1.35h5.51Z"/><path class="cls-47" d="M1008.37,270.84l.23,2.73v.19a5.74,5.74,0,0,1,1.9-2.36,5,5,0,0,1,3.52-.81l.54.12-.24,1.69-1.35-.09a4.13,4.13,0,0,0-2.81,1,5.26,5.26,0,0,0-1.56,2.65v9.77l2.46.2v1.33h-6.73v-1.33l2.47-.2v-13.3l-2.47-.2v-1.35h4Z"/><path class="cls-47" d="M1023.84,287.54a6.59,6.59,0,0,1-5.12-2.26,8.31,8.31,0,0,1-2-5.76v-.84a8.5,8.5,0,0,1,2-5.82,6.22,6.22,0,0,1,4.88-2.32,6.09,6.09,0,0,1,4.74,1.91,7.29,7.29,0,0,1,1.72,5.08v1.55H1018.5v.44a7.24,7.24,0,0,0,1.47,4.62,4.7,4.7,0,0,0,3.87,1.87,8,8,0,0,0,2.88-.47,5.69,5.69,0,0,0,2-1.35l.77,1.25a6.57,6.57,0,0,1-2.33,1.53A9,9,0,0,1,1023.84,287.54Zm-.24-15.46a4.36,4.36,0,0,0-3.37,1.54,6.62,6.62,0,0,0-1.6,3.85l0,.08h9.6v-.46a5.23,5.23,0,0,0-1.26-3.57A4.27,4.27,0,0,0,1023.6,272.08Z"/><path class="cls-47" d="M1035.93,286.5a7,7,0,0,1-.56,2.72,6.62,6.62,0,0,1-1.56,2.26l-1.07-.79a8.28,8.28,0,0,0,1-2,6.6,6.6,0,0,0,.34-2.18v-2.15h1.8Z"/><path class="cls-47" d="M568.74,316.69a9.44,9.44,0,0,1-1.67,5.86,5.44,5.44,0,0,1-4.58,2.19,6.35,6.35,0,0,1-3.11-.72,5.6,5.6,0,0,1-2.1-2.06l-.2,2.46h-1.54V302.35l-2.47-.19v-1.35h4.27v9.81a5.6,5.6,0,0,1,5.12-2.88,5.36,5.36,0,0,1,4.61,2.35,10.69,10.69,0,0,1,1.67,6.28Zm-1.83-.32a9.61,9.61,0,0,0-1.21-5.09,3.94,3.94,0,0,0-3.58-2,4.73,4.73,0,0,0-3.06.93,5.62,5.62,0,0,0-1.72,2.41v7.4a5.16,5.16,0,0,0,1.81,2.27,5.11,5.11,0,0,0,3,.84,4,4,0,0,0,3.56-1.76,8.23,8.23,0,0,0,1.2-4.72Z"/><path class="cls-47" d="M583.12,324.42c-.12-.55-.21-1-.26-1.44a9.87,9.87,0,0,1-.07-1.22,7.2,7.2,0,0,1-2.43,2.13,6.78,6.78,0,0,1-3.4.85,5.22,5.22,0,0,1-3.73-1.24,4.43,4.43,0,0,1-1.31-3.36,4.14,4.14,0,0,1,2-3.6,9.26,9.26,0,0,1,5.3-1.34h3.62V313a3.52,3.52,0,0,0-1.13-2.76,4.64,4.64,0,0,0-3.16-1,7.84,7.84,0,0,0-2.49.37,5.51,5.51,0,0,0-1.88,1l-.15,2.2h-1.5v-3.15a9.21,9.21,0,0,1,2.72-1.42,10.09,10.09,0,0,1,3.37-.55,6.58,6.58,0,0,1,4.36,1.38,4.85,4.85,0,0,1,1.65,3.95v8.05c0,.34,0,.66,0,1a6.52,6.52,0,0,0,.1.9l1.63.11v1.33Zm-6-1.29a6.6,6.6,0,0,0,3.47-.9,5.43,5.43,0,0,0,2.17-2.35V316.6h-3.65a6.84,6.84,0,0,0-3.95,1,3,3,0,0,0-1.47,2.58,2.7,2.7,0,0,0,.91,2.13A3.67,3.67,0,0,0,577.15,323.13Z"/><path class="cls-47" d="M588.79,323.09l2.47-.2v-13.3l-2.47-.2V308h4.27v14.85l2.47.2v1.33h-6.74Zm4.27-19.74h-1.8v-2.54h1.8Z"/><path class="cls-47" d="M602.49,308l.23,2.73V311a5.82,5.82,0,0,1,1.9-2.36,4.79,4.79,0,0,1,2.85-.86,4.94,4.94,0,0,1,.68.05l.53.12-.24,1.69-1.34-.09a4.09,4.09,0,0,0-2.81,1,5.28,5.28,0,0,0-1.57,2.65v9.77l2.47.2v1.33h-6.74v-1.33l2.47-.2v-13.3l-2.47-.2V308h4Z"/><path class="cls-47" d="M615,308l.23,2.73V311a5.74,5.74,0,0,1,1.9-2.36,5,5,0,0,1,3.52-.81l.54.12-.24,1.69-1.35-.09a4.13,4.13,0,0,0-2.81,1,5.26,5.26,0,0,0-1.56,2.65v9.77l2.46.2v1.33h-6.73v-1.33l2.47-.2v-13.3l-2.47-.2V308h4Z"/><path class="cls-47" d="M623.18,316a8.8,8.8,0,0,1,2-5.93,7.12,7.12,0,0,1,10.52,0,8.8,8.8,0,0,1,2,5.93v.5a8.81,8.81,0,0,1-2,5.94,6.54,6.54,0,0,1-5.24,2.31,6.61,6.61,0,0,1-5.28-2.31,8.81,8.81,0,0,1-2-5.94Zm1.82.5a7.78,7.78,0,0,0,1.44,4.78,5.07,5.07,0,0,0,8,0,7.84,7.84,0,0,0,1.43-4.78V316a7.77,7.77,0,0,0-1.44-4.75,5,5,0,0,0-8,0A7.77,7.77,0,0,0,625,316Z"/><path class="cls-47" d="M655.38,324.74a6.59,6.59,0,0,1-5.12-2.26,8.31,8.31,0,0,1-2-5.76v-.84a8.5,8.5,0,0,1,2-5.82,6.22,6.22,0,0,1,4.88-2.32,6.08,6.08,0,0,1,4.74,1.91,7.29,7.29,0,0,1,1.72,5.08v1.55H650v.44a7.24,7.24,0,0,0,1.47,4.62,4.7,4.7,0,0,0,3.87,1.87,8,8,0,0,0,2.88-.47,5.69,5.69,0,0,0,2-1.35l.77,1.25a6.57,6.57,0,0,1-2.33,1.53A9,9,0,0,1,655.38,324.74Zm-.24-15.45a4.35,4.35,0,0,0-3.37,1.53,6.62,6.62,0,0,0-1.6,3.85l0,.08h9.6v-.46a5.23,5.23,0,0,0-1.26-3.57A4.26,4.26,0,0,0,655.14,309.29Z"/><path class="cls-47" d="M672.38,316a8.8,8.8,0,0,1,2-5.93,7.12,7.12,0,0,1,10.52,0,8.8,8.8,0,0,1,2,5.93v.5a8.8,8.8,0,0,1-2,5.94,7.16,7.16,0,0,1-10.53,0,8.81,8.81,0,0,1-2-5.94Zm1.82.5a7.77,7.77,0,0,0,1.43,4.78,4.7,4.7,0,0,0,4,1.94,4.65,4.65,0,0,0,4-1.94,7.78,7.78,0,0,0,1.44-4.78V316a7.71,7.71,0,0,0-1.45-4.75,5,5,0,0,0-8,0A7.76,7.76,0,0,0,674.2,316Z"/><path class="cls-47" d="M689.15,302.16v-1.35h4.27v22.08l2.47.2v1.33h-6.74v-1.33l2.47-.2V302.35Z"/><path class="cls-47" d="M698.63,323.09l2.46-.2v-13.3l-2.46-.2V308h4.26v14.85l2.47.2v1.33h-6.73Zm4.26-19.74h-1.8v-2.54h1.8Z"/><path class="cls-47" d="M708,309.39V308h4.07l.17,2.71a5.69,5.69,0,0,1,2.1-2.22,6,6,0,0,1,3.14-.79,5.18,5.18,0,0,1,3.13.92,5,5,0,0,1,1.8,2.79,6.44,6.44,0,0,1,2.11-2.72,5.57,5.57,0,0,1,3.34-1,4.94,4.94,0,0,1,4,1.74q1.43,1.74,1.43,5.39v8l2.47.21v1.33h-6.77v-1.33l2.47-.21v-8c0-2-.36-3.44-1.07-4.28a3.69,3.69,0,0,0-3-1.24,4,4,0,0,0-3.27,1.34,6.5,6.5,0,0,0-1.41,3.44,1.77,1.77,0,0,0,0,.23v8.56l2.47.2v1.33h-6.75v-1.33l2.47-.2v-8.05a6.62,6.62,0,0,0-1.08-4.25,3.72,3.72,0,0,0-3-1.27,4.51,4.51,0,0,0-3.06,1,5.2,5.2,0,0,0-1.59,2.63v10l2.47.2v1.33H708v-1.33l2.47-.2v-13.3Z"/><path class="cls-47" d="M737.57,309.39V308h4l.23,2.55a5.72,5.72,0,0,1,5.16-2.85,5.36,5.36,0,0,1,4.62,2.35,10.69,10.69,0,0,1,1.66,6.28v.32a9.44,9.44,0,0,1-1.66,5.86,5.45,5.45,0,0,1-4.59,2.19,6.59,6.59,0,0,1-3-.66,5.58,5.58,0,0,1-2.11-1.87v7l2.47.2v1.35h-6.74v-1.35l2.47-.2V309.59Zm13.84,7a9.47,9.47,0,0,0-1.24-5.09,4,4,0,0,0-3.64-2,4.76,4.76,0,0,0-3,.87,5.4,5.4,0,0,0-1.72,2.26v7.87a5,5,0,0,0,1.8,2.12,5.22,5.22,0,0,0,2.92.77,4.08,4.08,0,0,0,3.61-1.79,8.12,8.12,0,0,0,1.24-4.73Z"/><path class="cls-47" d="M756.07,309.39V308h4.27v14.85l2.47.2v1.33h-6.74v-1.33l2.47-.2v-13.3Zm5-7.42h2.22l0,.09L759.6,306H758Z"/><path class="cls-47" d="M777.13,324.42c-.12-.55-.21-1-.26-1.44a9.87,9.87,0,0,1-.08-1.22,7.07,7.07,0,0,1-2.42,2.13,6.78,6.78,0,0,1-3.4.85,5.22,5.22,0,0,1-3.73-1.24,4.39,4.39,0,0,1-1.31-3.36,4.14,4.14,0,0,1,2-3.6,9.26,9.26,0,0,1,5.3-1.34h3.61V313a3.51,3.51,0,0,0-1.12-2.76,4.66,4.66,0,0,0-3.16-1,7.84,7.84,0,0,0-2.49.37,5.51,5.51,0,0,0-1.88,1l-.16,2.2h-1.49v-3.15a9.21,9.21,0,0,1,2.72-1.42,10.05,10.05,0,0,1,3.37-.55,6.54,6.54,0,0,1,4.35,1.38,4.86,4.86,0,0,1,1.66,3.95v8.05c0,.34,0,.66,0,1a6.52,6.52,0,0,0,.1.9l1.63.11v1.33Zm-6-1.29a6.62,6.62,0,0,0,3.47-.9,5.35,5.35,0,0,0,2.16-2.35V316.6h-3.64a6.84,6.84,0,0,0-3.95,1,3,3,0,0,0-1.47,2.58,2.7,2.7,0,0,0,.91,2.13A3.67,3.67,0,0,0,771.16,323.13Z"/><path class="cls-47" d="M794.31,322.06a5.63,5.63,0,0,1-2.11,2,6.15,6.15,0,0,1-3,.7,5.44,5.44,0,0,1-4.6-2.2,9.49,9.49,0,0,1-1.66-5.85v-.32a10.76,10.76,0,0,1,1.66-6.28,5.37,5.37,0,0,1,4.63-2.35,5.63,5.63,0,0,1,5,2.77v-8.16l-2.47-.19v-1.35h4.29v22.08l2.47.2v1.33h-4.09Zm-9.55-5.37a8.31,8.31,0,0,0,1.18,4.72,4.05,4.05,0,0,0,3.58,1.76,5.19,5.19,0,0,0,2.92-.79,5.25,5.25,0,0,0,1.82-2.17v-7.75a5.72,5.72,0,0,0-1.75-2.27,4.75,4.75,0,0,0-3-.87,3.93,3.93,0,0,0-3.59,2,9.61,9.61,0,0,0-1.2,5.09Z"/><path class="cls-47" d="M812.64,324.42c-.12-.55-.21-1-.26-1.44a9.87,9.87,0,0,1-.08-1.22,7.07,7.07,0,0,1-2.42,2.13,6.78,6.78,0,0,1-3.4.85,5.22,5.22,0,0,1-3.73-1.24,4.43,4.43,0,0,1-1.31-3.36,4.14,4.14,0,0,1,1.95-3.6,9.26,9.26,0,0,1,5.3-1.34h3.61V313a3.51,3.51,0,0,0-1.12-2.76,4.66,4.66,0,0,0-3.16-1,7.84,7.84,0,0,0-2.49.37,5.51,5.51,0,0,0-1.88,1l-.16,2.2H802v-3.15a9.21,9.21,0,0,1,2.72-1.42,10.09,10.09,0,0,1,3.37-.55,6.58,6.58,0,0,1,4.36,1.38,4.85,4.85,0,0,1,1.65,3.95v8.05c0,.34,0,.66,0,1a6.52,6.52,0,0,0,.1.9l1.63.11v1.33Zm-6-1.29a6.62,6.62,0,0,0,3.47-.9,5.35,5.35,0,0,0,2.16-2.35V316.6h-3.64a6.84,6.84,0,0,0-3.95,1,3,3,0,0,0-1.47,2.58,2.7,2.7,0,0,0,.91,2.13A3.67,3.67,0,0,0,806.67,323.13Z"/><path class="cls-47" d="M830.32,313.1h-1.49l-.21-2.32a4.59,4.59,0,0,0-1.72-1.1,6.71,6.71,0,0,0-2.38-.39,4.44,4.44,0,0,0-3,.85,2.56,2.56,0,0,0-1,2,2.37,2.37,0,0,0,.86,1.87,8.21,8.21,0,0,0,3.41,1.3,11.3,11.3,0,0,1,4.38,1.78,3.69,3.69,0,0,1,1.45,3.07,4,4,0,0,1-1.66,3.31,7,7,0,0,1-4.38,1.26,10.22,10.22,0,0,1-3.31-.51,7.88,7.88,0,0,1-2.58-1.43v-3.3h1.47l.26,2.33a4.2,4.2,0,0,0,1.84,1.06,8.44,8.44,0,0,0,2.32.32,5,5,0,0,0,3.1-.86,2.56,2.56,0,0,0,1.14-2.09,2.64,2.64,0,0,0-1-2,7.59,7.59,0,0,0-3.41-1.41,11.67,11.67,0,0,1-4.34-1.69,3.45,3.45,0,0,1-1.41-2.94,3.94,3.94,0,0,1,1.59-3.17,6.38,6.38,0,0,1,4.19-1.3,9.58,9.58,0,0,1,3.29.55,6.52,6.52,0,0,1,2.43,1.5Z"/><path class="cls-47" d="M848.71,324.74a6.57,6.57,0,0,1-5.12-2.26,8.32,8.32,0,0,1-2-5.76v-.84a8.55,8.55,0,0,1,2-5.82,6.26,6.26,0,0,1,4.89-2.32,6.07,6.07,0,0,1,4.73,1.91,7.29,7.29,0,0,1,1.73,5.08v1.55H843.37v.44a7.24,7.24,0,0,0,1.47,4.62,4.68,4.68,0,0,0,3.87,1.87,7.88,7.88,0,0,0,2.87-.47,5.64,5.64,0,0,0,2-1.35l.77,1.25a6.66,6.66,0,0,1-2.33,1.53A9,9,0,0,1,848.71,324.74Zm-.24-15.45a4.33,4.33,0,0,0-3.37,1.53,6.55,6.55,0,0,0-1.6,3.85l0,.08h9.6v-.46a5.23,5.23,0,0,0-1.26-3.57A4.28,4.28,0,0,0,848.47,309.29Z"/><path class="cls-47" d="M870.05,313.1h-1.48l-.21-2.32a4.67,4.67,0,0,0-1.72-1.1,6.77,6.77,0,0,0-2.39-.39,4.44,4.44,0,0,0-3,.85,2.58,2.58,0,0,0-1,2,2.36,2.36,0,0,0,.85,1.87,8.21,8.21,0,0,0,3.42,1.3,11.32,11.32,0,0,1,4.37,1.78,3.69,3.69,0,0,1,1.45,3.07,4,4,0,0,1-1.65,3.31,7.07,7.07,0,0,1-4.38,1.26,10.13,10.13,0,0,1-3.31-.51,7.69,7.69,0,0,1-2.58-1.43v-3.3h1.47l.25,2.33a4.25,4.25,0,0,0,1.84,1.06,8.51,8.51,0,0,0,2.33.32,5,5,0,0,0,3.1-.86,2.57,2.57,0,0,0,1.13-2.09,2.63,2.63,0,0,0-.94-2,7.59,7.59,0,0,0-3.42-1.41,11.62,11.62,0,0,1-4.33-1.69,3.44,3.44,0,0,1-1.42-2.94,3.94,3.94,0,0,1,1.59-3.17,6.4,6.4,0,0,1,4.19-1.3,9.68,9.68,0,0,1,3.3.55,6.69,6.69,0,0,1,2.43,1.5Z"/><path class="cls-47" d="M880.68,323.21a5.15,5.15,0,0,0,3.18-1,3.38,3.38,0,0,0,1.37-2.86h1.61l0,.09a4.49,4.49,0,0,1-1.81,3.8,6.76,6.76,0,0,1-4.38,1.53,6.22,6.22,0,0,1-5.16-2.29,9.18,9.18,0,0,1-1.84-5.9v-.63a9.16,9.16,0,0,1,1.84-5.88,6.2,6.2,0,0,1,5.14-2.3,8.41,8.41,0,0,1,3.47.71,6.88,6.88,0,0,1,2.56,1.94l.07,3.57h-1.54l-.29-2.9a5.12,5.12,0,0,0-1.81-1.3,6,6,0,0,0-2.46-.47,4.34,4.34,0,0,0-3.89,1.88,8.3,8.3,0,0,0-1.27,4.75v.63a8.39,8.39,0,0,0,1.26,4.78A4.39,4.39,0,0,0,880.68,323.21Z"/><path class="cls-47" d="M890.24,316a8.75,8.75,0,0,1,2-5.93,7.12,7.12,0,0,1,10.52,0,8.8,8.8,0,0,1,2,5.93v.5a8.81,8.81,0,0,1-2,5.94,6.54,6.54,0,0,1-5.24,2.31,6.61,6.61,0,0,1-5.28-2.31,8.76,8.76,0,0,1-2-5.94Zm1.82.5a7.78,7.78,0,0,0,1.44,4.78,5.07,5.07,0,0,0,8,0,7.84,7.84,0,0,0,1.43-4.78V316a7.77,7.77,0,0,0-1.44-4.75,5,5,0,0,0-8,0,7.77,7.77,0,0,0-1.44,4.75Z"/><path class="cls-47" d="M907,302.16v-1.35h4.26v22.08l2.47.2v1.33H907v-1.33l2.46-.2V302.35Z"/><path class="cls-47" d="M927.92,324.42c-.12-.55-.21-1-.26-1.44a9.87,9.87,0,0,1-.07-1.22,7.2,7.2,0,0,1-2.43,2.13,6.76,6.76,0,0,1-3.4.85A5.22,5.22,0,0,1,918,323.5a4.43,4.43,0,0,1-1.31-3.36,4.14,4.14,0,0,1,1.95-3.6,9.26,9.26,0,0,1,5.3-1.34h3.62V313a3.52,3.52,0,0,0-1.13-2.76,4.64,4.64,0,0,0-3.16-1,7.84,7.84,0,0,0-2.49.37,5.51,5.51,0,0,0-1.88,1l-.15,2.2h-1.5v-3.15a9.33,9.33,0,0,1,2.72-1.42,10.09,10.09,0,0,1,3.37-.55,6.58,6.58,0,0,1,4.36,1.38,4.85,4.85,0,0,1,1.65,3.95v8.05c0,.34,0,.66,0,1a8.54,8.54,0,0,0,.1.9l1.63.11v1.33Zm-6-1.29a6.59,6.59,0,0,0,3.46-.9,5.43,5.43,0,0,0,2.17-2.35V316.6h-3.65a6.79,6.79,0,0,0-3.94,1,3,3,0,0,0-1.48,2.58,2.7,2.7,0,0,0,.91,2.13A3.71,3.71,0,0,0,922,323.13Z"/><path class="cls-47" d="M937.64,308l.22,2.73V311a5.9,5.9,0,0,1,1.9-2.36,4.84,4.84,0,0,1,2.86-.86,4.91,4.91,0,0,1,.67.05l.54.12-.24,1.69-1.35-.09a4.11,4.11,0,0,0-2.81,1,5.35,5.35,0,0,0-1.57,2.65v9.77l2.47.2v1.33H933.6v-1.33l2.46-.2v-13.3l-2.46-.2V308h4Z"/><path class="cls-47" d="M953.11,324.74a6.57,6.57,0,0,1-5.12-2.26,8.32,8.32,0,0,1-2-5.76v-.84a8.55,8.55,0,0,1,2-5.82,6.26,6.26,0,0,1,4.89-2.32,6.07,6.07,0,0,1,4.73,1.91,7.29,7.29,0,0,1,1.73,5.08v1.55H947.77v.44a7.24,7.24,0,0,0,1.47,4.62,4.68,4.68,0,0,0,3.87,1.87,7.88,7.88,0,0,0,2.87-.47,5.64,5.64,0,0,0,2-1.35l.77,1.25a6.66,6.66,0,0,1-2.33,1.53A9,9,0,0,1,953.11,324.74Zm-.24-15.45a4.33,4.33,0,0,0-3.37,1.53,6.55,6.55,0,0,0-1.6,3.85l0,.08h9.6v-.46a5.23,5.23,0,0,0-1.26-3.57A4.28,4.28,0,0,0,952.87,309.29Z"/><path class="cls-47" d="M974.45,313.1H973l-.22-2.32a4.55,4.55,0,0,0-1.71-1.1,6.77,6.77,0,0,0-2.39-.39,4.44,4.44,0,0,0-3,.85,2.58,2.58,0,0,0-1,2,2.36,2.36,0,0,0,.85,1.87,8.21,8.21,0,0,0,3.41,1.3,11.3,11.3,0,0,1,4.38,1.78,3.69,3.69,0,0,1,1.45,3.07,4,4,0,0,1-1.65,3.31,7.08,7.08,0,0,1-4.39,1.26,10.11,10.11,0,0,1-3.3-.51,7.83,7.83,0,0,1-2.59-1.43v-3.3h1.47l.26,2.33a4.2,4.2,0,0,0,1.84,1.06,8.49,8.49,0,0,0,2.32.32,5.06,5.06,0,0,0,3.11-.86,2.57,2.57,0,0,0,1.13-2.09,2.63,2.63,0,0,0-.94-2,7.64,7.64,0,0,0-3.42-1.41,11.54,11.54,0,0,1-4.33-1.69,3.44,3.44,0,0,1-1.42-2.94,3.94,3.94,0,0,1,1.59-3.17,6.4,6.4,0,0,1,4.19-1.3,9.58,9.58,0,0,1,3.29.55,6.52,6.52,0,0,1,2.43,1.5Z"/><path class="cls-47" d="M984.05,315.75a22.19,22.19,0,0,1-2.1,9.9c-1.4,2.84-3,4.77-4.7,5.78h-.09l-.38-1.05a12.37,12.37,0,0,0,3.82-5.55,23.6,23.6,0,0,0,1.65-9v-.3a23.27,23.27,0,0,0-1.68-9,12.84,12.84,0,0,0-3.79-5.58l.38-1,.09,0q2.58,1.49,4.68,5.85a22.26,22.26,0,0,1,2.12,9.85Z"/><path class="cls-47" d="M990.24,323.7a6.88,6.88,0,0,1-.57,2.72,6.74,6.74,0,0,1-1.55,2.26l-1.08-.79a8,8,0,0,0,1.06-2,6.87,6.87,0,0,0,.34-2.18v-2.15h1.8Z"/><path class="cls-47" d="M1008.07,323.21a5.15,5.15,0,0,0,3.18-1,3.35,3.35,0,0,0,1.37-2.86h1.61l0,.09a4.49,4.49,0,0,1-1.81,3.8,6.76,6.76,0,0,1-4.38,1.53,6.22,6.22,0,0,1-5.16-2.29,9.18,9.18,0,0,1-1.83-5.9v-.63a9.16,9.16,0,0,1,1.83-5.88,6.2,6.2,0,0,1,5.14-2.3,8.41,8.41,0,0,1,3.47.71,6.88,6.88,0,0,1,2.56,1.94l.07,3.57h-1.54l-.29-2.9a5.12,5.12,0,0,0-1.81-1.3,6,6,0,0,0-2.46-.47,4.34,4.34,0,0,0-3.89,1.88,8.3,8.3,0,0,0-1.27,4.75v.63a8.39,8.39,0,0,0,1.26,4.78A4.39,4.39,0,0,0,1008.07,323.21Z"/><path class="cls-47" d="M1017.64,316a8.8,8.8,0,0,1,2-5.93,7.12,7.12,0,0,1,10.52,0,8.8,8.8,0,0,1,2,5.93v.5a8.85,8.85,0,0,1-2,5.94,7.16,7.16,0,0,1-10.53,0,8.81,8.81,0,0,1-2-5.94Zm1.81.5a7.78,7.78,0,0,0,1.44,4.78,4.7,4.7,0,0,0,4,1.94,4.65,4.65,0,0,0,4-1.94,7.78,7.78,0,0,0,1.44-4.78V316a7.77,7.77,0,0,0-1.45-4.75,5,5,0,0,0-8,0,7.77,7.77,0,0,0-1.44,4.75Z"/><path class="cls-47" d="M1034.68,309.39V308h4.07l.17,2.71a5.62,5.62,0,0,1,2.1-2.22,6,6,0,0,1,3.14-.79,5.18,5.18,0,0,1,3.13.92,5,5,0,0,1,1.8,2.79,6.36,6.36,0,0,1,2.11-2.72,5.55,5.55,0,0,1,3.34-1,5,5,0,0,1,4,1.74q1.42,1.74,1.43,5.39v8l2.47.21v1.33h-6.77v-1.33l2.47-.21v-8c0-2-.36-3.44-1.07-4.28a3.69,3.69,0,0,0-3-1.24,4,4,0,0,0-3.27,1.34,6.5,6.5,0,0,0-1.41,3.44,1.77,1.77,0,0,0,0,.23v8.56l2.47.2v1.33h-6.75v-1.33l2.47-.2v-8.05a6.55,6.55,0,0,0-1.09-4.25,3.68,3.68,0,0,0-3-1.27,4.51,4.51,0,0,0-3.06,1,5.2,5.2,0,0,0-1.59,2.63v10l2.47.2v1.33h-6.75v-1.33l2.47-.2v-13.3Z"/><path class="cls-47" d="M566.54,350.3h-1.48l-.21-2.32a4.67,4.67,0,0,0-1.72-1.1,6.74,6.74,0,0,0-2.38-.4,4.45,4.45,0,0,0-3,.86,2.58,2.58,0,0,0-1,2,2.36,2.36,0,0,0,.85,1.87,8.27,8.27,0,0,0,3.42,1.3,11.25,11.25,0,0,1,4.37,1.78,3.68,3.68,0,0,1,1.46,3.07,4,4,0,0,1-1.66,3.3,7,7,0,0,1-4.38,1.27,10.17,10.17,0,0,1-3.31-.51A7.78,7.78,0,0,1,555,360v-3.3h1.47l.25,2.33a4.14,4.14,0,0,0,1.84,1.05,8.15,8.15,0,0,0,2.33.33,5,5,0,0,0,3.1-.86,2.56,2.56,0,0,0,1.14-2.09,2.64,2.64,0,0,0-1-2,7.59,7.59,0,0,0-3.41-1.41,11.6,11.6,0,0,1-4.34-1.69,3.44,3.44,0,0,1-1.42-2.94,4,4,0,0,1,1.59-3.18,6.46,6.46,0,0,1,4.2-1.29,9.62,9.62,0,0,1,3.29.55,6.81,6.81,0,0,1,2.43,1.49Z"/><path class="cls-47" d="M577.4,361.94a6.6,6.6,0,0,1-5.12-2.26,8.32,8.32,0,0,1-2-5.76v-.84a8.55,8.55,0,0,1,2-5.82,6.25,6.25,0,0,1,4.88-2.32,6.08,6.08,0,0,1,4.74,1.91,7.28,7.28,0,0,1,1.73,5.08v1.55H572.05v.44a7.21,7.21,0,0,0,1.48,4.62,4.68,4.68,0,0,0,3.87,1.87,7.88,7.88,0,0,0,2.87-.47,5.64,5.64,0,0,0,2.05-1.35l.77,1.24a6.54,6.54,0,0,1-2.33,1.54A9,9,0,0,1,577.4,361.94Zm-.25-15.46a4.34,4.34,0,0,0-3.36,1.54,6.53,6.53,0,0,0-1.6,3.85l0,.08h9.6v-.46a5.23,5.23,0,0,0-1.26-3.57A4.29,4.29,0,0,0,577.15,346.48Z"/><path class="cls-47" d="M598.89,358.93a5.51,5.51,0,0,1-2.11,2.22,6.08,6.08,0,0,1-3.16.79,5,5,0,0,1-4-1.76c-1-1.17-1.46-3-1.46-5.45v-7.94l-2-.2v-1.35h3.83v9.52a7,7,0,0,0,1,4.3,3.45,3.45,0,0,0,2.89,1.31,5.39,5.39,0,0,0,3.28-.91,4.85,4.85,0,0,0,1.72-2.52V346.79l-2.33-.2v-1.35h4.15v14.85l2.19.2v1.33h-3.78Z"/><path class="cls-47" d="M617.39,350.3H615.9l-.21-2.32a4.55,4.55,0,0,0-1.71-1.1,6.8,6.8,0,0,0-2.39-.4,4.44,4.44,0,0,0-3,.86,2.58,2.58,0,0,0-1,2,2.36,2.36,0,0,0,.85,1.87,8.21,8.21,0,0,0,3.41,1.3,11.3,11.3,0,0,1,4.38,1.78,3.68,3.68,0,0,1,1.45,3.07,3.94,3.94,0,0,1-1.66,3.3,7,7,0,0,1-4.38,1.27,10.22,10.22,0,0,1-3.31-.51,7.88,7.88,0,0,1-2.58-1.43v-3.3h1.47l.26,2.33a4.09,4.09,0,0,0,1.84,1.05,8.08,8.08,0,0,0,2.32.33,5,5,0,0,0,3.1-.86,2.56,2.56,0,0,0,1.14-2.09,2.64,2.64,0,0,0-.95-2,7.54,7.54,0,0,0-3.41-1.41,11.67,11.67,0,0,1-4.34-1.69,3.45,3.45,0,0,1-1.41-2.94,4,4,0,0,1,1.59-3.18,6.43,6.43,0,0,1,4.19-1.29,9.58,9.58,0,0,1,3.29.55,6.64,6.64,0,0,1,2.43,1.49Z"/><path class="cls-47" d="M641.47,351h-9v9.14h10.42l.13-3.3h1.61v4.83H628.16v-1.33l2.47-.2v-19l-2.47-.2v-1.35h16.35v4.85h-1.6l-.14-3.3H632.43v8.28h9Z"/><path class="cls-47" d="M652.38,346.59l-2,.15,4.09,10.78.53,1.92h.09l.57-1.92,4-10.78-2-.15v-1.35h5.51v1.35l-1.61.14-5.78,14.89h-1.45l-5.8-14.89-1.61-.14v-1.35h5.51Z"/><path class="cls-47" d="M672.14,361.94a6.6,6.6,0,0,1-5.12-2.26,8.32,8.32,0,0,1-2-5.76v-.84a8.55,8.55,0,0,1,2-5.82,6.25,6.25,0,0,1,4.88-2.32,6.08,6.08,0,0,1,4.74,1.91,7.28,7.28,0,0,1,1.73,5.08v1.55H666.79v.44a7.26,7.26,0,0,0,1.48,4.62,4.68,4.68,0,0,0,3.87,1.87,7.88,7.88,0,0,0,2.87-.47,5.64,5.64,0,0,0,2-1.35l.77,1.24a6.54,6.54,0,0,1-2.33,1.54A9,9,0,0,1,672.14,361.94Zm-.25-15.46a4.34,4.34,0,0,0-3.36,1.54,6.53,6.53,0,0,0-1.6,3.85l0,.08h9.6v-.46a5.23,5.23,0,0,0-1.26-3.57A4.29,4.29,0,0,0,671.89,346.48Z"/><path class="cls-47" d="M681.26,360.29l2.47-.2v-13.3l-2.47-.2v-1.35h4.08l.16,2.86a5.68,5.68,0,0,1,5.3-3.16,5,5,0,0,1,4.06,1.63,7.74,7.74,0,0,1,1.39,5.08v8.44l2.47.2v1.33H692v-1.33l2.46-.2v-8.43a5.93,5.93,0,0,0-1-4,3.81,3.81,0,0,0-3-1.17,4.69,4.69,0,0,0-3.11,1,5.58,5.58,0,0,0-1.73,2.67v9.9l2.47.2v1.33h-6.76Z"/><path class="cls-47" d="M705.73,341.05v4.19h3.6v1.49h-3.6V357.4a3.49,3.49,0,0,0,.58,2.28,1.94,1.94,0,0,0,1.55.67,8.12,8.12,0,0,0,.86,0c.27,0,.59-.07,1-.13l.27,1.35a4.66,4.66,0,0,1-1.11.3,8.05,8.05,0,0,1-1.3.11,3.37,3.37,0,0,1-2.68-1.09,5.1,5.1,0,0,1-1-3.45V346.73h-2.81v-1.49h2.81v-4.19Z"/><path class="cls-47" d="M712.36,353.19a8.8,8.8,0,0,1,2-5.93,7.12,7.12,0,0,1,10.52,0,8.8,8.8,0,0,1,2,5.93v.5a8.85,8.85,0,0,1-2,5.94,7.16,7.16,0,0,1-10.53,0,8.81,8.81,0,0,1-2-5.94Zm1.81.5a7.78,7.78,0,0,0,1.44,4.78,4.72,4.72,0,0,0,4,1.94,4.68,4.68,0,0,0,4-1.94,7.78,7.78,0,0,0,1.44-4.78v-.5a7.77,7.77,0,0,0-1.45-4.75,5,5,0,0,0-8,0,7.77,7.77,0,0,0-1.44,4.75Z"/><path class="cls-47" d="M741.68,350.3h-1.49L740,348a4.59,4.59,0,0,0-1.72-1.1,6.7,6.7,0,0,0-2.38-.4,4.47,4.47,0,0,0-3,.86,2.58,2.58,0,0,0-1,2,2.37,2.37,0,0,0,.86,1.87,8.21,8.21,0,0,0,3.41,1.3,11.3,11.3,0,0,1,4.38,1.78,3.7,3.7,0,0,1,1.45,3.07,3.94,3.94,0,0,1-1.66,3.3,7,7,0,0,1-4.38,1.27,10.22,10.22,0,0,1-3.31-.51,7.88,7.88,0,0,1-2.58-1.43v-3.3h1.47l.26,2.33a4,4,0,0,0,1.84,1.05,8.08,8.08,0,0,0,2.32.33,5,5,0,0,0,3.1-.86,2.56,2.56,0,0,0,1.14-2.09,2.64,2.64,0,0,0-1-2,7.59,7.59,0,0,0-3.41-1.41,11.67,11.67,0,0,1-4.34-1.69,3.45,3.45,0,0,1-1.41-2.94,4,4,0,0,1,1.59-3.18,6.43,6.43,0,0,1,4.19-1.29,9.58,9.58,0,0,1,3.29.55A6.72,6.72,0,0,1,741.6,347Z"/><path class="cls-47" d="M747.94,360.89a7.06,7.06,0,0,1-.56,2.73,6.62,6.62,0,0,1-1.56,2.26l-1.07-.79a8.15,8.15,0,0,0,1-2,6.52,6.52,0,0,0,.34-2.18v-2.14h1.8Z"/><path class="cls-47" d="M774,346.12h-1.49l-.25-3.12a5.52,5.52,0,0,0-2.23-1.61,8.57,8.57,0,0,0-3.3-.58,6.73,6.73,0,0,0-4.24,1.18,3.58,3.58,0,0,0-1.53,2.94,3.43,3.43,0,0,0,1.37,2.77,12.82,12.82,0,0,0,4.75,2,13.85,13.85,0,0,1,5.41,2.46,5,5,0,0,1,1.86,4.07,4.93,4.93,0,0,1-2.15,4.19,9.15,9.15,0,0,1-5.5,1.56,11.5,11.5,0,0,1-4.38-.83,8.42,8.42,0,0,1-3.31-2.38v-3.86h1.48l.26,3.22a6.29,6.29,0,0,0,2.56,1.73,9.58,9.58,0,0,0,3.39.59,7.09,7.09,0,0,0,4.22-1.15,3.58,3.58,0,0,0,1.61-3,3.7,3.7,0,0,0-1.35-3,12.51,12.51,0,0,0-4.69-2,14.74,14.74,0,0,1-5.48-2.36A4.71,4.71,0,0,1,759.1,345a4.92,4.92,0,0,1,2.12-4.12,8.84,8.84,0,0,1,5.46-1.59,10.39,10.39,0,0,1,4.29.84,7.39,7.39,0,0,1,3,2.25Z"/><path class="cls-47" d="M777.13,360.29l2.46-.2v-13.3l-2.46-.2v-1.35h4.26v14.85l2.47.2v1.33h-6.73Zm4.26-19.74h-1.8V338h1.8Z"/><path class="cls-47" d="M791.07,341.05v4.19h3.6v1.49h-3.6V357.4a3.49,3.49,0,0,0,.58,2.28,2,2,0,0,0,1.55.67,8.12,8.12,0,0,0,.86,0c.27,0,.6-.07,1-.13l.27,1.35a4.7,4.7,0,0,1-1.1.3,8.27,8.27,0,0,1-1.31.11,3.37,3.37,0,0,1-2.68-1.09,5.15,5.15,0,0,1-1-3.45V346.73h-2.82v-1.49h2.82v-4.19Z"/><path class="cls-47" d="M810,358.93a5.45,5.45,0,0,1-2.11,2.22,6,6,0,0,1-3.15.79,5,5,0,0,1-4-1.76c-1-1.17-1.46-3-1.46-5.45v-7.94l-2-.2v-1.35h3.83v9.52a7,7,0,0,0,1,4.3,3.47,3.47,0,0,0,2.9,1.31,5.43,5.43,0,0,0,3.28-.91,4.84,4.84,0,0,0,1.71-2.52V346.79l-2.33-.2v-1.35h4.15v14.85l2.2.2v1.33H810.2Z"/><path class="cls-47" d="M828,361.62c-.12-.55-.21-1-.26-1.44a9.87,9.87,0,0,1-.08-1.22,7.18,7.18,0,0,1-2.42,2.13,6.78,6.78,0,0,1-3.4.85,5.22,5.22,0,0,1-3.73-1.24,4.39,4.39,0,0,1-1.31-3.36,4.16,4.16,0,0,1,2-3.61,9.34,9.34,0,0,1,5.3-1.33h3.61v-2.16a3.51,3.51,0,0,0-1.12-2.76,4.66,4.66,0,0,0-3.16-1,7.84,7.84,0,0,0-2.49.38,5.51,5.51,0,0,0-1.88,1l-.16,2.2h-1.49v-3.15a9.21,9.21,0,0,1,2.72-1.42,10.09,10.09,0,0,1,3.37-.55,6.54,6.54,0,0,1,4.35,1.38,4.86,4.86,0,0,1,1.66,3.95v8.05c0,.33,0,.65,0,1a6.52,6.52,0,0,0,.1.9l1.63.11v1.33Zm-6-1.29a6.62,6.62,0,0,0,3.47-.9,5.35,5.35,0,0,0,2.16-2.35v-3.29H824a6.84,6.84,0,0,0-4,1,3,3,0,0,0-1.47,2.58,2.67,2.67,0,0,0,.91,2.12A3.67,3.67,0,0,0,822,360.33Z"/><path class="cls-47" d="M840.75,360.41a5.15,5.15,0,0,0,3.18-1,3.39,3.39,0,0,0,1.37-2.86h1.61l0,.09a4.51,4.51,0,0,1-1.81,3.8,6.76,6.76,0,0,1-4.38,1.53,6.28,6.28,0,0,1-5.17-2.29,9.18,9.18,0,0,1-1.83-5.9v-.64a9.15,9.15,0,0,1,1.83-5.87,6.23,6.23,0,0,1,5.15-2.3,8.41,8.41,0,0,1,3.47.71,6.88,6.88,0,0,1,2.56,1.94l.07,3.57h-1.54l-.29-2.9a5.12,5.12,0,0,0-1.81-1.3,6,6,0,0,0-2.46-.48,4.38,4.38,0,0,0-3.9,1.89,8.37,8.37,0,0,0-1.26,4.74v.64a8.39,8.39,0,0,0,1.26,4.78A4.37,4.37,0,0,0,840.75,360.41Zm.47,1.35-.17,1a3.61,3.61,0,0,1,1.93.73,2.25,2.25,0,0,1,.73,1.85,2.57,2.57,0,0,1-1.19,2.21,6,6,0,0,1-3.42.82l-.11-1.18a5.06,5.06,0,0,0,2.28-.46,1.46,1.46,0,0,0,.93-1.36,1.26,1.26,0,0,0-.62-1.2,5.93,5.93,0,0,0-2.2-.46l.43-1.92Z"/><path class="cls-47" d="M850.31,353.19a8.75,8.75,0,0,1,2-5.93,7.12,7.12,0,0,1,10.52,0,8.8,8.8,0,0,1,2,5.93v.5a8.81,8.81,0,0,1-2,5.94,6.54,6.54,0,0,1-5.24,2.31,6.61,6.61,0,0,1-5.28-2.31,8.76,8.76,0,0,1-2-5.94Zm1.82.5a7.78,7.78,0,0,0,1.44,4.78,4.71,4.71,0,0,0,4,1.94,4.66,4.66,0,0,0,4-1.94,7.78,7.78,0,0,0,1.44-4.78v-.5a7.77,7.77,0,0,0-1.44-4.75,5,5,0,0,0-8,0,7.77,7.77,0,0,0-1.44,4.75ZM862.79,339a3.09,3.09,0,0,1-.84,2.21,2.73,2.73,0,0,1-2.07.87,3.91,3.91,0,0,1-2.29-.83,3.65,3.65,0,0,0-2-.83,1.56,1.56,0,0,0-1.19.53,1.89,1.89,0,0,0-.49,1.35l-1.19-.28a3.11,3.11,0,0,1,.81-2.18,2.65,2.65,0,0,1,2.06-.89,4.17,4.17,0,0,1,2.23.83,4,4,0,0,0,2,.84,1.61,1.61,0,0,0,1.2-.55,2,2,0,0,0,.5-1.38Z"/><path class="cls-47" d="M875,361.94a6.62,6.62,0,0,1-5.12-2.26,8.31,8.31,0,0,1-2-5.76v-.84a8.5,8.5,0,0,1,2-5.82,6.22,6.22,0,0,1,4.88-2.32,6.08,6.08,0,0,1,4.74,1.91,7.27,7.27,0,0,1,1.72,5.08v1.55H869.63v.44a7.26,7.26,0,0,0,1.47,4.62,4.7,4.7,0,0,0,3.87,1.87,8,8,0,0,0,2.88-.47,5.6,5.6,0,0,0,2-1.35l.77,1.24a6.45,6.45,0,0,1-2.33,1.54A9,9,0,0,1,875,361.94Zm-.24-15.46a4.36,4.36,0,0,0-3.37,1.54,6.65,6.65,0,0,0-1.6,3.85l0,.08h9.6v-.46a5.23,5.23,0,0,0-1.26-3.57A4.27,4.27,0,0,0,874.73,346.48Z"/><path class="cls-47" d="M896.31,350.3h-1.48l-.21-2.32a4.67,4.67,0,0,0-1.72-1.1,6.74,6.74,0,0,0-2.38-.4,4.45,4.45,0,0,0-3,.86,2.58,2.58,0,0,0-1,2,2.36,2.36,0,0,0,.85,1.87,8.27,8.27,0,0,0,3.42,1.3,11.25,11.25,0,0,1,4.37,1.78,3.68,3.68,0,0,1,1.46,3.07,4,4,0,0,1-1.66,3.3,7,7,0,0,1-4.38,1.27,10.17,10.17,0,0,1-3.31-.51,7.78,7.78,0,0,1-2.58-1.43v-3.3h1.47l.25,2.33a4.14,4.14,0,0,0,1.84,1.05,8.15,8.15,0,0,0,2.33.33,5,5,0,0,0,3.1-.86,2.56,2.56,0,0,0,1.14-2.09,2.64,2.64,0,0,0-1-2,7.59,7.59,0,0,0-3.41-1.41,11.6,11.6,0,0,1-4.34-1.69,3.44,3.44,0,0,1-1.42-2.94,4,4,0,0,1,1.59-3.18,6.46,6.46,0,0,1,4.2-1.29,9.62,9.62,0,0,1,3.29.55,6.81,6.81,0,0,1,2.43,1.49Z"/><path class="cls-47" d="M908,353h-7.23v-1.53H908Z"/><path class="cls-47" d="M911.47,346.59v-1.35h4l.22,2.55a5.72,5.72,0,0,1,5.17-2.85,5.36,5.36,0,0,1,4.61,2.35,10.69,10.69,0,0,1,1.67,6.28v.32a9.44,9.44,0,0,1-1.67,5.86,5.44,5.44,0,0,1-4.58,2.19,6.56,6.56,0,0,1-3-.66,5.54,5.54,0,0,1-2.12-1.87v7l2.47.2v1.35h-6.73v-1.35l2.46-.2V346.79Zm13.83,7a9.38,9.38,0,0,0-1.24-5.09,4,4,0,0,0-3.63-2,4.79,4.79,0,0,0-3,.87,5.5,5.5,0,0,0-1.72,2.27v7.87a5.05,5.05,0,0,0,1.8,2.12,5.26,5.26,0,0,0,2.93.77,4.13,4.13,0,0,0,3.61-1.79,8.2,8.2,0,0,0,1.23-4.73Z"/><path class="cls-47" d="M934,345.24l.23,2.73v.19a5.74,5.74,0,0,1,1.9-2.36,5,5,0,0,1,3.52-.81l.54.12-.24,1.69-1.35-.09a4.13,4.13,0,0,0-2.81,1,5.28,5.28,0,0,0-1.56,2.64v9.78l2.46.2v1.33H930v-1.33l2.47-.2v-13.3l-2.47-.2v-1.35h4Z"/><path class="cls-47" d="M942.22,353.19a8.75,8.75,0,0,1,2-5.93,7.12,7.12,0,0,1,10.52,0,8.8,8.8,0,0,1,2,5.93v.5a8.81,8.81,0,0,1-2,5.94,6.54,6.54,0,0,1-5.24,2.31,6.61,6.61,0,0,1-5.28-2.31,8.76,8.76,0,0,1-2-5.94Zm1.82.5a7.78,7.78,0,0,0,1.44,4.78,4.71,4.71,0,0,0,4,1.94,4.66,4.66,0,0,0,4-1.94,7.78,7.78,0,0,0,1.44-4.78v-.5a7.77,7.77,0,0,0-1.44-4.75,5,5,0,0,0-8,0,7.77,7.77,0,0,0-1.44,4.75Z"/><path class="cls-47" d="M973.74,353.89a9.44,9.44,0,0,1-1.67,5.86,5.44,5.44,0,0,1-4.58,2.19,6.35,6.35,0,0,1-3.11-.72,5.56,5.56,0,0,1-2.1-2.07l-.2,2.47h-1.54V339.55l-2.47-.19V338h4.27v9.81a5.93,5.93,0,0,1,2.09-2.13,5.87,5.87,0,0,1,3-.75,5.36,5.36,0,0,1,4.61,2.35,10.69,10.69,0,0,1,1.67,6.28Zm-1.83-.32a9.67,9.67,0,0,0-1.21-5.1,4,4,0,0,0-3.58-2,4.74,4.74,0,0,0-3.06.94,5.62,5.62,0,0,0-1.72,2.41v7.4a4.93,4.93,0,0,0,4.81,3.11,4,4,0,0,0,3.56-1.76,8.25,8.25,0,0,0,1.2-4.72Z"/><path class="cls-47" d="M976.3,339.36V338h4.26v22.08l2.47.2v1.33H976.3v-1.33l2.46-.2V339.55Z"/><path class="cls-47" d="M993.11,361.94a6.6,6.6,0,0,1-5.11-2.26,8.27,8.27,0,0,1-2-5.76v-.84a8.5,8.5,0,0,1,2-5.82,6.24,6.24,0,0,1,4.88-2.32,6.08,6.08,0,0,1,4.74,1.91,7.28,7.28,0,0,1,1.73,5.08v1.55H987.77v.44a7.21,7.21,0,0,0,1.48,4.62,4.67,4.67,0,0,0,3.86,1.87,8,8,0,0,0,2.88-.47,5.52,5.52,0,0,0,2-1.35l.78,1.24a6.58,6.58,0,0,1-2.34,1.54A8.88,8.88,0,0,1,993.11,361.94Zm-.24-15.46A4.37,4.37,0,0,0,989.5,348a6.58,6.58,0,0,0-1.59,3.85l0,.08h9.59v-.46a5.27,5.27,0,0,0-1.25-3.57A4.3,4.3,0,0,0,992.87,346.48Z"/><path class="cls-47" d="M1002.18,346.59v-1.35h4.07l.17,2.71a5.62,5.62,0,0,1,2.1-2.22,6,6,0,0,1,3.14-.79,5.18,5.18,0,0,1,3.13.92,5,5,0,0,1,1.8,2.79,6.36,6.36,0,0,1,2.11-2.72,5.55,5.55,0,0,1,3.34-1,5,5,0,0,1,4,1.74q1.42,1.74,1.43,5.39v8l2.47.21v1.33h-6.77v-1.33l2.47-.21v-8c0-2-.36-3.44-1.07-4.28a3.7,3.7,0,0,0-3-1.25,4,4,0,0,0-3.27,1.35,6.5,6.5,0,0,0-1.41,3.44,1.77,1.77,0,0,0,0,.23v8.56l2.47.2v1.33h-6.75v-1.33l2.47-.2v-8a6.55,6.55,0,0,0-1.09-4.25,3.69,3.69,0,0,0-3-1.28,4.52,4.52,0,0,0-3.06,1,5.2,5.2,0,0,0-1.59,2.63v10l2.47.2v1.33h-6.75v-1.33l2.47-.2v-13.3Z"/><path class="cls-47" d="M1043.53,361.62c-.12-.55-.2-1-.26-1.44s-.07-.81-.07-1.22a7.27,7.27,0,0,1-2.42,2.13,6.82,6.82,0,0,1-3.41.85,5.21,5.21,0,0,1-3.72-1.24,4.4,4.4,0,0,1-1.32-3.36,4.16,4.16,0,0,1,2-3.61,9.36,9.36,0,0,1,5.3-1.33h3.62v-2.16a3.52,3.52,0,0,0-1.13-2.76,4.61,4.61,0,0,0-3.15-1,7.84,7.84,0,0,0-2.49.38,5.56,5.56,0,0,0-1.89,1l-.15,2.2h-1.5l0-3.15a9.15,9.15,0,0,1,2.71-1.42,10.14,10.14,0,0,1,3.37-.55,6.57,6.57,0,0,1,4.36,1.38,4.85,4.85,0,0,1,1.65,3.95v8.05c0,.33,0,.65,0,1a8.54,8.54,0,0,0,.1.9l1.64.11v1.33Zm-6-1.29a6.56,6.56,0,0,0,3.46-.9,5.37,5.37,0,0,0,2.17-2.35v-3.29h-3.65a6.81,6.81,0,0,0-3.94,1,3,3,0,0,0-1.48,2.58,2.68,2.68,0,0,0,.92,2.12A3.67,3.67,0,0,0,1037.57,360.33Z"/><path class="cls-47" d="M1064.09,361.94a6.6,6.6,0,0,1-5.12-2.26,8.32,8.32,0,0,1-2-5.76v-.84a8.55,8.55,0,0,1,2-5.82,6.26,6.26,0,0,1,4.89-2.32,6.07,6.07,0,0,1,4.73,1.91,7.28,7.28,0,0,1,1.73,5.08v1.55h-11.56v.44a7.26,7.26,0,0,0,1.47,4.62,4.68,4.68,0,0,0,3.87,1.87,7.88,7.88,0,0,0,2.87-.47,5.64,5.64,0,0,0,2-1.35l.77,1.24a6.54,6.54,0,0,1-2.33,1.54A9,9,0,0,1,1064.09,361.94Zm-.24-15.46a4.34,4.34,0,0,0-3.37,1.54,6.53,6.53,0,0,0-1.6,3.85l0,.08h9.6v-.46a5.23,5.23,0,0,0-1.26-3.57A4.28,4.28,0,0,0,1063.85,346.48Z"/><path class="cls-47" d="M573.73,388a13.52,13.52,0,0,1-1.17,5.75,9.4,9.4,0,0,1-3.26,3.93l4.55,3.25L572.6,402l-5-3.53A8.54,8.54,0,0,1,566,399a9.48,9.48,0,0,1-1.77.16,8.43,8.43,0,0,1-6.79-3.12A12.15,12.15,0,0,1,554.8,388v-.28a12.18,12.18,0,0,1,2.6-8.08,8.43,8.43,0,0,1,6.78-3.13,8.64,8.64,0,0,1,6.9,3.13,12,12,0,0,1,2.65,8.08Zm-1.81-.31a10.91,10.91,0,0,0-2.09-6.94,6.85,6.85,0,0,0-5.65-2.65,6.62,6.62,0,0,0-5.53,2.65,11.07,11.07,0,0,0-2,6.94V388a11.07,11.07,0,0,0,2,7,6.64,6.64,0,0,0,5.54,2.65,6.8,6.8,0,0,0,5.65-2.65,11,11,0,0,0,2.07-7Z"/><path class="cls-47" d="M588.84,396.13a5.58,5.58,0,0,1-2.11,2.22,6.1,6.1,0,0,1-3.16.79,5,5,0,0,1-4.05-1.76c-1-1.17-1.46-3-1.46-5.45V384l-2-.2v-1.35h3.83V392a7,7,0,0,0,1,4.3,3.49,3.49,0,0,0,2.9,1.31,5.39,5.39,0,0,0,3.28-.91,4.85,4.85,0,0,0,1.72-2.52V384l-2.33-.2v-1.35h4.14v14.85l2.2.2v1.33H589Z"/><path class="cls-47" d="M602.67,399.14a6.6,6.6,0,0,1-5.11-2.26,8.32,8.32,0,0,1-2-5.76v-.84a8.5,8.5,0,0,1,2-5.82,6.24,6.24,0,0,1,4.88-2.32,6.08,6.08,0,0,1,4.74,1.91,7.28,7.28,0,0,1,1.73,5.08v1.55H597.33v.44a7.19,7.19,0,0,0,1.48,4.62,4.67,4.67,0,0,0,3.86,1.87,8,8,0,0,0,2.88-.47,5.52,5.52,0,0,0,2-1.35l.78,1.25a6.7,6.7,0,0,1-2.34,1.53A8.88,8.88,0,0,1,602.67,399.14Zm-.24-15.46a4.37,4.37,0,0,0-3.37,1.54,6.61,6.61,0,0,0-1.59,3.85l0,.08h9.59v-.46a5.22,5.22,0,0,0-1.25-3.57A4.3,4.3,0,0,0,602.43,383.68Z"/><path class="cls-47" d="M624,387.5h-1.49l-.21-2.32a4.59,4.59,0,0,0-1.72-1.1,6.7,6.7,0,0,0-2.38-.4,4.44,4.44,0,0,0-3,.86,2.56,2.56,0,0,0-1,2,2.37,2.37,0,0,0,.86,1.87,8.21,8.21,0,0,0,3.41,1.3,11.3,11.3,0,0,1,4.38,1.78,3.68,3.68,0,0,1,1.45,3.07,4,4,0,0,1-1.66,3.31,7,7,0,0,1-4.38,1.26,10.22,10.22,0,0,1-3.31-.51,7.88,7.88,0,0,1-2.58-1.43v-3.3h1.47l.26,2.33a4.2,4.2,0,0,0,1.84,1.06,8.44,8.44,0,0,0,2.32.32,5,5,0,0,0,3.1-.86,2.56,2.56,0,0,0,1.14-2.09,2.64,2.64,0,0,0-.95-2,7.59,7.59,0,0,0-3.41-1.41,11.67,11.67,0,0,1-4.34-1.69,3.45,3.45,0,0,1-1.41-2.94,4,4,0,0,1,1.59-3.18,6.43,6.43,0,0,1,4.19-1.29,9.58,9.58,0,0,1,3.29.55,6.64,6.64,0,0,1,2.43,1.49Z"/><path class="cls-47" d="M631.81,378.25v4.19h3.6v1.49h-3.6V394.6a3.55,3.55,0,0,0,.58,2.28,2,2,0,0,0,1.56.67,7.94,7.94,0,0,0,.85,0c.28,0,.6-.07,1-.13l.27,1.35a4.7,4.7,0,0,1-1.1.3,8.15,8.15,0,0,1-1.3.11,3.39,3.39,0,0,1-2.69-1.09,5.15,5.15,0,0,1-1-3.45V383.93h-2.81v-1.49H630v-4.19Z"/><path class="cls-47" d="M638.44,390.39a8.75,8.75,0,0,1,2-5.93,7.11,7.11,0,0,1,10.51,0,8.75,8.75,0,0,1,2,5.93v.5a8.81,8.81,0,0,1-2,5.94,6.54,6.54,0,0,1-5.24,2.31,6.61,6.61,0,0,1-5.28-2.31,8.76,8.76,0,0,1-2-5.94Zm1.82.5a7.78,7.78,0,0,0,1.44,4.78,4.71,4.71,0,0,0,4,1.94,4.66,4.66,0,0,0,4-1.94,7.78,7.78,0,0,0,1.44-4.78v-.5a7.77,7.77,0,0,0-1.44-4.75,5,5,0,0,0-8,0,7.77,7.77,0,0,0-1.44,4.75Zm10.66-14.74a3.09,3.09,0,0,1-.84,2.21,2.73,2.73,0,0,1-2.07.87,3.91,3.91,0,0,1-2.29-.83,3.67,3.67,0,0,0-2-.83,1.59,1.59,0,0,0-1.2.53,1.92,1.92,0,0,0-.48,1.35l-1.2-.28a3.11,3.11,0,0,1,.81-2.18,2.69,2.69,0,0,1,2.07-.89,4.17,4.17,0,0,1,2.23.83,4,4,0,0,0,2,.84,1.57,1.57,0,0,0,1.19-.55,1.92,1.92,0,0,0,.5-1.38Z"/><path class="cls-47" d="M663.1,399.14a6.62,6.62,0,0,1-5.12-2.26,8.31,8.31,0,0,1-2-5.76v-.84a8.5,8.5,0,0,1,2-5.82,6.22,6.22,0,0,1,4.88-2.32,6.09,6.09,0,0,1,4.74,1.91,7.27,7.27,0,0,1,1.72,5.08v1.55H657.76v.44a7.24,7.24,0,0,0,1.47,4.62,4.7,4.7,0,0,0,3.87,1.87,8,8,0,0,0,2.88-.47,5.69,5.69,0,0,0,2-1.35l.77,1.25a6.57,6.57,0,0,1-2.33,1.53A9,9,0,0,1,663.1,399.14Zm-.24-15.46a4.36,4.36,0,0,0-3.37,1.54,6.62,6.62,0,0,0-1.6,3.85l0,.08h9.6v-.46a5.23,5.23,0,0,0-1.26-3.57A4.27,4.27,0,0,0,662.86,383.68Z"/><path class="cls-47" d="M684.44,387.5H683l-.21-2.32a4.67,4.67,0,0,0-1.72-1.1,6.76,6.76,0,0,0-2.39-.4,4.44,4.44,0,0,0-3,.86,2.58,2.58,0,0,0-1,2,2.36,2.36,0,0,0,.85,1.87,8.21,8.21,0,0,0,3.42,1.3,11.25,11.25,0,0,1,4.37,1.78,3.68,3.68,0,0,1,1.46,3.07,4,4,0,0,1-1.66,3.31,7.07,7.07,0,0,1-4.38,1.26,10.17,10.17,0,0,1-3.31-.51,7.69,7.69,0,0,1-2.58-1.43v-3.3h1.47l.25,2.33a4.25,4.25,0,0,0,1.84,1.06,8.51,8.51,0,0,0,2.33.32,5,5,0,0,0,3.1-.86,2.56,2.56,0,0,0,1.14-2.09,2.64,2.64,0,0,0-1-2,7.59,7.59,0,0,0-3.41-1.41,11.6,11.6,0,0,1-4.34-1.69,3.44,3.44,0,0,1-1.42-2.94,4,4,0,0,1,1.59-3.18,6.45,6.45,0,0,1,4.19-1.29,9.64,9.64,0,0,1,3.3.55,6.81,6.81,0,0,1,2.43,1.49Z"/><path class="cls-47" d="M695,397.49l1.62-.12,7.82-20.59h1.71l7.75,20.59,1.65.12v1.33H710.1v-1.33l1.92-.15-1.81-4.94h-9.9l-1.84,4.94,1.93.15v1.33H695Zm5.93-6.71h8.7l-4.28-11.65h-.09Z"/><path class="cls-47" d="M721,383.79l-2,.15,4.09,10.78.53,1.92h.09l.58-1.92,4-10.78-2-.15v-1.35h5.51v1.35l-1.61.14-5.78,14.89h-1.45l-5.8-14.89-1.6-.14v-1.35H721Z"/><path class="cls-47" d="M744.84,398.82c-.12-.55-.21-1-.26-1.44a9.87,9.87,0,0,1-.08-1.22,7.18,7.18,0,0,1-2.42,2.13,6.78,6.78,0,0,1-3.4.85A5.22,5.22,0,0,1,735,397.9a4.43,4.43,0,0,1-1.31-3.36,4.16,4.16,0,0,1,2-3.61,9.34,9.34,0,0,1,5.3-1.33h3.61v-2.16a3.51,3.51,0,0,0-1.12-2.76,4.66,4.66,0,0,0-3.16-1,7.84,7.84,0,0,0-2.49.38,5.51,5.51,0,0,0-1.88,1l-.16,2.2H734.2v-3.15a9.21,9.21,0,0,1,2.72-1.42,10.09,10.09,0,0,1,3.37-.55,6.58,6.58,0,0,1,4.36,1.38,4.85,4.85,0,0,1,1.65,4v8c0,.33,0,.65,0,1a6.52,6.52,0,0,0,.1.9l1.63.11v1.33Zm-6-1.29a6.62,6.62,0,0,0,3.47-.9,5.35,5.35,0,0,0,2.16-2.35V391h-3.64a6.84,6.84,0,0,0-4,1,3,3,0,0,0-1.47,2.58,2.67,2.67,0,0,0,.91,2.12A3.67,3.67,0,0,0,738.87,397.53Z"/><path class="cls-47" d="M750.27,376.56v-1.35h4.27v22.08l2.47.2v1.33h-6.74v-1.33l2.47-.2V376.75Z"/><path class="cls-47" d="M759.75,397.49l2.46-.2V384l-2.46-.2v-1.35H764v14.85l2.46.2v1.33h-6.73ZM764,377.75h-1.81v-2.54H764Z"/><path class="cls-47" d="M780.83,398.82c-.12-.55-.21-1-.26-1.44a9.87,9.87,0,0,1-.07-1.22,7.27,7.27,0,0,1-2.42,2.13,6.82,6.82,0,0,1-3.41.85A5.21,5.21,0,0,1,771,397.9a4.4,4.4,0,0,1-1.32-3.36,4.16,4.16,0,0,1,2-3.61,9.34,9.34,0,0,1,5.3-1.33h3.62v-2.16a3.52,3.52,0,0,0-1.13-2.76,4.62,4.62,0,0,0-3.16-1,7.82,7.82,0,0,0-2.48.38,5.56,5.56,0,0,0-1.89,1l-.15,2.2h-1.5l0-3.15a9.15,9.15,0,0,1,2.71-1.42,10.14,10.14,0,0,1,3.37-.55,6.57,6.57,0,0,1,4.36,1.38,4.85,4.85,0,0,1,1.65,4v8c0,.33,0,.65,0,1a8.54,8.54,0,0,0,.1.9l1.64.11v1.33Zm-6-1.29a6.56,6.56,0,0,0,3.46-.9,5.43,5.43,0,0,0,2.17-2.35V391h-3.65a6.81,6.81,0,0,0-3.94,1,3,3,0,0,0-1.48,2.58,2.68,2.68,0,0,0,.92,2.12A3.67,3.67,0,0,0,774.87,397.53Z"/><path class="cls-47" d="M790.79,378.25v4.19h3.6v1.49h-3.6V394.6a3.49,3.49,0,0,0,.59,2.28,1.92,1.92,0,0,0,1.55.67,7.94,7.94,0,0,0,.85,0c.28,0,.6-.07,1-.13l.28,1.35a4.93,4.93,0,0,1-1.11.3,8.15,8.15,0,0,1-1.3.11,3.39,3.39,0,0,1-2.69-1.09,5.15,5.15,0,0,1-1-3.45V383.93h-2.81v-1.49H789v-4.19Z"/><path class="cls-47" d="M797.6,397.49l2.47-.2V384l-2.47-.2v-1.35h4.27v14.85l2.47.2v1.33H797.6Zm4.27-19.74h-1.8v-2.54h1.8Z"/><path class="cls-47" d="M812.13,383.79l-2,.15,4.09,10.78.53,1.92h.09l.57-1.92,4-10.78-2-.15v-1.35h5.51v1.35l-1.61.14-5.78,14.89H814l-5.8-14.89-1.61-.14v-1.35h5.51Z"/><path class="cls-47" d="M836,398.82a13.18,13.18,0,0,1-.26-1.44,9.87,9.87,0,0,1-.08-1.22,7.18,7.18,0,0,1-2.42,2.13,6.78,6.78,0,0,1-3.4.85,5.22,5.22,0,0,1-3.73-1.24,4.4,4.4,0,0,1-1.32-3.36,4.15,4.15,0,0,1,2-3.61A9.33,9.33,0,0,1,832,389.6h3.62v-2.16a3.48,3.48,0,0,0-1.13-2.76,4.61,4.61,0,0,0-3.15-1,7.84,7.84,0,0,0-2.49.38,5.66,5.66,0,0,0-1.89,1l-.15,2.2h-1.49v-3.15a9.21,9.21,0,0,1,2.72-1.42,10,10,0,0,1,3.36-.55,6.57,6.57,0,0,1,4.36,1.38,4.85,4.85,0,0,1,1.65,4v8q0,.5,0,1a5.28,5.28,0,0,0,.1.9l1.63.11v1.33Zm-6-1.29a6.62,6.62,0,0,0,3.47-.9,5.35,5.35,0,0,0,2.16-2.35V391H832a6.84,6.84,0,0,0-4,1,3,3,0,0,0-1.47,2.58,2.67,2.67,0,0,0,.91,2.12A3.67,3.67,0,0,0,830,397.53Z"/><path class="cls-47" d="M853.63,387.5h-1.49l-.21-2.32a4.59,4.59,0,0,0-1.72-1.1,6.7,6.7,0,0,0-2.38-.4,4.47,4.47,0,0,0-3,.86,2.58,2.58,0,0,0-1,2,2.37,2.37,0,0,0,.86,1.87,8.21,8.21,0,0,0,3.41,1.3,11.3,11.3,0,0,1,4.38,1.78,3.7,3.7,0,0,1,1.45,3.07,4,4,0,0,1-1.66,3.31,7,7,0,0,1-4.38,1.26,10.17,10.17,0,0,1-3.31-.51A7.88,7.88,0,0,1,842,397.2v-3.3h1.47l.26,2.33a4.14,4.14,0,0,0,1.84,1.06,8.44,8.44,0,0,0,2.32.32,5,5,0,0,0,3.1-.86,2.56,2.56,0,0,0,1.14-2.09,2.64,2.64,0,0,0-.95-2,7.59,7.59,0,0,0-3.41-1.41,11.6,11.6,0,0,1-4.34-1.69,3.45,3.45,0,0,1-1.41-2.94,4,4,0,0,1,1.59-3.18,6.41,6.41,0,0,1,4.19-1.29,9.58,9.58,0,0,1,3.29.55,6.81,6.81,0,0,1,2.43,1.49Z"/><path class="cls-47" d="M876.1,398.82c-.12-.55-.2-1-.25-1.44a9.87,9.87,0,0,1-.08-1.22,7.27,7.27,0,0,1-2.42,2.13,6.82,6.82,0,0,1-3.41.85,5.21,5.21,0,0,1-3.72-1.24,4.4,4.4,0,0,1-1.32-3.36,4.16,4.16,0,0,1,2-3.61,9.36,9.36,0,0,1,5.3-1.33h3.62v-2.16a3.52,3.52,0,0,0-1.13-2.76,4.61,4.61,0,0,0-3.15-1,7.84,7.84,0,0,0-2.49.38,5.56,5.56,0,0,0-1.89,1l-.15,2.2h-1.5l0-3.15a9.15,9.15,0,0,1,2.71-1.42,10.14,10.14,0,0,1,3.37-.55,6.57,6.57,0,0,1,4.36,1.38,4.85,4.85,0,0,1,1.65,4v8c0,.33,0,.65,0,1a8.54,8.54,0,0,0,.1.9l1.64.11v1.33Zm-6-1.29a6.56,6.56,0,0,0,3.46-.9,5.37,5.37,0,0,0,2.17-2.35V391h-3.65a6.81,6.81,0,0,0-3.94,1,3,3,0,0,0-1.48,2.58,2.68,2.68,0,0,0,.92,2.12A3.67,3.67,0,0,0,870.14,397.53Z"/><path class="cls-47" d="M893.78,387.5H892.3l-.21-2.32a4.67,4.67,0,0,0-1.72-1.1,6.76,6.76,0,0,0-2.39-.4,4.44,4.44,0,0,0-3,.86,2.58,2.58,0,0,0-1,2,2.36,2.36,0,0,0,.85,1.87,8.21,8.21,0,0,0,3.42,1.3,11.25,11.25,0,0,1,4.37,1.78,3.68,3.68,0,0,1,1.46,3.07,4,4,0,0,1-1.66,3.31,7.07,7.07,0,0,1-4.38,1.26,10.17,10.17,0,0,1-3.31-.51,7.69,7.69,0,0,1-2.58-1.43v-3.3h1.47l.25,2.33a4.25,4.25,0,0,0,1.84,1.06,8.51,8.51,0,0,0,2.33.32,5,5,0,0,0,3.1-.86,2.55,2.55,0,0,0,1.13-2.09,2.63,2.63,0,0,0-.94-2,7.59,7.59,0,0,0-3.41-1.41,11.6,11.6,0,0,1-4.34-1.69,3.44,3.44,0,0,1-1.42-2.94,4,4,0,0,1,1.59-3.18,6.45,6.45,0,0,1,4.19-1.29,9.64,9.64,0,0,1,3.3.55,6.81,6.81,0,0,1,2.43,1.49Z"/><path class="cls-47" d="M909.3,387.5h-1.49l-.21-2.32a4.55,4.55,0,0,0-1.71-1.1,6.8,6.8,0,0,0-2.39-.4,4.44,4.44,0,0,0-3,.86,2.58,2.58,0,0,0-1,2,2.36,2.36,0,0,0,.85,1.87,8.21,8.21,0,0,0,3.41,1.3,11.3,11.3,0,0,1,4.38,1.78,3.68,3.68,0,0,1,1.45,3.07,4,4,0,0,1-1.66,3.31,7,7,0,0,1-4.38,1.26,10.22,10.22,0,0,1-3.31-.51,7.88,7.88,0,0,1-2.58-1.43v-3.3h1.47l.26,2.33a4.2,4.2,0,0,0,1.84,1.06,8.44,8.44,0,0,0,2.32.32,5,5,0,0,0,3.1-.86,2.56,2.56,0,0,0,1.14-2.09,2.64,2.64,0,0,0-1-2,7.54,7.54,0,0,0-3.41-1.41,11.67,11.67,0,0,1-4.34-1.69,3.45,3.45,0,0,1-1.41-2.94,4,4,0,0,1,1.59-3.18,6.45,6.45,0,0,1,4.19-1.29,9.58,9.58,0,0,1,3.29.55,6.64,6.64,0,0,1,2.43,1.49Z"/><path class="cls-47" d="M912.93,390.39a8.8,8.8,0,0,1,2-5.93,7.12,7.12,0,0,1,10.52,0,8.75,8.75,0,0,1,2,5.93v.5a8.81,8.81,0,0,1-2,5.94,6.54,6.54,0,0,1-5.24,2.31,6.64,6.64,0,0,1-5.29-2.31,8.81,8.81,0,0,1-2-5.94Zm1.82.5a7.78,7.78,0,0,0,1.44,4.78,5.06,5.06,0,0,0,8,0,7.78,7.78,0,0,0,1.44-4.78v-.5a7.77,7.77,0,0,0-1.44-4.75,4.69,4.69,0,0,0-4-2,4.64,4.64,0,0,0-4,2,7.77,7.77,0,0,0-1.44,4.75Z"/><path class="cls-47" d="M937.36,397.61a5.15,5.15,0,0,0,3.18-1,3.37,3.37,0,0,0,1.38-2.86h1.6l0,.09a4.49,4.49,0,0,1-1.81,3.8,6.72,6.72,0,0,1-4.38,1.53,6.22,6.22,0,0,1-5.16-2.29,9.18,9.18,0,0,1-1.83-5.9v-.64a9.15,9.15,0,0,1,1.83-5.87,6.22,6.22,0,0,1,5.15-2.3,8.36,8.36,0,0,1,3.46.71,6.8,6.8,0,0,1,2.56,1.94l.08,3.57H941.9l-.28-2.9a5.22,5.22,0,0,0-1.81-1.3,6,6,0,0,0-2.46-.48,4.36,4.36,0,0,0-3.9,1.89,8.37,8.37,0,0,0-1.26,4.74V391a8.39,8.39,0,0,0,1.25,4.78A4.4,4.4,0,0,0,937.36,397.61Z"/><path class="cls-47" d="M946.81,397.49l2.46-.2V384l-2.46-.2v-1.35h4.27v14.85l2.46.2v1.33h-6.73Zm4.27-19.74h-1.81v-2.54h1.81Z"/><path class="cls-47" d="M967.89,398.82c-.12-.55-.2-1-.25-1.44a9.87,9.87,0,0,1-.08-1.22,7.27,7.27,0,0,1-2.42,2.13,6.82,6.82,0,0,1-3.41.85A5.21,5.21,0,0,1,958,397.9a4.4,4.4,0,0,1-1.32-3.36,4.16,4.16,0,0,1,1.95-3.61,9.36,9.36,0,0,1,5.3-1.33h3.62v-2.16a3.52,3.52,0,0,0-1.13-2.76,4.61,4.61,0,0,0-3.15-1,7.84,7.84,0,0,0-2.49.38,5.56,5.56,0,0,0-1.89,1l-.15,2.2h-1.5l0-3.15a9.15,9.15,0,0,1,2.71-1.42,10.14,10.14,0,0,1,3.37-.55,6.57,6.57,0,0,1,4.36,1.38,4.85,4.85,0,0,1,1.65,4v8c0,.33,0,.65,0,1a8.54,8.54,0,0,0,.1.9l1.64.11v1.33Zm-6-1.29a6.56,6.56,0,0,0,3.46-.9,5.37,5.37,0,0,0,2.17-2.35V391h-3.65a6.81,6.81,0,0,0-3.94,1,3,3,0,0,0-1.48,2.58,2.68,2.68,0,0,0,.92,2.12A3.67,3.67,0,0,0,961.93,397.53Z"/><path class="cls-47" d="M985.07,396.46a5.53,5.53,0,0,1-2.1,2,6.22,6.22,0,0,1-3,.7,5.4,5.4,0,0,1-4.59-2.2,9.43,9.43,0,0,1-1.66-5.85v-.32a10.69,10.69,0,0,1,1.66-6.28,5.34,5.34,0,0,1,4.62-2.35,5.63,5.63,0,0,1,5.06,2.77v-8.16l-2.47-.19v-1.35h4.28v22.08l2.47.2v1.33h-4.09Zm-9.55-5.37a8.33,8.33,0,0,0,1.19,4.72,4,4,0,0,0,3.58,1.76,5.14,5.14,0,0,0,2.91-.79,5.27,5.27,0,0,0,1.83-2.17v-7.75a5.74,5.74,0,0,0-1.75-2.27,4.76,4.76,0,0,0-3-.88,4,4,0,0,0-3.59,2,9.58,9.58,0,0,0-1.21,5.1Z"/><path class="cls-47" d="M1003.4,398.82c-.12-.55-.2-1-.25-1.44a9.87,9.87,0,0,1-.08-1.22,7.18,7.18,0,0,1-2.42,2.13,6.82,6.82,0,0,1-3.41.85,5.21,5.21,0,0,1-3.72-1.24,4.4,4.4,0,0,1-1.32-3.36,4.15,4.15,0,0,1,2-3.61,9.31,9.31,0,0,1,5.29-1.33h3.62v-2.16a3.52,3.52,0,0,0-1.13-2.76,4.61,4.61,0,0,0-3.15-1,7.84,7.84,0,0,0-2.49.38,5.66,5.66,0,0,0-1.89,1l-.15,2.2h-1.5l0-3.15a9.15,9.15,0,0,1,2.71-1.42,10.14,10.14,0,0,1,3.37-.55,6.57,6.57,0,0,1,4.36,1.38,4.85,4.85,0,0,1,1.65,4v8c0,.33,0,.65,0,1a8.54,8.54,0,0,0,.1.9l1.64.11v1.33Zm-6-1.29a6.62,6.62,0,0,0,3.47-.9,5.35,5.35,0,0,0,2.16-2.35V391h-3.65a6.81,6.81,0,0,0-3.94,1A3.05,3.05,0,0,0,994,394.6a2.68,2.68,0,0,0,.92,2.12A3.67,3.67,0,0,0,997.44,397.53Z"/><path class="cls-47" d="M1021.08,387.5h-1.48l-.21-2.32a4.67,4.67,0,0,0-1.72-1.1,6.74,6.74,0,0,0-2.38-.4,4.45,4.45,0,0,0-3,.86,2.58,2.58,0,0,0-1,2,2.34,2.34,0,0,0,.86,1.87,8.15,8.15,0,0,0,3.41,1.3,11.25,11.25,0,0,1,4.37,1.78,3.68,3.68,0,0,1,1.46,3.07,4,4,0,0,1-1.66,3.31,7.07,7.07,0,0,1-4.38,1.26,10.17,10.17,0,0,1-3.31-.51,7.88,7.88,0,0,1-2.58-1.43v-3.3H1011l.25,2.33a4.25,4.25,0,0,0,1.84,1.06,8.57,8.57,0,0,0,2.33.32,5,5,0,0,0,3.1-.86,2.56,2.56,0,0,0,1.14-2.09,2.64,2.64,0,0,0-1-2,7.59,7.59,0,0,0-3.41-1.41,11.6,11.6,0,0,1-4.34-1.69,3.46,3.46,0,0,1-1.42-2.94,4,4,0,0,1,1.59-3.18,6.46,6.46,0,0,1,4.2-1.29,9.62,9.62,0,0,1,3.29.55,6.81,6.81,0,0,1,2.43,1.49Z"/><path class="cls-47" d="M1027.52,398.82h-2.08v-2.48h2.08Z"/></g></svg>