<svg xmlns="http://www.w3.org/2000/svg" viewBox="0 0 539.48 234.82"><defs><style>.cls-1{fill:#8cbfff;}.cls-2{opacity:0.4;}.cls-3{font-size:20px;}.cls-22,.cls-23,.cls-24,.cls-25,.cls-26,.cls-27,.cls-28,.cls-3{font-family:Raleway-Regular, Raleway;}.cls-23,.cls-4{letter-spacing:-0.03em;}.cls-20,.cls-24,.cls-5{letter-spacing:0em;}.cls-12,.cls-21,.cls-6{letter-spacing:-0.01em;}.cls-10,.cls-19,.cls-7{letter-spacing:0em;}.cls-10,.cls-11,.cls-12,.cls-17,.cls-8,.cls-9{font-family:Raleway-Italic, Raleway;}.cls-10,.cls-11,.cls-12,.cls-18,.cls-19,.cls-20,.cls-21,.cls-8,.cls-9{font-style:italic;}.cls-28,.cls-35,.cls-9{letter-spacing:0em;}.cls-11{letter-spacing:0em;}.cls-13{letter-spacing:-0.03em;}.cls-14{letter-spacing:-0.02em;}.cls-15{letter-spacing:-0.01em;}.cls-16{letter-spacing:-0.01em;}.cls-18{letter-spacing:-0.05em;}.cls-25,.cls-31{letter-spacing:-0.01em;}.cls-26{letter-spacing:-0.02em;}.cls-27{letter-spacing:-0.02em;}.cls-29{letter-spacing:-0.02em;}.cls-30{letter-spacing:0em;}.cls-32{letter-spacing:-0.01em;}.cls-33{letter-spacing:-0.02em;}.cls-34{letter-spacing:-0.01em;}.cls-36{letter-spacing:-0.01em;}.cls-37{letter-spacing:-0.01em;}.cls-38{letter-spacing:0em;}.cls-39{letter-spacing:-0.03em;}</style></defs><title>CaixaTexto</title><g id="Camada_2" data-name="Camada 2"><g id="Camada_1-2" data-name="Camada 1"><g id="Camada_2-2" data-name="Camada 2"><g id="Camada_1-2-2" data-name="Camada 1-2"><polygon class="cls-1" points="9.74 9.74 45 9.74 45 0 0 0 0 45 9.74 45 9.74 9.74"/><polygon class="cls-1" points="9.74 225.08 9.74 189.82 0 189.82 0 234.82 45 234.82 45 225.08 9.74 225.08"/><polygon class="cls-1" points="529.74 225.08 494.48 225.08 494.48 234.82 539.48 234.82 539.48 189.82 529.74 189.82 529.74 225.08"/><polygon class="cls-1" points="529.74 9.74 529.74 45 539.48 45 539.48 0 494.48 0 494.48 9.74 529.74 9.74"/><g class="cls-2"><rect class="cls-1" x="9.74" y="9.74" width="520" height="215.34"/></g><text class="cls-3" transform="translate(38.74 49.34)">O p<tspan class="cls-4" x="32.46" y="0">r</tspan><tspan x="38.96" y="0">ese</tspan><tspan class="cls-5" x="72.18" y="0">n</tspan><tspan class="cls-6" x="83.74" y="0">t</tspan><tspan class="cls-7" x="90.18" y="0">e curso, </tspan><tspan class="cls-8" x="168.14" y="0">Apli</tspan><tspan class="cls-9" x="202.56" y="0">c</tspan><tspan class="cls-10" x="212.98" y="0">a</tspan><tspan class="cls-9" x="224.94" y="0">ç</tspan><tspan class="cls-8" x="235.36" y="0">ões do Pensame</tspan><tspan class="cls-11" x="383.64" y="0">n</tspan><tspan class="cls-12" x="394.72" y="0">t</tspan><tspan class="cls-8" x="400.88" y="0">o </tspan><tspan class="cls-8"><tspan x="0" y="24">Compu</tspan><tspan class="cls-6" x="65.38" y="24">t</tspan><tspan class="cls-7" x="71.54" y="24">aciona</tspan><tspan class="cls-13" x="132.88" y="24">l</tspan><tspan x="137.64" y="24" xml:space="preserve"> pa</tspan><tspan class="cls-14" x="166.44" y="24">r</tspan><tspan x="172.82" y="24">a os</tspan><tspan class="cls-13" x="210.58" y="24"> </tspan><tspan x="215.04" y="24">Anos </tspan><tspan class="cls-15" x="265.04" y="24">F</tspan><tspan x="276.3" y="24">inais do </tspan><tspan class="cls-16" x="350.7" y="24">E</tspan><tspan x="362.16" y="24">nsino </tspan></tspan><tspan class="cls-17"><tspan class="cls-18" x="0" y="48">F</tspan><tspan class="cls-19" x="10.54" y="48">undame</tspan><tspan class="cls-20" x="85.26" y="48">n</tspan><tspan class="cls-21" x="96.34" y="48">t</tspan><tspan class="cls-19" x="102.5" y="48">al,</tspan><tspan class="cls-22" x="124.18" y="48" xml:space="preserve"> ap</tspan><tspan class="cls-23" x="152.52" y="48">r</tspan><tspan class="cls-22" x="159.02" y="48">ese</tspan><tspan class="cls-24" x="192.24" y="48">n</tspan><tspan class="cls-22" x="203.8" y="48">ta</tspan><tspan class="cls-25" x="221.4" y="48">r</tspan><tspan class="cls-22" x="228.28" y="48">á </tspan><tspan class="cls-26" x="244.28" y="48">e</tspan><tspan class="cls-27" x="255.64" y="48">x</tspan><tspan class="cls-22" x="265.28" y="48">emplos de </tspan><tspan class="cls-28" x="369.2" y="48">c</tspan><tspan class="cls-22" x="380.08" y="48">omo </tspan></tspan><tspan class="cls-29" x="0" y="72">v</tspan><tspan class="cls-30" x="10.3" y="72">o</tspan><tspan class="cls-5" x="22.2" y="72">c</tspan><tspan x="33.08" y="72">ê pode</tspan><tspan class="cls-31" x="98.34" y="72">r</tspan><tspan x="105.22" y="72">á apoia</tspan><tspan class="cls-14" x="171.62" y="72">r</tspan><tspan x="178.16" y="72" xml:space="preserve"> o dese</tspan><tspan class="cls-32" x="245.92" y="72">n</tspan><tspan class="cls-33" x="257.34" y="72">v</tspan><tspan class="cls-7" x="267.64" y="72">o</tspan><tspan class="cls-34" x="279.54" y="72">l</tspan><tspan class="cls-30" x="284.76" y="72">vime</tspan><tspan class="cls-35" x="329.9" y="72">n</tspan><tspan class="cls-6" x="341.46" y="72">t</tspan><tspan x="347.9" y="72">o do </tspan><tspan class="cls-15" x="0" y="96">P</tspan><tspan x="12.26" y="96">ensame</tspan><tspan class="cls-35" x="86.42" y="96">n</tspan><tspan class="cls-36" x="97.98" y="96">t</tspan><tspan class="cls-30" x="104.42" y="96">o Computacional, pa</tspan><tspan class="cls-37" x="295.32" y="96">r</tspan><tspan x="302.2" y="96">a alunos nessa </tspan><tspan class="cls-38" x="0" y="120">e</tspan><tspan x="11.66" y="120">tapa de es</tspan><tspan class="cls-5" x="108.36" y="120">c</tspan><tspan x="119.24" y="120">olarização, e segui</tspan><tspan class="cls-31" x="289.9" y="120">r</tspan><tspan x="296.78" y="120">á a mesma </tspan><tspan x="0" y="144">o</tspan><tspan class="cls-4" x="11.9" y="144">r</tspan><tspan x="18.4" y="144" xml:space="preserve">ganização do curso  </tspan><tspan class="cls-13" x="208.46" y="144">r</tspan><tspan x="214.96" y="144">el</tspan><tspan class="cls-38" x="232.14" y="144">a</tspan><tspan x="242.96" y="144">ti</tspan><tspan class="cls-29" x="254.02" y="144">v</tspan><tspan class="cls-30" x="264.32" y="144">o aos</tspan><tspan class="cls-39" x="313.86" y="144"> </tspan><tspan x="318.34" y="144">Anos Iniciais.</tspan></text></g></g></g></g></svg>