<svg xmlns="http://www.w3.org/2000/svg" viewBox="0 0 629.25 40.74"><defs><style>.cls-1{fill:#229383;}.cls-2{fill:#2fc1a8;}.cls-3{fill:#fff;}</style></defs><title>Header</title><g id="Camada_2" data-name="Camada 2"><g id="Camada_1-2" data-name="Camada 1"><path class="cls-1" d="M0,0H629.25a0,0,0,0,1,0,0V36.74a4,4,0,0,1-4,4H4a4,4,0,0,1-4-4V0A0,0,0,0,1,0,0Z"/><path class="cls-2" d="M315.13,0l-.5,40.74H625.25a3.72,3.72,0,0,0,2.95-1.51,4.83,4.83,0,0,0,1.05-3.15V0Z"/><path class="cls-3" d="M329.73,18.74a3.58,3.58,0,0,0-3.4-1.79h-.22a4,4,0,0,0-1.18.24,4.42,4.42,0,0,0-1.76,1.05A4.9,4.9,0,0,1,320,19.57h0a3.89,3.89,0,0,1-.48,0,.65.65,0,0,1-.44-1h0a4,4,0,0,1,.32-.36h0a4.9,4.9,0,0,1,3.16-1.31,4.43,4.43,0,0,0,2-.51,4,4,0,0,0,1-.66l.15-.14h0a4,4,0,1,0-5.66-5.66h0l-.14.15a4,4,0,0,0-.67,1,4.41,4.41,0,0,0-.5,2,4.9,4.9,0,0,1-1.31,3.16h0a3.89,3.89,0,0,1-.34.3h0a.65.65,0,0,1-.42.15.66.66,0,0,1-.65-.52h0a.66.66,0,0,1,0-.13h0a3.9,3.9,0,0,1,0-.39h0a4.9,4.9,0,0,1,1.31-3.16,4.43,4.43,0,0,0,1.06-1.79,4,4,0,0,0,.23-1.15c0-.14,0-.22,0-.22h0a3.7,3.7,0,0,0-2.05-3.54,4,4,0,0,0-6,3.54h0s0,.08,0,.22a4,4,0,0,0,.24,1.16,4.42,4.42,0,0,0,1.06,1.78,4.9,4.9,0,0,1,1.31,3.16h0a3.9,3.9,0,0,1,0,.39h0a.66.66,0,0,1,0,.1v0a.66.66,0,0,1-1.06.37h0a3.89,3.89,0,0,1-.34-.3h0A4.9,4.9,0,0,1,310.49,13,4.45,4.45,0,0,0,310,11a4,4,0,0,0-.63-.94l-.14-.16h0a4,4,0,1,0-5.66,5.66h0l.15.13a4,4,0,0,0,1,.68,4.4,4.4,0,0,0,2,.49,4.9,4.9,0,0,1,3.16,1.31h0a3.84,3.84,0,0,1,.33.38.65.65,0,0,1-.45,1,3.89,3.89,0,0,1-.48,0h0a4.9,4.9,0,0,1-3.16-1.31,4.43,4.43,0,0,0-1.79-1.06,4,4,0,0,0-1.15-.23h-.22A3.7,3.7,0,0,0,299.38,19a4,4,0,0,0,3.54,6h.22a4,4,0,0,0,1.16-.24,4.42,4.42,0,0,0,1.78-1.06,4.9,4.9,0,0,1,3.16-1.31h0a4,4,0,0,1,4,4,4.9,4.9,0,0,1-1.31,3.16,4.4,4.4,0,0,0-1,1.73,4,4,0,0,0-.26,1.24c0,.12,0,.19,0,.19a4,4,0,0,0,5.94,3.55,3.72,3.72,0,0,0,2.07-3.55h0s0-.09,0-.25a4,4,0,0,0-.22-1.09,4.44,4.44,0,0,0-1.07-1.82A4.9,4.9,0,0,1,316,26.35a4,4,0,0,1,4-4h0a4.9,4.9,0,0,1,3.16,1.31,4.42,4.42,0,0,0,1.77,1.06,4,4,0,0,0,1.16.24h.22A4.06,4.06,0,0,0,329.73,18.74Z"/></g></g></svg>