<svg xmlns="http://www.w3.org/2000/svg" xmlns:xlink="http://www.w3.org/1999/xlink" viewBox="0 0 1124.64 651.26"><defs><style>.cls-1{fill:#e6f4ff;}.cls-2{fill:none;}.cls-3{fill:#8bb5d8;}.cls-4{fill:#329e89;}.cls-5{clip-path:url(#clip-path);}.cls-6{fill:#c5e2ff;}.cls-7{clip-path:url(#clip-path-2);}.cls-8{fill:#fffdfd;}.cls-9{fill:#fff;}.cls-10{fill:#3a1e1c;}.cls-11{clip-path:url(#clip-path-3);}.cls-12{fill:#d88268;}.cls-13{fill:#d98369;}.cls-14{fill:#da8469;}.cls-15{fill:#db856a;}.cls-16{fill:#dc866b;}.cls-17{fill:#dd876b;}.cls-18{fill:#de886c;}.cls-19{fill:#df896d;}.cls-20{fill:#e08a6d;}.cls-21{fill:#e18b6e;}.cls-22{fill:#e28c6f;}.cls-23{fill:#e48d70;}.cls-24{fill:#e58d70;}.cls-25{fill:#e68e71;}.cls-26{fill:#e78f72;}.cls-27{fill:#e89072;}.cls-28{fill:#e99173;}.cls-29{fill:#ea9274;}.cls-30{fill:#eb9374;}.cls-31{fill:#ec9475;}.cls-32{fill:#ed9576;}.cls-33{fill:#ee9676;}.cls-34{fill:#ef9777;}.cls-35{fill:#3d201f;}.cls-36{fill:#b5574d;}.cls-37{fill:#b3514e;}.cls-38{fill:#312235;}.cls-39{fill:#fc999c;}.cls-40{fill:#f9aaaa;}.cls-41{fill:#196b5d;}.cls-42{fill:#208975;}.cls-43{fill:#8acec3;}.cls-44{fill:#5b1f3c;}.cls-45{fill:#175b4e;}</style><clipPath id="clip-path"><path class="cls-1" d="M428.87,402.79a192.51,192.51,0,0,0-5.05-43.86c-32.69-73-109.23-124.15-198.45-124.15C106.43,234.78,10,325.78,10,438a193.16,193.16,0,0,0,5,43.87C47.74,554.84,124.28,606,213.5,606,332.44,606,428.87,515,428.87,402.79Z"/></clipPath><clipPath id="clip-path-2"><path class="cls-2" d="M541.11,351.64c-10.3-18-97.34-31.5-97.34-31.5S301.45,131.38,232.44,137.81s-80.25,56.58-80.25,56.58l-32.63,66.55C54.29,295.86,10.25,362,10.25,437.86c0,112.25,96.43,203.24,215.37,203.24,117.57,0,213.12-88.9,215.32-199.35C473.29,419.44,549.06,365.51,541.11,351.64Z"/></clipPath><clipPath id="clip-path-3"><path class="cls-2" d="M227.93,321.46l-2.36,9.79s-19.92,12.89-37.91,11.87c-5.34-.31,67.76,42.79,71.74,42.94s34.38-50.15,34.38-50.15-20.41-3.74-27.17-4-14.47-18.28-14.47-18.28Z"/></clipPath></defs><title>3-fala1</title><g id="Camada_5" data-name="Camada 5"><ellipse class="cls-3" cx="225.37" cy="438.02" rx="215.37" ry="203.24"/><path class="cls-4" d="M225.37,234.78c119,0,215.37,91,215.37,203.24S344.32,641.26,225.37,641.26,10,550.27,10,438s96.42-203.24,215.37-203.24m0-10a235.1,235.1,0,0,0-87.54,16.69A225.72,225.72,0,0,0,66.22,287,212.37,212.37,0,0,0,17.8,354.82a203.34,203.34,0,0,0,0,166.4A212.3,212.3,0,0,0,66.22,589a225.89,225.89,0,0,0,71.61,45.57,238.05,238.05,0,0,0,175.08,0A225.94,225.94,0,0,0,384.53,589a212.12,212.12,0,0,0,48.41-67.79,203.34,203.34,0,0,0,0-166.4A212.19,212.19,0,0,0,384.53,287a225.76,225.76,0,0,0-71.62-45.57,235.1,235.1,0,0,0-87.54-16.69Z"/><path class="cls-1" d="M428.87,402.79a192.51,192.51,0,0,0-5.05-43.86c-32.69-73-109.23-124.15-198.45-124.15C106.43,234.78,10,325.78,10,438a193.16,193.16,0,0,0,5,43.87C47.74,554.84,124.28,606,213.5,606,332.44,606,428.87,515,428.87,402.79Z"/><g class="cls-5"><circle class="cls-1" cx="306.79" cy="408.71" r="104.58"/><circle class="cls-1" cx="306.79" cy="408.71" r="100.64"/><circle class="cls-1" cx="306.79" cy="408.71" r="98.66"/><circle class="cls-1" cx="306.79" cy="408.71" r="96.69"/><circle class="cls-1" cx="306.79" cy="408.71" r="94.72"/><circle class="cls-1" cx="306.79" cy="408.71" r="92.74"/><circle class="cls-1" cx="306.79" cy="408.71" r="90.77"/><circle class="cls-1" cx="306.79" cy="408.71" r="88.8"/><circle class="cls-1" cx="306.79" cy="408.71" r="86.82"/><circle class="cls-1" cx="306.79" cy="408.71" r="84.85"/><circle class="cls-1" cx="306.79" cy="408.71" r="82.88"/><circle class="cls-1" cx="306.79" cy="408.71" r="80.9"/><circle class="cls-1" cx="306.79" cy="408.71" r="78.93"/><circle class="cls-1" cx="306.79" cy="408.71" r="76.96"/><circle class="cls-1" cx="306.79" cy="408.71" r="74.98"/><circle class="cls-1" cx="306.79" cy="408.71" r="73.01"/><circle class="cls-1" cx="306.79" cy="408.71" r="71.04"/><circle class="cls-1" cx="306.79" cy="408.71" r="69.06"/><circle class="cls-1" cx="306.79" cy="408.71" r="67.09"/><circle class="cls-1" cx="306.79" cy="408.71" r="65.12"/><circle class="cls-1" cx="306.79" cy="408.71" r="63.15"/><circle class="cls-1" cx="306.79" cy="408.71" r="61.17"/><circle class="cls-1" cx="306.79" cy="408.71" r="59.2"/><circle class="cls-1" cx="306.79" cy="408.71" r="57.23"/><circle class="cls-1" cx="306.79" cy="408.71" r="55.25"/><circle class="cls-1" cx="306.79" cy="408.71" r="53.28"/><circle class="cls-1" cx="306.79" cy="408.71" r="51.31"/><circle class="cls-1" cx="306.79" cy="408.71" r="49.33"/><circle class="cls-1" cx="306.79" cy="408.71" r="47.36"/><circle class="cls-1" cx="306.79" cy="408.71" r="45.39"/><circle class="cls-1" cx="306.79" cy="408.71" r="43.41"/><circle class="cls-1" cx="306.79" cy="408.71" r="41.44"/><circle class="cls-1" cx="306.79" cy="408.71" r="39.47"/><circle class="cls-1" cx="306.79" cy="408.71" r="37.49"/><circle class="cls-1" cx="306.79" cy="408.71" r="35.52"/><circle class="cls-1" cx="306.79" cy="408.71" r="33.55"/><circle class="cls-1" cx="306.79" cy="408.71" r="31.57"/><circle class="cls-1" cx="306.79" cy="408.71" r="29.6"/><circle class="cls-1" cx="306.79" cy="408.71" r="27.63"/><circle class="cls-1" cx="306.79" cy="408.71" r="25.65"/><circle class="cls-1" cx="306.79" cy="408.71" r="23.68"/><circle class="cls-1" cx="306.79" cy="408.71" r="21.71"/><circle class="cls-1" cx="306.79" cy="408.71" r="19.73"/><circle class="cls-1" cx="306.79" cy="408.71" r="17.76"/><circle class="cls-1" cx="306.79" cy="408.71" r="15.79"/><circle class="cls-1" cx="306.79" cy="408.71" r="13.81"/><circle class="cls-1" cx="306.79" cy="408.71" r="11.84"/><circle class="cls-1" cx="306.79" cy="408.71" r="9.87"/><circle class="cls-1" cx="306.79" cy="408.71" r="7.89"/><circle class="cls-1" cx="306.79" cy="408.71" r="5.92"/><circle class="cls-1" cx="306.79" cy="408.71" r="3.95"/><circle class="cls-1" cx="306.79" cy="408.71" r="1.97"/></g><path class="cls-3" d="M787.8,44.22c-174.89,0-318.64,118.13-335.23,269.27L353,353.14s-6.51,2.41-5.85,11.74a12.7,12.7,0,0,0,7.43,10.89L458.82,407C492,541,626.68,641.26,787.8,641.26c186,0,336.84-133.65,336.84-298.52S973.83,44.22,787.8,44.22Z"/><path class="cls-6" d="M787.75,0C612.85,0,469.11,118.13,452.52,269.27L353,308.92s-6.51,2.41-5.86,11.74a12.7,12.7,0,0,0,7.44,10.88l104.21,31.28C492,496.78,626.63,597,787.75,597c186,0,336.84-133.65,336.84-298.52S973.78,0,787.75,0Z"/><g class="cls-7"><path class="cls-8" d="M329.94,510.18s.78-10,4.41-10.57l24.22,31.55-9.37,5.44Z"/><path class="cls-9" d="M153.53,566.53s24.48-21.86,24.48-27-14.35-8.34-14.35-8.34l-20.41,29.5,9.58,7.33Z"/><path class="cls-10" d="M176.44,360.74s-46.9-131.84,7.44-198.9c0,0,58.11-39.81,101.53,7s13,178.54,13,178.54Z"/><g class="cls-11"><polygon class="cls-12" points="293.71 313.64 293.74 313.95 182.31 324.32 182.31 313.64 293.71 313.64"/><polygon class="cls-12" points="293.74 313.95 293.78 314.33 293.78 314.76 182.31 325.13 182.31 324.32 293.74 313.95"/><polygon class="cls-13" points="293.78 315.57 182.31 325.95 182.31 325.13 293.78 314.76 293.78 315.57"/><polygon class="cls-14" points="293.78 316.39 182.31 326.76 182.31 325.95 293.78 315.57 293.78 316.39"/><polygon class="cls-15" points="293.78 317.2 182.31 327.57 182.31 326.76 293.78 316.39 293.78 317.2"/><polygon class="cls-16" points="293.78 318.01 182.31 328.39 182.31 327.57 293.78 317.2 293.78 318.01"/><polygon class="cls-17" points="293.78 318.83 182.31 329.2 182.31 328.39 293.78 318.01 293.78 318.83"/><polygon class="cls-18" points="293.78 319.64 182.31 330.01 182.31 329.2 293.78 318.83 293.78 319.64"/><polygon class="cls-19" points="293.78 320.45 182.31 330.83 182.31 330.01 293.78 319.64 293.78 320.45"/><polygon class="cls-20" points="293.78 321.27 182.31 331.64 182.31 330.83 293.78 320.45 293.78 321.27"/><polygon class="cls-21" points="293.78 322.08 182.31 332.45 182.31 331.64 293.78 321.27 293.78 322.08"/><polygon class="cls-22" points="293.78 322.89 182.31 333.27 182.31 332.45 293.78 322.08 293.78 322.89"/><polygon class="cls-23" points="293.78 323.71 182.31 334.08 182.31 333.27 293.78 322.89 293.78 323.71"/><polygon class="cls-24" points="293.78 324.52 182.31 334.89 182.31 334.08 293.78 323.71 293.78 324.52"/><polygon class="cls-25" points="293.78 325.33 182.31 335.71 182.31 334.89 293.78 324.52 293.78 325.33"/><polygon class="cls-26" points="293.78 326.14 182.31 336.52 182.31 335.71 293.78 325.33 293.78 326.14"/><polygon class="cls-27" points="293.78 326.96 182.31 337.33 182.31 336.52 293.78 326.14 293.78 326.96"/><polygon class="cls-28" points="293.78 327.77 182.31 338.14 182.31 337.33 293.78 326.96 293.78 327.77"/><polygon class="cls-29" points="293.78 328.58 182.31 338.96 182.31 338.14 293.78 327.77 293.78 328.58"/><polygon class="cls-30" points="293.78 329.4 182.31 339.77 182.31 338.96 293.78 328.58 293.78 329.4"/><polygon class="cls-31" points="293.78 330.21 182.31 340.58 182.31 339.77 293.78 329.4 293.78 330.21"/><polygon class="cls-32" points="293.78 331.02 182.31 341.4 182.31 340.58 293.78 330.21 293.78 331.02"/><polygon class="cls-33" points="293.78 331.84 182.31 342.21 182.31 341.4 293.78 331.02 293.78 331.84"/><polygon class="cls-34" points="293.78 332.65 182.31 343.02 182.31 342.21 293.78 331.84 293.78 332.65"/><polygon class="cls-34" points="184.35 386.21 182.31 364.39 182.31 343.02 293.78 332.65 293.78 386.21 184.35 386.21"/></g><path class="cls-34" d="M182.6,222.54s-.88,110.78,64.76,101.68c35.49-4.92,47.51-40.41,40.88-70.91a191.62,191.62,0,0,1-3.79-46.77s-4.08-29.37-38.7-20.3S196.11,192,196.11,192,180.54,195.13,182.6,222.54Z"/><path class="cls-10" d="M177.07,228.73s25.09-2.78,36.43-7.67l.58-15.4s2.55,9.93,4.85,12.41,22.88-.74,32-3.59,4.81-14.7,4.81-14.7l4.34,11.86s28.57,3.44,28.73-.93S285,186,276.62,182s-73.88-4.43-83.08,4.1S177.53,216.52,177.07,228.73Z"/><ellipse class="cls-35" cx="262.95" cy="244.39" rx="3.92" ry="3.17" transform="translate(-22.42 26.6) rotate(-5.56)"/><ellipse class="cls-35" cx="223.88" cy="248.1" rx="3.92" ry="3.17" transform="translate(-22.97 22.84) rotate(-5.56)"/><path class="cls-36" d="M250.55,278.83a15.34,15.34,0,0,1-5.17-.8l.35-.94c5.16,1.91,13.88,0,15.56-3.33,1.13-2.28-1.44-4.53-3.78-6-6.89-4.38-5.32-8.93-5.25-9.13l.94.35c0,.16-1.33,4,4.84,7.94,4.88,3.1,4.95,5.69,4.14,7.31C260.72,277.15,255.37,278.83,250.55,278.83Z"/><path class="cls-37" d="M262,289.89c-18.37,4.75-31.32.71-30.6,2,0,0-.78,13.73,15.42,13.63C263.55,305.45,262,289.89,262,289.89Z"/><path class="cls-9" d="M219.38,333.59s22.52,13.65,36.94,11.8c6.84-.87,18.95-14,18.95-14l13,129.74-49.8,2.24Z"/><path class="cls-38" d="M172.66,557.55S155.05,630.13,157,650s4.68,52.17,34,146c0,0,78.26,32.38,150.2-.81,0,0,6.29-1.86,10.91-43.81s12.42-142.59-8.72-187.47S172.66,557.55,172.66,557.55Z"/><path class="cls-10" d="M270.81,230.55s-4.74-6.21-9.75-3.11a.89.89,0,0,0-.58,1.12c.25.84,1.91-1.63,9.83,2.73C270.31,231.29,270.81,231.58,270.81,230.55Z"/><path class="cls-10" d="M213.93,234s4.75-6.2,9.75-3.1a.89.89,0,0,1,.58,1.12c-.25.83-1.91-1.64-9.83,2.73C214.43,234.73,213.93,235,213.93,234Z"/><path class="cls-9" d="M259.62,290.44s-.65,3.21-2,4.12-15.59,1.66-24.11,1c-2.87-.24-2.32-2.92-2.18-3.89C231.35,291.63,246.09,293.49,259.62,290.44Z"/><path class="cls-39" d="M251.34,305.09s-1.86-9.5-19.13-7C232.21,298.13,235.94,307.82,251.34,305.09Z"/><ellipse class="cls-40" cx="281.01" cy="254.61" rx="3.62" ry="6.23" transform="translate(3.96 513.52) rotate(-85.24)"/><ellipse class="cls-40" cx="214.79" cy="263.85" rx="6.23" ry="3.62" transform="translate(-52.96 53.94) rotate(-12.76)"/><path class="cls-41" d="M334.61,435.84,357,461.35s-6.12,9.16-12,18.65c-6.27,10.12-15.54,20.35-13.57,20.57,4,.44,26.78,31.77,26.78,31.77l28-38s21.11-33.38,20.75-37-18.37-28.47-24.44-34.21c-3.74-3.54-9.95-8.73-15.17-16.12-29.22-41.32-56.53-70.82-58.39-72.35s-11-6.17-14.23-4.64-19.19,1.4-19.19,1.4l2.64,115.37L219.63,333.58s-12.56,4.34-26.08,2.61-36.24,3.62-36.24,3.62-10.24,27.71-17.55,29.81-11,20.26-11,20.26c-2.17,2.65-10.18,14.08-19.61,27.71h0s-37.48,45.94-43,49.92S63.56,481,63.56,481l78.84,83.79,27.83-35.52c-7.13-.49-43.13-49.77-43.13-49.77,2.53-4.53,2.3-8.25,1.56-10.71,17.3-18.49,42.63-47.19,42.63-47.19.41,4.07,6.47,16.8,16.93,32.52s9.69,42.14,9.69,42.14c-14.94,21.68-25,61.34-25,61.34s1,7.93,26.28,20.55c11,5.5,46.51,16.31,46.51,16.31l39.46-43.29,50.78,35.64s9.12-9.12,8.21-18.27S325.71,505,325.71,505s-1.89-19,.27-24.66S334.61,435.84,334.61,435.84Z"/><path class="cls-12" d="M153.53,566.53s12.2,10.71,14.67,8.24l12.43-35.2S165.06,550.81,153.53,566.53Z"/><path class="cls-34" d="M170.88,567.7s5.9-5.86,14.86,2.8,9.68,9.26,9.68,9.26,7,2.88,7.52-4.62c0,0,8.8,1.29,6.83-8.4,0,0,6.13-4.42.7-12,0,0,5.51-1.05,2.24-11.46s-24-20.47-24-20.47-9.94-3.49-10.82,8.08c0,0-7.16.37-4.66,10.37,0,0-4.65,4.21-3.65,8.77s-.11,3.67-.11,3.67S162.79,561.13,170.88,567.7Z"/><path class="cls-36" d="M202.56,575.46c-.11-.13-11.87-13.67-24.48-19.79l.43-.9c12.8,6.21,24.69,19.9,24.81,20Z"/><path class="cls-36" d="M209.42,567.1c-.17-.16-17.14-16.09-29.48-22.74l.48-.88c12.45,6.71,29.52,22.73,29.69,22.9Z"/><path class="cls-36" d="M210.09,555c-.15-.18-15.21-17.91-27.55-21.76l.3-1c12.61,4,27.39,21.33,28,22.07Z"/><path class="cls-34" d="M347.86,556.51l-16.17,4.75s-6.95,2.88-7.52-4.62c0,0-8.8,1.29-6.82-8.4,0,0-6.14-4.42-.71-12,0,0-5.51-1.05-2.24-11.46s15.67-13.15,15.67-13.15,9.94-3.49,10.82,8.07c0,0,7.16.38,4.66,10.37,0,0,4.65,4.21,3.65,8.78s.11,3.66.11,3.66S356,549.94,347.86,556.51Z"/><path class="cls-36" d="M324.44,557.06l-.54-.84A275.12,275.12,0,0,1,349.1,542l.43.9A273.55,273.55,0,0,0,324.44,557.06Z"/><path class="cls-36" d="M317.64,548.64l-.59-.8c.16-.12,15.84-11.55,28.27-18.25l.47.88C333.42,537.14,317.8,548.53,317.64,548.64Z"/><path class="cls-36" d="M317.07,536.46l-.86-.51c.09-.16,9.39-15.38,24.63-16.79l.09,1C326.2,521.52,317.16,536.31,317.07,536.46Z"/><path class="cls-42" d="M219.38,333.59S195.23,345.24,182.15,365l44.38,12.67s-15.11,14.85-14.79,18.07,66.17,51,66.17,51,33.54-61.51,29.81-64.56-24.29-6.81-24.29-6.81,19.48-27.6,22.87-27.94-28-16.36-31-16.06,2.52,110.28,2.52,110.28l-.15,2.38Z"/><path class="cls-38" d="M277.91,446.79s9.26,81.81,7,104.33"/><circle class="cls-43" cx="291.65" cy="471.48" r="5.33"/><circle class="cls-43" cx="293.78" cy="509.48" r="5.33"/><path class="cls-44" d="M173.81,404.74l-1-.23a76.6,76.6,0,0,0-11.55-60.85l.82-.58A77.66,77.66,0,0,1,173.81,404.74Z"/><path class="cls-44" d="M329.09,406.93l-1-.09c1.1-12.29-3.36-24.57-7.3-35.4-4.66-12.82-10-27.36-20.07-37.89l.72-.69c10.27,10.68,15.59,25.32,20.29,38.23C325.7,382,330.21,394.42,329.09,406.93Z"/><path class="cls-44" d="M146.32,377a27.46,27.46,0,0,0-3.49-7l.82-.57a28.62,28.62,0,0,1,3.62,7.2Z"/><path class="cls-44" d="M136,392.63a35.57,35.57,0,0,0-6.08-.83l0-1a35.6,35.6,0,0,1,6.25.86Z"/><path class="cls-44" d="M334.44,441l-1-.12a74.23,74.23,0,0,0,.43-11.92l1-.05A75.14,75.14,0,0,1,334.44,441Z"/><path class="cls-44" d="M355.5,460.4l-.14-1a75,75,0,0,1,12.07-.73l0,1A74.13,74.13,0,0,0,355.5,460.4Z"/><path class="cls-44" d="M365,468.05a59.33,59.33,0,0,0-8.69-6.35l.52-.86a62,62,0,0,1,8.83,6.45Z"/><path class="cls-44" d="M200.41,496.57l-.52-.85a60,60,0,0,1,11.6-5.55l.33.94A58.91,58.91,0,0,0,200.41,496.57Z"/><path class="cls-44" d="M127.77,469.24c-2.33,0-10-.2-12.54-2.74l.7-.71c2.66,2.65,12.37,2.44,12.47,2.45l0,1Z"/><path class="cls-44" d="M118.83,482.89v-1c3.43,0,7.7-2.82,7.74-2.85l.56.83C126.94,480,122.56,482.89,118.83,482.89Z"/></g><path class="cls-45" d="M585.76,208.05h-2.71l-.73-4a7.39,7.39,0,0,0-2.3-1.5,8.25,8.25,0,0,0-3.26-.59,8,8,0,0,0-6.82,3.22,13.3,13.3,0,0,0-2.38,8.15v.45a13.64,13.64,0,0,0,2.33,8.17,7.54,7.54,0,0,0,6.48,3.24,9.83,9.83,0,0,0,3.51-.61,6.68,6.68,0,0,0,2.44-1.48l.73-4h2.71v5.06a10.5,10.5,0,0,1-3.69,2.82,12.46,12.46,0,0,1-5.7,1.24,11.5,11.5,0,0,1-9.11-4.1,15.17,15.17,0,0,1-3.55-10.31v-.41a15.31,15.31,0,0,1,3.5-10.34,11.45,11.45,0,0,1,9.16-4.09,12.34,12.34,0,0,1,5.7,1.26,11,11,0,0,1,3.69,2.82Z"/><path class="cls-45" d="M603.65,227.75c-.12-.57-.21-1.08-.27-1.54s-.11-.91-.14-1.37a9.32,9.32,0,0,1-2.78,2.38,7.14,7.14,0,0,1-3.57.94,7.06,7.06,0,0,1-5-1.61,5.92,5.92,0,0,1-1.72-4.54,5.26,5.26,0,0,1,2.44-4.64,11.9,11.9,0,0,1,6.67-1.63h4v-2.46a3.8,3.8,0,0,0-1.17-2.94,4.63,4.63,0,0,0-3.26-1.08,7.88,7.88,0,0,0-2.55.37,5,5,0,0,0-1.79,1l-.41,2.23h-3v-4.1a11.62,11.62,0,0,1,3.5-1.85,13.88,13.88,0,0,1,4.45-.69,8.81,8.81,0,0,1,5.82,1.84,6.39,6.39,0,0,1,2.23,5.25V223.5c0,.27,0,.54,0,.8s0,.52,0,.78l1.56.21v2.46Zm-6.19-2.81A6.78,6.78,0,0,0,601,224a5.71,5.71,0,0,0,2.26-2.2v-3.48h-4.1a5.84,5.84,0,0,0-3.74,1.09,3.3,3.3,0,0,0-1.38,2.66,2.64,2.64,0,0,0,.86,2.12A3.92,3.92,0,0,0,597.46,224.94Z"/><path class="cls-45" d="M611.89,209.1v-2.48h6.62l.37,3.07a7.38,7.38,0,0,1,2.22-2.54,5.18,5.18,0,0,1,3-.92,6,6,0,0,1,.93.07,4.54,4.54,0,0,1,.73.15l-.51,3.57-2.19-.12a4.36,4.36,0,0,0-2.55.72,4.61,4.61,0,0,0-1.61,2v12.13l3.19.54v2.46H611.89v-2.46l3.19-.54v-15.1Z"/><path class="cls-45" d="M660,218a13,13,0,0,1-2.35,7.2,7.45,7.45,0,0,1-6.48,3,3.92,3.92,0,0,1-2.47-.81,4.37,4.37,0,0,1-1.49-2.27,6.53,6.53,0,0,1-2.39,2.32,6.68,6.68,0,0,1-3.26.76,4.17,4.17,0,0,1-3.79-2.35,10.35,10.35,0,0,1-1-6.18,16,16,0,0,1,2.68-8.12,6.6,6.6,0,0,1,5.44-3,8.8,8.8,0,0,1,3.29.51,13.74,13.74,0,0,1,2.75,1.56l-.08.08H651L650,222a4.59,4.59,0,0,0,.42,3,1.88,1.88,0,0,0,1.59.81,4.39,4.39,0,0,0,3.84-2.22A11,11,0,0,0,657.4,218q.33-7.45-2.8-11.63t-9.68-4.17a11.85,11.85,0,0,0-9.69,4.51q-3.65,4.51-3.94,11.76c-.24,4.89.74,8.77,2.93,11.61s5.32,4.27,9.41,4.27a14.91,14.91,0,0,0,3.48-.42,11.38,11.38,0,0,0,3-1.11l.76,2.09a10.8,10.8,0,0,1-3.35,1.28,17.55,17.55,0,0,1-3.94.46q-7.42,0-11.48-4.87t-3.69-13.31q.36-8.26,4.86-13.44A14.82,14.82,0,0,1,645,199.81q7.39,0,11.36,4.88T660,218Zm-19.79,1.68a9,9,0,0,0,.43,4.21,2.17,2.17,0,0,0,2.09,1.45,5.42,5.42,0,0,0,2.28-.48,5,5,0,0,0,1.9-1.72c0-.16,0-.32,0-.49s0-.36,0-.57l.92-10.51a6.33,6.33,0,0,0-1.06-.37,5,5,0,0,0-1.17-.13,4.13,4.13,0,0,0-3.73,2.12A15.88,15.88,0,0,0,640.19,219.63Z"/><path class="cls-45" d="M683.44,225.16A5.2,5.2,0,0,0,686.8,224a3.63,3.63,0,0,0,1.46-2.91h3.46l0,.12a6,6,0,0,1-2.44,4.86,8.88,8.88,0,0,1-5.88,2.11,8.56,8.56,0,0,1-7.05-3A11.66,11.66,0,0,1,674,217.6v-.82a11.62,11.62,0,0,1,2.44-7.53,8.55,8.55,0,0,1,7-3,11.8,11.8,0,0,1,4.56.84,9.29,9.29,0,0,1,3.35,2.31l.17,4.68h-3.06l-.84-3.32a5.18,5.18,0,0,0-1.76-1.07,6.64,6.64,0,0,0-2.42-.41,4.63,4.63,0,0,0-4.33,2.18,10.21,10.21,0,0,0-1.3,5.34v.82a10.38,10.38,0,0,0,1.29,5.4A4.64,4.64,0,0,0,683.44,225.16Z"/><path class="cls-45" d="M710.62,224.63a7.18,7.18,0,0,1-2.57,2.62,7,7,0,0,1-3.62.91,6.77,6.77,0,0,1-5.37-2.2c-1.29-1.47-1.93-3.77-1.93-6.88v-9.43l-2.42-.55v-2.48H701v12.5c0,2.25.34,3.8,1,4.65a3.69,3.69,0,0,0,3.11,1.27,6.34,6.34,0,0,0,3.38-.83,5.19,5.19,0,0,0,2-2.35V209.65l-2.84-.55v-2.48h6.68v18.13l2.43.54v2.46h-5.88Z"/><path class="cls-45" d="M719.8,209.1v-2.48h6.62l.38,3.07a7.26,7.26,0,0,1,2.21-2.54,5.18,5.18,0,0,1,3-.92,6,6,0,0,1,.93.07,4.54,4.54,0,0,1,.73.15l-.51,3.57L731,209.9a4.36,4.36,0,0,0-2.55.72,4.61,4.61,0,0,0-1.61,2v12.13l3.19.54v2.46H719.8v-2.46l3.19-.54v-15.1Z"/><path class="cls-45" d="M752.52,213.26h-2.89l-.63-2.54a5.31,5.31,0,0,0-1.77-1.06,6.73,6.73,0,0,0-2.41-.4,4.42,4.42,0,0,0-3,.9,2.8,2.8,0,0,0-1,2.16,2.41,2.41,0,0,0,.88,2,9.16,9.16,0,0,0,3.57,1.29,15.4,15.4,0,0,1,6,2.33,4.7,4.7,0,0,1,1.95,4,5.48,5.48,0,0,1-2.27,4.55,9.53,9.53,0,0,1-6,1.73,15.56,15.56,0,0,1-4.32-.55,11.53,11.53,0,0,1-3.41-1.61l0-4.83h2.89l.72,2.83a3.89,3.89,0,0,0,1.81.88,9.59,9.59,0,0,0,2.33.28,5.44,5.44,0,0,0,3.21-.83,2.56,2.56,0,0,0,1.17-2.18,2.64,2.64,0,0,0-1-2.09,9.2,9.2,0,0,0-3.66-1.43,15.39,15.39,0,0,1-5.8-2.28,4.61,4.61,0,0,1-2-3.91,5.49,5.49,0,0,1,2.2-4.39,8.67,8.67,0,0,1,5.71-1.82,13.82,13.82,0,0,1,4.32.63,8.81,8.81,0,0,1,3.18,1.73Z"/><path class="cls-45" d="M756.74,225.29l3.18-.54v-15.1l-3.18-.55v-2.48h7v18.13l3.18.54v2.46H756.74Zm7-24.08h-3.85v-3.92h3.85Z"/><path class="cls-45" d="M786.05,213.26h-2.89l-.62-2.54a5.31,5.31,0,0,0-1.77-1.06,6.73,6.73,0,0,0-2.41-.4,4.43,4.43,0,0,0-3.05.9,2.83,2.83,0,0,0-1,2.16,2.44,2.44,0,0,0,.88,2,9.22,9.22,0,0,0,3.58,1.29,15.34,15.34,0,0,1,6,2.33,4.69,4.69,0,0,1,2,4,5.46,5.46,0,0,1-2.28,4.55,9.5,9.5,0,0,1-5.94,1.73,15.51,15.51,0,0,1-4.32-.55,11.47,11.47,0,0,1-3.42-1.61l0-4.83h2.89l.72,2.83a4,4,0,0,0,1.81.88,9.61,9.61,0,0,0,2.34.28,5.49,5.49,0,0,0,3.21-.83,2.58,2.58,0,0,0,1.16-2.18,2.61,2.61,0,0,0-1-2.09,9.07,9.07,0,0,0-3.66-1.43,15.46,15.46,0,0,1-5.8-2.28,4.63,4.63,0,0,1-1.95-3.91,5.51,5.51,0,0,1,2.19-4.39,8.7,8.7,0,0,1,5.72-1.82,13.71,13.71,0,0,1,4.31.63,8.94,8.94,0,0,1,3.19,1.73Z"/><path class="cls-45" d="M797,201.52v5.1h4v2.85h-4v12.84a2.86,2.86,0,0,0,.62,2.08,2.19,2.19,0,0,0,1.63.61,8.13,8.13,0,0,0,1.14-.09c.42-.06.78-.12,1.06-.18l.53,2.63a4.78,4.78,0,0,1-1.6.58,10.08,10.08,0,0,1-2.11.22,5,5,0,0,1-3.73-1.41,6.14,6.14,0,0,1-1.39-4.44V209.47H789.8v-2.85h3.34v-5.1Z"/><path class="cls-45" d="M818.71,227.75c-.12-.57-.21-1.08-.27-1.54s-.11-.91-.14-1.37a9.32,9.32,0,0,1-2.78,2.38,7.17,7.17,0,0,1-3.57.94,7.06,7.06,0,0,1-5-1.61,5.92,5.92,0,0,1-1.72-4.54,5.27,5.27,0,0,1,2.43-4.64,11.94,11.94,0,0,1,6.67-1.63h4v-2.46a3.8,3.8,0,0,0-1.17-2.94,4.63,4.63,0,0,0-3.26-1.08,7.88,7.88,0,0,0-2.55.37,5,5,0,0,0-1.79,1l-.41,2.23h-3v-4.1a11.5,11.5,0,0,1,3.5-1.85,13.84,13.84,0,0,1,4.45-.69,8.81,8.81,0,0,1,5.82,1.84,6.42,6.42,0,0,1,2.23,5.25V223.5c0,.27,0,.54,0,.8a6.81,6.81,0,0,0,.05.78l1.56.21v2.46Zm-6.19-2.81A6.75,6.75,0,0,0,816,224a5.67,5.67,0,0,0,2.27-2.2v-3.48h-4.1a5.84,5.84,0,0,0-3.74,1.09,3.3,3.3,0,0,0-1.38,2.66,2.64,2.64,0,0,0,.86,2.12A3.92,3.92,0,0,0,812.52,224.94Z"/><path class="cls-45" d="M831.37,226.35a9.58,9.58,0,0,1-1,4,10,10,0,0,1-2.58,3.48l-2.17-1.45a11.67,11.67,0,0,0,1.39-2.87,10.16,10.16,0,0,0,.47-3.1v-3h3.85Z"/><path class="cls-45" d="M563.71,297.8v-2.48h10.21v2.48l-3.18.54v9.83h13.79v-9.83l-3.18-.54v-2.48h10.21v2.48l-3.18.54v22.41l3.18.54v2.46H581.35v-2.46l3.18-.54V311.2H570.74v9.55l3.18.54v2.46H563.71v-2.46l3.18-.54V298.34Z"/><path class="cls-45" d="M594.8,313a11.64,11.64,0,0,1,2.54-7.72,9.38,9.38,0,0,1,13.82,0,11.58,11.58,0,0,1,2.55,7.73v.43a11.62,11.62,0,0,1-2.54,7.74,9.46,9.46,0,0,1-13.83,0,11.61,11.61,0,0,1-2.54-7.73Zm3.85.43a10,10,0,0,0,1.42,5.55,5.09,5.09,0,0,0,8.37,0,10,10,0,0,0,1.42-5.55V313a10,10,0,0,0-1.42-5.52,4.67,4.67,0,0,0-4.2-2.21,4.61,4.61,0,0,0-4.18,2.21,10.06,10.06,0,0,0-1.41,5.52Z"/><path class="cls-45" d="M623.77,325.49a7,7,0,0,1-1.68,5,6.13,6.13,0,0,1-4.67,1.77,6.47,6.47,0,0,1-1.13-.09,7.77,7.77,0,0,1-1.06-.26l.26-3a4,4,0,0,0,.8.17,7.77,7.77,0,0,0,.86.06,2.56,2.56,0,0,0,2-.85,4.24,4.24,0,0,0,.75-2.8V305.65l-3.18-.55v-2.48h7Zm-.12-28.36H619.8v-3.84h3.85Z"/><path class="cls-45" d="M638,324.16a8.92,8.92,0,0,1-7-2.93,11.12,11.12,0,0,1-2.6-7.63v-.86a10.83,10.83,0,0,1,2.68-7.51,8.27,8.27,0,0,1,6.36-3q4.26,0,6.45,2.58a10.21,10.21,0,0,1,2.2,6.87v2.41H632.38l-.06.09a8.32,8.32,0,0,0,1.55,5,4.9,4.9,0,0,0,4.16,2,9.65,9.65,0,0,0,3.42-.56,7.74,7.74,0,0,0,2.55-1.53l1.51,2.5a9.29,9.29,0,0,1-3,1.84A12,12,0,0,1,638,324.16Zm-.59-18.9a4.15,4.15,0,0,0-3.3,1.63,7.76,7.76,0,0,0-1.68,4.09l0,.1h9.74v-.51a5.89,5.89,0,0,0-1.21-3.79A4.31,4.31,0,0,0,637.44,305.26Z"/><path class="cls-45" d="M669.47,324.16a8.91,8.91,0,0,1-7-2.93,11.08,11.08,0,0,1-2.61-7.63v-.86a10.84,10.84,0,0,1,2.69-7.51,8.27,8.27,0,0,1,6.35-3c2.84,0,5,.86,6.46,2.58a10.26,10.26,0,0,1,2.2,6.87v2.41H663.83l-.06.09a8.32,8.32,0,0,0,1.54,5,4.92,4.92,0,0,0,4.16,2,9.71,9.71,0,0,0,3.43-.56,8,8,0,0,0,2.55-1.53l1.5,2.5a9.07,9.07,0,0,1-3,1.84A12,12,0,0,1,669.47,324.16Zm-.59-18.9a4.18,4.18,0,0,0-3.3,1.63A7.76,7.76,0,0,0,663.9,311l0,.1h9.75v-.51a5.89,5.89,0,0,0-1.21-3.79A4.34,4.34,0,0,0,668.88,305.26Zm1.18-10.76h4.49l0,.11-5.26,5.08h-2.87Z"/><path class="cls-45" d="M705.51,321.23a6.78,6.78,0,0,1-2.53,2.19,7.64,7.64,0,0,1-3.47.74,7.24,7.24,0,0,1-6-2.8,11.68,11.68,0,0,1-2.17-7.37v-.41a14.1,14.1,0,0,1,2.17-8.22,7,7,0,0,1,6.09-3.13,7.56,7.56,0,0,1,3.31.69,6.86,6.86,0,0,1,2.45,2v-8.62l-3.18-.54v-2.48h7v27.46l3.18.54v2.46h-6.52ZM695.13,314a9,9,0,0,0,1.31,5.12,4.57,4.57,0,0,0,4,1.93,5.11,5.11,0,0,0,2.89-.78,6,6,0,0,0,1.93-2.21v-9.8a5.87,5.87,0,0,0-1.93-2.11,5.11,5.11,0,0,0-2.85-.78,4.39,4.39,0,0,0-4.08,2.28,11.77,11.77,0,0,0-1.32,5.94Z"/><path class="cls-45" d="M715.27,321.29l3.19-.54v-15.1l-3.19-.55v-2.48h7v18.13l3.19.54v2.46H715.27Zm7-24.08h-3.84v-3.92h3.84Z"/><path class="cls-45" d="M742.21,323.75c-.12-.57-.21-1.08-.28-1.54s-.11-.91-.13-1.37a9.36,9.36,0,0,1-2.79,2.38,8,8,0,0,1-8.58-.67,5.89,5.89,0,0,1-1.72-4.54,5.27,5.27,0,0,1,2.43-4.64,11.92,11.92,0,0,1,6.67-1.63h4v-2.46a3.81,3.81,0,0,0-1.18-2.94,4.61,4.61,0,0,0-3.26-1.08,8,8,0,0,0-2.55.37,4.92,4.92,0,0,0-1.78,1l-.41,2.23h-3v-4.1a11.56,11.56,0,0,1,3.49-1.85,13.9,13.9,0,0,1,4.46-.69,8.84,8.84,0,0,1,5.82,1.84,6.42,6.42,0,0,1,2.22,5.25V319.5c0,.27,0,.54,0,.8s0,.52,0,.78l1.56.21v2.46Zm-6.2-2.81a6.76,6.76,0,0,0,3.5-.92,5.74,5.74,0,0,0,2.27-2.2v-3.48h-4.11a5.86,5.86,0,0,0-3.74,1.09,3.31,3.31,0,0,0-1.37,2.66,2.61,2.61,0,0,0,.86,2.12A3.89,3.89,0,0,0,736,320.94Z"/><path class="cls-45" d="M774.63,321.23a6.78,6.78,0,0,1-2.53,2.19,7.64,7.64,0,0,1-3.47.74,7.21,7.21,0,0,1-6-2.8,11.62,11.62,0,0,1-2.18-7.37v-.41a14,14,0,0,1,2.18-8.22,7,7,0,0,1,6.08-3.13,7.56,7.56,0,0,1,3.31.69,6.86,6.86,0,0,1,2.45,2v-8.62l-3.18-.54v-2.48h7v27.46l3.18.54v2.46h-6.52ZM764.26,314a9,9,0,0,0,1.3,5.12,4.57,4.57,0,0,0,4.05,1.93,5.11,5.11,0,0,0,2.89-.78,6,6,0,0,0,1.93-2.21v-9.8a5.87,5.87,0,0,0-1.93-2.11,5.11,5.11,0,0,0-2.85-.78,4.39,4.39,0,0,0-4.08,2.28,11.88,11.88,0,0,0-1.31,5.94Z"/><path class="cls-45" d="M794,324.16a8.91,8.91,0,0,1-7-2.93,11.08,11.08,0,0,1-2.61-7.63v-.86a10.84,10.84,0,0,1,2.69-7.51,8.27,8.27,0,0,1,6.36-3,8,8,0,0,1,6.45,2.58,10.21,10.21,0,0,1,2.2,6.87v2.41H788.4l-.06.09a8.32,8.32,0,0,0,1.54,5,4.92,4.92,0,0,0,4.16,2,9.71,9.71,0,0,0,3.43-.56,8,8,0,0,0,2.55-1.53l1.5,2.5a9.07,9.07,0,0,1-3,1.84A12,12,0,0,1,794,324.16Zm-.58-18.9a4.19,4.19,0,0,0-3.31,1.63,7.76,7.76,0,0,0-1.68,4.09l0,.1h9.75v-.51a5.89,5.89,0,0,0-1.21-3.79A4.34,4.34,0,0,0,793.46,305.26Z"/><path class="cls-45" d="M831,320.63a7.34,7.34,0,0,1-2.57,2.62,7.09,7.09,0,0,1-3.63.91,6.77,6.77,0,0,1-5.37-2.2c-1.29-1.47-1.93-3.77-1.93-6.88v-9.43L815,305.1v-2.48h6.27v12.5q0,3.38,1,4.65a3.71,3.71,0,0,0,3.11,1.27,6.35,6.35,0,0,0,3.39-.83,5.23,5.23,0,0,0,2-2.35V305.65L828,305.1v-2.48h6.68v18.13l2.42.54v2.46h-5.88Z"/><path class="cls-45" d="M839.37,321.29l3.19-.54v-15.1l-3.19-.55v-2.48H846l.26,2.76a6.88,6.88,0,0,1,2.61-2.33,8,8,0,0,1,3.72-.82,6.55,6.55,0,0,1,3.62,1,5.86,5.86,0,0,1,2.27,2.93,7.88,7.88,0,0,1,2.64-2.85,6.86,6.86,0,0,1,3.83-1.06,6.35,6.35,0,0,1,5.12,2.22q1.88,2.22,1.87,6.67v9.63l3.18.54v2.46H864.9v-2.46l3.18-.54v-9.67c0-2.08-.35-3.56-1.07-4.43a3.91,3.91,0,0,0-3.18-1.29,4.09,4.09,0,0,0-3.24,1.41,6.19,6.19,0,0,0-1.41,3.57v10.41l3.18.54v2.46H852.15v-2.46l3.18-.54v-9.67a7,7,0,0,0-1.1-4.35,3.85,3.85,0,0,0-3.2-1.37,5.32,5.32,0,0,0-2.89.72,4.75,4.75,0,0,0-1.74,2v12.64l3.19.54v2.46H839.37Z"/><path class="cls-45" d="M891.72,323.75c-.12-.57-.21-1.08-.28-1.54s-.11-.91-.13-1.37a9.36,9.36,0,0,1-2.79,2.38,8,8,0,0,1-8.58-.67,5.89,5.89,0,0,1-1.72-4.54,5.27,5.27,0,0,1,2.43-4.64,11.92,11.92,0,0,1,6.67-1.63h4v-2.46a3.8,3.8,0,0,0-1.17-2.94,4.66,4.66,0,0,0-3.27-1.08,8,8,0,0,0-2.55.37,4.92,4.92,0,0,0-1.78,1l-.41,2.23h-3v-4.1a11.56,11.56,0,0,1,3.49-1.85,13.94,13.94,0,0,1,4.46-.69,8.84,8.84,0,0,1,5.82,1.84,6.42,6.42,0,0,1,2.22,5.25V319.5c0,.27,0,.54,0,.8s0,.52.05.78l1.57.21v2.46Zm-6.19-2.81A6.75,6.75,0,0,0,889,320a5.67,5.67,0,0,0,2.27-2.2v-3.48h-4.1a5.82,5.82,0,0,0-3.74,1.09,3.3,3.3,0,0,0-1.38,2.66,2.61,2.61,0,0,0,.86,2.12A3.92,3.92,0,0,0,885.53,320.94Z"/><path class="cls-45" d="M909.92,313a11.64,11.64,0,0,1,2.54-7.72,8.49,8.49,0,0,1,6.89-3,8.58,8.58,0,0,1,6.93,3,11.58,11.58,0,0,1,2.55,7.73v.43a11.62,11.62,0,0,1-2.54,7.74,9.46,9.46,0,0,1-13.83,0,11.61,11.61,0,0,1-2.54-7.73Zm3.85.43a10.07,10.07,0,0,0,1.41,5.55,4.7,4.7,0,0,0,4.21,2.19,4.65,4.65,0,0,0,4.16-2.19,10,10,0,0,0,1.43-5.55V313a10,10,0,0,0-1.43-5.52,5.08,5.08,0,0,0-8.38,0,10.14,10.14,0,0,0-1.4,5.52Zm6.72-18.92H925l0,.11-5.26,5.08h-2.87Z"/><path class="cls-45" d="M939.06,297.52v5.1h4v2.85h-4v12.84a2.86,2.86,0,0,0,.62,2.08,2.19,2.19,0,0,0,1.63.61,8.13,8.13,0,0,0,1.14-.09c.42-.06.78-.12,1.06-.18l.53,2.63a4.78,4.78,0,0,1-1.6.58,10.08,10.08,0,0,1-2.11.22,5,5,0,0,1-3.73-1.41,6.14,6.14,0,0,1-1.39-4.44V305.47h-3.34v-2.85h3.34v-5.1Z"/><path class="cls-45" d="M947,321.29l3.18-.54v-15.1L947,305.1v-2.48h7v18.13l3.19.54v2.46H947Zm7-24.08h-3.85v-3.92H954Z"/><path class="cls-45" d="M959.37,321.29l3.19-.54v-15.1l-3.19-.55v-2.48H966l.26,2.76a6.88,6.88,0,0,1,2.61-2.33,8,8,0,0,1,3.72-.82,6.55,6.55,0,0,1,3.62,1,5.86,5.86,0,0,1,2.27,2.93,7.88,7.88,0,0,1,2.64-2.85,6.86,6.86,0,0,1,3.83-1.06,6.35,6.35,0,0,1,5.12,2.22q1.88,2.22,1.87,6.67v9.63l3.18.54v2.46H984.9v-2.46l3.18-.54v-9.67c0-2.08-.35-3.56-1.07-4.43a3.91,3.91,0,0,0-3.18-1.29,4.09,4.09,0,0,0-3.24,1.41,6.19,6.19,0,0,0-1.41,3.57v10.41l3.18.54v2.46H972.15v-2.46l3.18-.54v-9.67a7,7,0,0,0-1.1-4.35,3.85,3.85,0,0,0-3.2-1.37,5.32,5.32,0,0,0-2.89.72,4.75,4.75,0,0,0-1.74,2v12.64l3.19.54v2.46H959.37Z"/><path class="cls-45" d="M1011.72,323.75c-.12-.57-.21-1.08-.28-1.54s-.11-.91-.13-1.37a9.36,9.36,0,0,1-2.79,2.38,8,8,0,0,1-8.58-.67,5.89,5.89,0,0,1-1.72-4.54,5.27,5.27,0,0,1,2.43-4.64,11.92,11.92,0,0,1,6.67-1.63h4v-2.46a3.8,3.8,0,0,0-1.17-2.94,4.66,4.66,0,0,0-3.27-1.08,8,8,0,0,0-2.55.37,4.92,4.92,0,0,0-1.78,1l-.41,2.23h-3v-4.1a11.56,11.56,0,0,1,3.49-1.85,13.94,13.94,0,0,1,4.46-.69,8.84,8.84,0,0,1,5.82,1.84,6.42,6.42,0,0,1,2.22,5.25V319.5c0,.27,0,.54,0,.8s0,.52.05.78l1.57.21v2.46Zm-6.19-2.81A6.75,6.75,0,0,0,1009,320a5.67,5.67,0,0,0,2.27-2.2v-3.48h-4.1a5.82,5.82,0,0,0-3.74,1.09,3.3,3.3,0,0,0-1.38,2.66,2.61,2.61,0,0,0,.86,2.12A3.92,3.92,0,0,0,1005.53,320.94Z"/><path class="cls-45" d="M563.69,353.47v-2.85H567V348a7.25,7.25,0,0,1,1.77-5.23,6.5,6.5,0,0,1,4.93-1.84,8.73,8.73,0,0,1,1.34.1c.45.07.94.18,1.49.31l-.47,2.93a6.53,6.53,0,0,0-.85-.14,8.47,8.47,0,0,0-1-.06,3,3,0,0,0-2.52,1,4.5,4.5,0,0,0-.82,2.92v2.67h4.41v2.85h-4.41v15.28l3.18.54v2.46H563.81v-2.46l3.18-.54V353.47Z"/><path class="cls-45" d="M587.46,372.16a8.91,8.91,0,0,1-7-2.93,11.08,11.08,0,0,1-2.61-7.63v-.86a10.84,10.84,0,0,1,2.69-7.51,8.25,8.25,0,0,1,6.35-3,8,8,0,0,1,6.46,2.58,10.26,10.26,0,0,1,2.2,6.87v2.41H581.81l0,.09a8.32,8.32,0,0,0,1.54,5,4.91,4.91,0,0,0,4.16,2,9.75,9.75,0,0,0,3.43-.56,8,8,0,0,0,2.55-1.53l1.5,2.5a9.29,9.29,0,0,1-3,1.84A12,12,0,0,1,587.46,372.16Zm-.59-18.9a4.15,4.15,0,0,0-3.3,1.63,7.76,7.76,0,0,0-1.68,4.09l0,.1h9.75v-.51a6,6,0,0,0-1.21-3.79A4.34,4.34,0,0,0,586.87,353.26Z"/><path class="cls-45" d="M599.31,369.29l3.19-.54v-15.1l-3.19-.55v-2.48h7v18.13l3.18.54v2.46H599.31Zm7-24.08H602.5v-3.92h3.85Z"/><path class="cls-45" d="M612.46,353.1v-2.48h6.62l.37,3.07a7.38,7.38,0,0,1,2.22-2.54,5.16,5.16,0,0,1,3-.92,5.88,5.88,0,0,1,.92.07,4.71,4.71,0,0,1,.74.15l-.51,3.57-2.19-.12a4.37,4.37,0,0,0-2.56.72,4.59,4.59,0,0,0-1.6,2v12.13l3.18.54v2.46H612.46v-2.46l3.18-.54v-15.1Z"/><path class="cls-45" d="M642.79,371.75c-.12-.57-.21-1.08-.27-1.54s-.11-.91-.14-1.37a9.32,9.32,0,0,1-2.78,2.38,7.14,7.14,0,0,1-3.57.94,7.06,7.06,0,0,1-5-1.61A5.92,5.92,0,0,1,629.3,366a5.27,5.27,0,0,1,2.43-4.64,11.9,11.9,0,0,1,6.67-1.63h4v-2.46a3.8,3.8,0,0,0-1.17-2.94,4.63,4.63,0,0,0-3.26-1.08,7.88,7.88,0,0,0-2.55.37,5,5,0,0,0-1.79,1l-.41,2.23h-3v-4.1a11.62,11.62,0,0,1,3.5-1.85,13.88,13.88,0,0,1,4.45-.69,8.81,8.81,0,0,1,5.82,1.84,6.39,6.39,0,0,1,2.23,5.25V367.5c0,.27,0,.54,0,.8s0,.52,0,.78l1.56.21v2.46Zm-6.19-2.81a6.78,6.78,0,0,0,3.5-.92,5.64,5.64,0,0,0,2.26-2.2v-3.48h-4.1a5.84,5.84,0,0,0-3.74,1.09,3.3,3.3,0,0,0-1.38,2.66,2.64,2.64,0,0,0,.86,2.12A3.93,3.93,0,0,0,636.6,368.94Z"/><path class="cls-45" d="M660.45,343.77v-2.48h7v27.46l3.18.54v2.46H660.45v-2.46l3.18-.54V344.31Z"/><path class="cls-45" d="M673.57,369.29l3.19-.54v-15.1l-3.19-.55v-2.48h7v18.13l3.19.54v2.46H673.57Zm7-24.08h-3.84v-3.92h3.84Z"/><path class="cls-45" d="M694,353.1l-2.54.39,4.36,12,.35,1.53h.12l.37-1.53,4.22-12-2.56-.39v-2.48h8.16v2.48l-1.73.29-7.09,18.36h-2.91l-7.17-18.36-1.74-.29v-2.48H694Z"/><path class="cls-45" d="M709,353.1v-2.48h6.62l.37,3.07a7.38,7.38,0,0,1,2.22-2.54,5.16,5.16,0,0,1,3-.92,6,6,0,0,1,.93.07,4.79,4.79,0,0,1,.73.15l-.51,3.57-2.19-.12a4.39,4.39,0,0,0-2.56.72,4.59,4.59,0,0,0-1.6,2v12.13l3.19.54v2.46H709v-2.46l3.18-.54v-15.1Z"/><path class="cls-45" d="M734.86,372.16a8.91,8.91,0,0,1-7-2.93,11.08,11.08,0,0,1-2.61-7.63v-.86a10.84,10.84,0,0,1,2.69-7.51,8.27,8.27,0,0,1,6.36-3,8,8,0,0,1,6.45,2.58,10.21,10.21,0,0,1,2.2,6.87v2.41H729.22l-.06.09a8.32,8.32,0,0,0,1.54,5,4.92,4.92,0,0,0,4.16,2,9.71,9.71,0,0,0,3.43-.56,8,8,0,0,0,2.55-1.53l1.5,2.5a9.07,9.07,0,0,1-3,1.84A12,12,0,0,1,734.86,372.16Zm-.58-18.9a4.19,4.19,0,0,0-3.31,1.63A7.67,7.67,0,0,0,729.3,359l0,.1h9.75v-.51a5.89,5.89,0,0,0-1.21-3.79A4.34,4.34,0,0,0,734.28,353.26Z"/><path class="cls-45" d="M770.45,371.75c-.12-.57-.21-1.08-.28-1.54s-.11-.91-.13-1.37a9.24,9.24,0,0,1-2.79,2.38,8,8,0,0,1-8.58-.67A5.89,5.89,0,0,1,757,366a5.27,5.27,0,0,1,2.43-4.64,11.92,11.92,0,0,1,6.67-1.63h4v-2.46a3.8,3.8,0,0,0-1.17-2.94,4.66,4.66,0,0,0-3.27-1.08,7.86,7.86,0,0,0-2.54.37,4.88,4.88,0,0,0-1.79,1l-.41,2.23h-3v-4.1a11.5,11.5,0,0,1,3.5-1.85,13.84,13.84,0,0,1,4.45-.69,8.84,8.84,0,0,1,5.82,1.84,6.42,6.42,0,0,1,2.23,5.25V367.5c0,.27,0,.54,0,.8s0,.52,0,.78l1.57.21v2.46Zm-6.19-2.81a6.75,6.75,0,0,0,3.49-.92,5.67,5.67,0,0,0,2.27-2.2v-3.48h-4.1a5.82,5.82,0,0,0-3.74,1.09,3.3,3.3,0,0,0-1.38,2.66,2.64,2.64,0,0,0,.86,2.12A3.92,3.92,0,0,0,764.26,368.94Z"/><path class="cls-45" d="M778.71,361.58a14,14,0,0,1,2.18-8.22,7,7,0,0,1,6.08-3.13,7.55,7.55,0,0,1,3.3.69,6.68,6.68,0,0,1,2.46,2l.32-2.33h3.32v26.23l3.18.55v2.48H789.33V377.4l3.19-.55v-7.09a6.5,6.5,0,0,1-2.41,1.8,8,8,0,0,1-3.18.6,7.21,7.21,0,0,1-6-2.8,11.62,11.62,0,0,1-2.18-7.37Zm3.85.41a9.19,9.19,0,0,0,1.31,5.18,4.49,4.49,0,0,0,4,2,5,5,0,0,0,2.72-.71,5.75,5.75,0,0,0,1.89-2v-10.6a5.94,5.94,0,0,0-1.9-1.9,4.92,4.92,0,0,0-2.67-.7,4.35,4.35,0,0,0-4.07,2.33,12.08,12.08,0,0,0-1.32,6Z"/><path class="cls-45" d="M816.37,368.63a7.34,7.34,0,0,1-2.57,2.62,7.09,7.09,0,0,1-3.63.91,6.77,6.77,0,0,1-5.37-2.2c-1.29-1.47-1.93-3.77-1.93-6.88v-9.43l-2.42-.55v-2.48h6.27v12.5q0,3.38,1,4.65a3.71,3.71,0,0,0,3.11,1.27,6.35,6.35,0,0,0,3.39-.83,5.23,5.23,0,0,0,2-2.35V353.65l-2.83-.55v-2.48h6.68v18.13l2.42.54v2.46h-5.88Z"/><path class="cls-45" d="M825.55,369.29l3.18-.54v-15.1l-3.18-.55v-2.48h7v18.13l3.18.54v2.46H825.55Zm7-24.08h-3.85v-3.92h3.85Z"/><path class="cls-45" d="M848.16,377.4l3.19-.55v-23.2l-3.19-.55v-2.48h6.49l.35,2.58a7.15,7.15,0,0,1,2.57-2.21,7.64,7.64,0,0,1,3.5-.76,7,7,0,0,1,6.11,3.12,14.09,14.09,0,0,1,2.17,8.23V362a11.68,11.68,0,0,1-2.18,7.37,7.23,7.23,0,0,1-6,2.8,8.36,8.36,0,0,1-3.43-.65,6.68,6.68,0,0,1-2.51-1.94v7.28l3.19.55v2.48H848.16Zm17.33-15.82a11.21,11.21,0,0,0-1.41-5.92,4.58,4.58,0,0,0-4.18-2.3,5.1,5.1,0,0,0-2.81.74,5.55,5.55,0,0,0-1.9,2v10.29a5.27,5.27,0,0,0,1.89,2,5.33,5.33,0,0,0,2.86.72,4.75,4.75,0,0,0,4.14-2,8.73,8.73,0,0,0,1.41-5.17Z"/><path class="cls-45" d="M882.5,372.16a8.9,8.9,0,0,1-7-2.93,11.08,11.08,0,0,1-2.61-7.63v-.86a10.83,10.83,0,0,1,2.68-7.51,8.27,8.27,0,0,1,6.36-3,8,8,0,0,1,6.46,2.58,10.26,10.26,0,0,1,2.19,6.87v2.41H876.85l-.05.09a8.25,8.25,0,0,0,1.54,5,4.91,4.91,0,0,0,4.16,2,9.75,9.75,0,0,0,3.43-.56,7.8,7.8,0,0,0,2.54-1.53l1.51,2.5a9.29,9.29,0,0,1-3,1.84A12,12,0,0,1,882.5,372.16Zm-.59-18.9a4.15,4.15,0,0,0-3.3,1.63,7.76,7.76,0,0,0-1.68,4.09l0,.1h9.75v-.51a6,6,0,0,0-1.21-3.79A4.34,4.34,0,0,0,881.91,353.26Z"/><path class="cls-45" d="M894.35,353.1v-2.48H901l.38,3.07a7.26,7.26,0,0,1,2.21-2.54,5.18,5.18,0,0,1,3-.92,6,6,0,0,1,.93.07,4.54,4.54,0,0,1,.73.15l-.51,3.57-2.18-.12a4.37,4.37,0,0,0-2.56.72,4.61,4.61,0,0,0-1.61,2v12.13l3.19.54v2.46H894.35v-2.46l3.19-.54v-15.1Z"/><path class="cls-45" d="M918.24,345.52v5.1h4v2.85h-4v12.84a2.86,2.86,0,0,0,.62,2.08,2.19,2.19,0,0,0,1.63.61,8.13,8.13,0,0,0,1.14-.09c.42-.06.78-.12,1.06-.18l.53,2.63a4.78,4.78,0,0,1-1.6.58,10.08,10.08,0,0,1-2.11.22,5,5,0,0,1-3.73-1.41,6.14,6.14,0,0,1-1.39-4.44V353.47h-3.34v-2.85h3.34v-5.1Z"/><path class="cls-45" d="M925.8,361a11.64,11.64,0,0,1,2.54-7.72,8.49,8.49,0,0,1,6.89-3,8.58,8.58,0,0,1,6.93,3,11.58,11.58,0,0,1,2.55,7.73v.43a11.62,11.62,0,0,1-2.54,7.74,9.46,9.46,0,0,1-13.83,0,11.61,11.61,0,0,1-2.54-7.73Zm3.85.43a10.07,10.07,0,0,0,1.41,5.55,5.09,5.09,0,0,0,8.37,0,10,10,0,0,0,1.43-5.55V361a10,10,0,0,0-1.43-5.52,5.08,5.08,0,0,0-8.38,0,10.14,10.14,0,0,0-1.4,5.52Z"/><path class="cls-45" d="M972.4,369.23a6.7,6.7,0,0,1-2.53,2.19,7.61,7.61,0,0,1-3.47.74,7.22,7.22,0,0,1-6-2.8,11.68,11.68,0,0,1-2.18-7.37v-.41a14.1,14.1,0,0,1,2.18-8.22,7,7,0,0,1,6.08-3.13,7.53,7.53,0,0,1,3.31.69,6.89,6.89,0,0,1,2.46,2v-8.62l-3.19-.54v-2.48h7v27.46l3.19.54v2.46h-6.53ZM962,362a9,9,0,0,0,1.31,5.12,4.55,4.55,0,0,0,4,1.93,5.09,5.09,0,0,0,2.89-.78,6,6,0,0,0,1.94-2.21v-9.8a5.9,5.9,0,0,0-1.94-2.11,5.07,5.07,0,0,0-2.85-.78,4.38,4.38,0,0,0-4.07,2.28,11.77,11.77,0,0,0-1.32,5.94Z"/><path class="cls-45" d="M991.81,372.16a8.91,8.91,0,0,1-7-2.93,11.07,11.07,0,0,1-2.6-7.63v-.86a10.83,10.83,0,0,1,2.68-7.51,8.27,8.27,0,0,1,6.36-3q4.26,0,6.45,2.58a10.21,10.21,0,0,1,2.2,6.87v2.41H986.17l-.06.09a8.39,8.39,0,0,0,1.54,5,4.92,4.92,0,0,0,4.16,2,9.67,9.67,0,0,0,3.43-.56,7.74,7.74,0,0,0,2.55-1.53l1.51,2.5a9.29,9.29,0,0,1-3,1.84A12.06,12.06,0,0,1,991.81,372.16Zm-.58-18.9a4.15,4.15,0,0,0-3.3,1.63,7.76,7.76,0,0,0-1.68,4.09l0,.1H996v-.51a5.89,5.89,0,0,0-1.21-3.79A4.32,4.32,0,0,0,991.23,353.26Z"/><path class="cls-45" d="M573.55,417.16a5.22,5.22,0,0,0,3.37-1.18,3.63,3.63,0,0,0,1.46-2.91h3.45l0,.12a5.91,5.91,0,0,1-2.43,4.86,8.91,8.91,0,0,1-5.89,2.11,8.54,8.54,0,0,1-7-3,11.66,11.66,0,0,1-2.43-7.56v-.82a11.56,11.56,0,0,1,2.44-7.53,8.53,8.53,0,0,1,7-3,11.73,11.73,0,0,1,4.56.84,9.12,9.12,0,0,1,3.35,2.31l.18,4.68h-3.07l-.84-3.32a5,5,0,0,0-1.76-1.07,6.57,6.57,0,0,0-2.42-.41,4.6,4.6,0,0,0-4.32,2.18,10.21,10.21,0,0,0-1.3,5.34v.82a10.38,10.38,0,0,0,1.29,5.4A4.64,4.64,0,0,0,573.55,417.16Z"/><path class="cls-45" d="M599.41,419.75c-.11-.57-.21-1.08-.27-1.54s-.11-.91-.14-1.37a9.32,9.32,0,0,1-2.78,2.38,8,8,0,0,1-8.59-.67,5.92,5.92,0,0,1-1.71-4.54,5.27,5.27,0,0,1,2.43-4.64,11.9,11.9,0,0,1,6.67-1.63h4v-2.46a3.8,3.8,0,0,0-1.17-2.94,4.63,4.63,0,0,0-3.26-1.08,8,8,0,0,0-2.55.37,5,5,0,0,0-1.79,1l-.41,2.23h-3v-4.1a11.62,11.62,0,0,1,3.5-1.85,13.88,13.88,0,0,1,4.45-.69,8.81,8.81,0,0,1,5.82,1.84,6.39,6.39,0,0,1,2.23,5.25V415.5c0,.27,0,.54,0,.8s0,.52,0,.78l1.56.21v2.46Zm-6.19-2.81a6.78,6.78,0,0,0,3.5-.92,5.64,5.64,0,0,0,2.26-2.2v-3.48h-4.1a5.86,5.86,0,0,0-3.74,1.09,3.3,3.3,0,0,0-1.38,2.66,2.64,2.64,0,0,0,.86,2.12A3.93,3.93,0,0,0,593.22,416.94Z"/><path class="cls-45" d="M623.83,405.26h-2.89l-.63-2.54a5.31,5.31,0,0,0-1.77-1.06,6.73,6.73,0,0,0-2.41-.4,4.45,4.45,0,0,0-3,.9,2.82,2.82,0,0,0-1,2.16,2.41,2.41,0,0,0,.88,2,9.09,9.09,0,0,0,3.57,1.29,15.4,15.4,0,0,1,6,2.33,4.7,4.7,0,0,1,2,4,5.48,5.48,0,0,1-2.27,4.55,9.53,9.53,0,0,1-5.95,1.73,15.56,15.56,0,0,1-4.32-.55,11.71,11.71,0,0,1-3.42-1.61l0-4.83h2.9l.72,2.83a3.9,3.9,0,0,0,1.8.88,9.67,9.67,0,0,0,2.34.28,5.44,5.44,0,0,0,3.21-.83,2.55,2.55,0,0,0,1.16-2.18,2.63,2.63,0,0,0-1-2.09,9.19,9.19,0,0,0-3.67-1.43,15.53,15.53,0,0,1-5.8-2.28,4.63,4.63,0,0,1-1.95-3.91,5.49,5.49,0,0,1,2.2-4.39,8.67,8.67,0,0,1,5.71-1.82,13.82,13.82,0,0,1,4.32.63,9,9,0,0,1,3.18,1.73Z"/><path class="cls-45" d="M641.83,419.75c-.11-.57-.2-1.08-.27-1.54s-.11-.91-.14-1.37a9.32,9.32,0,0,1-2.78,2.38,8,8,0,0,1-8.58-.67,5.89,5.89,0,0,1-1.72-4.54,5.27,5.27,0,0,1,2.43-4.64,11.9,11.9,0,0,1,6.67-1.63h4v-2.46a3.8,3.8,0,0,0-1.17-2.94,4.63,4.63,0,0,0-3.26-1.08,8,8,0,0,0-2.55.37,5.05,5.05,0,0,0-1.79,1l-.41,2.23h-3v-4.1a11.44,11.44,0,0,1,3.49-1.85,13.9,13.9,0,0,1,4.46-.69,8.84,8.84,0,0,1,5.82,1.84,6.42,6.42,0,0,1,2.22,5.25V415.5c0,.27,0,.54,0,.8s0,.52,0,.78l1.56.21v2.46Zm-6.19-2.81a6.78,6.78,0,0,0,3.5-.92,5.64,5.64,0,0,0,2.26-2.2v-3.48h-4.1a5.86,5.86,0,0,0-3.74,1.09,3.29,3.29,0,0,0-1.37,2.66,2.61,2.61,0,0,0,.86,2.12A3.89,3.89,0,0,0,635.64,416.94Z"/><path class="cls-45" d="M655,419.75h-3.85v-3.94H655Z"/></g></svg>