<svg xmlns="http://www.w3.org/2000/svg" xmlns:xlink="http://www.w3.org/1999/xlink" viewBox="0 0 1124.64 651.26"><defs><style>.cls-1{fill:none;}.cls-2{fill:#e6f4ff;}.cls-3{clip-path:url(#clip-path);}.cls-4{fill:#312235;}.cls-5{fill:#ce7061;}.cls-6{fill:#8bb5d8;}.cls-7{fill:#329e89;}.cls-8{clip-path:url(#clip-path-2);}.cls-9{fill:#c5e2ff;}.cls-10{clip-path:url(#clip-path-3);}.cls-11{fill:#fff;}.cls-12{fill:#3a1e1c;}.cls-13{clip-path:url(#clip-path-4);}.cls-14{fill:#d88268;}.cls-15{fill:#d98369;}.cls-16{fill:#da8469;}.cls-17{fill:#db856a;}.cls-18{fill:#dc866b;}.cls-19{fill:#dd876b;}.cls-20{fill:#de886c;}.cls-21{fill:#df896d;}.cls-22{fill:#e08a6d;}.cls-23{fill:#e18b6e;}.cls-24{fill:#e28c6f;}.cls-25{fill:#e48d70;}.cls-26{fill:#e58d70;}.cls-27{fill:#e68e71;}.cls-28{fill:#e78f72;}.cls-29{fill:#e89072;}.cls-30{fill:#e99173;}.cls-31{fill:#ea9274;}.cls-32{fill:#eb9374;}.cls-33{fill:#ec9475;}.cls-34{fill:#ed9576;}.cls-35{fill:#ee9676;}.cls-36{fill:#ef9777;}.cls-37{fill:#3d201f;}.cls-38{fill:#b5574d;}.cls-39{fill:#b3514e;}.cls-40{fill:#fc999c;}.cls-41{fill:#f9aaaa;}.cls-42{fill:#196b5d;}.cls-43{fill:#208975;}.cls-44{fill:#8acec3;}.cls-45{fill:#5b1f3c;}.cls-46{fill:#fffdfd;}.cls-47{fill:#175b4e;}</style><clipPath id="clip-path"><path class="cls-1" d="M541.11-404.43c-10.3-18-97.34-31.5-97.34-31.5S301.45-624.7,232.44-618.27s-80.25,56.59-80.25,56.59l-32.63,66.55C54.29-460.21,10.25-394.07,10.25-318.22,10.25-206,106.68-115,225.62-115c117.57,0,213.12-88.9,215.32-199.35C473.29-336.63,549.06-390.56,541.11-404.43Z"/></clipPath><clipPath id="clip-path-2"><path class="cls-2" d="M428.87,402.79a192.51,192.51,0,0,0-5.05-43.86c-32.69-73-109.23-124.15-198.45-124.15C106.43,234.78,10,325.78,10,438a193.16,193.16,0,0,0,5,43.87C47.74,554.84,124.28,606,213.5,606,332.44,606,428.87,515,428.87,402.79Z"/></clipPath><clipPath id="clip-path-3"><path class="cls-1" d="M541.22,351.81c-8.62-15-92-32.76-90.33-32.5,3.75,5-153.08-187.41-218.34-181.34-69,6.43-80.25,56.59-80.25,56.59l-32.63,66.55C54.4,296,10.36,362.17,10.36,438c0,112.25,96.43,203.24,215.37,203.24,117.57,0,213.12-88.9,215.32-199.34C473.4,419.61,549.17,365.68,541.22,351.81Z"/></clipPath><clipPath id="clip-path-4"><path class="cls-1" d="M228,319.63l-2.36,9.78s-19.92,12.9-37.91,11.87c-5.34-.3,67.76,42.8,71.74,43s34.38-50.16,34.38-50.16-20.41-3.73-27.17-4-14.47-18.28-14.47-18.28Z"/></clipPath></defs><title>3-fala2</title><g id="Camada_5" data-name="Camada 5"><g class="cls-3"><path class="cls-4" d="M190,275.55s-6.77,14.38-4.3,22.7S202.88,312,202.88,312s37.07,22.44,68.87,18.45,21.38-11,21.38-11l-55.79-45.94Z"/><path class="cls-4" d="M298,272s-5.18,10.44-3,17.43,15.57,10.15,15.57,10.15l10.35.39,104,5.36s7.43-21.13-51.76-33.44S298,272,298,272Z"/><path class="cls-5" d="M202.2,14.2l2.37,26.31s-29.12,70.66-9.27,203l-6,40.43s24.06,11.27,41.43,15.9a72.35,72.35,0,0,0,32,1.2s-39.64-43.48-45.34-49.63L267.07,11S238.58-46.54,202.2,14.2Z"/><path class="cls-5" d="M284.55,12.39S258.79,82.93,300,217.08c0,0,5.91,55.23-2.05,54.93s81.06,6.76,86.9,7-44.4-20.8-48.8-31.06-6.29-201.14-.33-218.46a234.54,234.54,0,0,0,8.72-34.22S289.46,1.67,284.55,12.39Z"/><path class="cls-4" d="M172.66-198.52S155.05-125.95,157-106.07s4.68,52.17,34,145.94c0,0,78.26,32.39,150.2-.8,0,0,6.29-1.86,10.91-43.82s12.42-142.59-8.72-187.46S172.66-198.52,172.66-198.52Z"/></g><ellipse class="cls-6" cx="225.37" cy="438.02" rx="215.37" ry="203.24"/><path class="cls-7" d="M225.37,234.78c119,0,215.37,91,215.37,203.24S344.32,641.26,225.37,641.26,10,550.27,10,438s96.42-203.24,215.37-203.24m0-10a235.1,235.1,0,0,0-87.54,16.69A225.72,225.72,0,0,0,66.22,287,212.37,212.37,0,0,0,17.8,354.82a203.34,203.34,0,0,0,0,166.4A212.3,212.3,0,0,0,66.22,589a225.89,225.89,0,0,0,71.61,45.57,238.05,238.05,0,0,0,175.08,0A225.94,225.94,0,0,0,384.53,589a212.12,212.12,0,0,0,48.41-67.79,203.34,203.34,0,0,0,0-166.4A212.19,212.19,0,0,0,384.53,287a225.76,225.76,0,0,0-71.62-45.57,235.1,235.1,0,0,0-87.54-16.69Z"/><path class="cls-2" d="M428.87,402.79a192.51,192.51,0,0,0-5.05-43.86c-32.69-73-109.23-124.15-198.45-124.15C106.43,234.78,10,325.78,10,438a193.16,193.16,0,0,0,5,43.87C47.74,554.84,124.28,606,213.5,606,332.44,606,428.87,515,428.87,402.79Z"/><g class="cls-8"><circle class="cls-2" cx="306.79" cy="408.71" r="104.58"/><circle class="cls-2" cx="306.79" cy="408.71" r="100.64"/><circle class="cls-2" cx="306.79" cy="408.71" r="98.66"/><circle class="cls-2" cx="306.79" cy="408.71" r="96.69"/><circle class="cls-2" cx="306.79" cy="408.71" r="94.72"/><circle class="cls-2" cx="306.79" cy="408.71" r="92.74"/><circle class="cls-2" cx="306.79" cy="408.71" r="90.77"/><circle class="cls-2" cx="306.79" cy="408.71" r="88.8"/><circle class="cls-2" cx="306.79" cy="408.71" r="86.82"/><circle class="cls-2" cx="306.79" cy="408.71" r="84.85"/><circle class="cls-2" cx="306.79" cy="408.71" r="82.88"/><circle class="cls-2" cx="306.79" cy="408.71" r="80.9"/><circle class="cls-2" cx="306.79" cy="408.71" r="78.93"/><circle class="cls-2" cx="306.79" cy="408.71" r="76.96"/><circle class="cls-2" cx="306.79" cy="408.71" r="74.98"/><circle class="cls-2" cx="306.79" cy="408.71" r="73.01"/><circle class="cls-2" cx="306.79" cy="408.71" r="71.04"/><circle class="cls-2" cx="306.79" cy="408.71" r="69.06"/><circle class="cls-2" cx="306.79" cy="408.71" r="67.09"/><circle class="cls-2" cx="306.79" cy="408.71" r="65.12"/><circle class="cls-2" cx="306.79" cy="408.71" r="63.15"/><circle class="cls-2" cx="306.79" cy="408.71" r="61.17"/><circle class="cls-2" cx="306.79" cy="408.71" r="59.2"/><circle class="cls-2" cx="306.79" cy="408.71" r="57.23"/><circle class="cls-2" cx="306.79" cy="408.71" r="55.25"/><circle class="cls-2" cx="306.79" cy="408.71" r="53.28"/><circle class="cls-2" cx="306.79" cy="408.71" r="51.31"/><circle class="cls-2" cx="306.79" cy="408.71" r="49.33"/><circle class="cls-2" cx="306.79" cy="408.71" r="47.36"/><circle class="cls-2" cx="306.79" cy="408.71" r="45.39"/><circle class="cls-2" cx="306.79" cy="408.71" r="43.41"/><circle class="cls-2" cx="306.79" cy="408.71" r="41.44"/><circle class="cls-2" cx="306.79" cy="408.71" r="39.47"/><circle class="cls-2" cx="306.79" cy="408.71" r="37.49"/><circle class="cls-2" cx="306.79" cy="408.71" r="35.52"/><circle class="cls-2" cx="306.79" cy="408.71" r="33.55"/><circle class="cls-2" cx="306.79" cy="408.71" r="31.57"/><circle class="cls-2" cx="306.79" cy="408.71" r="29.6"/><circle class="cls-2" cx="306.79" cy="408.71" r="27.63"/><circle class="cls-2" cx="306.79" cy="408.71" r="25.65"/><circle class="cls-2" cx="306.79" cy="408.71" r="23.68"/><circle class="cls-2" cx="306.79" cy="408.71" r="21.71"/><circle class="cls-2" cx="306.79" cy="408.71" r="19.73"/><circle class="cls-2" cx="306.79" cy="408.71" r="17.76"/><circle class="cls-2" cx="306.79" cy="408.71" r="15.79"/><circle class="cls-2" cx="306.79" cy="408.71" r="13.81"/><circle class="cls-2" cx="306.79" cy="408.71" r="11.84"/><circle class="cls-2" cx="306.79" cy="408.71" r="9.87"/><circle class="cls-2" cx="306.79" cy="408.71" r="7.89"/><circle class="cls-2" cx="306.79" cy="408.71" r="5.92"/><circle class="cls-2" cx="306.79" cy="408.71" r="3.95"/><circle class="cls-2" cx="306.79" cy="408.71" r="1.97"/></g><path class="cls-6" d="M787.8,44.22c-174.89,0-318.64,118.13-335.23,269.27L353,353.14s-6.51,2.41-5.85,11.74a12.7,12.7,0,0,0,7.43,10.89L458.82,407C492,541,626.68,641.26,787.8,641.26c186,0,336.84-133.65,336.84-298.52S973.83,44.22,787.8,44.22Z"/><path class="cls-9" d="M787.75,0C612.85,0,469.11,118.13,452.52,269.27L353,308.92s-6.51,2.41-5.86,11.74a12.7,12.7,0,0,0,7.44,10.88l104.21,31.28C492,496.78,626.63,597,787.75,597c186,0,336.84-133.65,336.84-298.52S973.78,0,787.75,0Z"/><g class="cls-10"><path class="cls-11" d="M153.64,564.7s24.48-21.86,24.48-27-14.34-8.35-14.34-8.35l-20.42,29.5,9.58,7.33Z"/><path class="cls-12" d="M176.3,358.82S129.4,227,183.74,159.92c0,0,58.11-39.81,101.53,7s13,178.54,13,178.54Z"/><g class="cls-13"><polygon class="cls-14" points="293.83 311.8 293.86 312.12 182.43 322.49 182.43 311.8 293.83 311.8"/><polygon class="cls-14" points="293.86 312.12 293.89 312.49 293.89 312.93 182.43 323.3 182.43 322.49 293.86 312.12"/><polygon class="cls-15" points="293.89 313.74 182.43 324.11 182.43 323.3 293.89 312.93 293.89 313.74"/><polygon class="cls-16" points="293.89 314.55 182.43 324.93 182.43 324.11 293.89 313.74 293.89 314.55"/><polygon class="cls-17" points="293.89 315.37 182.43 325.74 182.43 324.93 293.89 314.55 293.89 315.37"/><polygon class="cls-18" points="293.89 316.18 182.43 326.55 182.43 325.74 293.89 315.37 293.89 316.18"/><polygon class="cls-19" points="293.89 316.99 182.43 327.37 182.43 326.55 293.89 316.18 293.89 316.99"/><polygon class="cls-20" points="293.89 317.81 182.43 328.18 182.43 327.37 293.89 316.99 293.89 317.81"/><polygon class="cls-21" points="293.89 318.62 182.43 328.99 182.43 328.18 293.89 317.81 293.89 318.62"/><polygon class="cls-22" points="293.89 319.43 182.43 329.81 182.43 328.99 293.89 318.62 293.89 319.43"/><polygon class="cls-23" points="293.89 320.24 182.43 330.62 182.43 329.81 293.89 319.43 293.89 320.24"/><polygon class="cls-24" points="293.89 321.06 182.43 331.43 182.43 330.62 293.89 320.24 293.89 321.06"/><polygon class="cls-25" points="293.89 321.87 182.43 332.24 182.43 331.43 293.89 321.06 293.89 321.87"/><polygon class="cls-26" points="293.89 322.68 182.43 333.06 182.43 332.24 293.89 321.87 293.89 322.68"/><polygon class="cls-27" points="293.89 323.5 182.43 333.87 182.43 333.06 293.89 322.68 293.89 323.5"/><polygon class="cls-28" points="293.89 324.31 182.43 334.68 182.43 333.87 293.89 323.5 293.89 324.31"/><polygon class="cls-29" points="293.89 325.12 182.43 335.5 182.43 334.68 293.89 324.31 293.89 325.12"/><polygon class="cls-30" points="293.89 325.94 182.43 336.31 182.43 335.5 293.89 325.12 293.89 325.94"/><polygon class="cls-31" points="293.89 326.75 182.43 337.12 182.43 336.31 293.89 325.94 293.89 326.75"/><polygon class="cls-32" points="293.89 327.56 182.43 337.94 182.43 337.12 293.89 326.75 293.89 327.56"/><polygon class="cls-33" points="293.89 328.38 182.43 338.75 182.43 337.94 293.89 327.56 293.89 328.38"/><polygon class="cls-34" points="293.89 329.19 182.43 339.56 182.43 338.75 293.89 328.38 293.89 329.19"/><polygon class="cls-35" points="293.89 330 182.43 340.38 182.43 339.56 293.89 329.19 293.89 330"/><polygon class="cls-36" points="293.89 330.82 182.43 341.19 182.43 340.38 293.89 330 293.89 330.82"/><polygon class="cls-36" points="184.46 384.38 182.43 362.56 182.43 341.19 293.89 330.82 293.89 384.38 184.46 384.38"/></g><path class="cls-36" d="M182.71,220.71s-.88,110.78,64.76,101.68C283,317.47,295,282,288.35,251.47a191.55,191.55,0,0,1-3.79-46.76s-4.08-29.37-38.7-20.31-49.64,5.72-49.64,5.72S180.65,193.3,182.71,220.71Z"/><path class="cls-12" d="M177.18,226.89s25.09-2.78,36.43-7.67l.58-15.39s2.55,9.93,4.85,12.4,22.88-.73,32-3.58,4.81-14.7,4.81-14.7l4.34,11.85s28.57,3.45,28.73-.93-3.86-24.71-12.21-28.74-73.88-4.44-83.08,4.1S177.64,214.69,177.18,226.89Z"/><ellipse class="cls-37" cx="266.06" cy="242.56" rx="3.92" ry="3.17" transform="translate(-22.23 26.9) rotate(-5.56)"/><ellipse class="cls-37" cx="226.99" cy="246.26" rx="3.92" ry="3.17" transform="translate(-22.77 23.13) rotate(-5.56)"/><path class="cls-38" d="M250.66,277a15.34,15.34,0,0,1-5.17-.8l.35-.94c5.16,1.91,13.88,0,15.56-3.34,1.13-2.27-1.43-4.53-3.78-6-6.89-4.38-5.32-8.94-5.25-9.13l.94.34c-.05.16-1.33,4,4.84,7.94,4.89,3.11,5,5.69,4.15,7.32C260.83,275.31,255.48,277,250.66,277Z"/><path class="cls-39" d="M265.06,287.05c-18.37,3.57-37.46.15-36.73,1.15,0,0,1.77,10.68,18,10.61C263.08,298.73,265.06,287.05,265.06,287.05Z"/><path class="cls-11" d="M219.49,331.75s22.52,13.66,36.94,11.81c6.84-.88,18.95-14,18.95-14l13,129.73-49.8,2.24Z"/><path class="cls-4" d="M172.77,555.72s-17.61,72.57-15.62,92.45,4.67,52.17,34,145.94c0,0,78.26,32.39,150.2-.8,0,0,6.29-1.86,10.91-43.82S364.68,606.9,343.54,562,172.77,555.72,172.77,555.72Z"/><path class="cls-12" d="M271.16,224s-6.44-4.41-10.23.1a.89.89,0,0,0-.21,1.24c.5.72,1.31-2.15,10.2-.47C270.92,224.88,271.48,225,271.16,224Z"/><path class="cls-12" d="M218.84,227.22s5.76-5.29,10.14-1.36a.89.89,0,0,1,.39,1.2c-.4.78-1.61-1.94-10.16,1C219.21,228,218.66,228.24,218.84,227.22Z"/><path class="cls-11" d="M262.73,287.47s-.64,2.4-2,3.09-15.62,1.5-24.11.72c-5.38-.5-6.4-2.5-6.25-3.23C230.39,288.05,249.2,289.75,262.73,287.47Z"/><path class="cls-40" d="M249.49,298.64s-1.22-7.27-18.49-5.37C231,293.27,235.13,299.91,249.49,298.64Z"/><ellipse class="cls-41" cx="281.12" cy="252.77" rx="3.62" ry="6.23" transform="translate(5.89 511.94) rotate(-85.24)"/><ellipse class="cls-41" cx="214.9" cy="262.02" rx="6.23" ry="3.62" transform="translate(-52.55 53.92) rotate(-12.76)"/><path class="cls-42" d="M333.67,438.84l41.91,37.38s10.59,6.85,14.41,7.27c4,.44,18.28-9.52,18.28-9.52l39.67-86.66s-43.31-16.06-43.67-19.67-13.35,48.69-13.35,48.69-1-1.57-6.5-.5c-3,.58-1.8,5.6-7.87-.14-3.74-3.54-4.14-3.13-9.36-10.51-29.22-41.33-56.53-70.83-58.39-72.35s-11-6.17-14.23-4.65-19.19,1.41-19.19,1.41L278,445,219.49,331.75s-12.56,4.33-26.08,2.61S157.17,338,157.17,338s-10.23,27.71-17.55,29.81-11,20.25-11,20.25c-2.17,2.65-10.18,14.08-19.61,27.72h0s-37.48,45.93-43,49.91-2.65,13.44-2.65,13.44l78.84,83.79,27.83-35.51C163,526.89,127,477.62,127,477.62c2.53-4.53,2.3-8.26,1.56-10.72,17.3-18.49,42.63-47.18,42.63-47.18.41,4.06,6.47,16.8,16.94,32.51s9.68,42.14,9.68,42.14c-14.94,21.68-25,61.35-25,61.35s1,7.92,26.28,20.54c11,5.51,46.51,16.31,46.51,16.31L285,549.29l50.78,35.64s9.12-9.13,8.21-18.27-18.44-63.5-18.44-63.5-1.89-19,.28-24.66S333.67,438.84,333.67,438.84Z"/><path class="cls-14" d="M153.64,564.7s12.2,10.7,14.67,8.23l12.44-35.19S165.17,549,153.64,564.7Z"/><path class="cls-36" d="M171,565.87s5.9-5.86,14.86,2.8,9.68,9.26,9.68,9.26,7,2.88,7.52-4.63c0,0,8.8,1.29,6.83-8.39,0,0,6.13-4.42.71-12,0,0,5.5-1.06,2.23-11.47s-24-20.46-24-20.46S178.84,517.45,178,529c0,0-7.16.38-4.66,10.38,0,0-4.65,4.2-3.65,8.77s-.11,3.66-.11,3.66S162.9,559.29,171,565.87Z"/><path class="cls-38" d="M202.67,573.63c-.11-.14-11.87-13.67-24.48-19.79l.44-.9c12.79,6.21,24.68,19.9,24.8,20Z"/><path class="cls-38" d="M209.53,565.27c-.17-.16-17.14-16.1-29.48-22.75l.48-.88c12.45,6.72,29.52,22.74,29.69,22.9Z"/><path class="cls-38" d="M210.2,553.19c-.15-.18-15.21-17.9-27.55-21.76l.3-.95c12.61,3.94,27.39,21.33,28,22.07Z"/><path class="cls-43" d="M219.49,331.75s-24.15,11.65-37.22,31.43l44.37,12.67s-15.11,14.86-14.79,18.07S278,445,278,445s33.54-61.51,29.81-64.56-24.28-6.81-24.28-6.81S303,346,306.41,345.64s-28-16.36-31-16.05,2.52,110.28,2.52,110.28l-.15,2.38Z"/><path class="cls-4" d="M278,445s9.26,81.81,7,104.33"/><circle class="cls-44" cx="291.76" cy="469.64" r="5.33"/><circle class="cls-44" cx="293.89" cy="507.64" r="5.33"/><path class="cls-45" d="M173.92,402.9l-1-.23a76.65,76.65,0,0,0-11.56-60.85l.82-.57A77.63,77.63,0,0,1,173.92,402.9Z"/><path class="cls-45" d="M329.2,405.1l-1-.09c1.1-12.3-3.36-24.58-7.3-35.41-4.66-12.82-9.95-27.35-20.07-37.88l.72-.69c10.27,10.68,15.59,25.32,20.29,38.23C325.81,380.19,330.32,392.58,329.2,405.1Z"/><path class="cls-45" d="M146.43,375.14a27.4,27.4,0,0,0-3.49-6.94l.82-.57a28.39,28.39,0,0,1,3.62,7.19Z"/><path class="cls-45" d="M136.15,390.8a33.69,33.69,0,0,0-6.08-.83l.05-1a36.56,36.56,0,0,1,6.25.85Z"/><path class="cls-45" d="M334.55,439.12l-1-.11a73.17,73.17,0,0,0,.43-11.93l1,0A73.89,73.89,0,0,1,334.55,439.12Z"/><path class="cls-45" d="M396.5,433.11a74.37,74.37,0,0,0-2.84-11.6l.95-.31A74,74,0,0,1,397.48,433Z"/><path class="cls-45" d="M383.16,434.09l-1-.15a58.15,58.15,0,0,0,.75-10.74l1,0A59.25,59.25,0,0,1,383.16,434.09Z"/><path class="cls-45" d="M200.53,494.73l-.53-.85a60,60,0,0,1,11.6-5.54l.33.94A59.09,59.09,0,0,0,200.53,494.73Z"/><path class="cls-45" d="M127.88,467.41c-2.32,0-10-.2-12.54-2.75l.71-.71c2.65,2.66,12.36,2.45,12.46,2.45l0,1Z"/><path class="cls-45" d="M118.94,481.06v-1c3.43,0,7.7-2.83,7.74-2.86l.56.83C127.05,478.16,122.68,481.06,118.94,481.06Z"/><path class="cls-46" d="M405,372.47a11.23,11.23,0,0,1,3.26-6.3L449.13,378l-4.26,11.35Z"/><path class="cls-36" d="M413.24,368.67s2.55-5.88,1.16-10.37-5.57-14.17-4.84-19.36a101.16,101.16,0,0,0,1.33-15.6c0-16-1.25-38.25-1.16-38.92.14-1,6.37-.85,6.68,2.46.12,1.26-.27,7.05.61,12.71,1.43,9.25,3.23,20.4,3.23,20.4s12.35-3.55,16.86-.31c0,0,8.21-2.12,9,1.69,0,0,6.59-.47,6.72,2.47a76.37,76.37,0,0,1,0,9c-.08.53-3.31,5.76-3.68,8.66-.74,5.81,1,11.35-.56,14.66-2.35,5-7.64,8.17-7.83,9.53s-2.62,12.93-3.33,13.46S412.59,373.28,413.24,368.67Z"/><path class="cls-38" d="M431.15,344.62l-.38,0c-1.67-.14-3.4-1.31-3.24-4.18a17.18,17.18,0,0,1,1.35-4.27c.65-1.63,1.64-4.1,1.24-4.64a13.19,13.19,0,0,1-1.58-4.26c-1.17.7-3.23,1.63-4.27.23l.79-.6c.63.84,2.5-.14,3.51-.85l.69.08.08.1,0,.14a14.22,14.22,0,0,0,1.55,4.56c.74,1-.12,3.13-1.11,5.62a16.75,16.75,0,0,0-1.28,4c-.15,2.63,1.58,3.06,2.32,3.13a3.88,3.88,0,0,0,4.13-3.17,18.17,18.17,0,0,1,.85-2.57,32.9,32.9,0,0,0,1.46-4.53c.18-1.31-.43-10.28-.68-13.62l1-.07c0,.49.9,12.15.67,13.83a32.68,32.68,0,0,1-1.51,4.73c-.36,1-.77,2.09-.8,2.34A4.81,4.81,0,0,1,431.15,344.62Z"/><path class="cls-38" d="M440.27,344.18l-.3,0a6.62,6.62,0,0,1-5-3.46l.91-.42a5.59,5.59,0,0,0,4.18,2.89,1.16,1.16,0,0,0,.88-.26c1.28-1,2.27-4.19,2.94-9.54l.06-.43,1.65-11.64,1,.14-1.7,12.05c-.27,2.1-1.06,8.48-3.33,10.21A2.17,2.17,0,0,1,440.27,344.18Z"/><path class="cls-38" d="M447.53,342.16a4.36,4.36,0,0,1-1.46-.27,4.46,4.46,0,0,1-2.89-2.82l1-.23a3.56,3.56,0,0,0,2.26,2.11,2.37,2.37,0,0,0,2.25-.13c1.29-1,3.15-6.17,3.76-8.1l1,.31c-.24.74-2.34,7.26-4.11,8.59A2.86,2.86,0,0,1,447.53,342.16Z"/><path class="cls-36" d="M421.52,355.71c1.12.16,5.94-3.58,6.86-5.66s1.8-4.73,1.8-4.73,3.7-1.81,5.2-1.54c3.17.58,5.87-2.24,5.84-4,0-2-2.6-4.12-7.44-3,0,0-4.18,1.57-5.11,1.44s-3.64-.13-4.77.72a8.14,8.14,0,0,1-4.51,1.13c-.93-.13-3.36-.13-4.39.64"/><path class="cls-38" d="M421.57,356.21h-.12l.14-1h0c.86,0,5.41-3.34,6.31-5.37s1.78-4.66,1.78-4.69l.07-.2.19-.09c.39-.19,3.9-1.87,5.51-1.58a4.65,4.65,0,0,0,3.84-1.13,3.58,3.58,0,0,0,1.41-2.38,2.47,2.47,0,0,0-1-1.85c-1.26-1-3.38-1.26-5.8-.72-.65.25-4.28,1.58-5.29,1.45s-3.49-.07-4.4.62a8.58,8.58,0,0,1-4.88,1.22c-1-.14-3.19-.07-4,.55l-.6-.8c1.18-.89,3.76-.88,4.76-.74a7.75,7.75,0,0,0,4.14-1c1.31-1,4.23-.94,5.14-.81a22.41,22.41,0,0,0,4.86-1.42c3.8-.85,5.83.2,6.71.89a3.48,3.48,0,0,1,1.41,2.62,4.48,4.48,0,0,1-1.76,3.17,5.72,5.72,0,0,1-4.67,1.34c-.93-.17-3.3.74-4.7,1.41-.23.66-1,2.83-1.75,4.58C427.9,352.35,423.16,356.21,421.57,356.21Z"/></g><path class="cls-47" d="M567.57,252h-9v9.14H569l.14-3.3h1.6v4.83H554.27v-1.33l2.46-.2v-19l-2.46-.19v-1.35h16.34v4.84H569l-.14-3.3H558.54v8.28h9Zm-3.13-16.85h2.22l.05.09-3.77,3.94h-1.62Z"/><path class="cls-47" d="M581.18,247.67v-1.35h4l.23,2.54a5.92,5.92,0,0,1,2.12-2.1,6,6,0,0,1,3-.74,5.34,5.34,0,0,1,4.62,2.35,10.66,10.66,0,0,1,1.66,6.28V255a9.45,9.45,0,0,1-1.66,5.87,5.45,5.45,0,0,1-4.59,2.19,6.56,6.56,0,0,1-3-.66,5.51,5.51,0,0,1-2.11-1.87v7l2.47.2V269h-6.74v-1.35l2.47-.2V247.86Zm13.83,7a9.38,9.38,0,0,0-1.24-5.09,4,4,0,0,0-3.63-2,4.76,4.76,0,0,0-3,.87,5.27,5.27,0,0,0-1.72,2.27v7.87a5,5,0,0,0,1.79,2.12,5.26,5.26,0,0,0,2.93.77,4.1,4.1,0,0,0,3.61-1.79A8.21,8.21,0,0,0,595,255Z"/><path class="cls-47" d="M611.09,262.7c-.12-.56-.21-1-.26-1.44a9.92,9.92,0,0,1-.07-1.23,7.4,7.4,0,0,1-2.42,2.14,6.93,6.93,0,0,1-3.41.85,5.21,5.21,0,0,1-3.72-1.25,4.36,4.36,0,0,1-1.32-3.35,4.16,4.16,0,0,1,2-3.61,9.26,9.26,0,0,1,5.3-1.33h3.62v-2.16a3.52,3.52,0,0,0-1.13-2.76,4.62,4.62,0,0,0-3.16-1,8.23,8.23,0,0,0-2.49.37,5.52,5.52,0,0,0-1.88,1l-.15,2.19h-1.5V248a9.6,9.6,0,0,1,2.72-1.43,10.39,10.39,0,0,1,3.37-.54,6.57,6.57,0,0,1,4.36,1.38,4.84,4.84,0,0,1,1.65,3.95v8c0,.33,0,.65,0,1a8.54,8.54,0,0,0,.1.9l1.64.11v1.33Zm-6-1.29a6.5,6.5,0,0,0,3.46-.91,5.36,5.36,0,0,0,2.17-2.34v-3.29h-3.65a6.71,6.71,0,0,0-3.94,1,3,3,0,0,0-1.48,2.58,2.71,2.71,0,0,0,.92,2.12A3.67,3.67,0,0,0,605.13,261.41Z"/><path class="cls-47" d="M620.81,246.32l.23,2.73v.19a5.71,5.71,0,0,1,1.9-2.37,5.07,5.07,0,0,1,3.52-.8c.22,0,.4.07.54.11l-.24,1.7-1.35-.09a4.11,4.11,0,0,0-2.81,1,5.28,5.28,0,0,0-1.56,2.64v9.78l2.46.2v1.33h-6.73v-1.33l2.46-.2V247.86l-2.46-.19v-1.35h4Z"/><path class="cls-47" d="M640.65,262.7c-.12-.56-.2-1-.25-1.44a9.9,9.9,0,0,1-.08-1.23,7.3,7.3,0,0,1-2.42,2.14,6.93,6.93,0,0,1-3.41.85,5.21,5.21,0,0,1-3.72-1.25,4.36,4.36,0,0,1-1.32-3.35,4.15,4.15,0,0,1,2-3.61,9.23,9.23,0,0,1,5.29-1.33h3.62v-2.16a3.52,3.52,0,0,0-1.13-2.76,4.61,4.61,0,0,0-3.15-1,8.13,8.13,0,0,0-2.49.37,5.67,5.67,0,0,0-1.89,1l-.15,2.19H630l0-3.14a9.4,9.4,0,0,1,2.71-1.43,10.39,10.39,0,0,1,3.37-.54,6.57,6.57,0,0,1,4.36,1.38,4.84,4.84,0,0,1,1.65,3.95v8c0,.33,0,.65,0,1a8.54,8.54,0,0,0,.1.9l1.64.11v1.33Zm-6-1.29a6.53,6.53,0,0,0,3.47-.91,5.27,5.27,0,0,0,2.16-2.34v-3.29h-3.65a6.73,6.73,0,0,0-3.94,1,3.05,3.05,0,0,0-1.48,2.58,2.71,2.71,0,0,0,.92,2.12A3.67,3.67,0,0,0,634.69,261.41Z"/><path class="cls-47" d="M653.63,240.43v-1.35h4.26v22.09l2.47.2v1.33h-6.73v-1.33l2.46-.2V240.63Z"/><path class="cls-47" d="M674.53,262.7c-.12-.56-.21-1-.26-1.44a9.92,9.92,0,0,1-.07-1.23,7.34,7.34,0,0,1-2.43,2.14,6.86,6.86,0,0,1-3.4.85,5.22,5.22,0,0,1-3.73-1.25,4.39,4.39,0,0,1-1.31-3.35,4.16,4.16,0,0,1,1.95-3.61,9.26,9.26,0,0,1,5.3-1.33h3.62v-2.16a3.52,3.52,0,0,0-1.13-2.76,4.64,4.64,0,0,0-3.16-1,8.13,8.13,0,0,0-2.49.37,5.52,5.52,0,0,0-1.88,1l-.15,2.19h-1.5V248a9.6,9.6,0,0,1,2.72-1.43A10.35,10.35,0,0,1,670,246a6.57,6.57,0,0,1,4.36,1.38,4.84,4.84,0,0,1,1.65,3.95v8c0,.33,0,.65,0,1a8.54,8.54,0,0,0,.1.9l1.63.11v1.33Zm-6-1.29a6.5,6.5,0,0,0,3.46-.91,5.36,5.36,0,0,0,2.17-2.34v-3.29h-3.65a6.71,6.71,0,0,0-3.94,1,3,3,0,0,0-1.48,2.58,2.67,2.67,0,0,0,.92,2.12A3.67,3.67,0,0,0,668.57,261.41Zm3.07-21.34h2.22l0,.09-3.77,3.93h-1.62Z"/><path class="cls-47" d="M687.87,254.65a10.74,10.74,0,0,1,1.65-6.28,5.35,5.35,0,0,1,4.63-2.35,5.58,5.58,0,0,1,5,2.72l.18-2.42h1.59v21.13l2.47.2V269h-6.75v-1.35l2.47-.2v-6.9a5.56,5.56,0,0,1-2.09,1.83,6.44,6.44,0,0,1-2.92.64,5.46,5.46,0,0,1-4.6-2.2,9.5,9.5,0,0,1-1.65-5.86Zm1.83.31a8.46,8.46,0,0,0,1.18,4.75,4,4,0,0,0,3.58,1.78,5.09,5.09,0,0,0,2.86-.77,5.27,5.27,0,0,0,1.81-2.09v-8a6.11,6.11,0,0,0-1.77-2.21,4.6,4.6,0,0,0-2.87-.86,3.93,3.93,0,0,0-3.59,2,9.71,9.71,0,0,0-1.2,5.11Z"/><path class="cls-47" d="M717.21,260a5.54,5.54,0,0,1-2.11,2.23A6.14,6.14,0,0,1,712,263a5,5,0,0,1-4.05-1.76c-1-1.17-1.46-3-1.46-5.45v-7.95l-2-.19v-1.35h3.83v9.52a7.06,7.06,0,0,0,1,4.3,3.47,3.47,0,0,0,2.9,1.3,5.36,5.36,0,0,0,3.28-.91,4.77,4.77,0,0,0,1.71-2.51V247.86l-2.33-.19v-1.35H719v14.85l2.2.2v1.33h-3.79Z"/><path class="cls-47" d="M731.05,263a6.59,6.59,0,0,1-5.12-2.27,8.28,8.28,0,0,1-2-5.76v-.83a8.55,8.55,0,0,1,2-5.83,6.24,6.24,0,0,1,4.88-2.31,6.08,6.08,0,0,1,4.74,1.9,7.31,7.31,0,0,1,1.72,5.09v1.55H725.71V255a7.27,7.27,0,0,0,1.47,4.63,4.73,4.73,0,0,0,3.87,1.87,8,8,0,0,0,2.88-.47,5.69,5.69,0,0,0,2-1.35l.77,1.24a6.45,6.45,0,0,1-2.33,1.54A9,9,0,0,1,731.05,263Zm-.24-15.46a4.36,4.36,0,0,0-3.37,1.54,6.59,6.59,0,0,0-1.6,3.85l0,.08h9.6v-.46a5.23,5.23,0,0,0-1.26-3.57A4.27,4.27,0,0,0,730.81,247.56Z"/><path class="cls-47" d="M755.27,263a6.58,6.58,0,0,1-5.12-2.27,8.29,8.29,0,0,1-2-5.76v-.83a8.6,8.6,0,0,1,2-5.83A6.28,6.28,0,0,1,755,246a6.06,6.06,0,0,1,4.73,1.9,7.32,7.32,0,0,1,1.73,5.09v1.55H749.93V255a7.27,7.27,0,0,0,1.47,4.63,4.7,4.7,0,0,0,3.87,1.87,7.88,7.88,0,0,0,2.87-.47,5.64,5.64,0,0,0,2.05-1.35l.77,1.24a6.54,6.54,0,0,1-2.33,1.54A9,9,0,0,1,755.27,263ZM755,247.56a4.34,4.34,0,0,0-3.37,1.54,6.59,6.59,0,0,0-1.6,3.85l0,.08h9.6v-.46a5.23,5.23,0,0,0-1.26-3.57A4.28,4.28,0,0,0,755,247.56Z"/><path class="cls-47" d="M776.61,251.38h-1.48l-.21-2.32a4.67,4.67,0,0,0-1.72-1.1,6.54,6.54,0,0,0-2.39-.4,4.44,4.44,0,0,0-3,.86,2.58,2.58,0,0,0-1,2,2.37,2.37,0,0,0,.85,1.88,8.35,8.35,0,0,0,3.42,1.3,11.32,11.32,0,0,1,4.37,1.78,3.66,3.66,0,0,1,1.45,3.06,4,4,0,0,1-1.65,3.31,7.07,7.07,0,0,1-4.38,1.27,10.13,10.13,0,0,1-3.31-.51,7.86,7.86,0,0,1-2.58-1.43v-3.3h1.47l.25,2.33a4.24,4.24,0,0,0,1.84,1.05,8.15,8.15,0,0,0,2.33.33,5,5,0,0,0,3.1-.87,2.55,2.55,0,0,0,1.13-2.08,2.66,2.66,0,0,0-.94-2,7.82,7.82,0,0,0-3.42-1.41,11.46,11.46,0,0,1-4.33-1.68,3.44,3.44,0,0,1-1.42-3,3.94,3.94,0,0,1,1.59-3.17,6.45,6.45,0,0,1,4.19-1.29,9.44,9.44,0,0,1,3.3.55,6.81,6.81,0,0,1,2.43,1.49Z"/><path class="cls-47" d="M784.41,242.13v4.19H788v1.48h-3.6v10.68a3.44,3.44,0,0,0,.58,2.27,2,2,0,0,0,1.55.68,8.12,8.12,0,0,0,.86,0c.27,0,.6-.07,1-.13l.27,1.35a4.7,4.7,0,0,1-1.1.3,8.27,8.27,0,0,1-1.31.11,3.4,3.4,0,0,1-2.68-1.09,5.15,5.15,0,0,1-1-3.45V247.8h-2.82v-1.48h2.82v-4.19Z"/><path class="cls-47" d="M802.65,262.7c-.12-.56-.21-1-.26-1.44a9.9,9.9,0,0,1-.08-1.23,7.2,7.2,0,0,1-2.42,2.14,6.89,6.89,0,0,1-3.4.85,5.22,5.22,0,0,1-3.73-1.25,4.39,4.39,0,0,1-1.31-3.35,4.16,4.16,0,0,1,1.95-3.61,9.26,9.26,0,0,1,5.3-1.33h3.61v-2.16a3.51,3.51,0,0,0-1.12-2.76,4.66,4.66,0,0,0-3.16-1,8.13,8.13,0,0,0-2.49.37,5.52,5.52,0,0,0-1.88,1l-.16,2.19H792V248a9.46,9.46,0,0,1,2.72-1.43,10.35,10.35,0,0,1,3.37-.54,6.58,6.58,0,0,1,4.36,1.38,4.84,4.84,0,0,1,1.65,3.95v8c0,.33,0,.65,0,1a6.52,6.52,0,0,0,.1.9l1.63.11v1.33Zm-6-1.29a6.51,6.51,0,0,0,3.47-.91,5.27,5.27,0,0,0,2.16-2.34v-3.29h-3.64a6.77,6.77,0,0,0-3.95,1,3,3,0,0,0-1.47,2.58,2.7,2.7,0,0,0,.91,2.12A3.67,3.67,0,0,0,796.68,261.41Z"/><path class="cls-47" d="M808.05,247.67v-1.35h4.07l.17,2.71a5.69,5.69,0,0,1,2.1-2.22,6,6,0,0,1,3.14-.79,5.18,5.18,0,0,1,3.13.91,5,5,0,0,1,1.8,2.8,6.44,6.44,0,0,1,2.11-2.72,5.57,5.57,0,0,1,3.34-1,4.94,4.94,0,0,1,4.05,1.74q1.42,1.74,1.43,5.39v8l2.47.21v1.33h-6.77v-1.33l2.47-.21v-8c0-2-.36-3.45-1.07-4.28a3.7,3.7,0,0,0-3-1.25,4.06,4.06,0,0,0-3.27,1.35,6.47,6.47,0,0,0-1.41,3.44,1.55,1.55,0,0,0,0,.22c0,.07,0,.16,0,.27v8.3l2.46.2v1.33h-6.75v-1.33l2.47-.2v-8.05a6.6,6.6,0,0,0-1.08-4.25,3.72,3.72,0,0,0-3-1.28,4.52,4.52,0,0,0-3.06,1,5.16,5.16,0,0,0-1.58,2.62v10l2.46.2v1.33h-6.75v-1.33l2.47-.2V247.86Z"/><path class="cls-47" d="M838,254.27a8.84,8.84,0,0,1,2-5.94,7.14,7.14,0,0,1,10.52,0,8.84,8.84,0,0,1,2,5.94v.5a8.85,8.85,0,0,1-2,5.94,7.16,7.16,0,0,1-10.53,0,8.81,8.81,0,0,1-2-5.94Zm1.81.5a7.78,7.78,0,0,0,1.44,4.78,4.72,4.72,0,0,0,4,1.94,4.68,4.68,0,0,0,4-1.94,7.78,7.78,0,0,0,1.44-4.78v-.5a7.82,7.82,0,0,0-1.45-4.76,5,5,0,0,0-8,0,7.82,7.82,0,0,0-1.44,4.76Z"/><path class="cls-47" d="M867.27,251.38h-1.49l-.21-2.32a4.59,4.59,0,0,0-1.72-1.1,6.49,6.49,0,0,0-2.38-.4,4.44,4.44,0,0,0-3,.86,2.56,2.56,0,0,0-1,2,2.38,2.38,0,0,0,.86,1.88,8.36,8.36,0,0,0,3.41,1.3,11.3,11.3,0,0,1,4.38,1.78,3.66,3.66,0,0,1,1.45,3.06,4,4,0,0,1-1.66,3.31,7,7,0,0,1-4.38,1.27,10.22,10.22,0,0,1-3.31-.51,8.07,8.07,0,0,1-2.58-1.43v-3.3h1.47l.26,2.33a4.18,4.18,0,0,0,1.84,1.05,8.08,8.08,0,0,0,2.32.33,5,5,0,0,0,3.1-.87,2.54,2.54,0,0,0,1.14-2.08,2.67,2.67,0,0,0-.95-2,7.82,7.82,0,0,0-3.41-1.41,11.52,11.52,0,0,1-4.34-1.68,3.46,3.46,0,0,1-1.41-3,3.94,3.94,0,0,1,1.59-3.17,6.43,6.43,0,0,1,4.19-1.29,9.35,9.35,0,0,1,3.29.55,6.72,6.72,0,0,1,2.43,1.49Z"/><path class="cls-47" d="M878.32,261.37l2.46-.2V247.86l-2.46-.19v-1.35h4.27v14.85l2.46.2v1.33h-6.73Zm4.27-19.74h-1.81v-2.55h1.81Z"/><path class="cls-47" d="M887.76,261.37l2.47-.2V247.86l-2.47-.19v-1.35h4.07l.17,2.86a5.83,5.83,0,0,1,2.13-2.34,5.92,5.92,0,0,1,3.17-.82,5,5,0,0,1,4.06,1.63,7.71,7.71,0,0,1,1.39,5.07v8.45l2.46.2v1.33h-6.75v-1.33l2.47-.2v-8.43a5.92,5.92,0,0,0-1-4,3.81,3.81,0,0,0-3-1.17,4.69,4.69,0,0,0-3.11,1,5.58,5.58,0,0,0-1.73,2.67v9.9l2.46.2v1.33h-6.75Z"/><path class="cls-47" d="M919.29,260.34a5.61,5.61,0,0,1-2.1,2,6.33,6.33,0,0,1-3,.7,5.43,5.43,0,0,1-4.59-2.2,9.44,9.44,0,0,1-1.66-5.86v-.31a10.66,10.66,0,0,1,1.66-6.28,5.32,5.32,0,0,1,4.62-2.35,5.63,5.63,0,0,1,5.06,2.77v-8.16l-2.47-.2v-1.35h4.28v22.09l2.47.2v1.33h-4.09ZM909.74,255a8.34,8.34,0,0,0,1.19,4.73,4,4,0,0,0,3.58,1.75,5.13,5.13,0,0,0,2.91-.78,5.35,5.35,0,0,0,1.83-2.17v-7.75a5.74,5.74,0,0,0-1.75-2.27,4.76,4.76,0,0,0-3-.88,4,4,0,0,0-3.6,2,9.67,9.67,0,0,0-1.2,5.1Z"/><path class="cls-47" d="M926.32,254.27a8.84,8.84,0,0,1,2-5.94,7.14,7.14,0,0,1,10.52,0,8.84,8.84,0,0,1,2,5.94v.5a8.85,8.85,0,0,1-2,5.94,7.16,7.16,0,0,1-10.53,0,8.81,8.81,0,0,1-2-5.94Zm1.81.5a7.78,7.78,0,0,0,1.44,4.78,4.72,4.72,0,0,0,4,1.94,4.68,4.68,0,0,0,4-1.94,7.84,7.84,0,0,0,1.43-4.78v-.5a7.82,7.82,0,0,0-1.44-4.76,5,5,0,0,0-8,0,7.82,7.82,0,0,0-1.44,4.76Z"/><path class="cls-47" d="M946.39,262a6.89,6.89,0,0,1-.57,2.73,6.69,6.69,0,0,1-1.55,2.25l-1.08-.78a7.52,7.52,0,0,0,1-2,6.52,6.52,0,0,0,.35-2.18v-2.15h1.8Z"/><path class="cls-47" d="M964.44,263a6.57,6.57,0,0,1-5.11-2.27,8.29,8.29,0,0,1-2-5.76v-.83a8.55,8.55,0,0,1,2-5.83A6.27,6.27,0,0,1,964.2,246a6.07,6.07,0,0,1,4.74,1.9,7.32,7.32,0,0,1,1.73,5.09v1.55H959.1V255a7.22,7.22,0,0,0,1.48,4.63,4.7,4.7,0,0,0,3.86,1.87,8,8,0,0,0,2.88-.47,5.52,5.52,0,0,0,2-1.35l.78,1.24a6.58,6.58,0,0,1-2.34,1.54A8.88,8.88,0,0,1,964.44,263Zm-.24-15.46a4.37,4.37,0,0,0-3.37,1.54,6.58,6.58,0,0,0-1.59,3.85l0,.08h9.59v-.46a5.22,5.22,0,0,0-1.25-3.57A4.3,4.3,0,0,0,964.2,247.56Z"/><path class="cls-47" d="M985.94,260a5.67,5.67,0,0,1-2.11,2.23,6.2,6.2,0,0,1-3.16.79,5,5,0,0,1-4-1.76q-1.46-1.75-1.46-5.45v-7.95l-2-.19v-1.35H977v9.52a7.06,7.06,0,0,0,1,4.3,3.48,3.48,0,0,0,2.9,1.3,5.34,5.34,0,0,0,3.28-.91,4.78,4.78,0,0,0,1.72-2.51V247.86l-2.33-.19v-1.35h4.14v14.85l2.2.2v1.33H986.1Z"/><path class="cls-47" d="M995.19,262a6.89,6.89,0,0,1-.57,2.73,6.69,6.69,0,0,1-1.55,2.25l-1.08-.78a7.87,7.87,0,0,0,1.06-2,6.78,6.78,0,0,0,.34-2.18v-2.15h1.8Z"/><path class="cls-47" d="M1005.63,247.67v-1.35h4.07l.17,2.71a5.69,5.69,0,0,1,2.1-2.22,6,6,0,0,1,3.14-.79,5.18,5.18,0,0,1,3.13.91,5,5,0,0,1,1.8,2.8,6.44,6.44,0,0,1,2.11-2.72,5.57,5.57,0,0,1,3.34-1,4.94,4.94,0,0,1,4,1.74q1.43,1.74,1.43,5.39v8l2.47.21v1.33h-6.77v-1.33l2.47-.21v-8c0-2-.36-3.45-1.07-4.28a3.7,3.7,0,0,0-3-1.25,4,4,0,0,0-3.26,1.35,6.4,6.4,0,0,0-1.42,3.44,1.55,1.55,0,0,0,0,.22c0,.07,0,.16,0,.27v8.3l2.46.2v1.33h-6.75v-1.33l2.47-.2v-8.05a6.6,6.6,0,0,0-1.08-4.25,3.72,3.72,0,0,0-3-1.28,4.52,4.52,0,0,0-3.06,1,5.16,5.16,0,0,0-1.58,2.62v10l2.46.2v1.33h-6.75v-1.33l2.47-.2V247.86Z"/><path class="cls-47" d="M1047,262.7a13.62,13.62,0,0,1-.26-1.44,9.9,9.9,0,0,1-.08-1.23,7.2,7.2,0,0,1-2.42,2.14,6.89,6.89,0,0,1-3.4.85,5.22,5.22,0,0,1-3.73-1.25,4.36,4.36,0,0,1-1.32-3.35,4.15,4.15,0,0,1,2-3.61,9.23,9.23,0,0,1,5.29-1.33h3.62v-2.16a3.48,3.48,0,0,0-1.13-2.76,4.61,4.61,0,0,0-3.15-1,8.13,8.13,0,0,0-2.49.37,5.67,5.67,0,0,0-1.89,1l-.15,2.19h-1.5l0-3.14a9.46,9.46,0,0,1,2.72-1.43,10.29,10.29,0,0,1,3.36-.54,6.57,6.57,0,0,1,4.36,1.38,4.84,4.84,0,0,1,1.65,3.95v8q0,.5,0,1a5.28,5.28,0,0,0,.1.9l1.63.11v1.33Zm-6-1.29a6.53,6.53,0,0,0,3.47-.91,5.27,5.27,0,0,0,2.16-2.34v-3.29H1043a6.76,6.76,0,0,0-3.94,1,3,3,0,0,0-1.47,2.58,2.7,2.7,0,0,0,.91,2.12A3.67,3.67,0,0,0,1041,261.41Z"/><path class="cls-47" d="M1052.66,261.37l2.47-.2V247.86l-2.47-.19v-1.35h4.27v14.85l2.47.2v1.33h-6.74Zm4.27-19.74h-1.8v-2.55h1.8Z"/><path class="cls-47" d="M1074.32,251.38h-1.48l-.21-2.32a4.67,4.67,0,0,0-1.72-1.1,6.54,6.54,0,0,0-2.39-.4,4.44,4.44,0,0,0-3,.86,2.58,2.58,0,0,0-1,2,2.37,2.37,0,0,0,.85,1.88,8.35,8.35,0,0,0,3.42,1.3,11.25,11.25,0,0,1,4.37,1.78,3.67,3.67,0,0,1,1.46,3.06,4,4,0,0,1-1.66,3.31,7.07,7.07,0,0,1-4.38,1.27,10.17,10.17,0,0,1-3.31-.51,7.86,7.86,0,0,1-2.58-1.43v-3.3h1.47l.25,2.33a4.24,4.24,0,0,0,1.84,1.05,8.15,8.15,0,0,0,2.33.33,5,5,0,0,0,3.1-.87,2.53,2.53,0,0,0,1.13-2.08,2.66,2.66,0,0,0-.94-2,7.82,7.82,0,0,0-3.41-1.41,11.45,11.45,0,0,1-4.34-1.68,3.44,3.44,0,0,1-1.42-3,3.94,3.94,0,0,1,1.59-3.17,6.45,6.45,0,0,1,4.19-1.29,9.4,9.4,0,0,1,3.3.55,6.81,6.81,0,0,1,2.43,1.49Z"/><path class="cls-47" d="M569.54,277.86v1.35l-2.47.19v14.25a6.47,6.47,0,0,1-1.79,4.79,6.33,6.33,0,0,1-4.64,1.78,7.09,7.09,0,0,1-4.9-1.61,5.72,5.72,0,0,1-1.73-4.69l0-.09h1.7a4.81,4.81,0,0,0,1.27,3.62,5,5,0,0,0,3.63,1.24,4.37,4.37,0,0,0,3.31-1.37,5.1,5.1,0,0,0,1.31-3.67V279.4l-2.47-.19v-1.35h6.75Z"/><path class="cls-47" d="M572.19,291.47a8.84,8.84,0,0,1,2-5.94,7.14,7.14,0,0,1,10.52,0,8.84,8.84,0,0,1,2,5.94v.5a8.8,8.8,0,0,1-2,5.94,7.15,7.15,0,0,1-10.53,0,8.81,8.81,0,0,1-2-5.94Zm1.82.5a7.79,7.79,0,0,0,1.43,4.78,4.73,4.73,0,0,0,4,1.94,4.67,4.67,0,0,0,4-1.94,7.8,7.8,0,0,0,1.44-4.78v-.5a7.71,7.71,0,0,0-1.45-4.75,5,5,0,0,0-8,0,7.76,7.76,0,0,0-1.43,4.75Z"/><path class="cls-47" d="M601.51,288.58H600l-.22-2.32a4.55,4.55,0,0,0-1.71-1.1,6.58,6.58,0,0,0-2.39-.4,4.44,4.44,0,0,0-3,.86,2.58,2.58,0,0,0-1,2,2.38,2.38,0,0,0,.85,1.88,8.21,8.21,0,0,0,3.41,1.3,11.3,11.3,0,0,1,4.38,1.78,3.66,3.66,0,0,1,1.45,3.07,3.94,3.94,0,0,1-1.66,3.3,7,7,0,0,1-4.38,1.27,10.11,10.11,0,0,1-3.3-.51,7.83,7.83,0,0,1-2.59-1.43V295h1.47l.26,2.33a4.09,4.09,0,0,0,1.84,1.05,8.13,8.13,0,0,0,2.32.33,5.08,5.08,0,0,0,3.11-.86,2.59,2.59,0,0,0,1.13-2.09,2.67,2.67,0,0,0-.95-2,7.66,7.66,0,0,0-3.41-1.4,11.67,11.67,0,0,1-4.34-1.69,3.47,3.47,0,0,1-1.41-2.95,4,4,0,0,1,1.59-3.17,6.45,6.45,0,0,1,4.19-1.29,9.35,9.35,0,0,1,3.29.55,6.64,6.64,0,0,1,2.43,1.49Z"/><path class="cls-47" d="M612.36,300.22a6.56,6.56,0,0,1-5.11-2.27,8.24,8.24,0,0,1-2-5.76v-.83a8.55,8.55,0,0,1,2-5.83,6.26,6.26,0,0,1,4.88-2.31,6,6,0,0,1,4.74,1.91,7.27,7.27,0,0,1,1.72,5.08v1.54H607v.44a7.27,7.27,0,0,0,1.47,4.63,4.7,4.7,0,0,0,3.87,1.87,8,8,0,0,0,2.88-.47,5.6,5.6,0,0,0,2-1.35l.77,1.24a6.45,6.45,0,0,1-2.33,1.54A9,9,0,0,1,612.36,300.22Zm-.24-15.46a4.33,4.33,0,0,0-3.37,1.54,6.65,6.65,0,0,0-1.6,3.85l0,.08h9.6v-.46a5.23,5.23,0,0,0-1.26-3.57A4.27,4.27,0,0,0,612.12,284.76Zm1.71-7.49h2.22l.05.09-3.77,3.94h-1.62Z"/><path class="cls-47" d="M646.51,284.76H645.1l-.26-3.34a6.3,6.3,0,0,0-2.28-1.69,7.74,7.74,0,0,0-3.26-.64,7.16,7.16,0,0,0-5.87,2.68,10.69,10.69,0,0,0-2.18,6.94V289a10.82,10.82,0,0,0,2.16,7,6.91,6.91,0,0,0,5.67,2.7,8.56,8.56,0,0,0,3.38-.65,6.35,6.35,0,0,0,2.38-1.68l.26-3.35h1.41v3.88a7.82,7.82,0,0,1-3,2.37,10,10,0,0,1-4.42,1,8.71,8.71,0,0,1-6.93-3.14,11.93,11.93,0,0,1-2.7-8.05v-.29a12,12,0,0,1,2.69-8.06,8.81,8.81,0,0,1,7-3.14,9.72,9.72,0,0,1,4.38,1,7.9,7.9,0,0,1,3,2.39Z"/><path class="cls-47" d="M661.09,299.9c-.12-.56-.21-1-.26-1.44a9.87,9.87,0,0,1-.08-1.22,7.29,7.29,0,0,1-2.42,2.13,6.89,6.89,0,0,1-3.4.85A5.26,5.26,0,0,1,651.2,299a4.43,4.43,0,0,1-1.31-3.36,4.16,4.16,0,0,1,2-3.61,9.26,9.26,0,0,1,5.3-1.33h3.61v-2.16a3.49,3.49,0,0,0-1.12-2.76,4.61,4.61,0,0,0-3.16-1,8.13,8.13,0,0,0-2.49.37,5.7,5.7,0,0,0-1.88,1l-.16,2.19h-1.49v-3.14a9.46,9.46,0,0,1,2.72-1.43,10.35,10.35,0,0,1,3.37-.54,6.58,6.58,0,0,1,4.36,1.38,4.87,4.87,0,0,1,1.65,3.95v8.05c0,.33,0,.65,0,1a6.52,6.52,0,0,0,.1.9l1.63.11v1.33Zm-6-1.29a6.53,6.53,0,0,0,3.47-.91,5.27,5.27,0,0,0,2.16-2.34v-3.29h-3.64a6.84,6.84,0,0,0-4,1,3.07,3.07,0,0,0-1.47,2.59,2.7,2.7,0,0,0,.91,2.12A3.67,3.67,0,0,0,655.12,298.61Z"/><path class="cls-47" d="M670.8,283.52l.23,2.73v.19a5.87,5.87,0,0,1,1.9-2.37,4.79,4.79,0,0,1,2.86-.85,4.91,4.91,0,0,1,.67,0,4.46,4.46,0,0,1,.54.12l-.25,1.69-1.34-.09a4.11,4.11,0,0,0-2.81,1,5.29,5.29,0,0,0-1.57,2.64v9.78l2.47.2v1.33h-6.74v-1.33l2.47-.2v-13.3l-2.47-.2v-1.35h4Z"/><path class="cls-47" d="M678.68,277.63v-1.34h4.26v22.08l2.47.2v1.33h-6.73v-1.33l2.46-.2V277.83Z"/><path class="cls-47" d="M688,291.47a8.84,8.84,0,0,1,2-5.94,7.14,7.14,0,0,1,10.52,0,8.8,8.8,0,0,1,2,5.94v.5a8.81,8.81,0,0,1-2,5.94,6.55,6.55,0,0,1-5.24,2.31,6.64,6.64,0,0,1-5.29-2.31,8.81,8.81,0,0,1-2-5.94Zm1.82.5a7.86,7.86,0,0,0,1.43,4.78,4.73,4.73,0,0,0,4,1.94,4.67,4.67,0,0,0,4-1.94,7.8,7.8,0,0,0,1.44-4.78v-.5a7.71,7.71,0,0,0-1.45-4.75,5,5,0,0,0-8,0,7.83,7.83,0,0,0-1.43,4.75Z"/><path class="cls-47" d="M717.29,288.58h-1.48l-.22-2.32a4.55,4.55,0,0,0-1.71-1.1,6.54,6.54,0,0,0-2.39-.4,4.44,4.44,0,0,0-3,.86,2.58,2.58,0,0,0-1,2,2.38,2.38,0,0,0,.85,1.88,8.21,8.21,0,0,0,3.42,1.3,11.32,11.32,0,0,1,4.37,1.78,3.66,3.66,0,0,1,1.45,3.07A4,4,0,0,1,716,299a7,7,0,0,1-4.39,1.27,10.11,10.11,0,0,1-3.3-.51,7.69,7.69,0,0,1-2.58-1.43V295h1.46l.26,2.33a4.14,4.14,0,0,0,1.84,1.05,8.13,8.13,0,0,0,2.32.33,5.06,5.06,0,0,0,3.11-.86,2.59,2.59,0,0,0,1.13-2.09,2.66,2.66,0,0,0-.94-2,7.71,7.71,0,0,0-3.42-1.4,11.54,11.54,0,0,1-4.33-1.69,3.46,3.46,0,0,1-1.42-2.95,4,4,0,0,1,1.59-3.17,6.45,6.45,0,0,1,4.19-1.29,9.44,9.44,0,0,1,3.3.55,6.68,6.68,0,0,1,2.42,1.49Z"/><path class="cls-47" d="M735.68,300.22a6.59,6.59,0,0,1-5.12-2.27,8.28,8.28,0,0,1-2-5.76v-.83a8.55,8.55,0,0,1,2-5.83,6.24,6.24,0,0,1,4.88-2.31,6,6,0,0,1,4.74,1.91,7.27,7.27,0,0,1,1.72,5.08v1.54H730.34v.44a7.27,7.27,0,0,0,1.47,4.63,4.7,4.7,0,0,0,3.87,1.87,8,8,0,0,0,2.88-.47,5.6,5.6,0,0,0,2-1.35l.77,1.24a6.45,6.45,0,0,1-2.33,1.54A9,9,0,0,1,735.68,300.22Zm-.24-15.46a4.33,4.33,0,0,0-3.37,1.54,6.65,6.65,0,0,0-1.6,3.85l0,.08h9.6v-.46a5.23,5.23,0,0,0-1.26-3.57A4.27,4.27,0,0,0,735.44,284.76Z"/><path class="cls-47" d="M759.58,298.57l1.62-.12L769,277.86h1.71l7.75,20.59,1.65.12v1.33H774.7v-1.33l1.93-.15-1.82-4.94h-9.9l-1.83,4.94,1.92.15v1.33h-5.42Zm5.93-6.71h8.71l-4.29-11.65h-.09Z"/><path class="cls-47" d="M782.36,298.57l2.47-.2v-13.3l-2.47-.2v-1.35h4.07l.17,2.86a5.64,5.64,0,0,1,5.3-3.16,5.07,5.07,0,0,1,4.06,1.62,7.76,7.76,0,0,1,1.39,5.08v8.45l2.47.2v1.33h-6.76v-1.33l2.47-.2v-8.43a5.93,5.93,0,0,0-1-4,3.81,3.81,0,0,0-3-1.17,4.69,4.69,0,0,0-3.11,1,5.58,5.58,0,0,0-1.73,2.67v9.9l2.46.2v1.33h-6.75Z"/><path class="cls-47" d="M814,299.9c-.12-.56-.21-1-.26-1.44a9.87,9.87,0,0,1-.08-1.22,7.29,7.29,0,0,1-2.42,2.13,6.89,6.89,0,0,1-3.4.85,5.26,5.26,0,0,1-3.73-1.24,4.43,4.43,0,0,1-1.31-3.36,4.16,4.16,0,0,1,2-3.61,9.26,9.26,0,0,1,5.3-1.33h3.61v-2.16a3.49,3.49,0,0,0-1.12-2.76,4.61,4.61,0,0,0-3.16-1,8.13,8.13,0,0,0-2.49.37,5.7,5.7,0,0,0-1.88,1l-.15,2.19h-1.5v-3.14a9.46,9.46,0,0,1,2.72-1.43,10.35,10.35,0,0,1,3.37-.54,6.58,6.58,0,0,1,4.36,1.38,4.84,4.84,0,0,1,1.65,3.95v8.05c0,.33,0,.65,0,1a6.52,6.52,0,0,0,.1.9l1.63.11v1.33Zm-6-1.29a6.51,6.51,0,0,0,3.47-.91,5.27,5.27,0,0,0,2.16-2.34v-3.29H810a6.84,6.84,0,0,0-4,1,3.07,3.07,0,0,0-1.47,2.59,2.7,2.7,0,0,0,.91,2.12A3.67,3.67,0,0,0,808,298.61Z"/><path class="cls-47" d="M848.81,280.52l-.09,0-8.19,19.41h-1.25l-8.18-19.32-.09,0,.17,9.57v8.2l2.47.2v1.33h-6.74v-1.33l2.47-.2v-19l-2.47-.19v-1.35h4.84l8.1,19.4h.09l8.13-19.4h4.86v1.35l-2.47.19v19l2.47.2v1.33h-6.74v-1.33l2.47-.2v-8.2Z"/><path class="cls-47" d="M866.78,299.9c-.12-.56-.21-1-.26-1.44a9.87,9.87,0,0,1-.07-1.22,7.49,7.49,0,0,1-2.42,2.13,6.93,6.93,0,0,1-3.41.85A5.22,5.22,0,0,1,856.9,299a4.4,4.4,0,0,1-1.32-3.36,4.16,4.16,0,0,1,1.95-3.61,9.26,9.26,0,0,1,5.3-1.33h3.62v-2.16a3.5,3.5,0,0,0-1.13-2.76,4.57,4.57,0,0,0-3.16-1,8.13,8.13,0,0,0-2.49.37,5.7,5.7,0,0,0-1.88,1l-.15,2.19h-1.5v-3.14a9.6,9.6,0,0,1,2.72-1.43,10.39,10.39,0,0,1,3.37-.54,6.57,6.57,0,0,1,4.36,1.38,4.84,4.84,0,0,1,1.65,3.95v8.05c0,.33,0,.65,0,1a8.54,8.54,0,0,0,.1.9l1.63.11v1.33Zm-6-1.29a6.5,6.5,0,0,0,3.46-.91,5.36,5.36,0,0,0,2.17-2.34v-3.29H862.8a6.79,6.79,0,0,0-3.94,1,3.06,3.06,0,0,0-1.48,2.59,2.71,2.71,0,0,0,.92,2.12A3.67,3.67,0,0,0,860.82,298.61Z"/><path class="cls-47" d="M876.5,283.52l.22,2.73v.19a5.81,5.81,0,0,1,1.91-2.37,4.78,4.78,0,0,1,2.85-.85,4.91,4.91,0,0,1,.67,0,3.73,3.73,0,0,1,.54.12l-.24,1.69L881.1,285a4.11,4.11,0,0,0-2.81,1,5.36,5.36,0,0,0-1.57,2.64v9.78l2.47.2v1.33h-6.73v-1.33l2.46-.2v-13.3l-2.46-.2v-1.35h4Z"/><path class="cls-47" d="M884.92,298.57l2.46-.2v-13.3l-2.46-.2v-1.35h4.26v14.85l2.47.2v1.33h-6.73Zm4.26-19.74h-1.8v-2.54h1.8Z"/><path class="cls-47" d="M906,299.9c-.12-.56-.21-1-.26-1.44a9.87,9.87,0,0,1-.07-1.22,7.49,7.49,0,0,1-2.42,2.13,6.93,6.93,0,0,1-3.41.85,5.22,5.22,0,0,1-3.72-1.24,4.4,4.4,0,0,1-1.32-3.36,4.16,4.16,0,0,1,2-3.61,9.26,9.26,0,0,1,5.3-1.33h3.62v-2.16a3.5,3.5,0,0,0-1.13-2.76,4.57,4.57,0,0,0-3.16-1,8.13,8.13,0,0,0-2.49.37,5.7,5.7,0,0,0-1.88,1l-.15,2.19h-1.5v-3.14a9.6,9.6,0,0,1,2.72-1.43,10.39,10.39,0,0,1,3.37-.54,6.57,6.57,0,0,1,4.36,1.38,4.84,4.84,0,0,1,1.65,3.95v8.05c0,.33,0,.65,0,1a8.54,8.54,0,0,0,.1.9l1.63.11v1.33Zm-6-1.29a6.5,6.5,0,0,0,3.46-.91,5.36,5.36,0,0,0,2.17-2.34v-3.29H902a6.79,6.79,0,0,0-3.94,1,3.06,3.06,0,0,0-1.48,2.59,2.71,2.71,0,0,0,.92,2.12A3.67,3.67,0,0,0,900,298.61Z"/><path class="cls-47" d="M914.43,299.17a6.89,6.89,0,0,1-.57,2.73,6.42,6.42,0,0,1-1.55,2.25l-1.07-.78a8.15,8.15,0,0,0,1-2,6.52,6.52,0,0,0,.34-2.18v-2.15h1.8Z"/><path class="cls-47" d="M924.88,284.87v-1.35H929l.16,2.71a5.82,5.82,0,0,1,2.11-2.23,6,6,0,0,1,3.13-.78,4.72,4.72,0,0,1,4.94,3.71,6.29,6.29,0,0,1,2.11-2.72,5.52,5.52,0,0,1,3.33-1,4.94,4.94,0,0,1,4,1.74c1,1.16,1.43,3,1.43,5.39v8l2.47.22v1.33h-6.76v-1.33l2.46-.22v-8c0-2-.35-3.45-1.06-4.28a3.74,3.74,0,0,0-3-1.25,4,4,0,0,0-3.26,1.35,6.55,6.55,0,0,0-1.42,3.44c0,.08,0,.15,0,.22a2.18,2.18,0,0,1,0,.28v8.29l2.47.2v1.33H935.4v-1.33l2.46-.2v-8.05a6.6,6.6,0,0,0-1.08-4.25,3.69,3.69,0,0,0-3-1.28,4.53,4.53,0,0,0-3.07,1,5.19,5.19,0,0,0-1.58,2.63v10l2.47.2v1.33h-6.75v-1.33l2.46-.2v-13.3Z"/><path class="cls-47" d="M954.8,298.57l2.47-.2v-13.3l-2.47-.2v-1.35h4.27v14.85l2.47.2v1.33H954.8Zm4.27-19.74h-1.8v-2.54h1.8Z"/><path class="cls-47" d="M964.25,298.57l2.46-.2v-13.3l-2.46-.2v-1.35h4.07l.16,2.86a5.64,5.64,0,0,1,5.3-3.16,5.06,5.06,0,0,1,4.06,1.62q1.39,1.64,1.39,5.08v8.45l2.47.2v1.33H975v-1.33l2.47-.2v-8.43a5.93,5.93,0,0,0-1.06-4,3.8,3.8,0,0,0-3-1.17,4.71,4.71,0,0,0-3.11,1,5.58,5.58,0,0,0-1.73,2.67v9.9l2.47.2v1.33h-6.75Z"/><path class="cls-47" d="M984,277.63v-1.34h4.26v10a5.87,5.87,0,0,1,5.36-3.1,5,5,0,0,1,4,1.6,7.52,7.52,0,0,1,1.38,5v8.57l2.47.2v1.33h-6.75v-1.33l2.46-.2v-8.6a5.63,5.63,0,0,0-1-3.82,3.73,3.73,0,0,0-2.9-1.16,4.92,4.92,0,0,0-3.11,1,5.72,5.72,0,0,0-1.84,2.59v10l2.47.2v1.33H984v-1.33l2.46-.2V277.83Z"/><path class="cls-47" d="M1015.5,299.9c-.12-.56-.21-1-.26-1.44a9.87,9.87,0,0,1-.07-1.22,7.49,7.49,0,0,1-2.42,2.13,6.93,6.93,0,0,1-3.41.85,5.22,5.22,0,0,1-3.72-1.24,4.4,4.4,0,0,1-1.32-3.36,4.16,4.16,0,0,1,2-3.61,9.26,9.26,0,0,1,5.3-1.33h3.62v-2.16a3.5,3.5,0,0,0-1.13-2.76,4.57,4.57,0,0,0-3.16-1,8.13,8.13,0,0,0-2.49.37,5.7,5.7,0,0,0-1.88,1l-.15,2.19h-1.5v-3.14a9.6,9.6,0,0,1,2.72-1.43,10.39,10.39,0,0,1,3.37-.54,6.57,6.57,0,0,1,4.36,1.38,4.84,4.84,0,0,1,1.65,3.95v8.05c0,.33,0,.65,0,1a8.54,8.54,0,0,0,.1.9l1.63.11v1.33Zm-6-1.29a6.5,6.5,0,0,0,3.46-.91,5.36,5.36,0,0,0,2.17-2.34v-3.29h-3.65a6.79,6.79,0,0,0-3.94,1,3.06,3.06,0,0,0-1.48,2.59,2.71,2.71,0,0,0,.92,2.12A3.67,3.67,0,0,0,1009.54,298.61Z"/><path class="cls-47" d="M1033.18,288.58h-1.48l-.22-2.32a4.55,4.55,0,0,0-1.71-1.1,6.54,6.54,0,0,0-2.39-.4,4.44,4.44,0,0,0-3,.86,2.58,2.58,0,0,0-1,2,2.38,2.38,0,0,0,.85,1.88,8.21,8.21,0,0,0,3.41,1.3,11.3,11.3,0,0,1,4.38,1.78,3.66,3.66,0,0,1,1.45,3.07,4,4,0,0,1-1.65,3.3,7,7,0,0,1-4.39,1.27,10.11,10.11,0,0,1-3.3-.51,7.69,7.69,0,0,1-2.58-1.43V295h1.46l.26,2.33a4.14,4.14,0,0,0,1.84,1.05,8.13,8.13,0,0,0,2.32.33,5.06,5.06,0,0,0,3.11-.86,2.59,2.59,0,0,0,1.13-2.09,2.66,2.66,0,0,0-.94-2,7.77,7.77,0,0,0-3.42-1.4,11.54,11.54,0,0,1-4.33-1.69,3.46,3.46,0,0,1-1.42-2.95,4,4,0,0,1,1.59-3.17,6.45,6.45,0,0,1,4.19-1.29,9.35,9.35,0,0,1,3.29.55,6.64,6.64,0,0,1,2.43,1.49Z"/><path class="cls-47" d="M561.65,335.89a5.15,5.15,0,0,0,3.18-1,3.37,3.37,0,0,0,1.38-2.86h1.6l0,.09a4.49,4.49,0,0,1-1.8,3.8,6.77,6.77,0,0,1-4.39,1.53,6.23,6.23,0,0,1-5.16-2.3,9.15,9.15,0,0,1-1.83-5.89v-.64a9.13,9.13,0,0,1,1.83-5.87,6.19,6.19,0,0,1,5.15-2.3,8.33,8.33,0,0,1,3.46.71,6.7,6.7,0,0,1,2.56,1.94l.08,3.57h-1.55l-.28-2.91a5.32,5.32,0,0,0-1.81-1.29,6,6,0,0,0-2.46-.48,4.36,4.36,0,0,0-3.9,1.89,8.32,8.32,0,0,0-1.26,4.74v.64a8.47,8.47,0,0,0,1.25,4.78A4.4,4.4,0,0,0,561.65,335.89Z"/><path class="cls-47" d="M575.14,320.72l.23,2.73v.19a5.71,5.71,0,0,1,1.9-2.37,5.07,5.07,0,0,1,3.52-.8c.22,0,.4.07.54.11l-.24,1.7-1.35-.09a4.13,4.13,0,0,0-2.81,1,5.28,5.28,0,0,0-1.56,2.64v9.78l2.47.2v1.33H571.1v-1.33l2.47-.2V322.26l-2.47-.19v-1.35h4Z"/><path class="cls-47" d="M583.56,335.77l2.46-.2V322.26l-2.46-.19v-1.35h4.27v14.85l2.46.2v1.33h-6.73ZM587.83,316H586v-2.54h1.81Z"/><path class="cls-47" d="M604.64,337.1c-.12-.56-.2-1-.26-1.44s-.07-.81-.07-1.23a7.3,7.3,0,0,1-2.42,2.14,6.93,6.93,0,0,1-3.41.85,5.21,5.21,0,0,1-3.72-1.25,4.36,4.36,0,0,1-1.32-3.35,4.16,4.16,0,0,1,1.95-3.61,9.36,9.36,0,0,1,5.3-1.33h3.62v-2.16a3.52,3.52,0,0,0-1.13-2.76,4.61,4.61,0,0,0-3.15-1,8.13,8.13,0,0,0-2.49.37,5.75,5.75,0,0,0-1.89,1l-.15,2.19H594l0-3.14a9.4,9.4,0,0,1,2.71-1.43,10.39,10.39,0,0,1,3.37-.54,6.57,6.57,0,0,1,4.36,1.38,4.84,4.84,0,0,1,1.65,3.95v8.05c0,.33,0,.65,0,1a8.54,8.54,0,0,0,.1.9l1.64.11v1.33Zm-6-1.29a6.47,6.47,0,0,0,3.46-.91,5.3,5.3,0,0,0,2.17-2.34v-3.29h-3.65a6.73,6.73,0,0,0-3.94,1,3,3,0,0,0-1.48,2.58,2.71,2.71,0,0,0,.92,2.12A3.67,3.67,0,0,0,598.68,335.81Z"/><path class="cls-47" d="M610.11,335.77l2.46-.2V322.26l-2.46-.19v-1.35h4.07l.16,2.86a5.64,5.64,0,0,1,5.3-3.16,5,5,0,0,1,4.06,1.63q1.39,1.62,1.39,5.07v8.45l2.47.2v1.33h-6.75v-1.33l2.47-.2v-8.43a5.91,5.91,0,0,0-1.06-4,3.8,3.8,0,0,0-3-1.17,4.71,4.71,0,0,0-3.11,1,5.58,5.58,0,0,0-1.73,2.67v9.9l2.47.2v1.33h-6.75Z"/><path class="cls-47" d="M637.25,335.89a5.15,5.15,0,0,0,3.18-1A3.39,3.39,0,0,0,641.8,332h1.61l0,.09a4.52,4.52,0,0,1-1.81,3.8,6.76,6.76,0,0,1-4.38,1.53,6.23,6.23,0,0,1-5.16-2.3,9.1,9.1,0,0,1-1.84-5.89v-.64a9.08,9.08,0,0,1,1.84-5.87,6.17,6.17,0,0,1,5.14-2.3,8.41,8.41,0,0,1,3.47.71,6.78,6.78,0,0,1,2.56,1.94l.07,3.57h-1.54l-.29-2.91a5.23,5.23,0,0,0-1.81-1.29,6,6,0,0,0-2.46-.48,4.38,4.38,0,0,0-3.9,1.89,8.32,8.32,0,0,0-1.26,4.74v.64a8.39,8.39,0,0,0,1.26,4.78A4.37,4.37,0,0,0,637.25,335.89Zm.47,1.35-.17,1a3.62,3.62,0,0,1,1.93.74,2.24,2.24,0,0,1,.73,1.85A2.59,2.59,0,0,1,639,343a6.08,6.08,0,0,1-3.42.82l-.11-1.18a5.06,5.06,0,0,0,2.28-.46,1.46,1.46,0,0,0,.93-1.36,1.26,1.26,0,0,0-.62-1.2,5.88,5.88,0,0,0-2.2-.46l.43-1.92Z"/><path class="cls-47" d="M658.12,337.1c-.12-.56-.21-1-.26-1.44a9.92,9.92,0,0,1-.07-1.23,7.4,7.4,0,0,1-2.42,2.14,6.93,6.93,0,0,1-3.41.85,5.18,5.18,0,0,1-3.72-1.25,4.36,4.36,0,0,1-1.32-3.35,4.16,4.16,0,0,1,2-3.61,9.34,9.34,0,0,1,5.3-1.33h3.62v-2.16a3.52,3.52,0,0,0-1.13-2.76,4.62,4.62,0,0,0-3.16-1,8.13,8.13,0,0,0-2.49.37,5.7,5.7,0,0,0-1.88,1l-.15,2.19h-1.5v-3.14a9.6,9.6,0,0,1,2.72-1.43,10.39,10.39,0,0,1,3.37-.54,6.57,6.57,0,0,1,4.36,1.38,4.84,4.84,0,0,1,1.65,3.95v8.05c0,.33,0,.65,0,1a8.54,8.54,0,0,0,.1.9l1.63.11v1.33Zm-6-1.29a6.5,6.5,0,0,0,3.46-.91,5.36,5.36,0,0,0,2.17-2.34v-3.29h-3.65a6.71,6.71,0,0,0-3.94,1,3,3,0,0,0-1.48,2.58,2.71,2.71,0,0,0,.92,2.12A3.67,3.67,0,0,0,652.16,335.81Z"/><path class="cls-47" d="M675.8,325.78h-1.48l-.22-2.32a4.55,4.55,0,0,0-1.71-1.1A6.54,6.54,0,0,0,670,322a4.44,4.44,0,0,0-3,.86,2.58,2.58,0,0,0-1,2,2.37,2.37,0,0,0,.85,1.88,8.36,8.36,0,0,0,3.41,1.3,11.3,11.3,0,0,1,4.38,1.78,3.66,3.66,0,0,1,1.45,3.06,4,4,0,0,1-1.65,3.31,7,7,0,0,1-4.39,1.27,10.11,10.11,0,0,1-3.3-.51,7.86,7.86,0,0,1-2.58-1.43v-3.3h1.46l.26,2.33a4.14,4.14,0,0,0,1.84,1.05,8.13,8.13,0,0,0,2.32.33,5,5,0,0,0,3.11-.87,2.55,2.55,0,0,0,1.13-2.08,2.66,2.66,0,0,0-.94-2,7.88,7.88,0,0,0-3.42-1.41,11.39,11.39,0,0,1-4.33-1.68,3.44,3.44,0,0,1-1.42-2.95,4,4,0,0,1,1.59-3.17,6.45,6.45,0,0,1,4.19-1.29,9.44,9.44,0,0,1,3.3.55,6.68,6.68,0,0,1,2.42,1.49Z"/><path class="cls-47" d="M682.07,336.37a6.89,6.89,0,0,1-.57,2.73,6.6,6.6,0,0,1-1.55,2.25l-1.08-.78a7.52,7.52,0,0,0,1-2,6.52,6.52,0,0,0,.35-2.18v-2.15h1.8Z"/><path class="cls-47" d="M692.42,322.07v-1.35h4l.23,2.54a6,6,0,0,1,2.12-2.1,6.08,6.08,0,0,1,3-.74,5.34,5.34,0,0,1,4.62,2.35,10.66,10.66,0,0,1,1.66,6.28v.31a9.45,9.45,0,0,1-1.66,5.87,5.45,5.45,0,0,1-4.59,2.19,6.56,6.56,0,0,1-3-.66,5.51,5.51,0,0,1-2.11-1.87v7l2.47.2v1.35h-6.74v-1.35l2.47-.2V322.26Zm13.83,7A9.38,9.38,0,0,0,705,324a4,4,0,0,0-3.63-2,4.76,4.76,0,0,0-3,.87,5.27,5.27,0,0,0-1.72,2.27V333a5,5,0,0,0,1.79,2.12,5.26,5.26,0,0,0,2.93.77A4.1,4.1,0,0,0,705,334.1a8.21,8.21,0,0,0,1.23-4.74Z"/><path class="cls-47" d="M722.33,337.1c-.12-.56-.21-1-.26-1.44a9.92,9.92,0,0,1-.07-1.23,7.4,7.4,0,0,1-2.42,2.14,6.93,6.93,0,0,1-3.41.85,5.18,5.18,0,0,1-3.72-1.25,4.36,4.36,0,0,1-1.32-3.35,4.16,4.16,0,0,1,2-3.61,9.34,9.34,0,0,1,5.3-1.33H722v-2.16a3.52,3.52,0,0,0-1.13-2.76,4.62,4.62,0,0,0-3.16-1,8.13,8.13,0,0,0-2.49.37,5.7,5.7,0,0,0-1.88,1l-.15,2.19h-1.5v-3.14a9.6,9.6,0,0,1,2.72-1.43,10.39,10.39,0,0,1,3.37-.54,6.57,6.57,0,0,1,4.36,1.38,4.84,4.84,0,0,1,1.65,3.95v8.05c0,.33,0,.65,0,1a8.54,8.54,0,0,0,.1.9l1.63.11v1.33Zm-6-1.29a6.5,6.5,0,0,0,3.46-.91,5.36,5.36,0,0,0,2.17-2.34v-3.29h-3.65a6.71,6.71,0,0,0-3.94,1,3,3,0,0,0-1.48,2.58,2.71,2.71,0,0,0,.92,2.12A3.67,3.67,0,0,0,716.37,335.81Z"/><path class="cls-47" d="M732.05,320.72l.22,2.73v.19a5.87,5.87,0,0,1,1.9-2.37,4.83,4.83,0,0,1,2.86-.85,4.91,4.91,0,0,1,.67.05c.22,0,.4.07.54.11l-.24,1.7-1.35-.09a4.11,4.11,0,0,0-2.81,1,5.36,5.36,0,0,0-1.57,2.64v9.78l2.47.2v1.33H728v-1.33l2.46-.2V322.26l-2.46-.19v-1.35h4Z"/><path class="cls-47" d="M751.89,337.1c-.12-.56-.2-1-.26-1.44s-.07-.81-.07-1.23a7.3,7.3,0,0,1-2.42,2.14,6.93,6.93,0,0,1-3.41.85,5.21,5.21,0,0,1-3.72-1.25,4.36,4.36,0,0,1-1.32-3.35,4.16,4.16,0,0,1,1.95-3.61,9.36,9.36,0,0,1,5.3-1.33h3.62v-2.16a3.52,3.52,0,0,0-1.13-2.76,4.61,4.61,0,0,0-3.15-1,8.13,8.13,0,0,0-2.49.37,5.75,5.75,0,0,0-1.89,1l-.15,2.19h-1.5l0-3.14A9.4,9.4,0,0,1,744,321a10.39,10.39,0,0,1,3.37-.54,6.57,6.57,0,0,1,4.36,1.38,4.84,4.84,0,0,1,1.65,3.95v8.05c0,.33,0,.65,0,1a8.54,8.54,0,0,0,.1.9l1.64.11v1.33Zm-6-1.29a6.47,6.47,0,0,0,3.46-.91,5.3,5.3,0,0,0,2.17-2.34v-3.29h-3.65a6.73,6.73,0,0,0-3.94,1,3,3,0,0,0-1.48,2.58,2.71,2.71,0,0,0,.92,2.12A3.67,3.67,0,0,0,745.93,335.81Z"/><path class="cls-47" d="M764.74,322.07v-1.35h4l.23,2.54a6.11,6.11,0,0,1,2.13-2.1,6,6,0,0,1,3-.74,5.34,5.34,0,0,1,4.62,2.35,10.66,10.66,0,0,1,1.66,6.28v.31a9.45,9.45,0,0,1-1.66,5.87,5.45,5.45,0,0,1-4.59,2.19,6.59,6.59,0,0,1-3-.66,5.58,5.58,0,0,1-2.11-1.87v7l2.47.2v1.35h-6.74v-1.35l2.47-.2V322.26Zm13.84,7a9.38,9.38,0,0,0-1.24-5.09,4,4,0,0,0-3.63-2,4.77,4.77,0,0,0-3,.87,5.43,5.43,0,0,0-1.72,2.27V333a5,5,0,0,0,1.8,2.12,5.22,5.22,0,0,0,2.92.77,4.1,4.1,0,0,0,3.61-1.79,8.13,8.13,0,0,0,1.24-4.74Z"/><path class="cls-47" d="M787.27,320.72l.22,2.73v.19a5.87,5.87,0,0,1,1.9-2.37,4.83,4.83,0,0,1,2.86-.85,4.91,4.91,0,0,1,.67.05c.22,0,.4.07.54.11l-.24,1.7-1.35-.09a4.11,4.11,0,0,0-2.81,1,5.36,5.36,0,0,0-1.57,2.64v9.78l2.47.2v1.33h-6.73v-1.33l2.46-.2V322.26l-2.46-.19v-1.35h4Z"/><path class="cls-47" d="M795.5,328.67a8.84,8.84,0,0,1,2-5.94,7.14,7.14,0,0,1,10.52,0,8.8,8.8,0,0,1,2,5.94v.5a8.81,8.81,0,0,1-2,5.94,6.54,6.54,0,0,1-5.24,2.31,6.64,6.64,0,0,1-5.29-2.31,8.81,8.81,0,0,1-2-5.94Zm1.82.5a7.78,7.78,0,0,0,1.44,4.78,5.06,5.06,0,0,0,8,0,7.78,7.78,0,0,0,1.44-4.78v-.5a7.77,7.77,0,0,0-1.44-4.75,4.69,4.69,0,0,0-4-2,4.64,4.64,0,0,0-4,2,7.77,7.77,0,0,0-1.44,4.75Z"/><path class="cls-47" d="M817.46,322.07l-2,.15L819.51,333l.53,1.92h.09l.57-1.92,4-10.78-2-.15v-1.35h5.51v1.35l-1.61.13-5.78,14.9h-1.45l-5.8-14.9-1.61-.13v-1.35h5.51Z"/><path class="cls-47" d="M830.07,335.77l2.47-.2V322.26l-2.47-.19v-1.35h4.27v14.85l2.47.2v1.33h-6.74ZM834.34,316h-1.8v-2.54h1.8Z"/><path class="cls-47" d="M851.24,334.74a5.71,5.71,0,0,1-2.11,2,6.33,6.33,0,0,1-3,.7,5.44,5.44,0,0,1-4.59-2.2,9.44,9.44,0,0,1-1.66-5.86v-.31a10.66,10.66,0,0,1,1.66-6.28,5.33,5.33,0,0,1,4.62-2.35,5.63,5.63,0,0,1,5.06,2.77V315l-2.47-.2v-1.34H853v22.08l2.46.2v1.33h-4.08Zm-9.56-5.38a8.34,8.34,0,0,0,1.19,4.73,4,4,0,0,0,3.58,1.75,5.19,5.19,0,0,0,2.92-.78,5.25,5.25,0,0,0,1.82-2.17v-7.75a5.65,5.65,0,0,0-1.75-2.27,4.76,4.76,0,0,0-3-.88,4,4,0,0,0-3.59,2,9.67,9.67,0,0,0-1.21,5.1Z"/><path class="cls-47" d="M865.48,337.42a6.58,6.58,0,0,1-5.12-2.27,8.29,8.29,0,0,1-2-5.76v-.83a8.6,8.6,0,0,1,2-5.83,6.28,6.28,0,0,1,4.89-2.31,6,6,0,0,1,4.73,1.91,7.28,7.28,0,0,1,1.73,5.08V329H860.14v.43a7.27,7.27,0,0,0,1.47,4.63,4.7,4.7,0,0,0,3.87,1.87,7.88,7.88,0,0,0,2.87-.47,5.64,5.64,0,0,0,2-1.35l.77,1.24a6.54,6.54,0,0,1-2.33,1.54A9,9,0,0,1,865.48,337.42ZM865.24,322a4.34,4.34,0,0,0-3.37,1.54,6.59,6.59,0,0,0-1.6,3.85l0,.08h9.6V327a5.23,5.23,0,0,0-1.26-3.57A4.28,4.28,0,0,0,865.24,322Z"/><path class="cls-47" d="M874.6,335.77l2.47-.2V322.26l-2.47-.19v-1.35h4.08l.16,2.86a5.64,5.64,0,0,1,5.3-3.16,5,5,0,0,1,4.06,1.63q1.39,1.62,1.39,5.07v8.45l2.47.2v1.33h-6.75v-1.33l2.46-.2v-8.43a5.92,5.92,0,0,0-1-4,3.81,3.81,0,0,0-3-1.17,4.69,4.69,0,0,0-3.11,1,5.58,5.58,0,0,0-1.73,2.67v9.9l2.47.2v1.33H874.6Z"/><path class="cls-47" d="M901.75,335.89a5.1,5.1,0,0,0,3.17-1A3.37,3.37,0,0,0,906.3,332h1.61l0,.09a4.52,4.52,0,0,1-1.81,3.8,6.76,6.76,0,0,1-4.38,1.53,6.25,6.25,0,0,1-5.17-2.3,9.15,9.15,0,0,1-1.83-5.89v-.64a9.13,9.13,0,0,1,1.83-5.87,6.19,6.19,0,0,1,5.15-2.3,8.41,8.41,0,0,1,3.47.71,6.67,6.67,0,0,1,2.55,1.94l.08,3.57h-1.54l-.29-2.91a5.32,5.32,0,0,0-1.81-1.29,6,6,0,0,0-2.46-.48,4.36,4.36,0,0,0-3.9,1.89,8.32,8.32,0,0,0-1.26,4.74v.64a8.39,8.39,0,0,0,1.26,4.78A4.37,4.37,0,0,0,901.75,335.89Z"/><path class="cls-47" d="M911.19,335.77l2.47-.2V322.26l-2.47-.19v-1.35h4.27v14.85l2.47.2v1.33h-6.74ZM915.46,316h-1.8v-2.54h1.8Z"/><path class="cls-47" d="M932.28,337.1c-.12-.56-.21-1-.26-1.44a9.9,9.9,0,0,1-.08-1.23,7.2,7.2,0,0,1-2.42,2.14,6.89,6.89,0,0,1-3.4.85,5.22,5.22,0,0,1-3.73-1.25,4.35,4.35,0,0,1-1.31-3.35,4.16,4.16,0,0,1,1.95-3.61,9.34,9.34,0,0,1,5.3-1.33h3.61v-2.16a3.51,3.51,0,0,0-1.12-2.76,4.66,4.66,0,0,0-3.16-1,8.13,8.13,0,0,0-2.49.37,5.7,5.7,0,0,0-1.88,1l-.16,2.19h-1.49v-3.14a9.46,9.46,0,0,1,2.72-1.43,10.35,10.35,0,0,1,3.37-.54,6.54,6.54,0,0,1,4.35,1.38,4.84,4.84,0,0,1,1.66,3.95v8.05c0,.33,0,.65,0,1a6.52,6.52,0,0,0,.1.9l1.63.11v1.33Zm-6-1.29a6.53,6.53,0,0,0,3.47-.91,5.27,5.27,0,0,0,2.16-2.34v-3.29H928.3a6.77,6.77,0,0,0-3.95,1,3,3,0,0,0-1.47,2.58,2.7,2.7,0,0,0,.91,2.12A3.67,3.67,0,0,0,926.31,335.81Z"/><path class="cls-47" d="M942,320.72l.23,2.73v.19a5.79,5.79,0,0,1,1.9-2.37,4.78,4.78,0,0,1,2.85-.85,4.94,4.94,0,0,1,.68.05c.21,0,.39.07.53.11l-.24,1.7-1.35-.09a4.09,4.09,0,0,0-2.8,1,5.22,5.22,0,0,0-1.57,2.64v9.78l2.47.2v1.33H938v-1.33l2.47-.2V322.26l-2.47-.19v-1.35h4Z"/><path class="cls-47" d="M957.74,335.77l2.46-.2V322.26l-2.46-.19v-1.35h4.07l.16,2.86a5.64,5.64,0,0,1,5.3-3.16,5,5,0,0,1,4.06,1.63q1.39,1.62,1.39,5.07v8.45l2.47.2v1.33h-6.75v-1.33l2.47-.2v-8.43a5.91,5.91,0,0,0-1.06-4,3.8,3.8,0,0,0-3-1.17,4.69,4.69,0,0,0-3.11,1,5.58,5.58,0,0,0-1.73,2.67v9.9l2.47.2v1.33h-6.75Z"/><path class="cls-47" d="M977.88,328.67a8.8,8.8,0,0,1,2-5.94,7.14,7.14,0,0,1,10.52,0,8.84,8.84,0,0,1,2,5.94v.5a8.81,8.81,0,0,1-2,5.94,6.54,6.54,0,0,1-5.24,2.31,6.61,6.61,0,0,1-5.28-2.31,8.76,8.76,0,0,1-2-5.94Zm1.82.5a7.78,7.78,0,0,0,1.44,4.78,4.71,4.71,0,0,0,4,1.94,4.66,4.66,0,0,0,4-1.94,7.78,7.78,0,0,0,1.44-4.78v-.5a7.77,7.77,0,0,0-1.44-4.75,5,5,0,0,0-8,0,7.77,7.77,0,0,0-1.44,4.75Z"/><path class="cls-47" d="M1007.2,325.78h-1.48l-.21-2.32a4.67,4.67,0,0,0-1.72-1.1,6.53,6.53,0,0,0-2.38-.4,4.45,4.45,0,0,0-3,.86,2.58,2.58,0,0,0-1,2,2.35,2.35,0,0,0,.86,1.88,8.29,8.29,0,0,0,3.41,1.3,11.25,11.25,0,0,1,4.37,1.78,3.67,3.67,0,0,1,1.46,3.06,4,4,0,0,1-1.66,3.31,7,7,0,0,1-4.38,1.27,10.17,10.17,0,0,1-3.31-.51,8.07,8.07,0,0,1-2.58-1.43v-3.3h1.47l.25,2.33a4.14,4.14,0,0,0,1.84,1.05,8.2,8.2,0,0,0,2.33.33,5,5,0,0,0,3.1-.87,2.54,2.54,0,0,0,1.14-2.08,2.67,2.67,0,0,0-1-2,7.82,7.82,0,0,0-3.41-1.41,11.45,11.45,0,0,1-4.34-1.68,3.44,3.44,0,0,1-1.42-2.95,4,4,0,0,1,1.59-3.17,6.46,6.46,0,0,1,4.2-1.29,9.39,9.39,0,0,1,3.29.55,6.81,6.81,0,0,1,2.43,1.49Z"/><path class="cls-47" d="M1022.72,325.78h-1.48l-.22-2.32a4.55,4.55,0,0,0-1.71-1.1,6.58,6.58,0,0,0-2.39-.4,4.44,4.44,0,0,0-3,.86,2.58,2.58,0,0,0-1,2,2.37,2.37,0,0,0,.85,1.88,8.36,8.36,0,0,0,3.41,1.3,11.3,11.3,0,0,1,4.38,1.78,3.66,3.66,0,0,1,1.45,3.06,4,4,0,0,1-1.66,3.31,7,7,0,0,1-4.38,1.27,10.11,10.11,0,0,1-3.3-.51,8,8,0,0,1-2.59-1.43v-3.3h1.47l.26,2.33a4.09,4.09,0,0,0,1.84,1.05,8.13,8.13,0,0,0,2.32.33,5,5,0,0,0,3.11-.87,2.55,2.55,0,0,0,1.13-2.08,2.67,2.67,0,0,0-1-2,7.77,7.77,0,0,0-3.41-1.41,11.52,11.52,0,0,1-4.34-1.68,3.46,3.46,0,0,1-1.41-2.95,4,4,0,0,1,1.59-3.17,6.45,6.45,0,0,1,4.19-1.29,9.35,9.35,0,0,1,3.29.55,6.64,6.64,0,0,1,2.43,1.49Z"/><path class="cls-47" d="M1037.66,337.1c-.12-.56-.21-1-.26-1.44a9.92,9.92,0,0,1-.07-1.23,7.34,7.34,0,0,1-2.43,2.14,6.86,6.86,0,0,1-3.4.85,5.22,5.22,0,0,1-3.73-1.25,4.39,4.39,0,0,1-1.31-3.35,4.16,4.16,0,0,1,2-3.61,9.34,9.34,0,0,1,5.3-1.33h3.62v-2.16a3.52,3.52,0,0,0-1.13-2.76,4.64,4.64,0,0,0-3.16-1,8.13,8.13,0,0,0-2.49.37,5.7,5.7,0,0,0-1.88,1l-.15,2.19H1027v-3.14a9.6,9.6,0,0,1,2.72-1.43,10.35,10.35,0,0,1,3.37-.54,6.58,6.58,0,0,1,4.36,1.38,4.84,4.84,0,0,1,1.65,3.95v8.05c0,.33,0,.65,0,1a8.54,8.54,0,0,0,.1.9l1.63.11v1.33Zm-6-1.29a6.5,6.5,0,0,0,3.46-.91,5.36,5.36,0,0,0,2.17-2.34v-3.29h-3.65a6.71,6.71,0,0,0-3.94,1,3,3,0,0,0-1.48,2.58,2.7,2.7,0,0,0,.91,2.12A3.71,3.71,0,0,0,1031.7,335.81Z"/><path class="cls-47" d="M1055.34,325.78h-1.48l-.22-2.32a4.55,4.55,0,0,0-1.71-1.1,6.54,6.54,0,0,0-2.39-.4,4.44,4.44,0,0,0-3,.86,2.58,2.58,0,0,0-1,2,2.37,2.37,0,0,0,.85,1.88,8.36,8.36,0,0,0,3.41,1.3,11.3,11.3,0,0,1,4.38,1.78,3.66,3.66,0,0,1,1.45,3.06,4,4,0,0,1-1.65,3.31,7,7,0,0,1-4.39,1.27,10.11,10.11,0,0,1-3.3-.51,7.86,7.86,0,0,1-2.58-1.43v-3.3h1.46l.26,2.33a4.14,4.14,0,0,0,1.84,1.05,8.13,8.13,0,0,0,2.32.33,5,5,0,0,0,3.11-.87,2.55,2.55,0,0,0,1.13-2.08,2.66,2.66,0,0,0-.94-2,7.82,7.82,0,0,0-3.42-1.41,11.39,11.39,0,0,1-4.33-1.68,3.44,3.44,0,0,1-1.42-2.95,4,4,0,0,1,1.59-3.17,6.45,6.45,0,0,1,4.19-1.29,9.44,9.44,0,0,1,3.3.55,6.68,6.68,0,0,1,2.42,1.49Z"/><path class="cls-47" d="M561.65,373.09a5.15,5.15,0,0,0,3.18-1,3.37,3.37,0,0,0,1.38-2.86h1.6l0,.09a4.49,4.49,0,0,1-1.8,3.8,6.77,6.77,0,0,1-4.39,1.53,6.23,6.23,0,0,1-5.16-2.3,9.15,9.15,0,0,1-1.83-5.89v-.64a9.13,9.13,0,0,1,1.83-5.87,6.19,6.19,0,0,1,5.15-2.3,8.18,8.18,0,0,1,3.46.71,6.7,6.7,0,0,1,2.56,1.94l.08,3.57h-1.55l-.28-2.91a5.32,5.32,0,0,0-1.81-1.29,6,6,0,0,0-2.46-.48,4.36,4.36,0,0,0-3.9,1.89,8.32,8.32,0,0,0-1.26,4.74v.64a8.49,8.49,0,0,0,1.25,4.78A4.4,4.4,0,0,0,561.65,373.09Z"/><path class="cls-47" d="M571.22,365.87a8.84,8.84,0,0,1,2-5.94,7.14,7.14,0,0,1,10.52,0,8.8,8.8,0,0,1,2,5.94v.5a8.81,8.81,0,0,1-2,5.94,6.55,6.55,0,0,1-5.24,2.31,6.64,6.64,0,0,1-5.29-2.31,8.81,8.81,0,0,1-2-5.94Zm1.82.5a7.86,7.86,0,0,0,1.43,4.78,4.73,4.73,0,0,0,4,1.94,4.67,4.67,0,0,0,4-1.94,7.8,7.8,0,0,0,1.44-4.78v-.5a7.76,7.76,0,0,0-1.45-4.76,5,5,0,0,0-8,0,7.88,7.88,0,0,0-1.43,4.76Z"/><path class="cls-47" d="M588.26,359.27v-1.35h4.08l.16,2.71a5.72,5.72,0,0,1,2.11-2.22,5.92,5.92,0,0,1,3.13-.79,5.16,5.16,0,0,1,3.13.91,5,5,0,0,1,1.8,2.8,6.32,6.32,0,0,1,2.12-2.72,5.52,5.52,0,0,1,3.33-1,4.94,4.94,0,0,1,4,1.74c1,1.16,1.43,3,1.43,5.39v8l2.47.22v1.33H609.3V373l2.47-.22v-8c0-2-.35-3.45-1.07-4.28a3.7,3.7,0,0,0-3-1.25,4,4,0,0,0-3.26,1.35,6.47,6.47,0,0,0-1.42,3.44,1.55,1.55,0,0,0,0,.22,2.1,2.1,0,0,1,0,.27v8.3l2.47.2v1.33h-6.76V373l2.47-.2v-8a6.6,6.6,0,0,0-1.08-4.25,3.69,3.69,0,0,0-3-1.28,4.53,4.53,0,0,0-3.07,1,5.16,5.16,0,0,0-1.58,2.62v10l2.47.2v1.33h-6.76V373l2.47-.2V359.46Z"/><path class="cls-47" d="M617.83,359.27v-1.35h4l.22,2.54a6,6,0,0,1,2.13-2.1,6,6,0,0,1,3-.74,5.34,5.34,0,0,1,4.61,2.35,10.67,10.67,0,0,1,1.67,6.28v.31a9.47,9.47,0,0,1-1.67,5.87,5.44,5.44,0,0,1-4.58,2.19,6.56,6.56,0,0,1-3-.66,5.54,5.54,0,0,1-2.12-1.87v7l2.47.2v1.34h-6.73v-1.34l2.46-.2V359.46Zm13.83,7a9.38,9.38,0,0,0-1.24-5.09,4,4,0,0,0-3.63-2,4.81,4.81,0,0,0-3,.87,5.43,5.43,0,0,0-1.72,2.27v7.87a5.11,5.11,0,0,0,1.8,2.12,5.26,5.26,0,0,0,2.93.77,4.12,4.12,0,0,0,3.61-1.79,8.21,8.21,0,0,0,1.23-4.74Z"/><path class="cls-47" d="M640.35,357.92l.23,2.73v.19a5.71,5.71,0,0,1,1.9-2.37,5.07,5.07,0,0,1,3.52-.8c.22,0,.4.07.54.11l-.24,1.7-1.35-.09a4.13,4.13,0,0,0-2.81,1,5.28,5.28,0,0,0-1.56,2.64v9.78l2.47.2v1.33h-6.74V373l2.47-.2V359.46l-2.47-.19v-1.35h4Z"/><path class="cls-47" d="M660.19,374.3c-.12-.56-.2-1-.25-1.44a9.9,9.9,0,0,1-.08-1.23,7.2,7.2,0,0,1-2.42,2.14,6.9,6.9,0,0,1-3.41.85,5.21,5.21,0,0,1-3.72-1.25A4.37,4.37,0,0,1,649,370a4.14,4.14,0,0,1,2-3.6,9.23,9.23,0,0,1,5.29-1.33h3.62v-2.16a3.48,3.48,0,0,0-1.13-2.76,4.61,4.61,0,0,0-3.15-1,8.13,8.13,0,0,0-2.49.37,5.67,5.67,0,0,0-1.89,1l-.15,2.19h-1.5l0-3.15a9.7,9.7,0,0,1,2.72-1.42,10.29,10.29,0,0,1,3.36-.54A6.57,6.57,0,0,1,660,359a4.84,4.84,0,0,1,1.65,3.95V371q0,.5,0,1a6.53,6.53,0,0,0,.09.9l1.64.11v1.33Zm-6-1.29a6.53,6.53,0,0,0,3.47-.91,5.27,5.27,0,0,0,2.16-2.34v-3.29h-3.65a6.73,6.73,0,0,0-3.94,1,3,3,0,0,0-1.48,2.58,2.71,2.71,0,0,0,.92,2.12A3.67,3.67,0,0,0,654.23,373Z"/><path class="cls-47" d="M677.87,363h-1.48l-.21-2.32a4.67,4.67,0,0,0-1.72-1.1,6.53,6.53,0,0,0-2.38-.4,4.45,4.45,0,0,0-3,.86,2.56,2.56,0,0,0-1,2,2.38,2.38,0,0,0,.86,1.88,8.29,8.29,0,0,0,3.41,1.3,11.18,11.18,0,0,1,4.37,1.78,3.67,3.67,0,0,1,1.46,3.06,4,4,0,0,1-1.66,3.31,7.07,7.07,0,0,1-4.38,1.27,10.17,10.17,0,0,1-3.31-.51,8.07,8.07,0,0,1-2.58-1.43v-3.3h1.47l.25,2.33a4.24,4.24,0,0,0,1.84,1.05,8.2,8.2,0,0,0,2.33.33,5,5,0,0,0,3.1-.87,2.54,2.54,0,0,0,1.14-2.08,2.67,2.67,0,0,0-.95-2,7.82,7.82,0,0,0-3.41-1.41,11.45,11.45,0,0,1-4.34-1.68,3.47,3.47,0,0,1-1.41-2.95,3.93,3.93,0,0,1,1.58-3.17,6.46,6.46,0,0,1,4.2-1.29,9.35,9.35,0,0,1,3.29.55,6.81,6.81,0,0,1,2.43,1.49Z"/><path class="cls-47" d="M700.43,371.94a5.71,5.71,0,0,1-2.11,2,6.27,6.27,0,0,1-3,.7,5.46,5.46,0,0,1-4.6-2.2,9.52,9.52,0,0,1-1.65-5.86v-.31A10.74,10.74,0,0,1,690.7,360a5.35,5.35,0,0,1,4.63-2.35,5.63,5.63,0,0,1,5,2.77v-8.16l-2.47-.2v-1.35h4.29v22.09l2.47.2v1.33h-4.09Zm-9.55-5.38a8.34,8.34,0,0,0,1.18,4.73,4,4,0,0,0,3.58,1.75,5.09,5.09,0,0,0,2.92-.79,5.16,5.16,0,0,0,1.82-2.16v-7.75a5.56,5.56,0,0,0-1.75-2.27,4.76,4.76,0,0,0-3-.88,3.93,3.93,0,0,0-3.59,2,9.67,9.67,0,0,0-1.2,5.1Z"/><path class="cls-47" d="M718.76,374.3c-.12-.56-.21-1-.26-1.44a9.9,9.9,0,0,1-.08-1.23,7.2,7.2,0,0,1-2.42,2.14,6.89,6.89,0,0,1-3.4.85,5.22,5.22,0,0,1-3.73-1.25,4.4,4.4,0,0,1-1.31-3.36,4.15,4.15,0,0,1,2-3.6,9.26,9.26,0,0,1,5.3-1.33h3.61v-2.16a3.51,3.51,0,0,0-1.12-2.76,4.64,4.64,0,0,0-3.16-1,8.13,8.13,0,0,0-2.49.37,5.52,5.52,0,0,0-1.88,1l-.15,2.19h-1.5v-3.15a9.7,9.7,0,0,1,2.72-1.42,10.35,10.35,0,0,1,3.37-.54,6.58,6.58,0,0,1,4.36,1.38,4.84,4.84,0,0,1,1.65,3.95V371c0,.33,0,.65,0,1a6.52,6.52,0,0,0,.1.9L722,373v1.33Zm-6-1.29a6.51,6.51,0,0,0,3.47-.91,5.27,5.27,0,0,0,2.16-2.34v-3.29h-3.64a6.77,6.77,0,0,0-3.95,1,3,3,0,0,0-1.47,2.58,2.7,2.7,0,0,0,.91,2.12A3.67,3.67,0,0,0,712.79,373Z"/><path class="cls-47" d="M744,363h-1.49l-.21-2.32a4.59,4.59,0,0,0-1.72-1.1,6.49,6.49,0,0,0-2.38-.4,4.47,4.47,0,0,0-3,.86,2.56,2.56,0,0,0-1,2,2.38,2.38,0,0,0,.86,1.88,8.36,8.36,0,0,0,3.41,1.3,11.3,11.3,0,0,1,4.38,1.78,3.68,3.68,0,0,1,1.45,3.06,4,4,0,0,1-1.66,3.31,7,7,0,0,1-4.38,1.27,10.22,10.22,0,0,1-3.31-.51,8.07,8.07,0,0,1-2.58-1.43v-3.3h1.47l.26,2.33a4.13,4.13,0,0,0,1.84,1.05,8.08,8.08,0,0,0,2.32.33,5,5,0,0,0,3.1-.87,2.54,2.54,0,0,0,1.14-2.08,2.67,2.67,0,0,0-1-2,7.82,7.82,0,0,0-3.41-1.41,11.45,11.45,0,0,1-4.34-1.68,3.47,3.47,0,0,1-1.41-2.95,3.94,3.94,0,0,1,1.59-3.17,6.43,6.43,0,0,1,4.19-1.29,9.35,9.35,0,0,1,3.29.55,6.81,6.81,0,0,1,2.43,1.49Z"/><path class="cls-47" d="M754.83,374.62a6.58,6.58,0,0,1-5.12-2.27,8.32,8.32,0,0,1-2-5.76v-.83a8.6,8.6,0,0,1,2-5.83,6.28,6.28,0,0,1,4.89-2.31,6.06,6.06,0,0,1,4.73,1.9,7.32,7.32,0,0,1,1.73,5.09v1.55H749.49v.43a7.27,7.27,0,0,0,1.47,4.63,4.7,4.7,0,0,0,3.87,1.87,7.88,7.88,0,0,0,2.87-.47,5.64,5.64,0,0,0,2-1.35l.77,1.24a6.54,6.54,0,0,1-2.33,1.54A9,9,0,0,1,754.83,374.62Zm-.24-15.46a4.31,4.31,0,0,0-3.37,1.54,6.53,6.53,0,0,0-1.6,3.85l0,.08h9.6v-.46A5.23,5.23,0,0,0,758,360.6,4.28,4.28,0,0,0,754.59,359.16Z"/><path class="cls-47" d="M763.89,359.27v-1.35H768l.16,2.71a5.72,5.72,0,0,1,2.11-2.22,5.94,5.94,0,0,1,3.13-.79,5.16,5.16,0,0,1,3.13.91,5,5,0,0,1,1.8,2.8,6.32,6.32,0,0,1,2.12-2.72,5.52,5.52,0,0,1,3.33-1,4.94,4.94,0,0,1,4,1.74c1,1.16,1.43,3,1.43,5.39v8l2.47.22v1.33h-6.76V373l2.46-.22v-8c0-2-.35-3.45-1.06-4.28a3.74,3.74,0,0,0-3-1.25,4,4,0,0,0-3.26,1.35,6.55,6.55,0,0,0-1.42,3.44c0,.08,0,.15,0,.22a2.1,2.1,0,0,1,0,.27v8.3l2.47.2v1.33h-6.75V373l2.46-.2v-8a6.6,6.6,0,0,0-1.08-4.25,3.69,3.69,0,0,0-3-1.28,4.53,4.53,0,0,0-3.07,1,5.16,5.16,0,0,0-1.58,2.62v10l2.47.2v1.33h-6.76V373l2.47-.2V359.46Z"/><path class="cls-47" d="M805.25,374.3c-.12-.56-.21-1-.26-1.44a9.92,9.92,0,0,1-.07-1.23,7.34,7.34,0,0,1-2.43,2.14,6.86,6.86,0,0,1-3.4.85,5.22,5.22,0,0,1-3.73-1.25,4.4,4.4,0,0,1-1.31-3.36,4.15,4.15,0,0,1,2-3.6,9.26,9.26,0,0,1,5.3-1.33h3.62v-2.16a3.52,3.52,0,0,0-1.13-2.76,4.64,4.64,0,0,0-3.16-1,8.13,8.13,0,0,0-2.49.37,5.52,5.52,0,0,0-1.88,1l-.15,2.19h-1.5v-3.15a9.84,9.84,0,0,1,2.72-1.42,10.35,10.35,0,0,1,3.37-.54,6.58,6.58,0,0,1,4.36,1.38,4.84,4.84,0,0,1,1.65,3.95V371c0,.33,0,.65,0,1a6.52,6.52,0,0,0,.1.9l1.63.11v1.33Zm-6-1.29a6.5,6.5,0,0,0,3.46-.91,5.36,5.36,0,0,0,2.17-2.34v-3.29h-3.65a6.71,6.71,0,0,0-3.94,1,3,3,0,0,0-1.48,2.58,2.7,2.7,0,0,0,.91,2.12A3.71,3.71,0,0,0,799.29,373Z"/><path class="cls-47" d="M810.71,373l2.47-.2V359.46l-2.47-.19v-1.35h4.08l.16,2.86a5.64,5.64,0,0,1,5.3-3.16,5,5,0,0,1,4.06,1.63,7.71,7.71,0,0,1,1.39,5.07v8.45l2.47.2v1.33h-6.75V373l2.46-.2v-8.43a5.92,5.92,0,0,0-1-4,3.81,3.81,0,0,0-3-1.17,4.69,4.69,0,0,0-3.11,1,5.58,5.58,0,0,0-1.73,2.67v9.9l2.46.2v1.33h-6.75Z"/><path class="cls-47" d="M842.32,374.3c-.12-.56-.21-1-.26-1.44a9.92,9.92,0,0,1-.07-1.23,7.34,7.34,0,0,1-2.43,2.14,6.86,6.86,0,0,1-3.4.85,5.22,5.22,0,0,1-3.73-1.25,4.4,4.4,0,0,1-1.31-3.36,4.15,4.15,0,0,1,2-3.6,9.26,9.26,0,0,1,5.3-1.33H842v-2.16a3.52,3.52,0,0,0-1.13-2.76,4.64,4.64,0,0,0-3.16-1,8.13,8.13,0,0,0-2.49.37,5.52,5.52,0,0,0-1.88,1l-.15,2.19h-1.5v-3.15a9.84,9.84,0,0,1,2.72-1.42,10.35,10.35,0,0,1,3.37-.54,6.57,6.57,0,0,1,4.36,1.38,4.84,4.84,0,0,1,1.65,3.95V371c0,.33,0,.65,0,1a8.54,8.54,0,0,0,.1.9l1.63.11v1.33Zm-6-1.29a6.5,6.5,0,0,0,3.46-.91,5.36,5.36,0,0,0,2.17-2.34v-3.29h-3.65a6.71,6.71,0,0,0-3.94,1,3,3,0,0,0-1.48,2.58,2.67,2.67,0,0,0,.92,2.12A3.67,3.67,0,0,0,836.36,373Z"/><path class="cls-47" d="M862.88,374.62a6.58,6.58,0,0,1-5.12-2.27,8.32,8.32,0,0,1-2-5.76v-.83a8.55,8.55,0,0,1,2-5.83,6.27,6.27,0,0,1,4.88-2.31,6.07,6.07,0,0,1,4.74,1.9,7.32,7.32,0,0,1,1.73,5.09v1.55H857.53v.43a7.22,7.22,0,0,0,1.48,4.63,4.7,4.7,0,0,0,3.87,1.87,7.91,7.91,0,0,0,2.87-.47,5.52,5.52,0,0,0,2-1.35l.78,1.24a6.63,6.63,0,0,1-2.33,1.54A9,9,0,0,1,862.88,374.62Zm-.25-15.46a4.34,4.34,0,0,0-3.37,1.54,6.58,6.58,0,0,0-1.59,3.85l0,.08h9.6v-.46A5.23,5.23,0,0,0,866,360.6,4.29,4.29,0,0,0,862.63,359.16Z"/><path class="cls-47" d="M891.91,371.6a5.67,5.67,0,0,1-2.11,2.23,6.2,6.2,0,0,1-3.16.79,5,5,0,0,1-4-1.76q-1.46-1.75-1.46-5.45v-8l-2-.19v-1.35h3.83v9.52a7.06,7.06,0,0,0,1,4.3,3.47,3.47,0,0,0,2.9,1.3,5.34,5.34,0,0,0,3.28-.91,4.84,4.84,0,0,0,1.72-2.51V359.46l-2.33-.19v-1.35h4.14v14.85l2.2.2v1.33h-3.79Z"/><path class="cls-47" d="M898.19,373l2.47-.2V359.46l-2.47-.19v-1.35h4.07l.17,2.86a5.81,5.81,0,0,1,2.12-2.34,6,6,0,0,1,3.18-.82,5,5,0,0,1,4,1.63q1.4,1.62,1.39,5.07v8.45l2.47.2v1.33h-6.75V373l2.47-.2v-8.43a5.92,5.92,0,0,0-1.05-4,3.83,3.83,0,0,0-3-1.17,4.69,4.69,0,0,0-3.11,1,5.6,5.6,0,0,0-1.74,2.67v9.9l2.47.2v1.33h-6.75Z"/><path class="cls-47" d="M930.37,363h-1.48l-.22-2.32a4.55,4.55,0,0,0-1.71-1.1,6.58,6.58,0,0,0-2.39-.4,4.44,4.44,0,0,0-3,.86,2.56,2.56,0,0,0-1,2,2.37,2.37,0,0,0,.85,1.88,8.36,8.36,0,0,0,3.41,1.3,11.3,11.3,0,0,1,4.38,1.78A3.66,3.66,0,0,1,930.7,370a4,4,0,0,1-1.65,3.31,7.09,7.09,0,0,1-4.39,1.27,10.11,10.11,0,0,1-3.3-.51,8,8,0,0,1-2.59-1.43v-3.3h1.47l.26,2.33a4.18,4.18,0,0,0,1.84,1.05,8.13,8.13,0,0,0,2.32.33,5,5,0,0,0,3.11-.87,2.55,2.55,0,0,0,1.13-2.08,2.66,2.66,0,0,0-.94-2,7.88,7.88,0,0,0-3.42-1.41,11.39,11.39,0,0,1-4.33-1.68,3.46,3.46,0,0,1-1.42-2.95,3.94,3.94,0,0,1,1.59-3.17,6.45,6.45,0,0,1,4.19-1.29,9.35,9.35,0,0,1,3.29.55,6.64,6.64,0,0,1,2.43,1.49Z"/><path class="cls-47" d="M554.18,396.47v-1.35h4l.22,2.54a5.94,5.94,0,0,1,2.13-2.1,6.06,6.06,0,0,1,3-.74,5.34,5.34,0,0,1,4.61,2.35,10.67,10.67,0,0,1,1.67,6.28v.31a9.45,9.45,0,0,1-1.67,5.87,5.44,5.44,0,0,1-4.58,2.19,6.56,6.56,0,0,1-3-.66,5.54,5.54,0,0,1-2.12-1.87v7l2.47.2v1.35h-6.73v-1.35l2.46-.2V396.67Zm13.83,7a9.38,9.38,0,0,0-1.24-5.09,4,4,0,0,0-3.63-2,4.79,4.79,0,0,0-3,.87,5.43,5.43,0,0,0-1.72,2.27v7.87a5.11,5.11,0,0,0,1.8,2.12,5.26,5.26,0,0,0,2.93.77,4.12,4.12,0,0,0,3.61-1.79,8.21,8.21,0,0,0,1.23-4.74Z"/><path class="cls-47" d="M576.7,395.12l.23,2.72v.2a5.71,5.71,0,0,1,1.9-2.37,4.78,4.78,0,0,1,2.85-.85,3.64,3.64,0,0,1,.67.05,3.73,3.73,0,0,1,.54.12l-.24,1.69-1.35-.09a4.13,4.13,0,0,0-2.81,1,5.28,5.28,0,0,0-1.56,2.64V410l2.46.2v1.33h-6.73v-1.33l2.47-.2v-13.3l-2.47-.2v-1.35h4Z"/><path class="cls-47" d="M592.17,411.82a6.59,6.59,0,0,1-5.12-2.27,8.28,8.28,0,0,1-2-5.76V403a8.55,8.55,0,0,1,2-5.83,6.24,6.24,0,0,1,4.88-2.31,6.06,6.06,0,0,1,4.74,1.91,7.27,7.27,0,0,1,1.72,5.08v1.54H586.83v.44a7.27,7.27,0,0,0,1.47,4.63,4.7,4.7,0,0,0,3.87,1.87,8,8,0,0,0,2.88-.47,5.82,5.82,0,0,0,2-1.35l.77,1.24a6.45,6.45,0,0,1-2.33,1.54A9,9,0,0,1,592.17,411.82Zm-.24-15.46a4.33,4.33,0,0,0-3.37,1.54,6.59,6.59,0,0,0-1.6,3.85l0,.08h9.6v-.46a5.23,5.23,0,0,0-1.26-3.57A4.27,4.27,0,0,0,591.93,396.36Z"/><path class="cls-47" d="M613.51,400.18H612l-.21-2.32a4.82,4.82,0,0,0-1.72-1.11,6.77,6.77,0,0,0-2.39-.39,4.44,4.44,0,0,0-3,.86,2.58,2.58,0,0,0-1,2,2.38,2.38,0,0,0,.85,1.88,8.35,8.35,0,0,0,3.42,1.3,11.16,11.16,0,0,1,4.37,1.78,3.66,3.66,0,0,1,1.45,3.07,4,4,0,0,1-1.65,3.3,7,7,0,0,1-4.38,1.27,10.13,10.13,0,0,1-3.31-.51,7.69,7.69,0,0,1-2.58-1.43v-3.3h1.47l.25,2.33a4.14,4.14,0,0,0,1.84,1,8.15,8.15,0,0,0,2.33.33,5,5,0,0,0,3.1-.87,2.53,2.53,0,0,0,1.13-2.08,2.66,2.66,0,0,0-.94-2,7.71,7.71,0,0,0-3.42-1.4,11.62,11.62,0,0,1-4.33-1.69,3.46,3.46,0,0,1-1.42-3,4,4,0,0,1,1.59-3.17,6.45,6.45,0,0,1,4.19-1.29,9.4,9.4,0,0,1,3.3.55,6.81,6.81,0,0,1,2.43,1.49Z"/><path class="cls-47" d="M624.37,411.82a6.58,6.58,0,0,1-5.12-2.27,8.29,8.29,0,0,1-2-5.76V403a8.55,8.55,0,0,1,2-5.83,6.27,6.27,0,0,1,4.88-2.31,6,6,0,0,1,4.74,1.91,7.28,7.28,0,0,1,1.73,5.08v1.54H619v.44a7.22,7.22,0,0,0,1.48,4.63,4.68,4.68,0,0,0,3.87,1.87,7.91,7.91,0,0,0,2.87-.47,5.64,5.64,0,0,0,2-1.35l.78,1.24a6.63,6.63,0,0,1-2.33,1.54A9,9,0,0,1,624.37,411.82Zm-.25-15.46a4.34,4.34,0,0,0-3.37,1.54,6.58,6.58,0,0,0-1.59,3.85l0,.08h9.6v-.46a5.23,5.23,0,0,0-1.26-3.57A4.29,4.29,0,0,0,624.12,396.36Z"/><path class="cls-47" d="M633.49,410.17,636,410v-13.3l-2.47-.2v-1.35h4.07l.17,2.86a5.76,5.76,0,0,1,2.13-2.34,5.92,5.92,0,0,1,3.17-.82,5.07,5.07,0,0,1,4.06,1.62,7.76,7.76,0,0,1,1.39,5.08V410l2.46.2v1.33h-6.75v-1.33l2.47-.2v-8.43a5.92,5.92,0,0,0-1-4,3.81,3.81,0,0,0-3-1.17,4.69,4.69,0,0,0-3.11,1,5.58,5.58,0,0,0-1.73,2.67V410l2.46.2v1.33h-6.75Z"/><path class="cls-47" d="M658,390.93v4.19h3.61v1.48H658v10.68a3.47,3.47,0,0,0,.59,2.27,1.93,1.93,0,0,0,1.55.68c.29,0,.58,0,.85,0s.6-.07,1-.13l.27,1.35a4.79,4.79,0,0,1-1.11.3,8.15,8.15,0,0,1-1.3.11,3.42,3.42,0,0,1-2.69-1.09,5.15,5.15,0,0,1-1-3.45V396.6h-2.81v-1.48h2.81v-4.19Z"/><path class="cls-47" d="M664.77,410.17l2.46-.2v-13.3l-2.46-.2v-1.35H669V410l2.47.2v1.33h-6.73ZM669,390.43h-1.8v-2.54H669Z"/><path class="cls-47" d="M674.21,410.17l2.47-.2v-13.3l-2.47-.2v-1.35h4.07l.17,2.86a5.76,5.76,0,0,1,2.13-2.34,5.92,5.92,0,0,1,3.17-.82,5,5,0,0,1,4,1.62,7.7,7.7,0,0,1,1.4,5.08V410l2.46.2v1.33h-6.75v-1.33l2.47-.2v-8.43a5.92,5.92,0,0,0-1-4,3.81,3.81,0,0,0-3-1.17,4.69,4.69,0,0,0-3.11,1,5.6,5.6,0,0,0-1.74,2.67V410l2.47.2v1.33h-6.75Z"/><path class="cls-47" d="M694,389.23v-1.34h4.27v10a5.91,5.91,0,0,1,2.18-2.28,6,6,0,0,1,3.18-.82,5,5,0,0,1,4,1.6,7.51,7.51,0,0,1,1.39,5V410l2.46.2v1.33h-6.75v-1.33l2.47-.2v-8.6a5.63,5.63,0,0,0-1-3.82,3.73,3.73,0,0,0-2.9-1.16,4.9,4.9,0,0,0-3.11,1,5.65,5.65,0,0,0-1.84,2.59v10l2.47.2v1.33H694v-1.33l2.47-.2V389.43Z"/><path class="cls-47" d="M714,403.07a8.84,8.84,0,0,1,2-5.94,7.14,7.14,0,0,1,10.52,0,8.84,8.84,0,0,1,2,5.94v.5a8.85,8.85,0,0,1-2,5.94,7.16,7.16,0,0,1-10.53,0,8.81,8.81,0,0,1-2-5.94Zm1.81.5a7.8,7.8,0,0,0,1.44,4.78,4.72,4.72,0,0,0,4,1.94,4.68,4.68,0,0,0,4-1.94,7.8,7.8,0,0,0,1.44-4.78v-.5a7.77,7.77,0,0,0-1.45-4.75,5,5,0,0,0-8,0,7.77,7.77,0,0,0-1.44,4.75Z"/><path class="cls-47" d="M743.33,400.18h-1.49l-.21-2.32a4.74,4.74,0,0,0-1.72-1.11,6.71,6.71,0,0,0-2.38-.39,4.47,4.47,0,0,0-3,.86,2.58,2.58,0,0,0-1,2,2.39,2.39,0,0,0,.86,1.88,8.36,8.36,0,0,0,3.41,1.3,11.15,11.15,0,0,1,4.38,1.78,3.69,3.69,0,0,1,1.45,3.07,3.94,3.94,0,0,1-1.66,3.3,7,7,0,0,1-4.38,1.27,10.22,10.22,0,0,1-3.31-.51,7.88,7.88,0,0,1-2.58-1.43v-3.3h1.47l.26,2.33a4,4,0,0,0,1.84,1,8.08,8.08,0,0,0,2.32.33,5,5,0,0,0,3.1-.87,2.54,2.54,0,0,0,1.14-2.08,2.67,2.67,0,0,0-1-2,7.72,7.72,0,0,0-3.41-1.4,11.67,11.67,0,0,1-4.34-1.69,3.47,3.47,0,0,1-1.41-3,4,4,0,0,1,1.59-3.17,6.43,6.43,0,0,1,4.19-1.29,9.35,9.35,0,0,1,3.29.55,6.72,6.72,0,0,1,2.43,1.49Z"/><path class="cls-47" d="M749.76,411.5h-2.08V409h2.08Z"/></g></svg>