<svg xmlns="http://www.w3.org/2000/svg" xmlns:xlink="http://www.w3.org/1999/xlink" viewBox="0 0 514.15 402.15"><defs><style>.cls-1{isolation:isolate;}.cls-2{fill:url(#Gradiente_sem_nome_147);}.cls-3{fill:#9293a0;}.cls-4{fill:#3e7c43;}.cls-5{fill:#e5e8ea;}.cls-11,.cls-17,.cls-5{mix-blend-mode:multiply;}.cls-6{fill:#6e4584;}.cls-7{fill:#f9e373;}.cls-8{fill:#db63a5;}.cls-9{fill:#f9e167;}.cls-10{fill:#f9e587;}.cls-11,.cls-18{fill:#f4cda4;}.cls-12{fill:#3b305c;}.cls-13{fill:#f9e375;}.cls-14{fill:#e57373;}.cls-15{fill:#fad800;}.cls-16{fill:#521863;}.cls-19{fill:#fff;}</style><linearGradient id="Gradiente_sem_nome_147" x1="257.08" y1="0.99" x2="257.08" y2="403.14" gradientUnits="userSpaceOnUse"><stop offset="0.04" stop-color="#8bcdea"/><stop offset="1" stop-color="#fff"/></linearGradient></defs><title>SituaçãoMM2</title><g class="cls-1"><g id="Camada_2" data-name="Camada 2"><g id="Camada_1-2" data-name="Camada 1"><rect class="cls-2" width="514.15" height="402.15"/><rect class="cls-3" y="221.93" width="514.15" height="180.22"/><path class="cls-4" d="M116.93,222.25c-3.41-9-10.84-15.23-19.48-15.23q-.56,0-1.11,0c-2.85-10.42-10.9-17.93-20.38-17.93a18.23,18.23,0,0,0-9.21,2.53C62.11,184.5,55,179.9,46.92,179.9c-9.85,0-18.38,6.9-22.54,16.95-.4,0-.81,0-1.22,0-11.64,0-21.1,11.32-21.46,25.44Z"/><path class="cls-4" d="M201.11,222.25c-3.41-9-10.84-15.23-19.48-15.23q-.56,0-1.11,0c-2.85-10.42-10.9-17.93-20.38-17.93a18.23,18.23,0,0,0-9.21,2.53c-4.63-7.15-11.79-11.75-19.82-11.75-9.85,0-18.38,6.9-22.54,16.95-.4,0-.81,0-1.22,0-11.64,0-21.1,11.32-21.46,25.44Z"/><path class="cls-4" d="M285.29,222.25c-3.41-9-10.85-15.23-19.48-15.23-.37,0-.75,0-1.11,0-2.85-10.42-10.9-17.93-20.38-17.93a18.23,18.23,0,0,0-9.21,2.53c-4.63-7.15-11.79-11.75-19.83-11.75-9.85,0-18.38,6.9-22.54,16.95-.4,0-.81,0-1.22,0-11.64,0-21.1,11.32-21.46,25.44Z"/><path class="cls-4" d="M369.47,222.25c-3.42-9-10.85-15.23-19.49-15.23q-.56,0-1.11,0c-2.85-10.42-10.9-17.93-20.38-17.93a18.24,18.24,0,0,0-9.21,2.53c-4.63-7.15-11.78-11.75-19.82-11.75-9.85,0-18.38,6.9-22.54,16.95-.4,0-.81,0-1.22,0-11.64,0-21.1,11.32-21.46,25.44Z"/><path class="cls-4" d="M453.65,222.25c-3.41-9-10.84-15.23-19.48-15.23-.37,0-.74,0-1.11,0-2.85-10.42-10.9-17.93-20.38-17.93a18.23,18.23,0,0,0-9.21,2.53c-4.63-7.15-11.79-11.75-19.82-11.75-9.85,0-18.38,6.9-22.55,16.95-.4,0-.81,0-1.21,0-11.64,0-21.1,11.32-21.46,25.44Z"/><path class="cls-4" d="M514.13,222.25c-3.41-9-10.84-15.23-19.48-15.23-.37,0-.74,0-1.11,0-2.85-10.42-10.9-17.93-20.38-17.93a18.23,18.23,0,0,0-9.21,2.53c-4.63-7.15-11.79-11.75-19.83-11.75-9.85,0-18.38,6.9-22.54,16.95-.4,0-.81,0-1.21,0-11.64,0-21.1,11.32-21.46,25.44Z"/><ellipse class="cls-5" cx="83.5" cy="280.52" rx="67.02" ry="10.63"/><rect class="cls-6" x="27.29" y="219.86" width="112.42" height="57.47"/><rect class="cls-6" x="34.78" y="161.47" width="4.92" height="56.26"/><rect class="cls-6" x="126.11" y="161.47" width="4.92" height="56.26"/><path class="cls-7" d="M27.29,132.68v33.19c0,2.24,2.29,3.93,5.11,3.93s5.11-1.6,5.11-3.84V132.68Z"/><path class="cls-8" d="M37.51,132.68v33.19c0,2.24,2.29,3.93,5.11,3.93s5.11-1.6,5.11-3.84V132.68Z"/><path class="cls-7" d="M47.73,132.68v33.19c0,2.24,2.29,3.93,5.11,3.93s5.11-1.6,5.11-3.84V132.68Z"/><path class="cls-8" d="M58,132.68v33.19c0,2.24,2.29,3.93,5.11,3.93s5.11-1.6,5.11-3.84V132.68Z"/><path class="cls-7" d="M68.17,132.68v33.19c0,2.24,2.29,3.93,5.11,3.93s5.11-1.6,5.11-3.84V132.68Z"/><path class="cls-8" d="M78.39,132.68v33.19c0,2.24,2.29,3.93,5.11,3.93s5.11-1.6,5.11-3.84V132.68Z"/><path class="cls-7" d="M88.61,132.68v33.19c0,2.24,2.29,3.93,5.11,3.93s5.11-1.6,5.11-3.84V132.68Z"/><path class="cls-8" d="M98.83,132.68v33.19c0,2.24,2.29,3.93,5.11,3.93s5.11-1.6,5.11-3.84V132.68Z"/><path class="cls-7" d="M109.05,132.68v33.19c0,2.24,2.29,3.93,5.11,3.93s5.11-1.6,5.11-3.84V132.68Z"/><path class="cls-8" d="M119.27,132.68v33.19c0,2.24,2.29,3.93,5.11,3.93s5.11-1.6,5.11-3.84V132.68Z"/><path class="cls-7" d="M129.49,132.68v33.19c0,2.24,2.29,3.93,5.11,3.93s5.11-1.6,5.11-3.84V132.68Z"/><rect class="cls-9" x="23.56" y="210.63" width="119.89" height="9.22"/><rect class="cls-10" x="45.87" y="232.85" width="75.27" height="27.92"/><circle class="cls-6" cx="117.29" cy="236.22" r="1.55"/><circle class="cls-6" cx="117.29" cy="257.14" r="1.55"/><circle class="cls-6" cx="50.07" cy="236.22" r="1.55"/><circle class="cls-6" cx="50.07" cy="257.14" r="1.55"/><rect class="cls-11" x="23.56" y="215.69" width="119.89" height="4.17"/><ellipse class="cls-5" cx="434.84" cy="278.8" rx="65.67" ry="10.41"/><rect class="cls-12" x="376.24" y="168.67" width="116.02" height="68.65"/><polygon class="cls-13" points="494.3 164.69 374.28 164.69 434.29 128.26 494.3 164.69"/><rect class="cls-14" x="374.28" y="164.69" width="120.02" height="7.96"/><rect class="cls-14" x="374.2" y="233.21" width="120.1" height="44.61"/><rect class="cls-14" x="374.2" y="168.67" width="4.08" height="70.5"/><rect class="cls-14" x="490.22" y="168.67" width="4.08" height="70.5"/><rect class="cls-10" x="400.46" y="242.96" width="66.17" height="24.55"/><circle class="cls-10" cx="463.26" cy="245.93" r="1.36"/><circle class="cls-10" cx="463.26" cy="264.32" r="1.36"/><circle class="cls-10" cx="404.15" cy="245.93" r="1.36"/><circle class="cls-10" cx="404.15" cy="264.32" r="1.36"/><rect class="cls-15" x="406.89" y="169.77" width="53.33" height="15.66"/><polygon class="cls-11" points="395.09 152.05 374.28 164.69 494.3 164.69 473.49 152.05 395.09 152.05"/><ellipse class="cls-5" cx="458" cy="329.2" rx="21.57" ry="6.82"/><path class="cls-16" d="M443.48,329h-.11a.78.78,0,0,1-.66-.88L447.46,295a.78.78,0,0,1,1.55.22l-4.75,33.14A.78.78,0,0,1,443.48,329Z"/><path class="cls-16" d="M470.9,329a.78.78,0,0,1-.77-.67l-4.75-33.14a.78.78,0,0,1,1.54-.22l4.75,33.14a.78.78,0,0,1-.66.88Z"/><path class="cls-16" d="M457.22,330a.78.78,0,0,1-.78-.78V295.07a.78.78,0,0,1,1.56,0V329.2A.78.78,0,0,1,457.22,330Z"/><path class="cls-15" d="M472.72,292.82a4.7,4.7,0,0,1-4.64,4.77H446.29a4.7,4.7,0,0,1-4.64-4.77h0a4.7,4.7,0,0,1,4.64-4.77h21.79a4.7,4.7,0,0,1,4.64,4.77Z"/><path class="cls-16" d="M457.19,314.12c-5.9,0-11.91-2.1-11.91-4.16a.78.78,0,0,1,1.56-.07c.39.69,4.52,2.66,10.35,2.66s10-2,10.35-2.66a.78.78,0,0,1,1.56.07C469.1,312,463.09,314.12,457.19,314.12Z"/><g class="cls-17"><path class="cls-18" d="M441.66,293a4.7,4.7,0,0,0,4.63,4.55h21.79a4.7,4.7,0,0,0,4.63-4.55Z"/></g><ellipse class="cls-5" cx="303.27" cy="339.16" rx="21.57" ry="6.82"/><path class="cls-16" d="M289.91,339.71h-.11a.78.78,0,0,1-.66-.88l4.75-33.14a.78.78,0,0,1,1.55.22L290.68,339A.78.78,0,0,1,289.91,339.71Z"/><path class="cls-16" d="M317.33,339.71a.78.78,0,0,1-.77-.67L311.8,305.9a.78.78,0,0,1,1.55-.22l4.75,33.14a.78.78,0,0,1-.66.88Z"/><path class="cls-16" d="M303.66,340.71a.78.78,0,0,1-.78-.78V305.79a.78.78,0,1,1,1.56,0v34.14A.78.78,0,0,1,303.66,340.71Z"/><path class="cls-15" d="M319.15,303.54a4.7,4.7,0,0,1-4.64,4.77H292.73a4.7,4.7,0,0,1-4.64-4.77h0a4.7,4.7,0,0,1,4.64-4.77h21.79a4.7,4.7,0,0,1,4.64,4.77Z"/><path class="cls-16" d="M303.62,324.85c-5.9,0-11.91-2.1-11.91-4.16a.78.78,0,0,1,1.56-.07c.39.69,4.52,2.66,10.35,2.66s10-2,10.35-2.66a.78.78,0,0,1,1.56.07C315.53,322.75,309.52,324.85,303.62,324.85Z"/><g class="cls-17"><path class="cls-18" d="M288.09,303.76a4.7,4.7,0,0,0,4.63,4.55h21.79a4.7,4.7,0,0,0,4.63-4.55Z"/></g><ellipse class="cls-5" cx="56.91" cy="325.84" rx="21.57" ry="6.82"/><path class="cls-16" d="M43.55,326.39h-.11a.78.78,0,0,1-.66-.88l4.75-33.14a.78.78,0,1,1,1.55.22l-4.75,33.14A.78.78,0,0,1,43.55,326.39Z"/><path class="cls-16" d="M71,326.39a.78.78,0,0,1-.77-.67l-4.75-33.14a.78.78,0,1,1,1.55-.22l4.75,33.14a.78.78,0,0,1-.66.88Z"/><path class="cls-16" d="M57.3,327.39a.78.78,0,0,1-.78-.78V292.47a.78.78,0,1,1,1.56,0v34.14A.78.78,0,0,1,57.3,327.39Z"/><path class="cls-15" d="M72.79,290.22A4.7,4.7,0,0,1,68.15,295H46.37a4.7,4.7,0,0,1-4.64-4.77h0a4.7,4.7,0,0,1,4.64-4.77H68.15a4.7,4.7,0,0,1,4.64,4.77Z"/><path class="cls-16" d="M57.26,311.52c-5.9,0-11.91-2.1-11.91-4.16a.78.78,0,0,1,1.56-.07c.39.69,4.52,2.66,10.35,2.66s10-2,10.35-2.66a.78.78,0,0,1,1.56.07C69.17,309.43,63.16,311.52,57.26,311.52Z"/><g class="cls-17"><path class="cls-18" d="M41.73,290.44A4.7,4.7,0,0,0,46.37,295H68.15a4.7,4.7,0,0,0,4.63-4.55Z"/></g><path class="cls-19" d="M185.72,58.57c-2.08-5.48-6.62-9.29-11.89-9.29l-.68,0c-1.74-6.35-6.65-10.94-12.43-10.94a11.13,11.13,0,0,0-5.62,1.54c-2.82-4.36-7.19-7.17-12.09-7.17-6,0-11.21,4.21-13.75,10.34l-.74,0c-7.1,0-12.87,6.91-13.09,15.52Z"/><path class="cls-19" d="M300.21,81.85c-1.88-5-6-8.4-10.75-8.4l-.61,0c-1.57-5.74-6-9.89-11.24-9.89a10.07,10.07,0,0,0-5.08,1.4C270,61,266,58.5,261.59,58.5c-5.43,0-10.13,3.8-12.43,9.35l-.67,0c-6.42,0-11.63,6.24-11.83,14Z"/><path class="cls-19" d="M400.91,57.33c-1.88-5-6-8.4-10.74-8.4l-.61,0c-1.57-5.74-6-9.89-11.24-9.89a10,10,0,0,0-5.08,1.4c-2.55-3.95-6.5-6.48-10.93-6.48-5.43,0-10.14,3.8-12.43,9.35l-.67,0c-6.42,0-11.63,6.24-11.83,14Z"/><ellipse class="cls-5" cx="232.67" cy="272.01" rx="21.57" ry="6.82"/><path class="cls-16" d="M219.31,272.56h-.11a.78.78,0,0,1-.66-.88l4.75-33.14a.78.78,0,0,1,1.55.22l-4.75,33.14A.78.78,0,0,1,219.31,272.56Z"/><path class="cls-16" d="M246.72,272.56a.78.78,0,0,1-.77-.67l-4.75-33.14a.78.78,0,0,1,1.55-.22l4.75,33.14a.78.78,0,0,1-.66.88Z"/><path class="cls-16" d="M233.05,273.56a.78.78,0,0,1-.78-.78V238.64a.78.78,0,1,1,1.56,0v34.14A.78.78,0,0,1,233.05,273.56Z"/><path class="cls-15" d="M248.55,236.39a4.7,4.7,0,0,1-4.64,4.77H222.12a4.7,4.7,0,0,1-4.64-4.77h0a4.7,4.7,0,0,1,4.64-4.77h21.79a4.7,4.7,0,0,1,4.64,4.77Z"/><path class="cls-16" d="M233,257.7c-5.9,0-11.91-2.1-11.91-4.16a.78.78,0,0,1,1.56-.07c.39.69,4.52,2.66,10.35,2.66s10-2,10.35-2.66a.78.78,0,0,1,1.56.07C244.92,255.6,238.91,257.7,233,257.7Z"/><g class="cls-17"><path class="cls-18" d="M217.49,236.61a4.7,4.7,0,0,0,4.63,4.55h21.79a4.7,4.7,0,0,0,4.63-4.55Z"/></g></g></g></g></svg>