<svg id="Camada_1" data-name="Camada 1" xmlns="http://www.w3.org/2000/svg" xmlns:xlink="http://www.w3.org/1999/xlink" viewBox="0 0 522 440"><defs><style>.cls-1{fill:none;}.cls-2{clip-path:url(#clip-path);}.cls-3{fill:#ffdf57;}.cls-4{fill:#ffdf59;}.cls-5{fill:#ffe05a;}.cls-6{fill:#ffe05c;}.cls-7{fill:#ffe05d;}.cls-8{fill:#ffe05f;}.cls-9{fill:#ffe160;}.cls-10{fill:#ffe162;}.cls-11{fill:#ffe163;}.cls-12{fill:#ffe265;}.cls-13{fill:#ffe266;}.cls-14{fill:#ffe268;}.cls-15{fill:#ffe269;}.cls-16{fill:#ffe36a;}.cls-17{fill:#ffe36c;}.cls-18{fill:#ffe36d;}.cls-19{fill:#ffe46f;}.cls-20{fill:#ffe470;}.cls-21{fill:#ffe472;}.cls-22{fill:#ffe473;}.cls-23{fill:#ffe575;}.cls-24{fill:#ffe576;}.cls-25{fill:#ffe577;}.cls-26{fill:#ffe579;}.cls-27{fill:#ffe67a;}.cls-28{fill:#ffe67c;}.cls-29{fill:#ffe67d;}.cls-30{fill:#ffe77e;}.cls-31{fill:#ffe780;}.cls-32{fill:#ffe781;}.cls-33{fill:#ffe783;}.cls-34{fill:#ffe884;}.cls-35{fill:#ffe885;}.cls-36{fill:#ffe887;}.cls-37{fill:#ffe888;}.cls-38{fill:#ffe989;}.cls-39{fill:#ffe98b;}.cls-40{fill:#ffe98c;}.cls-41{fill:#ffe98d;}.cls-42{fill:#ffea8f;}.cls-43{fill:#ffea90;}.cls-44{fill:#ffea91;}.cls-45{fill:#ffea93;}.cls-46{fill:#ffeb94;}.cls-47{fill:#ffeb95;}.cls-48{fill:#ffeb97;}.cls-49{fill:#ffeb98;}.cls-50{fill:#ffec99;}.cls-51{fill:#ffec9b;}.cls-52{fill:#ffec9c;}.cls-53{fill:#ffec9d;}.cls-54{fill:#ffed9e;}.cls-55{fill:#ffeda0;}.cls-56{fill:#ffeda1;}.cls-57{fill:#ffeda2;}.cls-58{fill:#ffeea3;}.cls-59{fill:#ffeea5;}.cls-60{fill:#ffeea6;}.cls-61{fill:#ffeea7;}.cls-62{fill:#ffeea8;}.cls-63{fill:#ffefaa;}.cls-64{fill:#ffefab;}.cls-65{fill:#ffefac;}.cls-66{fill:#ffefad;}.cls-67{fill:#fff0ae;}.cls-68{fill:#fff0af;}.cls-69{fill:#fff0b1;}.cls-70{fill:#fff0b2;}.cls-71{fill:#fff1b3;}.cls-72{fill:#fff1b4;}.cls-73{fill:#fff1b5;}.cls-74{fill:#fff1b6;}.cls-75{fill:#fff1b8;}.cls-76{fill:#fff2b9;}.cls-77{fill:#fff2ba;}.cls-78{fill:#fff2bb;}.cls-79{fill:#fff2bc;}.cls-80{fill:#fff2bd;}.cls-81{fill:#fff3be;}.cls-82{fill:#fff3bf;}.cls-83{fill:#fff3c1;}.cls-84{fill:#fff3c2;}.cls-85{fill:#fff4c3;}.cls-86{fill:#fff4c4;}.cls-87{fill:#fff4c5;}.cls-88{fill:#fff4c6;}.cls-89{fill:#fff4c7;}.cls-90{fill:#fff5c8;}.cls-91{fill:#fff5c9;}.cls-92{fill:#fff5ca;}.cls-93{fill:#fff5cb;}.cls-94{fill:#fff5cc;}.cls-95{fill:#fff6cd;}.cls-96{fill:#fff6ce;}.cls-97{fill:#fff6cf;}.cls-98{fill:#fff6d0;}.cls-99{fill:#fff6d1;}.cls-100{fill:#fff6d2;}.cls-101{fill:#fff7d3;}.cls-102{fill:#fff7d4;}.cls-103{fill:#fff7d5;}.cls-104{fill:#fff7d6;}.cls-105{fill:#fff7d7;}.cls-106{fill:#fff8d8;}.cls-107{fill:#fff8d9;}.cls-108{fill:#fff8da;}.cls-109{fill:#fff8db;}.cls-110{fill:#fff8dc;}.cls-111{fill:#fff9dd;}.cls-112{fill:#fff9de;}.cls-113{fill:#fff9df;}.cls-114{fill:#fff9e0;}.cls-115{fill:#fff9e1;}.cls-116{fill:#fff9e2;}.cls-117{fill:#fffae2;}.cls-118{fill:#fffae3;}.cls-119{fill:#fffae4;}.cls-120{fill:#fffae5;}.cls-121{fill:#fffae6;}.cls-122{fill:#fffae7;}.cls-123{fill:#fffbe8;}.cls-124{fill:#fffbe9;}.cls-125{fill:#fffbea;}.cls-126{fill:#fffbeb;}.cls-127{fill:#fffbec;}.cls-128{fill:#fffbed;}.cls-129{fill:#fffced;}.cls-130{fill:#fffcee;}.cls-131{fill:#fffcef;}.cls-132{fill:#fffcf0;}.cls-133{fill:#fffcf1;}.cls-134{fill:#fffdf2;}.cls-135{fill:#fffdf3;}.cls-136{fill:#fffdf4;}.cls-137{fill:#fffdf5;}.cls-138{fill:#fffdf6;}.cls-139{fill:#fffdf7;}.cls-140{fill:#fffef7;}.cls-141{fill:#fffef8;}.cls-142{fill:#fffef9;}.cls-143{fill:#fffefa;}.cls-144{fill:#fffefb;}.cls-145{fill:#fffefc;}.cls-146{fill:#fffffd;}.cls-147{fill:#fffffe;}.cls-148{fill:#fff;}.cls-149{fill:#bd979a;}.cls-150{fill:#a26c70;}.cls-151{fill:#805137;opacity:0.2;}.cls-152{fill:#f93d31;}.cls-153{fill:#b70400;}.cls-154{fill:#e7a05e;}.cls-155{fill:#eda361;}.cls-156{fill:#f2ac70;}.cls-157{fill:#f8ba80;}.cls-158{fill:#faca96;}.cls-159{fill:#432399;}</style><clipPath id="clip-path"><rect class="cls-1" width="522" height="440"/></clipPath></defs><title>Sutação2MM2</title><g class="cls-2"><rect class="cls-3" width="522" height="440"/><path class="cls-3" d="M512.24,181.35c11.63,76.08-5.92,149.29-43.69,206.15a262.41,262.41,0,0,1-32,39.36,251,251,0,0,1-18.57,17V441H113v1.15C60,399.29,21.39,334.73,9.76,258.65S15.68,109.36,53.45,52.5a262.41,262.41,0,0,1,32-39.36A251,251,0,0,1,104-3.85V-1H409V-2.15C462,40.71,500.61,105.27,512.24,181.35Z"/><path class="cls-4" d="M510.72,181.58c11.56,75.63-5.89,148.4-43.45,204.92a260.87,260.87,0,0,1-31.8,39.13A249.6,249.6,0,0,1,417,442.52V441H123v7.57q-5.11-3.74-10-7.73C60.23,398.22,21.84,334,10.28,258.42S16.17,110,53.73,53.5a260.87,260.87,0,0,1,31.8-39.13A249.6,249.6,0,0,1,104-2.52V-1H398V-8.57q5.11,3.74,10,7.73C460.77,41.78,499.16,106,510.72,181.58Z"/><path class="cls-5" d="M509.72,181.81c11.56,75.18-5.89,147.51-43.45,203.69a259.61,259.61,0,0,1-31.8,38.9A249.06,249.06,0,0,1,416,441.18V441H124v6.2q-5.11-3.72-10-7.69C61.23,397.15,22.84,333.37,11.28,258.19S17.17,110.67,54.73,54.5a259.61,259.61,0,0,1,31.8-38.9A249.06,249.06,0,0,1,105-1.18V-1H397V-7.2q5.11,3.72,10,7.69C459.77,42.85,498.16,106.63,509.72,181.81Z"/><path class="cls-6" d="M506.64,182C518,256.77,500.86,328.67,464,384.51a257.42,257.42,0,0,1-31.22,38.66,245.59,245.59,0,0,1-18.13,16.68q-4.73,3.93-9.65,7.61V441H125v4.83q-5-3.69-9.86-7.64C63.39,396.09,25.71,332.68,14.36,258S20.14,111.33,57,55.49A257.42,257.42,0,0,1,88.22,16.83,245.59,245.59,0,0,1,106.35.15q4.73-3.93,9.65-7.61V-1H396V-5.83q5,3.69,9.86,7.64C457.61,43.91,495.29,107.32,506.64,182Z"/><path class="cls-7" d="M505.64,182.27C517,256.54,499.86,328,463,383.51a256.15,256.15,0,0,1-31.22,38.43,245,245,0,0,1-18.13,16.58q-4.73,3.91-9.65,7.57V441H126v3.46q-5-3.67-9.86-7.6C64.39,395,26.71,332,15.36,257.73S21.14,112,58,56.49A256.15,256.15,0,0,1,89.22,18.06,245,245,0,0,1,107.35,1.48q4.73-3.91,9.65-7.57V-1H395V-4.46q5,3.67,9.86,7.6C456.61,45,494.29,108,505.64,182.27Z"/><path class="cls-8" d="M505.64,182.5c11.35,73.82-5.78,144.85-42.65,200a254.9,254.9,0,0,1-31.22,38.19,244.5,244.5,0,0,1-18.13,16.48q-4.73,3.88-9.65,7.52V441H127v2.09q-5-3.65-9.86-7.55C65.39,394,27.71,331.32,16.36,257.5S22.14,112.65,59,57.49A254.9,254.9,0,0,1,90.22,19.3,244.5,244.5,0,0,1,108.35,2.81q4.73-3.88,9.65-7.52V-1H395V-3.09q5,3.65,9.86,7.55C456.61,46,494.29,108.68,505.64,182.5Z"/><path class="cls-9" d="M503.71,182.73c11.25,73.37-5.73,144-42.26,198.78a253.18,253.18,0,0,1-30.93,38,242.52,242.52,0,0,1-18,16.38q-4.69,3.86-9.56,7.47V441H138v7.72q-10.23-6.74-19.86-14.5c-51.27-41.34-88.61-103.59-99.85-177S24,113.31,60.55,58.48a253.18,253.18,0,0,1,30.93-38,242.52,242.52,0,0,1,18-16.38Q114.13.29,119-3.33V-1H384V-8.72Q394.23-2,403.86,5.78C455.13,47.11,492.46,109.36,503.71,182.73Z"/><path class="cls-10" d="M501.79,183C513,255.88,496.11,326,459.86,380.52A244.33,244.33,0,0,1,392,448.88V441H138v6.31q-10.15-6.7-19.7-14.41C67.42,391.82,30.37,330,19.21,257S24.89,114,61.14,59.48A244.33,244.33,0,0,1,129-8.88V-1H383V-7.31Q393.15-.61,402.7,7.1C453.58,48.18,490.63,110,501.79,183Z"/><path class="cls-11" d="M500.79,183.19c11.16,72.46-5.68,142.18-41.93,196.33A243.56,243.56,0,0,1,391,447.46V441H139v4.9q-10.15-6.66-19.7-14.32C68.42,390.75,31.37,329.27,20.21,256.81S25.89,114.63,62.14,60.48A243.56,243.56,0,0,1,130-7.46V-1H382V-5.9Q392.15.76,401.7,8.42C452.58,49.25,489.63,110.73,500.79,183.19Z"/><path class="cls-12" d="M499.79,183.42c11.16,72-5.68,141.29-41.93,195.1A242.8,242.8,0,0,1,390,446v-5H140v3.49q-10.15-6.62-19.7-14.23C69.42,389.68,32.37,328.59,21.21,256.58s5.68-141.29,41.93-195.1A242.8,242.8,0,0,1,131-6v5H381V-4.49q10.15,6.62,19.7,14.23C451.58,50.32,488.63,111.41,499.79,183.42Z"/><path class="cls-13" d="M499.79,183.65c11.16,71.56-5.68,140.41-41.93,193.88A242.06,242.06,0,0,1,390,444.61V441H141v2.07q-10.15-6.57-19.7-14.14c-50.88-40.31-87.93-101-99.09-172.58S27.89,115.94,64.14,62.47A242.06,242.06,0,0,1,132-4.61V-1H381V-3.07q10.15,6.57,19.7,14.14C451.58,51.38,488.63,112.1,499.79,183.65Z"/><path class="cls-14" d="M498.79,183.88C510,255,493.11,323.4,456.86,376.53A241.33,241.33,0,0,1,389,443.19V441H142v.66q-10.15-6.53-19.7-14.05C71.42,387.55,34.37,327.22,23.21,256.12S28.89,116.6,65.14,63.47A241.33,241.33,0,0,1,133-3.19V-1H380v-.66q10.15,6.53,19.7,14.05C450.58,52.45,487.63,112.78,498.79,183.88Z"/><path class="cls-15" d="M496.12,184.11c11,70.65-5.59,138.63-41.29,191.42A238.67,238.67,0,0,1,388,441.77V441H152v5.49q-5.14-3-10.14-6.24-10-6.49-19.4-14c-50.1-39.8-86.59-99.75-97.58-170.4S30.48,117.26,66.18,64.47A238.67,238.67,0,0,1,133-1.77V-1H369V-6.49q5.14,3,10.14,6.24,10,6.49,19.4,14C448.64,53.52,485.13,113.46,496.12,184.11Z"/><path class="cls-16" d="M493,184.6c10.77,70.17-5.48,137.69-40.46,190.13A235.44,235.44,0,0,1,387,440.52c-3.23,2.14-6.51,4.2-10,6.17V441H153v4.21c-3.39-2-6.71-4-10-6.2q-9.8-6.45-19-13.87C74.93,385.6,39.18,326.06,28.41,255.89S33.89,118.2,68.87,65.76A235.44,235.44,0,0,1,134.35,0c3.23-2.14,6.51-4.2,9.65-6.17V-1H368V-4.71a119.38,119.38,0,0,1,10.35,6.2q9.8,6.45,19,13.87C446.46,54.89,482.21,114.43,493,184.6Z"/><path class="cls-17" d="M491.48,184.83c10.7,69.72-5.45,136.8-40.2,188.9a233.92,233.92,0,0,1-65.05,65.37c-3.21,2.13-6.47,4.17-9.22,6.13V441H154v2.75c-3.68-2-7-4-10.21-6.16q-9.73-6.41-18.89-13.78c-48.78-39.28-84.29-98.44-95-168.16s5.45-136.8,40.2-188.9A233.92,233.92,0,0,1,135.16,1.39c3.21-2.13,6.47-4.17,9.84-6.13V-1H368V-3.26c3.06,2,6.35,4,9.6,6.16q9.73,6.41,18.89,13.78C445.26,56,480.78,115.11,491.48,184.83Z"/><path class="cls-18" d="M490,185.06C500.61,254.33,484.57,321,450,372.73a232.4,232.4,0,0,1-64.63,64.94c-6.37,4.23-13,8.12-19.41,11.67V441H165v6.92a220.68,220.68,0,0,1-39.22-25.42c-48.46-39-83.75-97.8-94.37-167.06S36.82,119.52,71.34,67.76A232.4,232.4,0,0,1,136,2.82,191.82,191.82,0,0,1,156-8.85V-1H357V-7.43A240.19,240.19,0,0,1,395.6,18C444.06,57,479.35,115.79,490,185.06Z"/><path class="cls-19" d="M488.48,185.29c10.56,68.81-5.38,135-39.68,186.45a230.89,230.89,0,0,1-64.21,64.52A222.61,222.61,0,0,1,365,447.85V441H165v5.43a239.09,239.09,0,0,1-38.34-25.26C78.52,382.4,43.46,324,32.9,255.2s5.38-135,39.68-186.45A230.89,230.89,0,0,1,136.79,4.24C143.12,0,149.67-3.83,156-7.36V-1H356V-5.94a226.33,226.33,0,0,1,38.72,25.26C442.86,58.09,477.92,116.48,488.48,185.29Z"/><path class="cls-20" d="M487,185.52c10.49,68.36-5.34,134.14-39.42,185.22a229.37,229.37,0,0,1-63.79,64.09A188,188,0,0,1,364,446.35V441H166v3.94a225.17,225.17,0,0,1-38.46-25.09C79.72,381.34,44.89,323.33,34.4,255S39.74,120.83,73.82,69.75A229.37,229.37,0,0,1,137.61,5.66c6.29-4.17,12.8-8,19.39-11.52V-1H355V-4.45a214.18,214.18,0,0,1,38.84,25.09C441.66,59.16,476.49,117.16,487,185.52Z"/><path class="cls-21" d="M485.48,185.75c10.42,67.91-5.3,133.25-39.15,184A227.85,227.85,0,0,1,383,433.41a163.77,163.77,0,0,1-20,11.44V441H166v2.45a245.82,245.82,0,0,1-37.57-24.92c-47.51-38.26-82.1-95.88-92.52-163.79s5.3-133.25,39.15-184A227.85,227.85,0,0,1,138.42,7.08,192.85,192.85,0,0,1,158-4.36V-1H355V-3A231.58,231.58,0,0,1,393,22C440.47,60.22,475.06,117.84,485.48,185.75Z"/><path class="cls-22" d="M484,186c10.35,67.46-5.27,132.36-38.89,182.77A226.33,226.33,0,0,1,382.15,432c-6.2,4.12-12.63,7.91-19.15,11.36V441H167v1a230.46,230.46,0,0,1-37.69-24.76C82.12,379.2,47.75,322,37.4,254.51S42.67,122.15,76.29,71.74A226.33,226.33,0,0,1,139.24,8.5,166.83,166.83,0,0,1,159-2.86V-1H355v-.47a254.79,254.79,0,0,1,37.08,24.76C439.27,61.29,473.63,118.52,484,186Z"/><path class="cls-23" d="M480,186c10.08,67-5.13,131.52-37.89,181.6a222.77,222.77,0,0,1-61.32,62.84A205.85,205.85,0,0,1,362,441.69V441H177v4.24q-4.94-2.34-9.78-4.93a226.48,226.48,0,0,1-36.65-24.6C84.59,377.94,51.11,321.07,41,254s5.13-131.52,37.89-181.6A222.77,222.77,0,0,1,140.24,9.6,205.85,205.85,0,0,1,159-1.69V-1H344V-5.24q4.94,2.34,9.78,4.93a226.48,226.48,0,0,1,36.65,24.6C436.41,62.06,469.89,118.93,480,186Z"/><path class="cls-24" d="M481,186.44C491.2,253,475.79,317,442.61,366.75a223.29,223.29,0,0,1-62.1,62.39,209.33,209.33,0,0,1-19,11.21A103,103,0,0,1,351,445.21V441H188v7.27c-6.61-2.75-13.29-5.85-19.81-9.28a229.71,229.71,0,0,1-37.12-24.43c-46.56-37.5-80.46-94-90.67-160.51S45.6,123.47,78.77,73.74a223.29,223.29,0,0,1,62.1-62.39,209.33,209.33,0,0,1,19-11.21c3.27-1.7,6.59-3.32,10.14-4.85V-1H333V-7.78A203,203,0,0,1,353.19,1.5a229.71,229.71,0,0,1,37.12,24.43C436.87,63.42,470.77,119.89,481,186.44Z"/><path class="cls-25" d="M478.21,186.41c10,66.12-5.11,129.74-37.7,179.15a220.64,220.64,0,0,1-61,62A203.08,203.08,0,0,1,341,447.81V441H189v5.55a215.15,215.15,0,0,1-19.66-9.22,225.46,225.46,0,0,1-36.47-24.27c-45.74-37.25-79-93.35-89.08-159.48S48.9,123.85,81.49,74.44a220.64,220.64,0,0,1,61-62A203.08,203.08,0,0,1,181-7.81V-1H333V-6.55a215.15,215.15,0,0,1,19.66,9.22,225.46,225.46,0,0,1,36.47,24.27C434.87,64.19,468.18,120.29,478.21,186.41Z"/><path class="cls-26" d="M477.21,186.64c10,65.67-5.11,128.85-37.7,177.92a219.86,219.86,0,0,1-61,61.57A203.57,203.57,0,0,1,340,446.25V441H189v4a215.83,215.83,0,0,1-19.66-9.16,225.58,225.58,0,0,1-36.47-24.1c-45.74-37-79-92.72-89.08-158.38S48.9,124.5,81.49,75.43a219.86,219.86,0,0,1,61-61.57A203.57,203.57,0,0,1,181-6.25V-1H332V-5a215.83,215.83,0,0,1,19.66,9.16,225.58,225.58,0,0,1,36.47,24.1C433.87,65.26,467.18,121,477.21,186.64Z"/><path class="cls-27" d="M477.21,186.87c10,65.22-5.11,128-37.7,176.7a219.09,219.09,0,0,1-61,61.14,204.07,204.07,0,0,1-38.51,20V441H190v2.45a216.53,216.53,0,0,1-19.66-9.1,225.73,225.73,0,0,1-36.47-23.94c-45.74-36.74-79-92.08-89.08-157.29s5.11-128,37.7-176.7a219.09,219.09,0,0,1,61-61.14A204.07,204.07,0,0,1,182-4.69V-1H332V-3.45a216.53,216.53,0,0,1,19.66,9.1,225.73,225.73,0,0,1,36.47,23.94C433.87,66.32,467.18,121.66,477.21,186.87Z"/><path class="cls-28" d="M474,187.1c9.88,64.76-5,127.08-37.1,175.47a216.61,216.61,0,0,1-60,60.72A200.22,200.22,0,0,1,339,443.13V441H210v7.9a215.44,215.44,0,0,1-75.37-39.8c-45-36.49-77.8-91.44-87.68-156.2s5-127.08,37.1-175.47a216.61,216.61,0,0,1,60-60.72A200.22,200.22,0,0,1,182-3.13V-1H311V-8.9a215.44,215.44,0,0,1,75.37,39.8C431.39,67.39,464.17,122.34,474,187.1Z"/><path class="cls-29" d="M474,187.33c9.88,64.31-5,126.19-37.1,174.24a215.84,215.84,0,0,1-60,60.29,200.72,200.72,0,0,1-37.9,19.7V441H211v6.3a216,216,0,0,1-75.37-39.53C90.61,371.54,57.83,317,48,252.67s5-126.19,37.1-174.24a215.84,215.84,0,0,1,60-60.29A200.72,200.72,0,0,1,183-1.57V-1H311V-7.3a216,216,0,0,1,75.37,39.53C431.39,68.46,464.17,123,474,187.33Z"/><path class="cls-30" d="M472,187.82c9.8,63.83-5,125.25-36.81,173a214.18,214.18,0,0,1-59.56,59.85A199.06,199.06,0,0,1,338,440.18a168.59,168.59,0,0,1-21,6.72V441H211v4.87a214.74,214.74,0,0,1-74.64-39.23c-44.66-36-77.18-90.13-87-154s5-125.25,36.81-173a214.18,214.18,0,0,1,59.56-59.85A199.06,199.06,0,0,1,183.35.31,185.21,185.21,0,0,1,204-6.41V-1H310V-5.37a213.1,213.1,0,0,1,75,39.23C429.68,69.82,462.2,124,472,187.82Z"/><path class="cls-31" d="M470.5,188c9.73,63.38-5,124.37-36.54,171.73a212.66,212.66,0,0,1-59.14,59.42,197.65,197.65,0,0,1-37.33,19.42A184.84,184.84,0,0,1,317,445.29V441H211v3.27a214.79,214.79,0,0,1-73.76-39C92.9,369.6,60.61,315.82,50.89,252.44s5-124.37,36.54-171.73a212.66,212.66,0,0,1,59.14-59.42A197.65,197.65,0,0,1,183.9,1.87,208.3,208.3,0,0,1,204-4.8V-1H310V-3.77a213.08,213.08,0,0,1,74.14,39C428.48,70.89,460.77,124.67,470.5,188Z"/><path class="cls-32" d="M470.72,188C490.19,313.92,412,430.3,296,448v-7H212v1.5a213.39,213.39,0,0,1-74.3-38.69C93.33,368.34,61,314.93,51.28,252,31.81,126.08,110,9.7,226-8v7h84V-2.5a213.39,213.39,0,0,1,74.3,38.69C428.67,71.66,461,125.07,470.72,188Z"/><path class="cls-33" d="M466.75,188.25C485.88,313.25,409,428.79,295,446.32V441H253v7.12a194,194,0,0,1-40.76-7.23,209,209,0,0,1-73-38.41c-43.62-35.21-75.38-88.24-85-150.74C35.12,126.75,112,11.21,226-6.32V-1h42V-8.12A194,194,0,0,1,308.76-.9a209,209,0,0,1,73,38.41C425.41,72.73,457.18,125.76,466.75,188.25Z"/><path class="cls-34" d="M466,188.74c19,124-57.45,238.71-170.84,256.11a191.82,191.82,0,0,1-82.62-5.39,208.1,208.1,0,0,1-72.65-38.12c-43.39-34.94-75-87.57-84.51-149.59C36.35,127.7,112.84,13,226.22-4.36A191.82,191.82,0,0,1,308.85,1a208.1,208.1,0,0,1,72.65,38.12C424.89,74.09,456.48,126.72,466,188.74Z"/><path class="cls-35" d="M464.5,189c18.9,123.14-57,237-169.59,254.24a190.42,190.42,0,0,1-82-5.35A206.58,206.58,0,0,1,140.77,400c-43.07-34.69-74.44-86.93-83.89-148.5-18.9-123.14,57-237,169.59-254.24a190.42,190.42,0,0,1,82,5.35,206.58,206.58,0,0,1,72.12,37.84C423.69,75.16,455.05,127.4,464.5,189Z"/><path class="cls-36" d="M463,189.2c18.76,122.24-56.61,235.23-168.35,252.37a189,189,0,0,1-81.42-5.31,205.06,205.06,0,0,1-71.59-37.56C98.9,364.27,67.76,312.41,58.38,251.29,39.62,129.06,115,16.06,226.73-1.08a189,189,0,0,1,81.42,5.31,205.06,205.06,0,0,1,71.59,37.56C422.49,76.22,453.62,128.08,463,189.2Z"/><path class="cls-37" d="M461.5,189.43c18.62,121.33-56.19,233.48-167.1,250.5C239,448.44,185,431.56,142.53,397.38S69.19,311.73,59.88,251.06C41.26,129.73,116.07,17.58,227,.56,282.43-8,336.41,8.93,378.85,43.11S452.19,128.76,461.5,189.43Z"/><path class="cls-38" d="M460,189.66c18.48,120.42-55.77,231.74-165.85,248.63-55,8.45-108.61-8.31-150.74-42.24s-72.8-85-82-145.23C42.9,130.41,117.15,19.09,227.23,2.2c55-8.45,108.61,8.31,150.74,42.24S450.77,129.45,460,189.66Z"/><path class="cls-39" d="M458.51,189.89c18.34,119.52-55.36,230-164.61,246.77-54.63,8.38-107.8-8.25-149.6-41.92S72,310.36,62.88,250.6C44.54,131.08,118.23,20.6,227.48,3.84c54.63-8.38,107.8,8.25,149.6,41.92S449.34,130.13,458.51,189.89Z"/><path class="cls-40" d="M457,190.12c18.2,118.61-54.94,228.26-163.36,244.9-54.21,8.32-107-8.19-148.47-41.6s-71.7-83.73-80.8-143C46.17,131.76,119.31,22.11,227.73,5.48c54.21-8.32,107,8.19,148.47,41.6S447.91,130.81,457,190.12Z"/><path class="cls-41" d="M455.51,190.35c18.06,117.71-54.52,226.52-162.11,243-53.8,8.26-106.16-8.13-147.34-41.28S74.91,309,65.87,250.14C47.81,132.43,120.39,23.63,228,7.11c53.8-8.26,106.16,8.13,147.34,41.28S446.48,131.49,455.51,190.35Z"/><ellipse class="cls-42" cx="260.69" cy="220.25" rx="195.58" ry="213.97" transform="translate(-30.39 42.09) rotate(-8.72)"/><ellipse class="cls-43" cx="260.69" cy="220.25" rx="194.07" ry="212.31" transform="translate(-30.39 42.09) rotate(-8.72)"/><ellipse class="cls-44" cx="260.69" cy="220.25" rx="192.55" ry="210.65" transform="translate(-30.39 42.09) rotate(-8.72)"/><ellipse class="cls-45" cx="260.69" cy="220.25" rx="191.03" ry="208.99" transform="translate(-30.39 42.09) rotate(-8.72)"/><ellipse class="cls-46" cx="260.69" cy="220.25" rx="189.52" ry="207.33" transform="translate(-30.39 42.09) rotate(-8.72)"/><ellipse class="cls-47" cx="260.69" cy="220.25" rx="188" ry="205.67" transform="translate(-30.39 42.09) rotate(-8.72)"/><ellipse class="cls-48" cx="260.69" cy="220.25" rx="186.49" ry="204.01" transform="matrix(0.99, -0.15, 0.15, 0.99, -30.39, 42.09)"/><ellipse class="cls-49" cx="260.69" cy="220.25" rx="184.97" ry="202.36" transform="translate(-30.39 42.09) rotate(-8.72)"/><ellipse class="cls-50" cx="260.69" cy="220.25" rx="183.45" ry="200.7" transform="translate(-30.39 42.09) rotate(-8.72)"/><ellipse class="cls-51" cx="260.69" cy="220.25" rx="181.94" ry="199.04" transform="translate(-30.39 42.09) rotate(-8.72)"/><ellipse class="cls-52" cx="260.69" cy="220.25" rx="180.42" ry="197.38" transform="translate(-30.39 42.09) rotate(-8.72)"/><ellipse class="cls-53" cx="260.69" cy="220.25" rx="178.9" ry="195.72" transform="translate(-30.39 42.09) rotate(-8.72)"/><ellipse class="cls-54" cx="260.69" cy="220.25" rx="177.39" ry="194.06" transform="translate(-30.39 42.09) rotate(-8.72)"/><ellipse class="cls-55" cx="260.69" cy="220.25" rx="175.87" ry="192.4" transform="translate(-30.39 42.09) rotate(-8.72)"/><ellipse class="cls-56" cx="260.69" cy="220.25" rx="174.36" ry="190.75" transform="translate(-30.39 42.09) rotate(-8.72)"/><ellipse class="cls-57" cx="260.69" cy="220.25" rx="172.84" ry="189.09" transform="translate(-30.39 42.09) rotate(-8.72)"/><ellipse class="cls-58" cx="260.69" cy="220.25" rx="171.32" ry="187.43" transform="translate(-30.39 42.09) rotate(-8.72)"/><ellipse class="cls-59" cx="260.69" cy="220.25" rx="169.81" ry="185.77" transform="matrix(0.99, -0.15, 0.15, 0.99, -30.39, 42.09)"/><ellipse class="cls-60" cx="260.69" cy="220.25" rx="168.29" ry="184.11" transform="translate(-30.39 42.09) rotate(-8.72)"/><ellipse class="cls-61" cx="260.69" cy="220.25" rx="166.78" ry="182.45" transform="translate(-30.39 42.09) rotate(-8.72)"/><ellipse class="cls-62" cx="260.69" cy="220.25" rx="165.26" ry="180.79" transform="translate(-30.39 42.09) rotate(-8.72)"/><ellipse class="cls-63" cx="260.69" cy="220.25" rx="163.74" ry="179.13" transform="matrix(0.99, -0.15, 0.15, 0.99, -30.39, 42.09)"/><ellipse class="cls-64" cx="260.69" cy="220.25" rx="162.23" ry="177.48" transform="translate(-30.39 42.09) rotate(-8.72)"/><ellipse class="cls-65" cx="260.69" cy="220.25" rx="160.71" ry="175.82" transform="translate(-30.39 42.09) rotate(-8.72)"/><ellipse class="cls-66" cx="260.69" cy="220.25" rx="159.2" ry="174.16" transform="translate(-30.39 42.09) rotate(-8.72)"/><ellipse class="cls-67" cx="260.69" cy="220.25" rx="157.68" ry="172.5" transform="translate(-30.39 42.09) rotate(-8.72)"/><ellipse class="cls-68" cx="260.69" cy="220.25" rx="156.16" ry="170.84" transform="translate(-30.39 42.09) rotate(-8.72)"/><ellipse class="cls-69" cx="260.69" cy="220.25" rx="154.65" ry="169.18" transform="translate(-30.39 42.09) rotate(-8.72)"/><ellipse class="cls-70" cx="260.69" cy="220.25" rx="153.13" ry="167.52" transform="translate(-30.39 42.09) rotate(-8.72)"/><ellipse class="cls-71" cx="260.69" cy="220.25" rx="151.61" ry="165.87" transform="translate(-30.39 42.09) rotate(-8.72)"/><ellipse class="cls-72" cx="260.69" cy="220.25" rx="150.1" ry="164.21" transform="translate(-30.39 42.09) rotate(-8.72)"/><ellipse class="cls-73" cx="260.69" cy="220.25" rx="148.58" ry="162.55" transform="matrix(0.99, -0.15, 0.15, 0.99, -30.39, 42.09)"/><ellipse class="cls-74" cx="260.69" cy="220.25" rx="147.07" ry="160.89" transform="translate(-30.39 42.09) rotate(-8.72)"/><ellipse class="cls-75" cx="260.69" cy="220.25" rx="145.55" ry="159.23" transform="translate(-30.39 42.09) rotate(-8.72)"/><ellipse class="cls-76" cx="260.69" cy="220.25" rx="144.03" ry="157.57" transform="translate(-30.39 42.09) rotate(-8.72)"/><ellipse class="cls-77" cx="260.69" cy="220.25" rx="142.52" ry="155.91" transform="translate(-30.39 42.09) rotate(-8.72)"/><ellipse class="cls-78" cx="260.69" cy="220.25" rx="141" ry="154.25" transform="translate(-30.39 42.09) rotate(-8.72)"/><ellipse class="cls-79" cx="260.69" cy="220.25" rx="139.49" ry="152.6" transform="translate(-30.39 42.09) rotate(-8.72)"/><ellipse class="cls-80" cx="260.69" cy="220.25" rx="137.97" ry="150.94" transform="translate(-30.39 42.09) rotate(-8.72)"/><ellipse class="cls-81" cx="260.69" cy="220.25" rx="136.45" ry="149.28" transform="translate(-30.39 42.09) rotate(-8.72)"/><ellipse class="cls-82" cx="260.69" cy="220.25" rx="134.94" ry="147.62" transform="translate(-30.39 42.09) rotate(-8.72)"/><ellipse class="cls-83" cx="260.69" cy="220.25" rx="133.42" ry="145.96" transform="translate(-30.39 42.09) rotate(-8.72)"/><ellipse class="cls-84" cx="260.69" cy="220.25" rx="131.9" ry="144.3" transform="translate(-30.39 42.09) rotate(-8.72)"/><ellipse class="cls-85" cx="260.69" cy="220.25" rx="130.39" ry="142.64" transform="translate(-30.39 42.09) rotate(-8.72)"/><ellipse class="cls-86" cx="260.69" cy="220.25" rx="128.87" ry="140.99" transform="translate(-30.39 42.09) rotate(-8.72)"/><ellipse class="cls-87" cx="260.69" cy="220.25" rx="127.36" ry="139.33" transform="matrix(0.99, -0.15, 0.15, 0.99, -30.39, 42.09)"/><ellipse class="cls-88" cx="260.69" cy="220.25" rx="125.84" ry="137.67" transform="matrix(0.99, -0.15, 0.15, 0.99, -30.39, 42.09)"/><ellipse class="cls-89" cx="260.69" cy="220.25" rx="124.32" ry="136.01" transform="translate(-30.39 42.09) rotate(-8.72)"/><ellipse class="cls-90" cx="260.69" cy="220.25" rx="122.81" ry="134.35" transform="translate(-30.39 42.09) rotate(-8.72)"/><ellipse class="cls-91" cx="260.69" cy="220.25" rx="121.29" ry="132.69" transform="translate(-30.39 42.09) rotate(-8.72)"/><ellipse class="cls-92" cx="260.69" cy="220.25" rx="119.78" ry="131.03" transform="translate(-30.39 42.09) rotate(-8.72)"/><ellipse class="cls-93" cx="260.69" cy="220.25" rx="118.26" ry="129.38" transform="translate(-30.39 42.09) rotate(-8.72)"/><ellipse class="cls-94" cx="260.69" cy="220.25" rx="116.74" ry="127.72" transform="translate(-30.39 42.09) rotate(-8.72)"/><ellipse class="cls-95" cx="260.69" cy="220.25" rx="115.23" ry="126.06" transform="translate(-30.39 42.09) rotate(-8.72)"/><ellipse class="cls-96" cx="260.69" cy="220.25" rx="113.71" ry="124.4" transform="matrix(0.99, -0.15, 0.15, 0.99, -30.39, 42.09)"/><ellipse class="cls-97" cx="260.69" cy="220.25" rx="112.19" ry="122.74" transform="translate(-30.39 42.09) rotate(-8.72)"/><ellipse class="cls-98" cx="260.69" cy="220.25" rx="110.68" ry="121.08" transform="translate(-30.39 42.09) rotate(-8.72)"/><ellipse class="cls-99" cx="260.69" cy="220.25" rx="109.16" ry="119.42" transform="translate(-30.39 42.09) rotate(-8.72)"/><ellipse class="cls-100" cx="260.69" cy="220.25" rx="107.65" ry="117.76" transform="translate(-30.39 42.09) rotate(-8.72)"/><ellipse class="cls-101" cx="260.69" cy="220.25" rx="106.13" ry="116.11" transform="translate(-30.39 42.09) rotate(-8.72)"/><ellipse class="cls-102" cx="260.69" cy="220.25" rx="104.61" ry="114.45" transform="translate(-30.39 42.09) rotate(-8.72)"/><ellipse class="cls-103" cx="260.69" cy="220.25" rx="103.1" ry="112.79" transform="translate(-30.39 42.09) rotate(-8.72)"/><ellipse class="cls-104" cx="260.69" cy="220.25" rx="101.58" ry="111.13" transform="translate(-30.39 42.09) rotate(-8.72)"/><ellipse class="cls-105" cx="260.69" cy="220.25" rx="100.07" ry="109.47" transform="matrix(0.99, -0.15, 0.15, 0.99, -30.39, 42.09)"/><ellipse class="cls-106" cx="260.69" cy="220.25" rx="98.55" ry="107.81" transform="translate(-30.39 42.09) rotate(-8.72)"/><ellipse class="cls-107" cx="260.69" cy="220.25" rx="97.03" ry="106.15" transform="translate(-30.39 42.09) rotate(-8.72)"/><ellipse class="cls-108" cx="260.69" cy="220.25" rx="95.52" ry="104.5" transform="matrix(0.99, -0.15, 0.15, 0.99, -30.39, 42.09)"/><ellipse class="cls-109" cx="260.69" cy="220.25" rx="94" ry="102.84" transform="translate(-30.39 42.09) rotate(-8.72)"/><ellipse class="cls-109" cx="260.69" cy="220.25" rx="92.48" ry="101.18" transform="translate(-30.39 42.09) rotate(-8.72)"/><ellipse class="cls-110" cx="260.69" cy="220.25" rx="90.97" ry="99.52" transform="translate(-30.39 42.09) rotate(-8.72)"/><ellipse class="cls-111" cx="260.69" cy="220.25" rx="89.45" ry="97.86" transform="translate(-30.39 42.09) rotate(-8.72)"/><ellipse class="cls-112" cx="260.69" cy="220.25" rx="87.94" ry="96.2" transform="translate(-30.39 42.09) rotate(-8.72)"/><ellipse class="cls-113" cx="260.69" cy="220.25" rx="86.42" ry="94.54" transform="translate(-30.39 42.09) rotate(-8.72)"/><ellipse class="cls-114" cx="260.69" cy="220.25" rx="84.9" ry="92.88" transform="translate(-30.39 42.09) rotate(-8.72)"/><ellipse class="cls-115" cx="260.69" cy="220.25" rx="83.39" ry="91.23" transform="translate(-30.39 42.09) rotate(-8.72)"/><ellipse class="cls-116" cx="260.69" cy="220.25" rx="81.87" ry="89.57" transform="translate(-30.39 42.09) rotate(-8.72)"/><ellipse class="cls-117" cx="260.69" cy="220.25" rx="80.36" ry="87.91" transform="translate(-30.39 42.09) rotate(-8.72)"/><ellipse class="cls-118" cx="260.69" cy="220.25" rx="78.84" ry="86.25" transform="translate(-30.39 42.09) rotate(-8.72)"/><ellipse class="cls-119" cx="260.69" cy="220.25" rx="77.32" ry="84.59" transform="translate(-30.39 42.09) rotate(-8.72)"/><ellipse class="cls-120" cx="260.69" cy="220.25" rx="75.81" ry="82.93" transform="translate(-30.39 42.09) rotate(-8.72)"/><ellipse class="cls-121" cx="260.69" cy="220.25" rx="74.29" ry="81.27" transform="translate(-30.39 42.09) rotate(-8.72)"/><ellipse class="cls-121" cx="260.69" cy="220.25" rx="72.77" ry="79.62" transform="translate(-30.39 42.09) rotate(-8.72)"/><ellipse class="cls-122" cx="260.69" cy="220.25" rx="71.26" ry="77.96" transform="translate(-30.39 42.09) rotate(-8.72)"/><ellipse class="cls-123" cx="260.69" cy="220.25" rx="69.74" ry="76.3" transform="translate(-30.39 42.09) rotate(-8.72)"/><ellipse class="cls-124" cx="260.69" cy="220.25" rx="68.23" ry="74.64" transform="translate(-30.39 42.09) rotate(-8.72)"/><ellipse class="cls-125" cx="260.69" cy="220.25" rx="66.71" ry="72.98" transform="translate(-30.39 42.09) rotate(-8.72)"/><ellipse class="cls-125" cx="260.69" cy="220.25" rx="65.19" ry="71.32" transform="translate(-30.39 42.09) rotate(-8.72)"/><ellipse class="cls-126" cx="260.69" cy="220.25" rx="63.68" ry="69.66" transform="translate(-30.39 42.09) rotate(-8.72)"/><ellipse class="cls-127" cx="260.69" cy="220.25" rx="62.16" ry="68" transform="translate(-30.39 42.09) rotate(-8.72)"/><ellipse class="cls-128" cx="260.69" cy="220.25" rx="60.65" ry="66.35" transform="translate(-30.39 42.09) rotate(-8.72)"/><ellipse class="cls-129" cx="260.69" cy="220.25" rx="59.13" ry="64.69" transform="translate(-30.39 42.09) rotate(-8.72)"/><ellipse class="cls-130" cx="260.69" cy="220.25" rx="57.61" ry="63.03" transform="translate(-30.39 42.09) rotate(-8.72)"/><ellipse class="cls-131" cx="260.69" cy="220.25" rx="56.1" ry="61.37" transform="translate(-30.39 42.09) rotate(-8.72)"/><ellipse class="cls-131" cx="260.69" cy="220.25" rx="54.58" ry="59.71" transform="matrix(0.99, -0.15, 0.15, 0.99, -30.39, 42.09)"/><ellipse class="cls-132" cx="260.69" cy="220.25" rx="53.07" ry="58.05" transform="translate(-30.39 42.09) rotate(-8.72)"/><ellipse class="cls-133" cx="260.69" cy="220.25" rx="51.55" ry="56.39" transform="translate(-30.39 42.09) rotate(-8.72)"/><ellipse class="cls-133" cx="260.69" cy="220.25" rx="50.03" ry="54.74" transform="translate(-30.39 42.09) rotate(-8.72)"/><ellipse class="cls-134" cx="260.69" cy="220.25" rx="48.52" ry="53.08" transform="translate(-30.39 42.09) rotate(-8.72)"/><ellipse class="cls-135" cx="260.69" cy="220.25" rx="47" ry="51.42" transform="translate(-30.39 42.09) rotate(-8.72)"/><ellipse class="cls-135" cx="260.69" cy="220.25" rx="45.48" ry="49.76" transform="translate(-30.39 42.09) rotate(-8.72)"/><ellipse class="cls-136" cx="260.69" cy="220.25" rx="43.97" ry="48.1" transform="matrix(0.99, -0.15, 0.15, 0.99, -30.39, 42.09)"/><ellipse class="cls-136" cx="260.69" cy="220.25" rx="42.45" ry="46.44" transform="matrix(0.99, -0.15, 0.15, 0.99, -30.39, 42.09)"/><ellipse class="cls-137" cx="260.69" cy="220.25" rx="40.94" ry="44.78" transform="translate(-30.39 42.09) rotate(-8.72)"/><ellipse class="cls-138" cx="260.69" cy="220.25" rx="39.42" ry="43.13" transform="matrix(0.99, -0.15, 0.15, 0.99, -30.39, 42.09)"/><ellipse class="cls-138" cx="260.69" cy="220.25" rx="37.9" ry="41.47" transform="translate(-30.39 42.09) rotate(-8.72)"/><ellipse class="cls-139" cx="260.69" cy="220.25" rx="36.39" ry="39.81" transform="translate(-30.39 42.09) rotate(-8.72)"/><ellipse class="cls-140" cx="260.69" cy="220.25" rx="34.87" ry="38.15" transform="translate(-30.39 42.09) rotate(-8.72)"/><ellipse class="cls-141" cx="260.69" cy="220.25" rx="33.36" ry="36.49" transform="translate(-30.39 42.09) rotate(-8.72)"/><ellipse class="cls-141" cx="260.69" cy="220.25" rx="31.84" ry="34.83" transform="translate(-30.39 42.09) rotate(-8.72)"/><ellipse class="cls-142" cx="260.69" cy="220.25" rx="30.32" ry="33.17" transform="translate(-30.39 42.09) rotate(-8.72)"/><ellipse class="cls-142" cx="260.69" cy="220.25" rx="28.81" ry="31.51" transform="translate(-30.39 42.09) rotate(-8.72)"/><ellipse class="cls-143" cx="260.69" cy="220.25" rx="27.29" ry="29.86" transform="translate(-30.39 42.09) rotate(-8.72)"/><ellipse class="cls-143" cx="260.69" cy="220.25" rx="25.77" ry="28.2" transform="matrix(0.99, -0.15, 0.15, 0.99, -30.39, 42.09)"/><ellipse class="cls-144" cx="260.69" cy="220.25" rx="24.26" ry="26.54" transform="translate(-30.39 42.09) rotate(-8.72)"/><ellipse class="cls-144" cx="260.69" cy="220.25" rx="22.74" ry="24.88" transform="translate(-30.39 42.09) rotate(-8.72)"/><ellipse class="cls-145" cx="260.69" cy="220.25" rx="21.23" ry="23.22" transform="translate(-30.39 42.09) rotate(-8.72)"/><ellipse class="cls-145" cx="260.69" cy="220.25" rx="19.71" ry="21.56" transform="translate(-30.39 42.09) rotate(-8.72)"/><ellipse class="cls-145" cx="260.69" cy="220.25" rx="18.19" ry="19.9" transform="translate(-30.39 42.09) rotate(-8.72)"/><ellipse class="cls-146" cx="260.69" cy="220.25" rx="16.68" ry="18.25" transform="translate(-30.39 42.09) rotate(-8.72)"/><ellipse class="cls-146" cx="260.69" cy="220.25" rx="15.16" ry="16.59" transform="translate(-30.39 42.09) rotate(-8.72)"/><ellipse class="cls-146" cx="260.69" cy="220.25" rx="13.65" ry="14.93" transform="translate(-30.39 42.09) rotate(-8.72)"/><ellipse class="cls-147" cx="260.69" cy="220.25" rx="12.13" ry="13.27" transform="translate(-30.39 42.09) rotate(-8.72)"/><ellipse class="cls-147" cx="260.69" cy="220.25" rx="10.61" ry="11.61" transform="translate(-30.39 42.09) rotate(-8.72)"/><ellipse class="cls-147" cx="260.69" cy="220.25" rx="9.1" ry="9.95" transform="translate(-30.39 42.09) rotate(-8.72)"/><ellipse class="cls-147" cx="260.69" cy="220.25" rx="7.58" ry="8.29" transform="translate(-30.39 42.09) rotate(-8.72)"/><ellipse class="cls-148" cx="260.69" cy="220.25" rx="6.06" ry="6.63" transform="translate(-30.39 42.09) rotate(-8.72)"/><ellipse class="cls-148" cx="260.69" cy="220.25" rx="4.55" ry="4.98" transform="translate(-30.39 42.09) rotate(-8.72)"/><ellipse class="cls-148" cx="260.69" cy="220.25" rx="3.03" ry="3.32" transform="translate(-30.39 42.09) rotate(-8.72)"/><ellipse class="cls-148" cx="260.69" cy="220.25" rx="1.52" ry="1.66" transform="translate(-30.39 42.09) rotate(-8.72)"/></g><g class="cls-2"><polygon class="cls-149" points="784 843.68 784 -373.18 -424.1 40.69 -414.06 483.71 784 843.68"/><polygon class="cls-148" points="784 -426.91 -433 33.33 -427.47 485.9 784 887.71 784 843.6 -413.89 483.67 -423.93 40.72 784 -373.1 784 -426.91"/><polygon class="cls-150" points="529.03 767.08 709 736.51 702.54 -245.09 490.03 -272.73 529.03 767.08"/><polygon class="cls-150" points="134.46 648.62 156.4 -158.46 295 -135.84 295 645.43 134.46 648.62"/><polygon class="cls-150" points="-68 586.98 -60.55 -83.86 81.98 -78.25 35.9 579.1 -68 586.98"/><polygon class="cls-151" points="513.13 321 502.06 20.08 784 -25.44 784 85.45 705.04 24.27 622.54 321 513.13 321"/><polygon class="cls-151" points="784 439.78 707.61 414.44 529.76 767.08 514.36 356.49 784 371.89 784 439.78"/><polygon class="cls-151" points="472.69 -207.42 295.08 -135.84 150.7 54.1 156.82 -158.4 470.43 -265.84 472.69 -207.42"/><polygon class="cls-151" points="147 -127.19 81.84 -78.34 -63 94.27 -60.94 -83.96 147 -155.2 147 -127.19"/><polygon class="cls-151" points="-65 302.74 -62.9 110.64 139.84 77.99 66.73 137.63 -65 302.74"/><polygon class="cls-151" points="481.6 23.05 150.19 77.38 143.78 308.71 294.54 178.46 482.88 56.06 481.6 23.05"/><polygon class="cls-151" points="494.51 356.72 142.98 338.29 134.54 648.62 295.08 470.98 495.42 380.28 494.51 356.72"/><polygon class="cls-151" points="124.52 338.29 52.24 345.97 -68 586.98 -64.89 327.38 124.52 338.29"/><polygon class="cls-148" points="490.52 -272.73 531.08 777.82 510.49 769.92 470.43 -265.84 490.52 -272.73"/><polygon class="cls-148" points="156.82 -170.82 134.26 658.93 119.94 652.87 148.15 -166.52 156.82 -170.82"/><polygon class="cls-148" points="-431.6 161.74 784 -61.03 784 -25.51 -427.74 169.23 -431.6 161.74"/><polygon class="cls-148" points="-430.85 292.69 784 326.54 784 371.89 -424.1 308.54 -430.85 292.69"/></g><polygon class="cls-152" points="127 310.88 125.66 146.78 198.55 139.91 181.52 311 127 310.88"/><polygon class="cls-153" points="197.92 141.54 270.04 146.11 258.83 312 180.9 312.63 197.92 141.54"/><path class="cls-154" d="M219.21,224.86l25.27-2.48c11.08-.93,17.1,10.22,18,20.8L221.07,247Z"/><polygon class="cls-154" points="183.68 259.21 181.5 237.13 219.21 224.86 221.38 246.94 183.68 259.21"/><path class="cls-155" d="M231.68,203.21l33.51-3.06c11.08-.93,17.1,10.22,18,20.8l-49.64,4.41Z"/><polygon class="cls-155" points="182.05 242.57 179.87 220.49 231.68 203.21 233.86 225.29 182.05 242.57"/><path class="cls-156" d="M223,183.18l49.1-3.71c11.08-.93,17.1,10.22,18,20.8l-65.23,5.06Z"/><polygon class="cls-156" points="180.04 222.22 177.87 200.14 222.98 183.18 225.16 205.26 180.04 222.22"/><path class="cls-157" d="M227.9,164.47l42.41-3.39c11.08-.93,17.1,10.22,18,20.8l-58.53,4.74Z"/><polygon class="cls-157" points="178.26 203.83 176.09 181.75 227.9 164.47 230.07 186.55 178.26 203.83"/><polygon class="cls-152" points="229.76 312.99 206.01 150.61 277.28 133.84 283.79 305.66 229.76 312.99"/><polygon class="cls-153" points="276.73 135.37 348.79 130.04 360.36 295.91 283.24 307.19 276.73 135.37"/><path class="cls-157" d="M94.11,289.33l28-17c10.23-6.19,11.28-10.07,11.72-18.41.82-15.21,1.71-21.6,3.63-50.49.54-8.2,9.53-13.71,17.72-16,12.66-3.51,24.27-6.75,24.27-6.75s15.43,17.63,8.13,20c-5.21,1.7-5.9,3.39-5.66,5.32.64,5.21,1.32,13.42,1.32,13.42h0s1.22,10.53,1.54,15.64c.71,11.35,11.61,15.25,22.42,8.71,14-8.49,25.94,11.06,25.94,11.06L221.65,265c-6.62,5.84-14.3,11-16.44,16-6.5,15.39-12.52,23.54-24.78,31l-53.14,32.14Z"/><polygon class="cls-157" points="227.81 225.66 247.3 242.41 221.65 265.05 202.17 248.3 227.81 225.66"/><path class="cls-157" d="M266.1,203.93c4.65,4,7.11,11.44,1.33,18.15l-20.14,20.33-19.48-16.76L248,205.33C253.73,198.61,261.45,199.93,266.1,203.93Z"/><path class="cls-158" d="M264.47,206.26c3.27,3,4.6,8.68-.32,14.1l-3.94,4.34-6.84-6.21-6.84-6.21,3.94-4.34C255.38,202.52,261.2,203.29,264.47,206.26Z"/><polygon class="cls-152" points="346 313.88 344.66 149.78 417.55 142.91 400.52 314 346 313.88"/><polygon class="cls-153" points="417.19 144.54 489.31 149.11 478.1 315 400.16 315.63 417.19 144.54"/><polygon class="cls-159" points="95.48 284.25 0 324.02 0 394.13 134.51 345.34 95.48 284.25"/><polygon class="cls-148" points="506 227 489.61 227 485.68 121 506 121 506 227"/></svg>