<svg xmlns="http://www.w3.org/2000/svg" xmlns:xlink="http://www.w3.org/1999/xlink" viewBox="0 0 1124.64 651.26"><defs><style>.cls-1{fill:#e6f4ff;}.cls-2{fill:none;}.cls-3{fill:#8bb5d8;}.cls-4{fill:#329e89;}.cls-5{clip-path:url(#clip-path);}.cls-6{fill:#c5e2ff;}.cls-7{clip-path:url(#clip-path-2);}.cls-8{fill:#fffdfd;}.cls-9{fill:#fff;}.cls-10{fill:#3a1e1c;}.cls-11{clip-path:url(#clip-path-3);}.cls-12{fill:#d88268;}.cls-13{fill:#d98369;}.cls-14{fill:#da8469;}.cls-15{fill:#db856a;}.cls-16{fill:#dc866b;}.cls-17{fill:#dd876b;}.cls-18{fill:#de886c;}.cls-19{fill:#df896d;}.cls-20{fill:#e08a6d;}.cls-21{fill:#e18b6e;}.cls-22{fill:#e28c6f;}.cls-23{fill:#e48d70;}.cls-24{fill:#e58d70;}.cls-25{fill:#e68e71;}.cls-26{fill:#e78f72;}.cls-27{fill:#e89072;}.cls-28{fill:#e99173;}.cls-29{fill:#ea9274;}.cls-30{fill:#eb9374;}.cls-31{fill:#ec9475;}.cls-32{fill:#ed9576;}.cls-33{fill:#ee9676;}.cls-34{fill:#ef9777;}.cls-35{fill:#3d201f;}.cls-36{fill:#b5574d;}.cls-37{fill:#b3514e;}.cls-38{fill:#312235;}.cls-39{fill:#fc999c;}.cls-40{fill:#f9aaaa;}.cls-41{fill:#196b5d;}.cls-42{fill:#208975;}.cls-43{fill:#8acec3;}.cls-44{fill:#5b1f3c;}.cls-45{fill:#175b4e;}</style><clipPath id="clip-path"><path class="cls-1" d="M428.87,402.79a192.51,192.51,0,0,0-5.05-43.86c-32.69-73-109.23-124.15-198.45-124.15C106.43,234.78,10,325.78,10,438a193.16,193.16,0,0,0,5,43.87C47.74,554.84,124.28,606,213.5,606,332.44,606,428.87,515,428.87,402.79Z"/></clipPath><clipPath id="clip-path-2"><path class="cls-2" d="M541.11,351.64c-10.3-18-97.34-31.5-97.34-31.5S301.45,131.38,232.44,137.81s-80.25,56.58-80.25,56.58l-32.63,66.55C54.29,295.86,10.25,362,10.25,437.86c0,112.25,96.43,203.24,215.37,203.24,117.57,0,213.12-88.9,215.32-199.35C473.29,419.44,549.06,365.51,541.11,351.64Z"/></clipPath><clipPath id="clip-path-3"><path class="cls-2" d="M227.93,321.46l-2.36,9.79s-19.92,12.89-37.91,11.87c-5.34-.31,67.76,42.79,71.74,42.94s34.38-50.15,34.38-50.15-20.41-3.74-27.17-4-14.47-18.28-14.47-18.28Z"/></clipPath></defs><title>2-fala1</title><g id="Camada_5" data-name="Camada 5"><ellipse class="cls-3" cx="225.37" cy="438.02" rx="215.37" ry="203.24"/><path class="cls-4" d="M225.37,234.78c119,0,215.37,91,215.37,203.24S344.32,641.26,225.37,641.26,10,550.27,10,438s96.42-203.24,215.37-203.24m0-10a235.1,235.1,0,0,0-87.54,16.69A225.72,225.72,0,0,0,66.22,287,212.37,212.37,0,0,0,17.8,354.82a203.34,203.34,0,0,0,0,166.4A212.3,212.3,0,0,0,66.22,589a225.89,225.89,0,0,0,71.61,45.57,238.05,238.05,0,0,0,175.08,0A225.94,225.94,0,0,0,384.53,589a212.12,212.12,0,0,0,48.41-67.79,203.34,203.34,0,0,0,0-166.4A212.19,212.19,0,0,0,384.53,287a225.76,225.76,0,0,0-71.62-45.57,235.1,235.1,0,0,0-87.54-16.69Z"/><path class="cls-1" d="M428.87,402.79a192.51,192.51,0,0,0-5.05-43.86c-32.69-73-109.23-124.15-198.45-124.15C106.43,234.78,10,325.78,10,438a193.16,193.16,0,0,0,5,43.87C47.74,554.84,124.28,606,213.5,606,332.44,606,428.87,515,428.87,402.79Z"/><g class="cls-5"><circle class="cls-1" cx="306.79" cy="408.71" r="104.58"/><circle class="cls-1" cx="306.79" cy="408.71" r="100.64"/><circle class="cls-1" cx="306.79" cy="408.71" r="98.66"/><circle class="cls-1" cx="306.79" cy="408.71" r="96.69"/><circle class="cls-1" cx="306.79" cy="408.71" r="94.72"/><circle class="cls-1" cx="306.79" cy="408.71" r="92.74"/><circle class="cls-1" cx="306.79" cy="408.71" r="90.77"/><circle class="cls-1" cx="306.79" cy="408.71" r="88.8"/><circle class="cls-1" cx="306.79" cy="408.71" r="86.82"/><circle class="cls-1" cx="306.79" cy="408.71" r="84.85"/><circle class="cls-1" cx="306.79" cy="408.71" r="82.88"/><circle class="cls-1" cx="306.79" cy="408.71" r="80.9"/><circle class="cls-1" cx="306.79" cy="408.71" r="78.93"/><circle class="cls-1" cx="306.79" cy="408.71" r="76.96"/><circle class="cls-1" cx="306.79" cy="408.71" r="74.98"/><circle class="cls-1" cx="306.79" cy="408.71" r="73.01"/><circle class="cls-1" cx="306.79" cy="408.71" r="71.04"/><circle class="cls-1" cx="306.79" cy="408.71" r="69.06"/><circle class="cls-1" cx="306.79" cy="408.71" r="67.09"/><circle class="cls-1" cx="306.79" cy="408.71" r="65.12"/><circle class="cls-1" cx="306.79" cy="408.71" r="63.15"/><circle class="cls-1" cx="306.79" cy="408.71" r="61.17"/><circle class="cls-1" cx="306.79" cy="408.71" r="59.2"/><circle class="cls-1" cx="306.79" cy="408.71" r="57.23"/><circle class="cls-1" cx="306.79" cy="408.71" r="55.25"/><circle class="cls-1" cx="306.79" cy="408.71" r="53.28"/><circle class="cls-1" cx="306.79" cy="408.71" r="51.31"/><circle class="cls-1" cx="306.79" cy="408.71" r="49.33"/><circle class="cls-1" cx="306.79" cy="408.71" r="47.36"/><circle class="cls-1" cx="306.79" cy="408.71" r="45.39"/><circle class="cls-1" cx="306.79" cy="408.71" r="43.41"/><circle class="cls-1" cx="306.79" cy="408.71" r="41.44"/><circle class="cls-1" cx="306.79" cy="408.71" r="39.47"/><circle class="cls-1" cx="306.79" cy="408.71" r="37.49"/><circle class="cls-1" cx="306.79" cy="408.71" r="35.52"/><circle class="cls-1" cx="306.79" cy="408.71" r="33.55"/><circle class="cls-1" cx="306.79" cy="408.71" r="31.57"/><circle class="cls-1" cx="306.79" cy="408.71" r="29.6"/><circle class="cls-1" cx="306.79" cy="408.71" r="27.63"/><circle class="cls-1" cx="306.79" cy="408.71" r="25.65"/><circle class="cls-1" cx="306.79" cy="408.71" r="23.68"/><circle class="cls-1" cx="306.79" cy="408.71" r="21.71"/><circle class="cls-1" cx="306.79" cy="408.71" r="19.73"/><circle class="cls-1" cx="306.79" cy="408.71" r="17.76"/><circle class="cls-1" cx="306.79" cy="408.71" r="15.79"/><circle class="cls-1" cx="306.79" cy="408.71" r="13.81"/><circle class="cls-1" cx="306.79" cy="408.71" r="11.84"/><circle class="cls-1" cx="306.79" cy="408.71" r="9.87"/><circle class="cls-1" cx="306.79" cy="408.71" r="7.89"/><circle class="cls-1" cx="306.79" cy="408.71" r="5.92"/><circle class="cls-1" cx="306.79" cy="408.71" r="3.95"/><circle class="cls-1" cx="306.79" cy="408.71" r="1.97"/></g><path class="cls-3" d="M787.8,44.22c-174.89,0-318.64,118.13-335.23,269.27L353,353.14s-6.51,2.41-5.85,11.74a12.7,12.7,0,0,0,7.43,10.89L458.82,407C492,541,626.68,641.26,787.8,641.26c186,0,336.84-133.65,336.84-298.52S973.83,44.22,787.8,44.22Z"/><path class="cls-6" d="M787.75,0C612.85,0,469.11,118.13,452.52,269.27L353,308.92s-6.51,2.41-5.86,11.74a12.7,12.7,0,0,0,7.44,10.88l104.21,31.28C492,496.78,626.63,597,787.75,597c186,0,336.84-133.65,336.84-298.52S973.78,0,787.75,0Z"/><g class="cls-7"><path class="cls-8" d="M329.94,510.18s.78-10,4.41-10.57l24.22,31.55-9.37,5.44Z"/><path class="cls-9" d="M153.53,566.53s24.48-21.86,24.48-27-14.35-8.34-14.35-8.34l-20.41,29.5,9.58,7.33Z"/><path class="cls-10" d="M176.44,360.74s-46.9-131.84,7.44-198.9c0,0,58.11-39.81,101.53,7s13,178.54,13,178.54Z"/><g class="cls-11"><polygon class="cls-12" points="293.71 313.64 293.74 313.95 182.31 324.32 182.31 313.64 293.71 313.64"/><polygon class="cls-12" points="293.74 313.95 293.78 314.33 293.78 314.76 182.31 325.13 182.31 324.32 293.74 313.95"/><polygon class="cls-13" points="293.78 315.57 182.31 325.95 182.31 325.13 293.78 314.76 293.78 315.57"/><polygon class="cls-14" points="293.78 316.39 182.31 326.76 182.31 325.95 293.78 315.57 293.78 316.39"/><polygon class="cls-15" points="293.78 317.2 182.31 327.57 182.31 326.76 293.78 316.39 293.78 317.2"/><polygon class="cls-16" points="293.78 318.01 182.31 328.39 182.31 327.57 293.78 317.2 293.78 318.01"/><polygon class="cls-17" points="293.78 318.83 182.31 329.2 182.31 328.39 293.78 318.01 293.78 318.83"/><polygon class="cls-18" points="293.78 319.64 182.31 330.01 182.31 329.2 293.78 318.83 293.78 319.64"/><polygon class="cls-19" points="293.78 320.45 182.31 330.83 182.31 330.01 293.78 319.64 293.78 320.45"/><polygon class="cls-20" points="293.78 321.27 182.31 331.64 182.31 330.83 293.78 320.45 293.78 321.27"/><polygon class="cls-21" points="293.78 322.08 182.31 332.45 182.31 331.64 293.78 321.27 293.78 322.08"/><polygon class="cls-22" points="293.78 322.89 182.31 333.27 182.31 332.45 293.78 322.08 293.78 322.89"/><polygon class="cls-23" points="293.78 323.71 182.31 334.08 182.31 333.27 293.78 322.89 293.78 323.71"/><polygon class="cls-24" points="293.78 324.52 182.31 334.89 182.31 334.08 293.78 323.71 293.78 324.52"/><polygon class="cls-25" points="293.78 325.33 182.31 335.71 182.31 334.89 293.78 324.52 293.78 325.33"/><polygon class="cls-26" points="293.78 326.14 182.31 336.52 182.31 335.71 293.78 325.33 293.78 326.14"/><polygon class="cls-27" points="293.78 326.96 182.31 337.33 182.31 336.52 293.78 326.14 293.78 326.96"/><polygon class="cls-28" points="293.78 327.77 182.31 338.14 182.31 337.33 293.78 326.96 293.78 327.77"/><polygon class="cls-29" points="293.78 328.58 182.31 338.96 182.31 338.14 293.78 327.77 293.78 328.58"/><polygon class="cls-30" points="293.78 329.4 182.31 339.77 182.31 338.96 293.78 328.58 293.78 329.4"/><polygon class="cls-31" points="293.78 330.21 182.31 340.58 182.31 339.77 293.78 329.4 293.78 330.21"/><polygon class="cls-32" points="293.78 331.02 182.31 341.4 182.31 340.58 293.78 330.21 293.78 331.02"/><polygon class="cls-33" points="293.78 331.84 182.31 342.21 182.31 341.4 293.78 331.02 293.78 331.84"/><polygon class="cls-34" points="293.78 332.65 182.31 343.02 182.31 342.21 293.78 331.84 293.78 332.65"/><polygon class="cls-34" points="184.35 386.21 182.31 364.39 182.31 343.02 293.78 332.65 293.78 386.21 184.35 386.21"/></g><path class="cls-34" d="M182.6,222.54s-.88,110.78,64.76,101.68c35.49-4.92,47.51-40.41,40.88-70.91a191.62,191.62,0,0,1-3.79-46.77s-4.08-29.37-38.7-20.3S196.11,192,196.11,192,180.54,195.13,182.6,222.54Z"/><path class="cls-10" d="M177.07,228.73s25.09-2.78,36.43-7.67l.58-15.4s2.55,9.93,4.85,12.41,22.88-.74,32-3.59,4.81-14.7,4.81-14.7l4.34,11.86s28.57,3.44,28.73-.93S285,186,276.62,182s-73.88-4.43-83.08,4.1S177.53,216.52,177.07,228.73Z"/><ellipse class="cls-35" cx="262.95" cy="244.39" rx="3.92" ry="3.17" transform="translate(-22.42 26.6) rotate(-5.56)"/><ellipse class="cls-35" cx="223.88" cy="248.1" rx="3.92" ry="3.17" transform="translate(-22.97 22.84) rotate(-5.56)"/><path class="cls-36" d="M250.55,278.83a15.34,15.34,0,0,1-5.17-.8l.35-.94c5.16,1.91,13.88,0,15.56-3.33,1.13-2.28-1.44-4.53-3.78-6-6.89-4.38-5.32-8.93-5.25-9.13l.94.35c0,.16-1.33,4,4.84,7.94,4.88,3.1,4.95,5.69,4.14,7.31C260.72,277.15,255.37,278.83,250.55,278.83Z"/><path class="cls-37" d="M262,289.89c-18.37,4.75-31.32.71-30.6,2,0,0-.78,13.73,15.42,13.63C263.55,305.45,262,289.89,262,289.89Z"/><path class="cls-9" d="M219.38,333.59s22.52,13.65,36.94,11.8c6.84-.87,18.95-14,18.95-14l13,129.74-49.8,2.24Z"/><path class="cls-38" d="M172.66,557.55S155.05,630.13,157,650s4.68,52.17,34,146c0,0,78.26,32.38,150.2-.81,0,0,6.29-1.86,10.91-43.81s12.42-142.59-8.72-187.47S172.66,557.55,172.66,557.55Z"/><path class="cls-10" d="M270.81,230.55s-4.74-6.21-9.75-3.11a.89.89,0,0,0-.58,1.12c.25.84,1.91-1.63,9.83,2.73C270.31,231.29,270.81,231.58,270.81,230.55Z"/><path class="cls-10" d="M213.93,234s4.75-6.2,9.75-3.1a.89.89,0,0,1,.58,1.12c-.25.83-1.91-1.64-9.83,2.73C214.43,234.73,213.93,235,213.93,234Z"/><path class="cls-9" d="M259.62,290.44s-.65,3.21-2,4.12-15.59,1.66-24.11,1c-2.87-.24-2.32-2.92-2.18-3.89C231.35,291.63,246.09,293.49,259.62,290.44Z"/><path class="cls-39" d="M251.34,305.09s-1.86-9.5-19.13-7C232.21,298.13,235.94,307.82,251.34,305.09Z"/><ellipse class="cls-40" cx="281.01" cy="254.61" rx="3.62" ry="6.23" transform="translate(3.96 513.52) rotate(-85.24)"/><ellipse class="cls-40" cx="214.79" cy="263.85" rx="6.23" ry="3.62" transform="translate(-52.96 53.94) rotate(-12.76)"/><path class="cls-41" d="M334.61,435.84,357,461.35s-6.12,9.16-12,18.65c-6.27,10.12-15.54,20.35-13.57,20.57,4,.44,26.78,31.77,26.78,31.77l28-38s21.11-33.38,20.75-37-18.37-28.47-24.44-34.21c-3.74-3.54-9.95-8.73-15.17-16.12-29.22-41.32-56.53-70.82-58.39-72.35s-11-6.17-14.23-4.64-19.19,1.4-19.19,1.4l2.64,115.37L219.63,333.58s-12.56,4.34-26.08,2.61-36.24,3.62-36.24,3.62-10.24,27.71-17.55,29.81-11,20.26-11,20.26c-2.17,2.65-10.18,14.08-19.61,27.71h0s-37.48,45.94-43,49.92S63.56,481,63.56,481l78.84,83.79,27.83-35.52c-7.13-.49-43.13-49.77-43.13-49.77,2.53-4.53,2.3-8.25,1.56-10.71,17.3-18.49,42.63-47.19,42.63-47.19.41,4.07,6.47,16.8,16.93,32.52s9.69,42.14,9.69,42.14c-14.94,21.68-25,61.34-25,61.34s1,7.93,26.28,20.55c11,5.5,46.51,16.31,46.51,16.31l39.46-43.29,50.78,35.64s9.12-9.12,8.21-18.27S325.71,505,325.71,505s-1.89-19,.27-24.66S334.61,435.84,334.61,435.84Z"/><path class="cls-12" d="M153.53,566.53s12.2,10.71,14.67,8.24l12.43-35.2S165.06,550.81,153.53,566.53Z"/><path class="cls-34" d="M170.88,567.7s5.9-5.86,14.86,2.8,9.68,9.26,9.68,9.26,7,2.88,7.52-4.62c0,0,8.8,1.29,6.83-8.4,0,0,6.13-4.42.7-12,0,0,5.51-1.05,2.24-11.46s-24-20.47-24-20.47-9.94-3.49-10.82,8.08c0,0-7.16.37-4.66,10.37,0,0-4.65,4.21-3.65,8.77s-.11,3.67-.11,3.67S162.79,561.13,170.88,567.7Z"/><path class="cls-36" d="M202.56,575.46c-.11-.13-11.87-13.67-24.48-19.79l.43-.9c12.8,6.21,24.69,19.9,24.81,20Z"/><path class="cls-36" d="M209.42,567.1c-.17-.16-17.14-16.09-29.48-22.74l.48-.88c12.45,6.71,29.52,22.73,29.69,22.9Z"/><path class="cls-36" d="M210.09,555c-.15-.18-15.21-17.91-27.55-21.76l.3-1c12.61,4,27.39,21.33,28,22.07Z"/><path class="cls-34" d="M347.86,556.51l-16.17,4.75s-6.95,2.88-7.52-4.62c0,0-8.8,1.29-6.82-8.4,0,0-6.14-4.42-.71-12,0,0-5.51-1.05-2.24-11.46s15.67-13.15,15.67-13.15,9.94-3.49,10.82,8.07c0,0,7.16.38,4.66,10.37,0,0,4.65,4.21,3.65,8.78s.11,3.66.11,3.66S356,549.94,347.86,556.51Z"/><path class="cls-36" d="M324.44,557.06l-.54-.84A275.12,275.12,0,0,1,349.1,542l.43.9A273.55,273.55,0,0,0,324.44,557.06Z"/><path class="cls-36" d="M317.64,548.64l-.59-.8c.16-.12,15.84-11.55,28.27-18.25l.47.88C333.42,537.14,317.8,548.53,317.64,548.64Z"/><path class="cls-36" d="M317.07,536.46l-.86-.51c.09-.16,9.39-15.38,24.63-16.79l.09,1C326.2,521.52,317.16,536.31,317.07,536.46Z"/><path class="cls-42" d="M219.38,333.59S195.23,345.24,182.15,365l44.38,12.67s-15.11,14.85-14.79,18.07,66.17,51,66.17,51,33.54-61.51,29.81-64.56-24.29-6.81-24.29-6.81,19.48-27.6,22.87-27.94-28-16.36-31-16.06,2.52,110.28,2.52,110.28l-.15,2.38Z"/><path class="cls-38" d="M277.91,446.79s9.26,81.81,7,104.33"/><circle class="cls-43" cx="291.65" cy="471.48" r="5.33"/><circle class="cls-43" cx="293.78" cy="509.48" r="5.33"/><path class="cls-44" d="M173.81,404.74l-1-.23a76.6,76.6,0,0,0-11.55-60.85l.82-.58A77.66,77.66,0,0,1,173.81,404.74Z"/><path class="cls-44" d="M329.09,406.93l-1-.09c1.1-12.29-3.36-24.57-7.3-35.4-4.66-12.82-10-27.36-20.07-37.89l.72-.69c10.27,10.68,15.59,25.32,20.29,38.23C325.7,382,330.21,394.42,329.09,406.93Z"/><path class="cls-44" d="M146.32,377a27.46,27.46,0,0,0-3.49-7l.82-.57a28.62,28.62,0,0,1,3.62,7.2Z"/><path class="cls-44" d="M136,392.63a35.57,35.57,0,0,0-6.08-.83l0-1a35.6,35.6,0,0,1,6.25.86Z"/><path class="cls-44" d="M334.44,441l-1-.12a74.23,74.23,0,0,0,.43-11.92l1-.05A75.14,75.14,0,0,1,334.44,441Z"/><path class="cls-44" d="M355.5,460.4l-.14-1a75,75,0,0,1,12.07-.73l0,1A74.13,74.13,0,0,0,355.5,460.4Z"/><path class="cls-44" d="M365,468.05a59.33,59.33,0,0,0-8.69-6.35l.52-.86a62,62,0,0,1,8.83,6.45Z"/><path class="cls-44" d="M200.41,496.57l-.52-.85a60,60,0,0,1,11.6-5.55l.33.94A58.91,58.91,0,0,0,200.41,496.57Z"/><path class="cls-44" d="M127.77,469.24c-2.33,0-10-.2-12.54-2.74l.7-.71c2.66,2.65,12.37,2.44,12.47,2.45l0,1Z"/><path class="cls-44" d="M118.83,482.89v-1c3.43,0,7.7-2.82,7.74-2.85l.56.83C126.94,480,122.56,482.89,118.83,482.89Z"/></g><path class="cls-45" d="M678.1,254.46h-2.71l-.72-4a7.4,7.4,0,0,0-2.31-1.51,8.26,8.26,0,0,0-3.26-.58,8,8,0,0,0-6.82,3.21,13.37,13.37,0,0,0-2.38,8.15v.45a13.6,13.6,0,0,0,2.34,8.18,7.54,7.54,0,0,0,6.47,3.23,9.67,9.67,0,0,0,3.52-.61,6.72,6.72,0,0,0,2.44-1.48l.72-4h2.71v5.06a10.74,10.74,0,0,1-3.69,2.82,12.59,12.59,0,0,1-5.7,1.24,11.51,11.51,0,0,1-9.1-4.1,15.22,15.22,0,0,1-3.56-10.32v-.41a15.38,15.38,0,0,1,3.5-10.34,11.45,11.45,0,0,1,9.16-4.09,12.34,12.34,0,0,1,5.7,1.26,11,11,0,0,1,3.69,2.82Z"/><path class="cls-45" d="M696,274.17c-.12-.58-.21-1.09-.28-1.55s-.11-.91-.13-1.36a9.33,9.33,0,0,1-2.79,2.37,8,8,0,0,1-8.58-.66,5.92,5.92,0,0,1-1.72-4.54,5.25,5.25,0,0,1,2.43-4.64,11.84,11.84,0,0,1,6.67-1.63h4v-2.47a3.8,3.8,0,0,0-1.18-2.93,4.57,4.57,0,0,0-3.26-1.09,8.25,8.25,0,0,0-2.55.37,4.79,4.79,0,0,0-1.78,1l-.41,2.22h-3v-4.1a11.33,11.33,0,0,1,3.49-1.84,13.9,13.9,0,0,1,4.46-.7,8.9,8.9,0,0,1,5.82,1.84,6.43,6.43,0,0,1,2.22,5.25v10.18c0,.27,0,.54,0,.8s0,.52.05.78l1.56.22v2.46Zm-6.2-2.82a6.85,6.85,0,0,0,3.5-.91,5.82,5.82,0,0,0,2.27-2.21v-3.48h-4.11a5.86,5.86,0,0,0-3.74,1.1,3.29,3.29,0,0,0-1.37,2.65,2.61,2.61,0,0,0,.86,2.12A3.89,3.89,0,0,0,689.8,271.35Z"/><path class="cls-45" d="M704.24,255.52V253h6.62l.37,3.07a7.38,7.38,0,0,1,2.22-2.54,5.15,5.15,0,0,1,3-.92,7.56,7.56,0,0,1,.93.07,5.61,5.61,0,0,1,.73.15l-.5,3.57-2.19-.11a4.36,4.36,0,0,0-2.56.71,4.59,4.59,0,0,0-1.6,2v12.13l3.18.55v2.46H704.24v-2.46l3.18-.55v-15.1Z"/><path class="cls-45" d="M752.32,264.36a13,13,0,0,1-2.34,7.2,7.48,7.48,0,0,1-6.48,3,4,4,0,0,1-2.48-.81,4.46,4.46,0,0,1-1.49-2.28,6.46,6.46,0,0,1-2.38,2.33,6.85,6.85,0,0,1-3.26.76,4.18,4.18,0,0,1-3.79-2.36,10.42,10.42,0,0,1-1-6.18,15.92,15.92,0,0,1,2.69-8.11,6.57,6.57,0,0,1,5.44-3.06,8.84,8.84,0,0,1,3.29.51,14.76,14.76,0,0,1,2.74,1.56l-.08.08h.12l-1,11.42a4.72,4.72,0,0,0,.42,3,1.89,1.89,0,0,0,1.6.81,4.35,4.35,0,0,0,3.83-2.21,11.2,11.2,0,0,0,1.6-5.64q.33-7.46-2.81-11.63t-9.68-4.17a11.85,11.85,0,0,0-9.68,4.51q-3.66,4.51-4,11.76t2.93,11.61q3.29,4.28,9.42,4.27a14.89,14.89,0,0,0,3.47-.42,11.76,11.76,0,0,0,3-1.1l.76,2.09a11.21,11.21,0,0,1-3.35,1.28,18.05,18.05,0,0,1-3.93.46q-7.42,0-11.49-4.88c-2.7-3.25-3.94-7.68-3.69-13.31s1.87-10,4.87-13.44a14.8,14.8,0,0,1,11.75-5.17q7.41,0,11.36,4.88T752.32,264.36ZM732.54,266a8.92,8.92,0,0,0,.43,4.21,2.17,2.17,0,0,0,2.09,1.46,5.35,5.35,0,0,0,2.27-.49,5,5,0,0,0,1.91-1.72,2.66,2.66,0,0,1,0-.49,4.13,4.13,0,0,1,0-.57l.91-10.5a5.31,5.31,0,0,0-1.06-.37,4.91,4.91,0,0,0-1.16-.14,4.11,4.11,0,0,0-3.73,2.13A15.67,15.67,0,0,0,732.54,266Z"/><path class="cls-45" d="M775.78,271.57a5.17,5.17,0,0,0,3.37-1.18,3.61,3.61,0,0,0,1.45-2.9h3.46l0,.11a5.9,5.9,0,0,1-2.43,4.86,8.92,8.92,0,0,1-5.89,2.12,8.54,8.54,0,0,1-7-3,11.64,11.64,0,0,1-2.43-7.56v-.82a11.56,11.56,0,0,1,2.44-7.53,8.53,8.53,0,0,1,7-3,11.8,11.8,0,0,1,4.56.84,9.2,9.2,0,0,1,3.35,2.31l.18,4.69H780.8l-.84-3.32a5,5,0,0,0-1.76-1.08,6.78,6.78,0,0,0-2.42-.41,4.65,4.65,0,0,0-4.33,2.18,10.3,10.3,0,0,0-1.29,5.34V264a10.48,10.48,0,0,0,1.28,5.4A4.65,4.65,0,0,0,775.78,271.57Z"/><path class="cls-45" d="M803,271a6.86,6.86,0,0,1-6.19,3.54,6.75,6.75,0,0,1-5.37-2.21q-1.93-2.21-1.94-6.87v-9.44l-2.42-.54V253h6.27v12.5c0,2.26.33,3.81,1,4.65a3.67,3.67,0,0,0,3.1,1.27,6.26,6.26,0,0,0,3.39-.83,5.17,5.17,0,0,0,2-2.35V256.06l-2.83-.54V253h6.68v18.13l2.42.55v2.46h-5.88Z"/><path class="cls-45" d="M812.15,255.52V253h6.62l.37,3.07a7.38,7.38,0,0,1,2.22-2.54,5.15,5.15,0,0,1,3-.92,7.56,7.56,0,0,1,.93.07,5.61,5.61,0,0,1,.73.15l-.5,3.57-2.19-.11a4.36,4.36,0,0,0-2.56.71,4.59,4.59,0,0,0-1.6,2v12.13l3.18.55v2.46H812.15v-2.46l3.18-.55v-15.1Z"/><path class="cls-45" d="M844.86,259.68H842l-.62-2.54a5.17,5.17,0,0,0-1.77-1.07,7,7,0,0,0-2.41-.4,4.43,4.43,0,0,0-3,.9,2.83,2.83,0,0,0-1,2.17,2.43,2.43,0,0,0,.88,2,9.22,9.22,0,0,0,3.58,1.29,15.34,15.34,0,0,1,5.95,2.33,4.71,4.71,0,0,1,2,4,5.46,5.46,0,0,1-2.28,4.55,9.52,9.52,0,0,1-6,1.74A15.42,15.42,0,0,1,833,274a11.47,11.47,0,0,1-3.42-1.61l0-4.82h2.89l.72,2.83a4.2,4.2,0,0,0,1.81.88,10.1,10.1,0,0,0,2.33.27,5.5,5.5,0,0,0,3.22-.83,2.57,2.57,0,0,0,1.16-2.18,2.62,2.62,0,0,0-1-2.09,9.09,9.09,0,0,0-3.66-1.42,15.29,15.29,0,0,1-5.8-2.29,4.6,4.6,0,0,1-2-3.91,5.53,5.53,0,0,1,2.19-4.39,8.7,8.7,0,0,1,5.72-1.82,13.71,13.71,0,0,1,4.31.63,9.11,9.11,0,0,1,3.19,1.74Z"/><path class="cls-45" d="M849.08,271.71l3.18-.55v-15.1l-3.18-.54V253h7v18.13l3.19.55v2.46H849.08Zm7-24.09h-3.85V243.7h3.85Z"/><path class="cls-45" d="M878.4,259.68h-2.89l-.63-2.54a5.17,5.17,0,0,0-1.77-1.07,7,7,0,0,0-2.41-.4,4.42,4.42,0,0,0-3,.9,2.8,2.8,0,0,0-1,2.17,2.4,2.4,0,0,0,.88,2,9.16,9.16,0,0,0,3.57,1.29,15.4,15.4,0,0,1,6,2.33,4.73,4.73,0,0,1,1.95,4,5.48,5.48,0,0,1-2.27,4.55,9.54,9.54,0,0,1-6,1.74,15.54,15.54,0,0,1-4.32-.56,11.53,11.53,0,0,1-3.41-1.61l0-4.82h2.89l.72,2.83a4.09,4.09,0,0,0,1.81.88,10.1,10.1,0,0,0,2.33.27,5.44,5.44,0,0,0,3.21-.83,2.54,2.54,0,0,0,1.16-2.18,2.64,2.64,0,0,0-1-2.09,9.22,9.22,0,0,0-3.66-1.42,15.22,15.22,0,0,1-5.8-2.29,4.59,4.59,0,0,1-2-3.91,5.51,5.51,0,0,1,2.2-4.39,8.67,8.67,0,0,1,5.71-1.82,13.82,13.82,0,0,1,4.32.63A9,9,0,0,1,878.2,255Z"/><path class="cls-45" d="M889.34,247.94V253h4v2.86h-4v12.83a2.88,2.88,0,0,0,.61,2.09,2.23,2.23,0,0,0,1.63.6,9.81,9.81,0,0,0,1.14-.08c.43-.06.78-.12,1.07-.19l.53,2.64a5.1,5.1,0,0,1-1.61.57,10,10,0,0,1-2.11.23,5,5,0,0,1-3.73-1.42,6.15,6.15,0,0,1-1.38-4.44V255.89h-3.34V253h3.34v-5.09Z"/><path class="cls-45" d="M911.05,274.17c-.11-.58-.2-1.09-.27-1.55s-.11-.91-.14-1.36a9.29,9.29,0,0,1-2.78,2.37,8,8,0,0,1-8.58-.66,5.92,5.92,0,0,1-1.72-4.54,5.25,5.25,0,0,1,2.43-4.64,11.82,11.82,0,0,1,6.67-1.63h4v-2.47a3.8,3.8,0,0,0-1.17-2.93,4.59,4.59,0,0,0-3.26-1.09,8.25,8.25,0,0,0-2.55.37,4.92,4.92,0,0,0-1.79,1l-.41,2.22h-3v-4.1a11.22,11.22,0,0,1,3.49-1.84,13.88,13.88,0,0,1,4.45-.7,8.91,8.91,0,0,1,5.83,1.84,6.43,6.43,0,0,1,2.22,5.25v10.18c0,.27,0,.54,0,.8s0,.52,0,.78l1.56.22v2.46Zm-6.19-2.82a6.87,6.87,0,0,0,3.5-.91,5.72,5.72,0,0,0,2.26-2.21v-3.48h-4.1a5.86,5.86,0,0,0-3.74,1.1,3.27,3.27,0,0,0-1.37,2.65,2.63,2.63,0,0,0,.85,2.12A3.93,3.93,0,0,0,904.86,271.35Z"/><path class="cls-45" d="M923.71,272.76a10.52,10.52,0,0,1-3.54,7.48L918,278.8a12,12,0,0,0,1.38-2.87,10,10,0,0,0,.47-3.11v-3h3.85Z"/><path class="cls-45" d="M660.13,372.26l3.5-.6V355.05l-3.5-.6v-2.73h7.31l.27,3a7.79,7.79,0,0,1,2.88-2.56,8.89,8.89,0,0,1,4.09-.9,7.16,7.16,0,0,1,4,1.08,6.42,6.42,0,0,1,2.5,3.22,8.69,8.69,0,0,1,2.9-3.14,7.68,7.68,0,0,1,4.22-1.16,7,7,0,0,1,5.62,2.44c1.38,1.63,2.07,4.07,2.07,7.34v10.59l3.5.6V375H688.21v-2.71l3.5-.6V361q0-3.43-1.18-4.86a4.29,4.29,0,0,0-3.5-1.43,4.47,4.47,0,0,0-3.56,1.56,6.77,6.77,0,0,0-1.55,3.92v11.45l3.5.6V375H674.18v-2.71l3.5-.6V361a7.63,7.63,0,0,0-1.21-4.78,4.23,4.23,0,0,0-3.51-1.51,5.81,5.81,0,0,0-3.18.79,5.12,5.12,0,0,0-1.91,2.24v13.9l3.5.6V375H660.13Z"/><path class="cls-45" d="M717.71,375c-.13-.63-.23-1.2-.3-1.7s-.12-1-.15-1.5a10.5,10.5,0,0,1-3.06,2.61,7.9,7.9,0,0,1-3.92,1,7.8,7.8,0,0,1-5.53-1.77,6.54,6.54,0,0,1-1.89-5,5.77,5.77,0,0,1,2.68-5.1,13,13,0,0,1,7.34-1.8h4.36v-2.7a4.21,4.21,0,0,0-1.29-3.24,5.12,5.12,0,0,0-3.59-1.19,8.79,8.79,0,0,0-2.8.41,5.15,5.15,0,0,0-2,1.12l-.45,2.45h-3.27v-4.52a12.66,12.66,0,0,1,3.85-2,15.44,15.44,0,0,1,4.9-.76,9.77,9.77,0,0,1,6.4,2,7.08,7.08,0,0,1,2.45,5.78v11.19c0,.3,0,.6,0,.88s0,.58,0,.86l1.72.24V375Zm2.1-32.64a4.88,4.88,0,0,1-1.27,3.42,4.19,4.19,0,0,1-3.22,1.39,6.24,6.24,0,0,1-3.18-1,5.61,5.61,0,0,0-2.75-1,2,2,0,0,0-1.53.7,2.41,2.41,0,0,0-.64,1.68l-2.29-.56a5.16,5.16,0,0,1,1.25-3.47,4,4,0,0,1,3.21-1.47,6.55,6.55,0,0,1,3,1,6.43,6.43,0,0,0,2.92,1,2,2,0,0,0,1.53-.7,2.4,2.4,0,0,0,.64-1.71Zm-8.91,29.54a7.45,7.45,0,0,0,3.84-1,6.35,6.35,0,0,0,2.5-2.42v-3.83h-4.52a6.44,6.44,0,0,0-4.11,1.2,3.63,3.63,0,0,0-1.51,2.93,2.9,2.9,0,0,0,.94,2.33A4.36,4.36,0,0,0,710.9,371.87Z"/><path class="cls-45" d="M726.8,363.13a12.82,12.82,0,0,1,2.79-8.5,10.33,10.33,0,0,1,15.2,0,12.76,12.76,0,0,1,2.8,8.51v.47a12.75,12.75,0,0,1-2.79,8.51,10.38,10.38,0,0,1-15.21,0,12.76,12.76,0,0,1-2.79-8.5Zm4.23.47a11,11,0,0,0,1.56,6.1,5.59,5.59,0,0,0,9.2,0,10.9,10.9,0,0,0,1.57-6.1v-.47a11,11,0,0,0-1.57-6.08,5.58,5.58,0,0,0-9.21,0,11.11,11.11,0,0,0-1.55,6.08Z"/><path class="cls-45" d="M769.25,359h-3.18l-.69-2.8a5.87,5.87,0,0,0-1.94-1.17,7.59,7.59,0,0,0-2.65-.44,4.89,4.89,0,0,0-3.36,1,3.09,3.09,0,0,0-1.09,2.38,2.65,2.65,0,0,0,1,2.17,10,10,0,0,0,3.94,1.42,17,17,0,0,1,6.55,2.57,5.18,5.18,0,0,1,2.15,4.35,6,6,0,0,1-2.51,5,10.48,10.48,0,0,1-6.54,1.91,17.37,17.37,0,0,1-4.75-.61,12.66,12.66,0,0,1-3.76-1.78l0-5.3h3.18l.8,3.11a4.32,4.32,0,0,0,2,1,10.93,10.93,0,0,0,2.56.3,6,6,0,0,0,3.54-.91,2.83,2.83,0,0,0,1.28-2.4,2.89,2.89,0,0,0-1.07-2.3,10.1,10.1,0,0,0-4-1.57,16.81,16.81,0,0,1-6.38-2.51,5.07,5.07,0,0,1-2.15-4.3,6.07,6.07,0,0,1,2.42-4.83,9.56,9.56,0,0,1,6.29-2,15.15,15.15,0,0,1,4.74.69,9.92,9.92,0,0,1,3.51,1.91Z"/><path class="cls-45" d="M800,375c-.12-.63-.23-1.2-.3-1.7s-.12-1-.15-1.5a10.25,10.25,0,0,1-3.06,2.61,8.78,8.78,0,0,1-9.44-.73,6.54,6.54,0,0,1-1.89-5,5.78,5.78,0,0,1,2.67-5.1,13,13,0,0,1,7.34-1.8h4.36v-2.7a4.21,4.21,0,0,0-1.29-3.24,5.1,5.1,0,0,0-3.59-1.19,8.83,8.83,0,0,0-2.8.41,5.1,5.1,0,0,0-2,1.12l-.46,2.45h-3.26v-4.52a12.72,12.72,0,0,1,3.84-2,15.48,15.48,0,0,1,4.9-.76,9.75,9.75,0,0,1,6.4,2,7,7,0,0,1,2.45,5.78v11.19c0,.3,0,.6,0,.88s0,.58.06.86l1.72.24V375Zm-3.3-26.54h-3.42l-5.35-5.58.06-.13h4.95Zm-3.51,23.44a7.46,7.46,0,0,0,3.85-1,6.25,6.25,0,0,0,2.49-2.42v-3.83H795a6.44,6.44,0,0,0-4.11,1.2,3.64,3.64,0,0,0-1.52,2.93,2.91,2.91,0,0,0,1,2.33A4.35,4.35,0,0,0,793.18,371.87Z"/><path class="cls-45" d="M820,363.13a12.82,12.82,0,0,1,2.79-8.5,10.33,10.33,0,0,1,15.2,0,12.76,12.76,0,0,1,2.8,8.51v.47a12.75,12.75,0,0,1-2.79,8.51,10.38,10.38,0,0,1-15.21,0,12.76,12.76,0,0,1-2.79-8.5Zm4.23.47a11,11,0,0,0,1.56,6.1,5.59,5.59,0,0,0,9.2,0,10.9,10.9,0,0,0,1.57-6.1v-.47a11,11,0,0,0-1.57-6.08,5.58,5.58,0,0,0-9.21,0,11.11,11.11,0,0,0-1.55,6.08Z"/><path class="cls-45" d="M866,364.23a12.73,12.73,0,0,1-2.42,8.11,8,8,0,0,1-6.65,3.08,8.49,8.49,0,0,1-4-.87,7.37,7.37,0,0,1-2.79-2.57l-.39,3H846.1V344.78l-3.5-.6v-2.73h7.73v13a7.32,7.32,0,0,1,2.72-2.36,8.24,8.24,0,0,1,3.79-.82,7.74,7.74,0,0,1,6.71,3.44,15.49,15.49,0,0,1,2.4,9Zm-4.25-.46a13,13,0,0,0-1.46-6.53,4.85,4.85,0,0,0-4.47-2.51,5.57,5.57,0,0,0-3.3.94,6.74,6.74,0,0,0-2.14,2.54v10.27a6.62,6.62,0,0,0,2.16,2.56,5.69,5.69,0,0,0,3.32.94,5,5,0,0,0,4.44-2.13,9.84,9.84,0,0,0,1.45-5.62Z"/><path class="cls-45" d="M870.16,354.45v-2.73h7.29l.4,3.37a8.34,8.34,0,0,1,2.44-2.79,5.71,5.71,0,0,1,3.32-1,7.23,7.23,0,0,1,1,.08,5.46,5.46,0,0,1,.81.16l-.56,3.93-2.41-.13a4.87,4.87,0,0,0-2.81.78,5.07,5.07,0,0,0-1.76,2.21v13.34l3.5.6V375H870.16v-2.71l3.5-.6V355.05Z"/><path class="cls-45" d="M903.53,375c-.13-.63-.23-1.2-.3-1.7a12.7,12.7,0,0,1-.15-1.5,10.41,10.41,0,0,1-3.07,2.61,8.78,8.78,0,0,1-9.44-.73,6.54,6.54,0,0,1-1.89-5,5.77,5.77,0,0,1,2.68-5.1,13,13,0,0,1,7.33-1.8h4.36v-2.7a4.2,4.2,0,0,0-1.28-3.24,5.12,5.12,0,0,0-3.59-1.19,8.89,8.89,0,0,0-2.81.41,5.1,5.1,0,0,0-2,1.12L893,358.6h-3.27v-4.52a12.66,12.66,0,0,1,3.85-2,15.39,15.39,0,0,1,4.9-.76,9.77,9.77,0,0,1,6.4,2,7.08,7.08,0,0,1,2.45,5.78v11.19c0,.3,0,.6,0,.88a8.11,8.11,0,0,0,.05.86l1.72.24V375Zm-6.81-3.1a7.45,7.45,0,0,0,3.84-1,6.25,6.25,0,0,0,2.49-2.42v-3.83h-4.51a6.44,6.44,0,0,0-4.11,1.2,3.64,3.64,0,0,0-1.52,2.93,2.91,2.91,0,0,0,1,2.33A4.36,4.36,0,0,0,896.72,371.87Z"/><path class="cls-45" d="M918,364.7h-4.24v-21H918ZM918,375h-4.24v-4.39H918Z"/></g></svg>