<svg xmlns="http://www.w3.org/2000/svg" xmlns:xlink="http://www.w3.org/1999/xlink" viewBox="0 0 1124.64 651.26"><defs><style>.cls-1{fill:#e6f4ff;}.cls-2{fill:none;}.cls-3{fill:#8bb5d8;}.cls-4{fill:#329e89;}.cls-5{clip-path:url(#clip-path);}.cls-6{fill:#c5e2ff;}.cls-7{clip-path:url(#clip-path-2);}.cls-8{fill:#ef9777;}.cls-9{fill:#fff;}.cls-10{fill:#3a1e1c;}.cls-11{clip-path:url(#clip-path-3);}.cls-12{fill:#d88268;}.cls-13{fill:#d98369;}.cls-14{fill:#da8469;}.cls-15{fill:#db856a;}.cls-16{fill:#dc866b;}.cls-17{fill:#dd876b;}.cls-18{fill:#de886c;}.cls-19{fill:#df896d;}.cls-20{fill:#e08a6d;}.cls-21{fill:#e18b6e;}.cls-22{fill:#e28c6f;}.cls-23{fill:#e48d70;}.cls-24{fill:#e58d70;}.cls-25{fill:#e68e71;}.cls-26{fill:#e78f72;}.cls-27{fill:#e89072;}.cls-28{fill:#e99173;}.cls-29{fill:#ea9274;}.cls-30{fill:#eb9374;}.cls-31{fill:#ec9475;}.cls-32{fill:#ed9576;}.cls-33{fill:#ee9676;}.cls-34{fill:#3d201f;}.cls-35{fill:#b5574d;}.cls-36{fill:#b3514e;}.cls-37{fill:#312235;}.cls-38{fill:#fc999c;}.cls-39{fill:#f9aaaa;}.cls-40{fill:#196b5d;}.cls-41{fill:#208975;}.cls-42{fill:#8acec3;}.cls-43{fill:#5b1f3c;}.cls-44{fill:#fffdfd;}.cls-45{clip-path:url(#clip-path-4);}.cls-46{fill:#ce7061;}.cls-47{fill:#175b4e;}</style><clipPath id="clip-path"><path class="cls-1" d="M428.87,402.79a192.51,192.51,0,0,0-5.05-43.86c-32.69-73-109.23-124.15-198.45-124.15C106.43,234.78,10,325.78,10,438a193.16,193.16,0,0,0,5,43.87C47.74,554.84,124.28,606,213.5,606,332.44,606,428.87,515,428.87,402.79Z"/></clipPath><clipPath id="clip-path-2"><path class="cls-2" d="M541,351.81c-10.3-18-97.34-31.5-97.34-31.5S301.34,131.55,232.33,138s-80.25,56.59-80.25,56.59l-32.63,66.55C54.18,296,10.14,362.17,10.14,438c0,112.25,96.42,203.24,215.37,203.24,117.57,0,213.12-88.9,215.32-199.34C473.18,419.61,549,365.68,541,351.81Z"/></clipPath><clipPath id="clip-path-3"><path class="cls-2" d="M227.82,319.63l-2.36,9.78s-19.92,12.9-37.91,11.87c-5.35-.3,67.76,42.8,71.74,43s34.38-50.16,34.38-50.16-20.41-3.73-27.17-4S252,311.8,252,311.8Z"/></clipPath><clipPath id="clip-path-4"><path class="cls-2" d="M541.22-384.19c-8.62-15-92-32.76-90.33-32.5,3.75,5-153.08-187.41-218.34-181.34-69,6.43-80.25,56.59-80.25,56.59l-32.63,66.55C54.4-440,10.36-373.83,10.36-298c0,112.25,96.43,203.24,215.37,203.24,117.57,0,213.12-88.9,215.32-199.34C473.4-316.39,549.17-370.32,541.22-384.19Z"/></clipPath></defs><title>2-fala3</title><g id="Camada_5" data-name="Camada 5"><ellipse class="cls-3" cx="225.37" cy="438.02" rx="215.37" ry="203.24"/><path class="cls-4" d="M225.37,234.78c119,0,215.37,91,215.37,203.24S344.32,641.26,225.37,641.26,10,550.27,10,438s96.42-203.24,215.37-203.24m0-10a235.1,235.1,0,0,0-87.54,16.69A225.72,225.72,0,0,0,66.22,287,212.37,212.37,0,0,0,17.8,354.82a203.34,203.34,0,0,0,0,166.4A212.3,212.3,0,0,0,66.22,589a225.89,225.89,0,0,0,71.61,45.57,238.05,238.05,0,0,0,175.08,0A225.94,225.94,0,0,0,384.53,589a212.12,212.12,0,0,0,48.41-67.79,203.34,203.34,0,0,0,0-166.4A212.19,212.19,0,0,0,384.53,287a225.76,225.76,0,0,0-71.62-45.57,235.1,235.1,0,0,0-87.54-16.69Z"/><path class="cls-1" d="M428.87,402.79a192.51,192.51,0,0,0-5.05-43.86c-32.69-73-109.23-124.15-198.45-124.15C106.43,234.78,10,325.78,10,438a193.16,193.16,0,0,0,5,43.87C47.74,554.84,124.28,606,213.5,606,332.44,606,428.87,515,428.87,402.79Z"/><g class="cls-5"><circle class="cls-1" cx="306.79" cy="408.71" r="104.58"/><circle class="cls-1" cx="306.79" cy="408.71" r="100.64"/><circle class="cls-1" cx="306.79" cy="408.71" r="98.66"/><circle class="cls-1" cx="306.79" cy="408.71" r="96.69"/><circle class="cls-1" cx="306.79" cy="408.71" r="94.72"/><circle class="cls-1" cx="306.79" cy="408.71" r="92.74"/><circle class="cls-1" cx="306.79" cy="408.71" r="90.77"/><circle class="cls-1" cx="306.79" cy="408.71" r="88.8"/><circle class="cls-1" cx="306.79" cy="408.71" r="86.82"/><circle class="cls-1" cx="306.79" cy="408.71" r="84.85"/><circle class="cls-1" cx="306.79" cy="408.71" r="82.88"/><circle class="cls-1" cx="306.79" cy="408.71" r="80.9"/><circle class="cls-1" cx="306.79" cy="408.71" r="78.93"/><circle class="cls-1" cx="306.79" cy="408.71" r="76.96"/><circle class="cls-1" cx="306.79" cy="408.71" r="74.98"/><circle class="cls-1" cx="306.79" cy="408.71" r="73.01"/><circle class="cls-1" cx="306.79" cy="408.71" r="71.04"/><circle class="cls-1" cx="306.79" cy="408.71" r="69.06"/><circle class="cls-1" cx="306.79" cy="408.71" r="67.09"/><circle class="cls-1" cx="306.79" cy="408.71" r="65.12"/><circle class="cls-1" cx="306.79" cy="408.71" r="63.15"/><circle class="cls-1" cx="306.79" cy="408.71" r="61.17"/><circle class="cls-1" cx="306.79" cy="408.71" r="59.2"/><circle class="cls-1" cx="306.79" cy="408.71" r="57.23"/><circle class="cls-1" cx="306.79" cy="408.71" r="55.25"/><circle class="cls-1" cx="306.79" cy="408.71" r="53.28"/><circle class="cls-1" cx="306.79" cy="408.71" r="51.31"/><circle class="cls-1" cx="306.79" cy="408.71" r="49.33"/><circle class="cls-1" cx="306.79" cy="408.71" r="47.36"/><circle class="cls-1" cx="306.79" cy="408.71" r="45.39"/><circle class="cls-1" cx="306.79" cy="408.71" r="43.41"/><circle class="cls-1" cx="306.79" cy="408.71" r="41.44"/><circle class="cls-1" cx="306.79" cy="408.71" r="39.47"/><circle class="cls-1" cx="306.79" cy="408.71" r="37.49"/><circle class="cls-1" cx="306.79" cy="408.71" r="35.52"/><circle class="cls-1" cx="306.79" cy="408.71" r="33.55"/><circle class="cls-1" cx="306.79" cy="408.71" r="31.57"/><circle class="cls-1" cx="306.79" cy="408.71" r="29.6"/><circle class="cls-1" cx="306.79" cy="408.71" r="27.63"/><circle class="cls-1" cx="306.79" cy="408.71" r="25.65"/><circle class="cls-1" cx="306.79" cy="408.71" r="23.68"/><circle class="cls-1" cx="306.79" cy="408.71" r="21.71"/><circle class="cls-1" cx="306.79" cy="408.71" r="19.73"/><circle class="cls-1" cx="306.79" cy="408.71" r="17.76"/><circle class="cls-1" cx="306.79" cy="408.71" r="15.79"/><circle class="cls-1" cx="306.79" cy="408.71" r="13.81"/><circle class="cls-1" cx="306.79" cy="408.71" r="11.84"/><circle class="cls-1" cx="306.79" cy="408.71" r="9.87"/><circle class="cls-1" cx="306.79" cy="408.71" r="7.89"/><circle class="cls-1" cx="306.79" cy="408.71" r="5.92"/><circle class="cls-1" cx="306.79" cy="408.71" r="3.95"/><circle class="cls-1" cx="306.79" cy="408.71" r="1.97"/></g><path class="cls-3" d="M787.8,44.22c-174.89,0-318.64,118.13-335.23,269.27L353,353.14s-6.51,2.41-5.85,11.74a12.7,12.7,0,0,0,7.43,10.89L458.82,407C492,541,626.68,641.26,787.8,641.26c186,0,336.84-133.65,336.84-298.52S973.83,44.22,787.8,44.22Z"/><path class="cls-6" d="M787.75,0C612.85,0,469.11,118.13,452.52,269.27L353,308.92s-6.51,2.41-5.86,11.74a12.7,12.7,0,0,0,7.44,10.88l104.21,31.28C492,496.78,626.63,597,787.75,597c186,0,336.84-133.65,336.84-298.52S973.78,0,787.75,0Z"/><g class="cls-7"><path class="cls-8" d="M534.35,352.94a18,18,0,0,0-2.21-1.87,19.39,19.39,0,0,0-1.77-1.13,22.73,22.73,0,0,0-4.25-1.84,17.85,17.85,0,0,0-2.86-.67s-45.4,6.11-38.5,3-1.63-3.79-1.63-3.79-21.75,4.67-30,9.17c-5.48,3-12.26,25.5-12.26,25.5l12.28,14.26s13.81-9.68,18.89-14.76c3.66-3.66,20.55-3.28,33.25-5.34,4.95-.8,12.12-3.69,14.92-4.36,3.25-.78,3.54-3.18,6.58-5.16a31.06,31.06,0,0,0,4.82-3.82c1.7-1.67,1.32-1.57,1.86-3.17.28-.79,1.74-2.75,1.71-3.67A3.43,3.43,0,0,0,534.35,352.94Zm-19.63,13.12s-16.06,2.81-17-.63c-2.53,1,21.79-1.33,28.2-3.88Z"/><path class="cls-9" d="M153.42,564.7s24.48-21.86,24.48-27-14.35-8.35-14.35-8.35l-20.41,29.5,9.58,7.33Z"/><path class="cls-10" d="M176.08,358.82s-46.9-131.84,7.44-198.9c0,0,58.11-39.81,101.53,7s13,178.54,13,178.54Z"/><g class="cls-11"><polygon class="cls-12" points="293.6 311.8 293.63 312.12 182.21 322.49 182.21 311.8 293.6 311.8"/><polygon class="cls-12" points="293.63 312.12 293.67 312.49 293.67 312.93 182.21 323.3 182.21 322.49 293.63 312.12"/><polygon class="cls-13" points="293.67 313.74 182.21 324.11 182.21 323.3 293.67 312.93 293.67 313.74"/><polygon class="cls-14" points="293.67 314.55 182.21 324.93 182.21 324.11 293.67 313.74 293.67 314.55"/><polygon class="cls-15" points="293.67 315.37 182.21 325.74 182.21 324.93 293.67 314.55 293.67 315.37"/><polygon class="cls-16" points="293.67 316.18 182.21 326.55 182.21 325.74 293.67 315.37 293.67 316.18"/><polygon class="cls-17" points="293.67 316.99 182.21 327.37 182.21 326.55 293.67 316.18 293.67 316.99"/><polygon class="cls-18" points="293.67 317.81 182.21 328.18 182.21 327.37 293.67 316.99 293.67 317.81"/><polygon class="cls-19" points="293.67 318.62 182.21 328.99 182.21 328.18 293.67 317.81 293.67 318.62"/><polygon class="cls-20" points="293.67 319.43 182.21 329.81 182.21 328.99 293.67 318.62 293.67 319.43"/><polygon class="cls-21" points="293.67 320.24 182.21 330.62 182.21 329.81 293.67 319.43 293.67 320.24"/><polygon class="cls-22" points="293.67 321.06 182.21 331.43 182.21 330.62 293.67 320.24 293.67 321.06"/><polygon class="cls-23" points="293.67 321.87 182.21 332.24 182.21 331.43 293.67 321.06 293.67 321.87"/><polygon class="cls-24" points="293.67 322.68 182.21 333.06 182.21 332.24 293.67 321.87 293.67 322.68"/><polygon class="cls-25" points="293.67 323.5 182.21 333.87 182.21 333.06 293.67 322.68 293.67 323.5"/><polygon class="cls-26" points="293.67 324.31 182.21 334.68 182.21 333.87 293.67 323.5 293.67 324.31"/><polygon class="cls-27" points="293.67 325.12 182.21 335.5 182.21 334.68 293.67 324.31 293.67 325.12"/><polygon class="cls-28" points="293.67 325.94 182.21 336.31 182.21 335.5 293.67 325.12 293.67 325.94"/><polygon class="cls-29" points="293.67 326.75 182.21 337.12 182.21 336.31 293.67 325.94 293.67 326.75"/><polygon class="cls-30" points="293.67 327.56 182.21 337.94 182.21 337.12 293.67 326.75 293.67 327.56"/><polygon class="cls-31" points="293.67 328.38 182.21 338.75 182.21 337.94 293.67 327.56 293.67 328.38"/><polygon class="cls-32" points="293.67 329.19 182.21 339.56 182.21 338.75 293.67 328.38 293.67 329.19"/><polygon class="cls-33" points="293.67 330 182.21 340.38 182.21 339.56 293.67 329.19 293.67 330"/><polygon class="cls-8" points="293.67 330.82 182.21 341.19 182.21 340.38 293.67 330 293.67 330.82"/><polygon class="cls-8" points="184.24 384.38 182.21 362.56 182.21 341.19 293.67 330.82 293.67 384.38 184.24 384.38"/></g><path class="cls-8" d="M182.49,220.71s-.89,110.78,64.76,101.68c35.49-4.92,47.51-40.41,40.88-70.92a191.55,191.55,0,0,1-3.79-46.76s-4.08-29.37-38.7-20.31S196,190.12,196,190.12,180.43,193.3,182.49,220.71Z"/><path class="cls-10" d="M177,226.89s25.09-2.78,36.43-7.67l.58-15.39s2.55,9.93,4.85,12.4,22.88-.73,32-3.58,4.8-14.7,4.8-14.7L260,209.8s28.58,3.45,28.74-.93-3.86-24.71-12.21-28.74-73.88-4.44-83.08,4.1S177.42,214.69,177,226.89Z"/><ellipse class="cls-34" cx="265.84" cy="242.56" rx="3.92" ry="3.17" transform="translate(-22.23 26.87) rotate(-5.56)"/><ellipse class="cls-34" cx="226.77" cy="246.26" rx="3.92" ry="3.17" transform="matrix(1, -0.1, 0.1, 1, -22.77, 23.11)"/><path class="cls-35" d="M250.44,277a15.34,15.34,0,0,1-5.17-.8l.35-.94c5.16,1.91,13.88,0,15.56-3.34,1.13-2.27-1.44-4.53-3.78-6-6.89-4.38-5.32-8.94-5.25-9.13l.94.34c-.05.16-1.33,4,4.84,7.94,4.88,3.11,4.95,5.69,4.14,7.32C260.61,275.31,255.26,277,250.44,277Z"/><path class="cls-36" d="M264.84,287.05c-18.37,4.76-37.46.2-36.73,1.53,0,0,1.76,14.25,18,14.15C262.86,302.62,264.84,287.05,264.84,287.05Z"/><path class="cls-9" d="M219.27,331.75s22.52,13.66,36.94,11.81c6.84-.88,19-14,19-14l13,129.73-49.8,2.24Z"/><path class="cls-37" d="M172.55,555.72s-17.61,72.57-15.63,92.45,4.68,52.17,34,145.94c0,0,78.25,32.39,150.2-.8,0,0,6.29-1.86,10.91-43.82S364.46,606.9,343.32,562,172.55,555.72,172.55,555.72Z"/><path class="cls-10" d="M274.7,219.71s-4.74-6.2-9.75-3.1a.89.89,0,0,0-.58,1.12c.25.83,1.91-1.64,9.83,2.73C274.2,220.46,274.7,220.75,274.7,219.71Z"/><path class="cls-10" d="M214.82,224.15s4.75-6.21,9.75-3.11a.89.89,0,0,1,.58,1.12c-.25.84-1.91-1.63-9.83,2.73C215.32,224.89,214.82,225.18,214.82,224.15Z"/><path class="cls-9" d="M262.51,287.6s-.65,3.21-2,4.13-15.62,2-24.11.95c-5.38-.66-6.4-3.32-6.26-4.3C230.16,288.38,249,290.65,262.51,287.6Z"/><path class="cls-38" d="M249.27,302.5s-1.22-9.7-18.49-7.16C230.78,295.34,234.91,304.19,249.27,302.5Z"/><ellipse class="cls-39" cx="280.9" cy="252.77" rx="3.62" ry="6.23" transform="translate(5.69 511.72) rotate(-85.24)"/><ellipse class="cls-39" cx="214.68" cy="262.02" rx="6.23" ry="3.62" transform="translate(-52.56 53.87) rotate(-12.76)"/><path class="cls-40" d="M333.45,438.84l41.91,37.38s10.59,6.85,14.41,7.27c4,.44,11.28-4.8,11.28-4.8l67.67-73.64s-37.64-24.88-38-28.5-33.25,46.55-33.25,46.55-2.17-2.74-7.67-1.67c-3,.59-1.59,5.6-7.66-.14-3.74-3.54-9.95-8.73-15.17-16.11-29.22-41.33-56.53-70.83-58.39-72.35s-11-6.17-14.23-4.65-19.19,1.41-19.19,1.41L277.8,445,219.27,331.75s-12.56,4.33-26.08,2.61S157,338,157,338s-10.24,27.71-17.55,29.81-11,20.25-11,20.25c-2.17,2.65-10.18,14.08-19.61,27.72h0s-37.48,45.93-43,49.91-2.65,13.44-2.65,13.44L142,562.9l27.83-35.51c-7.13-.5-43.13-49.77-43.13-49.77,2.53-4.53,2.3-8.26,1.56-10.72,17.3-18.49,42.63-47.18,42.63-47.18.41,4.06,6.47,16.8,16.93,32.51s9.69,42.14,9.69,42.14c-14.94,21.68-25,61.35-25,61.35s1,7.92,26.28,20.54c11,5.51,46.51,16.31,46.51,16.31l39.46-43.28,50.78,35.64s9.12-9.13,8.21-18.27-18.44-63.5-18.44-63.5-1.89-19,.27-24.66S333.45,438.84,333.45,438.84Z"/><path class="cls-12" d="M153.42,564.7s12.2,10.7,14.67,8.23l12.43-35.19S165,549,153.42,564.7Z"/><path class="cls-8" d="M170.77,565.87s5.9-5.86,14.86,2.8,9.68,9.26,9.68,9.26,6.95,2.88,7.52-4.63c0,0,8.8,1.29,6.82-8.39,0,0,6.14-4.42.71-12,0,0,5.51-1.06,2.24-11.47s-24-20.46-24-20.46-9.94-3.49-10.82,8.07c0,0-7.16.38-4.66,10.38,0,0-4.65,4.2-3.65,8.77s-.11,3.66-.11,3.66S162.68,559.29,170.77,565.87Z"/><path class="cls-35" d="M202.45,573.63c-.11-.14-11.87-13.67-24.48-19.79l.43-.9c12.8,6.21,24.69,19.9,24.81,20Z"/><path class="cls-35" d="M209.31,565.27c-.17-.16-17.14-16.1-29.48-22.75l.48-.88c12.45,6.72,29.52,22.74,29.69,22.9Z"/><path class="cls-35" d="M210,553.19c-.15-.18-15.21-17.9-27.55-21.76l.3-.95c12.61,3.94,27.39,21.33,28,22.07Z"/><path class="cls-41" d="M219.27,331.75S195.12,343.4,182,363.18l44.38,12.67s-15.11,14.86-14.79,18.07,66.17,51,66.17,51,33.54-61.51,29.81-64.56-24.29-6.81-24.29-6.81S302.8,346,306.19,345.64s-28-16.36-31-16.05,2.52,110.28,2.52,110.28l-.15,2.38Z"/><path class="cls-37" d="M277.8,445s9.26,81.81,7,104.33"/><circle class="cls-42" cx="291.54" cy="469.64" r="5.33"/><circle class="cls-42" cx="293.67" cy="507.64" r="5.33"/><path class="cls-43" d="M173.7,402.9l-1-.23a76.61,76.61,0,0,0-11.55-60.85l.82-.57A77.63,77.63,0,0,1,173.7,402.9Z"/><path class="cls-43" d="M329,405.1l-1-.09c1.1-12.3-3.36-24.58-7.3-35.41-4.66-12.82-9.95-27.35-20.07-37.88l.72-.69c10.27,10.68,15.59,25.32,20.29,38.23C325.59,380.19,330.1,392.58,329,405.1Z"/><path class="cls-43" d="M146.21,375.14a27.73,27.73,0,0,0-3.49-6.94l.82-.57a28.39,28.39,0,0,1,3.62,7.19Z"/><path class="cls-43" d="M135.93,390.8a34.62,34.62,0,0,0-6.08-.84l.05-1a36.56,36.56,0,0,1,6.25.85Z"/><path class="cls-43" d="M334.33,439.12l-1-.11a74.31,74.31,0,0,0,.43-11.93l1,0A75,75,0,0,1,334.33,439.12Z"/><path class="cls-43" d="M400.28,437.11a74.37,74.37,0,0,0-2.84-11.6l.95-.31A74,74,0,0,1,401.26,437Z"/><path class="cls-43" d="M384.94,437.09l-1-.15a60.44,60.44,0,0,0,.75-10.74l1,0A61.34,61.34,0,0,1,384.94,437.09Z"/><path class="cls-43" d="M200.3,494.73l-.52-.85a60.15,60.15,0,0,1,11.59-5.54l.34.94A58.87,58.87,0,0,0,200.3,494.73Z"/><path class="cls-43" d="M127.66,467.41c-2.33,0-10-.2-12.54-2.75l.7-.71c2.65,2.65,12.37,2.45,12.47,2.45l0,1Z"/><path class="cls-43" d="M118.72,481.06v-1c3.43,0,7.7-2.83,7.74-2.86l.56.83C126.83,478.16,122.45,481.06,118.72,481.06Z"/><path class="cls-44" d="M429.8,380.81s2.67-5,6.17-7l37.67,21.76L464.3,407Z"/><path class="cls-35" d="M468.32,355l-.7-.71c1.94-1.94,15-3.57,16.44-3.75l.12,1C478.51,352.26,469.61,353.75,468.32,355Z"/><path class="cls-35" d="M494,354.74c-1.39,0-1.52-.19-1.63-.35a.58.58,0,0,1,.09-.77l.71.71a.41.41,0,0,0,.08-.36.36.36,0,0,0-.2-.27c1.85.69,34.51-3.93,36.74-4.53v0c.14,0,.57-.05.68.37l-.28.58c-.42.2-11.19,1.79-18.63,2.79C500.61,354.34,496,354.74,494,354.74Z"/><path class="cls-35" d="M496.65,358.81a13.91,13.91,0,0,1-4-.37l.37-.93c3.79,1.53,39.32-2.56,40.89-4.7a.17.17,0,0,0,0,.1l1,.07a1.12,1.12,0,0,1-.59.8C531,355.82,506.75,358.81,496.65,358.81Z"/><path class="cls-35" d="M506.85,368c-3.94,0-8-.56-9.1-1.28a.83.83,0,0,1-.47-1l1,.29a.28.28,0,0,0,0-.22c.26.31,2.34.86,5.94,1.08,4.89.3,9.1-.22,10.23-1.25l.15-.1,17-6.81a8.07,8.07,0,0,1,2,0,.64.64,0,0,1,.41.42c.14.44-.19,1.19-1,2.24l-.81-.59a7.23,7.23,0,0,0,.71-1.15c-.32,0-.81,0-1.25,0L515,366.49C513.65,367.62,510.28,368,506.85,368Z"/><path class="cls-35" d="M470.51,365.43l-.41-.91c.2-.09,4.9-2.33,4.62-8.69l1,0A10,10,0,0,1,470.51,365.43Z"/><path class="cls-35" d="M457.94,373l-.94-.33c.14-.4,3.66-9.84,21.35-8.16.08,0,3.77.61,5.41-1l.08-.08.11,0c.25-.09,6.15-2.07,9.66.61l-.61.79c-2.85-2.18-7.85-.74-8.62-.49-2,1.9-6,1.25-6.16,1.22C461.34,363.85,458,372.88,457.94,373Z"/><path class="cls-35" d="M498,368.5l-.92-.39c.32-.77.61-2,.29-2.32-.07-.07-6.06-7.14-5.25-8.56a17.41,17.41,0,0,0,.18-4.89l1-.06c.05.74.23,4.49-.31,5.44,0,.89,4.21,6.49,5.08,7.36S498.17,368.09,498,368.5Z"/></g><g class="cls-45"><path class="cls-37" d="M190.06,293.79s-6.77,14.38-4.3,22.7S203,330.22,203,330.22s37.07,22.44,68.87,18.45,21.38-11,21.38-11l-55.79-45.94Z"/><path class="cls-37" d="M298.07,290.25s-5.18,10.44-3.05,17.43,15.57,10.15,15.57,10.15l10.35.39,104,5.36s7.43-21.13-51.76-33.44S298.07,290.25,298.07,290.25Z"/><path class="cls-46" d="M202.31,32.44l2.37,26.31s-29.12,70.66-9.27,203l-6,40.43s24.06,11.27,41.43,15.9a72.35,72.35,0,0,0,32,1.2s-39.64-43.48-45.34-49.63L267.18,29.2S238.69-28.3,202.31,32.44Z"/><path class="cls-46" d="M284.66,30.63s-25.76,70.54,15.46,204.69c0,0,5.91,55.23-2.05,54.93s81.06,6.76,86.9,7-44.4-20.8-48.8-31.06S329.88,65,335.84,47.71a235,235,0,0,0,8.73-34.22S289.57,19.91,284.66,30.63Z"/><path class="cls-37" d="M172.77-180.28s-17.61,72.57-15.62,92.45,4.67,52.17,34,145.94c0,0,78.26,32.39,150.2-.8,0,0,6.29-1.86,10.91-43.82S364.68-129.1,343.54-174,172.77-180.28,172.77-180.28Z"/></g><path class="cls-47" d="M567.57,238.49h-9v9.15H569l.14-3.3h1.6v4.83H554.27v-1.34l2.46-.19v-19l-2.46-.2v-1.34h16.34V232H569l-.14-3.3H558.54V237h9Z"/><path class="cls-47" d="M586,237.84h-1.48l-.22-2.31a4.57,4.57,0,0,0-1.71-1.11,6.81,6.81,0,0,0-2.39-.39,4.44,4.44,0,0,0-3,.85,2.6,2.6,0,0,0-1,2,2.38,2.38,0,0,0,.85,1.88,8.36,8.36,0,0,0,3.41,1.3,11.15,11.15,0,0,1,4.38,1.78,3.66,3.66,0,0,1,1.45,3.06,4,4,0,0,1-1.66,3.31,7,7,0,0,1-4.38,1.26,10.39,10.39,0,0,1-3.3-.5,8,8,0,0,1-2.59-1.43v-3.3h1.47l.26,2.33a4.28,4.28,0,0,0,1.84,1,8.13,8.13,0,0,0,2.32.33,5,5,0,0,0,3.11-.87,2.56,2.56,0,0,0,1.13-2.09,2.67,2.67,0,0,0-.95-2,7.77,7.77,0,0,0-3.41-1.41,11.34,11.34,0,0,1-4.34-1.69,3.45,3.45,0,0,1-1.41-2.94,3.94,3.94,0,0,1,1.59-3.17,6.45,6.45,0,0,1,4.19-1.29,9.35,9.35,0,0,1,3.29.55,6.51,6.51,0,0,1,2.43,1.49Z"/><path class="cls-47" d="M589.16,234.13v-1.34h4l.22,2.54a5.74,5.74,0,0,1,5.17-2.84,5.34,5.34,0,0,1,4.61,2.35,10.65,10.65,0,0,1,1.67,6.27v.32a9.47,9.47,0,0,1-1.67,5.87,5.46,5.46,0,0,1-4.58,2.18,6.68,6.68,0,0,1-3-.65,5.62,5.62,0,0,1-2.12-1.87v7l2.47.2v1.34h-6.73v-1.34l2.46-.2V234.33Zm13.83,7a9.35,9.35,0,0,0-1.24-5.08,4,4,0,0,0-3.63-2,4.81,4.81,0,0,0-3,.87,5.4,5.4,0,0,0-1.72,2.26v7.87a5,5,0,0,0,1.8,2.12,5.18,5.18,0,0,0,2.93.78,4.12,4.12,0,0,0,3.61-1.79,8.21,8.21,0,0,0,1.23-4.74Z"/><path class="cls-47" d="M615,249.48a6.59,6.59,0,0,1-5.12-2.26,8.31,8.31,0,0,1-2-5.76v-.83a8.55,8.55,0,0,1,2-5.83,6.24,6.24,0,0,1,4.88-2.31,6.07,6.07,0,0,1,4.74,1.9,7.3,7.3,0,0,1,1.72,5.09V241H609.64v.44a7.27,7.27,0,0,0,1.47,4.63A4.73,4.73,0,0,0,615,248a8,8,0,0,0,2.88-.47,5.87,5.87,0,0,0,2-1.35l.77,1.24a6.45,6.45,0,0,1-2.33,1.54A9.16,9.16,0,0,1,615,249.48ZM614.74,234a4.33,4.33,0,0,0-3.37,1.54,6.56,6.56,0,0,0-1.6,3.85l0,.07h9.6V239a5.23,5.23,0,0,0-1.26-3.57A4.27,4.27,0,0,0,614.74,234Z"/><path class="cls-47" d="M628.36,232.79l.23,2.72v.2a5.79,5.79,0,0,1,1.9-2.37,4.78,4.78,0,0,1,2.85-.85,3.64,3.64,0,0,1,.67,0,3.89,3.89,0,0,1,.54.11l-.24,1.7-1.35-.09a4.09,4.09,0,0,0-2.8,1,5.22,5.22,0,0,0-1.57,2.64v9.78l2.47.19v1.34h-6.74v-1.34l2.47-.19V234.33l-2.47-.2v-1.34h4Z"/><path class="cls-47" d="M636.6,240.73a8.81,8.81,0,0,1,2-5.93,7.14,7.14,0,0,1,10.52,0,8.81,8.81,0,0,1,2,5.93v.5a8.86,8.86,0,0,1-2,6,7.18,7.18,0,0,1-10.53,0,8.81,8.81,0,0,1-2-6Zm1.81.5a7.81,7.81,0,0,0,1.44,4.79,4.72,4.72,0,0,0,4,1.94,4.68,4.68,0,0,0,4-1.94,7.81,7.81,0,0,0,1.44-4.79v-.5a7.79,7.79,0,0,0-1.45-4.75,5,5,0,0,0-8,0,7.79,7.79,0,0,0-1.44,4.75Z"/><path class="cls-47" d="M661.57,241.11a10.65,10.65,0,0,1,1.66-6.27,5.33,5.33,0,0,1,4.62-2.35,5.58,5.58,0,0,1,5,2.72l.18-2.42h1.59v21.13l2.47.2v1.34h-6.75v-1.34l2.46-.2V247a5.66,5.66,0,0,1-2.09,1.83,6.41,6.41,0,0,1-2.92.63,5.43,5.43,0,0,1-4.59-2.19,9.46,9.46,0,0,1-1.66-5.86Zm1.83.32a8.46,8.46,0,0,0,1.19,4.75,4,4,0,0,0,3.58,1.78,4.88,4.88,0,0,0,4.66-2.87v-8a5.9,5.9,0,0,0-1.76-2.21,4.62,4.62,0,0,0-2.87-.86,3.94,3.94,0,0,0-3.59,2,9.64,9.64,0,0,0-1.21,5.11Z"/><path class="cls-47" d="M690.92,246.47a5.6,5.6,0,0,1-2.11,2.23,6.15,6.15,0,0,1-3.16.78,5,5,0,0,1-4-1.75q-1.47-1.75-1.47-5.45v-7.95l-2-.2v-1.34H682v9.52a7.06,7.06,0,0,0,1,4.3,3.47,3.47,0,0,0,2.9,1.3,5.31,5.31,0,0,0,3.27-.91,4.73,4.73,0,0,0,1.72-2.51V234.33l-2.33-.2v-1.34h4.15v14.85l2.19.19v1.34h-3.78Z"/><path class="cls-47" d="M704.76,249.48a6.57,6.57,0,0,1-5.12-2.26,8.32,8.32,0,0,1-2-5.76v-.83a8.6,8.6,0,0,1,2-5.83,6.27,6.27,0,0,1,4.88-2.31,6.07,6.07,0,0,1,4.74,1.9,7.3,7.3,0,0,1,1.73,5.09V241H699.41v.44a7.27,7.27,0,0,0,1.48,4.63,4.7,4.7,0,0,0,3.87,1.87,7.88,7.88,0,0,0,2.87-.47,5.91,5.91,0,0,0,2-1.35l.77,1.24a6.54,6.54,0,0,1-2.33,1.54A9.16,9.16,0,0,1,704.76,249.48ZM704.51,234a4.31,4.31,0,0,0-3.36,1.54,6.5,6.5,0,0,0-1.6,3.85l0,.07h9.6V239a5.23,5.23,0,0,0-1.26-3.57A4.29,4.29,0,0,0,704.51,234Z"/><path class="cls-47" d="M729,249.48a6.57,6.57,0,0,1-5.12-2.26,8.32,8.32,0,0,1-2-5.76v-.83a8.55,8.55,0,0,1,2-5.83,6.27,6.27,0,0,1,4.88-2.31,6.07,6.07,0,0,1,4.74,1.9,7.3,7.3,0,0,1,1.73,5.09V241H723.63v.44a7.22,7.22,0,0,0,1.48,4.63A4.7,4.7,0,0,0,729,248a7.91,7.91,0,0,0,2.87-.47,5.77,5.77,0,0,0,2-1.35l.78,1.24a6.63,6.63,0,0,1-2.33,1.54A9.16,9.16,0,0,1,729,249.48ZM728.73,234a4.31,4.31,0,0,0-3.36,1.54,6.5,6.5,0,0,0-1.6,3.85l0,.07h9.6V239a5.23,5.23,0,0,0-1.26-3.57A4.29,4.29,0,0,0,728.73,234Z"/><path class="cls-47" d="M750.32,237.84h-1.48l-.22-2.31a4.57,4.57,0,0,0-1.71-1.11,6.81,6.81,0,0,0-2.39-.39,4.44,4.44,0,0,0-3,.85,2.6,2.6,0,0,0-1,2,2.38,2.38,0,0,0,.85,1.88,8.36,8.36,0,0,0,3.41,1.3,11.15,11.15,0,0,1,4.38,1.78,3.66,3.66,0,0,1,1.45,3.06,4,4,0,0,1-1.66,3.31,7,7,0,0,1-4.38,1.26,10.5,10.5,0,0,1-3.31-.5,8.07,8.07,0,0,1-2.58-1.43v-3.3h1.47l.26,2.33a4.28,4.28,0,0,0,1.84,1,8.08,8.08,0,0,0,2.32.33,5,5,0,0,0,3.1-.87,2.54,2.54,0,0,0,1.14-2.09,2.67,2.67,0,0,0-1-2,7.77,7.77,0,0,0-3.41-1.41,11.34,11.34,0,0,1-4.34-1.69,3.45,3.45,0,0,1-1.41-2.94,3.94,3.94,0,0,1,1.59-3.17,6.45,6.45,0,0,1,4.19-1.29,9.35,9.35,0,0,1,3.29.55,6.51,6.51,0,0,1,2.43,1.49Z"/><path class="cls-47" d="M765.83,237.84h-1.48l-.21-2.31a4.69,4.69,0,0,0-1.72-1.11A6.75,6.75,0,0,0,760,234a4.45,4.45,0,0,0-3,.85,2.6,2.6,0,0,0-1,2,2.39,2.39,0,0,0,.86,1.88,8.29,8.29,0,0,0,3.41,1.3,11,11,0,0,1,4.37,1.78,3.67,3.67,0,0,1,1.46,3.06,4,4,0,0,1-1.66,3.31,7.07,7.07,0,0,1-4.38,1.26,10.45,10.45,0,0,1-3.31-.5,8.07,8.07,0,0,1-2.58-1.43v-3.3h1.47l.25,2.33a4.34,4.34,0,0,0,1.84,1,8.2,8.2,0,0,0,2.33.33,5,5,0,0,0,3.1-.87,2.54,2.54,0,0,0,1.14-2.09,2.67,2.67,0,0,0-1-2,7.82,7.82,0,0,0-3.41-1.41,11.27,11.27,0,0,1-4.34-1.69,3.46,3.46,0,0,1-1.42-2.94,3.94,3.94,0,0,1,1.59-3.17,6.46,6.46,0,0,1,4.2-1.29,9.35,9.35,0,0,1,3.29.55,6.67,6.67,0,0,1,2.43,1.49Z"/><path class="cls-47" d="M780.77,249.17c-.12-.56-.2-1-.25-1.44a10,10,0,0,1-.08-1.23,7.2,7.2,0,0,1-2.42,2.14,6.89,6.89,0,0,1-3.41.84,5.21,5.21,0,0,1-3.72-1.24,4.38,4.38,0,0,1-1.32-3.36,4.14,4.14,0,0,1,2-3.6,9.23,9.23,0,0,1,5.29-1.33h3.62v-2.17a3.45,3.45,0,0,0-1.13-2.75,4.56,4.56,0,0,0-3.15-1,7.84,7.84,0,0,0-2.49.37,5.67,5.67,0,0,0-1.89,1l-.15,2.19h-1.5l0-3.15a9.45,9.45,0,0,1,2.72-1.42,10.29,10.29,0,0,1,3.36-.54,6.56,6.56,0,0,1,4.36,1.37,4.86,4.86,0,0,1,1.65,3.95v8.06q0,.49,0,1a6.53,6.53,0,0,0,.09.9l1.64.1v1.34Zm-6-1.29a6.53,6.53,0,0,0,3.47-.91,5.33,5.33,0,0,0,2.16-2.34v-3.29h-3.65a6.81,6.81,0,0,0-3.94,1,3.05,3.05,0,0,0-1.48,2.58,2.71,2.71,0,0,0,.92,2.13A3.67,3.67,0,0,0,774.81,247.88Z"/><path class="cls-47" d="M806,237.84h-1.48l-.21-2.31a4.69,4.69,0,0,0-1.72-1.11,6.77,6.77,0,0,0-2.39-.39,4.44,4.44,0,0,0-3,.85,2.6,2.6,0,0,0-1,2,2.38,2.38,0,0,0,.85,1.88,8.35,8.35,0,0,0,3.42,1.3,11.1,11.1,0,0,1,4.37,1.78,3.67,3.67,0,0,1,1.46,3.06,4,4,0,0,1-1.66,3.31,7.07,7.07,0,0,1-4.38,1.26A10.45,10.45,0,0,1,797,249a7.86,7.86,0,0,1-2.58-1.43v-3.3h1.47l.25,2.33a4.34,4.34,0,0,0,1.84,1,8.15,8.15,0,0,0,2.33.33,5,5,0,0,0,3.1-.87,2.53,2.53,0,0,0,1.13-2.09,2.66,2.66,0,0,0-.94-2,7.82,7.82,0,0,0-3.41-1.41,11.27,11.27,0,0,1-4.34-1.69,3.44,3.44,0,0,1-1.42-2.94,3.94,3.94,0,0,1,1.59-3.17,6.45,6.45,0,0,1,4.19-1.29,9.4,9.4,0,0,1,3.3.55,6.67,6.67,0,0,1,2.43,1.49Z"/><path class="cls-47" d="M816.85,249.48a6.57,6.57,0,0,1-5.12-2.26,8.32,8.32,0,0,1-2-5.76v-.83a8.6,8.6,0,0,1,2-5.83,6.27,6.27,0,0,1,4.88-2.31,6.07,6.07,0,0,1,4.74,1.9,7.3,7.3,0,0,1,1.73,5.09V241H811.5v.44a7.22,7.22,0,0,0,1.48,4.63,4.7,4.7,0,0,0,3.87,1.87,7.91,7.91,0,0,0,2.87-.47,5.77,5.77,0,0,0,2-1.35l.78,1.24a6.63,6.63,0,0,1-2.33,1.54A9.16,9.16,0,0,1,816.85,249.48ZM816.6,234a4.31,4.31,0,0,0-3.36,1.54,6.5,6.5,0,0,0-1.6,3.85l0,.07h9.6V239a5.23,5.23,0,0,0-1.26-3.57A4.29,4.29,0,0,0,816.6,234Z"/><path class="cls-47" d="M830.92,250.51a5.68,5.68,0,0,1-1.21,3.9,4.28,4.28,0,0,1-3.37,1.37,4.65,4.65,0,0,1-.87-.07c-.27-.06-.55-.13-.83-.22l.2-1.53a4.51,4.51,0,0,0,.64.16,4.27,4.27,0,0,0,.75.07,2.59,2.59,0,0,0,2.12-.93,4.31,4.31,0,0,0,.76-2.75V234.33l-2.47-.2v-1.34h4.28ZM830.83,228H829v-2.49h1.81Z"/><path class="cls-47" d="M846.12,249.17c-.12-.56-.21-1-.26-1.44a10,10,0,0,1-.07-1.23,7.4,7.4,0,0,1-2.42,2.14,6.92,6.92,0,0,1-3.41.84,5.18,5.18,0,0,1-3.72-1.24,4.38,4.38,0,0,1-1.32-3.36,4.15,4.15,0,0,1,2-3.6,9.26,9.26,0,0,1,5.3-1.33h3.62v-2.17a3.48,3.48,0,0,0-1.13-2.75,4.57,4.57,0,0,0-3.16-1,7.84,7.84,0,0,0-2.49.37,5.52,5.52,0,0,0-1.88,1L837,237.6h-1.5v-3.15a9.58,9.58,0,0,1,2.72-1.42,10.39,10.39,0,0,1,3.37-.54,6.56,6.56,0,0,1,4.36,1.37,4.86,4.86,0,0,1,1.65,3.95v8.06c0,.33,0,.65,0,1a8.54,8.54,0,0,0,.1.9l1.63.1v1.34Zm-6-1.29a6.5,6.5,0,0,0,3.46-.91,5.41,5.41,0,0,0,2.17-2.34v-3.29h-3.65a6.79,6.79,0,0,0-3.94,1,3,3,0,0,0-1.48,2.58,2.71,2.71,0,0,0,.92,2.13A3.67,3.67,0,0,0,840.16,247.88Z"/><path class="cls-47" d="M871.49,246.47a5.67,5.67,0,0,1-2.11,2.23,6.2,6.2,0,0,1-3.16.78,5,5,0,0,1-4.05-1.75q-1.45-1.75-1.46-5.45v-7.95l-2-.2v-1.34h3.83v9.52a7,7,0,0,0,1,4.3,3.45,3.45,0,0,0,2.89,1.3,5.32,5.32,0,0,0,3.28-.91,4.78,4.78,0,0,0,1.72-2.51V234.33l-2.33-.2v-1.34h4.15v14.85l2.19.19v1.34h-3.78Z"/><path class="cls-47" d="M877.71,234.13v-1.34h4.07l.17,2.71a5.72,5.72,0,0,1,2.1-2.23,6.07,6.07,0,0,1,3.14-.78,5.18,5.18,0,0,1,3.13.91,5,5,0,0,1,1.8,2.79,6.41,6.41,0,0,1,2.11-2.71,5.57,5.57,0,0,1,3.34-1,4.94,4.94,0,0,1,4,1.74c1,1.16,1.43,3,1.43,5.39v8l2.47.21v1.34h-6.77v-1.34l2.47-.21v-8c0-2-.36-3.44-1.07-4.27a3.7,3.7,0,0,0-3-1.25,4.06,4.06,0,0,0-3.27,1.35,6.43,6.43,0,0,0-1.41,3.43,1.69,1.69,0,0,0,0,.23v8.57l2.47.19v1.34h-6.75v-1.34l2.47-.19v-8.06a6.58,6.58,0,0,0-1.08-4.24,3.72,3.72,0,0,0-3-1.28,4.47,4.47,0,0,0-3.06,1,5.17,5.17,0,0,0-1.59,2.62v10l2.47.19v1.34h-6.75v-1.34l2.47-.19V234.33Z"/><path class="cls-47" d="M919.06,249.17c-.12-.56-.2-1-.25-1.44a10,10,0,0,1-.08-1.23,7.2,7.2,0,0,1-2.42,2.14,6.92,6.92,0,0,1-3.41.84,5.21,5.21,0,0,1-3.72-1.24,4.38,4.38,0,0,1-1.32-3.36,4.14,4.14,0,0,1,2-3.6,9.23,9.23,0,0,1,5.29-1.33h3.62v-2.17A3.48,3.48,0,0,0,917.6,235a4.56,4.56,0,0,0-3.15-1,7.84,7.84,0,0,0-2.49.37,5.67,5.67,0,0,0-1.89,1l-.15,2.19h-1.5l0-3.15a9.39,9.39,0,0,1,2.71-1.42,10.39,10.39,0,0,1,3.37-.54,6.56,6.56,0,0,1,4.36,1.37,4.86,4.86,0,0,1,1.65,3.95v8.06c0,.33,0,.65,0,1a8.54,8.54,0,0,0,.1.9l1.64.1v1.34Zm-6-1.29a6.53,6.53,0,0,0,3.47-.91,5.33,5.33,0,0,0,2.16-2.34v-3.29h-3.65a6.81,6.81,0,0,0-3.94,1,3.05,3.05,0,0,0-1.48,2.58,2.71,2.71,0,0,0,.92,2.13A3.67,3.67,0,0,0,913.1,247.88Z"/><path class="cls-47" d="M932,234.13v-1.34h4.08l.16,2.71a5.82,5.82,0,0,1,2.11-2.23,6,6,0,0,1,3.13-.78,5.16,5.16,0,0,1,3.13.91,5.08,5.08,0,0,1,1.81,2.79,6.26,6.26,0,0,1,2.11-2.71,5.52,5.52,0,0,1,3.33-1,4.94,4.94,0,0,1,4,1.74c1,1.16,1.43,3,1.43,5.39v8l2.47.21v1.34h-6.76v-1.34l2.46-.21v-8c0-2-.35-3.44-1.06-4.27a3.74,3.74,0,0,0-3-1.25,4,4,0,0,0-3.26,1.35,6.52,6.52,0,0,0-1.42,3.43c0,.08,0,.16,0,.23a2.1,2.1,0,0,1,0,.27v8.3l2.47.19v1.34h-6.75v-1.34l2.46-.19v-8.06a6.58,6.58,0,0,0-1.08-4.24,3.69,3.69,0,0,0-3-1.28,4.48,4.48,0,0,0-3.07,1,5.16,5.16,0,0,0-1.58,2.62v10l2.47.19v1.34H932v-1.34l2.47-.19V234.33Z"/><path class="cls-47" d="M973.36,249.17c-.12-.56-.21-1-.26-1.44a10,10,0,0,1-.07-1.23,7.34,7.34,0,0,1-2.43,2.14,6.88,6.88,0,0,1-3.4.84,5.22,5.22,0,0,1-3.73-1.24,4.41,4.41,0,0,1-1.31-3.36,4.15,4.15,0,0,1,2-3.6,9.26,9.26,0,0,1,5.3-1.33H973v-2.17A3.48,3.48,0,0,0,971.9,235a4.59,4.59,0,0,0-3.16-1,7.84,7.84,0,0,0-2.49.37,5.52,5.52,0,0,0-1.88,1l-.15,2.19h-1.5v-3.15a9.45,9.45,0,0,1,2.72-1.42,10.35,10.35,0,0,1,3.37-.54,6.58,6.58,0,0,1,4.36,1.37,4.86,4.86,0,0,1,1.65,3.95v8.06c0,.33,0,.65,0,1a6.52,6.52,0,0,0,.1.9l1.63.1v1.34Zm-6-1.29a6.51,6.51,0,0,0,3.47-.91,5.41,5.41,0,0,0,2.17-2.34v-3.29h-3.65a6.84,6.84,0,0,0-4,1,3,3,0,0,0-1.47,2.58,2.7,2.7,0,0,0,.91,2.13A3.69,3.69,0,0,0,967.39,247.88Z"/><path class="cls-47" d="M978.82,247.83l2.47-.19V234.33l-2.47-.2v-1.34h4.07l.17,2.86a5.64,5.64,0,0,1,5.3-3.16,5.07,5.07,0,0,1,4.06,1.62,7.76,7.76,0,0,1,1.39,5.08v8.45l2.47.19v1.34h-6.76v-1.34l2.47-.19v-8.43a6,6,0,0,0-1-4,3.84,3.84,0,0,0-3-1.16,4.69,4.69,0,0,0-3.11,1,5.58,5.58,0,0,0-1.73,2.67v9.9l2.46.19v1.34h-6.75Z"/><path class="cls-47" d="M1006.19,249.48a6.59,6.59,0,0,1-5.12-2.26,8.31,8.31,0,0,1-2-5.76v-.83a8.55,8.55,0,0,1,2-5.83,6.24,6.24,0,0,1,4.88-2.31,6.07,6.07,0,0,1,4.74,1.9,7.3,7.3,0,0,1,1.72,5.09V241h-11.56v.44a7.27,7.27,0,0,0,1.47,4.63,4.73,4.73,0,0,0,3.87,1.87,8,8,0,0,0,2.88-.47,5.87,5.87,0,0,0,2-1.35l.77,1.24a6.45,6.45,0,0,1-2.33,1.54A9.16,9.16,0,0,1,1006.19,249.48ZM1006,234a4.33,4.33,0,0,0-3.37,1.54,6.56,6.56,0,0,0-1.6,3.85l0,.07h9.6V239a5.23,5.23,0,0,0-1.26-3.57A4.27,4.27,0,0,0,1006,234Z"/><path class="cls-47" d="M1015.53,247.83l2.47-.19V234.33l-2.47-.2v-1.34h4.27v14.85l2.47.19v1.34h-6.74Zm4.27-19.73H1018v-2.55h1.8Z"/><path class="cls-47" d="M1029.23,232.79l.23,2.72v.2a5.71,5.71,0,0,1,1.9-2.37,4.78,4.78,0,0,1,2.85-.85,3.64,3.64,0,0,1,.67,0,3.89,3.89,0,0,1,.54.11l-.24,1.7-1.35-.09a4.11,4.11,0,0,0-2.81,1,5.28,5.28,0,0,0-1.56,2.64v9.78l2.46.19v1.34h-6.73v-1.34l2.46-.19V234.33l-2.46-.2v-1.34h4Z"/><path class="cls-47" d="M1049.07,249.17c-.12-.56-.2-1-.26-1.44a10,10,0,0,1-.07-1.23,7.3,7.3,0,0,1-2.42,2.14,6.92,6.92,0,0,1-3.41.84,5.21,5.21,0,0,1-3.72-1.24,4.38,4.38,0,0,1-1.32-3.36,4.15,4.15,0,0,1,2-3.6,9.28,9.28,0,0,1,5.3-1.33h3.62v-2.17a3.48,3.48,0,0,0-1.13-2.75,4.56,4.56,0,0,0-3.15-1,7.84,7.84,0,0,0-2.49.37,5.57,5.57,0,0,0-1.89,1l-.15,2.19h-1.5l0-3.15a9.39,9.39,0,0,1,2.71-1.42,10.39,10.39,0,0,1,3.37-.54,6.56,6.56,0,0,1,4.36,1.37,4.86,4.86,0,0,1,1.65,3.95v8.06c0,.33,0,.65,0,1a8.54,8.54,0,0,0,.1.9l1.64.1v1.34Zm-6-1.29a6.47,6.47,0,0,0,3.46-.91,5.35,5.35,0,0,0,2.17-2.34v-3.29h-3.65a6.81,6.81,0,0,0-3.94,1,3,3,0,0,0-1.48,2.58,2.71,2.71,0,0,0,.92,2.13A3.67,3.67,0,0,0,1043.11,247.88Z"/><path class="cls-47" d="M566,286.37c-.12-.56-.21-1-.26-1.44a10,10,0,0,1-.08-1.23,7.2,7.2,0,0,1-2.42,2.14,6.88,6.88,0,0,1-3.4.84,5.22,5.22,0,0,1-3.73-1.24,4.4,4.4,0,0,1-1.31-3.36,4.15,4.15,0,0,1,2-3.6,9.26,9.26,0,0,1,5.3-1.33h3.61V275a3.47,3.47,0,0,0-1.12-2.75,4.61,4.61,0,0,0-3.16-1,7.84,7.84,0,0,0-2.49.37,5.52,5.52,0,0,0-1.88,1l-.15,2.19h-1.5v-3.15a9.45,9.45,0,0,1,2.72-1.42,10.35,10.35,0,0,1,3.37-.54,6.58,6.58,0,0,1,4.36,1.37,4.86,4.86,0,0,1,1.65,3.95v8.06c0,.33,0,.65,0,1a6.52,6.52,0,0,0,.1.9l1.63.1v1.34Zm-6-1.29a6.51,6.51,0,0,0,3.47-.91,5.33,5.33,0,0,0,2.16-2.34v-3.29H562a6.84,6.84,0,0,0-4,1,3,3,0,0,0-1.47,2.58,2.7,2.7,0,0,0,.91,2.13A3.67,3.67,0,0,0,560,285.08Z"/><path class="cls-47" d="M571.84,278.31a10.65,10.65,0,0,1,1.67-6.27,5.38,5.38,0,0,1,4.64-2.35,5.77,5.77,0,0,1,3,.76,6,6,0,0,1,2.11,2.16l.22-2.62H585v16.16a7,7,0,0,1-1.72,5,6.19,6.19,0,0,1-4.76,1.83,12.11,12.11,0,0,1-2.52-.29,9.73,9.73,0,0,1-2.34-.78l.48-1.53a10.57,10.57,0,0,0,2.07.72,9.37,9.37,0,0,0,2.28.26A4.37,4.37,0,0,0,582,290a5.71,5.71,0,0,0,1.18-3.83v-2.07A5.73,5.73,0,0,1,581.1,286a6.24,6.24,0,0,1-3,.67,5.46,5.46,0,0,1-4.61-2.19,9.46,9.46,0,0,1-1.67-5.86Zm1.82.32a8.27,8.27,0,0,0,1.2,4.72,4.07,4.07,0,0,0,3.6,1.76,5.12,5.12,0,0,0,2.94-.8,5.21,5.21,0,0,0,1.81-2.21v-7.6a5.9,5.9,0,0,0-1.74-2.34,4.66,4.66,0,0,0-3-.9,4,4,0,0,0-3.61,2,9.44,9.44,0,0,0-1.22,5.08Z"/><path class="cls-47" d="M593.06,270l.23,2.72v.2a5.79,5.79,0,0,1,1.9-2.37,4.78,4.78,0,0,1,2.85-.85,3.82,3.82,0,0,1,.68.05,4,4,0,0,1,.53.11l-.24,1.7-1.35-.09a4.09,4.09,0,0,0-2.8,1,5.22,5.22,0,0,0-1.57,2.64v9.78l2.47.19v1.34H589V285l2.47-.19V271.53l-2.47-.2V270h4Z"/><path class="cls-47" d="M612.91,286.37c-.12-.56-.21-1-.26-1.44a10,10,0,0,1-.08-1.23,7.2,7.2,0,0,1-2.42,2.14,6.88,6.88,0,0,1-3.4.84,5.22,5.22,0,0,1-3.73-1.24,4.4,4.4,0,0,1-1.31-3.36,4.15,4.15,0,0,1,1.95-3.6,9.26,9.26,0,0,1,5.3-1.33h3.61V275a3.47,3.47,0,0,0-1.12-2.75,4.61,4.61,0,0,0-3.16-1,7.84,7.84,0,0,0-2.49.37,5.52,5.52,0,0,0-1.88,1l-.16,2.19h-1.49v-3.15a9.45,9.45,0,0,1,2.72-1.42,10.35,10.35,0,0,1,3.37-.54,6.58,6.58,0,0,1,4.36,1.37,4.86,4.86,0,0,1,1.65,3.95v8.06c0,.33,0,.65,0,1a6.52,6.52,0,0,0,.1.9l1.63.1v1.34Zm-6-1.29a6.53,6.53,0,0,0,3.47-.91,5.33,5.33,0,0,0,2.16-2.34v-3.29h-3.64a6.84,6.84,0,0,0-3.95,1,3,3,0,0,0-1.47,2.58,2.7,2.7,0,0,0,.91,2.13A3.67,3.67,0,0,0,606.94,285.08Z"/><path class="cls-47" d="M630.09,284a5.74,5.74,0,0,1-2.11,2,6.26,6.26,0,0,1-3,.69,5.45,5.45,0,0,1-4.6-2.19,9.52,9.52,0,0,1-1.65-5.86v-.32a10.73,10.73,0,0,1,1.65-6.27,5.35,5.35,0,0,1,4.63-2.35,5.58,5.58,0,0,1,5,2.77V264.3l-2.47-.2v-1.35h4.29v22.09l2.47.19v1.34h-4.09Zm-9.55-5.37a8.31,8.31,0,0,0,1.18,4.72,4.05,4.05,0,0,0,3.58,1.76,5.09,5.09,0,0,0,2.92-.79,5.16,5.16,0,0,0,1.82-2.16v-7.75a5.5,5.5,0,0,0-1.75-2.27,4.67,4.67,0,0,0-3-.88,3.93,3.93,0,0,0-3.59,2,9.64,9.64,0,0,0-1.2,5.09Z"/><path class="cls-47" d="M648.42,286.37c-.12-.56-.21-1-.26-1.44a10,10,0,0,1-.07-1.23,7.34,7.34,0,0,1-2.43,2.14,6.88,6.88,0,0,1-3.4.84,5.22,5.22,0,0,1-3.73-1.24,4.4,4.4,0,0,1-1.31-3.36,4.15,4.15,0,0,1,1.95-3.6,9.26,9.26,0,0,1,5.3-1.33h3.62V275a3.48,3.48,0,0,0-1.13-2.75,4.59,4.59,0,0,0-3.16-1,7.84,7.84,0,0,0-2.49.37,5.52,5.52,0,0,0-1.88,1l-.15,2.19h-1.5v-3.15a9.45,9.45,0,0,1,2.72-1.42,10.35,10.35,0,0,1,3.37-.54,6.58,6.58,0,0,1,4.36,1.37,4.86,4.86,0,0,1,1.65,3.95v8.06c0,.33,0,.65,0,1a6.52,6.52,0,0,0,.1.9l1.63.1v1.34Zm-6-1.29a6.51,6.51,0,0,0,3.47-.91,5.41,5.41,0,0,0,2.17-2.34v-3.29h-3.65a6.84,6.84,0,0,0-4,1,3,3,0,0,0-1.47,2.58,2.7,2.7,0,0,0,.91,2.13A3.67,3.67,0,0,0,642.45,285.08Zm3.08-21.34h2.22l0,.09L644,267.76h-1.62Z"/><path class="cls-47" d="M658.74,271.33l-2,.16,4.09,10.77.53,1.93h.09l.57-1.93,4-10.77-2-.16V270h5.51v1.34l-1.6.14-5.78,14.9h-1.46l-5.79-14.9-1.61-.14V270h5.51Z"/><path class="cls-47" d="M678.49,286.68a6.57,6.57,0,0,1-5.11-2.26,8.32,8.32,0,0,1-2-5.76v-.83a8.55,8.55,0,0,1,2-5.83,6.26,6.26,0,0,1,4.88-2.31,6.07,6.07,0,0,1,4.74,1.9,7.3,7.3,0,0,1,1.73,5.09v1.54H673.15v.44a7.22,7.22,0,0,0,1.48,4.63,4.7,4.7,0,0,0,3.86,1.87,8,8,0,0,0,2.88-.47,5.77,5.77,0,0,0,2-1.35l.78,1.24a6.58,6.58,0,0,1-2.34,1.54A8.89,8.89,0,0,1,678.49,286.68Zm-.24-15.45a4.34,4.34,0,0,0-3.37,1.54,6.55,6.55,0,0,0-1.59,3.85l0,.07h9.59v-.45a5.22,5.22,0,0,0-1.25-3.57A4.3,4.3,0,0,0,678.25,271.23Z"/><path class="cls-47" d="M687.59,264.1v-1.35h4.27v22.09l2.47.19v1.34h-6.74V285l2.47-.19V264.3Z"/><path class="cls-47" d="M712,286.68a6.57,6.57,0,0,1-5.12-2.26,8.32,8.32,0,0,1-2-5.76v-.83a8.6,8.6,0,0,1,2-5.83,6.27,6.27,0,0,1,4.88-2.31,6.07,6.07,0,0,1,4.74,1.9,7.3,7.3,0,0,1,1.73,5.09v1.54H706.6v.44a7.22,7.22,0,0,0,1.48,4.63,4.7,4.7,0,0,0,3.87,1.87,7.88,7.88,0,0,0,2.87-.47,5.91,5.91,0,0,0,2-1.35l.77,1.24a6.54,6.54,0,0,1-2.33,1.54A9,9,0,0,1,712,286.68Zm-.25-15.45a4.31,4.31,0,0,0-3.36,1.54,6.5,6.5,0,0,0-1.6,3.85l0,.07h9.6v-.45a5.23,5.23,0,0,0-1.26-3.57A4.29,4.29,0,0,0,711.7,271.23Z"/><path class="cls-47" d="M728.82,285l2.47-.19V271.53l-2.47-.2V270h4.27v14.85l2.47.19v1.34h-6.74Zm4.27-19.73h-1.8v-2.55h1.8Z"/><path class="cls-47" d="M738.27,285l2.47-.19V271.53l-2.47-.2V270h4.07l.17,2.86a5.81,5.81,0,0,1,2.12-2.34,6,6,0,0,1,3.18-.82,5.05,5.05,0,0,1,4.05,1.62q1.39,1.63,1.39,5.08v8.45l2.47.19v1.34H749V285l2.47-.19v-8.43a6,6,0,0,0-1.05-4,3.86,3.86,0,0,0-3-1.16,4.69,4.69,0,0,0-3.11,1,5.6,5.6,0,0,0-1.74,2.67v9.9L745,285v1.34h-6.75Z"/><path class="cls-47" d="M762.73,265.8V270h3.6v1.48h-3.6v10.67a3.49,3.49,0,0,0,.58,2.28,2,2,0,0,0,1.55.67c.3,0,.58,0,.86,0s.6-.07,1-.13l.27,1.35a4.7,4.7,0,0,1-1.1.3,8.22,8.22,0,0,1-1.3.1,3.39,3.39,0,0,1-2.69-1.09,5.12,5.12,0,0,1-1-3.45V271.47h-2.82V270h2.82V265.8Z"/><path class="cls-47" d="M776.88,286.68a6.55,6.55,0,0,1-5.11-2.26,8.27,8.27,0,0,1-2-5.76v-.83a8.55,8.55,0,0,1,2-5.83,6.26,6.26,0,0,1,4.88-2.31,6.07,6.07,0,0,1,4.74,1.9,7.3,7.3,0,0,1,1.72,5.09v1.54H771.54v.44a7.22,7.22,0,0,0,1.48,4.63,4.7,4.7,0,0,0,3.86,1.87,8,8,0,0,0,2.88-.47,5.77,5.77,0,0,0,2-1.35l.77,1.24a6.45,6.45,0,0,1-2.33,1.54A9,9,0,0,1,776.88,286.68Zm-.24-15.45a4.34,4.34,0,0,0-3.37,1.54,6.55,6.55,0,0,0-1.59,3.85l0,.07h9.59v-.45a5.27,5.27,0,0,0-1.25-3.57A4.3,4.3,0,0,0,776.64,271.23Z"/><path class="cls-47" d="M790.26,270l.23,2.72v.2a5.87,5.87,0,0,1,1.9-2.37,4.78,4.78,0,0,1,2.85-.85,3.75,3.75,0,0,1,.68.05,4.63,4.63,0,0,1,.54.11l-.25,1.7-1.34-.09a4.09,4.09,0,0,0-2.81,1,5.29,5.29,0,0,0-1.57,2.64v9.78L793,285v1.34h-6.74V285l2.47-.19V271.53l-2.47-.2V270h4Z"/><path class="cls-47" d="M805.73,286.68a6.57,6.57,0,0,1-5.11-2.26,8.32,8.32,0,0,1-2-5.76v-.83a8.55,8.55,0,0,1,2-5.83,6.27,6.27,0,0,1,4.88-2.31,6.07,6.07,0,0,1,4.74,1.9,7.3,7.3,0,0,1,1.73,5.09v1.54H800.39v.44a7.22,7.22,0,0,0,1.48,4.63,4.7,4.7,0,0,0,3.86,1.87,8,8,0,0,0,2.88-.47,5.77,5.77,0,0,0,2-1.35l.78,1.24a6.58,6.58,0,0,1-2.34,1.54A8.89,8.89,0,0,1,805.73,286.68Zm-.24-15.45a4.34,4.34,0,0,0-3.37,1.54,6.55,6.55,0,0,0-1.59,3.85l0,.07h9.59v-.45a5.22,5.22,0,0,0-1.25-3.57A4.3,4.3,0,0,0,805.49,271.23Z"/><path class="cls-47" d="M827.08,275h-1.49l-.21-2.31a4.61,4.61,0,0,0-1.72-1.11,6.71,6.71,0,0,0-2.38-.39,4.47,4.47,0,0,0-3,.85,2.6,2.6,0,0,0-1,2,2.39,2.39,0,0,0,.86,1.88,8.36,8.36,0,0,0,3.41,1.3,11.15,11.15,0,0,1,4.38,1.78,3.68,3.68,0,0,1,1.45,3.06,4,4,0,0,1-1.66,3.31,7,7,0,0,1-4.38,1.26,10.5,10.5,0,0,1-3.31-.5,8.07,8.07,0,0,1-2.58-1.43v-3.3H817l.26,2.33a4.22,4.22,0,0,0,1.84,1.05,8.08,8.08,0,0,0,2.32.33,5,5,0,0,0,3.1-.87,2.54,2.54,0,0,0,1.14-2.09,2.67,2.67,0,0,0-1-2,7.82,7.82,0,0,0-3.41-1.41,11.34,11.34,0,0,1-4.34-1.69,3.45,3.45,0,0,1-1.41-2.94,3.94,3.94,0,0,1,1.59-3.17,6.43,6.43,0,0,1,4.19-1.29,9.35,9.35,0,0,1,3.29.55,6.59,6.59,0,0,1,2.43,1.49Z"/><path class="cls-47" d="M842.59,275h-1.48l-.21-2.31a4.69,4.69,0,0,0-1.72-1.11,6.77,6.77,0,0,0-2.39-.39,4.44,4.44,0,0,0-3,.85,2.6,2.6,0,0,0-1,2,2.38,2.38,0,0,0,.85,1.88,8.35,8.35,0,0,0,3.42,1.3,11.1,11.1,0,0,1,4.37,1.78,3.66,3.66,0,0,1,1.45,3.06,4,4,0,0,1-1.65,3.31,7.07,7.07,0,0,1-4.38,1.26,10.41,10.41,0,0,1-3.31-.5,7.86,7.86,0,0,1-2.58-1.43v-3.3h1.47l.25,2.33a4.34,4.34,0,0,0,1.84,1.05,8.15,8.15,0,0,0,2.33.33,5,5,0,0,0,3.1-.87,2.53,2.53,0,0,0,1.13-2.09,2.66,2.66,0,0,0-.94-2,7.82,7.82,0,0,0-3.42-1.41,11.28,11.28,0,0,1-4.33-1.69,3.44,3.44,0,0,1-1.42-2.94A3.94,3.94,0,0,1,832.6,271a6.45,6.45,0,0,1,4.19-1.29,9.4,9.4,0,0,1,3.3.55,6.67,6.67,0,0,1,2.43,1.49Z"/><path class="cls-47" d="M857.53,286.37c-.12-.56-.2-1-.26-1.44a10,10,0,0,1-.07-1.23,7.3,7.3,0,0,1-2.42,2.14,6.92,6.92,0,0,1-3.41.84,5.21,5.21,0,0,1-3.72-1.24,4.37,4.37,0,0,1-1.32-3.36,4.15,4.15,0,0,1,1.95-3.6,9.28,9.28,0,0,1,5.3-1.33h3.62V275a3.48,3.48,0,0,0-1.13-2.75,4.56,4.56,0,0,0-3.15-1,7.84,7.84,0,0,0-2.49.37,5.57,5.57,0,0,0-1.89,1l-.15,2.19h-1.5l0-3.15a9.39,9.39,0,0,1,2.71-1.42,10.39,10.39,0,0,1,3.37-.54,6.56,6.56,0,0,1,4.36,1.37A4.86,4.86,0,0,1,859,275v8.06c0,.33,0,.65,0,1a8.54,8.54,0,0,0,.1.9l1.64.1v1.34Zm-6-1.29a6.47,6.47,0,0,0,3.46-.91,5.41,5.41,0,0,0,2.17-2.34v-3.29h-3.65a6.81,6.81,0,0,0-3.94,1,3,3,0,0,0-1.48,2.58,2.71,2.71,0,0,0,.92,2.13A3.67,3.67,0,0,0,851.57,285.08Z"/><path class="cls-47" d="M863,285l2.46-.19V271.53l-2.46-.2V270h4.07l.16,2.86a5.64,5.64,0,0,1,5.3-3.16,5.06,5.06,0,0,1,4.06,1.62q1.39,1.63,1.39,5.08v8.45l2.47.19v1.34H873.7V285l2.47-.19v-8.43a6,6,0,0,0-1.06-4,3.83,3.83,0,0,0-3-1.16,4.69,4.69,0,0,0-3.11,1,5.58,5.58,0,0,0-1.73,2.67v9.9l2.47.19v1.34H863Z"/><path class="cls-47" d="M887.46,265.8V270h3.6v1.48h-3.6v10.67a3.49,3.49,0,0,0,.58,2.28,2,2,0,0,0,1.55.67c.29,0,.58,0,.86,0s.6-.07,1-.13l.27,1.35a4.7,4.7,0,0,1-1.1.3,8.26,8.26,0,0,1-1.31.1,3.37,3.37,0,0,1-2.68-1.09,5.12,5.12,0,0,1-1-3.45V271.47h-2.82V270h2.82V265.8Z"/><path class="cls-47" d="M901.61,286.68a6.55,6.55,0,0,1-5.11-2.26,8.27,8.27,0,0,1-2-5.76v-.83a8.55,8.55,0,0,1,2-5.83,6.26,6.26,0,0,1,4.88-2.31,6.07,6.07,0,0,1,4.74,1.9,7.3,7.3,0,0,1,1.72,5.09v1.54H896.27v.44a7.27,7.27,0,0,0,1.47,4.63,4.73,4.73,0,0,0,3.87,1.87,8,8,0,0,0,2.88-.47,5.87,5.87,0,0,0,2-1.35l.77,1.24a6.45,6.45,0,0,1-2.33,1.54A9,9,0,0,1,901.61,286.68Zm-.24-15.45a4.33,4.33,0,0,0-3.37,1.54,6.63,6.63,0,0,0-1.6,3.85l0,.07H906v-.45a5.23,5.23,0,0,0-1.26-3.57A4.27,4.27,0,0,0,901.37,271.23Z"/><path class="cls-47" d="M930,284a5.64,5.64,0,0,1-2.1,2,6.33,6.33,0,0,1-3,.69,5.42,5.42,0,0,1-4.59-2.19,9.46,9.46,0,0,1-1.66-5.86v-.32a10.65,10.65,0,0,1,1.66-6.27,5.32,5.32,0,0,1,4.62-2.35,5.58,5.58,0,0,1,5.06,2.77V264.3l-2.47-.2v-1.35h4.28v22.09l2.47.19v1.34h-4.09Zm-9.55-5.37a8.31,8.31,0,0,0,1.19,4.72,4,4,0,0,0,3.58,1.76,5.06,5.06,0,0,0,2.91-.79,5.18,5.18,0,0,0,1.83-2.16v-7.75a5.67,5.67,0,0,0-1.75-2.27,4.69,4.69,0,0,0-3-.88,4,4,0,0,0-3.6,2,9.64,9.64,0,0,0-1.2,5.09Z"/><path class="cls-47" d="M944.24,286.68a6.57,6.57,0,0,1-5.12-2.26,8.32,8.32,0,0,1-2-5.76v-.83a8.6,8.6,0,0,1,2-5.83,6.27,6.27,0,0,1,4.88-2.31,6.07,6.07,0,0,1,4.74,1.9,7.3,7.3,0,0,1,1.73,5.09v1.54H938.89v.44a7.22,7.22,0,0,0,1.48,4.63,4.7,4.7,0,0,0,3.87,1.87,7.88,7.88,0,0,0,2.87-.47,5.91,5.91,0,0,0,2-1.35l.77,1.24a6.54,6.54,0,0,1-2.33,1.54A9,9,0,0,1,944.24,286.68ZM944,271.23a4.31,4.31,0,0,0-3.36,1.54,6.5,6.5,0,0,0-1.6,3.85l0,.07h9.6v-.45a5.23,5.23,0,0,0-1.26-3.57A4.29,4.29,0,0,0,944,271.23Z"/><path class="cls-47" d="M561.88,323.88a6.59,6.59,0,0,1-5.12-2.26,8.31,8.31,0,0,1-2-5.76V315a8.55,8.55,0,0,1,2-5.83,6.24,6.24,0,0,1,4.88-2.31,6.07,6.07,0,0,1,4.74,1.9,7.3,7.3,0,0,1,1.72,5.09v1.54H556.54v.44a7.27,7.27,0,0,0,1.47,4.63,4.73,4.73,0,0,0,3.87,1.87,8,8,0,0,0,2.88-.47,5.87,5.87,0,0,0,2-1.35l.77,1.24a6.45,6.45,0,0,1-2.33,1.54A9,9,0,0,1,561.88,323.88Zm-.24-15.45a4.33,4.33,0,0,0-3.37,1.54,6.63,6.63,0,0,0-1.6,3.85l0,.07h9.6v-.45a5.23,5.23,0,0,0-1.26-3.57A4.27,4.27,0,0,0,561.64,308.43Z"/><path class="cls-47" d="M571,322.23l1.83-.16,5.18-6.84-4.94-6.53-1.84-.16v-1.35h5.55v1.35l-1.7.09,3.91,5.25,3.92-5.27-1.68-.07v-1.35h5.56v1.35l-1.84.16L580,315.23l5.16,6.84,1.85.16v1.34h-5.54v-1.34l1.68-.07L579,316.59l-4.15,5.57,1.68.07v1.34H571Z"/><path class="cls-47" d="M596.3,323.88a6.55,6.55,0,0,1-5.11-2.26,8.27,8.27,0,0,1-2-5.76V315a8.55,8.55,0,0,1,2-5.83,6.26,6.26,0,0,1,4.88-2.31,6.07,6.07,0,0,1,4.74,1.9,7.3,7.3,0,0,1,1.72,5.09v1.54H591v.44a7.27,7.27,0,0,0,1.47,4.63,4.73,4.73,0,0,0,3.87,1.87,8,8,0,0,0,2.88-.47,5.87,5.87,0,0,0,2-1.35l.77,1.24a6.45,6.45,0,0,1-2.33,1.54A9,9,0,0,1,596.3,323.88Zm-.24-15.45a4.33,4.33,0,0,0-3.37,1.54,6.63,6.63,0,0,0-1.6,3.85l0,.07h9.59v-.45a5.23,5.23,0,0,0-1.26-3.57A4.27,4.27,0,0,0,596.06,308.43Z"/><path class="cls-47" d="M609.68,307.19l.23,2.72v.2a5.79,5.79,0,0,1,1.9-2.37,4.78,4.78,0,0,1,2.85-.85,3.82,3.82,0,0,1,.68.05,4,4,0,0,1,.53.11l-.24,1.7-1.35-.09a4.09,4.09,0,0,0-2.8,1,5.22,5.22,0,0,0-1.57,2.64V322l2.47.19v1.34h-6.74v-1.34l2.47-.19V308.73l-2.47-.19v-1.35h4Z"/><path class="cls-47" d="M624.92,322.36a5.17,5.17,0,0,0,3.18-1,3.38,3.38,0,0,0,1.38-2.87h1.61l0,.1a4.52,4.52,0,0,1-1.81,3.8,6.76,6.76,0,0,1-4.39,1.52,6.23,6.23,0,0,1-5.16-2.29,9.15,9.15,0,0,1-1.83-5.89v-.64a9.13,9.13,0,0,1,1.83-5.87,6.19,6.19,0,0,1,5.15-2.3,8.25,8.25,0,0,1,3.47.71,6.67,6.67,0,0,1,2.55,1.94l.08,3.57h-1.54l-.29-2.91a5.19,5.19,0,0,0-1.81-1.29,6,6,0,0,0-2.46-.48,4.37,4.37,0,0,0-3.9,1.88,8.38,8.38,0,0,0-1.26,4.75v.64a8.49,8.49,0,0,0,1.25,4.78A4.4,4.4,0,0,0,624.92,322.36Z"/><path class="cls-47" d="M634.37,322.23l2.47-.19V308.73l-2.47-.19v-1.35h4.27V322l2.47.19v1.34h-6.74Zm4.27-19.73h-1.8V300h1.8Z"/><path class="cls-47" d="M648.31,303v4.19h3.6v1.48h-3.6v10.67a3.55,3.55,0,0,0,.58,2.28,2,2,0,0,0,1.56.67c.29,0,.57,0,.85,0s.6-.07,1-.13l.27,1.35a4.7,4.7,0,0,1-1.1.3,8.13,8.13,0,0,1-1.3.1,3.39,3.39,0,0,1-2.69-1.09,5.12,5.12,0,0,1-1-3.45V308.67h-2.81v-1.48h2.81V303Z"/><path class="cls-47" d="M666.55,323.57c-.12-.56-.21-1-.26-1.44a10,10,0,0,1-.07-1.23A7.3,7.3,0,0,1,663.8,323a6.92,6.92,0,0,1-3.41.84,5.21,5.21,0,0,1-3.72-1.24,4.37,4.37,0,0,1-1.32-3.36,4.15,4.15,0,0,1,1.95-3.6,9.26,9.26,0,0,1,5.3-1.33h3.62v-2.17a3.48,3.48,0,0,0-1.13-2.75,4.57,4.57,0,0,0-3.16-1,7.82,7.82,0,0,0-2.48.37,5.57,5.57,0,0,0-1.89,1l-.15,2.19h-1.5l0-3.15a9.39,9.39,0,0,1,2.71-1.42,10.39,10.39,0,0,1,3.37-.54,6.56,6.56,0,0,1,4.36,1.37,4.86,4.86,0,0,1,1.65,3.95v8.06c0,.33,0,.65,0,1a8.54,8.54,0,0,0,.1.9l1.64.1v1.34Zm-6-1.29a6.47,6.47,0,0,0,3.46-.91,5.41,5.41,0,0,0,2.17-2.34v-3.29h-3.65a6.81,6.81,0,0,0-3.94,1,3,3,0,0,0-1.48,2.58,2.71,2.71,0,0,0,.92,2.13A3.67,3.67,0,0,0,660.59,322.28Z"/><path class="cls-47" d="M676.27,307.19l.23,2.72v.2a5.71,5.71,0,0,1,1.9-2.37,4.78,4.78,0,0,1,2.85-.85,3.64,3.64,0,0,1,.67.05,3.89,3.89,0,0,1,.54.11l-.24,1.7-1.35-.09a4.11,4.11,0,0,0-2.81,1,5.28,5.28,0,0,0-1.56,2.64V322l2.46.19v1.34h-6.73v-1.34l2.46-.19V308.73l-2.46-.19v-1.35h4Z"/><path class="cls-47" d="M704.23,312.24h-1.49l-.21-2.31a4.61,4.61,0,0,0-1.72-1.11,6.71,6.71,0,0,0-2.38-.39,4.39,4.39,0,0,0-3,.86,2.55,2.55,0,0,0-1,2,2.39,2.39,0,0,0,.86,1.88,8.36,8.36,0,0,0,3.41,1.3,11.15,11.15,0,0,1,4.38,1.78,3.66,3.66,0,0,1,1.45,3.06,4,4,0,0,1-1.66,3.31,7,7,0,0,1-4.38,1.26,10.5,10.5,0,0,1-3.31-.5,8.07,8.07,0,0,1-2.58-1.43v-3.3h1.47l.26,2.33a4.28,4.28,0,0,0,1.84,1,8.08,8.08,0,0,0,2.32.33,5,5,0,0,0,3.1-.87,2.54,2.54,0,0,0,1.14-2.09,2.67,2.67,0,0,0-1-2A7.82,7.82,0,0,0,698.4,316a11.34,11.34,0,0,1-4.34-1.69,3.45,3.45,0,0,1-1.41-2.94,3.94,3.94,0,0,1,1.59-3.17,6.43,6.43,0,0,1,4.19-1.29,9.35,9.35,0,0,1,3.29.55,6.59,6.59,0,0,1,2.43,1.49Z"/><path class="cls-47" d="M715.08,323.88a6.59,6.59,0,0,1-5.12-2.26,8.31,8.31,0,0,1-2-5.76V315a8.55,8.55,0,0,1,2-5.83,6.24,6.24,0,0,1,4.88-2.31,6.08,6.08,0,0,1,4.74,1.9,7.3,7.3,0,0,1,1.72,5.09v1.54H709.74v.44a7.27,7.27,0,0,0,1.47,4.63,4.73,4.73,0,0,0,3.87,1.87,8,8,0,0,0,2.88-.47,6,6,0,0,0,2-1.35l.77,1.24a6.45,6.45,0,0,1-2.33,1.54A9,9,0,0,1,715.08,323.88Zm-.24-15.45a4.33,4.33,0,0,0-3.37,1.54,6.56,6.56,0,0,0-1.6,3.85l0,.07h9.6v-.45a5.23,5.23,0,0,0-1.26-3.57A4.27,4.27,0,0,0,714.84,308.43Z"/><path class="cls-47" d="M736.57,320.87a5.6,5.6,0,0,1-2.11,2.23,6.13,6.13,0,0,1-3.15.78,5,5,0,0,1-4-1.75c-1-1.17-1.46-3-1.46-5.45v-7.95l-2-.19v-1.35h3.83v9.52a7.06,7.06,0,0,0,1,4.3,3.47,3.47,0,0,0,2.9,1.3,5.36,5.36,0,0,0,3.28-.91,4.77,4.77,0,0,0,1.71-2.51V308.73l-2.33-.19v-1.35h4.15V322l2.19.19v1.34h-3.78Z"/><path class="cls-47" d="M755.07,312.24h-1.48l-.21-2.31a4.69,4.69,0,0,0-1.72-1.11,6.77,6.77,0,0,0-2.39-.39,4.39,4.39,0,0,0-3,.86,2.56,2.56,0,0,0-1,2,2.38,2.38,0,0,0,.85,1.88,8.35,8.35,0,0,0,3.42,1.3,11.16,11.16,0,0,1,4.37,1.78,3.66,3.66,0,0,1,1.45,3.06,4,4,0,0,1-1.65,3.31,7.08,7.08,0,0,1-4.39,1.26,10.39,10.39,0,0,1-3.3-.5,7.86,7.86,0,0,1-2.58-1.43v-3.3h1.46l.26,2.33a4.34,4.34,0,0,0,1.84,1,8.13,8.13,0,0,0,2.32.33,5,5,0,0,0,3.11-.87,2.56,2.56,0,0,0,1.13-2.09,2.66,2.66,0,0,0-.94-2,7.82,7.82,0,0,0-3.42-1.41,11.28,11.28,0,0,1-4.33-1.69,3.44,3.44,0,0,1-1.42-2.94,3.94,3.94,0,0,1,1.59-3.17,6.45,6.45,0,0,1,4.19-1.29,9.44,9.44,0,0,1,3.3.55,6.67,6.67,0,0,1,2.43,1.49Z"/><path class="cls-47" d="M773.23,322.36a5.22,5.22,0,0,0,3.18-1,3.38,3.38,0,0,0,1.38-2.87h1.6l0,.1a4.49,4.49,0,0,1-1.8,3.8,6.76,6.76,0,0,1-4.39,1.52,6.22,6.22,0,0,1-5.16-2.29,9.15,9.15,0,0,1-1.83-5.89v-.64a9.13,9.13,0,0,1,1.83-5.87,6.19,6.19,0,0,1,5.15-2.3,8.18,8.18,0,0,1,3.46.71,6.7,6.7,0,0,1,2.56,1.94l.08,3.57h-1.55l-.28-2.91a5.19,5.19,0,0,0-1.81-1.29,6,6,0,0,0-2.46-.48,4.37,4.37,0,0,0-3.9,1.88,8.38,8.38,0,0,0-1.26,4.75v.64a8.49,8.49,0,0,0,1.25,4.78A4.4,4.4,0,0,0,773.23,322.36Z"/><path class="cls-47" d="M782.8,315.13a8.81,8.81,0,0,1,2-5.93,7.14,7.14,0,0,1,10.52,0,8.77,8.77,0,0,1,2,5.93v.5a8.81,8.81,0,0,1-2,5.95,6.53,6.53,0,0,1-5.24,2.3,6.63,6.63,0,0,1-5.29-2.3,8.81,8.81,0,0,1-2-5.95Zm1.82.5a7.81,7.81,0,0,0,1.44,4.79,5.06,5.06,0,0,0,8,0,7.81,7.81,0,0,0,1.44-4.79v-.5a7.79,7.79,0,0,0-1.44-4.75,4.71,4.71,0,0,0-4-1.95,4.65,4.65,0,0,0-4,1.95,7.79,7.79,0,0,0-1.44,4.75Z"/><path class="cls-47" d="M799.91,322.23l2.46-.19V308.73l-2.46-.19v-1.35H804l.16,2.86a5.64,5.64,0,0,1,5.3-3.16,5.06,5.06,0,0,1,4.06,1.62q1.39,1.64,1.39,5.08V322l2.47.19v1.34h-6.75v-1.34l2.47-.19v-8.43a5.91,5.91,0,0,0-1.06-4,3.8,3.8,0,0,0-3-1.17,4.69,4.69,0,0,0-3.11,1,5.58,5.58,0,0,0-1.73,2.67V322l2.47.19v1.34h-6.75Z"/><path class="cls-47" d="M819.67,301.3V300h4.27v10a5.82,5.82,0,0,1,5.36-3.1,4.94,4.94,0,0,1,4,1.6,7.46,7.46,0,0,1,1.39,5V322l2.47.19v1.34h-6.75v-1.34l2.46-.19v-8.6a5.61,5.61,0,0,0-1.05-3.82,3.73,3.73,0,0,0-2.9-1.16,4.9,4.9,0,0,0-3.11,1,5.72,5.72,0,0,0-1.84,2.59v10l2.47.19v1.34h-6.74v-1.34l2.47-.19V301.5Z"/><path class="cls-47" d="M846.92,323.88a6.59,6.59,0,0,1-5.12-2.26,8.31,8.31,0,0,1-2-5.76V315a8.55,8.55,0,0,1,2-5.83,6.24,6.24,0,0,1,4.88-2.31,6.08,6.08,0,0,1,4.74,1.9,7.3,7.3,0,0,1,1.72,5.09v1.54H841.58v.44a7.27,7.27,0,0,0,1.47,4.63,4.73,4.73,0,0,0,3.87,1.87,8,8,0,0,0,2.88-.47,6,6,0,0,0,2-1.35l.77,1.24a6.45,6.45,0,0,1-2.33,1.54A9,9,0,0,1,846.92,323.88Zm-.24-15.45a4.33,4.33,0,0,0-3.37,1.54,6.56,6.56,0,0,0-1.6,3.85l0,.07h9.6v-.45a5.23,5.23,0,0,0-1.26-3.57A4.27,4.27,0,0,0,846.68,308.43Z"/><path class="cls-47" d="M863.37,322.36a5.22,5.22,0,0,0,3.18-1,3.38,3.38,0,0,0,1.38-2.87h1.6l0,.1a4.5,4.5,0,0,1-1.81,3.8,6.71,6.71,0,0,1-4.38,1.52,6.22,6.22,0,0,1-5.16-2.29,9.15,9.15,0,0,1-1.83-5.89v-.64a9.13,9.13,0,0,1,1.83-5.87,6.19,6.19,0,0,1,5.15-2.3,8.21,8.21,0,0,1,3.46.71,6.7,6.7,0,0,1,2.56,1.94l.08,3.57h-1.55l-.28-2.91a5.19,5.19,0,0,0-1.81-1.29,6,6,0,0,0-2.46-.48,4.37,4.37,0,0,0-3.9,1.88,8.38,8.38,0,0,0-1.26,4.75v.64a8.41,8.41,0,0,0,1.25,4.78A4.4,4.4,0,0,0,863.37,322.36Z"/><path class="cls-47" d="M872.82,322.23l2.47-.19V308.73l-2.47-.19v-1.35h4.27V322l2.46.19v1.34h-6.73Zm4.27-19.73h-1.8V300h1.8Z"/><path class="cls-47" d="M882.2,308.54v-1.35h4.07l.17,2.71a5.82,5.82,0,0,1,2.11-2.23,6,6,0,0,1,3.13-.78,5.18,5.18,0,0,1,3.13.91,5,5,0,0,1,1.8,2.79,6.41,6.41,0,0,1,2.11-2.71,5.57,5.57,0,0,1,3.34-1,4.94,4.94,0,0,1,4.05,1.74c.95,1.16,1.43,2.95,1.43,5.39v8l2.47.21v1.34h-6.77v-1.34l2.47-.21v-8c0-2-.36-3.44-1.07-4.27a3.7,3.7,0,0,0-3-1.25,4,4,0,0,0-3.26,1.35,6.4,6.4,0,0,0-1.42,3.43,1.69,1.69,0,0,0,0,.23c0,.07,0,.16,0,.27V322l2.46.19v1.34h-6.75v-1.34l2.47-.19V314a6.58,6.58,0,0,0-1.08-4.24,3.71,3.71,0,0,0-3-1.28,4.52,4.52,0,0,0-3.06,1,5.16,5.16,0,0,0-1.58,2.62v10l2.46.19v1.34H882.2v-1.34l2.47-.19V308.73Z"/><path class="cls-47" d="M919.32,323.88a6.57,6.57,0,0,1-5.12-2.26,8.32,8.32,0,0,1-2-5.76V315a8.6,8.6,0,0,1,2-5.83,6.28,6.28,0,0,1,4.89-2.31,6.06,6.06,0,0,1,4.73,1.9,7.3,7.3,0,0,1,1.73,5.09v1.54H914v.44a7.27,7.27,0,0,0,1.47,4.63,4.7,4.7,0,0,0,3.87,1.87,7.88,7.88,0,0,0,2.87-.47,5.91,5.91,0,0,0,2-1.35l.77,1.24a6.54,6.54,0,0,1-2.33,1.54A9,9,0,0,1,919.32,323.88Zm-.24-15.45a4.31,4.31,0,0,0-3.37,1.54,6.56,6.56,0,0,0-1.6,3.85l0,.07h9.6v-.45a5.23,5.23,0,0,0-1.26-3.57A4.28,4.28,0,0,0,919.08,308.43Z"/><path class="cls-47" d="M928.44,322.23l2.47-.19V308.73l-2.47-.19v-1.35h4.08l.16,2.86a5.64,5.64,0,0,1,5.3-3.16,5.06,5.06,0,0,1,4.06,1.62q1.4,1.64,1.39,5.08V322l2.47.19v1.34h-6.75v-1.34l2.46-.19v-8.43a5.92,5.92,0,0,0-1.05-4,3.81,3.81,0,0,0-3-1.17,4.69,4.69,0,0,0-3.11,1,5.58,5.58,0,0,0-1.73,2.67V322l2.47.19v1.34h-6.76Z"/><path class="cls-47" d="M952.91,303v4.19h3.6v1.48h-3.6v10.67a3.49,3.49,0,0,0,.58,2.28,2,2,0,0,0,1.55.67c.29,0,.58,0,.86,0s.6-.07,1-.13l.27,1.35a4.7,4.7,0,0,1-1.1.3,8.26,8.26,0,0,1-1.31.1,3.37,3.37,0,0,1-2.68-1.09,5.12,5.12,0,0,1-1-3.45V308.67h-2.82v-1.48h2.82V303Z"/><path class="cls-47" d="M959.54,315.13a8.81,8.81,0,0,1,2-5.93,7.14,7.14,0,0,1,10.52,0,8.81,8.81,0,0,1,2,5.93v.5a8.81,8.81,0,0,1-2,5.95,7.18,7.18,0,0,1-10.53,0,8.81,8.81,0,0,1-2-5.95Zm1.81.5a7.81,7.81,0,0,0,1.44,4.79,4.72,4.72,0,0,0,4,1.94,4.68,4.68,0,0,0,4-1.94,7.81,7.81,0,0,0,1.44-4.79v-.5a7.79,7.79,0,0,0-1.45-4.75,5,5,0,0,0-8,0,7.79,7.79,0,0,0-1.44,4.75Z"/><path class="cls-47" d="M988.86,312.24h-1.49l-.21-2.31a4.61,4.61,0,0,0-1.72-1.11,6.71,6.71,0,0,0-2.38-.39,4.39,4.39,0,0,0-3,.86,2.55,2.55,0,0,0-1,2,2.39,2.39,0,0,0,.86,1.88,8.36,8.36,0,0,0,3.41,1.3,11.15,11.15,0,0,1,4.38,1.78,3.66,3.66,0,0,1,1.45,3.06,4,4,0,0,1-1.66,3.31,7,7,0,0,1-4.38,1.26,10.5,10.5,0,0,1-3.31-.5,8.07,8.07,0,0,1-2.58-1.43v-3.3h1.47L979,321a4.28,4.28,0,0,0,1.84,1,8.08,8.08,0,0,0,2.32.33,5,5,0,0,0,3.1-.87,2.54,2.54,0,0,0,1.14-2.09,2.67,2.67,0,0,0-.95-2A7.82,7.82,0,0,0,983,316a11.34,11.34,0,0,1-4.34-1.69,3.45,3.45,0,0,1-1.41-2.94,3.94,3.94,0,0,1,1.59-3.17,6.43,6.43,0,0,1,4.19-1.29,9.35,9.35,0,0,1,3.29.55,6.51,6.51,0,0,1,2.43,1.49Z"/><path class="cls-47" d="M1007.25,323.88a6.57,6.57,0,0,1-5.12-2.26,8.32,8.32,0,0,1-2-5.76V315a8.6,8.6,0,0,1,2-5.83,6.28,6.28,0,0,1,4.89-2.31,6.06,6.06,0,0,1,4.73,1.9,7.3,7.3,0,0,1,1.73,5.09v1.54h-11.56v.44a7.27,7.27,0,0,0,1.47,4.63,4.7,4.7,0,0,0,3.87,1.87,7.88,7.88,0,0,0,2.87-.47,5.91,5.91,0,0,0,2-1.35l.77,1.24a6.54,6.54,0,0,1-2.33,1.54A9,9,0,0,1,1007.25,323.88Zm-.24-15.45a4.31,4.31,0,0,0-3.37,1.54,6.5,6.5,0,0,0-1.6,3.85l0,.07h9.6v-.45a5.23,5.23,0,0,0-1.26-3.57A4.28,4.28,0,0,0,1007,308.43Z"/><path class="cls-47" d="M1016.32,308.54v-1.35h4.07l.16,2.71a5.82,5.82,0,0,1,2.11-2.23,6,6,0,0,1,3.13-.78,5.16,5.16,0,0,1,3.13.91,5.08,5.08,0,0,1,1.81,2.79,6.26,6.26,0,0,1,2.11-2.71,5.52,5.52,0,0,1,3.33-1,4.94,4.94,0,0,1,4,1.74c1,1.16,1.44,2.95,1.44,5.39v8l2.46.21v1.34h-6.76v-1.34l2.46-.21v-8c0-2-.35-3.44-1.06-4.27a3.72,3.72,0,0,0-3-1.25,4,4,0,0,0-3.26,1.35,6.55,6.55,0,0,0-1.42,3.43c0,.08,0,.16,0,.23a2.1,2.1,0,0,1,0,.27V322l2.47.19v1.34h-6.75v-1.34l2.46-.19V314a6.58,6.58,0,0,0-1.08-4.24,3.69,3.69,0,0,0-3-1.28,4.54,4.54,0,0,0-3.07,1,5.16,5.16,0,0,0-1.58,2.62v10l2.47.19v1.34h-6.75v-1.34l2.46-.19V308.73Z"/><path class="cls-47" d="M563.56,338.73a7.59,7.59,0,0,1,5.37,1.76,6.71,6.71,0,0,1,0,9.36,7.64,7.64,0,0,1-5.37,1.76h-5v7.63l2.46.19v1.34h-6.73v-1.34l2.46-.19v-19l-2.46-.2v-1.34h9.29Zm-5,11.33h5a5.55,5.55,0,0,0,4.1-1.38,4.77,4.77,0,0,0,1.37-3.49,4.84,4.84,0,0,0-1.37-3.52,5.49,5.49,0,0,0-4.1-1.4h-5Z"/><path class="cls-47" d="M581,361.08a6.57,6.57,0,0,1-5.12-2.26,8.32,8.32,0,0,1-2-5.76v-.83a8.6,8.6,0,0,1,2-5.83,6.29,6.29,0,0,1,4.89-2.32,6.07,6.07,0,0,1,4.73,1.91,7.3,7.3,0,0,1,1.73,5.09v1.54H575.66v.44a7.27,7.27,0,0,0,1.47,4.63,4.69,4.69,0,0,0,3.87,1.86,7.89,7.89,0,0,0,2.87-.46,5.91,5.91,0,0,0,2-1.35l.77,1.24a6.54,6.54,0,0,1-2.33,1.54A9.16,9.16,0,0,1,581,361.08Zm-.24-15.45a4.31,4.31,0,0,0-3.37,1.54,6.5,6.5,0,0,0-1.6,3.85l0,.07h9.6v-.45a5.23,5.23,0,0,0-1.26-3.57A4.28,4.28,0,0,0,580.76,345.63Z"/><path class="cls-47" d="M590.13,359.43l2.46-.19V345.93l-2.46-.2v-1.34h4.07l.16,2.86a5.67,5.67,0,0,1,5.3-3.17,5.07,5.07,0,0,1,4.06,1.63q1.39,1.64,1.39,5.08v8.45l2.47.19v1.34h-6.75v-1.34l2.47-.19v-8.43a6,6,0,0,0-1.06-4,3.83,3.83,0,0,0-3-1.16,4.71,4.71,0,0,0-3.11,1,5.58,5.58,0,0,0-1.73,2.67v9.9l2.47.19v1.34h-6.75Z"/><path class="cls-47" d="M622.31,349.44h-1.49l-.21-2.31a4.61,4.61,0,0,0-1.72-1.11,6.71,6.71,0,0,0-2.38-.39,4.44,4.44,0,0,0-3,.85,2.56,2.56,0,0,0-1,2,2.39,2.39,0,0,0,.86,1.88,8.51,8.51,0,0,0,3.41,1.3,11.15,11.15,0,0,1,4.38,1.78,3.66,3.66,0,0,1,1.45,3.06,4,4,0,0,1-1.66,3.31,7,7,0,0,1-4.38,1.26,10.5,10.5,0,0,1-3.31-.5,8.07,8.07,0,0,1-2.58-1.43v-3.3h1.47l.26,2.33a4.28,4.28,0,0,0,1.84,1.05,8.08,8.08,0,0,0,2.32.32,5,5,0,0,0,3.1-.86,2.54,2.54,0,0,0,1.14-2.09,2.67,2.67,0,0,0-1-2,7.59,7.59,0,0,0-3.41-1.41,11.34,11.34,0,0,1-4.34-1.69,3.45,3.45,0,0,1-1.41-2.94,3.94,3.94,0,0,1,1.59-3.17,6.44,6.44,0,0,1,4.19-1.3,9.35,9.35,0,0,1,3.29.56,6.51,6.51,0,0,1,2.43,1.49Z"/><path class="cls-47" d="M637.25,360.77c-.12-.56-.21-1-.26-1.44a10,10,0,0,1-.08-1.23,7.2,7.2,0,0,1-2.42,2.14,6.88,6.88,0,0,1-3.4.84,5.22,5.22,0,0,1-3.73-1.24,4.43,4.43,0,0,1-1.31-3.36,4.15,4.15,0,0,1,2-3.6,9.26,9.26,0,0,1,5.3-1.33h3.61v-2.17a3.47,3.47,0,0,0-1.12-2.75,4.61,4.61,0,0,0-3.16-1,7.84,7.84,0,0,0-2.49.37,5.52,5.52,0,0,0-1.88,1l-.16,2.19h-1.49v-3.15a9.45,9.45,0,0,1,2.72-1.42,10.35,10.35,0,0,1,3.37-.55,6.58,6.58,0,0,1,4.36,1.38,4.86,4.86,0,0,1,1.65,4v8.06c0,.33,0,.65,0,1a6.52,6.52,0,0,0,.1.9l1.63.1v1.34Zm-6-1.29a6.53,6.53,0,0,0,3.47-.91,5.35,5.35,0,0,0,2.16-2.35v-3.28h-3.64a6.84,6.84,0,0,0-3.95,1,3,3,0,0,0-1.47,2.58,2.7,2.7,0,0,0,.91,2.13A3.67,3.67,0,0,0,631.28,359.48Z"/><path class="cls-47" d="M642.65,345.73v-1.34h4.07l.17,2.71a5.87,5.87,0,0,1,2.1-2.23,6.07,6.07,0,0,1,3.14-.79,5.18,5.18,0,0,1,3.13.92,5,5,0,0,1,1.8,2.79,6.41,6.41,0,0,1,2.11-2.71,5.58,5.58,0,0,1,3.34-1,4.94,4.94,0,0,1,4,1.75q1.43,1.74,1.43,5.38v8l2.47.21v1.34h-6.77v-1.34l2.47-.21v-8c0-2-.36-3.44-1.07-4.27a3.7,3.7,0,0,0-3-1.25,4,4,0,0,0-3.26,1.35,6.36,6.36,0,0,0-1.42,3.43,1.69,1.69,0,0,0,0,.23c0,.07,0,.16,0,.27v8.3l2.46.19v1.34h-6.75v-1.34l2.47-.19v-8.06a6.58,6.58,0,0,0-1.08-4.24,3.71,3.71,0,0,0-3-1.28,4.47,4.47,0,0,0-3.06,1,5.16,5.16,0,0,0-1.58,2.62v10l2.46.19v1.34h-6.75v-1.34l2.47-.19V345.93Z"/><path class="cls-47" d="M679.77,361.08a6.57,6.57,0,0,1-5.12-2.26,8.32,8.32,0,0,1-2-5.76v-.83a8.6,8.6,0,0,1,2-5.83,6.29,6.29,0,0,1,4.89-2.32,6.07,6.07,0,0,1,4.73,1.91,7.3,7.3,0,0,1,1.73,5.09v1.54H674.42v.44a7.27,7.27,0,0,0,1.48,4.63,4.69,4.69,0,0,0,3.87,1.86,7.89,7.89,0,0,0,2.87-.46,5.91,5.91,0,0,0,2.05-1.35l.77,1.24a6.54,6.54,0,0,1-2.33,1.54A9.16,9.16,0,0,1,679.77,361.08Zm-.24-15.45a4.31,4.31,0,0,0-3.37,1.54,6.5,6.5,0,0,0-1.6,3.85l0,.07h9.6v-.45a5.23,5.23,0,0,0-1.26-3.57A4.28,4.28,0,0,0,679.53,345.63Z"/><path class="cls-47" d="M688.89,359.43l2.47-.19V345.93l-2.47-.2v-1.34H693l.16,2.86a5.67,5.67,0,0,1,5.3-3.17,5.07,5.07,0,0,1,4.06,1.63q1.39,1.64,1.39,5.08v8.45l2.47.19v1.34H699.6v-1.34l2.46-.19v-8.43a6,6,0,0,0-1-4,3.84,3.84,0,0,0-3-1.16,4.69,4.69,0,0,0-3.11,1,5.58,5.58,0,0,0-1.73,2.67v9.9l2.47.19v1.34h-6.76Z"/><path class="cls-47" d="M713.36,340.2v4.19H717v1.48h-3.6v10.67a3.49,3.49,0,0,0,.58,2.28,1.94,1.94,0,0,0,1.55.67c.29,0,.58,0,.86,0l1-.13.27,1.34a4.21,4.21,0,0,1-1.11.31,8,8,0,0,1-1.3.1,3.37,3.37,0,0,1-2.68-1.09,5.06,5.06,0,0,1-1-3.45V345.87h-2.81v-1.48h2.81V340.2Z"/><path class="cls-47" d="M720,352.33a8.81,8.81,0,0,1,2-5.93,7.12,7.12,0,0,1,10.52,0,8.81,8.81,0,0,1,2,5.93v.5a8.86,8.86,0,0,1-2,5.95,7.18,7.18,0,0,1-10.53,0,8.81,8.81,0,0,1-2-5.95Zm1.81.5a7.81,7.81,0,0,0,1.44,4.79,4.72,4.72,0,0,0,4,1.93,4.67,4.67,0,0,0,4-1.93,7.81,7.81,0,0,0,1.44-4.79v-.5a7.79,7.79,0,0,0-1.45-4.75,5,5,0,0,0-8,0,7.79,7.79,0,0,0-1.44,4.75Z"/><path class="cls-47" d="M762.11,345.63H760.7l-.25-3.35a6.52,6.52,0,0,0-2.29-1.68,7.73,7.73,0,0,0-3.25-.65,7.19,7.19,0,0,0-5.88,2.69,10.67,10.67,0,0,0-2.18,6.94v.32a10.79,10.79,0,0,0,2.16,7,6.91,6.91,0,0,0,5.67,2.7,8.39,8.39,0,0,0,3.38-.65,6.18,6.18,0,0,0,2.39-1.68l.25-3.34h1.41v3.87a7.87,7.87,0,0,1-3,2.38,10,10,0,0,1-4.43.95,8.68,8.68,0,0,1-6.93-3.14,11.88,11.88,0,0,1-2.7-8v-.29a12,12,0,0,1,2.69-8.06,8.81,8.81,0,0,1,7-3.14,9.66,9.66,0,0,1,4.38,1,8,8,0,0,1,3,2.38Z"/><path class="cls-47" d="M765.38,352.33a8.81,8.81,0,0,1,2-5.93,7.12,7.12,0,0,1,10.52,0,8.77,8.77,0,0,1,2,5.93v.5a8.81,8.81,0,0,1-2,5.95,6.56,6.56,0,0,1-5.24,2.3,6.66,6.66,0,0,1-5.29-2.3,8.81,8.81,0,0,1-2-5.95Zm1.82.5a7.81,7.81,0,0,0,1.44,4.79,5.08,5.08,0,0,0,8,0,7.81,7.81,0,0,0,1.44-4.79v-.5a7.79,7.79,0,0,0-1.44-4.75,4.71,4.71,0,0,0-4-1.95,4.65,4.65,0,0,0-4,1.95,7.79,7.79,0,0,0-1.44,4.75Z"/><path class="cls-47" d="M782.42,345.73v-1.34h4.08l.16,2.71a5.82,5.82,0,0,1,2.11-2.23,6,6,0,0,1,3.13-.79A5.16,5.16,0,0,1,795,345a5.08,5.08,0,0,1,1.81,2.79,6.26,6.26,0,0,1,2.11-2.71,5.52,5.52,0,0,1,3.33-1,4.94,4.94,0,0,1,4.05,1.75c1,1.16,1.43,2.95,1.43,5.38v8l2.47.21v1.34h-6.76v-1.34l2.46-.21v-8c0-2-.35-3.44-1.06-4.27a3.74,3.74,0,0,0-3-1.25,4,4,0,0,0-3.26,1.35,6.52,6.52,0,0,0-1.42,3.43c0,.08,0,.16,0,.23a2.1,2.1,0,0,1,0,.27v8.3l2.47.19v1.34H793v-1.34l2.46-.19v-8.06a6.58,6.58,0,0,0-1.08-4.24,3.69,3.69,0,0,0-3-1.28,4.48,4.48,0,0,0-3.07,1,5.16,5.16,0,0,0-1.58,2.62v10l2.47.19v1.34h-6.76v-1.34l2.47-.19V345.93Z"/><path class="cls-47" d="M812,345.73v-1.34h4l.22,2.54a5.78,5.78,0,0,1,5.17-2.85,5.34,5.34,0,0,1,4.61,2.36,10.65,10.65,0,0,1,1.67,6.27V353A9.47,9.47,0,0,1,826,358.9a5.46,5.46,0,0,1-4.58,2.18,6.56,6.56,0,0,1-3-.66,5.51,5.51,0,0,1-2.12-1.86v7l2.47.19v1.35H812v-1.35l2.46-.19V345.93Zm13.83,7a9.35,9.35,0,0,0-1.24-5.08,4,4,0,0,0-3.63-2,4.81,4.81,0,0,0-3,.87,5.4,5.4,0,0,0-1.72,2.26v7.87a5,5,0,0,0,1.8,2.12,5.18,5.18,0,0,0,2.93.77,4.11,4.11,0,0,0,3.61-1.78,8.21,8.21,0,0,0,1.23-4.74Z"/><path class="cls-47" d="M842.62,358.07a5.54,5.54,0,0,1-2.11,2.23,6.13,6.13,0,0,1-3.15.78,5,5,0,0,1-4.05-1.75c-1-1.17-1.46-3-1.46-5.45v-7.95l-2-.2v-1.34h3.83v9.52a7.06,7.06,0,0,0,1,4.3,3.47,3.47,0,0,0,2.9,1.3,5.36,5.36,0,0,0,3.28-.91,4.77,4.77,0,0,0,1.71-2.51V345.93l-2.33-.2v-1.34h4.15v14.85l2.2.19v1.34h-3.79Z"/><path class="cls-47" d="M853.4,340.2v4.19H857v1.48h-3.6v10.67a3.55,3.55,0,0,0,.58,2.28,2,2,0,0,0,1.56.67c.29,0,.57,0,.85,0s.6-.07,1-.13l.27,1.34a4.24,4.24,0,0,1-1.1.31,8.13,8.13,0,0,1-1.3.1,3.39,3.39,0,0,1-2.69-1.09,5.12,5.12,0,0,1-1-3.45V345.87h-2.82v-1.48h2.82V340.2Z"/><path class="cls-47" d="M871.64,360.77c-.12-.56-.21-1-.26-1.44a10,10,0,0,1-.07-1.23,7.3,7.3,0,0,1-2.42,2.14,6.92,6.92,0,0,1-3.41.84,5.21,5.21,0,0,1-3.72-1.24,4.4,4.4,0,0,1-1.32-3.36,4.15,4.15,0,0,1,1.95-3.6,9.26,9.26,0,0,1,5.3-1.33h3.62v-2.17a3.48,3.48,0,0,0-1.13-2.75,4.57,4.57,0,0,0-3.16-1,7.82,7.82,0,0,0-2.48.37,5.57,5.57,0,0,0-1.89,1l-.15,2.19H861l0-3.15a9.39,9.39,0,0,1,2.71-1.42,10.4,10.4,0,0,1,3.37-.55,6.57,6.57,0,0,1,4.36,1.38,4.86,4.86,0,0,1,1.65,4v8.06c0,.33,0,.65,0,1a8.54,8.54,0,0,0,.1.9l1.64.1v1.34Zm-6-1.29a6.47,6.47,0,0,0,3.46-.91,5.43,5.43,0,0,0,2.17-2.35v-3.28h-3.65a6.81,6.81,0,0,0-3.94,1,3,3,0,0,0-1.48,2.58,2.71,2.71,0,0,0,.92,2.13A3.67,3.67,0,0,0,865.68,359.48Z"/><path class="cls-47" d="M884.43,359.55a5.21,5.21,0,0,0,3.18-1,3.38,3.38,0,0,0,1.38-2.87h1.6l0,.1a4.47,4.47,0,0,1-1.81,3.79,6.72,6.72,0,0,1-4.38,1.53,6.22,6.22,0,0,1-5.16-2.29,9.16,9.16,0,0,1-1.83-5.9v-.63a9.13,9.13,0,0,1,1.83-5.87,6.2,6.2,0,0,1,5.15-2.31,8.21,8.21,0,0,1,3.46.72,6.86,6.86,0,0,1,2.56,1.93l.08,3.58H889l-.29-2.91a5.06,5.06,0,0,0-1.8-1.29,6.07,6.07,0,0,0-2.46-.48,4.37,4.37,0,0,0-3.9,1.88,8.38,8.38,0,0,0-1.27,4.75v.63a8.43,8.43,0,0,0,1.26,4.79A4.39,4.39,0,0,0,884.43,359.55Z"/><path class="cls-47" d="M893.88,359.43l2.46-.19V345.93l-2.46-.2v-1.34h4.27v14.85l2.46.19v1.34h-6.73Zm4.27-19.73h-1.81v-2.55h1.81Z"/><path class="cls-47" d="M903.66,352.33a8.81,8.81,0,0,1,2-5.93,7.12,7.12,0,0,1,10.52,0,8.81,8.81,0,0,1,2,5.93v.5a8.86,8.86,0,0,1-2,5.95,7.18,7.18,0,0,1-10.53,0,8.81,8.81,0,0,1-2-5.95Zm1.81.5a7.81,7.81,0,0,0,1.44,4.79,4.72,4.72,0,0,0,4,1.93,4.67,4.67,0,0,0,4-1.93,7.87,7.87,0,0,0,1.43-4.79v-.5a7.79,7.79,0,0,0-1.44-4.75,5,5,0,0,0-8,0,7.79,7.79,0,0,0-1.44,4.75Z"/><path class="cls-47" d="M920.76,359.43l2.47-.19V345.93l-2.47-.2v-1.34h4.07l.17,2.86a5.81,5.81,0,0,1,2.12-2.34,6,6,0,0,1,3.18-.83,5.06,5.06,0,0,1,4.05,1.63,7.7,7.7,0,0,1,1.4,5.08v8.45l2.46.19v1.34h-6.75v-1.34l2.47-.19v-8.43a6,6,0,0,0-1-4,3.86,3.86,0,0,0-3-1.16,4.69,4.69,0,0,0-3.11,1,5.6,5.6,0,0,0-1.74,2.67v9.9l2.47.19v1.34h-6.75Z"/><path class="cls-47" d="M952.37,360.77c-.12-.56-.21-1-.26-1.44a10,10,0,0,1-.08-1.23,7.2,7.2,0,0,1-2.42,2.14,6.88,6.88,0,0,1-3.4.84,5.22,5.22,0,0,1-3.73-1.24,4.39,4.39,0,0,1-1.31-3.36,4.15,4.15,0,0,1,2-3.6,9.26,9.26,0,0,1,5.3-1.33H952v-2.17a3.47,3.47,0,0,0-1.12-2.75,4.61,4.61,0,0,0-3.16-1,7.84,7.84,0,0,0-2.49.37,5.52,5.52,0,0,0-1.88,1l-.16,2.19h-1.49v-3.15a9.45,9.45,0,0,1,2.72-1.42,10.31,10.31,0,0,1,3.37-.55,6.54,6.54,0,0,1,4.35,1.38,4.87,4.87,0,0,1,1.66,4v8.06c0,.33,0,.65,0,1a6.52,6.52,0,0,0,.1.9l1.63.1v1.34Zm-6-1.29a6.53,6.53,0,0,0,3.47-.91,5.35,5.35,0,0,0,2.16-2.35v-3.28h-3.64a6.84,6.84,0,0,0-3.95,1,3,3,0,0,0-1.47,2.58,2.7,2.7,0,0,0,.91,2.13A3.67,3.67,0,0,0,946.4,359.48Z"/><path class="cls-47" d="M957.8,338.5v-1.35h4.27v22.09l2.47.19v1.34H957.8v-1.34l2.47-.19V338.7Z"/><path class="cls-47" d="M982.15,361.08a6.57,6.57,0,0,1-5.11-2.26,8.32,8.32,0,0,1-2-5.76v-.83a8.55,8.55,0,0,1,2-5.83,6.27,6.27,0,0,1,4.88-2.32,6.08,6.08,0,0,1,4.74,1.91,7.3,7.3,0,0,1,1.73,5.09v1.54H976.81v.44a7.22,7.22,0,0,0,1.48,4.63,4.69,4.69,0,0,0,3.86,1.86,8,8,0,0,0,2.88-.46,5.77,5.77,0,0,0,2-1.35l.78,1.24a6.58,6.58,0,0,1-2.34,1.54A9.09,9.09,0,0,1,982.15,361.08Zm-.24-15.45a4.34,4.34,0,0,0-3.37,1.54A6.55,6.55,0,0,0,977,351l0,.07h9.59v-.45a5.22,5.22,0,0,0-1.25-3.57A4.3,4.3,0,0,0,981.91,345.63Z"/><path class="cls-47" d="M561.65,396.75a5.21,5.21,0,0,0,3.18-1,3.38,3.38,0,0,0,1.38-2.87h1.6l0,.1a4.46,4.46,0,0,1-1.8,3.79,6.77,6.77,0,0,1-4.39,1.53,6.22,6.22,0,0,1-5.16-2.29,9.16,9.16,0,0,1-1.83-5.9v-.63a9.13,9.13,0,0,1,1.83-5.87,6.19,6.19,0,0,1,5.15-2.3,8.18,8.18,0,0,1,3.46.71,6.78,6.78,0,0,1,2.56,1.93l.08,3.58h-1.55l-.28-2.91a5.19,5.19,0,0,0-1.81-1.29,6,6,0,0,0-2.46-.48,4.37,4.37,0,0,0-3.9,1.88,8.38,8.38,0,0,0-1.26,4.75v.63a8.5,8.5,0,0,0,1.25,4.79A4.39,4.39,0,0,0,561.65,396.75Z"/><path class="cls-47" d="M571.22,389.53a8.81,8.81,0,0,1,2-5.93,7.14,7.14,0,0,1,10.52,0,8.77,8.77,0,0,1,2,5.93v.5a8.81,8.81,0,0,1-2,6,6.57,6.57,0,0,1-5.24,2.3,6.66,6.66,0,0,1-5.29-2.3,8.81,8.81,0,0,1-2-6Zm1.82.5a7.87,7.87,0,0,0,1.43,4.79,4.72,4.72,0,0,0,4,1.93,4.66,4.66,0,0,0,4-1.93,7.81,7.81,0,0,0,1.44-4.79v-.5a7.73,7.73,0,0,0-1.45-4.75,5,5,0,0,0-8,0,7.85,7.85,0,0,0-1.43,4.75Z"/><path class="cls-47" d="M592.58,381.59l.22,2.72v.2a5.81,5.81,0,0,1,1.91-2.37,4.78,4.78,0,0,1,2.85-.85,3.71,3.71,0,0,1,.67,0,3.89,3.89,0,0,1,.54.11l-.24,1.7-1.35-.09a4.11,4.11,0,0,0-2.81,1,5.36,5.36,0,0,0-1.57,2.64v9.78l2.47.19V398h-6.73v-1.34l2.46-.19V383.13l-2.46-.2v-1.34h4Z"/><path class="cls-47" d="M605,381.59l.22,2.72v.2a5.87,5.87,0,0,1,1.9-2.37,4.81,4.81,0,0,1,2.86-.85,3.71,3.71,0,0,1,.67,0,3.89,3.89,0,0,1,.54.11l-.24,1.7-1.35-.09a4.11,4.11,0,0,0-2.81,1,5.36,5.36,0,0,0-1.57,2.64v9.78l2.47.19V398H601v-1.34l2.46-.19V383.13l-2.46-.2v-1.34h4Z"/><path class="cls-47" d="M620.51,398.28a6.57,6.57,0,0,1-5.12-2.26,8.32,8.32,0,0,1-2-5.76v-.83a8.6,8.6,0,0,1,2-5.83,6.27,6.27,0,0,1,4.88-2.31,6.07,6.07,0,0,1,4.74,1.9,7.3,7.3,0,0,1,1.73,5.09v1.54H615.16v.44a7.22,7.22,0,0,0,1.48,4.63,4.69,4.69,0,0,0,3.87,1.86,7.89,7.89,0,0,0,2.87-.46,5.77,5.77,0,0,0,2-1.35l.78,1.24a6.63,6.63,0,0,1-2.33,1.54A9.16,9.16,0,0,1,620.51,398.28Zm-.25-15.45a4.31,4.31,0,0,0-3.36,1.54,6.5,6.5,0,0,0-1.6,3.85l0,.07h9.6v-.45a5.23,5.23,0,0,0-1.26-3.57A4.29,4.29,0,0,0,620.26,382.83Z"/><path class="cls-47" d="M629.6,375.7v-1.35h4.27v22.09l2.47.19V398H629.6v-1.34l2.47-.19V375.9Z"/><path class="cls-47" d="M650.51,398c-.12-.56-.21-1-.26-1.44a10,10,0,0,1-.08-1.23,7.2,7.2,0,0,1-2.42,2.14,6.88,6.88,0,0,1-3.4.84,5.22,5.22,0,0,1-3.73-1.24,4.43,4.43,0,0,1-1.31-3.36,4.15,4.15,0,0,1,2-3.6,9.26,9.26,0,0,1,5.3-1.33h3.61v-2.17a3.47,3.47,0,0,0-1.12-2.75,4.61,4.61,0,0,0-3.16-1,7.84,7.84,0,0,0-2.49.37,5.52,5.52,0,0,0-1.88,1l-.16,2.19h-1.49v-3.15a9.45,9.45,0,0,1,2.72-1.42,10.35,10.35,0,0,1,3.37-.54,6.58,6.58,0,0,1,4.36,1.37,4.9,4.9,0,0,1,1.65,3.95v8.06c0,.33,0,.65,0,1a6.52,6.52,0,0,0,.1.9l1.63.1V398Zm-6-1.29a6.53,6.53,0,0,0,3.47-.91,5.3,5.3,0,0,0,2.16-2.35v-3.28h-3.64a6.84,6.84,0,0,0-3.95,1,3,3,0,0,0-1.47,2.58,2.7,2.7,0,0,0,.91,2.13A3.67,3.67,0,0,0,644.54,396.68Z"/><path class="cls-47" d="M663.3,396.75a5.21,5.21,0,0,0,3.18-1,3.4,3.4,0,0,0,1.37-2.87h1.61l0,.1a4.49,4.49,0,0,1-1.81,3.79,6.76,6.76,0,0,1-4.38,1.53,6.25,6.25,0,0,1-5.17-2.29,9.16,9.16,0,0,1-1.83-5.9v-.63a9.13,9.13,0,0,1,1.83-5.87,6.2,6.2,0,0,1,5.15-2.3,8.25,8.25,0,0,1,3.47.71,6.86,6.86,0,0,1,2.56,1.93l.07,3.58h-1.54l-.29-2.91a5.1,5.1,0,0,0-1.81-1.29,6,6,0,0,0-2.46-.48,4.4,4.4,0,0,0-3.9,1.88,8.38,8.38,0,0,0-1.26,4.75v.63a8.43,8.43,0,0,0,1.26,4.79A4.37,4.37,0,0,0,663.3,396.75Z"/><path class="cls-47" d="M672.74,396.63l2.47-.19V383.13l-2.47-.2v-1.34H677v14.85l2.47.19V398h-6.74ZM677,376.9h-1.8v-2.55H677Z"/><path class="cls-47" d="M682.52,389.53a8.81,8.81,0,0,1,2-5.93,7.14,7.14,0,0,1,10.52,0,8.82,8.82,0,0,1,2,5.93v.5a8.81,8.81,0,0,1-2,6,6.57,6.57,0,0,1-5.24,2.3,6.66,6.66,0,0,1-5.29-2.3,8.81,8.81,0,0,1-2-6Zm1.82.5a7.87,7.87,0,0,0,1.43,4.79,4.72,4.72,0,0,0,4,1.93,4.66,4.66,0,0,0,4-1.93,7.81,7.81,0,0,0,1.44-4.79v-.5a7.73,7.73,0,0,0-1.45-4.75,5,5,0,0,0-8,0,7.85,7.85,0,0,0-1.43,4.75Z"/><path class="cls-47" d="M699.62,396.63l2.47-.19V383.13l-2.47-.2v-1.34h4.08l.16,2.86a5.64,5.64,0,0,1,5.3-3.16,5.06,5.06,0,0,1,4.06,1.62q1.39,1.63,1.39,5.08v8.45l2.47.19V398h-6.75v-1.34l2.46-.19V388a6,6,0,0,0-1-4,3.84,3.84,0,0,0-3-1.16,4.69,4.69,0,0,0-3.11,1,5.58,5.58,0,0,0-1.73,2.67v9.9l2.47.19V398h-6.76Z"/><path class="cls-47" d="M731.23,398c-.12-.56-.21-1-.26-1.44a10,10,0,0,1-.07-1.23,7.3,7.3,0,0,1-2.42,2.14,6.92,6.92,0,0,1-3.41.84,5.21,5.21,0,0,1-3.72-1.24,4.4,4.4,0,0,1-1.32-3.36,4.15,4.15,0,0,1,2-3.6,9.26,9.26,0,0,1,5.3-1.33h3.62v-2.17a3.48,3.48,0,0,0-1.13-2.75,4.57,4.57,0,0,0-3.16-1,7.82,7.82,0,0,0-2.48.37,5.57,5.57,0,0,0-1.89,1l-.15,2.19h-1.5l0-3.15a9.39,9.39,0,0,1,2.71-1.42,10.39,10.39,0,0,1,3.37-.54,6.56,6.56,0,0,1,4.36,1.37,4.86,4.86,0,0,1,1.65,3.95v8.06c0,.33,0,.65,0,1a8.54,8.54,0,0,0,.1.9l1.64.1V398Zm-6-1.29a6.47,6.47,0,0,0,3.46-.91,5.38,5.38,0,0,0,2.17-2.35v-3.28h-3.65a6.81,6.81,0,0,0-3.94,1,3,3,0,0,0-1.48,2.58,2.71,2.71,0,0,0,.92,2.13A3.67,3.67,0,0,0,725.27,396.68Zm3.07-21.34h2.23l0,.09-3.77,3.93h-1.62Z"/><path class="cls-47" d="M745.13,389.34h-7.24v-1.53h7.24Z"/><path class="cls-47" d="M748.67,375.7v-1.35h4.27v22.09l2.46.19V398h-6.73v-1.34l2.47-.19V375.9Z"/><path class="cls-47" d="M758,389.53a8.81,8.81,0,0,1,2-5.93,7.14,7.14,0,0,1,10.52,0,8.77,8.77,0,0,1,2,5.93v.5a8.81,8.81,0,0,1-2,6,6.56,6.56,0,0,1-5.24,2.3,6.66,6.66,0,0,1-5.29-2.3,8.81,8.81,0,0,1-2-6Zm1.82.5a7.81,7.81,0,0,0,1.44,4.79,5.08,5.08,0,0,0,8,0,7.81,7.81,0,0,0,1.44-4.79v-.5a7.79,7.79,0,0,0-1.44-4.75,4.71,4.71,0,0,0-4-1.95,4.65,4.65,0,0,0-4,1.95,7.79,7.79,0,0,0-1.44,4.75Z"/><path class="cls-47" d="M787.28,386.64H785.8l-.21-2.31a4.69,4.69,0,0,0-1.72-1.11,6.77,6.77,0,0,0-2.39-.39,4.44,4.44,0,0,0-3,.85,2.58,2.58,0,0,0-1,2,2.38,2.38,0,0,0,.85,1.88,8.35,8.35,0,0,0,3.42,1.3,11.16,11.16,0,0,1,4.37,1.78,3.66,3.66,0,0,1,1.45,3.06A4,4,0,0,1,786,397a7.07,7.07,0,0,1-4.38,1.26,10.41,10.41,0,0,1-3.31-.5,7.86,7.86,0,0,1-2.58-1.43v-3.3h1.47l.25,2.33a4.34,4.34,0,0,0,1.84,1.05,8.15,8.15,0,0,0,2.33.32,5,5,0,0,0,3.1-.86,2.56,2.56,0,0,0,1.13-2.09,2.66,2.66,0,0,0-.94-2,7.7,7.7,0,0,0-3.42-1.41,11.28,11.28,0,0,1-4.33-1.69,3.44,3.44,0,0,1-1.42-2.94,3.94,3.94,0,0,1,1.59-3.17,6.45,6.45,0,0,1,4.19-1.29,9.44,9.44,0,0,1,3.3.55,6.67,6.67,0,0,1,2.43,1.49Z"/><path class="cls-47" d="M805.44,396.75a5.17,5.17,0,0,0,3.18-1,3.38,3.38,0,0,0,1.38-2.87h1.61l0,.1a4.49,4.49,0,0,1-1.81,3.79,6.77,6.77,0,0,1-4.39,1.53,6.22,6.22,0,0,1-5.16-2.29,9.16,9.16,0,0,1-1.83-5.9v-.63a9.13,9.13,0,0,1,1.83-5.87,6.19,6.19,0,0,1,5.15-2.3,8.25,8.25,0,0,1,3.47.71,6.74,6.74,0,0,1,2.55,1.93l.08,3.58H810l-.29-2.91a5.19,5.19,0,0,0-1.81-1.29,6,6,0,0,0-2.46-.48,4.37,4.37,0,0,0-3.9,1.88,8.38,8.38,0,0,0-1.26,4.75v.63a8.5,8.5,0,0,0,1.25,4.79A4.39,4.39,0,0,0,805.44,396.75Z"/><path class="cls-47" d="M815,389.53a8.77,8.77,0,0,1,2-5.93,7.13,7.13,0,0,1,10.51,0,8.77,8.77,0,0,1,2,5.93v.5a8.81,8.81,0,0,1-2,6,6.56,6.56,0,0,1-5.24,2.3A6.63,6.63,0,0,1,817,396a8.77,8.77,0,0,1-2-6Zm1.82.5a7.81,7.81,0,0,0,1.44,4.79,4.7,4.7,0,0,0,4,1.93,4.65,4.65,0,0,0,4-1.93,7.81,7.81,0,0,0,1.44-4.79v-.5a7.79,7.79,0,0,0-1.44-4.75,5,5,0,0,0-8,0,7.79,7.79,0,0,0-1.44,4.75Z"/><path class="cls-47" d="M832.06,382.93v-1.34h4.07l.16,2.71a5.82,5.82,0,0,1,2.11-2.23,6,6,0,0,1,3.13-.78,5.21,5.21,0,0,1,3.14.91,5.13,5.13,0,0,1,1.8,2.79,6.26,6.26,0,0,1,2.11-2.71,5.53,5.53,0,0,1,3.34-1,4.93,4.93,0,0,1,4,1.74c1,1.16,1.44,3,1.44,5.39v8l2.46.21V398H853.1v-1.34l2.46-.21v-8c0-2-.35-3.44-1.06-4.27a3.72,3.72,0,0,0-3-1.25,4,4,0,0,0-3.26,1.35,6.52,6.52,0,0,0-1.42,3.43c0,.08,0,.16,0,.23a2.1,2.1,0,0,1,0,.27v8.3l2.47.19V398h-6.75v-1.34l2.46-.19v-8.06a6.58,6.58,0,0,0-1.08-4.24,3.69,3.69,0,0,0-3-1.28,4.49,4.49,0,0,0-3.07,1,5.16,5.16,0,0,0-1.58,2.62v10l2.47.19V398h-6.75v-1.34l2.46-.19V383.13Z"/><path class="cls-47" d="M881,398c-.12-.56-.21-1-.26-1.44a10,10,0,0,1-.08-1.23,7.2,7.2,0,0,1-2.42,2.14,6.88,6.88,0,0,1-3.4.84,5.22,5.22,0,0,1-3.73-1.24,4.39,4.39,0,0,1-1.31-3.36,4.15,4.15,0,0,1,2-3.6,9.26,9.26,0,0,1,5.3-1.33h3.61v-2.17a3.47,3.47,0,0,0-1.12-2.75,4.61,4.61,0,0,0-3.16-1,7.84,7.84,0,0,0-2.49.37,5.52,5.52,0,0,0-1.88,1l-.16,2.19h-1.49v-3.15a9.45,9.45,0,0,1,2.72-1.42,10.31,10.31,0,0,1,3.37-.54,6.53,6.53,0,0,1,4.35,1.37,4.87,4.87,0,0,1,1.66,3.95v8.06c0,.33,0,.65,0,1a6.52,6.52,0,0,0,.1.9l1.63.1V398Zm-6-1.29a6.53,6.53,0,0,0,3.47-.91,5.3,5.3,0,0,0,2.16-2.35v-3.28H877a6.84,6.84,0,0,0-4,1,3,3,0,0,0-1.47,2.58,2.7,2.7,0,0,0,.91,2.13A3.67,3.67,0,0,0,875,396.68Z"/><path class="cls-47" d="M898.63,386.64h-1.49l-.21-2.31a4.61,4.61,0,0,0-1.72-1.11,6.71,6.71,0,0,0-2.38-.39,4.44,4.44,0,0,0-3,.85,2.56,2.56,0,0,0-1,2,2.39,2.39,0,0,0,.86,1.88,8.36,8.36,0,0,0,3.41,1.3,11.15,11.15,0,0,1,4.38,1.78,3.66,3.66,0,0,1,1.45,3.06A4,4,0,0,1,897.3,397a7,7,0,0,1-4.38,1.26,10.5,10.5,0,0,1-3.31-.5,8.07,8.07,0,0,1-2.58-1.43v-3.3h1.47l.26,2.33a4.28,4.28,0,0,0,1.84,1.05,8.08,8.08,0,0,0,2.32.32,5,5,0,0,0,3.1-.86,2.54,2.54,0,0,0,1.14-2.09,2.67,2.67,0,0,0-.95-2,7.71,7.71,0,0,0-3.41-1.41,11.34,11.34,0,0,1-4.34-1.69,3.45,3.45,0,0,1-1.41-2.94,3.94,3.94,0,0,1,1.59-3.17,6.43,6.43,0,0,1,4.19-1.29,9.35,9.35,0,0,1,3.29.55,6.51,6.51,0,0,1,2.43,1.49Z"/><path class="cls-47" d="M554.13,412.9v-1.35h4.27v10a6,6,0,0,1,2.18-2.29,6.11,6.11,0,0,1,3.18-.81,5,5,0,0,1,4,1.6,7.51,7.51,0,0,1,1.39,5v8.57l2.46.19v1.34h-6.75v-1.34l2.47-.19V425a5.61,5.61,0,0,0-1-3.82,3.73,3.73,0,0,0-2.9-1.16,4.84,4.84,0,0,0-3.11,1,5.65,5.65,0,0,0-1.84,2.59v10l2.47.19v1.34h-6.74v-1.34l2.47-.19V413.1Z"/><path class="cls-47" d="M585.62,435.17a14.09,14.09,0,0,1-.26-1.44,10,10,0,0,1-.08-1.23,7.2,7.2,0,0,1-2.42,2.14,6.88,6.88,0,0,1-3.4.84,5.22,5.22,0,0,1-3.73-1.24,4.38,4.38,0,0,1-1.32-3.36,4.14,4.14,0,0,1,2-3.6,9.23,9.23,0,0,1,5.29-1.33h3.62v-2.17a3.45,3.45,0,0,0-1.13-2.75,4.56,4.56,0,0,0-3.15-1,7.84,7.84,0,0,0-2.49.37,5.67,5.67,0,0,0-1.89,1l-.15,2.19H575l0-3.15a9.45,9.45,0,0,1,2.72-1.42,10.29,10.29,0,0,1,3.36-.54,6.56,6.56,0,0,1,4.36,1.37,4.86,4.86,0,0,1,1.65,3.95v8.06q0,.5,0,1a5.28,5.28,0,0,0,.1.9l1.63.1v1.34Zm-6-1.29a6.53,6.53,0,0,0,3.47-.91,5.33,5.33,0,0,0,2.16-2.34v-3.29h-3.65a6.81,6.81,0,0,0-3.94,1,3.05,3.05,0,0,0-1.48,2.58,2.71,2.71,0,0,0,.92,2.13A3.67,3.67,0,0,0,579.65,433.88Z"/><path class="cls-47" d="M605.49,427.43a9.53,9.53,0,0,1-1.66,5.87,5.48,5.48,0,0,1-4.59,2.18,6.29,6.29,0,0,1-3.1-.72A5.49,5.49,0,0,1,594,432.7l-.19,2.47h-1.55V413.1l-2.47-.2v-1.35h4.27v9.81a5.57,5.57,0,0,1,5.12-2.87,5.35,5.35,0,0,1,4.62,2.35,10.73,10.73,0,0,1,1.66,6.27Zm-1.83-.32a9.63,9.63,0,0,0-1.21-5.09,3.94,3.94,0,0,0-3.57-2,4.69,4.69,0,0,0-3.07.94,5.59,5.59,0,0,0-1.72,2.4v7.41a5.26,5.26,0,0,0,1.81,2.26,5.12,5.12,0,0,0,3,.84,4,4,0,0,0,3.55-1.76,8.23,8.23,0,0,0,1.2-4.72Z"/><path class="cls-47" d="M608.44,433.83l2.47-.19V420.33l-2.47-.2v-1.34h4.27v14.85l2.47.19v1.34h-6.74Zm4.27-19.73h-1.8v-2.55h1.8Z"/><path class="cls-47" d="M617.86,412.9v-1.35h4.27v22.09l2.46.19v1.34h-6.73v-1.34l2.46-.19V413.1Z"/><path class="cls-47" d="M627.33,433.83l2.47-.19V420.33l-2.47-.2v-1.34h4.27v14.85l2.47.19v1.34h-6.74Zm4.27-19.73h-1.8v-2.55h1.8Z"/><path class="cls-47" d="M648.49,432.8a5.64,5.64,0,0,1-2.1,2,6.33,6.33,0,0,1-3,.69,5.42,5.42,0,0,1-4.59-2.19,9.46,9.46,0,0,1-1.66-5.86v-.32a10.65,10.65,0,0,1,1.66-6.27,5.33,5.33,0,0,1,4.62-2.35,5.58,5.58,0,0,1,5.06,2.77V413.1l-2.47-.2v-1.35h4.28v22.09l2.47.19v1.34h-4.09Zm-9.55-5.37a8.31,8.31,0,0,0,1.19,4.72,4,4,0,0,0,3.58,1.76,5.06,5.06,0,0,0,2.91-.79,5.18,5.18,0,0,0,1.83-2.16v-7.75a5.58,5.58,0,0,0-1.75-2.27,4.69,4.69,0,0,0-3-.88,3.93,3.93,0,0,0-3.59,2,9.54,9.54,0,0,0-1.21,5.09Z"/><path class="cls-47" d="M666.82,435.17c-.12-.56-.2-1-.25-1.44a10,10,0,0,1-.08-1.23,7.2,7.2,0,0,1-2.42,2.14,6.92,6.92,0,0,1-3.41.84,5.21,5.21,0,0,1-3.72-1.24,4.38,4.38,0,0,1-1.32-3.36,4.14,4.14,0,0,1,2-3.6,9.23,9.23,0,0,1,5.29-1.33h3.62v-2.17a3.45,3.45,0,0,0-1.13-2.75,4.56,4.56,0,0,0-3.15-1,7.84,7.84,0,0,0-2.49.37,5.67,5.67,0,0,0-1.89,1l-.15,2.19h-1.5l0-3.15a9.45,9.45,0,0,1,2.72-1.42,10.29,10.29,0,0,1,3.36-.54,6.56,6.56,0,0,1,4.36,1.37,4.86,4.86,0,0,1,1.65,3.95v8.06q0,.5,0,1a6.53,6.53,0,0,0,.09.9l1.64.1v1.34Zm-6-1.29a6.53,6.53,0,0,0,3.47-.91,5.33,5.33,0,0,0,2.16-2.34v-3.29h-3.65a6.81,6.81,0,0,0-3.94,1,3.05,3.05,0,0,0-1.48,2.58,2.71,2.71,0,0,0,.92,2.13A3.67,3.67,0,0,0,660.86,433.88Z"/><path class="cls-47" d="M684,432.8a5.64,5.64,0,0,1-2.1,2,6.33,6.33,0,0,1-3,.69,5.43,5.43,0,0,1-4.59-2.19,9.46,9.46,0,0,1-1.66-5.86v-.32a10.65,10.65,0,0,1,1.66-6.27,5.33,5.33,0,0,1,4.62-2.35,5.58,5.58,0,0,1,5.06,2.77V413.1l-2.47-.2v-1.35h4.29v22.09l2.46.19v1.34h-4.08Zm-9.55-5.37a8.31,8.31,0,0,0,1.19,4.72,4,4,0,0,0,3.58,1.76,4.92,4.92,0,0,0,4.74-3v-7.75a5.58,5.58,0,0,0-1.75-2.27,4.69,4.69,0,0,0-3-.88,3.93,3.93,0,0,0-3.59,2,9.54,9.54,0,0,0-1.21,5.09Z"/><path class="cls-47" d="M698.25,435.48a6.57,6.57,0,0,1-5.12-2.26,8.32,8.32,0,0,1-2-5.76v-.83a8.6,8.6,0,0,1,2-5.83,6.28,6.28,0,0,1,4.89-2.31,6.06,6.06,0,0,1,4.73,1.9,7.3,7.3,0,0,1,1.73,5.09V427H692.91v.44a7.27,7.27,0,0,0,1.47,4.63,4.7,4.7,0,0,0,3.87,1.87,7.88,7.88,0,0,0,2.87-.47,5.91,5.91,0,0,0,2-1.35l.77,1.24a6.54,6.54,0,0,1-2.33,1.54A9.16,9.16,0,0,1,698.25,435.48ZM698,420a4.31,4.31,0,0,0-3.37,1.54,6.5,6.5,0,0,0-1.6,3.85l0,.07h9.6V425a5.23,5.23,0,0,0-1.26-3.57A4.28,4.28,0,0,0,698,420Z"/><path class="cls-47" d="M719.59,423.84h-1.48l-.21-2.31a4.69,4.69,0,0,0-1.72-1.11,6.77,6.77,0,0,0-2.39-.39,4.44,4.44,0,0,0-3,.85,2.6,2.6,0,0,0-1,2,2.38,2.38,0,0,0,.85,1.88,8.35,8.35,0,0,0,3.42,1.3,11.16,11.16,0,0,1,4.37,1.78,3.66,3.66,0,0,1,1.45,3.06,4,4,0,0,1-1.65,3.31,7.08,7.08,0,0,1-4.39,1.26,10.39,10.39,0,0,1-3.3-.5,7.86,7.86,0,0,1-2.58-1.43v-3.3h1.46l.26,2.33a4.34,4.34,0,0,0,1.84,1.05,8.13,8.13,0,0,0,2.32.33,5,5,0,0,0,3.11-.87,2.56,2.56,0,0,0,1.13-2.09,2.66,2.66,0,0,0-.94-2,7.82,7.82,0,0,0-3.42-1.41,11.28,11.28,0,0,1-4.33-1.69A3.44,3.44,0,0,1,708,423a3.94,3.94,0,0,1,1.59-3.17,6.45,6.45,0,0,1,4.19-1.29,9.44,9.44,0,0,1,3.3.55,6.67,6.67,0,0,1,2.43,1.49Z"/><path class="cls-47" d="M742.14,432.8a5.64,5.64,0,0,1-2.1,2,6.33,6.33,0,0,1-3,.69,5.42,5.42,0,0,1-4.59-2.19,9.46,9.46,0,0,1-1.66-5.86v-.32a10.65,10.65,0,0,1,1.66-6.27,5.33,5.33,0,0,1,4.62-2.35,5.58,5.58,0,0,1,5.06,2.77V413.1l-2.47-.2v-1.35h4.29v22.09l2.46.19v1.34H742.3Zm-9.55-5.37a8.31,8.31,0,0,0,1.19,4.72,4,4,0,0,0,3.58,1.76,4.92,4.92,0,0,0,4.74-3v-7.75a5.58,5.58,0,0,0-1.75-2.27,4.69,4.69,0,0,0-3-.88,3.93,3.93,0,0,0-3.59,2,9.54,9.54,0,0,0-1.21,5.09Z"/><path class="cls-47" d="M760.47,435.17c-.12-.56-.2-1-.25-1.44a10,10,0,0,1-.08-1.23,7.2,7.2,0,0,1-2.42,2.14,6.89,6.89,0,0,1-3.41.84,5.21,5.21,0,0,1-3.72-1.24,4.38,4.38,0,0,1-1.32-3.36,4.14,4.14,0,0,1,2-3.6,9.23,9.23,0,0,1,5.29-1.33h3.62v-2.17A3.45,3.45,0,0,0,759,421a4.56,4.56,0,0,0-3.15-1,7.84,7.84,0,0,0-2.49.37,5.67,5.67,0,0,0-1.89,1l-.15,2.19h-1.5l0-3.15a9.45,9.45,0,0,1,2.72-1.42,10.29,10.29,0,0,1,3.36-.54,6.56,6.56,0,0,1,4.36,1.37,4.86,4.86,0,0,1,1.65,3.95v8.06q0,.5,0,1a6.53,6.53,0,0,0,.09.9l1.64.1v1.34Zm-6-1.29A6.53,6.53,0,0,0,758,433a5.33,5.33,0,0,0,2.16-2.34v-3.29h-3.65a6.81,6.81,0,0,0-3.94,1,3.05,3.05,0,0,0-1.48,2.58,2.71,2.71,0,0,0,.92,2.13A3.67,3.67,0,0,0,754.51,433.88Z"/><path class="cls-47" d="M782.32,413.13a8.75,8.75,0,0,1,5.35,1.44,5.13,5.13,0,0,1,1.91,4.35,4.75,4.75,0,0,1-1,3,5,5,0,0,1-2.61,1.74,5.31,5.31,0,0,1,3.27,1.89,5.38,5.38,0,0,1,1.26,3.53,5.57,5.57,0,0,1-1.92,4.54,7.76,7.76,0,0,1-5.12,1.59H773.42v-1.34l2.46-.19v-19l-2.46-.2v-1.34h8.9ZM777.69,423h5.07a5.8,5.8,0,0,0,3.7-1.05,3.74,3.74,0,0,0,1.31-3.1,3.69,3.69,0,0,0-1.4-3.14,6.63,6.63,0,0,0-4-1.05h-4.63Zm0,1.53v9.1h5.81a5.64,5.64,0,0,0,3.83-1.21,4.19,4.19,0,0,0,1.39-3.36,4.43,4.43,0,0,0-1.26-3.26,5,5,0,0,0-3.67-1.27Z"/><path class="cls-47" d="M814.59,413.13v1.34l-2.47.2v20.5h-1.8l-12.52-19-.09,0v17.41l2.47.19v1.34h-6.75v-1.34l2.46-.19v-19l-2.46-.2v-1.34h4.28l12.52,18.92.09,0V414.67l-2.47-.2v-1.34h6.74Z"/><path class="cls-47" d="M834.22,420h-1.41l-.25-3.35a6.52,6.52,0,0,0-2.29-1.68,7.73,7.73,0,0,0-3.25-.65,7.19,7.19,0,0,0-5.88,2.69A10.67,10.67,0,0,0,819,424v.32a10.79,10.79,0,0,0,2.16,6.95,6.92,6.92,0,0,0,5.67,2.71,8.39,8.39,0,0,0,3.38-.66,6.18,6.18,0,0,0,2.39-1.68l.25-3.34h1.41v3.87a7.87,7.87,0,0,1-3,2.38,10,10,0,0,1-4.43,1,8.68,8.68,0,0,1-6.93-3.14,11.88,11.88,0,0,1-2.7-8V424a12,12,0,0,1,2.69-8.06,8.81,8.81,0,0,1,7-3.14,9.72,9.72,0,0,1,4.38,1,8,8,0,0,1,3,2.38Z"/><path class="cls-47" d="M854.64,420h-1.41l-.25-3.35a6.52,6.52,0,0,0-2.29-1.68,7.73,7.73,0,0,0-3.25-.65,7.19,7.19,0,0,0-5.88,2.69,10.67,10.67,0,0,0-2.18,6.94v.32a10.79,10.79,0,0,0,2.16,6.95,6.92,6.92,0,0,0,5.67,2.71,8.39,8.39,0,0,0,3.38-.66,6.18,6.18,0,0,0,2.39-1.68l.25-3.34h1.41v3.87a7.87,7.87,0,0,1-3,2.38,10,10,0,0,1-4.43,1,8.68,8.68,0,0,1-6.93-3.14,11.88,11.88,0,0,1-2.7-8V424a12,12,0,0,1,2.69-8.06,8.81,8.81,0,0,1,7-3.14,9.72,9.72,0,0,1,4.38,1,8,8,0,0,1,3,2.38Z"/><path class="cls-47" d="M860.54,434.44a6.8,6.8,0,0,1-.56,2.72,6.62,6.62,0,0,1-1.56,2.26l-1.07-.79a7.32,7.32,0,0,0,1-2,6.56,6.56,0,0,0,.34-2.18v-2.15h1.8Z"/><path class="cls-47" d="M871.05,433.83l2.47-.19V420.33l-2.47-.2v-1.34h4.07l.17,2.86a5.81,5.81,0,0,1,2.12-2.34,6,6,0,0,1,3.18-.82,5.05,5.05,0,0,1,4,1.62,7.7,7.7,0,0,1,1.4,5.08v8.45l2.46.19v1.34h-6.75v-1.34l2.47-.19v-8.43a6,6,0,0,0-1.05-4,3.86,3.86,0,0,0-3-1.16,4.69,4.69,0,0,0-3.11,1,5.6,5.6,0,0,0-1.74,2.67v9.9l2.47.19v1.34h-6.75Z"/><path class="cls-47" d="M891.2,426.73a8.81,8.81,0,0,1,2-5.93,7.14,7.14,0,0,1,10.52,0,8.81,8.81,0,0,1,2,5.93v.5a8.86,8.86,0,0,1-2,5.95,7.18,7.18,0,0,1-10.53,0,8.81,8.81,0,0,1-2-5.95Zm1.81.5a7.81,7.81,0,0,0,1.44,4.79,4.72,4.72,0,0,0,4,1.94,4.68,4.68,0,0,0,4-1.94,7.81,7.81,0,0,0,1.44-4.79v-.5a7.79,7.79,0,0,0-1.45-4.75,5,5,0,0,0-8,0,7.79,7.79,0,0,0-1.44,4.75Z"/><path class="cls-47" d="M920.52,423.84H919l-.21-2.31a4.61,4.61,0,0,0-1.72-1.11,6.71,6.71,0,0,0-2.38-.39,4.44,4.44,0,0,0-3,.85,2.58,2.58,0,0,0-1,2,2.39,2.39,0,0,0,.86,1.88,8.36,8.36,0,0,0,3.41,1.3,11.15,11.15,0,0,1,4.38,1.78,3.66,3.66,0,0,1,1.45,3.06,4,4,0,0,1-1.66,3.31,7,7,0,0,1-4.38,1.26,10.5,10.5,0,0,1-3.31-.5,8.07,8.07,0,0,1-2.58-1.43v-3.3h1.47l.26,2.33a4.28,4.28,0,0,0,1.84,1.05,8.08,8.08,0,0,0,2.32.33,5,5,0,0,0,3.1-.87,2.54,2.54,0,0,0,1.14-2.09,2.67,2.67,0,0,0-.95-2,7.82,7.82,0,0,0-3.41-1.41,11.34,11.34,0,0,1-4.34-1.69,3.45,3.45,0,0,1-1.41-2.94,3.94,3.94,0,0,1,1.59-3.17,6.43,6.43,0,0,1,4.19-1.29A9.35,9.35,0,0,1,918,419a6.59,6.59,0,0,1,2.43,1.49Z"/><path class="cls-47" d="M931.05,433.26l1.64-.23,7.7-19.9H943l7.57,19.9,1.62.23v1.91h-6.33v-1.91l1.67-.29L946,428.91H937.2L935.7,433l1.66.29v1.91h-6.31Zm7.07-6.84h7L941.69,417h-.09Z"/><path class="cls-47" d="M953.83,433.26l2.47-.43v-11.7l-2.47-.42v-1.92H959l.22,2.43a5.91,5.91,0,0,1,2.05-2,5.56,5.56,0,0,1,2.81-.71,5.33,5.33,0,0,1,4.1,1.55,6.79,6.79,0,0,1,1.45,4.79v8l2.47.43v1.91h-7.92v-1.91l2.47-.43v-7.94a4.42,4.42,0,0,0-.86-3.07,3.41,3.41,0,0,0-2.61-.91,4.15,4.15,0,0,0-2.28.62,4.59,4.59,0,0,0-1.58,1.69v9.61l2.47.43v1.91h-7.92Z"/><path class="cls-47" d="M974.09,426.83a9,9,0,0,1,2-6,7.29,7.29,0,0,1,10.71,0,9,9,0,0,1,2,6v.33a9,9,0,0,1-2,6,6.6,6.6,0,0,1-5.34,2.33,6.7,6.7,0,0,1-5.38-2.33,9,9,0,0,1-2-6Zm3,.33a7.72,7.72,0,0,0,1.1,4.3,4,4,0,0,0,6.48,0,7.72,7.72,0,0,0,1.11-4.3v-.33a7.73,7.73,0,0,0-1.11-4.29,3.62,3.62,0,0,0-3.25-1.71,3.58,3.58,0,0,0-3.24,1.71,7.81,7.81,0,0,0-1.09,4.29Z"/><path class="cls-47" d="M1004,423.93h-2.24l-.49-2a4,4,0,0,0-1.37-.83,5.43,5.43,0,0,0-1.87-.31,3.41,3.41,0,0,0-2.36.7,2.18,2.18,0,0,0-.77,1.68,1.9,1.9,0,0,0,.68,1.53,7.23,7.23,0,0,0,2.77,1,11.92,11.92,0,0,1,4.62,1.8,3.66,3.66,0,0,1,1.51,3.07,4.25,4.25,0,0,1-1.76,3.53,7.4,7.4,0,0,1-4.61,1.34,11.94,11.94,0,0,1-3.35-.43,8.87,8.87,0,0,1-2.65-1.25v-3.74h2.24l.56,2.2a3.11,3.11,0,0,0,1.4.68,7.79,7.79,0,0,0,1.81.21,4.21,4.21,0,0,0,2.49-.64,2,2,0,0,0,.9-1.69,2,2,0,0,0-.75-1.62,7.1,7.1,0,0,0-2.84-1.1,12,12,0,0,1-4.49-1.77,3.59,3.59,0,0,1-1.52-3,4.3,4.3,0,0,1,1.7-3.41,6.77,6.77,0,0,1,4.43-1.4,10.88,10.88,0,0,1,3.35.48,6.76,6.76,0,0,1,2.46,1.35Z"/><path class="cls-47" d="M554.27,470.46l2.46-.42V452.67l-2.46-.42v-1.92h17v5.3h-2.55l-.24-3h-8.79v7.6h8.52v2.35h-8.52V470l2.46.42v1.91h-7.91Z"/><path class="cls-47" d="M573.81,470.46l2.47-.42V458.33l-2.47-.42V456h5.45V470l2.47.42v1.91h-7.92Zm5.45-18.66h-3v-3.05h3Z"/><path class="cls-47" d="M583.56,470.46,586,470V458.33l-2.46-.42V456h5.13l.21,2.43a6.08,6.08,0,0,1,2.05-2,5.56,5.56,0,0,1,2.81-.71,5.32,5.32,0,0,1,4.1,1.55,6.8,6.8,0,0,1,1.46,4.79v8l2.46.42v1.91h-7.91v-1.91l2.46-.42v-8a4.42,4.42,0,0,0-.85-3.07,3.41,3.41,0,0,0-2.61-.91,4.15,4.15,0,0,0-2.28.62,4.51,4.51,0,0,0-1.58,1.69V470l2.46.42v1.91h-7.91Z"/><path class="cls-47" d="M614.63,472.37q-.14-.67-.21-1.2c0-.35-.08-.71-.1-1.06a7.29,7.29,0,0,1-2.16,1.84,6.21,6.21,0,0,1-6.65-.51,4.6,4.6,0,0,1-1.34-3.52,4.07,4.07,0,0,1,1.89-3.6,9.19,9.19,0,0,1,5.17-1.26h3.07v-1.91a2.94,2.94,0,0,0-.91-2.28,3.58,3.58,0,0,0-2.53-.84,6.24,6.24,0,0,0-2,.29,3.67,3.67,0,0,0-1.39.79l-.31,1.72h-2.31v-3.18a9.16,9.16,0,0,1,2.71-1.43,11,11,0,0,1,3.46-.53,6.86,6.86,0,0,1,4.51,1.42,5,5,0,0,1,1.72,4.07v7.89c0,.21,0,.42,0,.62s0,.4,0,.6l1.21.17v1.91Zm-4.79-2.18a5.38,5.38,0,0,0,2.71-.71,4.45,4.45,0,0,0,1.75-1.72v-2.69h-3.18a4.51,4.51,0,0,0-2.9.85,2.54,2.54,0,0,0-1.06,2.06,2.05,2.05,0,0,0,.66,1.64A3.06,3.06,0,0,0,609.84,470.19Z"/><path class="cls-47" d="M621,470.46l2.47-.42V458.33l-2.47-.42V456h5.45V470l2.47.42v1.91H621Zm5.45-18.66h-3v-3.05h3Z"/><path class="cls-47" d="M643.74,461.13H641.5l-.48-2a4,4,0,0,0-1.37-.83,5.47,5.47,0,0,0-1.87-.31,3.4,3.4,0,0,0-2.36.7,2.16,2.16,0,0,0-.78,1.68,1.88,1.88,0,0,0,.69,1.53,7.16,7.16,0,0,0,2.76,1,11.76,11.76,0,0,1,4.62,1.81,3.64,3.64,0,0,1,1.52,3.06,4.24,4.24,0,0,1-1.77,3.53,7.36,7.36,0,0,1-4.61,1.34,11.86,11.86,0,0,1-3.34-.43,8.87,8.87,0,0,1-2.65-1.25l0-3.74h2.24l.56,2.2a3.17,3.17,0,0,0,1.4.68,7.86,7.86,0,0,0,1.81.21,4.21,4.21,0,0,0,2.49-.64,2,2,0,0,0,.9-1.69,2,2,0,0,0-.75-1.62,7,7,0,0,0-2.83-1.1,12.15,12.15,0,0,1-4.5-1.77,3.58,3.58,0,0,1-1.51-3,4.27,4.27,0,0,1,1.7-3.41,6.75,6.75,0,0,1,4.43-1.4,10.82,10.82,0,0,1,3.34.48,6.89,6.89,0,0,1,2.47,1.35Z"/><path class="cls-47" d="M665.75,470.41a5.29,5.29,0,0,1-2,1.7,6,6,0,0,1-2.69.57,5.57,5.57,0,0,1-4.68-2.17,9,9,0,0,1-1.69-5.71v-.32a10.88,10.88,0,0,1,1.69-6.37,5.4,5.4,0,0,1,4.71-2.42,6,6,0,0,1,2.57.53,5.44,5.44,0,0,1,1.9,1.55V451.1l-2.47-.43v-1.92h5.45V470l2.47.42v1.91H666Zm-8-5.61a6.92,6.92,0,0,0,1,4,3.51,3.51,0,0,0,3.13,1.5,4,4,0,0,0,2.24-.6,4.65,4.65,0,0,0,1.5-1.71v-7.6a4.66,4.66,0,0,0-1.5-1.64,4,4,0,0,0-2.21-.6,3.41,3.41,0,0,0-3.16,1.77,9.14,9.14,0,0,0-1,4.6Z"/><path class="cls-47" d="M673.33,464a9,9,0,0,1,2-6A7.29,7.29,0,0,1,686,458a9,9,0,0,1,2,6v.33a9,9,0,0,1-2,6,6.61,6.61,0,0,1-5.35,2.33,6.68,6.68,0,0,1-5.37-2.33,9,9,0,0,1-2-6Zm3,.33a7.8,7.8,0,0,0,1.09,4.3,4,4,0,0,0,6.49,0,7.72,7.72,0,0,0,1.1-4.3V464a7.73,7.73,0,0,0-1.1-4.29,3.63,3.63,0,0,0-3.25-1.71,3.58,3.58,0,0,0-3.24,1.71,7.81,7.81,0,0,0-1.09,4.29Z"/><path class="cls-47" d="M698.14,472.37v-1.91l2.47-.42V452.67l-2.47-.42v-1.92h16.93v5.3h-2.56l-.24-3h-8.68v7.13H712v2.35h-8.43V470h8.86l.24-3h2.54v5.29Z"/><path class="cls-47" d="M717.75,470.46l2.46-.42V458.33l-2.46-.42V456h5.13l.21,2.43a6,6,0,0,1,2-2,5.56,5.56,0,0,1,2.81-.71,5.33,5.33,0,0,1,4.1,1.55A6.79,6.79,0,0,1,733.5,462v8l2.47.42v1.91h-7.92v-1.91l2.47-.42v-8a4.42,4.42,0,0,0-.85-3.07,3.42,3.42,0,0,0-2.62-.91,4.14,4.14,0,0,0-2.27.62,4.51,4.51,0,0,0-1.58,1.69V470l2.46.42v1.91h-7.91Z"/><path class="cls-47" d="M750.67,461.13h-2.24l-.49-2a4,4,0,0,0-1.37-.83,5.43,5.43,0,0,0-1.87-.31,3.43,3.43,0,0,0-2.36.7,2.18,2.18,0,0,0-.77,1.68,1.9,1.9,0,0,0,.68,1.53,7.3,7.3,0,0,0,2.77,1,11.76,11.76,0,0,1,4.62,1.81,3.63,3.63,0,0,1,1.51,3.06,4.25,4.25,0,0,1-1.76,3.53,7.38,7.38,0,0,1-4.61,1.34,11.94,11.94,0,0,1-3.35-.43,8.81,8.81,0,0,1-2.64-1.25l0-3.74H741l.56,2.2a3.11,3.11,0,0,0,1.4.68,7.86,7.86,0,0,0,1.81.21,4.21,4.21,0,0,0,2.49-.64,2,2,0,0,0,.9-1.69,2,2,0,0,0-.75-1.62,7,7,0,0,0-2.84-1.1,12.17,12.17,0,0,1-4.49-1.77,3.59,3.59,0,0,1-1.52-3,4.28,4.28,0,0,1,1.71-3.41,6.75,6.75,0,0,1,4.42-1.4,10.84,10.84,0,0,1,3.35.48,6.89,6.89,0,0,1,2.47,1.35Z"/><path class="cls-47" d="M753.94,470.46l2.47-.42V458.33l-2.47-.42V456h5.45V470l2.46.42v1.91h-7.91Zm5.45-18.66h-3v-3.05h3Z"/><path class="cls-47" d="M763.69,470.46l2.46-.42V458.33l-2.46-.42V456h5.13l.21,2.43a6.08,6.08,0,0,1,2.05-2,5.56,5.56,0,0,1,2.81-.71,5.33,5.33,0,0,1,4.1,1.55,6.79,6.79,0,0,1,1.45,4.79v8l2.47.42v1.91H774v-1.91l2.46-.42v-8a4.42,4.42,0,0,0-.85-3.07,3.41,3.41,0,0,0-2.61-.91,4.15,4.15,0,0,0-2.28.62,4.51,4.51,0,0,0-1.58,1.69V470l2.46.42v1.91h-7.91Z"/><path class="cls-47" d="M783.94,464a9,9,0,0,1,2-6,6.58,6.58,0,0,1,5.34-2.35,6.67,6.67,0,0,1,5.37,2.34,9,9,0,0,1,2,6v.33a8.92,8.92,0,0,1-2,6,7.32,7.32,0,0,1-10.71,0,9,9,0,0,1-2-6Zm3,.33a7.8,7.8,0,0,0,1.1,4.3,4,4,0,0,0,6.48,0,7.72,7.72,0,0,0,1.11-4.3V464a7.73,7.73,0,0,0-1.11-4.29,3.93,3.93,0,0,0-6.49,0,7.81,7.81,0,0,0-1.09,4.29Z"/><path class="cls-47" d="M808.75,470.46l2.47-.42V452.67l-2.47-.42v-1.92h17v5.3h-2.55l-.24-3H814.2v7.6h8.52v2.35H814.2V470l2.47.42v1.91h-7.92Z"/><path class="cls-47" d="M839.67,469.94a5.3,5.3,0,0,1-4.79,2.74,5.26,5.26,0,0,1-4.17-1.71q-1.5-1.71-1.5-5.32v-7.32l-1.87-.42V456h4.86v9.69a6.07,6.07,0,0,0,.77,3.6,2.87,2.87,0,0,0,2.4,1,4.9,4.9,0,0,0,2.63-.64,4.09,4.09,0,0,0,1.57-1.83v-9.46l-2.2-.42V456h5.18V470l1.88.42v1.91h-4.56Z"/><path class="cls-47" d="M846.35,470.46l2.47-.42V458.33l-2.47-.42V456h5.13l.21,2.43a6.08,6.08,0,0,1,2-2,5.59,5.59,0,0,1,2.81-.71,5.32,5.32,0,0,1,4.1,1.55,6.8,6.8,0,0,1,1.46,4.79v8l2.46.42v1.91h-7.91v-1.91l2.46-.42v-8a4.42,4.42,0,0,0-.85-3.07,3.41,3.41,0,0,0-2.61-.91,4.15,4.15,0,0,0-2.28.62,4.51,4.51,0,0,0-1.58,1.69V470l2.46.42v1.91h-7.91Z"/><path class="cls-47" d="M877.62,470.41a5.22,5.22,0,0,1-2,1.7,6,6,0,0,1-2.69.57,5.59,5.59,0,0,1-4.68-2.17,9,9,0,0,1-1.69-5.71v-.32a10.88,10.88,0,0,1,1.69-6.37,5.4,5.4,0,0,1,4.71-2.42,6,6,0,0,1,2.57.53,5.35,5.35,0,0,1,1.9,1.55V451.1l-2.47-.43v-1.92h5.45V470l2.47.42v1.91h-5.06Zm-8-5.61a6.92,6.92,0,0,0,1,4,3.51,3.51,0,0,0,3.13,1.5,4,4,0,0,0,2.24-.6,4.65,4.65,0,0,0,1.5-1.71v-7.6a4.57,4.57,0,0,0-1.5-1.64,4,4,0,0,0-2.21-.6,3.39,3.39,0,0,0-3.15,1.77,9,9,0,0,0-1,4.6Z"/><path class="cls-47" d="M895.88,472.37c-.09-.45-.17-.85-.22-1.2s-.08-.71-.1-1.06A7.29,7.29,0,0,1,893.4,472a6.21,6.21,0,0,1-6.65-.51,4.6,4.6,0,0,1-1.33-3.52,4.06,4.06,0,0,1,1.88-3.6,9.22,9.22,0,0,1,5.17-1.26h3.07v-1.91a2.94,2.94,0,0,0-.91-2.28,3.55,3.55,0,0,0-2.52-.84,6.26,6.26,0,0,0-2,.29,3.55,3.55,0,0,0-1.38.79l-.32,1.72h-2.3v-3.18a8.92,8.92,0,0,1,2.71-1.43,10.94,10.94,0,0,1,3.45-.53,6.86,6.86,0,0,1,4.51,1.42,5,5,0,0,1,1.72,4.07v7.89c0,.21,0,.42,0,.62s0,.4,0,.6l1.21.17v1.91Zm-4.8-2.18a5.35,5.35,0,0,0,2.71-.71,4.45,4.45,0,0,0,1.75-1.72v-2.69h-3.18a4.53,4.53,0,0,0-2.9.85A2.54,2.54,0,0,0,888.4,468a2.05,2.05,0,0,0,.66,1.64A3.06,3.06,0,0,0,891.08,470.19Z"/><path class="cls-47" d="M901.67,470.46l2.47-.42V458.33l-2.47-.42V456h5.15l.2,2.13a5.42,5.42,0,0,1,2-1.8,6.22,6.22,0,0,1,2.87-.63,5.1,5.1,0,0,1,2.81.75,4.58,4.58,0,0,1,1.76,2.27,6.15,6.15,0,0,1,2-2.21,5.36,5.36,0,0,1,3-.81,4.93,4.93,0,0,1,4,1.71,7.85,7.85,0,0,1,1.45,5.17V470l2.47.42v1.91h-7.93v-1.91l2.46-.42v-7.5a5.44,5.44,0,0,0-.83-3.43,3,3,0,0,0-2.47-1,3.12,3.12,0,0,0-2.5,1.1A4.76,4.76,0,0,0,917,462V470l2.47.42v1.91h-7.92v-1.91L914,470v-7.5a5.4,5.4,0,0,0-.86-3.37,3,3,0,0,0-2.47-1.06,4,4,0,0,0-2.24.56,3.58,3.58,0,0,0-1.35,1.57V470l2.47.42v1.91h-7.92Z"/><path class="cls-47" d="M938.88,472.68a6.92,6.92,0,0,1-5.44-2.27,8.56,8.56,0,0,1-2-5.91v-.67A8.39,8.39,0,0,1,933.5,458a6.39,6.39,0,0,1,4.92-2.32,6.23,6.23,0,0,1,5,2,8,8,0,0,1,1.7,5.33v1.86H934.5l0,.08a6.51,6.51,0,0,0,1.19,3.88,3.81,3.81,0,0,0,3.23,1.52,7.5,7.5,0,0,0,2.66-.43,6,6,0,0,0,2-1.19l1.17,1.94a7.11,7.11,0,0,1-2.33,1.43A9.23,9.23,0,0,1,938.88,472.68ZM938.42,458a3.19,3.19,0,0,0-2.55,1.27,6,6,0,0,0-1.31,3.17l0,.07h7.56v-.39a4.56,4.56,0,0,0-.94-2.94A3.34,3.34,0,0,0,938.42,458Z"/><path class="cls-47" d="M947.63,470.46l2.46-.42V458.33l-2.46-.42V456h5.13l.21,2.43a6.08,6.08,0,0,1,2-2,5.56,5.56,0,0,1,2.81-.71,5.32,5.32,0,0,1,4.1,1.55,6.8,6.8,0,0,1,1.46,4.79v8l2.46.42v1.91h-7.91v-1.91l2.46-.42v-8a4.42,4.42,0,0,0-.85-3.07,3.41,3.41,0,0,0-2.61-.91,4.15,4.15,0,0,0-2.28.62,4.51,4.51,0,0,0-1.58,1.69V470l2.46.42v1.91h-7.91Z"/><path class="cls-47" d="M973.22,452V456h3.11v2.21h-3.11v9.94a2.21,2.21,0,0,0,.48,1.62,1.7,1.7,0,0,0,1.26.47,5.88,5.88,0,0,0,.89-.07c.33,0,.6-.09.83-.14l.4,2a3.64,3.64,0,0,1-1.24.45,7.52,7.52,0,0,1-1.63.17,3.85,3.85,0,0,1-2.89-1.09,4.76,4.76,0,0,1-1.08-3.45V458.2h-2.59V456h2.59V452Z"/><path class="cls-47" d="M990.06,472.37c-.09-.45-.17-.85-.22-1.2s-.08-.71-.1-1.06a7.29,7.29,0,0,1-2.16,1.84,6.21,6.21,0,0,1-6.65-.51,4.6,4.6,0,0,1-1.33-3.52,4.06,4.06,0,0,1,1.88-3.6,9.22,9.22,0,0,1,5.17-1.26h3.07v-1.91a3,3,0,0,0-.9-2.28,3.59,3.59,0,0,0-2.53-.84,6.26,6.26,0,0,0-2,.29,3.55,3.55,0,0,0-1.38.79l-.32,1.72h-2.3v-3.18a8.92,8.92,0,0,1,2.71-1.43,10.94,10.94,0,0,1,3.45-.53,6.84,6.84,0,0,1,4.51,1.42,5,5,0,0,1,1.73,4.07v8.51c0,.2,0,.4,0,.6l1.21.17v1.91Zm-4.8-2.18a5.35,5.35,0,0,0,2.71-.71,4.45,4.45,0,0,0,1.75-1.72v-2.69h-3.18a4.48,4.48,0,0,0-2.89.85,2.52,2.52,0,0,0-1.07,2.06,2,2,0,0,0,.67,1.64A3,3,0,0,0,985.26,470.19Z"/><path class="cls-47" d="M996,450.67v-1.92h5.44V470l2.47.42v1.91H996v-1.91l2.46-.42V451.1Z"/><path class="cls-47" d="M1009.13,472.37h-2.07v-2.49h2.07Z"/></g></svg>