<svg xmlns="http://www.w3.org/2000/svg" xmlns:xlink="http://www.w3.org/1999/xlink" viewBox="0 0 725.2 611.61"><defs><style>.cls-1{fill:none;}.cls-2{isolation:isolate;}.cls-3{clip-path:url(#clip-path);}.cls-4{fill:#ffdf57;}.cls-5{fill:#ffdf59;}.cls-6{fill:#ffe05a;}.cls-7{fill:#ffe05c;}.cls-8{fill:#ffe05d;}.cls-9{fill:#ffe05f;}.cls-10{fill:#ffe160;}.cls-11{fill:#ffe162;}.cls-12{fill:#ffe163;}.cls-13{fill:#ffe265;}.cls-14{fill:#ffe266;}.cls-15{fill:#ffe268;}.cls-16{fill:#ffe269;}.cls-17{fill:#ffe36a;}.cls-18{fill:#ffe36c;}.cls-19{fill:#ffe36d;}.cls-20{fill:#ffe46f;}.cls-21{fill:#ffe470;}.cls-22{fill:#ffe472;}.cls-23{fill:#ffe473;}.cls-24{fill:#ffe575;}.cls-25{fill:#ffe576;}.cls-26{fill:#ffe577;}.cls-27{fill:#ffe579;}.cls-28{fill:#ffe67a;}.cls-29{fill:#ffe67c;}.cls-30{fill:#ffe67d;}.cls-31{fill:#ffe77e;}.cls-32{fill:#ffe780;}.cls-33{fill:#ffe781;}.cls-34{fill:#ffe783;}.cls-35{fill:#ffe884;}.cls-36{fill:#ffe885;}.cls-37{fill:#ffe887;}.cls-38{fill:#ffe888;}.cls-39{fill:#ffe989;}.cls-40{fill:#ffe98b;}.cls-41{fill:#ffe98c;}.cls-42{fill:#ffe98d;}.cls-43{fill:#ffea8f;}.cls-44{fill:#ffea90;}.cls-45{fill:#ffea91;}.cls-46{fill:#ffea93;}.cls-47{fill:#ffeb94;}.cls-48{fill:#ffeb95;}.cls-49{fill:#ffeb97;}.cls-50{fill:#ffeb98;}.cls-51{fill:#ffec99;}.cls-52{fill:#ffec9b;}.cls-53{fill:#ffec9c;}.cls-54{fill:#ffec9d;}.cls-55{fill:#ffed9e;}.cls-56{fill:#ffeda0;}.cls-57{fill:#ffeda1;}.cls-58{fill:#ffeda2;}.cls-59{fill:#ffeea3;}.cls-60{fill:#ffeea5;}.cls-61{fill:#ffeea6;}.cls-62{fill:#ffeea7;}.cls-63{fill:#ffeea8;}.cls-64{fill:#ffefaa;}.cls-65{fill:#ffefab;}.cls-66{fill:#ffefac;}.cls-67{fill:#ffefad;}.cls-68{fill:#fff0ae;}.cls-69{fill:#fff0af;}.cls-70{fill:#fff0b1;}.cls-71{fill:#fff0b2;}.cls-72{fill:#fff1b3;}.cls-73{fill:#fff1b4;}.cls-74{fill:#fff1b5;}.cls-75{fill:#fff1b6;}.cls-76{fill:#fff1b8;}.cls-77{fill:#fff2b9;}.cls-78{fill:#fff2ba;}.cls-79{fill:#fff2bb;}.cls-80{fill:#fff2bc;}.cls-81{fill:#fff2bd;}.cls-82{fill:#fff3be;}.cls-83{fill:#fff3bf;}.cls-84{fill:#fff3c1;}.cls-85{fill:#fff3c2;}.cls-86{fill:#fff4c3;}.cls-87{fill:#fff4c4;}.cls-88{fill:#fff4c5;}.cls-89{fill:#fff4c6;}.cls-90{fill:#fff4c7;}.cls-91{fill:#fff5c8;}.cls-92{fill:#fff5c9;}.cls-93{fill:#fff5ca;}.cls-94{fill:#fff5cb;}.cls-95{fill:#fff5cc;}.cls-96{fill:#fff6cd;}.cls-97{fill:#fff6ce;}.cls-98{fill:#fff6cf;}.cls-99{fill:#fff6d0;}.cls-100{fill:#fff6d1;}.cls-101{fill:#fff6d2;}.cls-102{fill:#fff7d3;}.cls-103{fill:#fff7d4;}.cls-104{fill:#fff7d5;}.cls-105{fill:#fff7d6;}.cls-106{fill:#fff7d7;}.cls-107{fill:#fff8d8;}.cls-108{fill:#fff8d9;}.cls-109{fill:#fff8da;}.cls-110{fill:#fff8db;}.cls-111{fill:#fff8dc;}.cls-112{fill:#fff9dd;}.cls-113{fill:#fff9de;}.cls-114{fill:#fff9df;}.cls-115{fill:#fff9e0;}.cls-116{fill:#fff9e1;}.cls-117{fill:#fff9e2;}.cls-118{fill:#fffae2;}.cls-119{fill:#fffae3;}.cls-120{fill:#fffae4;}.cls-121{fill:#fffae5;}.cls-122{fill:#fffae6;}.cls-123{fill:#fffae7;}.cls-124{fill:#fffbe8;}.cls-125{fill:#fffbe9;}.cls-126{fill:#fffbea;}.cls-127{fill:#fffbeb;}.cls-128{fill:#fffbec;}.cls-129{fill:#fffbed;}.cls-130{fill:#fffced;}.cls-131{fill:#fffcee;}.cls-132{fill:#fffcef;}.cls-133{fill:#fffcf0;}.cls-134{fill:#fffcf1;}.cls-135{fill:#fffdf2;}.cls-136{fill:#fffdf3;}.cls-137{fill:#fffdf4;}.cls-138{fill:#fffdf5;}.cls-139{fill:#fffdf6;}.cls-140{fill:#fffdf7;}.cls-141{fill:#fffef7;}.cls-142{fill:#fffef8;}.cls-143{fill:#fffef9;}.cls-144{fill:#fffefa;}.cls-145{fill:#fffefb;}.cls-146{fill:#fffefc;}.cls-147{fill:#fffffd;}.cls-148{fill:#fffffe;}.cls-149,.cls-196{fill:#fff;}.cls-150{opacity:0.8;}.cls-151{fill:#fada99;}.cls-152{clip-path:url(#clip-path-2);}.cls-153{fill:#b2b2b2;}.cls-154{fill:#c4c4c4;}.cls-155{clip-path:url(#clip-path-3);}.cls-156{fill:#e57d61;}.cls-157{fill:#e47c61;}.cls-158{fill:#e37c60;}.cls-159{fill:#e27b60;}.cls-160{fill:#e17b5f;}.cls-161{fill:#e07a5f;}.cls-162{fill:#df7a5e;}.cls-163{fill:#de795e;}.cls-164{fill:#dd795d;}.cls-165{fill:#dc785d;}.cls-166{fill:#db775d;}.cls-167{fill:#da775c;}.cls-168{fill:#d9765c;}.cls-169{fill:#d8765b;}.cls-170{fill:#d6755b;}.cls-171{fill:#d5755a;}.cls-172{fill:#d4745a;}.cls-173{fill:#d37459;}.cls-174{fill:#d27359;}.cls-175{fill:#d17259;}.cls-176{fill:#d07258;}.cls-177{fill:#cf7158;}.cls-178{fill:#ce7157;}.cls-179{fill:#cd7057;}.cls-180{fill:#cc7056;}.cls-181{fill:#cb6f56;}.cls-182{fill:#ca6f55;}.cls-183{fill:#c96e55;}.cls-184{fill:#432399;}.cls-185{fill:#bf5f49;}.cls-186{fill:#191919;}.cls-187{fill:#271272;}.cls-188{fill:#b55c47;}.cls-189{fill:#8ad5ff;}.cls-190{fill:#bfe2ff;}.cls-191{fill:#d9d0c6;}.cls-192,.cls-194{fill:#ccc;mix-blend-mode:multiply;}.cls-192{opacity:0.3;}.cls-193{fill:#ede3d9;}.cls-194{opacity:0.4;}.cls-195{fill:#fffbf8;}.cls-196{stroke:#777;stroke-miterlimit:10;}</style><clipPath id="clip-path"><rect class="cls-1" x="2.42" y="2.42" width="720.36" height="606.77"/></clipPath><clipPath id="clip-path-2"><rect class="cls-1" x="2.91" y="5.65" width="720.36" height="606.77"/></clipPath><clipPath id="clip-path-3"><path class="cls-1" d="M310.19,346.67s38.89-4.8,38.89-8.38,2.25-14.22,0-16.47,38.33,0,38.33,0-.43,14.82,1.51,16.77,28.83,1.25,33.23,2.07,4.32,40.45,4.32,40.45-65.56,63.49-82.11,40.71S307.81,349,310.19,346.67Z"/></clipPath></defs><title>Situação1MM1</title><g class="cls-2"><g id="Camada_1" data-name="Camada 1"><g class="cls-3"><rect class="cls-4" x="2.42" y="2.42" width="720.36" height="606.77"/><path class="cls-4" d="M710.18,252.47c16.11,105-8.2,206-60.54,284.5a362.43,362.43,0,0,1-44.32,54.33,347.34,347.34,0,0,1-25.74,23.44v-3.93H158.09v1.59C84.63,553.24,31.13,464.15,15,359.14s8.2-206,60.54-284.5a362.43,362.43,0,0,1,44.32-54.33A347.34,347.34,0,0,1,145.61-3.13V.81h421.5V-.79C640.57,58.37,694.06,147.47,710.18,252.47Z"/><path class="cls-5" d="M708.11,252.79c16,104.38-8.15,204.81-60.18,282.81a360.28,360.28,0,0,1-44.05,54,345.27,345.27,0,0,1-25.58,23.3v-2.09H173.22v10.44q-7.07-5.16-13.92-10.67c-73-58.81-126.2-147.37-142.21-251.75S25.24,154,77.27,76a360.28,360.28,0,0,1,44.05-54,345.27,345.27,0,0,1,25.58-23.3V.81H552V-9.64Q559-4.48,565.9,1C638.92,59.85,692.09,148.41,708.11,252.79Z"/><path class="cls-6" d="M706,253.1c15.92,103.75-8.1,203.58-59.82,281.11a358.12,358.12,0,0,1-43.79,53.68A343.2,343.2,0,0,1,577,611.06v-.25H174.36v8.55q-7-5.13-13.84-10.61C87.94,550.29,35.08,462.26,19.16,358.51S27.26,154.93,79,77.4a358.12,358.12,0,0,1,43.79-53.68A343.2,343.2,0,0,1,148.2.55V.81H550.84V-7.75q7,5.13,13.84,10.61C637.26,61.32,690.12,149.35,706,253.1Z"/><path class="cls-7" d="M704,253.42c15.83,103.13-8.06,202.36-59.46,279.42A356,356,0,0,1,601,586.2a341.14,341.14,0,0,1-25.28,23q-6.59,5.43-13.45,10.51v-8.92H175.49v6.67q-7-5.1-13.75-10.55C89.59,548.82,37.05,461.32,21.23,358.19S29.28,155.84,80.69,78.77a356,356,0,0,1,43.52-53.36,341.14,341.14,0,0,1,25.28-23Q156.08-3,162.94-8.11V.81H549.71V-5.86q7,5.1,13.75,10.55C635.61,62.79,688.15,150.29,704,253.42Z"/><path class="cls-8" d="M701.9,253.74c15.73,102.5-8,201.13-59.1,277.73a353.8,353.8,0,0,1-43.26,53,339.07,339.07,0,0,1-25.12,22.89q-6.55,5.39-13.37,10.44v-7H176.62v4.78q-6.95-5.07-13.67-10.48C91.24,547.35,39,460.38,23.3,357.87s8-201.13,59.1-277.73a353.8,353.8,0,0,1,43.26-53A339.07,339.07,0,0,1,150.78,4.23q6.55-5.39,13.37-10.44v7H548.57V-4q6.95,5.07,13.67,10.48C634,64.26,686.17,151.24,701.9,253.74Z"/><path class="cls-9" d="M699.83,254.06c15.63,101.88-8,199.9-58.74,276a351.65,351.65,0,0,1-43,52.71,337,337,0,0,1-25,22.75q-6.51,5.36-13.29,10.38v-5.12H177.76v2.89q-6.9-5-13.59-10.42C92.9,545.88,41,459.44,25.37,357.56s8-199.9,58.74-276a351.65,351.65,0,0,1,43-52.71,337,337,0,0,1,25-22.75Q158.59.71,165.36-4.31V.81H547.44V-2.08Q554.34,3,561,8.34C632.3,65.74,684.2,152.18,699.83,254.06Z"/><path class="cls-10" d="M697.76,254.37c15.54,101.25-7.91,198.68-58.38,274.34a349.49,349.49,0,0,1-42.73,52.39,334.93,334.93,0,0,1-24.82,22.61Q565.36,609,558.63,614v-3.21H192.82v10.66q-14.13-9.3-27.43-20c-70.84-57-122.42-143-138-244.21S35.34,158.56,85.81,82.9a349.49,349.49,0,0,1,42.73-52.39A334.93,334.93,0,0,1,153.36,7.91q6.47-5.33,13.21-10.32V.81h365.8V-9.85q14.13,9.3,27.43,20C630.65,67.21,682.23,153.12,697.76,254.37Z"/><path class="cls-11" d="M695.7,254.69c15.44,100.63-7.86,197.45-58,272.65a337.63,337.63,0,0,1-93.89,94.34V610.81H193.87v8.71q-14-9.25-27.26-19.89C96.21,542.93,44.95,457.55,29.5,356.92s7.86-197.45,58-272.65a337.63,337.63,0,0,1,93.89-94.34V.81H531.33V-7.9q14,9.25,27.26,19.89C629,68.68,680.25,154.06,695.7,254.69Z"/><path class="cls-12" d="M693.63,255C709,355,685.81,451.23,636,526a335.53,335.53,0,0,1-93.31,93.76v-8.91H194.92v6.76q-14-9.19-27.09-19.77c-70-56.34-120.91-141.19-136.25-241.2s7.81-196.22,57.66-271A335.53,335.53,0,0,1,182.54-8.1V.81H530.28V-6q14,9.19,27.09,19.77C627.34,70.16,678.28,155,693.63,255Z"/><path class="cls-13" d="M691.56,255.33c15.25,99.38-7.76,195-57.3,269.26a333.43,333.43,0,0,1-92.73,93.17v-6.95H196v4.81Q182.09,606.49,169,596C99.52,540,48.89,455.67,33.64,356.29S41.4,161.29,90.94,87A333.43,333.43,0,0,1,183.67-6.14V.81H529.23V-4q13.87,9.13,26.93,19.64C625.68,71.63,676.31,155.95,691.56,255.33Z"/><path class="cls-14" d="M689.49,255.64c15.15,98.75-7.71,193.77-56.94,267.57a331.34,331.34,0,0,1-92.14,92.59v-5H197v2.86q-13.79-9.07-26.76-19.52C101.17,538.51,50.86,454.72,35.71,356S43.42,162.2,92.65,88.4A331.34,331.34,0,0,1,184.79-4.18v5H528.18V-2.06Q542,7,554.94,17.46C624,73.1,674.33,156.89,689.49,255.64Z"/><path class="cls-15" d="M687.42,256c15.06,98.13-7.67,192.55-56.58,265.87a329.24,329.24,0,0,1-91.56,92v-3H198.06v.91q-13.7-9-26.59-19.4C102.83,537,52.84,453.78,37.78,355.65S45.44,163.11,94.36,89.78a329.24,329.24,0,0,1,91.56-92v3H527.14V-.11q13.7,9,26.59,19.4C622.37,74.57,672.36,157.83,687.42,256Z"/><path class="cls-16" d="M685.35,256.28c15,97.5-7.62,191.32-56.22,264.18a327.14,327.14,0,0,1-91,91.41v-1.06H212.91v7.58q-7-4.13-13.8-8.61-13.61-9-26.42-19.27C104.48,535.57,54.81,452.84,39.85,355.33S47.46,164,96.07,91.16A327.14,327.14,0,0,1,187-.26V.81H512.29V-6.77q7,4.13,13.8,8.61,13.61,9,26.42,19.27C620.72,76,670.39,158.78,685.35,256.28Z"/><path class="cls-17" d="M683.28,256.6c14.87,96.88-7.57,190.09-55.86,262.48A325,325,0,0,1,537,609.91q-6.68,4.43-13.6,8.52v-7.62H213.87v5.57q-6.95-4.1-13.71-8.56-13.52-8.9-26.25-19.15C106.14,534.09,56.78,451.9,41.92,355S49.48,164.93,97.77,92.53a325,325,0,0,1,90.4-90.83q6.68-4.43,13.6-8.52V.81H511.33V-4.77Q518.28-.66,525,3.79q13.52,8.9,26.25,19.15C619.06,77.52,668.42,159.72,683.28,256.6Z"/><path class="cls-18" d="M681.21,256.91c14.77,96.25-7.52,188.87-55.5,260.79a323,323,0,0,1-89.81,90.24q-6.64,4.4-13.51,8.46v-5.6H214.83v3.57q-6.9-4.08-13.62-8.5-13.44-8.84-26.08-19C107.79,532.62,58.76,451,44,354.7s7.52-188.87,55.5-260.79A323,323,0,0,1,189.3,3.67q6.64-4.4,13.51-8.46V.81H510.37V-2.76q6.9,4.08,13.62,8.5,13.44,8.84,26.08,19C617.41,79,666.44,160.66,681.21,256.91Z"/><path class="cls-19" d="M679.14,257.23c14.67,95.63-7.47,187.64-55.14,259.1A320.85,320.85,0,0,1,534.78,606a300.79,300.79,0,0,1-27.3,16.11V610.81H229.68v9.32A330.07,330.07,0,0,1,176.35,585C109.45,531.15,60.73,450,46.05,354.38s7.47-187.64,55.14-259.1A320.85,320.85,0,0,1,190.42,5.63a300.79,300.79,0,0,1,27.3-16.11V.81h277.8V-8.51a330.07,330.07,0,0,1,53.34,35.1C615.75,80.47,664.47,161.6,679.14,257.23Z"/><path class="cls-20" d="M677.08,257.55c14.58,95-7.42,186.41-54.78,257.4A318.75,318.75,0,0,1,533.65,604a298.83,298.83,0,0,1-27.12,16v-9.22h-276v7.26a327.92,327.92,0,0,1-53-34.87C111.1,529.68,62.7,449.07,48.12,354.06s7.42-186.41,54.78-257.4A318.75,318.75,0,0,1,191.55,7.59a298.83,298.83,0,0,1,27.12-16V.81h276V-6.45a327.92,327.92,0,0,1,53,34.87C614.1,81.94,662.5,162.55,677.08,257.55Z"/><path class="cls-21" d="M675,257.87c14.48,94.38-7.37,185.19-54.42,255.71a316.66,316.66,0,0,1-88.06,88.48A296.86,296.86,0,0,1,505.59,618v-7.15H231.42V616a325.76,325.76,0,0,1-52.64-34.64c-66-53.17-114.1-133.25-128.59-227.63S57.57,168.56,104.61,98A316.66,316.66,0,0,1,192.67,9.55a296.86,296.86,0,0,1,26.94-15.9V.81H493.78V-4.4a325.76,325.76,0,0,1,52.64,34.64C612.44,83.41,660.52,163.49,675,257.87Z"/><path class="cls-22" d="M672.94,258.18c14.39,93.75-7.32,184-54.06,254a314.56,314.56,0,0,1-87.48,87.9,294.89,294.89,0,0,1-26.76,15.79v-5.08H232.29V614A323.6,323.6,0,0,1,180,579.55C114.41,526.73,66.65,447.18,52.26,353.43s7.32-184,54.06-254a314.56,314.56,0,0,1,87.48-87.9A294.89,294.89,0,0,1,220.56-4.28V.81H492.91V-2.35A323.6,323.6,0,0,1,545.2,32.06C610.79,84.88,658.55,164.43,672.94,258.18Z"/><path class="cls-23" d="M670.87,258.5c14.29,93.13-7.27,182.73-53.7,252.32a312.46,312.46,0,0,1-86.9,87.31,292.93,292.93,0,0,1-26.58,15.69v-3H233.16v1.1a321.44,321.44,0,0,1-51.94-34.18C116.06,525.26,68.62,446.24,54.33,353.11S61.61,170.38,108,100.79a312.46,312.46,0,0,1,86.9-87.31A292.93,292.93,0,0,1,221.5-2.21v3H492V-.29A321.44,321.44,0,0,1,544,33.89C609.14,86.36,656.58,165.37,670.87,258.5Z"/><path class="cls-24" d="M668.8,258.82c14.2,92.5-7.23,181.51-53.33,250.63a310.37,310.37,0,0,1-86.31,86.73,291,291,0,0,1-26.4,15.58v-.95h-255v5.85q-7-3.23-13.76-6.81a319.29,319.29,0,0,1-51.59-34C117.72,523.78,70.59,445.3,56.4,352.8s7.23-181.51,53.33-250.63A310.37,310.37,0,0,1,196,15.44,291,291,0,0,1,222.45-.14V.81h255V-5q7,3.23,13.76,6.81a319.29,319.29,0,0,1,51.59,34C607.48,87.83,654.6,166.32,668.8,258.82Z"/><path class="cls-25" d="M666.73,259.14c14.1,91.88-7.18,180.28-53,248.94A308.27,308.27,0,0,1,528,594.21a289,289,0,0,1-26.23,15.48q-6.77,3.53-13.74,6.7v-5.58H262.53v9.81A303.92,303.92,0,0,1,234.9,607.8a317.13,317.13,0,0,1-51.25-33.72C119.37,522.31,72.57,444.36,58.47,352.48s7.18-180.28,53-248.94A308.27,308.27,0,0,1,197.17,17.4,289,289,0,0,1,223.4,1.92q6.77-3.53,13.74-6.7V.81H462.67V-9A303.92,303.92,0,0,1,490.3,3.82a317.13,317.13,0,0,1,51.25,33.72C605.83,89.3,652.63,167.26,666.73,259.14Z"/><path class="cls-26" d="M664.66,259.45c14,91.25-7.13,179.05-52.61,247.24a306.17,306.17,0,0,1-85.15,85.55,284.56,284.56,0,0,1-53.75,28v-9.4H263.21v7.67a301.85,301.85,0,0,1-27.45-12.73,315,315,0,0,1-50.9-33.49C121,520.84,74.54,443.41,60.54,352.16s7.13-179.05,52.61-247.24A306.17,306.17,0,0,1,198.3,19.36,284.56,284.56,0,0,1,252-8.59V.81H462V-6.86A301.85,301.85,0,0,1,489.44,5.87a315,315,0,0,1,50.9,33.49C604.17,90.77,650.66,168.2,664.66,259.45Z"/><path class="cls-27" d="M662.59,259.77c13.91,90.63-7.08,177.83-52.25,245.55a304.07,304.07,0,0,1-84.56,85,282.61,282.61,0,0,1-53.38,27.76v-7.25H263.89v5.52a299.79,299.79,0,0,1-27.26-12.64,312.81,312.81,0,0,1-50.55-33.26c-63.4-51.06-109.57-128-123.48-218.58S69.69,174,114.86,106.29a304.07,304.07,0,0,1,84.56-85A282.61,282.61,0,0,1,252.8-6.44V.81H461.31V-4.72A299.79,299.79,0,0,1,488.57,7.93a312.81,312.81,0,0,1,50.55,33.26C602.52,92.25,648.69,169.14,662.59,259.77Z"/><path class="cls-28" d="M660.52,260.09c13.81,90-7,176.6-51.89,243.86a302,302,0,0,1-84,84.38,280.66,280.66,0,0,1-53,27.57v-5.09H264.57v3.38a297.72,297.72,0,0,1-27.07-12.56,310.66,310.66,0,0,1-50.2-33c-63-50.71-108.82-127.07-122.63-217.08s7-176.6,51.89-243.86a302,302,0,0,1,84-84.38,280.67,280.67,0,0,1,53-27.57V.81H460.63V-2.58A297.72,297.72,0,0,1,487.7,10a310.66,310.66,0,0,1,50.2,33C600.86,93.72,646.71,170.09,660.52,260.09Z"/><path class="cls-29" d="M658.46,260.41c13.72,89.38-7,175.38-51.53,242.16a299.88,299.88,0,0,1-83.4,83.8,278.72,278.72,0,0,1-52.64,27.38v-2.94H293.2v10.9a299.88,299.88,0,0,1-104.69-54.93C126,516.42,80.46,440.59,66.74,351.21s7-175.38,51.53-242.16a299.88,299.88,0,0,1,83.4-83.8A278.72,278.72,0,0,1,254.31-2.13V.81H432V-10.1A299.88,299.88,0,0,1,536.68,44.84C599.21,95.19,644.74,171,658.46,260.41Z"/><path class="cls-30" d="M656.39,260.72c13.62,88.75-6.93,174.15-51.17,240.47A297.78,297.78,0,0,1,522.4,584.4a276.77,276.77,0,0,1-52.27,27.19v-.79H293.69v8.69a297.78,297.78,0,0,1-104-54.55c-62.09-50-107.3-125.31-120.92-214.06S75.75,176.74,120,110.42A297.78,297.78,0,0,1,202.8,27.21,276.77,276.77,0,0,1,255.07,0V.81H431.51V-7.89a297.78,297.78,0,0,1,104,54.55C597.55,96.67,642.77,172,656.39,260.72Z"/><path class="cls-31" d="M654.32,261c13.52,88.13-6.88,172.92-50.81,238.78a295.69,295.69,0,0,1-82.23,82.62,274.82,274.82,0,0,1-51.9,27,271.17,271.17,0,0,1-28.22,9.28v-7.91h-147v6.48A295.69,295.69,0,0,1,191,563.13C129.3,513.47,84.41,438.7,70.88,350.57s6.88-172.92,50.81-238.78a295.69,295.69,0,0,1,82.23-82.62,274.82,274.82,0,0,1,51.9-27,271.17,271.17,0,0,1,28.22-9.28V.81H431V-5.68A295.69,295.69,0,0,1,534.25,48.49C595.9,98.14,640.79,172.91,654.32,261Z"/><path class="cls-32" d="M652.25,261.36c13.43,87.5-6.84,171.7-50.45,237.08a293.59,293.59,0,0,1-81.65,82,272.87,272.87,0,0,1-51.54,26.81,269.25,269.25,0,0,1-28,9.22v-5.69H294.66v4.28A293.59,293.59,0,0,1,192.17,561.3C131,512,86.38,437.76,73,350.26s6.84-171.7,50.45-237.08a293.59,293.59,0,0,1,81.65-82A272.87,272.87,0,0,1,256.59,4.33a269.25,269.25,0,0,1,28-9.22V.81H430.54V-3.47A293.59,293.59,0,0,1,533,50.31C594.24,99.61,638.82,173.86,652.25,261.36Z"/><path class="cls-33" d="M650.18,261.68C676.84,435.43,569.71,596,410.88,620.42v-9.61H295.15v2.07a291.49,291.49,0,0,1-101.76-53.4C132.61,510.53,88.35,436.82,75,349.94,48.36,176.18,155.49,15.57,314.32-8.81V.81H430.05V-1.26a291.49,291.49,0,0,1,101.76,53.4C592.59,101.08,636.85,174.8,650.18,261.68Z"/><path class="cls-34" d="M648.11,262c26.47,172.51-79.9,332-237.58,356.16v-7.35H352v9.83a269,269,0,0,1-56.39-10,289.39,289.39,0,0,1-101-53c-60.34-48.6-104.28-121.78-117.52-208C50.62,177.12,157,17.66,314.67-6.54V.81h58.51V-9A269,269,0,0,1,429.57,1a289.39,289.39,0,0,1,101,53C590.93,102.56,634.87,175.74,648.11,262Z"/><path class="cls-35" d="M646,262.31c26.28,171.26-79.32,329.56-235.86,353.58a264.82,264.82,0,0,1-114.07-7.44,287.3,287.3,0,0,1-100.29-52.63C135.92,507.58,92.3,434.93,79.16,349.3,52.88,178,158.47,19.74,315-4.28A264.82,264.82,0,0,1,429.08,3.16,287.3,287.3,0,0,1,529.38,55.79C589.28,104,632.9,176.68,646,262.31Z"/><path class="cls-36" d="M644,262.63c26.09,170-78.74,327.15-234.14,351a262.89,262.89,0,0,1-113.24-7.38A285.2,285.2,0,0,1,197,554C137.57,506.11,94.27,434,81.23,349,55.14,179,160,21.83,315.36-2A262.89,262.89,0,0,1,428.6,5.37a285.2,285.2,0,0,1,99.56,52.24C587.63,105.5,630.93,177.63,644,262.63Z"/><path class="cls-37" d="M641.9,262.95c25.9,168.75-78.16,324.75-232.41,348.42A261,261,0,0,1,297.09,604a283.1,283.1,0,0,1-98.83-51.86c-59-47.54-102-119.13-115-203.51C57.4,179.91,161.45,23.92,315.71.25a261,261,0,0,1,112.4,7.33,283.1,283.1,0,0,1,98.83,51.86C586,107,629,178.57,641.9,262.95Z"/><path class="cls-38" d="M639.84,263.26c25.7,167.5-77.58,322.34-230.69,345.84-76.56,11.75-151.07-11.56-209.67-58.75S98.22,432.1,85.36,348.35C59.66,180.85,162.94,26,316.06,2.51,392.61-9.24,467.13,14.08,525.72,61.26S627,179.51,639.84,263.26Z"/><path class="cls-39" d="M637.77,263.58c25.51,166.25-77,319.94-229,343.26-76,11.66-149.95-11.48-208.1-58.31S100.19,431.16,87.43,348c-25.51-166.25,77-319.94,229-343.26,76-11.66,149.95,11.48,208.1,58.31S625,180.45,637.77,263.58Z"/><path class="cls-40" d="M635.7,263.9c25.32,165-76.42,317.53-227.25,340.68C333,616.15,259.63,593.18,201.91,546.7s-99.75-116.48-112.41-199C64.18,182.71,165.92,30.18,316.75,7,392.17-4.53,465.57,18.43,523.29,64.91S623,181.4,635.7,263.9Z"/><path class="cls-41" d="M633.63,264.22C658.76,428,557.79,579.34,408.1,602.31c-74.84,11.49-147.69-11.3-205-57.43s-99-115.6-111.56-197.48C66.44,183.64,167.41,32.27,317.1,9.3c74.84-11.49,147.69,11.3,205,57.43S621.06,182.34,633.63,264.22Z"/><path class="cls-42" d="M631.56,264.53C656.5,427,556.3,577.25,407.75,600c-74.27,11.4-146.57-11.22-203.41-57s-98.24-114.72-110.7-196C68.7,184.58,168.9,34.36,317.45,11.57,391.72.17,464,22.78,520.85,68.56S619.09,183.28,631.56,264.53Z"/><ellipse class="cls-43" cx="362.6" cy="305.81" rx="270.01" ry="295.4" transform="translate(-42.19 58.54) rotate(-8.72)"/><ellipse class="cls-44" cx="362.6" cy="305.81" rx="267.92" ry="293.11" transform="translate(-42.19 58.54) rotate(-8.72)"/><ellipse class="cls-45" cx="362.6" cy="305.81" rx="265.83" ry="290.82" transform="translate(-42.19 58.54) rotate(-8.72)"/><ellipse class="cls-46" cx="362.6" cy="305.81" rx="263.74" ry="288.53" transform="matrix(0.99, -0.15, 0.15, 0.99, -42.19, 58.54)"/><ellipse class="cls-47" cx="362.6" cy="305.81" rx="261.64" ry="286.24" transform="translate(-42.19 58.54) rotate(-8.72)"/><ellipse class="cls-48" cx="362.6" cy="305.81" rx="259.55" ry="283.95" transform="translate(-42.19 58.54) rotate(-8.72)"/><ellipse class="cls-49" cx="362.6" cy="305.81" rx="257.46" ry="281.66" transform="translate(-42.19 58.54) rotate(-8.72)"/><ellipse class="cls-50" cx="362.6" cy="305.81" rx="255.36" ry="279.37" transform="translate(-42.19 58.54) rotate(-8.72)"/><ellipse class="cls-51" cx="362.6" cy="305.81" rx="253.27" ry="277.08" transform="translate(-42.19 58.54) rotate(-8.72)"/><ellipse class="cls-52" cx="362.6" cy="305.81" rx="251.18" ry="274.79" transform="translate(-42.19 58.54) rotate(-8.72)"/><ellipse class="cls-53" cx="362.6" cy="305.81" rx="249.08" ry="272.5" transform="translate(-42.19 58.54) rotate(-8.72)"/><ellipse class="cls-54" cx="362.6" cy="305.81" rx="246.99" ry="270.21" transform="translate(-42.19 58.54) rotate(-8.72)"/><ellipse class="cls-55" cx="362.6" cy="305.81" rx="244.9" ry="267.92" transform="translate(-42.19 58.54) rotate(-8.72)"/><ellipse class="cls-56" cx="362.6" cy="305.81" rx="242.8" ry="265.63" transform="translate(-42.19 58.54) rotate(-8.72)"/><ellipse class="cls-57" cx="362.6" cy="305.81" rx="240.71" ry="263.34" transform="translate(-42.19 58.54) rotate(-8.72)"/><ellipse class="cls-58" cx="362.6" cy="305.81" rx="238.62" ry="261.05" transform="matrix(0.99, -0.15, 0.15, 0.99, -42.19, 58.54)"/><ellipse class="cls-59" cx="362.6" cy="305.81" rx="236.52" ry="258.76" transform="translate(-42.19 58.54) rotate(-8.72)"/><ellipse class="cls-60" cx="362.6" cy="305.81" rx="234.43" ry="256.47" transform="translate(-42.19 58.54) rotate(-8.72)"/><ellipse class="cls-61" cx="362.6" cy="305.81" rx="232.34" ry="254.18" transform="matrix(0.99, -0.15, 0.15, 0.99, -42.19, 58.54)"/><ellipse class="cls-62" cx="362.6" cy="305.81" rx="230.25" ry="251.89" transform="translate(-42.19 58.54) rotate(-8.72)"/><ellipse class="cls-63" cx="362.6" cy="305.81" rx="228.15" ry="249.6" transform="translate(-42.19 58.54) rotate(-8.72)"/><ellipse class="cls-64" cx="362.6" cy="305.81" rx="226.06" ry="247.31" transform="translate(-42.19 58.54) rotate(-8.72)"/><ellipse class="cls-65" cx="362.6" cy="305.81" rx="223.97" ry="245.02" transform="translate(-42.19 58.54) rotate(-8.72)"/><ellipse class="cls-66" cx="362.6" cy="305.81" rx="221.87" ry="242.73" transform="translate(-42.19 58.54) rotate(-8.72)"/><ellipse class="cls-67" cx="362.6" cy="305.81" rx="219.78" ry="240.44" transform="translate(-42.19 58.54) rotate(-8.72)"/><ellipse class="cls-68" cx="362.6" cy="305.81" rx="217.69" ry="238.15" transform="translate(-42.19 58.54) rotate(-8.72)"/><ellipse class="cls-69" cx="362.6" cy="305.81" rx="215.59" ry="235.86" transform="translate(-42.19 58.54) rotate(-8.72)"/><ellipse class="cls-70" cx="362.6" cy="305.81" rx="213.5" ry="233.57" transform="translate(-42.19 58.54) rotate(-8.72)"/><ellipse class="cls-71" cx="362.6" cy="305.81" rx="211.41" ry="231.28" transform="translate(-42.19 58.54) rotate(-8.72)"/><ellipse class="cls-72" cx="362.6" cy="305.81" rx="209.31" ry="228.99" transform="translate(-42.19 58.54) rotate(-8.72)"/><ellipse class="cls-73" cx="362.6" cy="305.81" rx="207.22" ry="226.7" transform="translate(-42.19 58.54) rotate(-8.72)"/><ellipse class="cls-74" cx="362.6" cy="305.81" rx="205.13" ry="224.41" transform="matrix(0.99, -0.15, 0.15, 0.99, -42.19, 58.54)"/><ellipse class="cls-75" cx="362.6" cy="305.81" rx="203.03" ry="222.12" transform="translate(-42.19 58.54) rotate(-8.72)"/><ellipse class="cls-76" cx="362.6" cy="305.81" rx="200.94" ry="219.83" transform="translate(-42.19 58.54) rotate(-8.72)"/><ellipse class="cls-77" cx="362.6" cy="305.81" rx="198.85" ry="217.54" transform="translate(-42.19 58.54) rotate(-8.72)"/><ellipse class="cls-78" cx="362.6" cy="305.81" rx="196.76" ry="215.25" transform="translate(-42.19 58.54) rotate(-8.72)"/><ellipse class="cls-79" cx="362.6" cy="305.81" rx="194.66" ry="212.96" transform="translate(-42.19 58.54) rotate(-8.72)"/><ellipse class="cls-80" cx="362.6" cy="305.81" rx="192.57" ry="210.67" transform="translate(-42.19 58.54) rotate(-8.72)"/><ellipse class="cls-81" cx="362.6" cy="305.81" rx="190.48" ry="208.38" transform="translate(-42.19 58.54) rotate(-8.72)"/><ellipse class="cls-82" cx="362.6" cy="305.81" rx="188.38" ry="206.09" transform="translate(-42.19 58.54) rotate(-8.72)"/><ellipse class="cls-83" cx="362.6" cy="305.81" rx="186.29" ry="203.8" transform="translate(-42.19 58.54) rotate(-8.72)"/><ellipse class="cls-84" cx="362.6" cy="305.81" rx="184.2" ry="201.51" transform="matrix(0.99, -0.15, 0.15, 0.99, -42.19, 58.54)"/><ellipse class="cls-85" cx="362.6" cy="305.81" rx="182.1" ry="199.22" transform="translate(-42.19 58.54) rotate(-8.72)"/><ellipse class="cls-86" cx="362.6" cy="305.81" rx="180.01" ry="196.93" transform="translate(-42.19 58.54) rotate(-8.72)"/><ellipse class="cls-87" cx="362.6" cy="305.81" rx="177.92" ry="194.64" transform="translate(-42.19 58.54) rotate(-8.72)"/><ellipse class="cls-88" cx="362.6" cy="305.81" rx="175.82" ry="192.35" transform="matrix(0.99, -0.15, 0.15, 0.99, -42.19, 58.54)"/><ellipse class="cls-89" cx="362.6" cy="305.81" rx="173.73" ry="190.06" transform="translate(-42.19 58.54) rotate(-8.72)"/><ellipse class="cls-90" cx="362.6" cy="305.81" rx="171.64" ry="187.77" transform="translate(-42.19 58.54) rotate(-8.72)"/><ellipse class="cls-91" cx="362.6" cy="305.81" rx="169.54" ry="185.48" transform="translate(-42.19 58.54) rotate(-8.72)"/><ellipse class="cls-92" cx="362.6" cy="305.81" rx="167.45" ry="183.19" transform="translate(-42.19 58.54) rotate(-8.72)"/><ellipse class="cls-93" cx="362.6" cy="305.81" rx="165.36" ry="180.9" transform="translate(-42.19 58.54) rotate(-8.72)"/><ellipse class="cls-94" cx="362.6" cy="305.81" rx="163.26" ry="178.61" transform="translate(-42.19 58.54) rotate(-8.72)"/><ellipse class="cls-95" cx="362.6" cy="305.81" rx="161.17" ry="176.32" transform="translate(-42.19 58.54) rotate(-8.72)"/><ellipse class="cls-96" cx="362.6" cy="305.81" rx="159.08" ry="174.03" transform="translate(-42.19 58.54) rotate(-8.72)"/><ellipse class="cls-97" cx="362.6" cy="305.81" rx="156.99" ry="171.74" transform="translate(-42.19 58.54) rotate(-8.72)"/><ellipse class="cls-98" cx="362.6" cy="305.81" rx="154.89" ry="169.45" transform="translate(-42.19 58.54) rotate(-8.72)"/><ellipse class="cls-99" cx="362.6" cy="305.81" rx="152.8" ry="167.16" transform="translate(-42.19 58.54) rotate(-8.72)"/><ellipse class="cls-100" cx="362.6" cy="305.81" rx="150.71" ry="164.87" transform="matrix(0.99, -0.15, 0.15, 0.99, -42.19, 58.54)"/><ellipse class="cls-101" cx="362.6" cy="305.81" rx="148.61" ry="162.58" transform="translate(-42.19 58.54) rotate(-8.72)"/><ellipse class="cls-102" cx="362.6" cy="305.81" rx="146.52" ry="160.29" transform="translate(-42.19 58.54) rotate(-8.72)"/><ellipse class="cls-103" cx="362.6" cy="305.81" rx="144.43" ry="158" transform="translate(-42.19 58.54) rotate(-8.72)"/><ellipse class="cls-104" cx="362.6" cy="305.81" rx="142.33" ry="155.71" transform="translate(-42.19 58.54) rotate(-8.72)"/><ellipse class="cls-105" cx="362.6" cy="305.81" rx="140.24" ry="153.42" transform="translate(-42.19 58.54) rotate(-8.72)"/><ellipse class="cls-106" cx="362.6" cy="305.81" rx="138.15" ry="151.13" transform="translate(-42.19 58.54) rotate(-8.72)"/><ellipse class="cls-107" cx="362.6" cy="305.81" rx="136.05" ry="148.84" transform="translate(-42.19 58.54) rotate(-8.72)"/><ellipse class="cls-108" cx="362.6" cy="305.81" rx="133.96" ry="146.55" transform="translate(-42.19 58.54) rotate(-8.72)"/><ellipse class="cls-109" cx="362.6" cy="305.81" rx="131.87" ry="144.26" transform="translate(-42.19 58.54) rotate(-8.72)"/><ellipse class="cls-110" cx="362.6" cy="305.81" rx="129.77" ry="141.97" transform="translate(-42.19 58.54) rotate(-8.72)"/><ellipse class="cls-110" cx="362.6" cy="305.81" rx="127.68" ry="139.68" transform="translate(-42.19 58.54) rotate(-8.72)"/><ellipse class="cls-111" cx="362.6" cy="305.81" rx="125.59" ry="137.39" transform="matrix(0.99, -0.15, 0.15, 0.99, -42.19, 58.54)"/><ellipse class="cls-112" cx="362.6" cy="305.81" rx="123.5" ry="135.1" transform="translate(-42.19 58.54) rotate(-8.72)"/><ellipse class="cls-113" cx="362.6" cy="305.81" rx="121.4" ry="132.81" transform="translate(-42.19 58.54) rotate(-8.72)"/><ellipse class="cls-114" cx="362.6" cy="305.81" rx="119.31" ry="130.52" transform="translate(-42.19 58.54) rotate(-8.72)"/><ellipse class="cls-115" cx="362.6" cy="305.81" rx="117.22" ry="128.23" transform="translate(-42.19 58.54) rotate(-8.72)"/><ellipse class="cls-116" cx="362.6" cy="305.81" rx="115.12" ry="125.94" transform="translate(-42.19 58.54) rotate(-8.72)"/><ellipse class="cls-117" cx="362.6" cy="305.81" rx="113.03" ry="123.65" transform="translate(-42.19 58.54) rotate(-8.72)"/><ellipse class="cls-118" cx="362.6" cy="305.81" rx="110.94" ry="121.36" transform="translate(-42.19 58.54) rotate(-8.72)"/><ellipse class="cls-119" cx="362.6" cy="305.81" rx="108.84" ry="119.07" transform="translate(-42.19 58.54) rotate(-8.72)"/><ellipse class="cls-120" cx="362.6" cy="305.81" rx="106.75" ry="116.78" transform="translate(-42.19 58.54) rotate(-8.72)"/><ellipse class="cls-121" cx="362.6" cy="305.81" rx="104.66" ry="114.49" transform="translate(-42.19 58.54) rotate(-8.72)"/><ellipse class="cls-122" cx="362.6" cy="305.81" rx="102.56" ry="112.2" transform="translate(-42.19 58.54) rotate(-8.72)"/><ellipse class="cls-122" cx="362.6" cy="305.81" rx="100.47" ry="109.91" transform="translate(-42.19 58.54) rotate(-8.72)"/><ellipse class="cls-123" cx="362.6" cy="305.81" rx="98.38" ry="107.62" transform="translate(-42.19 58.54) rotate(-8.72)"/><ellipse class="cls-124" cx="362.6" cy="305.81" rx="96.28" ry="105.33" transform="translate(-42.19 58.54) rotate(-8.72)"/><ellipse class="cls-125" cx="362.6" cy="305.81" rx="94.19" ry="103.04" transform="translate(-42.19 58.54) rotate(-8.72)"/><ellipse class="cls-126" cx="362.6" cy="305.81" rx="92.1" ry="100.76" transform="translate(-42.19 58.54) rotate(-8.72)"/><ellipse class="cls-126" cx="362.6" cy="305.81" rx="90" ry="98.47" transform="translate(-42.19 58.54) rotate(-8.72)"/><ellipse class="cls-127" cx="362.6" cy="305.81" rx="87.91" ry="96.18" transform="translate(-42.19 58.54) rotate(-8.72)"/><ellipse class="cls-128" cx="362.6" cy="305.81" rx="85.82" ry="93.89" transform="translate(-42.19 58.54) rotate(-8.72)"/><ellipse class="cls-129" cx="362.6" cy="305.81" rx="83.73" ry="91.6" transform="translate(-42.19 58.54) rotate(-8.72)"/><ellipse class="cls-130" cx="362.6" cy="305.81" rx="81.63" ry="89.31" transform="matrix(0.99, -0.15, 0.15, 0.99, -42.19, 58.54)"/><ellipse class="cls-131" cx="362.6" cy="305.81" rx="79.54" ry="87.02" transform="translate(-42.19 58.54) rotate(-8.72)"/><ellipse class="cls-132" cx="362.6" cy="305.81" rx="77.45" ry="84.73" transform="translate(-42.19 58.54) rotate(-8.72)"/><ellipse class="cls-132" cx="362.6" cy="305.81" rx="75.35" ry="82.44" transform="matrix(0.99, -0.15, 0.15, 0.99, -42.19, 58.54)"/><ellipse class="cls-133" cx="362.6" cy="305.81" rx="73.26" ry="80.15" transform="translate(-42.19 58.54) rotate(-8.72)"/><ellipse class="cls-134" cx="362.6" cy="305.81" rx="71.17" ry="77.86" transform="translate(-42.19 58.54) rotate(-8.72)"/><ellipse class="cls-134" cx="362.6" cy="305.81" rx="69.07" ry="75.57" transform="matrix(0.99, -0.15, 0.15, 0.99, -42.19, 58.54)"/><ellipse class="cls-135" cx="362.6" cy="305.81" rx="66.98" ry="73.28" transform="translate(-42.19 58.54) rotate(-8.72)"/><ellipse class="cls-136" cx="362.6" cy="305.81" rx="64.89" ry="70.99" transform="translate(-42.19 58.54) rotate(-8.72)"/><ellipse class="cls-136" cx="362.6" cy="305.81" rx="62.79" ry="68.7" transform="translate(-42.19 58.54) rotate(-8.72)"/><ellipse class="cls-137" cx="362.6" cy="305.81" rx="60.7" ry="66.41" transform="translate(-42.19 58.54) rotate(-8.72)"/><ellipse class="cls-137" cx="362.6" cy="305.81" rx="58.61" ry="64.12" transform="translate(-42.19 58.54) rotate(-8.72)"/><ellipse class="cls-138" cx="362.6" cy="305.81" rx="56.51" ry="61.83" transform="translate(-42.19 58.54) rotate(-8.72)"/><ellipse class="cls-139" cx="362.6" cy="305.81" rx="54.42" ry="59.54" transform="translate(-42.19 58.54) rotate(-8.72)"/><ellipse class="cls-139" cx="362.6" cy="305.81" rx="52.33" ry="57.25" transform="translate(-42.19 58.54) rotate(-8.72)"/><ellipse class="cls-140" cx="362.6" cy="305.81" rx="50.24" ry="54.96" transform="translate(-42.19 58.54) rotate(-8.72)"/><ellipse class="cls-141" cx="362.6" cy="305.81" rx="48.14" ry="52.67" transform="translate(-42.19 58.54) rotate(-8.72)"/><ellipse class="cls-142" cx="362.6" cy="305.81" rx="46.05" ry="50.38" transform="translate(-42.19 58.54) rotate(-8.72)"/><ellipse class="cls-142" cx="362.6" cy="305.81" rx="43.96" ry="48.09" transform="translate(-42.19 58.54) rotate(-8.72)"/><ellipse class="cls-143" cx="362.6" cy="305.81" rx="41.86" ry="45.8" transform="matrix(0.99, -0.15, 0.15, 0.99, -42.19, 58.54)"/><ellipse class="cls-143" cx="362.6" cy="305.81" rx="39.77" ry="43.51" transform="translate(-42.19 58.54) rotate(-8.72)"/><ellipse class="cls-144" cx="362.6" cy="305.81" rx="37.68" ry="41.22" transform="translate(-42.19 58.54) rotate(-8.72)"/><ellipse class="cls-144" cx="362.6" cy="305.81" rx="35.58" ry="38.93" transform="translate(-42.19 58.54) rotate(-8.72)"/><ellipse class="cls-145" cx="362.6" cy="305.81" rx="33.49" ry="36.64" transform="matrix(0.99, -0.15, 0.15, 0.99, -42.19, 58.54)"/><ellipse class="cls-145" cx="362.6" cy="305.81" rx="31.4" ry="34.35" transform="translate(-42.19 58.54) rotate(-8.72)"/><ellipse class="cls-146" cx="362.6" cy="305.81" rx="29.3" ry="32.06" transform="translate(-42.19 58.54) rotate(-8.72)"/><ellipse class="cls-146" cx="362.6" cy="305.81" rx="27.21" ry="29.77" transform="translate(-42.19 58.54) rotate(-8.72)"/><ellipse class="cls-146" cx="362.6" cy="305.81" rx="25.12" ry="27.48" transform="translate(-42.19 58.54) rotate(-8.72)"/><ellipse class="cls-147" cx="362.6" cy="305.81" rx="23.02" ry="25.19" transform="translate(-42.19 58.54) rotate(-8.72)"/><ellipse class="cls-147" cx="362.6" cy="305.81" rx="20.93" ry="22.9" transform="translate(-42.19 58.54) rotate(-8.72)"/><ellipse class="cls-147" cx="362.6" cy="305.81" rx="18.84" ry="20.61" transform="translate(-42.19 58.54) rotate(-8.72)"/><ellipse class="cls-148" cx="362.6" cy="305.81" rx="16.75" ry="18.32" transform="translate(-42.19 58.54) rotate(-8.72)"/><ellipse class="cls-148" cx="362.6" cy="305.81" rx="14.65" ry="16.03" transform="translate(-42.19 58.54) rotate(-8.72)"/><ellipse class="cls-148" cx="362.6" cy="305.81" rx="12.56" ry="13.74" transform="translate(-42.19 58.54) rotate(-8.72)"/><ellipse class="cls-148" cx="362.6" cy="305.81" rx="10.47" ry="11.45" transform="translate(-42.19 58.54) rotate(-8.72)"/><ellipse class="cls-149" cx="362.6" cy="305.81" rx="8.37" ry="9.16" transform="translate(-42.19 58.54) rotate(-8.72)"/><ellipse class="cls-149" cx="362.6" cy="305.81" rx="6.28" ry="6.87" transform="translate(-42.19 58.54) rotate(-8.72)"/><ellipse class="cls-149" cx="362.6" cy="305.81" rx="4.19" ry="4.58" transform="translate(-42.19 58.54) rotate(-8.72)"/><ellipse class="cls-149" cx="362.6" cy="305.81" rx="2.09" ry="2.29" transform="translate(-42.19 58.54) rotate(-8.72)"/></g><g class="cls-150"><path class="cls-151" d="M725.2,611.61H0V0H725.2ZM4.84,606.77H720.36V4.84H4.84Z"/></g><g class="cls-152"><path class="cls-153" d="M370.69,148.39c-1.6,0-17.55-18.37-7.56-28.35s49.09-12.4,51.13,3.15,9.55,25.93-19.19,30S370.69,148.39,370.69,148.39Z"/><path class="cls-154" d="M294.63,249s-14.09-59.9,27.27-77.79c0,0,10.89-24.63,46.41-27.05,0,0,23.55-2.38,31.16,5.19,0,0,17,2.85,22.73,8.64s45.94,33.8,30.25,94.08-152.38,17.29-152.38,17.29Z"/><g class="cls-155"><polygon class="cls-156" points="307.81 368.32 426.66 372.12 426.66 444.6 307.81 444.6 307.81 368.32"/><polygon class="cls-156" points="307.81 366.46 426.66 370.31 426.66 372.12 307.81 368.32 307.81 366.46"/><polygon class="cls-157" points="307.81 364.65 426.66 368.45 426.66 370.31 307.81 366.46 307.81 364.65"/><polygon class="cls-158" points="307.81 362.79 426.66 366.59 426.66 368.45 307.81 364.65 307.81 362.79"/><polygon class="cls-159" points="307.81 360.93 426.66 364.78 426.66 366.59 307.81 362.79 307.81 360.93"/><polygon class="cls-160" points="307.81 359.12 426.66 362.92 426.66 364.78 307.81 360.93 307.81 359.12"/><polygon class="cls-161" points="307.81 357.26 426.66 361.06 426.66 362.92 307.81 359.12 307.81 357.26"/><polygon class="cls-162" points="307.81 355.4 426.66 359.2 426.66 361.06 307.81 357.26 307.81 355.4"/><polygon class="cls-163" points="307.81 353.54 426.66 357.39 426.66 359.2 307.81 355.4 307.81 353.54"/><polygon class="cls-164" points="307.81 351.73 426.66 355.53 426.66 357.39 307.81 353.54 307.81 351.73"/><polygon class="cls-165" points="307.81 349.87 426.66 353.67 426.66 355.53 307.81 351.73 307.81 349.87"/><polygon class="cls-166" points="307.81 348.01 426.66 351.86 426.66 353.67 307.81 349.87 307.81 348.01"/><polygon class="cls-167" points="307.81 346.19 426.66 350 426.66 351.86 307.81 348.01 307.81 346.19"/><polygon class="cls-168" points="307.81 344.34 426.66 348.14 426.66 350 307.81 346.19 307.81 344.34"/><polygon class="cls-169" points="307.81 342.48 426.66 346.28 426.66 348.14 307.81 344.34 307.81 342.48"/><polygon class="cls-170" points="307.81 340.66 426.66 344.47 426.66 346.28 307.81 342.48 307.81 340.66"/><polygon class="cls-171" points="307.81 338.8 426.66 342.61 426.66 344.47 307.81 340.66 307.81 338.8"/><polygon class="cls-172" points="307.81 336.95 426.66 340.75 426.66 342.61 307.81 338.8 307.81 336.95"/><polygon class="cls-173" points="307.81 335.13 426.66 338.93 426.66 340.75 307.81 336.95 307.81 335.13"/><polygon class="cls-174" points="307.81 333.27 426.66 337.08 426.66 338.93 307.81 335.13 307.81 333.27"/><polygon class="cls-175" points="307.81 331.41 426.66 335.22 426.66 337.08 307.81 333.27 307.81 331.41"/><polygon class="cls-176" points="307.81 329.56 426.66 333.4 426.66 335.22 307.81 331.41 307.81 329.56"/><polygon class="cls-177" points="307.81 327.74 426.66 331.54 426.66 333.4 307.81 329.56 307.81 327.74"/><polygon class="cls-178" points="307.81 325.88 426.66 329.69 426.66 331.54 307.81 327.74 307.81 325.88"/><polygon class="cls-179" points="307.81 324.02 426.66 327.87 426.66 329.69 307.81 325.88 307.81 324.02"/><polygon class="cls-180" points="307.81 322.21 426.66 326.01 426.66 327.87 307.81 324.02 307.81 322.21"/><polygon class="cls-181" points="307.81 320.35 426.66 324.15 426.66 326.01 307.81 322.21 307.81 320.35"/><polygon class="cls-182" points="340.61 319.57 426.66 322.3 426.66 324.15 307.81 320.35 307.81 319.57 340.61 319.57"/><polygon class="cls-183" points="398.18 319.57 426.66 320.48 426.66 322.3 340.61 319.57 398.18 319.57"/><polygon class="cls-183" points="426.66 320.48 398.18 319.57 426.66 319.57 426.66 320.48"/></g><path class="cls-184" d="M184.7,612.44c13-8.95,30.67-148.26,42.77-175.92A374.6,374.6,0,0,1,268.35,367s22.17-20.36,41.92-20.36c0,0,42,56.18,56.18,56.18s61.11-35.35,55.71-62.32c0,0,31.46,3.89,43.74,29.95S500.47,496.29,506,501.69s5.45,71.87,5.45,71.87-3.59,47.32-12,55.75-24,0-24,0l-3,39.5s-25.93,19.79-103,16.81-109-1.82-128.22-21c0,0,17.85-165.48,34.57-182.12,0,0-30.79,92.48-33.82,103.85-2.68,10.33-9.15,26.09-20.91,37.65Z"/><path class="cls-156" d="M308.11,277.48s1.21,35.31,42,47.32c0,0,21.61,13,37.34,2.42,0,0,49.14-.35,56.61-43.22,0,0,20.1-2.38,20.1-34.57,0,0-10.8-15-27.27,10.5,0,0-1.51,7.48-4.32,7.48h-5.75s6.35-27,2.77-36.82-20.7-36.56-19.19-47.54c0,0-17.29,3.89-28.74,0a51.6,51.6,0,0,1-33,4.75S329.55,208.2,319,222c0,0-2.07,36.82,0,38.89l-8.86,4.32s-1.6-22.78-17.5-24.89-11.37,12.27-11.37,12.27S287.15,282.58,308.11,277.48Z"/><path class="cls-154" d="M337.15,231.5A24.07,24.07,0,0,1,363.08,228a15,15,0,0,0-14.56-8.21A14.22,14.22,0,0,0,337.15,231.5Z"/><path class="cls-154" d="M419.61,231.5A24,24,0,0,0,393.68,228a15,15,0,0,1,14.52-8.21A14.22,14.22,0,0,1,419.61,231.5Z"/><path class="cls-185" d="M348.65,262.66A26.19,26.19,0,0,1,331,253.58l3.89-3.41c.43.48,10.72,11.8,19.45,5.4l3,4.32A14.35,14.35,0,0,1,348.65,262.66Z"/><path class="cls-185" d="M405.35,262.4a20.57,20.57,0,0,1-10.8-3.15l2.94-4.32c.43.3,10.63,7.09,20.31-4.62l4,3.28A20.92,20.92,0,0,1,405.35,262.4Z"/><path class="cls-185" d="M374,275.36a13,13,0,0,1-11.88-4.67,8.17,8.17,0,0,1-1-2.59l-2,1.77-3.37-3.93,18.89-16.25-7.48,13c-.48.86-1.6,3.63-.56,5.23s4.32,2.42,9.42,2.16c7.52-.43,9.25-2.42,9.64-3.24.78-1.6-.78-3.89-.82-3.89l-10.93-15.34,21.61,17.29-3.24,4-1.56-1.25a4.32,4.32,0,0,1-.43,1.21c-1.73,3.72-6.35,5.75-14,6.18Z"/><rect class="cls-185" x="338.2" y="279.58" width="8.86" height="2.59" transform="translate(-93.55 358.54) rotate(-49.44)"/><rect class="cls-185" x="402.54" y="280.06" width="2.59" height="7.87" transform="translate(-87.69 237.74) rotate(-29.74)"/><ellipse class="cls-186" cx="353.75" cy="243.94" rx="3.63" ry="4.88"/><ellipse class="cls-186" cx="399.82" cy="243.94" rx="3.8" ry="4.88"/><path class="cls-187" d="M314.77,584.19c1.17-3.67,6.83-4.93,10-4.32,4.88.82,5.19,5,5.53,8.9s2.55,4.8,6.09,5.79a45.81,45.81,0,0,1,8.3,2.46c4.75,2.51,3,7.22-1.43,9.33a4,4,0,0,1-4.32.52c-2.2,1-3.63.69-4.32-1.12a16.85,16.85,0,0,1-2.2-2.94c-2.64-3.76-4.84-6.66-1.12-10.76.61-.65.22-1.21-.65-1.17-2.38,0-4.32.65-6.4-1.34s-1.3-3.63-2.42-5.19a4.32,4.32,0,0,0-5.45-1.25,17.89,17.89,0,0,0-8.17,7.3c-1.86,3.54,0,6.31,1.94,9.38a9.08,9.08,0,0,0,4.32,3.76c3.2,1.25,3.37-.65,4.67,4.32.56,2,0,3.2,1.69,4.93a10.33,10.33,0,0,0,5.1,2.94c7,1.9,9.85-3.8,12.27-9.25.39-1-2.77-.65-3.2.39.86-1.94-2.42,5.19-1.38,3.33a5.79,5.79,0,0,1-9.38,1.86c-2.77-2.68-.48-5.49-1.9-8.12-.82-1.56-1.12-1-2.51-1.56-2.81-1.12-4-.43-6.22-3.2a15.12,15.12,0,0,1-2.81-4.84,6.05,6.05,0,0,1,1.17-5.1c.48-.65,4.06-4.32,5-4.32,2,0,2.85,4,4,5.36,2.59,3.28,4.88,2.51,8.64,2.42-.26-.39-.48-.78-.69-1.17-3.33,3.67-3.8,5-1.08,9.72,1.94,3.37,4.32,8.38,8.64,8.64,5.1.39,18.32-5.57,13.83-12.4-2.25-3.41-9-3.76-12.58-4.84-4.58-1.43-3.72-4.32-4.32-8a7.09,7.09,0,0,0-2.68-4.8c-5.19-4.06-16.9-1.94-19.06,4.8-.35,1.08,2.85.69,3.2-.39Z"/><path class="cls-187" d="M315.89,585.31c-3.41-1.51-3.72-7.35-3.54-10.37a16.59,16.59,0,0,1,6.4-11.93c3.33-2.29,9.85-4.67,11.75.52a24.07,24.07,0,0,1,.43,4.67c0,1.25,0,1.94,1.12,2.59s3.85,0,5.19-.3a25.93,25.93,0,0,1,13.48,1.08,7.26,7.26,0,0,1,5.4,8.64c-.43,2.33-2.64,5-2.07,7.48.73,3.24,4.32,3.11,7.39,3.41,4.71.48,8.34,1.34,9.16,6.53a11.5,11.5,0,0,1-7.26,12.49c-2.33,1.17-5.23,1.38-7.48,2.64-4.11,2.25-7.09,6.05-12.53,3.54-4.11-1.9-4.32-7.87-8.21-9.29-1-.35-3.85,1.08-2.55,1.56,2.12.78,2.77,4.32,4.32,6a12.19,12.19,0,0,0,7.26,4.32,16.12,16.12,0,0,0,12.36-3.93c4.58-3.5,10.89-3.41,15-8.25,3.33-4,4.32-12.27-.56-15.64a13,13,0,0,0-6.35-1.64c-2,0-6.27,0-7.13-2.51-.52-1.56,1.17-4.32,1.6-5.57a8.64,8.64,0,0,0-6-11.58,29.39,29.39,0,0,0-10-1.64,34.57,34.57,0,0,0-5.14.61c-2.81.43-3,.69-3.5-2.16-.86-4.88-1.64-8.08-7.26-8.12a18.84,18.84,0,0,0-15.56,9.72c-2.85,4.67-4.32,15.9,2,18.67,1,.39,3.85-1,2.55-1.56Z"/><path class="cls-187" d="M316.8,561.8a78.15,78.15,0,0,0-7.69,4.32c-3.72,1.73-7.78,2.33-11.54,4a19.66,19.66,0,0,0-11.45,11.58,11,11,0,0,0,5.14,13.4c3.63,2.51,7.26,5.14,4.32,9.85a51.21,51.21,0,0,1-7,6.61A13,13,0,0,0,285,624.86a13.27,13.27,0,0,0,13,6.27c4.58-.43,10.89-6.74,14.65-4.32,1.9,1.12,3,3.41,5.06,4.32a17.89,17.89,0,0,0,8.12,2.25,13,13,0,0,0,12.58-7,17.68,17.68,0,0,0,1.56-8.64c0-2.46.78-4.32-1.9-4.88-1-.22-3.72,1.34-1.94,1.73s.35,9.38-.26,10.8a9.85,9.85,0,0,1-11.37,6.05c-4.32-1-5.92-3.67-8.95-6.31-1-.91-.52-1-2.16-1.3-3.41-.48-7.39,2.64-10.33,3.93-12.49,5.53-20.53-7.17-11.63-16,2.81-2.77,7-4.88,8.17-8.9,1.73-5.83-3.76-7.26-7.26-10.29-8-6.87-1.51-17.63,6.48-21,3.28-1.38,6.83-1.82,10.07-3.28s5.45-3.63,8.34-4.58c1.86-.65,1.47-2.25-.43-1.6Z"/><path class="cls-187" d="M310.36,564.91c-2.42-2.64,1.6-10.63,2.94-12.62a28.13,28.13,0,0,1,13-10.24c4.62-1.77,13.44-2.64,16.94,2,2,2.68,1.17,4,4.54,5.19s7.91.65,11.75,2.33a15.26,15.26,0,0,1,8.64,10.54c1,3.59,0,7.78,1.9,11.15s5.23,4.32,7.09,7c5.23,8,1.43,20.18-3.93,27.05-2.2,2.77-4,4.06-4.32,7.74a24,24,0,0,1-3.41,12.66A23.38,23.38,0,0,1,352,637a15,15,0,0,1-8.64,0,12,12,0,0,0-4.11-.43c-2,0-4.84,1.08-6.7,1a13.22,13.22,0,0,1-6.18-2.64c-2.81-1.77-4.32-5.53-7.48-6.74-1-.39-3.85,1-2.51,1.51,2.68,1.12,4.32,4.75,6.83,6.4a15,15,0,0,0,8.9,3.24c8-.26,14.87,1.47,22.52-1.21a25.93,25.93,0,0,0,15.73-13.48,17.29,17.29,0,0,0,1.82-5.7,29.94,29.94,0,0,1,0-5.92c1.3-3.93,5.62-7.09,7.52-10.85,3-6.14,4.62-16.85.61-23-2.51-3.85-6.53-4.32-7.78-9.16a58.38,58.38,0,0,0-2.64-12.36c-3.2-6.61-9.51-8.21-16.08-9.46a13.83,13.83,0,0,1-6.48-2.59c-.35-.35,0-1-.56-1.43a14.35,14.35,0,0,0-3.11-3.15,16.64,16.64,0,0,0-9.33-1.86,29.3,29.3,0,0,0-19.88,8.64,23.6,23.6,0,0,0-6.79,10.33c-.65,2.29-2.07,6.4,0,8.38.73.82,3.8-.35,2.94-1.25Z"/><path class="cls-187" d="M324.06,540.76a65.43,65.43,0,0,0-25.58,7.91,25.93,25.93,0,0,0-12.71,15.13c-1.86,4.84-2.07,11.75-5.88,15.51s-9.33,5.36-13.53,8.64A27.14,27.14,0,0,0,255,606.83c-1,7.74,0,14.52,6.91,19.14a63.83,63.83,0,0,0,10.72,4.67c3.24,1.43,4.32,2.51,4.32,6.05a14,14,0,0,0,.52,5.53c3,6.53,11.32,7.56,17.29,7.17a34.57,34.57,0,0,0,10.2-1.94c2.12-.82,4-2,6.05-3a27.14,27.14,0,0,1,4.75-2.2,17.54,17.54,0,0,0,1.82,3.07,11.54,11.54,0,0,0,3.67,1.94,34.57,34.57,0,0,0,13.44,1,17,17,0,0,0,7.43-2.29,10.8,10.8,0,0,0,3.2-3.37c.69-1.17.82-3.24,1.64-4.32s-2.33-.86-3,0-.52,1.6-.86,2.42c-1.94,4.62-4.75,5.49-10,5.7-5.92.3-11.67,0-14.65-5.62a1.12,1.12,0,0,0-1-.48,9.77,9.77,0,0,0-4.84,1.6,54.84,54.84,0,0,1-13.4,5.32,19.79,19.79,0,0,1-15.43-2.29c-4.32-3.33-3.33-5.92-3.85-10.85s-6.09-5.32-10.54-7A16.72,16.72,0,0,1,258,608.13,26.45,26.45,0,0,1,270,587.43c5.27-3.5,12.27-5.53,15.13-11.67s3.24-14,7.78-20.23a25.93,25.93,0,0,1,11.88-7.91,50.61,50.61,0,0,1,18-5.19c1.17,0,3.37-1.9,1.25-1.82Z"/><path class="cls-187" d="M274.49,583.76a9.38,9.38,0,0,1-3.54-5.06,9.64,9.64,0,0,1,3.33-10.59c3.15-3.33,1.21-8.64,1.82-13,1.08-7.69,6.7-7.91,12.49-10.46,2.51-1.08,4.32-2.94,6.87-4,5.92-2.46,10.59,0,15.39,3.54.91.65,3.85-.61,2.94-1.25-6-4.32-11.8-7-19.1-4.32-3.33,1.21-5.66,3.93-9,4.93a25.93,25.93,0,0,0-8.64,4,11.75,11.75,0,0,0-3.93,7.26c-1,5.4.52,9.46-3.15,14.13a10.93,10.93,0,0,0,1.19,15.42l.5.4c.86.69,3.8-.52,2.94-1.25Z"/><path class="cls-187" d="M305.91,539a20.27,20.27,0,0,1,16.6-3.76c3.24.35,6.31-.39,9.25,1.69,1.43,1,2.85,2.64,4.32,3.72s3.85-.61,3-1.25a32.84,32.84,0,0,0-6.91-5.4,19,19,0,0,0-5.19-.43c-2.51,0-5-.65-7.52-.82a23.55,23.55,0,0,0-16,5.75c-1.38,1.21,1.77,1.21,2.55.52Z"/><path class="cls-187" d="M379.51,590.37c3.37,6,2.33,11.93,1.43,18.41-.52,3.85.86,12.75-5.19,13.61-1.51,0-2.64,2-.43,1.73a10.37,10.37,0,0,0,8.64-10.2c.35-8.17,2.9-16.81-1.38-24.42-.61-1.08-3.67,0-3.2.86Z"/><path class="cls-188" d="M374.37,301.2c-8.17,0-14.22-8.5-20.18-11.49l3-2.53c6.62,1.17,10.17,9.6,17.21,9.92s10.46-7.47,17.19-8.66l2.63,2.6C388.39,293.73,382.46,301.22,374.37,301.2Z"/></g><path class="cls-189" d="M215.17,197.21l90.54-50.28s.62-1.69,1.7-4.62c-11.21-17.72-50.94-80-54.86-85.46-4.7,2.54-95,49.13-95,49.13L37.93,120.59,37.44,125,96.09,229.72l101.5-29"/><path class="cls-190" d="M159.18,103.58l-121.25,17L97,224.95l102.2-26.65s1.6,11.46,8.69,8.82c8.84-3.29,8-13.2,8.32-13.18l91.18-51.62s-48.61-81.4-53.23-87.87C249.49,57,159.18,103.58,159.18,103.58Z"/><path class="cls-189" d="M217.21,193.49a22.43,22.43,0,0,1-2.67,1.56c-.48,2.9-1.54,7.36-4.27,9.14-4.56,3-8-2.77-9.34-5.94a1.25,1.25,0,0,0-.38-.5l-.3.12a11,11,0,0,1-2,.52,1.07,1.07,0,0,0,.09.5c1.49,3.6,3.7,9.54,9,8.58,5.49-1,8-6.51,8.76-10.94C216.84,196.07,217.76,194,217.21,193.49Z"/><path class="cls-191" d="M197.51,180.23l-.4,15s-29.5,4.24-50.31,8.72c-19.1,4.11-45.79,12.91-45.79,12.91l-52-96.1,111.55-17.52Z"/><path class="cls-192" d="M145.75,102.27s-63,3-94.84,18.6c9.12,18.29,50.35,90.79,50.35,90.79s68.42-20.88,96.06-19.13c0-1.5,0-4.18,0-4.86C181.44,161,145.75,102.27,145.75,102.27Z"/><path class="cls-193" d="M146.53,102.27s-62,2.93-93.42,18c9,17.74,49.6,88,49.6,88s67.4-20.24,94.62-18.55c0-1.45.16-2.31.19-3C181.86,161,146.53,102.27,146.53,102.27Z"/><path class="cls-194" d="M59.74,115.44l-4.81,1.83,49.27,88.81s68.65-21.26,93.3-19.33v-4.41l-41.7-76.7Z"/><path class="cls-193" d="M148.14,97.8s-60.09,2.93-90.47,18c8.7,17.74,48,88,48,88S171,183.61,197.33,185.3c0-1.45.15-2.31.18-3C182.35,156.48,148.14,97.8,148.14,97.8Z"/><path class="cls-194" d="M63,108.76l-5.37,2.06,48.51,88.55s66.94-19.47,91.33-17.54v-1.61L158.08,99Z"/><path class="cls-195" d="M154,90.65S97.67,87.87,59.8,104.89c8.22,17.91,47.48,91.49,47.48,91.49s52.77-17.3,90.23-16.16C186,161.53,154,90.65,154,90.65Z"/><path class="cls-193" d="M196.07,177.25s-35.87-2.85-52.34,1.23a181,181,0,0,0-31.35,11.33L61.29,88.91H66Z"/><path class="cls-195" d="M150.21,82.77S127.74,64.86,101,70.83s-39,13.7-39,13.7l46.71,92.72s14.3-14.19,43.2-13.7c20.72.35,43.27,13.7,43.27,13.7Z"/><polygon class="cls-191" points="202.55 180.32 211.84 188.46 295.79 139.47 246.48 52.63 161.84 103.87 202.55 180.32"/><path class="cls-193" d="M210.44,186.92s69.2-43.64,81.13-46.81c-9.31-18.19-50.19-89.84-50.19-89.84L166.82,91.39l39.82,92.37Z"/><path class="cls-194" d="M209.26,186s67.76-44.08,79.69-47.25C279.64,120.56,239,49.46,239,49.46L166.31,91l40.32,92.71Z"/><path class="cls-193" d="M207.56,184.55s66.33-43.47,78.26-46.64c-9.31-18.19-48.5-89.21-48.5-89.21L164.19,89l40.28,93Z"/><path class="cls-194" d="M205.75,183.06s66.26-45.28,78-46.12c-9.31-18.19-50.25-89.72-50.25-89.72L161.84,86.73l40.7,93.59Z"/><path class="cls-195" d="M202.55,180.32s66.69-43.94,78.45-44.78c-9.31-18.19-50.25-90.86-50.25-90.86L159.08,84.2Z"/><path class="cls-193" d="M200.77,176.38s20.92-14.77,44.45-28.29,26.87-14,26.87-14L221.51,41l-6.32,2.46Z"/><path class="cls-195" d="M157.59,81s24.59-42.32,59.36-42.85c13.09,23.71,47.94,86.31,47.94,86.31S214.18,141,200.77,176.38C185.1,142.84,157.59,81,157.59,81Z"/><polygon class="cls-191" points="150.3 82.77 157.59 81.01 204.48 180.41 197.64 182.29 150.3 82.77"/><path class="cls-191" d="M111.46,180.32a32.33,32.33,0,0,1,8.81-6.26,59.32,59.32,0,0,1,10.13-3.94A80.3,80.3,0,0,1,141,167.75a81.37,81.37,0,0,1,10.85-1,71.94,71.94,0,0,1,10.9.58,91.57,91.57,0,0,1,10.69,2,109,109,0,0,1,20.35,7.26c-6.91-2-13.81-3.89-20.8-5.22a106.05,106.05,0,0,0-21.09-2.12,102.06,102.06,0,0,0-21,2.69,70.55,70.55,0,0,0-10.14,3.19A37.55,37.55,0,0,0,111.46,180.32Z"/><path class="cls-191" d="M115.27,182.29a55.45,55.45,0,0,1,15.48-8.44,70.2,70.2,0,0,1,17.34-3.8,84.74,84.74,0,0,1,17.71.3A88.41,88.41,0,0,1,183,174.14c-5.81-.82-11.59-1.52-17.38-1.85a116.34,116.34,0,0,0-17.31.25,89.15,89.15,0,0,0-17,3.16A84.54,84.54,0,0,0,115.27,182.29Z"/><path class="cls-191" d="M201.08,176.27a136,136,0,0,1,10.49-13.73,118.37,118.37,0,0,1,12.26-12.26,85.35,85.35,0,0,1,14.26-10,58.58,58.58,0,0,1,16.19-6.15A95.11,95.11,0,0,0,239.08,142a119.39,119.39,0,0,0-13.62,10.18c-4.33,3.67-8.43,7.63-12.46,11.68S205.08,172.12,201.08,176.27Z"/><path class="cls-191" d="M228.81,152.82a21.85,21.85,0,0,1,3.66-4,31.42,31.42,0,0,1,9.24-5.59,21.68,21.68,0,0,1,5.28-1.36A52.75,52.75,0,0,1,242.6,145c-1.48,1-3,1.88-4.46,2.78s-3,1.79-4.54,2.65S230.51,152.09,228.81,152.82Z"/><polygon class="cls-196" points="116.67 113.92 96.75 120.28 83.78 90.05 103.7 83.68 116.67 113.92"/><polygon class="cls-196" points="149.27 110.85 129.1 110.99 116.14 80.76 136.3 80.62 149.27 110.85"/><polygon class="cls-196" points="133.11 154.1 113.19 160.47 100.23 130.24 120.15 123.87 133.11 154.1"/><polygon class="cls-196" points="166.83 150.78 146.66 150.93 133.69 120.69 153.86 120.55 166.83 150.78"/><polygon class="cls-196" points="208.49 86.25 226.73 76.02 213.46 45.92 195.22 56.14 208.49 86.25"/><polygon class="cls-196" points="181.71 109.98 195.57 95.33 182.31 65.22 168.45 79.87 181.71 109.98"/><polygon class="cls-196" points="225.32 125.94 243.56 115.72 230.3 85.61 212.05 95.84 225.32 125.94"/><polygon class="cls-196" points="198.55 149.67 212.41 135.02 199.14 104.92 185.28 119.57 198.55 149.67"/></g></g></svg>