<svg xmlns="http://www.w3.org/2000/svg" xmlns:xlink="http://www.w3.org/1999/xlink" viewBox="0 0 1124.64 651.26"><defs><style>.cls-1{fill:#e6f4ff;}.cls-2{fill:none;}.cls-3{fill:#8bb5d8;}.cls-4{fill:#329e89;}.cls-5{clip-path:url(#clip-path);}.cls-6{fill:#c5e2ff;}.cls-7{clip-path:url(#clip-path-2);}.cls-8{fill:#fffdfd;}.cls-9{fill:#fff;}.cls-10{fill:#3a1e1c;}.cls-11{clip-path:url(#clip-path-3);}.cls-12{fill:#d88268;}.cls-13{fill:#d98369;}.cls-14{fill:#da8469;}.cls-15{fill:#db856a;}.cls-16{fill:#dc866b;}.cls-17{fill:#dd876b;}.cls-18{fill:#de886c;}.cls-19{fill:#df896d;}.cls-20{fill:#e08a6d;}.cls-21{fill:#e18b6e;}.cls-22{fill:#e28c6f;}.cls-23{fill:#e48d70;}.cls-24{fill:#e58d70;}.cls-25{fill:#e68e71;}.cls-26{fill:#e78f72;}.cls-27{fill:#e89072;}.cls-28{fill:#e99173;}.cls-29{fill:#ea9274;}.cls-30{fill:#eb9374;}.cls-31{fill:#ec9475;}.cls-32{fill:#ed9576;}.cls-33{fill:#ee9676;}.cls-34{fill:#ef9777;}.cls-35{fill:#b5574d;}.cls-36{fill:#b3514e;}.cls-37{fill:#312235;}.cls-38{fill:#fc999c;}.cls-39{fill:#f9aaaa;}.cls-40{fill:#196b5d;}.cls-41{fill:#208975;}.cls-42{fill:#8acec3;}.cls-43{fill:#5b1f3c;}.cls-44{fill:#3d201f;}.cls-45{fill:#175b4e;}</style><clipPath id="clip-path"><path class="cls-1" d="M428.87,402.79a192.51,192.51,0,0,0-5.05-43.86c-32.69-73-109.23-124.15-198.45-124.15C106.43,234.78,10,325.78,10,438a193.16,193.16,0,0,0,5,43.87C47.74,554.84,124.28,606,213.5,606,332.44,606,428.87,515,428.87,402.79Z"/></clipPath><clipPath id="clip-path-2"><path class="cls-2" d="M541.11,351.64c-10.3-18-97.34-31.5-97.34-31.5S301.45,131.38,232.44,137.81s-80.25,56.58-80.25,56.58l-32.63,66.55C54.29,295.86,10.25,362,10.25,437.86c0,112.25,96.43,203.24,215.37,203.24,117.57,0,213.12-88.9,215.32-199.35C473.29,419.44,549.06,365.51,541.11,351.64Z"/></clipPath><clipPath id="clip-path-3"><path class="cls-2" d="M227.93,321.46l-2.36,9.79s-19.92,12.89-37.91,11.87c-5.34-.31,67.76,42.79,71.74,42.94s34.38-50.15,34.38-50.15-20.41-3.74-27.17-4-14.47-18.28-14.47-18.28Z"/></clipPath></defs><title>5-fala1</title><g id="Camada_5" data-name="Camada 5"><ellipse class="cls-3" cx="225.37" cy="438.02" rx="215.37" ry="203.24"/><path class="cls-4" d="M225.37,234.78c119,0,215.37,91,215.37,203.24S344.32,641.26,225.37,641.26,10,550.27,10,438s96.42-203.24,215.37-203.24m0-10a235.1,235.1,0,0,0-87.54,16.69A225.72,225.72,0,0,0,66.22,287,212.37,212.37,0,0,0,17.8,354.82a203.34,203.34,0,0,0,0,166.4A212.3,212.3,0,0,0,66.22,589a225.89,225.89,0,0,0,71.61,45.57,238.05,238.05,0,0,0,175.08,0A225.94,225.94,0,0,0,384.53,589a212.12,212.12,0,0,0,48.41-67.79,203.34,203.34,0,0,0,0-166.4A212.19,212.19,0,0,0,384.53,287a225.76,225.76,0,0,0-71.62-45.57,235.1,235.1,0,0,0-87.54-16.69Z"/><path class="cls-1" d="M428.87,402.79a192.51,192.51,0,0,0-5.05-43.86c-32.69-73-109.23-124.15-198.45-124.15C106.43,234.78,10,325.78,10,438a193.16,193.16,0,0,0,5,43.87C47.74,554.84,124.28,606,213.5,606,332.44,606,428.87,515,428.87,402.79Z"/><g class="cls-5"><circle class="cls-1" cx="306.79" cy="408.71" r="104.58"/><circle class="cls-1" cx="306.79" cy="408.71" r="100.64"/><circle class="cls-1" cx="306.79" cy="408.71" r="98.66"/><circle class="cls-1" cx="306.79" cy="408.71" r="96.69"/><circle class="cls-1" cx="306.79" cy="408.71" r="94.72"/><circle class="cls-1" cx="306.79" cy="408.71" r="92.74"/><circle class="cls-1" cx="306.79" cy="408.71" r="90.77"/><circle class="cls-1" cx="306.79" cy="408.71" r="88.8"/><circle class="cls-1" cx="306.79" cy="408.71" r="86.82"/><circle class="cls-1" cx="306.79" cy="408.71" r="84.85"/><circle class="cls-1" cx="306.79" cy="408.71" r="82.88"/><circle class="cls-1" cx="306.79" cy="408.71" r="80.9"/><circle class="cls-1" cx="306.79" cy="408.71" r="78.93"/><circle class="cls-1" cx="306.79" cy="408.71" r="76.96"/><circle class="cls-1" cx="306.79" cy="408.71" r="74.98"/><circle class="cls-1" cx="306.79" cy="408.71" r="73.01"/><circle class="cls-1" cx="306.79" cy="408.71" r="71.04"/><circle class="cls-1" cx="306.79" cy="408.71" r="69.06"/><circle class="cls-1" cx="306.79" cy="408.71" r="67.09"/><circle class="cls-1" cx="306.79" cy="408.71" r="65.12"/><circle class="cls-1" cx="306.79" cy="408.71" r="63.15"/><circle class="cls-1" cx="306.79" cy="408.71" r="61.17"/><circle class="cls-1" cx="306.79" cy="408.71" r="59.2"/><circle class="cls-1" cx="306.79" cy="408.71" r="57.23"/><circle class="cls-1" cx="306.79" cy="408.71" r="55.25"/><circle class="cls-1" cx="306.79" cy="408.71" r="53.28"/><circle class="cls-1" cx="306.79" cy="408.71" r="51.31"/><circle class="cls-1" cx="306.79" cy="408.71" r="49.33"/><circle class="cls-1" cx="306.79" cy="408.71" r="47.36"/><circle class="cls-1" cx="306.79" cy="408.71" r="45.39"/><circle class="cls-1" cx="306.79" cy="408.71" r="43.41"/><circle class="cls-1" cx="306.79" cy="408.71" r="41.44"/><circle class="cls-1" cx="306.79" cy="408.71" r="39.47"/><circle class="cls-1" cx="306.79" cy="408.71" r="37.49"/><circle class="cls-1" cx="306.79" cy="408.71" r="35.52"/><circle class="cls-1" cx="306.79" cy="408.71" r="33.55"/><circle class="cls-1" cx="306.79" cy="408.71" r="31.57"/><circle class="cls-1" cx="306.79" cy="408.71" r="29.6"/><circle class="cls-1" cx="306.79" cy="408.71" r="27.63"/><circle class="cls-1" cx="306.79" cy="408.71" r="25.65"/><circle class="cls-1" cx="306.79" cy="408.71" r="23.68"/><circle class="cls-1" cx="306.79" cy="408.71" r="21.71"/><circle class="cls-1" cx="306.79" cy="408.71" r="19.73"/><circle class="cls-1" cx="306.79" cy="408.71" r="17.76"/><circle class="cls-1" cx="306.79" cy="408.71" r="15.79"/><circle class="cls-1" cx="306.79" cy="408.71" r="13.81"/><circle class="cls-1" cx="306.79" cy="408.71" r="11.84"/><circle class="cls-1" cx="306.79" cy="408.71" r="9.87"/><circle class="cls-1" cx="306.79" cy="408.71" r="7.89"/><circle class="cls-1" cx="306.79" cy="408.71" r="5.92"/><circle class="cls-1" cx="306.79" cy="408.71" r="3.95"/><circle class="cls-1" cx="306.79" cy="408.71" r="1.97"/></g><path class="cls-3" d="M787.8,44.22c-174.89,0-318.64,118.13-335.23,269.27L353,353.14s-6.51,2.41-5.85,11.74a12.7,12.7,0,0,0,7.43,10.89L458.82,407C492,541,626.68,641.26,787.8,641.26c186,0,336.84-133.65,336.84-298.52S973.83,44.22,787.8,44.22Z"/><path class="cls-6" d="M787.75,0C612.85,0,469.11,118.13,452.52,269.27L353,308.92s-6.51,2.41-5.86,11.74a12.7,12.7,0,0,0,7.44,10.88l104.21,31.28C492,496.78,626.63,597,787.75,597c186,0,336.84-133.65,336.84-298.52S973.78,0,787.75,0Z"/><g class="cls-7"><path class="cls-8" d="M329.94,510.18s.78-10,4.41-10.57l24.22,31.55-9.37,5.44Z"/><path class="cls-9" d="M153.53,566.53s24.48-21.86,24.48-27-14.35-8.34-14.35-8.34l-20.41,29.5,9.58,7.33Z"/><path class="cls-10" d="M176.44,360.74s-46.9-131.84,7.44-198.9c0,0,58.11-39.81,101.53,7s13,178.54,13,178.54Z"/><g class="cls-11"><polygon class="cls-12" points="293.71 313.64 293.74 313.95 182.31 324.32 182.31 313.64 293.71 313.64"/><polygon class="cls-12" points="293.74 313.95 293.78 314.33 293.78 314.76 182.31 325.13 182.31 324.32 293.74 313.95"/><polygon class="cls-13" points="293.78 315.57 182.31 325.95 182.31 325.13 293.78 314.76 293.78 315.57"/><polygon class="cls-14" points="293.78 316.39 182.31 326.76 182.31 325.95 293.78 315.57 293.78 316.39"/><polygon class="cls-15" points="293.78 317.2 182.31 327.57 182.31 326.76 293.78 316.39 293.78 317.2"/><polygon class="cls-16" points="293.78 318.01 182.31 328.39 182.31 327.57 293.78 317.2 293.78 318.01"/><polygon class="cls-17" points="293.78 318.83 182.31 329.2 182.31 328.39 293.78 318.01 293.78 318.83"/><polygon class="cls-18" points="293.78 319.64 182.31 330.01 182.31 329.2 293.78 318.83 293.78 319.64"/><polygon class="cls-19" points="293.78 320.45 182.31 330.83 182.31 330.01 293.78 319.64 293.78 320.45"/><polygon class="cls-20" points="293.78 321.27 182.31 331.64 182.31 330.83 293.78 320.45 293.78 321.27"/><polygon class="cls-21" points="293.78 322.08 182.31 332.45 182.31 331.64 293.78 321.27 293.78 322.08"/><polygon class="cls-22" points="293.78 322.89 182.31 333.27 182.31 332.45 293.78 322.08 293.78 322.89"/><polygon class="cls-23" points="293.78 323.71 182.31 334.08 182.31 333.27 293.78 322.89 293.78 323.71"/><polygon class="cls-24" points="293.78 324.52 182.31 334.89 182.31 334.08 293.78 323.71 293.78 324.52"/><polygon class="cls-25" points="293.78 325.33 182.31 335.71 182.31 334.89 293.78 324.52 293.78 325.33"/><polygon class="cls-26" points="293.78 326.14 182.31 336.52 182.31 335.71 293.78 325.33 293.78 326.14"/><polygon class="cls-27" points="293.78 326.96 182.31 337.33 182.31 336.52 293.78 326.14 293.78 326.96"/><polygon class="cls-28" points="293.78 327.77 182.31 338.14 182.31 337.33 293.78 326.96 293.78 327.77"/><polygon class="cls-29" points="293.78 328.58 182.31 338.96 182.31 338.14 293.78 327.77 293.78 328.58"/><polygon class="cls-30" points="293.78 329.4 182.31 339.77 182.31 338.96 293.78 328.58 293.78 329.4"/><polygon class="cls-31" points="293.78 330.21 182.31 340.58 182.31 339.77 293.78 329.4 293.78 330.21"/><polygon class="cls-32" points="293.78 331.02 182.31 341.4 182.31 340.58 293.78 330.21 293.78 331.02"/><polygon class="cls-33" points="293.78 331.84 182.31 342.21 182.31 341.4 293.78 331.02 293.78 331.84"/><polygon class="cls-34" points="293.78 332.65 182.31 343.02 182.31 342.21 293.78 331.84 293.78 332.65"/><polygon class="cls-34" points="184.35 386.21 182.31 364.39 182.31 343.02 293.78 332.65 293.78 386.21 184.35 386.21"/></g><path class="cls-34" d="M182.6,222.54s-.88,110.78,64.76,101.68c35.49-4.92,47.51-40.41,40.88-70.91a191.62,191.62,0,0,1-3.79-46.77s-4.08-29.37-38.7-20.3S196.11,192,196.11,192,180.54,195.13,182.6,222.54Z"/><path class="cls-10" d="M177.07,228.73s25.09-2.78,36.43-7.67l.58-15.4s2.55,9.93,4.85,12.41,22.88-.74,32-3.59,4.81-14.7,4.81-14.7l4.34,11.86s28.57,3.44,28.73-.93S285,186,276.62,182s-73.88-4.43-83.08,4.1S177.53,216.52,177.07,228.73Z"/><path class="cls-35" d="M250.55,278.83a15.34,15.34,0,0,1-5.17-.8l.35-.94c5.16,1.91,13.88,0,15.56-3.33,1.13-2.28-1.44-4.53-3.78-6-6.89-4.38-5.32-8.93-5.25-9.13l.94.35c0,.16-1.33,4,4.84,7.94,4.88,3.1,4.95,5.69,4.14,7.31C260.72,277.15,255.37,278.83,250.55,278.83Z"/><path class="cls-36" d="M262,289.89c-18.37,4.75-31.32.71-30.6,2,0,0-.78,13.73,15.42,13.63C263.55,305.45,262,289.89,262,289.89Z"/><path class="cls-9" d="M219.38,333.59s22.52,13.65,36.94,11.8c6.84-.87,18.95-14,18.95-14l13,129.74-49.8,2.24Z"/><path class="cls-37" d="M172.66,557.55S155.05,630.13,157,650s4.68,52.17,34,146c0,0,78.26,32.38,150.2-.81,0,0,6.29-1.86,10.91-43.81s12.42-142.59-8.72-187.47S172.66,557.55,172.66,557.55Z"/><path class="cls-10" d="M270.81,230.55s-4.74-6.21-9.75-3.11a.89.89,0,0,0-.58,1.12c.25.84,1.91-1.63,9.83,2.73C270.31,231.29,270.81,231.58,270.81,230.55Z"/><path class="cls-10" d="M213.93,234s4.75-6.2,9.75-3.1a.89.89,0,0,1,.58,1.12c-.25.83-1.91-1.64-9.83,2.73C214.43,234.73,213.93,235,213.93,234Z"/><path class="cls-9" d="M259.62,290.44s-.65,3.21-2,4.12-15.59,1.66-24.11,1c-2.87-.24-2.32-2.92-2.18-3.89C231.35,291.63,246.09,293.49,259.62,290.44Z"/><path class="cls-38" d="M251.34,305.09s-1.86-9.5-19.13-7C232.21,298.13,235.94,307.82,251.34,305.09Z"/><ellipse class="cls-39" cx="281.01" cy="254.61" rx="3.62" ry="6.23" transform="translate(3.96 513.52) rotate(-85.24)"/><ellipse class="cls-39" cx="214.79" cy="263.85" rx="6.23" ry="3.62" transform="translate(-52.96 53.94) rotate(-12.76)"/><path class="cls-40" d="M334.61,435.84,357,461.35s-6.12,9.16-12,18.65c-6.27,10.12-15.54,20.35-13.57,20.57,4,.44,26.78,31.77,26.78,31.77l28-38s21.11-33.38,20.75-37-18.37-28.47-24.44-34.21c-3.74-3.54-9.95-8.73-15.17-16.12-29.22-41.32-56.53-70.82-58.39-72.35s-11-6.17-14.23-4.64-19.19,1.4-19.19,1.4l2.64,115.37L219.63,333.58s-12.56,4.34-26.08,2.61-36.24,3.62-36.24,3.62-10.24,27.71-17.55,29.81-11,20.26-11,20.26c-2.17,2.65-10.18,14.08-19.61,27.71h0s-37.48,45.94-43,49.92S63.56,481,63.56,481l78.84,83.79,27.83-35.52c-7.13-.49-43.13-49.77-43.13-49.77,2.53-4.53,2.3-8.25,1.56-10.71,17.3-18.49,42.63-47.19,42.63-47.19.41,4.07,6.47,16.8,16.93,32.52s9.69,42.14,9.69,42.14c-14.94,21.68-25,61.34-25,61.34s1,7.93,26.28,20.55c11,5.5,46.51,16.31,46.51,16.31l39.46-43.29,50.78,35.64s9.12-9.12,8.21-18.27S325.71,505,325.71,505s-1.89-19,.27-24.66S334.61,435.84,334.61,435.84Z"/><path class="cls-12" d="M153.53,566.53s12.2,10.71,14.67,8.24l12.43-35.2S165.06,550.81,153.53,566.53Z"/><path class="cls-34" d="M170.88,567.7s5.9-5.86,14.86,2.8,9.68,9.26,9.68,9.26,7,2.88,7.52-4.62c0,0,8.8,1.29,6.83-8.4,0,0,6.13-4.42.7-12,0,0,5.51-1.05,2.24-11.46s-24-20.47-24-20.47-9.94-3.49-10.82,8.08c0,0-7.16.37-4.66,10.37,0,0-4.65,4.21-3.65,8.77s-.11,3.67-.11,3.67S162.79,561.13,170.88,567.7Z"/><path class="cls-35" d="M202.56,575.46c-.11-.13-11.87-13.67-24.48-19.79l.43-.9c12.8,6.21,24.69,19.9,24.81,20Z"/><path class="cls-35" d="M209.42,567.1c-.17-.16-17.14-16.09-29.48-22.74l.48-.88c12.45,6.71,29.52,22.73,29.69,22.9Z"/><path class="cls-35" d="M210.09,555c-.15-.18-15.21-17.91-27.55-21.76l.3-1c12.61,4,27.39,21.33,28,22.07Z"/><path class="cls-34" d="M347.86,556.51l-16.17,4.75s-6.95,2.88-7.52-4.62c0,0-8.8,1.29-6.82-8.4,0,0-6.14-4.42-.71-12,0,0-5.51-1.05-2.24-11.46s15.67-13.15,15.67-13.15,9.94-3.49,10.82,8.07c0,0,7.16.38,4.66,10.37,0,0,4.65,4.21,3.65,8.78s.11,3.66.11,3.66S356,549.94,347.86,556.51Z"/><path class="cls-35" d="M324.44,557.06l-.54-.84A275.12,275.12,0,0,1,349.1,542l.43.9A273.55,273.55,0,0,0,324.44,557.06Z"/><path class="cls-35" d="M317.64,548.64l-.59-.8c.16-.12,15.84-11.55,28.27-18.25l.47.88C333.42,537.14,317.8,548.53,317.64,548.64Z"/><path class="cls-35" d="M317.07,536.46l-.86-.51c.09-.16,9.39-15.38,24.63-16.79l.09,1C326.2,521.52,317.16,536.31,317.07,536.46Z"/><path class="cls-41" d="M219.38,333.59S195.23,345.24,182.15,365l44.38,12.67s-15.11,14.85-14.79,18.07,66.17,51,66.17,51,33.54-61.51,29.81-64.56-24.29-6.81-24.29-6.81,19.48-27.6,22.87-27.94-28-16.36-31-16.06,2.52,110.28,2.52,110.28l-.15,2.38Z"/><path class="cls-37" d="M277.91,446.79s9.26,81.81,7,104.33"/><circle class="cls-42" cx="291.65" cy="471.48" r="5.33"/><circle class="cls-42" cx="293.78" cy="509.48" r="5.33"/><path class="cls-43" d="M173.81,404.74l-1-.23a76.6,76.6,0,0,0-11.55-60.85l.82-.58A77.66,77.66,0,0,1,173.81,404.74Z"/><path class="cls-43" d="M329.09,406.93l-1-.09c1.1-12.29-3.36-24.57-7.3-35.4-4.66-12.82-10-27.36-20.07-37.89l.72-.69c10.27,10.68,15.59,25.32,20.29,38.23C325.7,382,330.21,394.42,329.09,406.93Z"/><path class="cls-43" d="M146.32,377a27.46,27.46,0,0,0-3.49-7l.82-.57a28.62,28.62,0,0,1,3.62,7.2Z"/><path class="cls-43" d="M136,392.63a35.57,35.57,0,0,0-6.08-.83l0-1a35.6,35.6,0,0,1,6.25.86Z"/><path class="cls-43" d="M334.44,441l-1-.12a74.23,74.23,0,0,0,.43-11.92l1-.05A75.14,75.14,0,0,1,334.44,441Z"/><path class="cls-43" d="M355.5,460.4l-.14-1a75,75,0,0,1,12.07-.73l0,1A74.13,74.13,0,0,0,355.5,460.4Z"/><path class="cls-43" d="M365,468.05a59.33,59.33,0,0,0-8.69-6.35l.52-.86a62,62,0,0,1,8.83,6.45Z"/><path class="cls-43" d="M200.41,496.57l-.52-.85a60,60,0,0,1,11.6-5.55l.33.94A58.91,58.91,0,0,0,200.41,496.57Z"/><path class="cls-43" d="M127.77,469.24c-2.33,0-10-.2-12.54-2.74l.7-.71c2.66,2.65,12.37,2.44,12.47,2.45l0,1Z"/><path class="cls-43" d="M118.83,482.89v-1c3.43,0,7.7-2.82,7.74-2.85l.56.83C126.94,480,122.56,482.89,118.83,482.89Z"/><path class="cls-44" d="M217.79,251.35a1,1,0,0,1-.54-.15,1,1,0,0,1-.31-1.38c.16-.25,3.9-6,8.77-6.35,2.3-.15,4.43,1,6.31,3.25a1,1,0,1,1-1.55,1.27c-1.45-1.77-3-2.62-4.64-2.52-3.2.19-6.28,4-7.2,5.42A1,1,0,0,1,217.79,251.35Z"/><path class="cls-44" d="M256.94,246.39a1,1,0,0,1-.4-.09A1,1,0,0,1,256,245c1.14-2.59,2.8-4.13,4.94-4.57,4.51-.92,9.35,3.57,9.56,3.76a1,1,0,0,1-1.37,1.46s-4.31-4-7.79-3.26c-1.47.31-2.65,1.45-3.5,3.42A1,1,0,0,1,256.94,246.39Z"/></g><path class="cls-45" d="M569.09,189.15c3.34,0,5.93.86,7.79,2.57a9.71,9.71,0,0,1,0,13.6c-1.86,1.71-4.45,2.56-7.79,2.56h-6.64v9.24l3.51.6v2.71H554.72v-2.71l3.5-.6V192.48l-3.5-.61v-2.72h14.37Zm-6.64,15.42h6.64a6.17,6.17,0,0,0,4.76-1.71,6.08,6.08,0,0,0,1.58-4.3,6.22,6.22,0,0,0-1.58-4.34,6.11,6.11,0,0,0-4.76-1.74h-6.64Z"/><path class="cls-45" d="M598,220.43c-.13-.63-.23-1.2-.3-1.7s-.12-1-.15-1.5a10.5,10.5,0,0,1-3.06,2.61,7.91,7.91,0,0,1-3.93,1,7.79,7.79,0,0,1-5.52-1.77,6.54,6.54,0,0,1-1.89-5,5.77,5.77,0,0,1,2.68-5.1,13,13,0,0,1,7.33-1.8h4.37v-2.7a4.21,4.21,0,0,0-1.29-3.24,5.12,5.12,0,0,0-3.59-1.19,8.79,8.79,0,0,0-2.8.41,5.15,5.15,0,0,0-2,1.12l-.45,2.45h-3.27v-4.52a12.66,12.66,0,0,1,3.85-2,15.39,15.39,0,0,1,4.9-.76,9.77,9.77,0,0,1,6.4,2,7.08,7.08,0,0,1,2.45,5.78v11.19c0,.3,0,.6,0,.88s0,.58,0,.86l1.72.24v2.71Zm-6.81-3.1a7.45,7.45,0,0,0,3.84-1,6.35,6.35,0,0,0,2.5-2.42v-3.83H593a6.44,6.44,0,0,0-4.11,1.2,3.63,3.63,0,0,0-1.51,2.93,2.9,2.9,0,0,0,.94,2.33A4.36,4.36,0,0,0,591.18,217.33Z"/><path class="cls-45" d="M607.05,199.91v-2.73h7.29l.41,3.37a8.21,8.21,0,0,1,2.43-2.79,5.71,5.71,0,0,1,3.32-1,7.23,7.23,0,0,1,1,.08,5.2,5.2,0,0,1,.81.16l-.56,3.93-2.4-.13a4.88,4.88,0,0,0-2.82.78,5.07,5.07,0,0,0-1.76,2.21v13.34l3.5.6v2.71H607.05v-2.71l3.51-.6V200.51Z"/><path class="cls-45" d="M640.42,220.43c-.13-.63-.23-1.2-.3-1.7s-.12-1-.15-1.5a10.5,10.5,0,0,1-3.06,2.61,8.79,8.79,0,0,1-9.45-.73,6.54,6.54,0,0,1-1.89-5,5.79,5.79,0,0,1,2.68-5.1,13,13,0,0,1,7.34-1.8H640v-2.7a4.21,4.21,0,0,0-1.29-3.24,5.12,5.12,0,0,0-3.59-1.19,8.83,8.83,0,0,0-2.8.41,5.15,5.15,0,0,0-2,1.12l-.45,2.45h-3.27v-4.52a12.77,12.77,0,0,1,3.85-2,15.44,15.44,0,0,1,4.9-.76,9.77,9.77,0,0,1,6.4,2,7.08,7.08,0,0,1,2.45,5.78v11.19c0,.3,0,.6,0,.88s0,.58,0,.86l1.72.24v2.71Zm-6.81-3.1a7.48,7.48,0,0,0,3.85-1A6.25,6.25,0,0,0,640,213.9v-3.83h-4.51a6.45,6.45,0,0,0-4.12,1.2,3.63,3.63,0,0,0-1.51,2.93,2.9,2.9,0,0,0,.94,2.33A4.36,4.36,0,0,0,633.61,217.33Z"/><path class="cls-45" d="M670.76,209.69a12.79,12.79,0,0,1-2.42,8.11,8,8,0,0,1-6.65,3.08,8.43,8.43,0,0,1-4-.87,7.47,7.47,0,0,1-2.8-2.57l-.38,3H650.9V190.24l-3.5-.6v-2.73h7.74v13a7.29,7.29,0,0,1,2.71-2.36,8.31,8.31,0,0,1,3.8-.82,7.73,7.73,0,0,1,6.7,3.44,15.49,15.49,0,0,1,2.41,9Zm-4.26-.46A13,13,0,0,0,665,202.7a4.83,4.83,0,0,0-4.47-2.51,5.61,5.61,0,0,0-3.3.94,6.81,6.81,0,0,0-2.13,2.54v10.27a6.62,6.62,0,0,0,2.16,2.56,5.67,5.67,0,0,0,3.32.94,5,5,0,0,0,4.43-2.13,9.76,9.76,0,0,0,1.45-5.62Z"/><path class="cls-45" d="M685.58,220.88a9.78,9.78,0,0,1-7.72-3.24,12.11,12.11,0,0,1-2.87-8.38v-.95a11.91,11.91,0,0,1,3-8.26,9.1,9.1,0,0,1,7-3.3c3.12,0,5.48.95,7.1,2.84a11.26,11.26,0,0,1,2.41,7.56v2.64H679.37l-.06.11a9.23,9.23,0,0,0,1.69,5.51,5.42,5.42,0,0,0,4.58,2.16,10.61,10.61,0,0,0,3.77-.61,8.56,8.56,0,0,0,2.8-1.69l1.66,2.75a10.14,10.14,0,0,1-3.3,2A13.21,13.21,0,0,1,685.58,220.88Zm-.64-20.8a4.6,4.6,0,0,0-3.64,1.8,8.48,8.48,0,0,0-1.84,4.5l0,.1h10.72v-.55a6.45,6.45,0,0,0-1.33-4.17A4.75,4.75,0,0,0,684.94,200.08Zm1.28-11.84h4.95l0,.13L685.43,194h-3.16Z"/><path class="cls-45" d="M698,217.72l3.5-.6V200.51l-3.5-.6v-2.73h7.28l.3,3.46a8.58,8.58,0,0,1,2.91-2.87,7.79,7.79,0,0,1,4-1,7.61,7.61,0,0,1,5.82,2.2c1.38,1.47,2.06,3.74,2.06,6.8v11.37l3.51.6v2.71H712.63v-2.71l3.5-.6V205.84c0-2.05-.4-3.5-1.21-4.36a4.87,4.87,0,0,0-3.71-1.29,5.93,5.93,0,0,0-3.23.88,6.45,6.45,0,0,0-2.25,2.41v13.64l3.5.6v2.71H698Z"/><path class="cls-45" d="M744.73,204.49h-3.18l-.69-2.8a6,6,0,0,0-1.94-1.17,7.65,7.65,0,0,0-2.66-.44,4.88,4.88,0,0,0-3.35,1,3.1,3.1,0,0,0-1.1,2.38,2.66,2.66,0,0,0,1,2.17,10,10,0,0,0,3.93,1.42,17,17,0,0,1,6.56,2.57,5.17,5.17,0,0,1,2.14,4.35,6,6,0,0,1-2.5,5,10.52,10.52,0,0,1-6.54,1.91,17.32,17.32,0,0,1-4.75-.61,12.55,12.55,0,0,1-3.76-1.78l0-5.3H731l.79,3.11a4.37,4.37,0,0,0,2,1,11.08,11.08,0,0,0,2.57.3,6,6,0,0,0,3.53-.91,2.83,2.83,0,0,0,1.28-2.4,2.88,2.88,0,0,0-1.06-2.3,10.1,10.1,0,0,0-4-1.57,16.81,16.81,0,0,1-6.38-2.51,5.07,5.07,0,0,1-2.15-4.3,6.07,6.07,0,0,1,2.42-4.83,9.53,9.53,0,0,1,6.28-2,15.21,15.21,0,0,1,4.75.69,9.87,9.87,0,0,1,3.5,1.91Z"/><path class="cls-45" d="M754.76,210.16h-4.23v-21h4.23Zm0,10.27h-4.23V216h4.23Z"/><path class="cls-45" d="M564.09,297.47l-2.86.46,7,20.32.71,2.47h.13l.71-2.47,7-20.35-2.81-.43v-2.72h9.86v2.72l-2.51.35L570.81,326h-3.63L556.7,297.82l-2.5-.35v-2.72h9.89Z"/><path class="cls-45" d="M585.72,314.19a12.82,12.82,0,0,1,2.79-8.5,10.33,10.33,0,0,1,15.2,0,12.76,12.76,0,0,1,2.81,8.51v.47a12.7,12.7,0,0,1-2.8,8.51,10.38,10.38,0,0,1-15.21,0,12.76,12.76,0,0,1-2.79-8.5Zm4.23.47a11,11,0,0,0,1.56,6.1,5.6,5.6,0,0,0,9.21,0,11,11,0,0,0,1.57-6.1v-.47a11,11,0,0,0-1.57-6.08,5.16,5.16,0,0,0-4.62-2.43,5.09,5.09,0,0,0-4.6,2.43,11.11,11.11,0,0,0-1.55,6.08Z"/><path class="cls-45" d="M620.83,323.17a5.69,5.69,0,0,0,3.7-1.3,4,4,0,0,0,1.6-3.19h3.81l0,.13a6.53,6.53,0,0,1-2.68,5.34,9.78,9.78,0,0,1-6.47,2.33c-3.38,0-6-1.1-7.75-3.31a12.83,12.83,0,0,1-2.67-8.32V314a12.73,12.73,0,0,1,2.68-8.28,9.39,9.39,0,0,1,7.74-3.32,13,13,0,0,1,5,.92,10.25,10.25,0,0,1,3.69,2.54l.19,5.16h-3.37l-.93-3.66a5.64,5.64,0,0,0-1.93-1.18,7.46,7.46,0,0,0-2.66-.45,5.1,5.1,0,0,0-4.76,2.4,11.18,11.18,0,0,0-1.43,5.87v.9a11.42,11.42,0,0,0,1.42,5.95A5.1,5.1,0,0,0,620.83,323.17Z"/><path class="cls-45" d="M644.72,326.48a9.82,9.82,0,0,1-7.73-3.24,12.16,12.16,0,0,1-2.86-8.39v-.94a11.91,11.91,0,0,1,3-8.26,9.1,9.1,0,0,1,7-3.3q4.68,0,7.1,2.84a11.27,11.27,0,0,1,2.42,7.56v2.64H638.51l-.07.11a9.24,9.24,0,0,0,1.7,5.51,5.41,5.41,0,0,0,4.58,2.16,10.61,10.61,0,0,0,3.77-.61,8.66,8.66,0,0,0,2.8-1.69l1.66,2.75a10.36,10.36,0,0,1-3.3,2A13.21,13.21,0,0,1,644.72,326.48Zm6-28.13v.54h-3.46l-3.15-3.18L641,298.89h-3.44v-.56l5.29-5.09h2.55Zm-6.66,7.33a4.57,4.57,0,0,0-3.63,1.8,8.49,8.49,0,0,0-1.85,4.5l0,.1h10.72v-.56a6.5,6.5,0,0,0-1.33-4.16A4.75,4.75,0,0,0,644.07,305.68Z"/><path class="cls-45" d="M679.13,323.17a5.69,5.69,0,0,0,3.71-1.3,4,4,0,0,0,1.6-3.19h3.8l0,.13a6.53,6.53,0,0,1-2.68,5.34,9.79,9.79,0,0,1-6.48,2.33q-5.07,0-7.74-3.31a12.84,12.84,0,0,1-2.68-8.32V314a12.73,12.73,0,0,1,2.69-8.28,9.38,9.38,0,0,1,7.73-3.32,13.06,13.06,0,0,1,5,.92,10.34,10.34,0,0,1,3.69,2.54L688,311h-3.37l-.93-3.66a5.64,5.64,0,0,0-1.93-1.18,7.48,7.48,0,0,0-2.67-.45,5.08,5.08,0,0,0-4.75,2.4A11.18,11.18,0,0,0,673,314v.9a11.42,11.42,0,0,0,1.42,5.95A5.09,5.09,0,0,0,679.13,323.17Z"/><path class="cls-45" d="M691.83,323.32l3.5-.6V295.84l-3.5-.6v-2.73h7.74v13.36a8.59,8.59,0,0,1,2.94-2.6,8.19,8.19,0,0,1,3.87-.92,7.51,7.51,0,0,1,5.8,2.24q2.05,2.24,2.06,6.87v11.26l3.5.6V326H706.51v-2.71l3.5-.6v-11.3a6.21,6.21,0,0,0-1.24-4.26,4.71,4.71,0,0,0-3.68-1.37,6.13,6.13,0,0,0-3.17.83,6.89,6.89,0,0,0-2.35,2.24v13.86l3.5.6V326H691.83Z"/><path class="cls-45" d="M731.21,326.48a9.8,9.8,0,0,1-7.72-3.24,12.17,12.17,0,0,1-2.87-8.39v-.94a11.92,11.92,0,0,1,3-8.26,9.08,9.08,0,0,1,7-3.3q4.68,0,7.1,2.84a11.27,11.27,0,0,1,2.42,7.56v2.64H725l-.06.11a9.17,9.17,0,0,0,1.7,5.51,5.39,5.39,0,0,0,4.57,2.16,10.61,10.61,0,0,0,3.77-.61,8.71,8.71,0,0,0,2.81-1.69l1.65,2.75a10.14,10.14,0,0,1-3.3,2A13.17,13.17,0,0,1,731.21,326.48Zm-.64-20.8a4.57,4.57,0,0,0-3.63,1.8,8.41,8.41,0,0,0-1.85,4.5l0,.1h10.72v-.56a6.44,6.44,0,0,0-1.33-4.16A4.73,4.73,0,0,0,730.57,305.68Z"/><path class="cls-45" d="M744.28,314.83a15.28,15.28,0,0,1,2.44-9,7.87,7.87,0,0,1,6.77-3.44,8.31,8.31,0,0,1,3.85.86,7.56,7.56,0,0,1,2.77,2.49l.39-2.92h3.56v23a9.8,9.8,0,0,1-2.51,7.1c-1.68,1.72-4.06,2.59-7.16,2.59a15.87,15.87,0,0,1-3.63-.47,14.08,14.08,0,0,1-3.43-1.25l1.09-3.29a13.75,13.75,0,0,0,5.93,1.44,5.11,5.11,0,0,0,4.16-1.59,6.91,6.91,0,0,0,1.32-4.53v-2.22a7.45,7.45,0,0,1-2.73,2.22,8.47,8.47,0,0,1-3.65.75,8.11,8.11,0,0,1-6.73-3.1,12.67,12.67,0,0,1-2.44-8.1Zm4.23.45a9.62,9.62,0,0,0,1.48,5.63A5.12,5.12,0,0,0,754.5,323a5.58,5.58,0,0,0,3.2-.87,6.62,6.62,0,0,0,2.13-2.46V309a6.46,6.46,0,0,0-2.13-2.35,5.55,5.55,0,0,0-3.15-.87,4.93,4.93,0,0,0-4.54,2.53,12.65,12.65,0,0,0-1.5,6.51Z"/><path class="cls-45" d="M769.18,314.19a12.82,12.82,0,0,1,2.79-8.5,10.33,10.33,0,0,1,15.2,0,12.76,12.76,0,0,1,2.8,8.51v.47a12.75,12.75,0,0,1-2.79,8.51,10.38,10.38,0,0,1-15.21,0,12.76,12.76,0,0,1-2.79-8.5Zm4.23.47a11,11,0,0,0,1.56,6.1,5.59,5.59,0,0,0,9.2,0,10.9,10.9,0,0,0,1.57-6.1v-.47a11,11,0,0,0-1.57-6.08,5.58,5.58,0,0,0-9.21,0,11,11,0,0,0-1.55,6.08Z"/><path class="cls-45" d="M810.47,322.59a7.56,7.56,0,0,1-6.81,3.89,7.45,7.45,0,0,1-5.91-2.43q-2.13-2.43-2.13-7.56V306.11l-2.66-.6v-2.73h6.9v13.75q0,3.72,1.09,5.11a4.05,4.05,0,0,0,3.42,1.4,6.93,6.93,0,0,0,3.72-.91,5.66,5.66,0,0,0,2.23-2.59V306.11l-3.12-.6v-2.73h7.35v19.94l2.66.6V326h-6.46Z"/><path class="cls-45" d="M846.67,326c-.13-.63-.23-1.2-.3-1.7s-.12-1-.15-1.5a10.5,10.5,0,0,1-3.06,2.61,8.79,8.79,0,0,1-9.45-.73,6.54,6.54,0,0,1-1.89-5,5.79,5.79,0,0,1,2.68-5.1,13,13,0,0,1,7.34-1.8h4.36v-2.7a4.21,4.21,0,0,0-1.29-3.24,5.12,5.12,0,0,0-3.59-1.19,8.83,8.83,0,0,0-2.8.41,5.15,5.15,0,0,0-2,1.12l-.45,2.45h-3.27v-4.52a12.77,12.77,0,0,1,3.85-2,15.44,15.44,0,0,1,4.9-.76,9.72,9.72,0,0,1,6.4,2,7.08,7.08,0,0,1,2.45,5.78v11.19c0,.3,0,.6,0,.88s0,.58,0,.86l1.72.24V326Zm-6.81-3.1a7.48,7.48,0,0,0,3.85-1,6.25,6.25,0,0,0,2.49-2.42v-3.83h-4.51a6.45,6.45,0,0,0-4.12,1.2,3.63,3.63,0,0,0-1.51,2.93,2.9,2.9,0,0,0,.94,2.33A4.36,4.36,0,0,0,839.86,322.93Z"/><path class="cls-45" d="M855.76,314.19a12.82,12.82,0,0,1,2.79-8.5,10.33,10.33,0,0,1,15.2,0,12.76,12.76,0,0,1,2.8,8.51v.47a12.75,12.75,0,0,1-2.79,8.51,10.38,10.38,0,0,1-15.21,0,12.76,12.76,0,0,1-2.79-8.5Zm4.23.47a11,11,0,0,0,1.56,6.1,5.59,5.59,0,0,0,9.2,0,10.9,10.9,0,0,0,1.57-6.1v-.47a11,11,0,0,0-1.57-6.08,5.58,5.58,0,0,0-9.21,0,11.11,11.11,0,0,0-1.55,6.08Z"/><path class="cls-45" d="M890.41,305.92v-3.14H894v-2.51a7.89,7.89,0,0,1,2.3-6.06,9,9,0,0,1,6.36-2.15,12.52,12.52,0,0,1,2.84.34c.94.23,2,.56,3.26,1l-.71,3.44a20.18,20.18,0,0,0-2.42-.78,11.11,11.11,0,0,0-2.65-.32,5,5,0,0,0-3.64,1.12,4.69,4.69,0,0,0-1.1,3.44v2.51h13.25v19.94l3.5.6V326H903.8v-2.71l3.5-.6v-16.8h-9v16.8l3.5.6V326H890.54v-2.71l3.5-.6v-16.8Z"/><path class="cls-45" d="M917.35,323.32l3.51-.6V306.11l-3.51-.6v-2.73h7.29l.3,3.46a8.4,8.4,0,0,1,2.91-2.87,7.76,7.76,0,0,1,4-1,7.64,7.64,0,0,1,5.83,2.2q2.05,2.2,2.06,6.8v11.37l3.5.6V326H932v-2.71l3.51-.6V311.44c0-2.05-.41-3.5-1.22-4.36a4.85,4.85,0,0,0-3.7-1.29,6,6,0,0,0-3.24.88,6.42,6.42,0,0,0-2.24,2.41v13.64l3.5.6V326H917.35Z"/><path class="cls-45" d="M961.46,326c-.13-.63-.23-1.2-.3-1.7s-.12-1-.15-1.5a10.5,10.5,0,0,1-3.06,2.61,7.88,7.88,0,0,1-3.92,1,7.79,7.79,0,0,1-5.52-1.77,6.54,6.54,0,0,1-1.89-5,5.78,5.78,0,0,1,2.67-5.1,13,13,0,0,1,7.34-1.8H961v-2.7a4.21,4.21,0,0,0-1.29-3.24,5.12,5.12,0,0,0-3.59-1.19,8.83,8.83,0,0,0-2.8.41,5.15,5.15,0,0,0-2,1.12l-.45,2.45h-3.26v-4.52a12.6,12.6,0,0,1,3.84-2,15.44,15.44,0,0,1,4.9-.76,9.72,9.72,0,0,1,6.4,2,7.08,7.08,0,0,1,2.45,5.78v11.19c0,.3,0,.6,0,.88s0,.58.06.86l1.71.24V326Zm-6.81-3.1a7.48,7.48,0,0,0,3.85-1A6.25,6.25,0,0,0,961,319.5v-3.83h-4.51a6.45,6.45,0,0,0-4.12,1.2,3.63,3.63,0,0,0-1.51,2.93,2.9,2.9,0,0,0,.94,2.33A4.38,4.38,0,0,0,954.65,322.93Z"/><path class="cls-45" d="M970,295.24v-2.73h7.73v30.21l3.5.6V326H970v-2.71l3.5-.6V295.84Z"/><path class="cls-45" d="M1011,323.26a7.41,7.41,0,0,1-2.78,2.4,8.41,8.41,0,0,1-3.81.82,7.93,7.93,0,0,1-6.65-3.09,12.81,12.81,0,0,1-2.4-8.11v-.45a15.49,15.49,0,0,1,2.4-9,7.69,7.69,0,0,1,6.69-3.44,8.4,8.4,0,0,1,3.64.76,7.64,7.64,0,0,1,2.7,2.21v-9.48l-3.5-.6v-2.73H1015v30.21l3.5.6V326h-7.17Zm-11.41-8a9.85,9.85,0,0,0,1.44,5.63,5,5,0,0,0,4.45,2.13,5.63,5.63,0,0,0,3.18-.86,6.51,6.51,0,0,0,2.13-2.43V309a6.54,6.54,0,0,0-2.13-2.32,5.61,5.61,0,0,0-3.14-.86,4.83,4.83,0,0,0-4.48,2.51,13.07,13.07,0,0,0-1.45,6.53Z"/><path class="cls-45" d="M1021.75,314.19a12.82,12.82,0,0,1,2.79-8.5,10.33,10.33,0,0,1,15.2,0,12.76,12.76,0,0,1,2.8,8.51v.47a12.75,12.75,0,0,1-2.79,8.51,10.38,10.38,0,0,1-15.21,0,12.76,12.76,0,0,1-2.79-8.5Zm4.23.47a11,11,0,0,0,1.56,6.1,5.59,5.59,0,0,0,9.2,0,10.9,10.9,0,0,0,1.57-6.1v-.47a11,11,0,0,0-1.57-6.08,5.58,5.58,0,0,0-9.21,0,11,11,0,0,0-1.55,6.08Z"/><path class="cls-45" d="M554.48,376.12l3.5-.6V358.91l-3.5-.6v-2.73h7.29l.3,3.46a8.4,8.4,0,0,1,2.91-2.87,7.73,7.73,0,0,1,4-1,7.64,7.64,0,0,1,5.83,2.2q2.06,2.2,2.06,6.8v11.37l3.5.6v2.71H569.11v-2.71l3.51-.6V364.24c0-2.05-.41-3.5-1.22-4.36a4.85,4.85,0,0,0-3.7-1.29,6,6,0,0,0-3.24.88,6.42,6.42,0,0,0-2.24,2.41v13.64l3.5.6v2.71H554.48Z"/><path class="cls-45" d="M583.23,367a12.82,12.82,0,0,1,2.79-8.5,10.33,10.33,0,0,1,15.2,0A12.76,12.76,0,0,1,604,367v.47a12.74,12.74,0,0,1-2.8,8.51A10.38,10.38,0,0,1,586,376a12.76,12.76,0,0,1-2.79-8.5Zm4.23.47a11,11,0,0,0,1.56,6.1,5.59,5.59,0,0,0,9.2,0,10.9,10.9,0,0,0,1.57-6.1V367a11,11,0,0,0-1.57-6.08,5.58,5.58,0,0,0-9.21,0,11.13,11.13,0,0,0-1.55,6.08Z"/><path class="cls-45" d="M625.68,362.89H622.5l-.69-2.8a5.87,5.87,0,0,0-1.94-1.17,7.55,7.55,0,0,0-2.65-.44,4.86,4.86,0,0,0-3.35,1,3.07,3.07,0,0,0-1.1,2.38,2.63,2.63,0,0,0,1,2.17,9.72,9.72,0,0,0,3.93,1.42,17,17,0,0,1,6.55,2.57,5.18,5.18,0,0,1,2.15,4.35,6,6,0,0,1-2.5,5,10.53,10.53,0,0,1-6.55,1.91,17.24,17.24,0,0,1-4.74-.61,12.43,12.43,0,0,1-3.76-1.78l0-5.3H612l.8,3.11a4.37,4.37,0,0,0,2,1,10.93,10.93,0,0,0,2.56.3,6,6,0,0,0,3.54-.91,2.83,2.83,0,0,0,1.28-2.4,2.89,2.89,0,0,0-1.07-2.3,10.11,10.11,0,0,0-4-1.57,16.87,16.87,0,0,1-6.39-2.51,5.07,5.07,0,0,1-2.14-4.3,6.06,6.06,0,0,1,2.41-4.83,9.56,9.56,0,0,1,6.29-2,15.15,15.15,0,0,1,4.74.69,10,10,0,0,1,3.51,1.91Z"/><path class="cls-45" d="M648.11,362.89h-3.18l-.69-2.8a5.87,5.87,0,0,0-1.94-1.17,7.59,7.59,0,0,0-2.65-.44,4.86,4.86,0,0,0-3.35,1,3.07,3.07,0,0,0-1.1,2.38,2.63,2.63,0,0,0,1,2.17,9.72,9.72,0,0,0,3.93,1.42,17,17,0,0,1,6.55,2.57,5.18,5.18,0,0,1,2.15,4.35,6,6,0,0,1-2.5,5,10.53,10.53,0,0,1-6.55,1.91,17.24,17.24,0,0,1-4.74-.61,12.43,12.43,0,0,1-3.76-1.78l0-5.3h3.18l.8,3.11a4.37,4.37,0,0,0,2,1,10.93,10.93,0,0,0,2.56.3,6,6,0,0,0,3.54-.91,2.83,2.83,0,0,0,1.28-2.4,2.89,2.89,0,0,0-1.07-2.3,10.1,10.1,0,0,0-4-1.57,16.88,16.88,0,0,1-6.38-2.51A5.07,5.07,0,0,1,631,362a6.06,6.06,0,0,1,2.41-4.83,9.56,9.56,0,0,1,6.29-2,15.15,15.15,0,0,1,4.74.69,10.08,10.08,0,0,1,3.51,1.91Z"/><path class="cls-45" d="M652.77,367a12.77,12.77,0,0,1,2.8-8.5,10.33,10.33,0,0,1,15.2,0,12.76,12.76,0,0,1,2.8,8.51v.47a12.73,12.73,0,0,1-2.79,8.51,10.38,10.38,0,0,1-15.21,0,12.71,12.71,0,0,1-2.8-8.5Zm4.24.47a11,11,0,0,0,1.55,6.1,5.6,5.6,0,0,0,9.21,0,11,11,0,0,0,1.57-6.1V367a11.05,11.05,0,0,0-1.57-6.08,5.16,5.16,0,0,0-4.62-2.43,5.1,5.1,0,0,0-4.6,2.43A11.13,11.13,0,0,0,657,367Z"/><path class="cls-45" d="M698.81,376a5.69,5.69,0,0,0,3.71-1.3,4,4,0,0,0,1.6-3.19h3.8l.05.13a6.53,6.53,0,0,1-2.68,5.34,9.79,9.79,0,0,1-6.48,2.33q-5.07,0-7.74-3.31a12.81,12.81,0,0,1-2.68-8.31v-.91a12.73,12.73,0,0,1,2.69-8.28,9.38,9.38,0,0,1,7.73-3.32,12.87,12.87,0,0,1,5,.93,10.19,10.19,0,0,1,3.69,2.53l.19,5.16h-3.37l-.93-3.66a5.64,5.64,0,0,0-1.93-1.18,7.48,7.48,0,0,0-2.67-.45,5.08,5.08,0,0,0-4.75,2.4,11.2,11.2,0,0,0-1.43,5.87v.91a11.41,11.41,0,0,0,1.42,5.94A5.09,5.09,0,0,0,698.81,376Z"/><path class="cls-45" d="M728.72,375.39a7.53,7.53,0,0,1-6.81,3.89,7.45,7.45,0,0,1-5.91-2.43c-1.42-1.62-2.12-4.14-2.12-7.56V358.91l-2.67-.6v-2.73h6.9v13.75q0,3.72,1.09,5.11a4.05,4.05,0,0,0,3.42,1.4,7,7,0,0,0,3.73-.91,5.7,5.7,0,0,0,2.22-2.59V358.91l-3.11-.6v-2.73h7.34v19.94l2.67.6v2.71H729Z"/><path class="cls-45" d="M738.82,358.31v-2.73h7.28l.41,3.37a8.24,8.24,0,0,1,2.44-2.79,5.69,5.69,0,0,1,3.32-1,7.23,7.23,0,0,1,1,.08,5,5,0,0,1,.8.16l-.55,3.93-2.41-.13a4.81,4.81,0,0,0-2.82.79,5,5,0,0,0-1.76,2.2v13.34l3.5.6v2.71H738.82v-2.71l3.5-.6V358.91Z"/><path class="cls-45" d="M774.8,362.89h-3.17l-.69-2.8a6,6,0,0,0-2-1.17,7.55,7.55,0,0,0-2.65-.44,4.88,4.88,0,0,0-3.35,1,3.1,3.1,0,0,0-1.1,2.38,2.63,2.63,0,0,0,1,2.17,9.72,9.72,0,0,0,3.93,1.42,16.9,16.9,0,0,1,6.55,2.57,5.15,5.15,0,0,1,2.15,4.35,6,6,0,0,1-2.5,5,10.52,10.52,0,0,1-6.54,1.91,17.32,17.32,0,0,1-4.75-.61,12.55,12.55,0,0,1-3.76-1.78l0-5.3h3.18l.79,3.11a4.37,4.37,0,0,0,2,1,11,11,0,0,0,2.57.3,6,6,0,0,0,3.53-.91,2.83,2.83,0,0,0,1.28-2.4,2.88,2.88,0,0,0-1.06-2.3,10.17,10.17,0,0,0-4-1.57,16.81,16.81,0,0,1-6.38-2.51,5.05,5.05,0,0,1-2.15-4.3,6,6,0,0,1,2.42-4.83,9.53,9.53,0,0,1,6.28-2,15.26,15.26,0,0,1,4.75.69,10,10,0,0,1,3.5,1.91Z"/><path class="cls-45" d="M779.47,367a12.82,12.82,0,0,1,2.79-8.5,10.33,10.33,0,0,1,15.2,0,12.76,12.76,0,0,1,2.8,8.51v.47a12.73,12.73,0,0,1-2.79,8.51,10.38,10.38,0,0,1-15.21,0,12.76,12.76,0,0,1-2.79-8.5Zm4.23.47a11,11,0,0,0,1.56,6.1,5.59,5.59,0,0,0,9.2,0,10.9,10.9,0,0,0,1.57-6.1V367a11,11,0,0,0-1.57-6.08,5.58,5.58,0,0,0-9.21,0A11,11,0,0,0,783.7,367Z"/><path class="cls-45" d="M809.52,368.56h-4.23v-21h4.23Zm0,10.27h-4.23v-4.39h4.23Z"/></g></svg>