<svg xmlns="http://www.w3.org/2000/svg" xmlns:xlink="http://www.w3.org/1999/xlink" viewBox="0 0 1124.64 651.26"><defs><style>.cls-1{fill:#e6f4ff;}.cls-2{fill:none;}.cls-3{fill:#8bb5d8;}.cls-4{fill:#329e89;}.cls-5{clip-path:url(#clip-path);}.cls-6{fill:#c5e2ff;}.cls-7{clip-path:url(#clip-path-2);}.cls-8{fill:#ef9777;}.cls-9{fill:#fff;}.cls-10{fill:#3a1e1c;}.cls-11{clip-path:url(#clip-path-3);}.cls-12{fill:#d88268;}.cls-13{fill:#d98369;}.cls-14{fill:#da8469;}.cls-15{fill:#db856a;}.cls-16{fill:#dc866b;}.cls-17{fill:#dd876b;}.cls-18{fill:#de886c;}.cls-19{fill:#df896d;}.cls-20{fill:#e08a6d;}.cls-21{fill:#e18b6e;}.cls-22{fill:#e28c6f;}.cls-23{fill:#e48d70;}.cls-24{fill:#e58d70;}.cls-25{fill:#e68e71;}.cls-26{fill:#e78f72;}.cls-27{fill:#e89072;}.cls-28{fill:#e99173;}.cls-29{fill:#ea9274;}.cls-30{fill:#eb9374;}.cls-31{fill:#ec9475;}.cls-32{fill:#ed9576;}.cls-33{fill:#ee9676;}.cls-34{fill:#3d201f;}.cls-35{fill:#b5574d;}.cls-36{fill:#b3514e;}.cls-37{fill:#312235;}.cls-38{fill:#fc999c;}.cls-39{fill:#f9aaaa;}.cls-40{fill:#196b5d;}.cls-41{fill:#208975;}.cls-42{fill:#8acec3;}.cls-43{fill:#5b1f3c;}.cls-44{fill:#fffdfd;}.cls-45{clip-path:url(#clip-path-4);}.cls-46{fill:#ce7061;}.cls-47{fill:#175b4e;}</style><clipPath id="clip-path"><path class="cls-1" d="M428.87,402.79a192.51,192.51,0,0,0-5.05-43.86c-32.69-73-109.23-124.15-198.45-124.15C106.43,234.78,10,325.78,10,438a193.16,193.16,0,0,0,5,43.87C47.74,554.84,124.28,606,213.5,606,332.44,606,428.87,515,428.87,402.79Z"/></clipPath><clipPath id="clip-path-2"><path class="cls-2" d="M541,351.81c-10.3-18-97.34-31.5-97.34-31.5S301.34,131.55,232.33,138s-80.25,56.59-80.25,56.59l-32.63,66.55C54.18,296,10.14,362.17,10.14,438c0,112.25,96.42,203.24,215.37,203.24,117.57,0,213.12-88.9,215.32-199.34C473.18,419.61,549,365.68,541,351.81Z"/></clipPath><clipPath id="clip-path-3"><path class="cls-2" d="M227.82,319.63l-2.36,9.78s-19.92,12.9-37.91,11.87c-5.35-.3,67.76,42.8,71.74,43s34.38-50.16,34.38-50.16-20.41-3.73-27.17-4S252,311.8,252,311.8Z"/></clipPath><clipPath id="clip-path-4"><path class="cls-2" d="M541.11-404.43c-10.3-18-97.34-31.5-97.34-31.5S301.45-624.7,232.44-618.27s-80.25,56.59-80.25,56.59l-32.63,66.55C54.29-460.21,10.25-394.07,10.25-318.22,10.25-206,106.68-115,225.62-115c117.57,0,213.12-88.9,215.32-199.35C473.29-336.63,549.06-390.56,541.11-404.43Z"/></clipPath></defs><title>5-fala2</title><g id="Camada_5" data-name="Camada 5"><ellipse class="cls-3" cx="225.37" cy="438.02" rx="215.37" ry="203.24"/><path class="cls-4" d="M225.37,234.78c119,0,215.37,91,215.37,203.24S344.32,641.26,225.37,641.26,10,550.27,10,438s96.42-203.24,215.37-203.24m0-10a235.1,235.1,0,0,0-87.54,16.69A225.72,225.72,0,0,0,66.22,287,212.37,212.37,0,0,0,17.8,354.82a203.34,203.34,0,0,0,0,166.4A212.3,212.3,0,0,0,66.22,589a225.89,225.89,0,0,0,71.61,45.57,238.05,238.05,0,0,0,175.08,0A225.94,225.94,0,0,0,384.53,589a212.12,212.12,0,0,0,48.41-67.79,203.34,203.34,0,0,0,0-166.4A212.19,212.19,0,0,0,384.53,287a225.76,225.76,0,0,0-71.62-45.57,235.1,235.1,0,0,0-87.54-16.69Z"/><path class="cls-1" d="M428.87,402.79a192.51,192.51,0,0,0-5.05-43.86c-32.69-73-109.23-124.15-198.45-124.15C106.43,234.78,10,325.78,10,438a193.16,193.16,0,0,0,5,43.87C47.74,554.84,124.28,606,213.5,606,332.44,606,428.87,515,428.87,402.79Z"/><g class="cls-5"><circle class="cls-1" cx="306.79" cy="408.71" r="104.58"/><circle class="cls-1" cx="306.79" cy="408.71" r="100.64"/><circle class="cls-1" cx="306.79" cy="408.71" r="98.66"/><circle class="cls-1" cx="306.79" cy="408.71" r="96.69"/><circle class="cls-1" cx="306.79" cy="408.71" r="94.72"/><circle class="cls-1" cx="306.79" cy="408.71" r="92.74"/><circle class="cls-1" cx="306.79" cy="408.71" r="90.77"/><circle class="cls-1" cx="306.79" cy="408.71" r="88.8"/><circle class="cls-1" cx="306.79" cy="408.71" r="86.82"/><circle class="cls-1" cx="306.79" cy="408.71" r="84.85"/><circle class="cls-1" cx="306.79" cy="408.71" r="82.88"/><circle class="cls-1" cx="306.79" cy="408.71" r="80.9"/><circle class="cls-1" cx="306.79" cy="408.71" r="78.93"/><circle class="cls-1" cx="306.79" cy="408.71" r="76.96"/><circle class="cls-1" cx="306.79" cy="408.71" r="74.98"/><circle class="cls-1" cx="306.79" cy="408.71" r="73.01"/><circle class="cls-1" cx="306.79" cy="408.71" r="71.04"/><circle class="cls-1" cx="306.79" cy="408.71" r="69.06"/><circle class="cls-1" cx="306.79" cy="408.71" r="67.09"/><circle class="cls-1" cx="306.79" cy="408.71" r="65.12"/><circle class="cls-1" cx="306.79" cy="408.71" r="63.15"/><circle class="cls-1" cx="306.79" cy="408.71" r="61.17"/><circle class="cls-1" cx="306.79" cy="408.71" r="59.2"/><circle class="cls-1" cx="306.79" cy="408.71" r="57.23"/><circle class="cls-1" cx="306.79" cy="408.71" r="55.25"/><circle class="cls-1" cx="306.79" cy="408.71" r="53.28"/><circle class="cls-1" cx="306.79" cy="408.71" r="51.31"/><circle class="cls-1" cx="306.79" cy="408.71" r="49.33"/><circle class="cls-1" cx="306.79" cy="408.71" r="47.36"/><circle class="cls-1" cx="306.79" cy="408.71" r="45.39"/><circle class="cls-1" cx="306.79" cy="408.71" r="43.41"/><circle class="cls-1" cx="306.79" cy="408.71" r="41.44"/><circle class="cls-1" cx="306.79" cy="408.71" r="39.47"/><circle class="cls-1" cx="306.79" cy="408.71" r="37.49"/><circle class="cls-1" cx="306.79" cy="408.71" r="35.52"/><circle class="cls-1" cx="306.79" cy="408.71" r="33.55"/><circle class="cls-1" cx="306.79" cy="408.71" r="31.57"/><circle class="cls-1" cx="306.79" cy="408.71" r="29.6"/><circle class="cls-1" cx="306.79" cy="408.71" r="27.63"/><circle class="cls-1" cx="306.79" cy="408.71" r="25.65"/><circle class="cls-1" cx="306.79" cy="408.71" r="23.68"/><circle class="cls-1" cx="306.79" cy="408.71" r="21.71"/><circle class="cls-1" cx="306.79" cy="408.71" r="19.73"/><circle class="cls-1" cx="306.79" cy="408.71" r="17.76"/><circle class="cls-1" cx="306.79" cy="408.71" r="15.79"/><circle class="cls-1" cx="306.79" cy="408.71" r="13.81"/><circle class="cls-1" cx="306.79" cy="408.71" r="11.84"/><circle class="cls-1" cx="306.79" cy="408.71" r="9.87"/><circle class="cls-1" cx="306.79" cy="408.71" r="7.89"/><circle class="cls-1" cx="306.79" cy="408.71" r="5.92"/><circle class="cls-1" cx="306.79" cy="408.71" r="3.95"/><circle class="cls-1" cx="306.79" cy="408.71" r="1.97"/></g><path class="cls-3" d="M787.8,44.22c-174.89,0-318.64,118.13-335.23,269.27L353,353.14s-6.51,2.41-5.85,11.74a12.7,12.7,0,0,0,7.43,10.89L458.82,407C492,541,626.68,641.26,787.8,641.26c186,0,336.84-133.65,336.84-298.52S973.83,44.22,787.8,44.22Z"/><path class="cls-6" d="M787.75,0C612.85,0,469.11,118.13,452.52,269.27L353,308.92s-6.51,2.41-5.86,11.74a12.7,12.7,0,0,0,7.44,10.88l104.21,31.28C492,496.78,626.63,597,787.75,597c186,0,336.84-133.65,336.84-298.52S973.78,0,787.75,0Z"/><g class="cls-7"><path class="cls-8" d="M534.35,352.94a18,18,0,0,0-2.21-1.87,19.39,19.39,0,0,0-1.77-1.13,22.73,22.73,0,0,0-4.25-1.84,17.85,17.85,0,0,0-2.86-.67s-45.4,6.11-38.5,3-1.63-3.79-1.63-3.79-21.75,4.67-30,9.17c-5.48,3-12.26,25.5-12.26,25.5l12.28,14.26s13.81-9.68,18.89-14.76c3.66-3.66,20.55-3.28,33.25-5.34,4.95-.8,12.12-3.69,14.92-4.36,3.25-.78,3.54-3.18,6.58-5.16a31.06,31.06,0,0,0,4.82-3.82c1.7-1.67,1.32-1.57,1.86-3.17.28-.79,1.74-2.75,1.71-3.67A3.43,3.43,0,0,0,534.35,352.94Zm-19.63,13.12s-16.06,2.81-17-.63c-2.53,1,21.79-1.33,28.2-3.88Z"/><path class="cls-9" d="M153.42,564.7s24.48-21.86,24.48-27-14.35-8.35-14.35-8.35l-20.41,29.5,9.58,7.33Z"/><path class="cls-10" d="M176.08,358.82s-46.9-131.84,7.44-198.9c0,0,58.11-39.81,101.53,7s13,178.54,13,178.54Z"/><g class="cls-11"><polygon class="cls-12" points="293.6 311.8 293.63 312.12 182.21 322.49 182.21 311.8 293.6 311.8"/><polygon class="cls-12" points="293.63 312.12 293.67 312.49 293.67 312.93 182.21 323.3 182.21 322.49 293.63 312.12"/><polygon class="cls-13" points="293.67 313.74 182.21 324.11 182.21 323.3 293.67 312.93 293.67 313.74"/><polygon class="cls-14" points="293.67 314.55 182.21 324.93 182.21 324.11 293.67 313.74 293.67 314.55"/><polygon class="cls-15" points="293.67 315.37 182.21 325.74 182.21 324.93 293.67 314.55 293.67 315.37"/><polygon class="cls-16" points="293.67 316.18 182.21 326.55 182.21 325.74 293.67 315.37 293.67 316.18"/><polygon class="cls-17" points="293.67 316.99 182.21 327.37 182.21 326.55 293.67 316.18 293.67 316.99"/><polygon class="cls-18" points="293.67 317.81 182.21 328.18 182.21 327.37 293.67 316.99 293.67 317.81"/><polygon class="cls-19" points="293.67 318.62 182.21 328.99 182.21 328.18 293.67 317.81 293.67 318.62"/><polygon class="cls-20" points="293.67 319.43 182.21 329.81 182.21 328.99 293.67 318.62 293.67 319.43"/><polygon class="cls-21" points="293.67 320.24 182.21 330.62 182.21 329.81 293.67 319.43 293.67 320.24"/><polygon class="cls-22" points="293.67 321.06 182.21 331.43 182.21 330.62 293.67 320.24 293.67 321.06"/><polygon class="cls-23" points="293.67 321.87 182.21 332.24 182.21 331.43 293.67 321.06 293.67 321.87"/><polygon class="cls-24" points="293.67 322.68 182.21 333.06 182.21 332.24 293.67 321.87 293.67 322.68"/><polygon class="cls-25" points="293.67 323.5 182.21 333.87 182.21 333.06 293.67 322.68 293.67 323.5"/><polygon class="cls-26" points="293.67 324.31 182.21 334.68 182.21 333.87 293.67 323.5 293.67 324.31"/><polygon class="cls-27" points="293.67 325.12 182.21 335.5 182.21 334.68 293.67 324.31 293.67 325.12"/><polygon class="cls-28" points="293.67 325.94 182.21 336.31 182.21 335.5 293.67 325.12 293.67 325.94"/><polygon class="cls-29" points="293.67 326.75 182.21 337.12 182.21 336.31 293.67 325.94 293.67 326.75"/><polygon class="cls-30" points="293.67 327.56 182.21 337.94 182.21 337.12 293.67 326.75 293.67 327.56"/><polygon class="cls-31" points="293.67 328.38 182.21 338.75 182.21 337.94 293.67 327.56 293.67 328.38"/><polygon class="cls-32" points="293.67 329.19 182.21 339.56 182.21 338.75 293.67 328.38 293.67 329.19"/><polygon class="cls-33" points="293.67 330 182.21 340.38 182.21 339.56 293.67 329.19 293.67 330"/><polygon class="cls-8" points="293.67 330.82 182.21 341.19 182.21 340.38 293.67 330 293.67 330.82"/><polygon class="cls-8" points="184.24 384.38 182.21 362.56 182.21 341.19 293.67 330.82 293.67 384.38 184.24 384.38"/></g><path class="cls-8" d="M182.49,220.71s-.89,110.78,64.76,101.68c35.49-4.92,47.51-40.41,40.88-70.92a191.55,191.55,0,0,1-3.79-46.76s-4.08-29.37-38.7-20.31S196,190.12,196,190.12,180.43,193.3,182.49,220.71Z"/><path class="cls-10" d="M177,226.89s25.09-2.78,36.43-7.67l.58-15.39s2.55,9.93,4.85,12.4,22.88-.73,32-3.58,4.8-14.7,4.8-14.7L260,209.8s28.58,3.45,28.74-.93-3.86-24.71-12.21-28.74-73.88-4.44-83.08,4.1S177.42,214.69,177,226.89Z"/><ellipse class="cls-34" cx="265.84" cy="242.56" rx="3.92" ry="3.17" transform="translate(-22.23 26.87) rotate(-5.56)"/><ellipse class="cls-34" cx="226.77" cy="246.26" rx="3.92" ry="3.17" transform="translate(-22.77 23.11) rotate(-5.56)"/><path class="cls-35" d="M250.44,277a15.34,15.34,0,0,1-5.17-.8l.35-.94c5.16,1.91,13.88,0,15.56-3.34,1.13-2.27-1.44-4.53-3.78-6-6.89-4.38-5.32-8.94-5.25-9.13l.94.34c-.05.16-1.33,4,4.84,7.94,4.88,3.11,4.95,5.69,4.14,7.32C260.61,275.31,255.26,277,250.44,277Z"/><path class="cls-36" d="M264.84,287.05c-18.37,4.76-37.46.2-36.73,1.53,0,0,1.76,14.25,18,14.15C262.86,302.62,264.84,287.05,264.84,287.05Z"/><path class="cls-9" d="M219.27,331.75s22.52,13.66,36.94,11.81c6.84-.88,19-14,19-14l13,129.73-49.8,2.24Z"/><path class="cls-37" d="M172.55,555.72s-17.61,72.57-15.63,92.45,4.68,52.17,34,145.94c0,0,78.25,32.39,150.2-.8,0,0,6.29-1.86,10.91-43.82S364.46,606.9,343.32,562,172.55,555.72,172.55,555.72Z"/><path class="cls-10" d="M274.7,219.71s-4.74-6.2-9.75-3.1a.89.89,0,0,0-.58,1.12c.25.83,1.91-1.64,9.83,2.73C274.2,220.46,274.7,220.75,274.7,219.71Z"/><path class="cls-10" d="M214.82,224.15s4.75-6.21,9.75-3.11a.89.89,0,0,1,.58,1.12c-.25.84-1.91-1.63-9.83,2.73C215.32,224.89,214.82,225.18,214.82,224.15Z"/><path class="cls-9" d="M262.51,287.6s-.65,3.21-2,4.13-15.62,2-24.11.95c-5.38-.66-6.4-3.32-6.26-4.3C230.16,288.38,249,290.65,262.51,287.6Z"/><path class="cls-38" d="M249.27,302.5s-1.22-9.7-18.49-7.16C230.78,295.34,234.91,304.19,249.27,302.5Z"/><ellipse class="cls-39" cx="280.9" cy="252.77" rx="3.62" ry="6.23" transform="translate(5.69 511.72) rotate(-85.24)"/><ellipse class="cls-39" cx="214.68" cy="262.02" rx="6.23" ry="3.62" transform="translate(-52.56 53.87) rotate(-12.76)"/><path class="cls-40" d="M333.45,438.84l41.91,37.38s10.59,6.85,14.41,7.27c4,.44,11.28-4.8,11.28-4.8l67.67-73.64s-37.64-24.88-38-28.5-33.25,46.55-33.25,46.55-2.17-2.74-7.67-1.67c-3,.59-1.59,5.6-7.66-.14-3.74-3.54-9.95-8.73-15.17-16.11-29.22-41.33-56.53-70.83-58.39-72.35s-11-6.17-14.23-4.65-19.19,1.41-19.19,1.41L277.8,445,219.27,331.75s-12.56,4.33-26.08,2.61S157,338,157,338s-10.24,27.71-17.55,29.81-11,20.25-11,20.25c-2.17,2.65-10.18,14.08-19.61,27.72h0s-37.48,45.93-43,49.91-2.65,13.44-2.65,13.44L142,562.9l27.83-35.51c-7.13-.5-43.13-49.77-43.13-49.77,2.53-4.53,2.3-8.26,1.56-10.72,17.3-18.49,42.63-47.18,42.63-47.18.41,4.06,6.47,16.8,16.93,32.51s9.69,42.14,9.69,42.14c-14.94,21.68-25,61.35-25,61.35s1,7.92,26.28,20.54c11,5.51,46.51,16.31,46.51,16.31l39.46-43.28,50.78,35.64s9.12-9.13,8.21-18.27-18.44-63.5-18.44-63.5-1.89-19,.27-24.66S333.45,438.84,333.45,438.84Z"/><path class="cls-12" d="M153.42,564.7s12.2,10.7,14.67,8.23l12.43-35.19S165,549,153.42,564.7Z"/><path class="cls-8" d="M170.77,565.87s5.9-5.86,14.86,2.8,9.68,9.26,9.68,9.26,6.95,2.88,7.52-4.63c0,0,8.8,1.29,6.82-8.39,0,0,6.14-4.42.71-12,0,0,5.51-1.06,2.24-11.47s-24-20.46-24-20.46-9.94-3.49-10.82,8.07c0,0-7.16.38-4.66,10.38,0,0-4.65,4.2-3.65,8.77s-.11,3.66-.11,3.66S162.68,559.29,170.77,565.87Z"/><path class="cls-35" d="M202.45,573.63c-.11-.14-11.87-13.67-24.48-19.79l.43-.9c12.8,6.21,24.69,19.9,24.81,20Z"/><path class="cls-35" d="M209.31,565.27c-.17-.16-17.14-16.1-29.48-22.75l.48-.88c12.45,6.72,29.52,22.74,29.69,22.9Z"/><path class="cls-35" d="M210,553.19c-.15-.18-15.21-17.9-27.55-21.76l.3-.95c12.61,3.94,27.39,21.33,28,22.07Z"/><path class="cls-41" d="M219.27,331.75S195.12,343.4,182,363.18l44.38,12.67s-15.11,14.86-14.79,18.07,66.17,51,66.17,51,33.54-61.51,29.81-64.56-24.29-6.81-24.29-6.81S302.8,346,306.19,345.64s-28-16.36-31-16.05,2.52,110.28,2.52,110.28l-.15,2.38Z"/><path class="cls-37" d="M277.8,445s9.26,81.81,7,104.33"/><circle class="cls-42" cx="291.54" cy="469.64" r="5.33"/><circle class="cls-42" cx="293.67" cy="507.64" r="5.33"/><path class="cls-43" d="M173.7,402.9l-1-.23a76.61,76.61,0,0,0-11.55-60.85l.82-.57A77.63,77.63,0,0,1,173.7,402.9Z"/><path class="cls-43" d="M329,405.1l-1-.09c1.1-12.3-3.36-24.58-7.3-35.41-4.66-12.82-9.95-27.35-20.07-37.88l.72-.69c10.27,10.68,15.59,25.32,20.29,38.23C325.59,380.19,330.1,392.58,329,405.1Z"/><path class="cls-43" d="M146.21,375.14a27.73,27.73,0,0,0-3.49-6.94l.82-.57a28.39,28.39,0,0,1,3.62,7.19Z"/><path class="cls-43" d="M135.93,390.8a34.62,34.62,0,0,0-6.08-.84l.05-1a36.56,36.56,0,0,1,6.25.85Z"/><path class="cls-43" d="M334.33,439.12l-1-.11a74.31,74.31,0,0,0,.43-11.93l1,0A75,75,0,0,1,334.33,439.12Z"/><path class="cls-43" d="M400.28,437.11a74.37,74.37,0,0,0-2.84-11.6l.95-.31A74,74,0,0,1,401.26,437Z"/><path class="cls-43" d="M384.94,437.09l-1-.15a60.44,60.44,0,0,0,.75-10.74l1,0A61.34,61.34,0,0,1,384.94,437.09Z"/><path class="cls-43" d="M200.3,494.73l-.52-.85a60.15,60.15,0,0,1,11.59-5.54l.34.94A58.87,58.87,0,0,0,200.3,494.73Z"/><path class="cls-43" d="M127.66,467.41c-2.33,0-10-.2-12.54-2.75l.7-.71c2.65,2.65,12.37,2.45,12.47,2.45l0,1Z"/><path class="cls-43" d="M118.72,481.06v-1c3.43,0,7.7-2.83,7.74-2.86l.56.83C126.83,478.16,122.45,481.06,118.72,481.06Z"/><path class="cls-44" d="M429.8,380.81s2.67-5,6.17-7l37.67,21.76L464.3,407Z"/><path class="cls-35" d="M468.32,355l-.7-.71c1.94-1.94,15-3.57,16.44-3.75l.12,1C478.51,352.26,469.61,353.75,468.32,355Z"/><path class="cls-35" d="M494,354.74c-1.39,0-1.52-.19-1.63-.35a.58.58,0,0,1,.09-.77l.71.71a.41.41,0,0,0,.08-.36.36.36,0,0,0-.2-.27c1.85.69,34.51-3.93,36.74-4.53v0c.14,0,.57-.05.68.37l-.28.58c-.42.2-11.19,1.79-18.63,2.79C500.61,354.34,496,354.74,494,354.74Z"/><path class="cls-35" d="M496.65,358.81a13.91,13.91,0,0,1-4-.37l.37-.93c3.79,1.53,39.32-2.56,40.89-4.7a.17.17,0,0,0,0,.1l1,.07a1.12,1.12,0,0,1-.59.8C531,355.82,506.75,358.81,496.65,358.81Z"/><path class="cls-35" d="M506.85,368c-3.94,0-8-.56-9.1-1.28a.83.83,0,0,1-.47-1l1,.29a.28.28,0,0,0,0-.22c.26.31,2.34.86,5.94,1.08,4.89.3,9.1-.22,10.23-1.25l.15-.1,17-6.81a8.07,8.07,0,0,1,2,0,.64.64,0,0,1,.41.42c.14.44-.19,1.19-1,2.24l-.81-.59a7.23,7.23,0,0,0,.71-1.15c-.32,0-.81,0-1.25,0L515,366.49C513.65,367.62,510.28,368,506.85,368Z"/><path class="cls-35" d="M470.51,365.43l-.41-.91c.2-.09,4.9-2.33,4.62-8.69l1,0A10,10,0,0,1,470.51,365.43Z"/><path class="cls-35" d="M457.94,373l-.94-.33c.14-.4,3.66-9.84,21.35-8.16.08,0,3.77.61,5.41-1l.08-.08.11,0c.25-.09,6.15-2.07,9.66.61l-.61.79c-2.85-2.18-7.85-.74-8.62-.49-2,1.9-6,1.25-6.16,1.22C461.34,363.85,458,372.88,457.94,373Z"/><path class="cls-35" d="M498,368.5l-.92-.39c.32-.77.61-2,.29-2.32-.07-.07-6.06-7.14-5.25-8.56a17.41,17.41,0,0,0,.18-4.89l1-.06c.05.74.23,4.49-.31,5.44,0,.89,4.21,6.49,5.08,7.36S498.17,368.09,498,368.5Z"/></g><g class="cls-45"><path class="cls-37" d="M190,275.55s-6.77,14.38-4.3,22.7S202.88,312,202.88,312s37.07,22.44,68.87,18.45,21.38-11,21.38-11l-55.79-45.94Z"/><path class="cls-37" d="M298,272s-5.18,10.44-3,17.43,15.57,10.15,15.57,10.15l10.35.39,104,5.36s7.43-21.13-51.76-33.44S298,272,298,272Z"/><path class="cls-46" d="M202.2,14.2l2.37,26.31s-29.12,70.66-9.27,203l-6,40.43s24.06,11.27,41.43,15.9a72.35,72.35,0,0,0,32,1.2s-39.64-43.48-45.34-49.63L267.07,11S238.58-46.54,202.2,14.2Z"/><path class="cls-46" d="M284.55,12.39S258.79,82.93,300,217.08c0,0,5.91,55.23-2.05,54.93s81.06,6.76,86.9,7-44.4-20.8-48.8-31.06-6.29-201.14-.33-218.46a234.54,234.54,0,0,0,8.72-34.22S289.46,1.67,284.55,12.39Z"/><path class="cls-37" d="M172.66-198.52S155.05-125.95,157-106.07s4.68,52.17,34,145.94c0,0,78.26,32.39,150.2-.8,0,0,6.29-1.86,10.91-43.82s12.42-142.59-8.72-187.46S172.66-198.52,172.66-198.52Z"/></g><path class="cls-47" d="M567.57,228.35h-9v9.14H569l.14-3.3h1.6V239H554.27v-1.33l2.46-.2v-19l-2.46-.2V217h16.34v4.85H569l-.14-3.3H558.54v8.28h9Z"/><path class="cls-47" d="M586,227.7h-1.48l-.22-2.32a4.55,4.55,0,0,0-1.71-1.1,6.8,6.8,0,0,0-2.39-.4,4.44,4.44,0,0,0-3,.86,2.58,2.58,0,0,0-1,2,2.36,2.36,0,0,0,.85,1.87,8.21,8.21,0,0,0,3.41,1.3,11.3,11.3,0,0,1,4.38,1.78,3.69,3.69,0,0,1,1.45,3.07,4,4,0,0,1-1.66,3.31,7,7,0,0,1-4.38,1.26,10.11,10.11,0,0,1-3.3-.51,7.83,7.83,0,0,1-2.59-1.43v-3.3h1.47l.26,2.33a4.2,4.2,0,0,0,1.84,1.06,8.49,8.49,0,0,0,2.32.32,5.08,5.08,0,0,0,3.11-.86,2.57,2.57,0,0,0,1.13-2.09,2.64,2.64,0,0,0-.95-2,7.54,7.54,0,0,0-3.41-1.41,11.67,11.67,0,0,1-4.34-1.69,3.45,3.45,0,0,1-1.41-2.94,4,4,0,0,1,1.59-3.18,6.45,6.45,0,0,1,4.19-1.29,9.58,9.58,0,0,1,3.29.55,6.64,6.64,0,0,1,2.43,1.49Z"/><path class="cls-47" d="M589.16,224v-1.35h4l.22,2.55a5.72,5.72,0,0,1,5.17-2.85,5.36,5.36,0,0,1,4.61,2.35,10.69,10.69,0,0,1,1.67,6.28v.32a9.44,9.44,0,0,1-1.67,5.86,5.44,5.44,0,0,1-4.58,2.19,6.56,6.56,0,0,1-3-.66,5.54,5.54,0,0,1-2.12-1.87v7l2.47.2v1.35h-6.73V244l2.46-.2V224.19ZM603,231a9.38,9.38,0,0,0-1.24-5.09,4,4,0,0,0-3.63-2,4.81,4.81,0,0,0-3,.87,5.4,5.4,0,0,0-1.72,2.26v7.87a5.05,5.05,0,0,0,1.8,2.12,5.26,5.26,0,0,0,2.93.77,4.12,4.12,0,0,0,3.61-1.79,8.2,8.2,0,0,0,1.23-4.73Z"/><path class="cls-47" d="M615,239.34a6.62,6.62,0,0,1-5.12-2.26,8.31,8.31,0,0,1-2-5.76v-.84a8.5,8.5,0,0,1,2-5.82,6.22,6.22,0,0,1,4.88-2.32,6.08,6.08,0,0,1,4.74,1.91,7.27,7.27,0,0,1,1.72,5.08v1.55H609.64v.44a7.24,7.24,0,0,0,1.47,4.62,4.7,4.7,0,0,0,3.87,1.87,8,8,0,0,0,2.88-.47,5.6,5.6,0,0,0,2-1.35l.77,1.25a6.57,6.57,0,0,1-2.33,1.53A9,9,0,0,1,615,239.34Zm-.24-15.46a4.36,4.36,0,0,0-3.37,1.54,6.62,6.62,0,0,0-1.6,3.85l0,.08h9.6v-.46a5.23,5.23,0,0,0-1.26-3.57A4.27,4.27,0,0,0,614.74,223.88Z"/><path class="cls-47" d="M628.36,222.64l.23,2.73v.19a5.82,5.82,0,0,1,1.9-2.36,5,5,0,0,1,3.52-.81l.54.12-.24,1.69-1.35-.09a4.09,4.09,0,0,0-2.8,1,5.22,5.22,0,0,0-1.57,2.64v9.78l2.47.2V239h-6.74v-1.33l2.47-.2v-13.3l-2.47-.2v-1.35h4Z"/><path class="cls-47" d="M636.6,230.59a8.8,8.8,0,0,1,2-5.93,7.12,7.12,0,0,1,10.52,0,8.8,8.8,0,0,1,2,5.93v.5a8.85,8.85,0,0,1-2,5.94,7.16,7.16,0,0,1-10.53,0,8.81,8.81,0,0,1-2-5.94Zm1.81.5a7.78,7.78,0,0,0,1.44,4.78,4.7,4.7,0,0,0,4,1.94,4.65,4.65,0,0,0,4-1.94,7.78,7.78,0,0,0,1.44-4.78v-.5a7.77,7.77,0,0,0-1.45-4.75,5,5,0,0,0-8,0,7.77,7.77,0,0,0-1.44,4.75Z"/><path class="cls-47" d="M661.57,231a10.69,10.69,0,0,1,1.66-6.28,5.35,5.35,0,0,1,4.62-2.35,6,6,0,0,1,2.95.7,5.93,5.93,0,0,1,2.08,2l.18-2.43h1.59v21.13l2.47.2v1.35h-6.75V244l2.46-.2v-6.9a5.48,5.48,0,0,1-2.09,1.83,6.28,6.28,0,0,1-2.92.64,5.42,5.42,0,0,1-4.59-2.2,9.43,9.43,0,0,1-1.66-5.85Zm1.83.32a8.42,8.42,0,0,0,1.19,4.74,4,4,0,0,0,3.58,1.78,4.85,4.85,0,0,0,4.66-2.86v-8a5.82,5.82,0,0,0-1.76-2.21,4.56,4.56,0,0,0-2.87-.87,3.93,3.93,0,0,0-3.59,2A9.64,9.64,0,0,0,663.4,231Z"/><path class="cls-47" d="M690.92,236.33a5.51,5.51,0,0,1-2.11,2.22,6.05,6.05,0,0,1-3.16.79,5,5,0,0,1-4-1.76c-1-1.17-1.47-3-1.47-5.45v-7.94l-2-.2v-1.35H682v9.52a7,7,0,0,0,1,4.3,3.47,3.47,0,0,0,2.9,1.31,5.38,5.38,0,0,0,3.27-.91,4.79,4.79,0,0,0,1.72-2.52V224.19l-2.33-.2v-1.35h4.15v14.85l2.19.2V239h-3.78Z"/><path class="cls-47" d="M704.76,239.34a6.6,6.6,0,0,1-5.12-2.26,8.32,8.32,0,0,1-2-5.76v-.84a8.55,8.55,0,0,1,2-5.82,6.25,6.25,0,0,1,4.88-2.32,6.08,6.08,0,0,1,4.74,1.91,7.28,7.28,0,0,1,1.73,5.08v1.55H699.41v.44a7.24,7.24,0,0,0,1.48,4.62,4.68,4.68,0,0,0,3.87,1.87,7.88,7.88,0,0,0,2.87-.47,5.64,5.64,0,0,0,2-1.35l.77,1.25a6.66,6.66,0,0,1-2.33,1.53A9,9,0,0,1,704.76,239.34Zm-.25-15.46a4.34,4.34,0,0,0-3.36,1.54,6.55,6.55,0,0,0-1.6,3.85l0,.08h9.6v-.46a5.23,5.23,0,0,0-1.26-3.57A4.29,4.29,0,0,0,704.51,223.88Z"/><path class="cls-47" d="M729,239.34a6.6,6.6,0,0,1-5.12-2.26,8.32,8.32,0,0,1-2-5.76v-.84a8.5,8.5,0,0,1,2-5.82,6.25,6.25,0,0,1,4.88-2.32,6.08,6.08,0,0,1,4.74,1.91,7.28,7.28,0,0,1,1.73,5.08v1.55H723.63v.44a7.19,7.19,0,0,0,1.48,4.62,4.68,4.68,0,0,0,3.87,1.87,7.91,7.91,0,0,0,2.87-.47,5.52,5.52,0,0,0,2-1.35l.78,1.25a6.75,6.75,0,0,1-2.33,1.53A9,9,0,0,1,729,239.34Zm-.25-15.46a4.34,4.34,0,0,0-3.36,1.54,6.55,6.55,0,0,0-1.6,3.85l0,.08h9.6v-.46a5.23,5.23,0,0,0-1.26-3.57A4.29,4.29,0,0,0,728.73,223.88Z"/><path class="cls-47" d="M738.07,216.76v-1.35h4.27v22.08l2.47.2V239h-6.74v-1.33l2.47-.2V217Z"/><path class="cls-47" d="M754.89,239.34a6.62,6.62,0,0,1-5.12-2.26,8.31,8.31,0,0,1-2-5.76v-.84a8.5,8.5,0,0,1,2-5.82,6.22,6.22,0,0,1,4.88-2.32,6.05,6.05,0,0,1,4.73,1.91,7.23,7.23,0,0,1,1.73,5.08v1.55H749.55v.44a7.24,7.24,0,0,0,1.47,4.62,4.7,4.7,0,0,0,3.87,1.87,8,8,0,0,0,2.88-.47,5.69,5.69,0,0,0,2-1.35l.77,1.25a6.57,6.57,0,0,1-2.33,1.53A9,9,0,0,1,754.89,239.34Zm-.24-15.46a4.36,4.36,0,0,0-3.37,1.54,6.62,6.62,0,0,0-1.6,3.85l0,.08h9.6v-.46a5.23,5.23,0,0,0-1.26-3.57A4.27,4.27,0,0,0,754.65,223.88Z"/><path class="cls-47" d="M776.05,218.45v4.19h3.6v1.49h-3.6V234.8a3.55,3.55,0,0,0,.58,2.28,2,2,0,0,0,1.56.67,7.94,7.94,0,0,0,.85,0c.28,0,.6-.07,1-.13l.27,1.35a4.7,4.7,0,0,1-1.1.3,8.15,8.15,0,0,1-1.3.11,3.39,3.39,0,0,1-2.69-1.09,5.15,5.15,0,0,1-1-3.45V224.13H771.4v-1.49h2.82v-4.19Z"/><path class="cls-47" d="M790.2,239.34a6.58,6.58,0,0,1-5.11-2.26,8.27,8.27,0,0,1-2-5.76v-.84a8.5,8.5,0,0,1,2-5.82,6.24,6.24,0,0,1,4.88-2.32,6.08,6.08,0,0,1,4.74,1.91,7.27,7.27,0,0,1,1.72,5.08v1.55H784.86v.44a7.19,7.19,0,0,0,1.48,4.62,4.67,4.67,0,0,0,3.86,1.87,8,8,0,0,0,2.88-.47,5.52,5.52,0,0,0,2-1.35l.77,1.25a6.57,6.57,0,0,1-2.33,1.53A8.91,8.91,0,0,1,790.2,239.34ZM790,223.88a4.37,4.37,0,0,0-3.37,1.54,6.61,6.61,0,0,0-1.59,3.85l0,.08h9.59v-.46a5.27,5.27,0,0,0-1.25-3.57A4.3,4.3,0,0,0,790,223.88Z"/><path class="cls-47" d="M799.33,237.69l2.47-.2v-13.3l-2.47-.2v-1.35h4.07l.17,2.86a5.8,5.8,0,0,1,2.13-2.33,5.92,5.92,0,0,1,3.17-.83,5,5,0,0,1,4,1.63c.93,1.08,1.4,2.78,1.4,5.08v8.44l2.46.2V239H810v-1.33l2.47-.2v-8.43a5.93,5.93,0,0,0-1-4,3.81,3.81,0,0,0-3-1.16,4.68,4.68,0,0,0-3.11,1,5.67,5.67,0,0,0-1.74,2.67v9.9l2.47.2V239h-6.75Z"/><path class="cls-47" d="M819.1,216.76v-1.35h4.27v10a5.91,5.91,0,0,1,2.18-2.28,6,6,0,0,1,3.18-.82,5,5,0,0,1,4,1.61,7.48,7.48,0,0,1,1.39,5v8.56l2.46.2V239H829.8v-1.33l2.47-.2v-8.6a5.63,5.63,0,0,0-1-3.82,3.74,3.74,0,0,0-2.9-1.15,4.89,4.89,0,0,0-3.11,1,5.68,5.68,0,0,0-1.84,2.6v10l2.47.2V239H819.1v-1.33l2.47-.2V217Z"/><path class="cls-47" d="M850.58,239c-.12-.55-.2-1-.25-1.44a9.87,9.87,0,0,1-.08-1.22,7.18,7.18,0,0,1-2.42,2.13,6.82,6.82,0,0,1-3.41.85,5.21,5.21,0,0,1-3.72-1.24,4.4,4.4,0,0,1-1.32-3.36,4.15,4.15,0,0,1,2-3.61,9.31,9.31,0,0,1,5.29-1.33h3.62v-2.16a3.48,3.48,0,0,0-1.13-2.76,4.61,4.61,0,0,0-3.15-1,7.84,7.84,0,0,0-2.49.38,5.66,5.66,0,0,0-1.89,1l-.15,2.2h-1.5l0-3.15a9.15,9.15,0,0,1,2.71-1.42,10.14,10.14,0,0,1,3.37-.55,6.57,6.57,0,0,1,4.36,1.38,4.85,4.85,0,0,1,1.65,3.95v8.05c0,.33,0,.66,0,1a6.53,6.53,0,0,0,.09.9l1.64.11V239Zm-6-1.29a6.62,6.62,0,0,0,3.47-.9,5.35,5.35,0,0,0,2.16-2.35V231.2H846.6a6.81,6.81,0,0,0-3.94,1,3.05,3.05,0,0,0-1.48,2.58,2.68,2.68,0,0,0,.92,2.12A3.67,3.67,0,0,0,844.62,237.73Z"/><path class="cls-47" d="M875.3,236.66a5.53,5.53,0,0,1-2.1,2,6.22,6.22,0,0,1-3,.7,5.4,5.4,0,0,1-4.59-2.2,9.43,9.43,0,0,1-1.66-5.85V231a10.69,10.69,0,0,1,1.66-6.28,5.34,5.34,0,0,1,4.62-2.35,5.63,5.63,0,0,1,5.06,2.77V217l-2.47-.19v-1.35h4.28v22.08l2.47.2V239h-4.09Zm-9.55-5.37a8.33,8.33,0,0,0,1.19,4.72,4,4,0,0,0,3.58,1.76,5.14,5.14,0,0,0,2.91-.79,5.35,5.35,0,0,0,1.83-2.17v-7.75a5.74,5.74,0,0,0-1.75-2.27,4.75,4.75,0,0,0-3-.87,4,4,0,0,0-3.6,2,9.61,9.61,0,0,0-1.2,5.09Z"/><path class="cls-47" d="M889.55,239.34a6.6,6.6,0,0,1-5.12-2.26,8.32,8.32,0,0,1-2-5.76v-.84a8.55,8.55,0,0,1,2-5.82,6.25,6.25,0,0,1,4.88-2.32,6.08,6.08,0,0,1,4.74,1.91,7.28,7.28,0,0,1,1.73,5.08v1.55H884.2v.44a7.19,7.19,0,0,0,1.48,4.62,4.68,4.68,0,0,0,3.87,1.87,7.88,7.88,0,0,0,2.87-.47,5.52,5.52,0,0,0,2-1.35l.78,1.25a6.75,6.75,0,0,1-2.33,1.53A9,9,0,0,1,889.55,239.34Zm-.25-15.46a4.34,4.34,0,0,0-3.36,1.54,6.55,6.55,0,0,0-1.6,3.85l0,.08H894v-.46a5.23,5.23,0,0,0-1.26-3.57A4.29,4.29,0,0,0,889.3,223.88Z"/><path class="cls-47" d="M910.89,227.7h-1.48l-.22-2.32a4.55,4.55,0,0,0-1.71-1.1,6.8,6.8,0,0,0-2.39-.4,4.44,4.44,0,0,0-3,.86,2.58,2.58,0,0,0-1,2,2.36,2.36,0,0,0,.85,1.87,8.21,8.21,0,0,0,3.41,1.3,11.3,11.3,0,0,1,4.38,1.78,3.69,3.69,0,0,1,1.45,3.07,4,4,0,0,1-1.66,3.31,7,7,0,0,1-4.38,1.26,10.11,10.11,0,0,1-3.3-.51,7.83,7.83,0,0,1-2.59-1.43v-3.3h1.47l.26,2.33a4.2,4.2,0,0,0,1.84,1.06,8.49,8.49,0,0,0,2.32.32,5.08,5.08,0,0,0,3.11-.86,2.57,2.57,0,0,0,1.13-2.09,2.64,2.64,0,0,0-.95-2,7.54,7.54,0,0,0-3.41-1.41,11.67,11.67,0,0,1-4.34-1.69,3.45,3.45,0,0,1-1.41-2.94,4,4,0,0,1,1.59-3.18,6.45,6.45,0,0,1,4.19-1.29,9.58,9.58,0,0,1,3.29.55,6.64,6.64,0,0,1,2.43,1.49Z"/><path class="cls-47" d="M914,224v-1.35h4l.23,2.55a6,6,0,0,1,2.12-2.11,6.08,6.08,0,0,1,3-.74,5.35,5.35,0,0,1,4.61,2.35,10.69,10.69,0,0,1,1.67,6.28v.32a9.44,9.44,0,0,1-1.67,5.86,5.44,5.44,0,0,1-4.58,2.19,6.56,6.56,0,0,1-3-.66,5.44,5.44,0,0,1-2.11-1.87v7l2.46.2v1.35H914V244l2.46-.2V224.19Zm13.83,7a9.38,9.38,0,0,0-1.24-5.09,4,4,0,0,0-3.63-2,4.81,4.81,0,0,0-3,.87,5.3,5.3,0,0,0-1.71,2.26v7.87A5,5,0,0,0,920.1,237a5.26,5.26,0,0,0,2.93.77,4.12,4.12,0,0,0,3.61-1.79,8.2,8.2,0,0,0,1.23-4.73Z"/><path class="cls-47" d="M939.86,239.34a6.58,6.58,0,0,1-5.11-2.26,8.27,8.27,0,0,1-2-5.76v-.84a8.5,8.5,0,0,1,2-5.82,6.24,6.24,0,0,1,4.88-2.32,6.08,6.08,0,0,1,4.74,1.91,7.27,7.27,0,0,1,1.72,5.08v1.55H934.52v.44a7.24,7.24,0,0,0,1.47,4.62,4.7,4.7,0,0,0,3.87,1.87,8,8,0,0,0,2.88-.47,5.6,5.6,0,0,0,2-1.35l.77,1.25a6.57,6.57,0,0,1-2.33,1.53A9,9,0,0,1,939.86,239.34Zm-.24-15.46a4.36,4.36,0,0,0-3.37,1.54,6.68,6.68,0,0,0-1.6,3.85l0,.08h9.6v-.46a5.23,5.23,0,0,0-1.26-3.57A4.27,4.27,0,0,0,939.62,223.88Z"/><path class="cls-47" d="M953.24,222.64l.23,2.73v.19a5.82,5.82,0,0,1,1.9-2.36,4.79,4.79,0,0,1,2.85-.86,5.06,5.06,0,0,1,.68,0l.53.12-.24,1.69-1.35-.09a4.09,4.09,0,0,0-2.8,1,5.22,5.22,0,0,0-1.57,2.64v9.78l2.47.2V239H949.2v-1.33l2.47-.2v-13.3l-2.47-.2v-1.35h4Z"/><path class="cls-47" d="M966.43,218.45v4.19H970v1.49h-3.6V234.8a3.49,3.49,0,0,0,.58,2.28,2,2,0,0,0,1.55.67,8.12,8.12,0,0,0,.86,0c.27,0,.59-.07,1-.13l.27,1.35a4.7,4.7,0,0,1-1.1.3,8.27,8.27,0,0,1-1.31.11,3.37,3.37,0,0,1-2.68-1.09,5.15,5.15,0,0,1-1-3.45V224.13h-2.81v-1.49h2.81v-4.19Z"/><path class="cls-47" d="M984.67,239c-.12-.55-.21-1-.26-1.44a9.87,9.87,0,0,1-.08-1.22,7.18,7.18,0,0,1-2.42,2.13,6.78,6.78,0,0,1-3.4.85,5.22,5.22,0,0,1-3.73-1.24,4.43,4.43,0,0,1-1.31-3.36,4.16,4.16,0,0,1,1.95-3.61,9.34,9.34,0,0,1,5.3-1.33h3.61v-2.16a3.51,3.51,0,0,0-1.12-2.76,4.66,4.66,0,0,0-3.16-1,7.84,7.84,0,0,0-2.49.38,5.51,5.51,0,0,0-1.88,1l-.16,2.2H974v-3.15a9.21,9.21,0,0,1,2.72-1.42,10.09,10.09,0,0,1,3.37-.55,6.58,6.58,0,0,1,4.36,1.38,4.85,4.85,0,0,1,1.65,3.95v8.05c0,.33,0,.66,0,1a6.52,6.52,0,0,0,.1.9l1.63.11V239Zm-6-1.29a6.62,6.62,0,0,0,3.47-.9,5.35,5.35,0,0,0,2.16-2.35V231.2h-3.64a6.84,6.84,0,0,0-4,1,3,3,0,0,0-1.47,2.58,2.67,2.67,0,0,0,.91,2.12A3.67,3.67,0,0,0,978.7,237.73Z"/><path class="cls-47" d="M1001.85,236.66a5.63,5.63,0,0,1-2.11,2,6.15,6.15,0,0,1-3,.7,5.44,5.44,0,0,1-4.6-2.2,9.49,9.49,0,0,1-1.66-5.85V231a10.76,10.76,0,0,1,1.66-6.28,5.37,5.37,0,0,1,4.63-2.35,5.63,5.63,0,0,1,5,2.77V217l-2.47-.19v-1.35h4.29v22.08l2.47.2V239H1002Zm-9.55-5.37a8.33,8.33,0,0,0,1.18,4.72,4.05,4.05,0,0,0,3.58,1.76A5.17,5.17,0,0,0,1000,237a5.25,5.25,0,0,0,1.82-2.17v-7.75a5.56,5.56,0,0,0-1.75-2.27,4.75,4.75,0,0,0-3-.87,3.93,3.93,0,0,0-3.59,2,9.61,9.61,0,0,0-1.2,5.09Z"/><path class="cls-47" d="M1008.87,230.59a8.8,8.8,0,0,1,2-5.93,7.12,7.12,0,0,1,10.52,0,8.75,8.75,0,0,1,2,5.93v.5a8.81,8.81,0,0,1-2,5.94,6.55,6.55,0,0,1-5.24,2.31,6.64,6.64,0,0,1-5.29-2.31,8.81,8.81,0,0,1-2-5.94Zm1.82.5a7.78,7.78,0,0,0,1.44,4.78,5.06,5.06,0,0,0,8,0,7.78,7.78,0,0,0,1.44-4.78v-.5a7.71,7.71,0,0,0-1.45-4.75,5,5,0,0,0-8,0,7.77,7.77,0,0,0-1.44,4.75Z"/><path class="cls-47" d="M1041.07,239.34a6.6,6.6,0,0,1-5.12-2.26,8.32,8.32,0,0,1-2-5.76v-.84a8.55,8.55,0,0,1,2-5.82,6.25,6.25,0,0,1,4.88-2.32,6.08,6.08,0,0,1,4.74,1.91,7.28,7.28,0,0,1,1.73,5.08v1.55h-11.57v.44a7.19,7.19,0,0,0,1.48,4.62,4.68,4.68,0,0,0,3.87,1.87,7.88,7.88,0,0,0,2.87-.47,5.64,5.64,0,0,0,2-1.35l.77,1.25a6.66,6.66,0,0,1-2.33,1.53A9,9,0,0,1,1041.07,239.34Zm-.25-15.46a4.34,4.34,0,0,0-3.36,1.54,6.55,6.55,0,0,0-1.6,3.85l0,.08h9.6v-.46a5.23,5.23,0,0,0-1.26-3.57A4.29,4.29,0,0,0,1040.82,223.88Z"/><path class="cls-47" d="M1050.13,224v-1.35h4.08l.16,2.71a5.72,5.72,0,0,1,2.11-2.22,5.92,5.92,0,0,1,3.13-.79,5.18,5.18,0,0,1,3.13.92,5,5,0,0,1,1.8,2.79,6.38,6.38,0,0,1,2.12-2.72,5.52,5.52,0,0,1,3.33-1,4.94,4.94,0,0,1,4,1.74c1,1.16,1.43,3,1.43,5.39v8l2.47.21V239h-6.77v-1.33l2.47-.21v-8c0-2-.35-3.44-1.07-4.28a3.69,3.69,0,0,0-3-1.24,4,4,0,0,0-3.26,1.34,6.51,6.51,0,0,0-1.42,3.44,1.77,1.77,0,0,0,0,.23c0,.07,0,.16,0,.27v8.29l2.46.2V239h-6.75v-1.33l2.47-.2v-8.05a6.62,6.62,0,0,0-1.08-4.25,3.69,3.69,0,0,0-3-1.27,4.51,4.51,0,0,0-3.06,1,5.19,5.19,0,0,0-1.58,2.63v10l2.46.2V239h-6.75v-1.33l2.47-.2v-13.3Z"/><path class="cls-47" d="M559.41,261.19l-2,.15,4.09,10.78L562,274h.09l.57-1.92,4-10.78-2-.15v-1.35h5.51v1.35l-1.61.14-5.78,14.89h-1.45l-5.8-14.89-1.61-.14v-1.35h5.51Z"/><path class="cls-47" d="M571.92,267.79a8.8,8.8,0,0,1,2-5.93,7.12,7.12,0,0,1,10.52,0,8.8,8.8,0,0,1,2,5.93v.5a8.85,8.85,0,0,1-2,5.94,7.16,7.16,0,0,1-10.53,0,8.81,8.81,0,0,1-2-5.94Zm1.81.5a7.78,7.78,0,0,0,1.44,4.78,4.7,4.7,0,0,0,4,1.94,4.65,4.65,0,0,0,4-1.94,7.78,7.78,0,0,0,1.44-4.78v-.5a7.77,7.77,0,0,0-1.45-4.75,5,5,0,0,0-8,0,7.77,7.77,0,0,0-1.44,4.75Z"/><path class="cls-47" d="M596.35,275a5.15,5.15,0,0,0,3.18-1,3.39,3.39,0,0,0,1.37-2.86h1.61l0,.09a4.49,4.49,0,0,1-1.81,3.8,6.76,6.76,0,0,1-4.38,1.53,6.22,6.22,0,0,1-5.16-2.29,9.13,9.13,0,0,1-1.84-5.9v-.64a9.1,9.1,0,0,1,1.84-5.87,6.2,6.2,0,0,1,5.14-2.3,8.41,8.41,0,0,1,3.47.71,6.88,6.88,0,0,1,2.56,1.94l.07,3.57h-1.54l-.29-2.9a5.12,5.12,0,0,0-1.81-1.3,6,6,0,0,0-2.46-.48,4.38,4.38,0,0,0-3.9,1.89,8.37,8.37,0,0,0-1.26,4.74v.64a8.39,8.39,0,0,0,1.26,4.78A4.37,4.37,0,0,0,596.35,275Z"/><path class="cls-47" d="M613.13,276.54a6.55,6.55,0,0,1-5.11-2.26,8.27,8.27,0,0,1-2-5.76v-.84a8.5,8.5,0,0,1,2-5.82,6.24,6.24,0,0,1,4.88-2.32,6.08,6.08,0,0,1,4.74,1.91,7.29,7.29,0,0,1,1.72,5.08v1.55H607.79v.44a7.19,7.19,0,0,0,1.48,4.62,4.67,4.67,0,0,0,3.86,1.87,8,8,0,0,0,2.88-.47,5.52,5.52,0,0,0,2-1.35l.77,1.25a6.57,6.57,0,0,1-2.33,1.53A9,9,0,0,1,613.13,276.54Zm-.24-15.46a4.37,4.37,0,0,0-3.37,1.54,6.61,6.61,0,0,0-1.59,3.85l0,.08h9.59v-.46a5.27,5.27,0,0,0-1.25-3.57A4.3,4.3,0,0,0,612.89,261.08Zm4.28-4.38V257h-1.69L613,254.42,610.44,257h-1.65v-.32l3.42-3.35h1.48Z"/><path class="cls-47" d="M630.13,267.79a8.8,8.8,0,0,1,2-5.93,7.12,7.12,0,0,1,10.52,0,8.75,8.75,0,0,1,2,5.93v.5a8.81,8.81,0,0,1-2,5.94,6.54,6.54,0,0,1-5.24,2.31,6.64,6.64,0,0,1-5.29-2.31,8.81,8.81,0,0,1-2-5.94Zm1.82.5a7.78,7.78,0,0,0,1.44,4.78,5.06,5.06,0,0,0,8,0,7.78,7.78,0,0,0,1.44-4.78v-.5a7.77,7.77,0,0,0-1.44-4.75,4.72,4.72,0,0,0-4-2,4.66,4.66,0,0,0-4,2,7.77,7.77,0,0,0-1.44,4.75Z"/><path class="cls-47" d="M655,274.89l2.46-.2v-13.3l-2.46-.2v-1.35h4.26v14.85l2.47.2v1.33H655Zm4.26-19.74h-1.8v-2.54h1.8Z"/><path class="cls-47" d="M664.43,274.89l2.47-.2v-13.3l-2.47-.2v-1.35h4.07l.17,2.86a5.8,5.8,0,0,1,2.13-2.33,5.92,5.92,0,0,1,3.17-.83,5,5,0,0,1,4,1.63c.93,1.08,1.4,2.78,1.4,5.08v8.44l2.46.2v1.33h-6.75v-1.33l2.47-.2v-8.43a5.93,5.93,0,0,0-1.05-4,3.81,3.81,0,0,0-3-1.16,4.68,4.68,0,0,0-3.11,1,5.67,5.67,0,0,0-1.74,2.67v9.9l2.47.2v1.33h-6.75Z"/><path class="cls-47" d="M688.89,255.65v4.19h3.61v1.49h-3.61V272a3.49,3.49,0,0,0,.59,2.28A1.92,1.92,0,0,0,691,275a7.81,7.81,0,0,0,.85,0c.28,0,.6-.07,1-.13l.28,1.35a4.79,4.79,0,0,1-1.11.3,8.15,8.15,0,0,1-1.3.11,3.39,3.39,0,0,1-2.69-1.09,5.15,5.15,0,0,1-1-3.45V261.33h-2.81v-1.49h2.81v-4.19Z"/><path class="cls-47" d="M703.05,276.54a6.57,6.57,0,0,1-5.12-2.26,8.32,8.32,0,0,1-2-5.76v-.84a8.55,8.55,0,0,1,2-5.82,6.25,6.25,0,0,1,4.88-2.32,6.08,6.08,0,0,1,4.74,1.91,7.29,7.29,0,0,1,1.73,5.08v1.55H697.7v.44a7.24,7.24,0,0,0,1.48,4.62,4.68,4.68,0,0,0,3.87,1.87,7.88,7.88,0,0,0,2.87-.47,5.64,5.64,0,0,0,2.05-1.35l.77,1.25a6.66,6.66,0,0,1-2.33,1.53A9,9,0,0,1,703.05,276.54Zm-.25-15.46a4.34,4.34,0,0,0-3.36,1.54,6.55,6.55,0,0,0-1.6,3.85l0,.08h9.6v-.46a5.23,5.23,0,0,0-1.26-3.57A4.29,4.29,0,0,0,702.8,261.08Z"/><path class="cls-47" d="M716.43,259.84l.22,2.73v.19a5.9,5.9,0,0,1,1.9-2.36,4.84,4.84,0,0,1,2.86-.86,4.91,4.91,0,0,1,.67,0l.54.12-.24,1.69-1.35-.09a4.11,4.11,0,0,0-2.81,1,5.35,5.35,0,0,0-1.57,2.65v9.77l2.47.2v1.33h-6.73v-1.33l2.46-.2v-13.3l-2.46-.2v-1.35h4Z"/><path class="cls-47" d="M731.9,276.54a6.57,6.57,0,0,1-5.12-2.26,8.32,8.32,0,0,1-2-5.76v-.84a8.55,8.55,0,0,1,2-5.82,6.26,6.26,0,0,1,4.89-2.32,6.07,6.07,0,0,1,4.73,1.91,7.29,7.29,0,0,1,1.73,5.08v1.55H726.55v.44a7.24,7.24,0,0,0,1.48,4.62A4.68,4.68,0,0,0,731.9,275a7.88,7.88,0,0,0,2.87-.47,5.64,5.64,0,0,0,2.05-1.35l.77,1.25a6.66,6.66,0,0,1-2.33,1.53A9,9,0,0,1,731.9,276.54Zm-.24-15.46a4.34,4.34,0,0,0-3.37,1.54,6.55,6.55,0,0,0-1.6,3.85l0,.08h9.6v-.46a5.23,5.23,0,0,0-1.26-3.57A4.28,4.28,0,0,0,731.66,261.08Z"/><path class="cls-47" d="M753.24,264.9h-1.48l-.21-2.32a4.67,4.67,0,0,0-1.72-1.1,6.76,6.76,0,0,0-2.39-.4,4.44,4.44,0,0,0-3,.86,2.58,2.58,0,0,0-1,2,2.36,2.36,0,0,0,.85,1.87,8.21,8.21,0,0,0,3.42,1.3,11.32,11.32,0,0,1,4.37,1.78,3.69,3.69,0,0,1,1.45,3.07,4,4,0,0,1-1.65,3.31,7.08,7.08,0,0,1-4.39,1.26,10.11,10.11,0,0,1-3.3-.51,7.69,7.69,0,0,1-2.58-1.43v-3.3h1.46l.26,2.33a4.25,4.25,0,0,0,1.84,1.06,8.49,8.49,0,0,0,2.32.32,5.06,5.06,0,0,0,3.11-.86,2.57,2.57,0,0,0,1.13-2.09,2.63,2.63,0,0,0-.94-2,7.59,7.59,0,0,0-3.42-1.41,11.54,11.54,0,0,1-4.33-1.69,3.44,3.44,0,0,1-1.42-2.94,4,4,0,0,1,1.59-3.18,6.45,6.45,0,0,1,4.19-1.29,9.68,9.68,0,0,1,3.3.55,6.81,6.81,0,0,1,2.43,1.49Z"/><path class="cls-47" d="M768.75,264.9h-1.48l-.21-2.32a4.59,4.59,0,0,0-1.72-1.1,6.7,6.7,0,0,0-2.38-.4,4.47,4.47,0,0,0-3,.86,2.58,2.58,0,0,0-1,2,2.37,2.37,0,0,0,.86,1.87,8.15,8.15,0,0,0,3.41,1.3,11.18,11.18,0,0,1,4.37,1.78,3.7,3.7,0,0,1,1.46,3.07,4,4,0,0,1-1.66,3.31,7,7,0,0,1-4.38,1.26,10.17,10.17,0,0,1-3.31-.51,7.88,7.88,0,0,1-2.58-1.43v-3.3h1.47l.26,2.33a4.16,4.16,0,0,0,1.83,1.06,8.57,8.57,0,0,0,2.33.32,5,5,0,0,0,3.1-.86,2.56,2.56,0,0,0,1.14-2.09,2.64,2.64,0,0,0-.95-2,7.59,7.59,0,0,0-3.41-1.41,11.6,11.6,0,0,1-4.34-1.69,3.45,3.45,0,0,1-1.41-2.94,4,4,0,0,1,1.58-3.18,6.46,6.46,0,0,1,4.2-1.29,9.58,9.58,0,0,1,3.29.55,6.81,6.81,0,0,1,2.43,1.49Z"/><path class="cls-47" d="M779.61,276.54a6.57,6.57,0,0,1-5.12-2.26,8.32,8.32,0,0,1-2-5.76v-.84a8.55,8.55,0,0,1,2-5.82,6.26,6.26,0,0,1,4.89-2.32,6.07,6.07,0,0,1,4.73,1.91,7.29,7.29,0,0,1,1.73,5.08v1.55H774.27v.44a7.24,7.24,0,0,0,1.47,4.62,4.68,4.68,0,0,0,3.87,1.87,7.88,7.88,0,0,0,2.87-.47,5.64,5.64,0,0,0,2-1.35l.77,1.25A6.66,6.66,0,0,1,783,276,9,9,0,0,1,779.61,276.54Zm-.24-15.46a4.34,4.34,0,0,0-3.37,1.54,6.62,6.62,0,0,0-1.6,3.85l0,.08H784v-.46a5.23,5.23,0,0,0-1.26-3.57A4.28,4.28,0,0,0,779.37,261.08Z"/><path class="cls-47" d="M803.83,276.54a6.57,6.57,0,0,1-5.12-2.26,8.32,8.32,0,0,1-2-5.76v-.84a8.55,8.55,0,0,1,2-5.82,6.26,6.26,0,0,1,4.89-2.32,6.07,6.07,0,0,1,4.73,1.91,7.29,7.29,0,0,1,1.73,5.08v1.55H798.48v.44a7.24,7.24,0,0,0,1.48,4.62,4.68,4.68,0,0,0,3.87,1.87,7.88,7.88,0,0,0,2.87-.47,5.64,5.64,0,0,0,2-1.35l.77,1.25a6.66,6.66,0,0,1-2.33,1.53A9,9,0,0,1,803.83,276.54Zm-.24-15.46a4.34,4.34,0,0,0-3.37,1.54,6.55,6.55,0,0,0-1.6,3.85l0,.08h9.6v-.46a5.23,5.23,0,0,0-1.26-3.57A4.28,4.28,0,0,0,803.59,261.08Z"/><path class="cls-47" d="M812.89,261.19v-1.35H817l.16,2.71a5.72,5.72,0,0,1,2.11-2.22,5.92,5.92,0,0,1,3.13-.79,5.16,5.16,0,0,1,3.13.92,5,5,0,0,1,1.8,2.79,6.38,6.38,0,0,1,2.12-2.72,5.52,5.52,0,0,1,3.33-1,4.94,4.94,0,0,1,4,1.74c1,1.16,1.43,3,1.43,5.39v8l2.47.21v1.33h-6.77v-1.33l2.47-.21v-8c0-2-.35-3.44-1.07-4.28a3.69,3.69,0,0,0-3-1.24,4,4,0,0,0-3.26,1.34,6.51,6.51,0,0,0-1.42,3.44,1.77,1.77,0,0,0,0,.23,2.1,2.1,0,0,1,0,.27v8.29l2.47.2v1.33h-6.76v-1.33l2.47-.2v-8.05a6.62,6.62,0,0,0-1.08-4.25,3.68,3.68,0,0,0-3-1.27,4.52,4.52,0,0,0-3.07,1,5.19,5.19,0,0,0-1.58,2.63v10l2.47.2v1.33h-6.76v-1.33l2.47-.2v-13.3Z"/><path class="cls-47" d="M854.4,259.84l.23,2.73v.19a5.74,5.74,0,0,1,1.9-2.36,5,5,0,0,1,3.52-.81l.54.12-.24,1.69-1.35-.09a4.11,4.11,0,0,0-2.81,1,5.26,5.26,0,0,0-1.56,2.65v9.77l2.46.2v1.33h-6.73v-1.33l2.47-.2v-13.3l-2.47-.2v-1.35h4Z"/><path class="cls-47" d="M869.87,276.54a6.59,6.59,0,0,1-5.12-2.26,8.32,8.32,0,0,1-2-5.76v-.84a8.51,8.51,0,0,1,2-5.82,6.22,6.22,0,0,1,4.88-2.32,6.07,6.07,0,0,1,4.73,1.91,7.29,7.29,0,0,1,1.73,5.08v1.55H864.53v.44a7.24,7.24,0,0,0,1.47,4.62,4.69,4.69,0,0,0,3.87,1.87,8,8,0,0,0,2.88-.47,5.69,5.69,0,0,0,2-1.35l.77,1.25a6.57,6.57,0,0,1-2.33,1.53A9,9,0,0,1,869.87,276.54Zm-.24-15.46a4.36,4.36,0,0,0-3.37,1.54,6.62,6.62,0,0,0-1.6,3.85l0,.08h9.6v-.46a5.23,5.23,0,0,0-1.26-3.57A4.27,4.27,0,0,0,869.63,261.08Z"/><path class="cls-47" d="M890,254.11a13.69,13.69,0,0,0-2.21-.17,4.76,4.76,0,0,0-3.43,1.07,4.31,4.31,0,0,0-1.08,3.18v1.65h4.22v1.49h-4.22v13.36l2.47.2v1.33H879v-1.33l2.46-.2V261.33h-2.39v-1.49h2.39v-1.65a5.69,5.69,0,0,1,1.65-4.36,6.49,6.49,0,0,1,4.58-1.54,13.9,13.9,0,0,1,2.67.27,16.53,16.53,0,0,1,2.74.77h.67v21.36l2.47.2v1.33H889.5v-1.33l2.47-.2v-20.1A15.73,15.73,0,0,0,890,254.11Z"/><path class="cls-47" d="M906.59,276.54a6.55,6.55,0,0,1-5.11-2.26,8.27,8.27,0,0,1-2-5.76v-.84a8.5,8.5,0,0,1,2-5.82,6.24,6.24,0,0,1,4.88-2.32,6.08,6.08,0,0,1,4.74,1.91,7.29,7.29,0,0,1,1.72,5.08v1.55H901.25v.44a7.24,7.24,0,0,0,1.47,4.62,4.7,4.7,0,0,0,3.87,1.87,8,8,0,0,0,2.88-.47,5.6,5.6,0,0,0,2-1.35l.77,1.25A6.57,6.57,0,0,1,910,276,9,9,0,0,1,906.59,276.54Zm-.24-15.46a4.36,4.36,0,0,0-3.37,1.54,6.68,6.68,0,0,0-1.6,3.85l0,.08H911v-.46a5.23,5.23,0,0,0-1.26-3.57A4.27,4.27,0,0,0,906.35,261.08Z"/><path class="cls-47" d="M920.21,255.65v4.19h3.61v1.49h-3.61V272a3.49,3.49,0,0,0,.59,2.28,1.92,1.92,0,0,0,1.55.67,7.81,7.81,0,0,0,.85,0c.28,0,.6-.07,1-.13l.27,1.35a4.79,4.79,0,0,1-1.11.3,8.15,8.15,0,0,1-1.3.11,3.39,3.39,0,0,1-2.69-1.09,5.15,5.15,0,0,1-1-3.45V261.33h-2.81v-1.49h2.81v-4.19Z"/><path class="cls-47" d="M927,274.89l2.46-.2v-13.3l-2.46-.2v-1.35h4.26v14.85l2.47.2v1.33H927Zm4.26-19.74h-1.8v-2.54h1.8Z"/><path class="cls-47" d="M940.73,259.84l.22,2.73v.19a5.9,5.9,0,0,1,1.9-2.36,4.82,4.82,0,0,1,2.86-.86,4.91,4.91,0,0,1,.67,0l.54.12-.25,1.69-1.34-.09a4.11,4.11,0,0,0-2.81,1,5.35,5.35,0,0,0-1.57,2.65v9.77l2.47.2v1.33h-6.74v-1.33l2.47-.2v-13.3l-2.47-.2v-1.35h4.05Z"/><path class="cls-47" d="M964,276.54a6.55,6.55,0,0,1-5.11-2.26,8.27,8.27,0,0,1-2-5.76v-.84a8.5,8.5,0,0,1,2-5.82,6.24,6.24,0,0,1,4.88-2.32,6.08,6.08,0,0,1,4.74,1.91,7.29,7.29,0,0,1,1.72,5.08v1.55H958.68v.44a7.24,7.24,0,0,0,1.47,4.62A4.7,4.7,0,0,0,964,275a8,8,0,0,0,2.88-.47,5.6,5.6,0,0,0,2-1.35l.77,1.25a6.57,6.57,0,0,1-2.33,1.53A9,9,0,0,1,964,276.54Zm-.24-15.46a4.36,4.36,0,0,0-3.37,1.54,6.68,6.68,0,0,0-1.6,3.85l0,.08h9.6v-.46a5.23,5.23,0,0,0-1.26-3.57A4.27,4.27,0,0,0,963.78,261.08Z"/><path class="cls-47" d="M554.54,312.09l2.47-.2v-13.3l-2.47-.2V297h4.27v14.85l2.47.2v1.33h-6.74Zm4.27-19.74H557v-2.54h1.8Z"/><path class="cls-47" d="M575.7,311.06a5.61,5.61,0,0,1-2.1,2,6.22,6.22,0,0,1-3,.7,5.4,5.4,0,0,1-4.59-2.2,9.43,9.43,0,0,1-1.66-5.85v-.32a10.69,10.69,0,0,1,1.66-6.28,5.34,5.34,0,0,1,4.62-2.35,5.89,5.89,0,0,1,3,.72,6,6,0,0,1,2.09,2.05v-8.16l-2.47-.19v-1.35h4.28v22.08l2.47.2v1.33h-4.09Zm-9.55-5.37a8.31,8.31,0,0,0,1.19,4.72,4,4,0,0,0,3.58,1.76,5.14,5.14,0,0,0,2.91-.79,5.35,5.35,0,0,0,1.83-2.17v-7.75a5.81,5.81,0,0,0-1.75-2.27,4.77,4.77,0,0,0-3-.87,4,4,0,0,0-3.6,2,9.61,9.61,0,0,0-1.2,5.09Z"/><path class="cls-47" d="M589.94,313.74a6.57,6.57,0,0,1-5.11-2.26,8.32,8.32,0,0,1-2-5.76v-.84a8.5,8.5,0,0,1,2-5.82,6.25,6.25,0,0,1,4.88-2.32,6.08,6.08,0,0,1,4.74,1.91,7.29,7.29,0,0,1,1.73,5.08v1.55H584.6v.44a7.19,7.19,0,0,0,1.48,4.62,4.67,4.67,0,0,0,3.86,1.87,8,8,0,0,0,2.88-.47,5.52,5.52,0,0,0,2-1.35l.78,1.25a6.7,6.7,0,0,1-2.34,1.53A8.88,8.88,0,0,1,589.94,313.74Zm-.24-15.45a4.36,4.36,0,0,0-3.37,1.53,6.61,6.61,0,0,0-1.59,3.85l0,.08h9.59v-.46a5.22,5.22,0,0,0-1.25-3.57A4.3,4.3,0,0,0,589.7,298.29Z"/><path class="cls-47" d="M599.07,312.09l2.47-.2v-13.3l-2.47-.2V297h4.07l.17,2.86a5.68,5.68,0,0,1,5.3-3.16,5,5,0,0,1,4.06,1.63,7.74,7.74,0,0,1,1.39,5.08v8.44l2.46.2v1.33h-6.75v-1.33l2.47-.2v-8.43a5.93,5.93,0,0,0-1-4,3.81,3.81,0,0,0-3-1.16,4.68,4.68,0,0,0-3.11,1,5.58,5.58,0,0,0-1.73,2.67v9.9l2.46.2v1.33h-6.75Z"/><path class="cls-47" d="M623.53,292.85V297h3.6v1.49h-3.6V309.2a3.49,3.49,0,0,0,.59,2.28,1.92,1.92,0,0,0,1.55.67,7.94,7.94,0,0,0,.85,0c.28,0,.6-.07,1-.13l.27,1.35a4.7,4.7,0,0,1-1.1.3,8.15,8.15,0,0,1-1.3.11,3.39,3.39,0,0,1-2.69-1.09,5.15,5.15,0,0,1-1-3.45V298.53h-2.81V297h2.81v-4.19Z"/><path class="cls-47" d="M630.34,312.09l2.47-.2v-13.3l-2.47-.2V297h4.27v14.85l2.47.2v1.33h-6.74Zm4.27-19.74h-1.8v-2.54h1.8Z"/><path class="cls-47" d="M639.79,312.09l2.47-.2V298.53h-2.71V297h2.71V295a5,5,0,0,1,5.45-5.47,9.74,9.74,0,0,1,2,.23,12.88,12.88,0,0,1,2.12.66l-.29,1.56a12,12,0,0,0-1.78-.59,8.62,8.62,0,0,0-2-.21,3.68,3.68,0,0,0-2.79,1,3.9,3.9,0,0,0-.95,2.83V297h9.4v14.85l2.47.2v1.33h-6.73v-1.33l2.46-.2V298.53h-7.6v13.36l2.47.2v1.33h-6.75Z"/><path class="cls-47" d="M665.42,312.21a5.1,5.1,0,0,0,3.17-1,3.36,3.36,0,0,0,1.38-2.86h1.61l0,.09a4.51,4.51,0,0,1-1.81,3.8,6.76,6.76,0,0,1-4.38,1.53,6.24,6.24,0,0,1-5.17-2.29,9.18,9.18,0,0,1-1.83-5.9v-.63a9.16,9.16,0,0,1,1.83-5.88,6.22,6.22,0,0,1,5.15-2.3,8.41,8.41,0,0,1,3.47.71,6.77,6.77,0,0,1,2.55,1.94l.08,3.57H670l-.29-2.9a5.22,5.22,0,0,0-1.81-1.3,6,6,0,0,0-2.46-.47,4.35,4.35,0,0,0-3.9,1.88,8.38,8.38,0,0,0-1.26,4.75v.63a8.39,8.39,0,0,0,1.26,4.78A4.37,4.37,0,0,0,665.42,312.21Z"/><path class="cls-47" d="M686.29,313.42c-.12-.55-.21-1-.26-1.44a9.87,9.87,0,0,1-.07-1.22,7.2,7.2,0,0,1-2.43,2.13,6.76,6.76,0,0,1-3.4.85,5.22,5.22,0,0,1-3.73-1.24,4.43,4.43,0,0,1-1.31-3.36,4.14,4.14,0,0,1,1.95-3.6,9.26,9.26,0,0,1,5.3-1.34H686V302a3.52,3.52,0,0,0-1.13-2.76,4.64,4.64,0,0,0-3.16-1,7.84,7.84,0,0,0-2.49.37,5.51,5.51,0,0,0-1.88,1l-.15,2.2h-1.5v-3.15a9.33,9.33,0,0,1,2.72-1.42,10.09,10.09,0,0,1,3.37-.55,6.58,6.58,0,0,1,4.36,1.38,4.85,4.85,0,0,1,1.65,3.95v8.05c0,.34,0,.66,0,1a8.54,8.54,0,0,0,.1.9l1.63.11v1.33Zm-6-1.29a6.59,6.59,0,0,0,3.46-.9,5.43,5.43,0,0,0,2.17-2.35V305.6h-3.65a6.79,6.79,0,0,0-3.94,1,3,3,0,0,0-1.48,2.58,2.7,2.7,0,0,0,.91,2.13A3.71,3.71,0,0,0,680.33,312.13Z"/><path class="cls-47" d="M696,297l.22,2.73V300a5.9,5.9,0,0,1,1.9-2.36,4.84,4.84,0,0,1,2.86-.86,4.91,4.91,0,0,1,.67.05l.54.12L702,298.6l-1.35-.09a4.11,4.11,0,0,0-2.81,1,5.35,5.35,0,0,0-1.57,2.65v9.77l2.47.2v1.33H692v-1.33l2.46-.2v-13.3l-2.46-.2V297h4Z"/><path class="cls-47" d="M705.32,312.7a6.88,6.88,0,0,1-.57,2.72,6.74,6.74,0,0,1-1.55,2.26l-1.08-.79a7.62,7.62,0,0,0,1-2,6.6,6.6,0,0,0,.34-2.18v-2.15h1.81Z"/><path class="cls-47" d="M715.82,312.09l2.47-.2v-13.3l-2.47-.2V297h4.07l.17,2.86a5.84,5.84,0,0,1,2.12-2.33,6,6,0,0,1,3.18-.83,5,5,0,0,1,4,1.63c.93,1.08,1.4,2.78,1.4,5.08v8.44l2.46.2v1.33h-6.75v-1.33l2.47-.2v-8.43a5.93,5.93,0,0,0-1-4,3.81,3.81,0,0,0-3-1.16,4.68,4.68,0,0,0-3.11,1A5.6,5.6,0,0,0,720.1,302v9.9l2.47.2v1.33h-6.75Z"/><path class="cls-47" d="M747.43,313.42c-.12-.55-.21-1-.26-1.44a9.87,9.87,0,0,1-.08-1.22,7.07,7.07,0,0,1-2.42,2.13,6.78,6.78,0,0,1-3.4.85,5.22,5.22,0,0,1-3.73-1.24,4.43,4.43,0,0,1-1.31-3.36,4.14,4.14,0,0,1,1.95-3.6,9.26,9.26,0,0,1,5.3-1.34h3.61V302a3.51,3.51,0,0,0-1.12-2.76,4.66,4.66,0,0,0-3.16-1,7.84,7.84,0,0,0-2.49.37,5.51,5.51,0,0,0-1.88,1l-.16,2.2h-1.49v-3.15a9.21,9.21,0,0,1,2.72-1.42,10.09,10.09,0,0,1,3.37-.55,6.58,6.58,0,0,1,4.36,1.38,4.88,4.88,0,0,1,1.65,3.95v8.05c0,.34,0,.66,0,1a6.52,6.52,0,0,0,.1.9l1.63.11v1.33Zm-6-1.29a6.62,6.62,0,0,0,3.47-.9,5.35,5.35,0,0,0,2.16-2.35V305.6h-3.64a6.84,6.84,0,0,0-4,1A3,3,0,0,0,738,309.2a2.7,2.7,0,0,0,.91,2.13A3.67,3.67,0,0,0,741.46,312.13Z"/><path class="cls-47" d="M772.64,302.1h-1.48l-.21-2.32a4.59,4.59,0,0,0-1.72-1.1,6.71,6.71,0,0,0-2.38-.39,4.47,4.47,0,0,0-3,.85,2.58,2.58,0,0,0-1,2,2.37,2.37,0,0,0,.86,1.87,8.15,8.15,0,0,0,3.41,1.3,11.18,11.18,0,0,1,4.37,1.78,3.7,3.7,0,0,1,1.46,3.07,4,4,0,0,1-1.66,3.31,7.07,7.07,0,0,1-4.38,1.26,10.17,10.17,0,0,1-3.31-.51,7.88,7.88,0,0,1-2.58-1.43v-3.3h1.47l.26,2.33a4.16,4.16,0,0,0,1.83,1.06,8.57,8.57,0,0,0,2.33.32,5,5,0,0,0,3.1-.86,2.56,2.56,0,0,0,1.14-2.09,2.64,2.64,0,0,0-.95-2,7.59,7.59,0,0,0-3.41-1.41,11.6,11.6,0,0,1-4.34-1.69,3.45,3.45,0,0,1-1.41-2.94,3.93,3.93,0,0,1,1.58-3.17,6.41,6.41,0,0,1,4.2-1.3,9.58,9.58,0,0,1,3.29.55,6.69,6.69,0,0,1,2.43,1.5Z"/><path class="cls-47" d="M788.31,310.73A5.51,5.51,0,0,1,786.2,313a6.08,6.08,0,0,1-3.16.79,5,5,0,0,1-4-1.76q-1.47-1.75-1.47-5.44v-8l-2-.2V297h3.83v9.52a7,7,0,0,0,1,4.3,3.46,3.46,0,0,0,2.9,1.31,5.38,5.38,0,0,0,3.27-.91,4.85,4.85,0,0,0,1.72-2.52V298.59l-2.33-.2V297h4.15v14.85l2.19.2v1.33h-3.78Z"/><path class="cls-47" d="M806.23,313.42c-.12-.55-.2-1-.25-1.44a9.87,9.87,0,0,1-.08-1.22,7.07,7.07,0,0,1-2.42,2.13,6.82,6.82,0,0,1-3.41.85,5.21,5.21,0,0,1-3.72-1.24,4.4,4.4,0,0,1-1.32-3.36,4.13,4.13,0,0,1,2-3.6,9.23,9.23,0,0,1,5.29-1.34h3.62V302a3.52,3.52,0,0,0-1.13-2.76,4.61,4.61,0,0,0-3.15-1,7.84,7.84,0,0,0-2.49.37,5.66,5.66,0,0,0-1.89,1l-.15,2.2h-1.5l0-3.15a9.15,9.15,0,0,1,2.71-1.42,10.14,10.14,0,0,1,3.37-.55,6.57,6.57,0,0,1,4.36,1.38,4.85,4.85,0,0,1,1.65,3.95v8.05c0,.34,0,.66,0,1a8.54,8.54,0,0,0,.1.9l1.64.11v1.33Zm-6-1.29a6.62,6.62,0,0,0,3.47-.9,5.35,5.35,0,0,0,2.16-2.35V305.6h-3.65a6.81,6.81,0,0,0-3.94,1,3.05,3.05,0,0,0-1.48,2.58,2.71,2.71,0,0,0,.92,2.13A3.67,3.67,0,0,0,800.27,312.13Z"/><path class="cls-47" d="M819.09,298.39V297h4l.22,2.55a5.72,5.72,0,0,1,5.16-2.85,5.36,5.36,0,0,1,4.62,2.35,10.69,10.69,0,0,1,1.67,6.28v.32a9.44,9.44,0,0,1-1.67,5.86,5.45,5.45,0,0,1-4.59,2.19,6.59,6.59,0,0,1-3-.66,5.58,5.58,0,0,1-2.11-1.87v7l2.47.2v1.35h-6.73v-1.35l2.46-.2V298.59Zm13.83,7a9.38,9.38,0,0,0-1.24-5.09,4,4,0,0,0-3.63-2,4.77,4.77,0,0,0-3,.87,5.4,5.4,0,0,0-1.72,2.26v7.87a5,5,0,0,0,1.8,2.12,5.26,5.26,0,0,0,2.93.77,4.1,4.1,0,0,0,3.61-1.79,8.2,8.2,0,0,0,1.23-4.73Z"/><path class="cls-47" d="M841.61,297l.23,2.73V300a5.74,5.74,0,0,1,1.9-2.36,5,5,0,0,1,3.52-.81l.54.12-.24,1.69-1.35-.09a4.11,4.11,0,0,0-2.81,1,5.26,5.26,0,0,0-1.56,2.65v9.77l2.46.2v1.33h-6.73v-1.33l2.46-.2v-13.3l-2.46-.2V297h4Z"/><path class="cls-47" d="M861.45,313.42c-.12-.55-.2-1-.26-1.44a9.87,9.87,0,0,1-.07-1.22,7.17,7.17,0,0,1-2.42,2.13,6.82,6.82,0,0,1-3.41.85,5.21,5.21,0,0,1-3.72-1.24,4.4,4.4,0,0,1-1.32-3.36,4.14,4.14,0,0,1,2-3.6,9.26,9.26,0,0,1,5.3-1.34h3.62V302a3.52,3.52,0,0,0-1.13-2.76,4.61,4.61,0,0,0-3.15-1,7.84,7.84,0,0,0-2.49.37,5.56,5.56,0,0,0-1.89,1l-.15,2.2h-1.5l0-3.15a9.15,9.15,0,0,1,2.71-1.42,10.14,10.14,0,0,1,3.37-.55,6.57,6.57,0,0,1,4.36,1.38,4.85,4.85,0,0,1,1.65,3.95v8.05c0,.34,0,.66,0,1a8.54,8.54,0,0,0,.1.9l1.64.11v1.33Zm-6-1.29a6.56,6.56,0,0,0,3.46-.9,5.43,5.43,0,0,0,2.17-2.35V305.6h-3.65a6.81,6.81,0,0,0-3.94,1,3,3,0,0,0-1.48,2.58,2.71,2.71,0,0,0,.92,2.13A3.67,3.67,0,0,0,855.49,312.13Zm3.07-21.34h2.23l0,.09-3.77,3.94h-1.62Z"/><path class="cls-47" d="M871.41,292.85V297H875v1.49h-3.6V309.2a3.55,3.55,0,0,0,.58,2.28,2,2,0,0,0,1.56.67,7.94,7.94,0,0,0,.85,0c.28,0,.6-.07,1-.13l.27,1.35a4.7,4.7,0,0,1-1.1.3,8.15,8.15,0,0,1-1.3.11,3.39,3.39,0,0,1-2.69-1.09,5.15,5.15,0,0,1-1-3.45V298.53h-2.82V297h2.82v-4.19Z"/><path class="cls-47" d="M878.22,312.09l2.47-.2v-13.3l-2.47-.2V297h4.27v14.85l2.47.2v1.33h-6.74Zm4.27-19.74h-1.8v-2.54h1.8Z"/><path class="cls-47" d="M895,312.21a5.15,5.15,0,0,0,3.18-1,3.36,3.36,0,0,0,1.38-2.86h1.6l0,.09a4.48,4.48,0,0,1-1.8,3.8,6.77,6.77,0,0,1-4.39,1.53,6.22,6.22,0,0,1-5.16-2.29,9.18,9.18,0,0,1-1.83-5.9v-.63a9.16,9.16,0,0,1,1.83-5.88,6.22,6.22,0,0,1,5.15-2.3,8.33,8.33,0,0,1,3.46.71,6.8,6.8,0,0,1,2.56,1.94l.08,3.57h-1.55l-.28-2.9a5.22,5.22,0,0,0-1.81-1.3,6,6,0,0,0-2.46-.47,4.35,4.35,0,0,0-3.9,1.88,8.38,8.38,0,0,0-1.26,4.75v.63a8.47,8.47,0,0,0,1.25,4.78A4.4,4.4,0,0,0,895,312.21Z"/><path class="cls-47" d="M915.87,313.42c-.12-.55-.21-1-.26-1.44a9.87,9.87,0,0,1-.07-1.22,7.2,7.2,0,0,1-2.43,2.13,6.78,6.78,0,0,1-3.4.85A5.22,5.22,0,0,1,906,312.5a4.43,4.43,0,0,1-1.31-3.36,4.14,4.14,0,0,1,2-3.6,9.26,9.26,0,0,1,5.3-1.34h3.62V302a3.52,3.52,0,0,0-1.13-2.76,4.64,4.64,0,0,0-3.16-1,7.84,7.84,0,0,0-2.49.37,5.51,5.51,0,0,0-1.88,1l-.15,2.2h-1.5v-3.15a9.21,9.21,0,0,1,2.72-1.42,10.09,10.09,0,0,1,3.37-.55,6.58,6.58,0,0,1,4.36,1.38,4.85,4.85,0,0,1,1.65,3.95v8.05c0,.34,0,.66,0,1a6.52,6.52,0,0,0,.1.9l1.63.11v1.33Zm-6-1.29a6.6,6.6,0,0,0,3.47-.9,5.43,5.43,0,0,0,2.17-2.35V305.6h-3.65a6.84,6.84,0,0,0-3.95,1,3,3,0,0,0-1.47,2.58,2.7,2.7,0,0,0,.91,2.13A3.68,3.68,0,0,0,909.9,312.13Z"/><path class="cls-47" d="M940.59,311.06a5.63,5.63,0,0,1-2.11,2,6.15,6.15,0,0,1-3,.7,5.44,5.44,0,0,1-4.6-2.2,9.49,9.49,0,0,1-1.66-5.85v-.32a10.76,10.76,0,0,1,1.66-6.28,5.37,5.37,0,0,1,4.63-2.35,5.63,5.63,0,0,1,5,2.77v-8.16l-2.47-.19v-1.35h4.29v22.08l2.47.2v1.33h-4.09ZM931,305.69a8.31,8.31,0,0,0,1.18,4.72,4.05,4.05,0,0,0,3.58,1.76,5.19,5.19,0,0,0,2.92-.79,5.25,5.25,0,0,0,1.82-2.17v-7.75a5.72,5.72,0,0,0-1.75-2.27,4.75,4.75,0,0,0-3-.87,3.93,3.93,0,0,0-3.59,2,9.61,9.61,0,0,0-1.2,5.09Z"/><path class="cls-47" d="M947.49,312.09l2.47-.2v-13.3l-2.47-.2V297h4.27v14.85l2.46.2v1.33h-6.73Zm4.27-19.74H950v-2.54h1.8Z"/><path class="cls-47" d="M968.57,313.42c-.12-.55-.2-1-.25-1.44a9.87,9.87,0,0,1-.08-1.22,7.17,7.17,0,0,1-2.42,2.13,6.82,6.82,0,0,1-3.41.85,5.21,5.21,0,0,1-3.72-1.24,4.4,4.4,0,0,1-1.32-3.36,4.13,4.13,0,0,1,2-3.6,9.23,9.23,0,0,1,5.29-1.34h3.62V302a3.52,3.52,0,0,0-1.13-2.76,4.61,4.61,0,0,0-3.15-1,7.84,7.84,0,0,0-2.49.37,5.56,5.56,0,0,0-1.89,1l-.15,2.2h-1.5l0-3.15a9.15,9.15,0,0,1,2.71-1.42,10.14,10.14,0,0,1,3.37-.55,6.57,6.57,0,0,1,4.36,1.38,4.85,4.85,0,0,1,1.65,3.95v8.05c0,.34,0,.66,0,1a8.54,8.54,0,0,0,.1.9l1.64.11v1.33Zm-6-1.29a6.62,6.62,0,0,0,3.47-.9,5.35,5.35,0,0,0,2.16-2.35V305.6h-3.65a6.81,6.81,0,0,0-3.94,1,3.05,3.05,0,0,0-1.48,2.58,2.71,2.71,0,0,0,.92,2.13A3.67,3.67,0,0,0,962.61,312.13Zm3.07-21.34h2.23l0,.09-3.77,3.94h-1.62Z"/><path class="cls-47" d="M978.29,297l.23,2.73V300a5.82,5.82,0,0,1,1.9-2.36,4.79,4.79,0,0,1,2.85-.86,5.06,5.06,0,0,1,.68.05l.53.12-.24,1.69-1.35-.09a4.09,4.09,0,0,0-2.8,1,5.21,5.21,0,0,0-1.57,2.65v9.77l2.47.2v1.33h-6.74v-1.33l2.47-.2v-13.3l-2.47-.2V297h4Z"/><path class="cls-47" d="M986.71,312.09l2.46-.2v-13.3l-2.46-.2V297H991v14.85l2.46.2v1.33h-6.73ZM991,292.35h-1.81v-2.54H991Z"/><path class="cls-47" d="M1007.79,313.42c-.12-.55-.2-1-.26-1.44a9.87,9.87,0,0,1-.07-1.22,7.17,7.17,0,0,1-2.42,2.13,6.82,6.82,0,0,1-3.41.85,5.21,5.21,0,0,1-3.72-1.24,4.4,4.4,0,0,1-1.32-3.36,4.14,4.14,0,0,1,1.95-3.6,9.26,9.26,0,0,1,5.3-1.34h3.62V302a3.52,3.52,0,0,0-1.13-2.76,4.62,4.62,0,0,0-3.16-1,7.82,7.82,0,0,0-2.48.37,5.56,5.56,0,0,0-1.89,1l-.15,2.2h-1.5l0-3.15a9.15,9.15,0,0,1,2.71-1.42,10.14,10.14,0,0,1,3.37-.55,6.57,6.57,0,0,1,4.36,1.38,4.85,4.85,0,0,1,1.65,3.95v8.05c0,.34,0,.66,0,1a8.54,8.54,0,0,0,.1.9l1.64.11v1.33Zm-6-1.29a6.56,6.56,0,0,0,3.46-.9,5.43,5.43,0,0,0,2.17-2.35V305.6h-3.65a6.81,6.81,0,0,0-3.94,1,3,3,0,0,0-1.48,2.58,2.71,2.71,0,0,0,.92,2.13A3.67,3.67,0,0,0,1001.83,312.13Z"/><path class="cls-47" d="M1028.35,313.74a6.57,6.57,0,0,1-5.12-2.26,8.32,8.32,0,0,1-2-5.76v-.84a8.55,8.55,0,0,1,2-5.82,6.26,6.26,0,0,1,4.89-2.32,6.07,6.07,0,0,1,4.73,1.91,7.29,7.29,0,0,1,1.73,5.08v1.55H1023v.44a7.24,7.24,0,0,0,1.48,4.62,4.68,4.68,0,0,0,3.87,1.87,7.88,7.88,0,0,0,2.87-.47,5.64,5.64,0,0,0,2-1.35l.77,1.25a6.66,6.66,0,0,1-2.33,1.53A9,9,0,0,1,1028.35,313.74Zm-.24-15.45a4.33,4.33,0,0,0-3.37,1.53,6.55,6.55,0,0,0-1.6,3.85l0,.08h9.6v-.46a5.23,5.23,0,0,0-1.26-3.57A4.28,4.28,0,0,0,1028.11,298.29Z"/><path class="cls-47" d="M1037.42,298.39V297h4.07l.16,2.71a5.72,5.72,0,0,1,2.11-2.22,5.94,5.94,0,0,1,3.13-.79,5.16,5.16,0,0,1,3.13.92,5.08,5.08,0,0,1,1.81,2.79,6.29,6.29,0,0,1,2.11-2.72,5.52,5.52,0,0,1,3.33-1,4.94,4.94,0,0,1,4,1.74c1,1.16,1.43,3,1.43,5.39v8l2.47.21v1.33h-6.76v-1.33l2.46-.21v-8c0-2-.35-3.44-1.06-4.28a3.73,3.73,0,0,0-3-1.24,4,4,0,0,0-3.26,1.34,6.59,6.59,0,0,0-1.42,3.44c0,.08,0,.15,0,.23a2.1,2.1,0,0,1,0,.27v8.29l2.47.2v1.33h-6.75v-1.33l2.46-.2v-8.05a6.62,6.62,0,0,0-1.08-4.25,3.68,3.68,0,0,0-3-1.27,4.52,4.52,0,0,0-3.07,1,5.19,5.19,0,0,0-1.58,2.63v10l2.47.2v1.33h-6.75v-1.33l2.46-.2v-13.3Z"/><path class="cls-47" d="M566.54,339.3h-1.48l-.21-2.32a4.67,4.67,0,0,0-1.72-1.1,6.74,6.74,0,0,0-2.38-.4,4.45,4.45,0,0,0-3,.86,2.58,2.58,0,0,0-1,2,2.36,2.36,0,0,0,.85,1.87,8.27,8.27,0,0,0,3.42,1.3,11.25,11.25,0,0,1,4.37,1.78,3.68,3.68,0,0,1,1.46,3.07,4,4,0,0,1-1.66,3.3,7,7,0,0,1-4.38,1.27,10.17,10.17,0,0,1-3.31-.51A7.78,7.78,0,0,1,555,349v-3.3h1.47l.25,2.33a4.14,4.14,0,0,0,1.84,1.05,8.15,8.15,0,0,0,2.33.33,5,5,0,0,0,3.1-.86,2.56,2.56,0,0,0,1.14-2.09,2.64,2.64,0,0,0-1-2,7.59,7.59,0,0,0-3.41-1.41,11.6,11.6,0,0,1-4.34-1.69,3.44,3.44,0,0,1-1.42-2.94,4,4,0,0,1,1.59-3.18,6.46,6.46,0,0,1,4.2-1.29,9.62,9.62,0,0,1,3.29.55,6.81,6.81,0,0,1,2.43,1.49Z"/><path class="cls-47" d="M581.48,350.62c-.12-.55-.2-1-.25-1.44a9.87,9.87,0,0,1-.08-1.22,7.18,7.18,0,0,1-2.42,2.13,6.82,6.82,0,0,1-3.41.85,5.21,5.21,0,0,1-3.72-1.24,4.4,4.4,0,0,1-1.32-3.36,4.15,4.15,0,0,1,2-3.61,9.31,9.31,0,0,1,5.29-1.33h3.62v-2.16a3.52,3.52,0,0,0-1.13-2.76,4.61,4.61,0,0,0-3.15-1,7.84,7.84,0,0,0-2.49.38,5.66,5.66,0,0,0-1.89,1l-.15,2.2h-1.5l0-3.15a9.15,9.15,0,0,1,2.71-1.42,10.14,10.14,0,0,1,3.37-.55,6.57,6.57,0,0,1,4.36,1.38,4.85,4.85,0,0,1,1.65,3.95v8.05c0,.33,0,.65,0,1a8.54,8.54,0,0,0,.1.9l1.64.11v1.33Zm-6-1.29a6.62,6.62,0,0,0,3.47-.9,5.35,5.35,0,0,0,2.16-2.35v-3.29H577.5a6.81,6.81,0,0,0-3.94,1,3.05,3.05,0,0,0-1.48,2.58,2.68,2.68,0,0,0,.92,2.12A3.67,3.67,0,0,0,575.52,349.33Z"/><path class="cls-47" d="M586.92,328.36V327h4.27v22.08l2.46.2v1.33h-6.73v-1.33l2.46-.2V328.55Z"/><path class="cls-47" d="M607.82,350.62c-.12-.55-.21-1-.26-1.44a9.87,9.87,0,0,1-.07-1.22,7.27,7.27,0,0,1-2.42,2.13,6.82,6.82,0,0,1-3.41.85,5.21,5.21,0,0,1-3.72-1.24,4.4,4.4,0,0,1-1.32-3.36,4.16,4.16,0,0,1,2-3.61,9.34,9.34,0,0,1,5.3-1.33h3.62v-2.16a3.52,3.52,0,0,0-1.13-2.76,4.62,4.62,0,0,0-3.16-1,7.93,7.93,0,0,0-2.49.38,5.6,5.6,0,0,0-1.88,1l-.15,2.2h-1.5l0-3.15a9.15,9.15,0,0,1,2.71-1.42,10.14,10.14,0,0,1,3.37-.55,6.57,6.57,0,0,1,4.36,1.38,4.85,4.85,0,0,1,1.65,3.95v8.05c0,.33,0,.65,0,1a8.54,8.54,0,0,0,.1.9l1.64.11v1.33Zm-6-1.29a6.56,6.56,0,0,0,3.46-.9,5.43,5.43,0,0,0,2.17-2.35v-3.29h-3.65a6.81,6.81,0,0,0-3.94,1,3,3,0,0,0-1.48,2.58,2.68,2.68,0,0,0,.92,2.12A3.67,3.67,0,0,0,601.86,349.33Z"/><path class="cls-47" d="M632.54,348.26a5.61,5.61,0,0,1-2.1,2,6.22,6.22,0,0,1-3,.7,5.44,5.44,0,0,1-4.6-2.2,9.49,9.49,0,0,1-1.65-5.85v-.32a10.76,10.76,0,0,1,1.65-6.28,5.37,5.37,0,0,1,4.63-2.35,5.6,5.6,0,0,1,5,2.77v-8.16l-2.46-.19V327h4.28v22.08l2.47.2v1.33h-4.09ZM623,342.89a8.25,8.25,0,0,0,1.19,4.72,4,4,0,0,0,3.58,1.76,5.14,5.14,0,0,0,2.91-.79,5.25,5.25,0,0,0,1.82-2.17v-7.75a5.63,5.63,0,0,0-1.74-2.27,4.78,4.78,0,0,0-3-.88,4,4,0,0,0-3.6,2,9.67,9.67,0,0,0-1.2,5.1Z"/><path class="cls-47" d="M646.78,350.94a6.58,6.58,0,0,1-5.11-2.26,8.27,8.27,0,0,1-2-5.76v-.84a8.5,8.5,0,0,1,2-5.82,6.24,6.24,0,0,1,4.88-2.32,6.08,6.08,0,0,1,4.74,1.91,7.27,7.27,0,0,1,1.72,5.08v1.55H641.44v.44a7.21,7.21,0,0,0,1.48,4.62,4.67,4.67,0,0,0,3.86,1.87,8,8,0,0,0,2.88-.47,5.52,5.52,0,0,0,2-1.35l.77,1.24a6.45,6.45,0,0,1-2.33,1.54A8.88,8.88,0,0,1,646.78,350.94Zm-.24-15.46a4.37,4.37,0,0,0-3.37,1.54,6.58,6.58,0,0,0-1.59,3.85l0,.08h9.59v-.46a5.27,5.27,0,0,0-1.25-3.57A4.3,4.3,0,0,0,646.54,335.48Z"/><path class="cls-47" d="M675.09,350.62c-.12-.55-.21-1-.26-1.44a9.87,9.87,0,0,1-.07-1.22,7.31,7.31,0,0,1-2.43,2.13,6.76,6.76,0,0,1-3.4.85,5.22,5.22,0,0,1-3.73-1.24,4.43,4.43,0,0,1-1.31-3.36,4.16,4.16,0,0,1,2-3.61,9.34,9.34,0,0,1,5.3-1.33h3.62v-2.16a3.52,3.52,0,0,0-1.13-2.76,4.64,4.64,0,0,0-3.16-1,7.84,7.84,0,0,0-2.49.38,5.51,5.51,0,0,0-1.88,1l-.15,2.2h-1.5v-3.15a9.33,9.33,0,0,1,2.72-1.42,10.09,10.09,0,0,1,3.37-.55,6.58,6.58,0,0,1,4.36,1.38,4.85,4.85,0,0,1,1.65,3.95v8.05c0,.33,0,.65,0,1a6.52,6.52,0,0,0,.1.9l1.63.11v1.33Zm-6-1.29a6.59,6.59,0,0,0,3.46-.9,5.43,5.43,0,0,0,2.17-2.35v-3.29h-3.65a6.79,6.79,0,0,0-3.94,1,3,3,0,0,0-1.48,2.58,2.67,2.67,0,0,0,.91,2.12A3.7,3.7,0,0,0,669.13,349.33Z"/><path class="cls-47" d="M692.92,347.93a5.51,5.51,0,0,1-2.11,2.22,6.08,6.08,0,0,1-3.16.79,5,5,0,0,1-4-1.76c-1-1.17-1.46-3-1.46-5.45v-7.94l-2-.2v-1.35h3.83v9.52a7,7,0,0,0,1,4.3,3.45,3.45,0,0,0,2.89,1.31,5.39,5.39,0,0,0,3.28-.91,4.85,4.85,0,0,0,1.72-2.52V335.79l-2.33-.2v-1.35h4.15v14.85l2.19.2v1.33h-3.78Z"/><path class="cls-47" d="M699.17,328.36V327h4.27v22.08l2.47.2v1.33h-6.74v-1.33l2.47-.2V328.55Z"/><path class="cls-47" d="M720.08,350.62a13.18,13.18,0,0,1-.26-1.44,9.87,9.87,0,0,1-.08-1.22,7.18,7.18,0,0,1-2.42,2.13,6.78,6.78,0,0,1-3.4.85,5.22,5.22,0,0,1-3.73-1.24,4.4,4.4,0,0,1-1.32-3.36,4.15,4.15,0,0,1,2-3.61,9.31,9.31,0,0,1,5.29-1.33h3.62v-2.16a3.48,3.48,0,0,0-1.13-2.76,4.61,4.61,0,0,0-3.15-1,7.84,7.84,0,0,0-2.49.38,5.66,5.66,0,0,0-1.89,1l-.15,2.2h-1.5l0-3.15a9.21,9.21,0,0,1,2.72-1.42,10,10,0,0,1,3.36-.55,6.57,6.57,0,0,1,4.36,1.38,4.85,4.85,0,0,1,1.65,3.95v8.05q0,.49,0,1a5.28,5.28,0,0,0,.1.9l1.63.11v1.33Zm-6-1.29a6.62,6.62,0,0,0,3.47-.9,5.35,5.35,0,0,0,2.16-2.35v-3.29h-3.65a6.81,6.81,0,0,0-3.94,1,3.05,3.05,0,0,0-1.48,2.58,2.68,2.68,0,0,0,.92,2.12A3.67,3.67,0,0,0,714.11,349.33Z"/><path class="cls-47" d="M728.51,349.89a6.89,6.89,0,0,1-.57,2.73,6.74,6.74,0,0,1-1.55,2.26l-1.08-.79a7.52,7.52,0,0,0,1.05-2,6.52,6.52,0,0,0,.35-2.18v-2.14h1.8Z"/><path class="cls-47" d="M746.88,342.19a8.75,8.75,0,0,1,2-5.93,7.11,7.11,0,0,1,10.51,0,8.75,8.75,0,0,1,2,5.93v.5a8.81,8.81,0,0,1-2,5.94,6.54,6.54,0,0,1-5.24,2.31,6.61,6.61,0,0,1-5.28-2.31,8.76,8.76,0,0,1-2-5.94Zm1.82.5a7.78,7.78,0,0,0,1.44,4.78,4.71,4.71,0,0,0,4,1.94,4.66,4.66,0,0,0,4-1.94,7.78,7.78,0,0,0,1.44-4.78v-.5a7.77,7.77,0,0,0-1.44-4.75,5,5,0,0,0-8,0,7.77,7.77,0,0,0-1.44,4.75Z"/><path class="cls-47" d="M763.84,335.59v-1.35h4l.22,2.55a5.72,5.72,0,0,1,5.17-2.85,5.36,5.36,0,0,1,4.61,2.35,10.69,10.69,0,0,1,1.67,6.28v.32a9.44,9.44,0,0,1-1.67,5.86,5.44,5.44,0,0,1-4.58,2.19,6.56,6.56,0,0,1-3-.66,5.54,5.54,0,0,1-2.12-1.87v7l2.47.2v1.35h-6.73v-1.35l2.46-.2V335.79Zm13.83,7a9.38,9.38,0,0,0-1.24-5.09,4,4,0,0,0-3.63-2,4.79,4.79,0,0,0-3,.87,5.5,5.5,0,0,0-1.72,2.27v7.87a5.05,5.05,0,0,0,1.8,2.12,5.26,5.26,0,0,0,2.93.77,4.13,4.13,0,0,0,3.61-1.79,8.2,8.2,0,0,0,1.23-4.73Z"/><path class="cls-47" d="M782.44,342.19a8.8,8.8,0,0,1,2-5.93,7.12,7.12,0,0,1,10.52,0,8.8,8.8,0,0,1,2,5.93v.5a8.8,8.8,0,0,1-2,5.94,7.16,7.16,0,0,1-10.53,0,8.81,8.81,0,0,1-2-5.94Zm1.81.5a7.78,7.78,0,0,0,1.44,4.78,4.72,4.72,0,0,0,4,1.94,4.68,4.68,0,0,0,4-1.94,7.78,7.78,0,0,0,1.44-4.78v-.5a7.71,7.71,0,0,0-1.45-4.75,5,5,0,0,0-8,0,7.77,7.77,0,0,0-1.44,4.75Z"/><path class="cls-47" d="M803.8,334.24,804,337v.19a5.9,5.9,0,0,1,1.9-2.36,4.82,4.82,0,0,1,2.86-.86,4.91,4.91,0,0,1,.67.05l.54.12-.24,1.69-1.35-.09a4.11,4.11,0,0,0-2.81,1,5.36,5.36,0,0,0-1.57,2.64v9.78l2.47.2v1.33h-6.74v-1.33l2.47-.2v-13.3l-2.47-.2v-1.35h4Z"/><path class="cls-47" d="M817,330.05v4.19h3.6v1.49H817V346.4a3.49,3.49,0,0,0,.58,2.28,2,2,0,0,0,1.55.67,8,8,0,0,0,.86,0c.28,0,.6-.07,1-.13l.27,1.35a4.7,4.7,0,0,1-1.1.3,8.25,8.25,0,0,1-1.3.11,3.39,3.39,0,0,1-2.69-1.09,5.15,5.15,0,0,1-1-3.45V335.73h-2.82v-1.49h2.82v-4.19Z"/><path class="cls-47" d="M836,347.93a5.58,5.58,0,0,1-2.11,2.22,6.1,6.1,0,0,1-3.16.79,5,5,0,0,1-4-1.76c-1-1.17-1.46-3-1.46-5.45v-7.94l-2-.2v-1.35H827v9.52a7,7,0,0,0,1,4.3,3.47,3.47,0,0,0,2.9,1.31,5.41,5.41,0,0,0,3.28-.91,4.91,4.91,0,0,0,1.72-2.52V335.79l-2.34-.2v-1.35h4.15v14.85l2.2.2v1.33h-3.79Z"/><path class="cls-47" d="M842.23,349.29l2.47-.2v-13.3l-2.47-.2v-1.35h4.07l.17,2.86a5.78,5.78,0,0,1,2.12-2.33,5.94,5.94,0,0,1,3.17-.83,5,5,0,0,1,4.06,1.63c.93,1.08,1.39,2.78,1.39,5.08v8.44l2.47.2v1.33h-6.75v-1.33l2.47-.2v-8.43a5.88,5.88,0,0,0-1.06-4,3.79,3.79,0,0,0-3-1.17,4.67,4.67,0,0,0-3.11,1,5.6,5.6,0,0,0-1.74,2.67v9.9l2.47.2v1.33h-6.75Z"/><path class="cls-47" d="M862.41,349.29l2.46-.2v-13.3l-2.46-.2v-1.35h4.26v14.85l2.47.2v1.33h-6.73Zm4.26-19.74h-1.8V327h1.8Z"/><path class="cls-47" d="M883.57,348.26a5.63,5.63,0,0,1-2.11,2,6.22,6.22,0,0,1-3,.7,5.43,5.43,0,0,1-4.59-2.2,9.49,9.49,0,0,1-1.66-5.85v-.32a10.76,10.76,0,0,1,1.66-6.28,5.36,5.36,0,0,1,4.62-2.35,5.63,5.63,0,0,1,5.06,2.77v-8.16l-2.47-.19V327h4.29v22.08l2.46.2v1.33h-4.08ZM874,342.89a8.33,8.33,0,0,0,1.19,4.72,4.05,4.05,0,0,0,3.58,1.76,5.19,5.19,0,0,0,2.92-.79,5.25,5.25,0,0,0,1.82-2.17v-7.75a5.65,5.65,0,0,0-1.75-2.27,4.76,4.76,0,0,0-3-.88,4,4,0,0,0-3.59,2,9.67,9.67,0,0,0-1.21,5.1Z"/><path class="cls-47" d="M901.9,350.62c-.12-.55-.21-1-.26-1.44a9.87,9.87,0,0,1-.08-1.22,7.18,7.18,0,0,1-2.42,2.13,6.78,6.78,0,0,1-3.4.85A5.22,5.22,0,0,1,892,349.7a4.39,4.39,0,0,1-1.31-3.36,4.16,4.16,0,0,1,1.95-3.61,9.34,9.34,0,0,1,5.3-1.33h3.61v-2.16a3.51,3.51,0,0,0-1.12-2.76,4.66,4.66,0,0,0-3.16-1,7.84,7.84,0,0,0-2.49.38,5.51,5.51,0,0,0-1.88,1l-.16,2.2h-1.49v-3.15a9.21,9.21,0,0,1,2.72-1.42,10.09,10.09,0,0,1,3.37-.55,6.54,6.54,0,0,1,4.35,1.38,4.86,4.86,0,0,1,1.66,3.95v8.05c0,.33,0,.65,0,1a6.52,6.52,0,0,0,.1.9l1.63.11v1.33Zm-6-1.29a6.62,6.62,0,0,0,3.47-.9,5.35,5.35,0,0,0,2.16-2.35v-3.29h-3.64a6.84,6.84,0,0,0-3.95,1,3,3,0,0,0-1.47,2.58,2.67,2.67,0,0,0,.91,2.12A3.67,3.67,0,0,0,895.93,349.33Z"/><path class="cls-47" d="M919.08,348.26a5.63,5.63,0,0,1-2.11,2,6.15,6.15,0,0,1-3,.7,5.44,5.44,0,0,1-4.6-2.2,9.49,9.49,0,0,1-1.66-5.85v-.32a10.76,10.76,0,0,1,1.66-6.28,5.37,5.37,0,0,1,4.63-2.35,5.63,5.63,0,0,1,5,2.77v-8.16l-2.47-.19V327h4.29v22.08l2.47.2v1.33h-4.09Zm-9.55-5.37a8.33,8.33,0,0,0,1.18,4.72,4.05,4.05,0,0,0,3.58,1.76,5.19,5.19,0,0,0,2.92-.79,5.25,5.25,0,0,0,1.82-2.17v-7.75a5.56,5.56,0,0,0-1.75-2.27,4.76,4.76,0,0,0-3-.88,4,4,0,0,0-3.59,2,9.67,9.67,0,0,0-1.2,5.1Z"/><path class="cls-47" d="M933.32,350.94a6.62,6.62,0,0,1-5.12-2.26,8.31,8.31,0,0,1-2-5.76v-.84a8.5,8.5,0,0,1,2-5.82,6.22,6.22,0,0,1,4.88-2.32,6.08,6.08,0,0,1,4.74,1.91,7.27,7.27,0,0,1,1.72,5.08v1.55H928v.44a7.26,7.26,0,0,0,1.47,4.62,4.7,4.7,0,0,0,3.87,1.87,8,8,0,0,0,2.88-.47,5.69,5.69,0,0,0,2-1.35l.77,1.24a6.45,6.45,0,0,1-2.33,1.54A9,9,0,0,1,933.32,350.94Zm-.24-15.46a4.36,4.36,0,0,0-3.37,1.54,6.59,6.59,0,0,0-1.6,3.85l0,.08h9.6v-.46a5.23,5.23,0,0,0-1.26-3.57A4.27,4.27,0,0,0,933.08,335.48Z"/><path class="cls-47" d="M954.66,339.3h-1.48L953,337a4.67,4.67,0,0,0-1.72-1.1,6.74,6.74,0,0,0-2.38-.4,4.45,4.45,0,0,0-3,.86,2.58,2.58,0,0,0-1,2,2.36,2.36,0,0,0,.85,1.87,8.27,8.27,0,0,0,3.42,1.3,11.25,11.25,0,0,1,4.37,1.78,3.68,3.68,0,0,1,1.46,3.07,4,4,0,0,1-1.66,3.3,7,7,0,0,1-4.38,1.27,10.17,10.17,0,0,1-3.31-.51,7.88,7.88,0,0,1-2.58-1.43v-3.3h1.47l.25,2.33a4.14,4.14,0,0,0,1.84,1.05,8.2,8.2,0,0,0,2.33.33,5,5,0,0,0,3.1-.86,2.56,2.56,0,0,0,1.14-2.09,2.64,2.64,0,0,0-1-2,7.59,7.59,0,0,0-3.41-1.41,11.6,11.6,0,0,1-4.34-1.69,3.44,3.44,0,0,1-1.42-2.94,4,4,0,0,1,1.59-3.18,6.46,6.46,0,0,1,4.2-1.29,9.62,9.62,0,0,1,3.29.55,6.81,6.81,0,0,1,2.43,1.49Z"/><path class="cls-47" d="M965.35,335.59v-1.35h4l.23,2.55a6,6,0,0,1,2.12-2.11,6.08,6.08,0,0,1,3-.74,5.36,5.36,0,0,1,4.62,2.35,10.69,10.69,0,0,1,1.66,6.28v.32a9.44,9.44,0,0,1-1.66,5.86,5.45,5.45,0,0,1-4.59,2.19,6.56,6.56,0,0,1-3-.66,5.51,5.51,0,0,1-2.11-1.87v7l2.47.2v1.35h-6.74v-1.35l2.47-.2V335.79Zm13.83,7a9.38,9.38,0,0,0-1.24-5.09,4,4,0,0,0-3.63-2,4.76,4.76,0,0,0-3,.87,5.33,5.33,0,0,0-1.72,2.27v7.87a5,5,0,0,0,1.79,2.12,5.26,5.26,0,0,0,2.93.77,4.12,4.12,0,0,0,3.61-1.79,8.2,8.2,0,0,0,1.23-4.73Z"/><path class="cls-47" d="M995.26,350.62c-.12-.55-.21-1-.26-1.44a9.87,9.87,0,0,1-.07-1.22,7.31,7.31,0,0,1-2.43,2.13,6.76,6.76,0,0,1-3.4.85,5.22,5.22,0,0,1-3.73-1.24,4.43,4.43,0,0,1-1.31-3.36,4.16,4.16,0,0,1,2-3.61,9.34,9.34,0,0,1,5.3-1.33h3.62v-2.16a3.52,3.52,0,0,0-1.13-2.76,4.64,4.64,0,0,0-3.16-1,7.84,7.84,0,0,0-2.49.38,5.51,5.51,0,0,0-1.88,1l-.15,2.2h-1.5v-3.15a9.33,9.33,0,0,1,2.72-1.42,10.09,10.09,0,0,1,3.37-.55,6.58,6.58,0,0,1,4.36,1.38,4.85,4.85,0,0,1,1.65,3.95v8.05c0,.33,0,.65,0,1a6.52,6.52,0,0,0,.1.9l1.63.11v1.33Zm-6-1.29a6.59,6.59,0,0,0,3.46-.9,5.43,5.43,0,0,0,2.17-2.35v-3.29h-3.65a6.79,6.79,0,0,0-3.94,1,3,3,0,0,0-1.48,2.58,2.67,2.67,0,0,0,.91,2.12A3.7,3.7,0,0,0,989.3,349.33Z"/><path class="cls-47" d="M1005,334.24l.22,2.73v.19a5.9,5.9,0,0,1,1.9-2.36,4.84,4.84,0,0,1,2.86-.86,4.91,4.91,0,0,1,.67.05l.54.12-.24,1.69-1.35-.09a4.11,4.11,0,0,0-2.81,1,5.36,5.36,0,0,0-1.57,2.64v9.78l2.47.2v1.33h-6.73v-1.33l2.46-.2v-13.3l-2.46-.2v-1.35h4Z"/><path class="cls-47" d="M1024.82,350.62c-.12-.55-.21-1-.26-1.44a9.87,9.87,0,0,1-.07-1.22,7.27,7.27,0,0,1-2.42,2.13,6.82,6.82,0,0,1-3.41.85,5.21,5.21,0,0,1-3.72-1.24,4.4,4.4,0,0,1-1.32-3.36,4.16,4.16,0,0,1,2-3.61,9.34,9.34,0,0,1,5.3-1.33h3.62v-2.16a3.52,3.52,0,0,0-1.13-2.76,4.62,4.62,0,0,0-3.16-1,7.93,7.93,0,0,0-2.49.38,5.6,5.6,0,0,0-1.88,1l-.15,2.2h-1.5l0-3.15a9.15,9.15,0,0,1,2.71-1.42,10.14,10.14,0,0,1,3.37-.55,6.57,6.57,0,0,1,4.36,1.38,4.85,4.85,0,0,1,1.65,3.95v8.05c0,.33,0,.65,0,1a8.54,8.54,0,0,0,.1.9l1.64.11v1.33Zm-6-1.29a6.56,6.56,0,0,0,3.46-.9,5.43,5.43,0,0,0,2.17-2.35v-3.29h-3.65a6.81,6.81,0,0,0-3.94,1,3,3,0,0,0-1.48,2.58,2.68,2.68,0,0,0,.92,2.12A3.67,3.67,0,0,0,1018.86,349.33Z"/><path class="cls-47" d="M561.88,388.14a6.62,6.62,0,0,1-5.12-2.26,8.31,8.31,0,0,1-2-5.76v-.84a8.5,8.5,0,0,1,2-5.82,6.22,6.22,0,0,1,4.88-2.32,6.08,6.08,0,0,1,4.74,1.91,7.27,7.27,0,0,1,1.72,5.08v1.55H556.54v.44a7.24,7.24,0,0,0,1.47,4.62,4.7,4.7,0,0,0,3.87,1.87,8,8,0,0,0,2.88-.47,5.6,5.6,0,0,0,2-1.35l.77,1.25a6.57,6.57,0,0,1-2.33,1.53A9,9,0,0,1,561.88,388.14Zm-.24-15.46a4.36,4.36,0,0,0-3.37,1.54,6.68,6.68,0,0,0-1.6,3.85l0,.08h9.6v-.46a5.23,5.23,0,0,0-1.26-3.57A4.27,4.27,0,0,0,561.64,372.68Z"/><path class="cls-47" d="M571,386.49l1.83-.17,5.18-6.84L573.05,373l-1.84-.17v-1.35h5.55v1.35l-1.7.09,3.91,5.25,3.92-5.26-1.68-.08v-1.35h5.56v1.35l-1.84.17L580,379.48l5.16,6.84,1.85.17v1.33h-5.54v-1.33l1.68-.08L579,380.84l-4.15,5.57,1.68.08v1.33H571Z"/><path class="cls-47" d="M588.9,372.79v-1.35h4l.23,2.55a6,6,0,0,1,2.12-2.11,6.08,6.08,0,0,1,3-.74,5.36,5.36,0,0,1,4.62,2.35,10.69,10.69,0,0,1,1.66,6.28v.32a9.44,9.44,0,0,1-1.66,5.86,5.45,5.45,0,0,1-4.59,2.19,6.56,6.56,0,0,1-3-.66,5.51,5.51,0,0,1-2.11-1.87v7l2.47.2v1.35H588.9v-1.35l2.47-.2V373Zm13.83,7a9.38,9.38,0,0,0-1.24-5.09,4,4,0,0,0-3.63-2,4.76,4.76,0,0,0-3,.87,5.33,5.33,0,0,0-1.72,2.27v7.87a5,5,0,0,0,1.79,2.12,5.26,5.26,0,0,0,2.93.77,4.1,4.1,0,0,0,3.61-1.79,8.2,8.2,0,0,0,1.23-4.73Z"/><path class="cls-47" d="M607,365.56v-1.35h4.27v22.08l2.46.2v1.33H607v-1.33l2.47-.2V365.75Z"/><path class="cls-47" d="M616.28,379.39a8.8,8.8,0,0,1,2-5.93,7.12,7.12,0,0,1,10.52,0,8.75,8.75,0,0,1,2,5.93v.5a8.81,8.81,0,0,1-2,5.94,6.54,6.54,0,0,1-5.24,2.31,6.64,6.64,0,0,1-5.29-2.31,8.81,8.81,0,0,1-2-5.94Zm1.82.5a7.78,7.78,0,0,0,1.44,4.78,5.06,5.06,0,0,0,8,0,7.78,7.78,0,0,0,1.44-4.78v-.5a7.77,7.77,0,0,0-1.44-4.75,5,5,0,0,0-8,0,7.77,7.77,0,0,0-1.44,4.75Z"/><path class="cls-47" d="M637.64,371.44l.23,2.73v.19a5.74,5.74,0,0,1,1.9-2.36,5,5,0,0,1,3.52-.81l.54.12-.24,1.69-1.35-.09a4.13,4.13,0,0,0-2.81,1,5.28,5.28,0,0,0-1.56,2.64v9.78l2.46.2v1.33H633.6v-1.33l2.47-.2V373l-2.47-.2v-1.35h4Z"/><path class="cls-47" d="M657.48,387.82c-.12-.55-.2-1-.25-1.44a9.87,9.87,0,0,1-.08-1.22,7.18,7.18,0,0,1-2.42,2.13,6.8,6.8,0,0,1-3.41.85,5.21,5.21,0,0,1-3.72-1.24,4.4,4.4,0,0,1-1.32-3.36,4.15,4.15,0,0,1,2-3.61,9.31,9.31,0,0,1,5.29-1.33h3.62v-2.16a3.48,3.48,0,0,0-1.13-2.76,4.61,4.61,0,0,0-3.15-1,7.84,7.84,0,0,0-2.49.38,5.66,5.66,0,0,0-1.89,1l-.15,2.2h-1.5l0-3.15a9.21,9.21,0,0,1,2.72-1.42,10,10,0,0,1,3.36-.55,6.57,6.57,0,0,1,4.36,1.38,4.85,4.85,0,0,1,1.65,4v8q0,.5,0,1a6.53,6.53,0,0,0,.09.9l1.64.11v1.33Zm-6-1.29a6.62,6.62,0,0,0,3.47-.9,5.35,5.35,0,0,0,2.16-2.35V380H653.5a6.81,6.81,0,0,0-3.94,1,3.05,3.05,0,0,0-1.48,2.58,2.68,2.68,0,0,0,.92,2.12A3.67,3.67,0,0,0,651.52,386.53Z"/><path class="cls-47" d="M667.2,371.44l.23,2.73v.19a5.82,5.82,0,0,1,1.9-2.36,4.79,4.79,0,0,1,2.85-.86,5.06,5.06,0,0,1,.68.05l.53.12-.24,1.69-1.35-.09a4.09,4.09,0,0,0-2.8,1,5.22,5.22,0,0,0-1.57,2.64v9.78l2.47.2v1.33h-6.74v-1.33l2.47-.2V373l-2.47-.2v-1.35h4Z"/><path class="cls-47" d="M683.28,379.39a8.8,8.8,0,0,1,2-5.93,7.12,7.12,0,0,1,10.52,0,8.8,8.8,0,0,1,2,5.93v.5a8.8,8.8,0,0,1-2,5.94,7.16,7.16,0,0,1-10.53,0,8.81,8.81,0,0,1-2-5.94Zm1.81.5a7.78,7.78,0,0,0,1.44,4.78,4.72,4.72,0,0,0,4,1.94,4.68,4.68,0,0,0,4-1.94,7.78,7.78,0,0,0,1.44-4.78v-.5a7.77,7.77,0,0,0-1.45-4.75,5,5,0,0,0-8,0,7.77,7.77,0,0,0-1.44,4.75Z"/><path class="cls-47" d="M718,365.78a7.75,7.75,0,0,1,5.48,1.82,6.83,6.83,0,0,1,0,9.58A7.79,7.79,0,0,1,718,379h-4.68v6.51l2.47.42v1.91h-7.92v-1.91l2.47-.42V368.13l-2.47-.43v-1.92H718Zm-4.68,10.87H718a4,4,0,0,0,4.46-4.24,4.4,4.4,0,0,0-1.11-3.06,4.32,4.32,0,0,0-3.35-1.22h-4.68Z"/><path class="cls-47" d="M735.1,388.14a6.91,6.91,0,0,1-5.44-2.28,8.61,8.61,0,0,1-2-5.91v-.67a8.44,8.44,0,0,1,2.08-5.82,6.44,6.44,0,0,1,4.93-2.32,6.2,6.2,0,0,1,5,2,7.92,7.92,0,0,1,1.71,5.33v1.86H730.73l-.05.07a6.54,6.54,0,0,0,1.2,3.89,3.82,3.82,0,0,0,3.22,1.52,7.69,7.69,0,0,0,2.66-.43,6.34,6.34,0,0,0,2-1.19l1.16,1.94a7.23,7.23,0,0,1-2.32,1.43A9.45,9.45,0,0,1,735.1,388.14Zm-.45-14.65a3.24,3.24,0,0,0-2.56,1.26,6,6,0,0,0-1.3,3.17l0,.08h7.55v-.4a4.57,4.57,0,0,0-.93-2.93A3.35,3.35,0,0,0,734.65,373.49Z"/><path class="cls-47" d="M743.85,385.91l2.47-.42v-11.7l-2.47-.42v-1.93H749l.21,2.44a5.91,5.91,0,0,1,2-2,5.47,5.47,0,0,1,2.81-.72,5.37,5.37,0,0,1,4.1,1.55,6.81,6.81,0,0,1,1.45,4.79v8l2.47.42v1.91h-7.92v-1.91l2.47-.42v-7.95a4.43,4.43,0,0,0-.86-3.07,3.45,3.45,0,0,0-2.61-.91,4.22,4.22,0,0,0-2.27.62,4.57,4.57,0,0,0-1.59,1.7v9.61l2.47.42v1.91h-7.92Z"/><path class="cls-47" d="M776.78,376.59h-2.24l-.49-2a3.94,3.94,0,0,0-1.37-.82,5.2,5.2,0,0,0-1.87-.31,3.46,3.46,0,0,0-2.36.69,2.21,2.21,0,0,0-.77,1.68,1.88,1.88,0,0,0,.68,1.53,7,7,0,0,0,2.77,1,11.91,11.91,0,0,1,4.62,1.81,3.63,3.63,0,0,1,1.51,3.06,4.24,4.24,0,0,1-1.76,3.53,7.38,7.38,0,0,1-4.61,1.35,11.94,11.94,0,0,1-3.35-.43,9.06,9.06,0,0,1-2.64-1.25l0-3.74h2.24l.56,2.2a3.11,3.11,0,0,0,1.4.68,7.79,7.79,0,0,0,1.81.21,4.28,4.28,0,0,0,2.49-.64,2,2,0,0,0,.9-1.69,2,2,0,0,0-.75-1.62,7,7,0,0,0-2.84-1.11A11.83,11.83,0,0,1,766.2,379a3.57,3.57,0,0,1-1.52-3,4.26,4.26,0,0,1,1.71-3.4,6.7,6.7,0,0,1,4.42-1.41,10.54,10.54,0,0,1,3.35.49,7,7,0,0,1,2.47,1.34Z"/><path class="cls-47" d="M790.73,387.82c-.09-.44-.16-.84-.21-1.19s-.08-.71-.1-1.06a7.43,7.43,0,0,1-2.16,1.84,5.58,5.58,0,0,1-2.76.73,5.48,5.48,0,0,1-3.89-1.25,4.59,4.59,0,0,1-1.34-3.52,4.07,4.07,0,0,1,1.89-3.59,9.13,9.13,0,0,1,5.17-1.27h3.07V376.6a2.93,2.93,0,0,0-.91-2.27,3.56,3.56,0,0,0-2.53-.84,6.25,6.25,0,0,0-2,.28,4,4,0,0,0-1.39.79l-.31,1.73H781v-3.18a8.71,8.71,0,0,1,2.71-1.43,10.62,10.62,0,0,1,3.45-.54,6.92,6.92,0,0,1,4.51,1.42,5,5,0,0,1,1.72,4.08v7.88c0,.21,0,.42,0,.62s0,.41,0,.61l1.21.16v1.91Zm-4.79-2.18a5.38,5.38,0,0,0,2.71-.71,4.37,4.37,0,0,0,1.75-1.71v-2.69h-3.18a4.59,4.59,0,0,0-2.9.84,2.55,2.55,0,0,0-1.06,2.06,2,2,0,0,0,.66,1.64A3.06,3.06,0,0,0,785.94,385.64Z"/><path class="cls-47" d="M796.53,385.91l2.47-.42v-11.7l-2.47-.42v-1.93h5.15l.19,2.14a5.4,5.4,0,0,1,2-1.8,6.17,6.17,0,0,1,2.88-.64,5,5,0,0,1,2.81.76,4.54,4.54,0,0,1,1.76,2.27,6,6,0,0,1,2-2.21,5.34,5.34,0,0,1,3-.82,4.91,4.91,0,0,1,4,1.72,7.84,7.84,0,0,1,1.45,5.17v7.46l2.47.42v1.91h-7.93v-1.91l2.46-.42V378a5.47,5.47,0,0,0-.83-3.43,3,3,0,0,0-2.47-1,3.14,3.14,0,0,0-2.5,1.1,4.76,4.76,0,0,0-1.1,2.76v8.07l2.47.42v1.91h-7.92v-1.91l2.47-.42V378a5.36,5.36,0,0,0-.86-3.37,3,3,0,0,0-2.47-1.07,4.11,4.11,0,0,0-2.24.56A3.61,3.61,0,0,0,802,375.7v9.79l2.47.42v1.91h-7.92Z"/><path class="cls-47" d="M833.74,388.14a6.89,6.89,0,0,1-5.44-2.28,8.56,8.56,0,0,1-2-5.91v-.67a8.39,8.39,0,0,1,2.08-5.82,6.42,6.42,0,0,1,4.92-2.32,6.24,6.24,0,0,1,5,2,8,8,0,0,1,1.7,5.33v1.86H829.36l0,.07a6.54,6.54,0,0,0,1.19,3.89,3.84,3.84,0,0,0,3.23,1.52,7.63,7.63,0,0,0,2.65-.43,6.22,6.22,0,0,0,2-1.19l1.17,1.94a7.4,7.4,0,0,1-2.33,1.43A9.43,9.43,0,0,1,833.74,388.14Zm-.46-14.65a3.21,3.21,0,0,0-2.55,1.26,6,6,0,0,0-1.31,3.17l0,.08H837v-.4a4.57,4.57,0,0,0-.94-2.93A3.35,3.35,0,0,0,833.28,373.49Z"/><path class="cls-47" d="M842.49,385.91l2.46-.42v-11.7l-2.46-.42v-1.93h5.13l.21,2.44a6,6,0,0,1,2-2,5.47,5.47,0,0,1,2.81-.72,5.35,5.35,0,0,1,4.1,1.55,6.81,6.81,0,0,1,1.46,4.79v8l2.46.42v1.91H852.8v-1.91l2.46-.42v-7.95a4.44,4.44,0,0,0-.85-3.07,3.45,3.45,0,0,0-2.61-.91,4.23,4.23,0,0,0-2.28.62,4.54,4.54,0,0,0-1.58,1.7v9.61l2.46.42v1.91h-7.91Z"/><path class="cls-47" d="M868.08,367.49v3.95h3.11v2.21h-3.11v10a2.21,2.21,0,0,0,.48,1.62,1.74,1.74,0,0,0,1.26.47,7.54,7.54,0,0,0,.89-.07c.33-.05.6-.09.82-.14l.41,2a3.66,3.66,0,0,1-1.24.44,7.54,7.54,0,0,1-1.63.18,3.9,3.9,0,0,1-2.9-1.1,4.79,4.79,0,0,1-1.07-3.44v-10h-2.59v-2.21h2.59v-3.95Z"/><path class="cls-47" d="M873.94,379.48a9,9,0,0,1,2-6,7.28,7.28,0,0,1,10.71,0,9,9,0,0,1,2,6v.33a9,9,0,0,1-2,6,7.32,7.32,0,0,1-10.72,0,9,9,0,0,1-2-6Zm3,.33a7.78,7.78,0,0,0,1.1,4.3,3.95,3.95,0,0,0,6.49,0,7.78,7.78,0,0,0,1.1-4.3v-.33a7.8,7.8,0,0,0-1.1-4.28,3.94,3.94,0,0,0-6.5,0,7.88,7.88,0,0,0-1.09,4.28Z"/><path class="cls-47" d="M571.36,409.75h-2.11l-.56-3.12a6,6,0,0,0-1.78-1.17,6.46,6.46,0,0,0-2.53-.45,6.18,6.18,0,0,0-5.28,2.49,10.28,10.28,0,0,0-1.85,6.32v.35a10.51,10.51,0,0,0,1.81,6.33,5.84,5.84,0,0,0,5,2.51,7.61,7.61,0,0,0,2.72-.47,5.17,5.17,0,0,0,1.89-1.15l.56-3.12h2.11v3.92a8.27,8.27,0,0,1-2.86,2.19,9.75,9.75,0,0,1-4.42,1,8.92,8.92,0,0,1-7.06-3.18,11.79,11.79,0,0,1-2.75-8v-.32a11.86,11.86,0,0,1,2.71-8,8.86,8.86,0,0,1,7.1-3.18,9.62,9.62,0,0,1,4.42,1,8.52,8.52,0,0,1,2.86,2.19Z"/><path class="cls-47" d="M574.55,416.68a9,9,0,0,1,2-6,7.28,7.28,0,0,1,10.71,0,9,9,0,0,1,2,6V417a9,9,0,0,1-2,6,7.32,7.32,0,0,1-10.72,0,9,9,0,0,1-2-6Zm3,.33a7.78,7.78,0,0,0,1.1,4.3,3.95,3.95,0,0,0,6.49,0,7.78,7.78,0,0,0,1.1-4.3v-.33a7.8,7.8,0,0,0-1.1-4.28,3.94,3.94,0,0,0-6.5,0,7.88,7.88,0,0,0-1.09,4.28Z"/><path class="cls-47" d="M591.34,423.11l2.47-.42V411l-2.47-.42v-1.93h5.14l.2,2.14a5.33,5.33,0,0,1,2-1.8,6.17,6.17,0,0,1,2.88-.64,5,5,0,0,1,2.8.76,4.61,4.61,0,0,1,1.77,2.27,6,6,0,0,1,2-2.21,5.34,5.34,0,0,1,3-.82,4.9,4.9,0,0,1,4,1.72,7.84,7.84,0,0,1,1.46,5.17v7.46l2.46.42V425h-7.93v-1.91l2.47-.42V415.2a5.47,5.47,0,0,0-.83-3.43,3,3,0,0,0-2.47-1,3.16,3.16,0,0,0-2.51,1.1,4.75,4.75,0,0,0-1.09,2.76v8.07l2.46.42V425h-7.91v-1.91l2.46-.42V415.2a5.37,5.37,0,0,0-.85-3.37,3,3,0,0,0-2.48-1.07,4.16,4.16,0,0,0-2.24.56,3.65,3.65,0,0,0-1.34,1.58v9.79l2.46.42V425h-7.91Z"/><path class="cls-47" d="M620.85,429.4l2.47-.43V411l-2.47-.42v-1.93h5l.27,2a5.5,5.5,0,0,1,2-1.71,6,6,0,0,1,2.72-.59,5.46,5.46,0,0,1,4.73,2.41,11,11,0,0,1,1.69,6.38v.32a9.05,9.05,0,0,1-1.7,5.72,5.59,5.59,0,0,1-4.67,2.17,6.47,6.47,0,0,1-2.66-.51,5.28,5.28,0,0,1-2-1.5V429l2.47.43v1.92h-7.92Zm13.43-12.27a8.65,8.65,0,0,0-1.09-4.58,3.57,3.57,0,0,0-3.24-1.79,3.94,3.94,0,0,0-2.18.58,4.45,4.45,0,0,0-1.47,1.57v8a4.18,4.18,0,0,0,1.46,1.57A4.25,4.25,0,0,0,630,423a3.69,3.69,0,0,0,3.21-1.55,6.75,6.75,0,0,0,1.09-4Z"/><path class="cls-47" d="M651.7,422.6a5.31,5.31,0,0,1-4.8,2.74,5.25,5.25,0,0,1-4.16-1.71q-1.5-1.71-1.5-5.33V411l-1.87-.42v-1.93h4.86v9.69a6,6,0,0,0,.77,3.6,2.84,2.84,0,0,0,2.4,1,4.9,4.9,0,0,0,2.63-.65,4,4,0,0,0,1.57-1.82V411l-2.2-.42v-1.93h5.18v14.05l1.88.42V425H651.9Z"/><path class="cls-47" d="M664,404.69v3.95h3.11v2.21H664v9.95a2.21,2.21,0,0,0,.48,1.62,1.74,1.74,0,0,0,1.26.47,7.54,7.54,0,0,0,.89-.07c.33-.05.6-.09.83-.14l.4,2a3.87,3.87,0,0,1-1.24.45,8.2,8.2,0,0,1-1.63.17,3.86,3.86,0,0,1-2.89-1.1A4.75,4.75,0,0,1,661,420.8v-9.95h-2.59v-2.21H661v-3.95Z"/><path class="cls-47" d="M680.86,425c-.09-.44-.17-.84-.22-1.19s-.08-.71-.1-1.06a7.43,7.43,0,0,1-2.16,1.84,5.58,5.58,0,0,1-2.76.73,5.49,5.49,0,0,1-3.89-1.25,4.58,4.58,0,0,1-1.33-3.52,4.06,4.06,0,0,1,1.88-3.59,9.13,9.13,0,0,1,5.17-1.27h3.07V413.8a3,3,0,0,0-.9-2.27,3.59,3.59,0,0,0-2.53-.84,6.27,6.27,0,0,0-2,.28,3.82,3.82,0,0,0-1.38.79l-.32,1.73h-2.3v-3.18a8.71,8.71,0,0,1,2.71-1.43,10.66,10.66,0,0,1,3.45-.54,6.9,6.9,0,0,1,4.51,1.42,5,5,0,0,1,1.72,4.08v7.88c0,.21,0,.42,0,.62s0,.41,0,.61l1.21.16V425Zm-4.8-2.18a5.35,5.35,0,0,0,2.71-.71,4.37,4.37,0,0,0,1.75-1.71v-2.69h-3.18a4.54,4.54,0,0,0-2.89.84,2.53,2.53,0,0,0-1.07,2.06,2,2,0,0,0,.67,1.64A3,3,0,0,0,676.06,422.84Z"/><path class="cls-47" d="M694.6,423a4,4,0,0,0,2.61-.92,2.8,2.8,0,0,0,1.13-2.25H701l0,.1a4.6,4.6,0,0,1-1.89,3.76,6.88,6.88,0,0,1-4.56,1.64,6.63,6.63,0,0,1-5.46-2.33,9.07,9.07,0,0,1-1.88-5.86v-.64a9,9,0,0,1,1.89-5.83,6.6,6.6,0,0,1,5.45-2.34,9.18,9.18,0,0,1,3.53.65,7.18,7.18,0,0,1,2.6,1.79l.14,3.63h-2.38l-.65-2.57a4,4,0,0,0-1.36-.84,5.3,5.3,0,0,0-1.88-.31,3.58,3.58,0,0,0-3.35,1.69,7.92,7.92,0,0,0-1,4.13v.64a8,8,0,0,0,1,4.19A3.62,3.62,0,0,0,694.6,423Z"/><path class="cls-47" d="M704,423.11l2.46-.42V411l-2.46-.42v-1.93h5.44v14.05l2.47.42V425H704Zm5.44-18.66h-3v-3h3Z"/><path class="cls-47" d="M714.16,416.68a9,9,0,0,1,2-6,7.28,7.28,0,0,1,10.71,0,9,9,0,0,1,2,6V417a9,9,0,0,1-2,6,7.32,7.32,0,0,1-10.72,0,9,9,0,0,1-2-6Zm3,.33a7.69,7.69,0,0,0,1.1,4.3,3.94,3.94,0,0,0,6.48,0,7.69,7.69,0,0,0,1.11-4.3v-.33a7.72,7.72,0,0,0-1.11-4.28,3.62,3.62,0,0,0-3.25-1.71,3.58,3.58,0,0,0-3.24,1.71,7.8,7.8,0,0,0-1.09,4.28Z"/><path class="cls-47" d="M731.09,423.11l2.47-.42V411l-2.47-.42v-1.93h5.14l.21,2.44a5.91,5.91,0,0,1,2-2,5.47,5.47,0,0,1,2.81-.72,5.37,5.37,0,0,1,4.1,1.55,6.81,6.81,0,0,1,1.45,4.79v8l2.47.42V425H741.4v-1.91l2.47-.42v-7.95a4.38,4.38,0,0,0-.86-3.07,3.45,3.45,0,0,0-2.61-.91,4.22,4.22,0,0,0-2.27.62,4.57,4.57,0,0,0-1.59,1.7v9.61l2.47.42V425h-7.92Z"/><path class="cls-47" d="M762.17,425c-.09-.44-.16-.84-.21-1.19s-.09-.71-.11-1.06a7.26,7.26,0,0,1-2.15,1.84,5.65,5.65,0,0,1-2.77.73,5.51,5.51,0,0,1-3.89-1.25,4.62,4.62,0,0,1-1.33-3.52A4.07,4.07,0,0,1,753.6,417a9.1,9.1,0,0,1,5.16-1.27h3.08V413.8a2.93,2.93,0,0,0-.91-2.27,3.59,3.59,0,0,0-2.53-.84,6.2,6.2,0,0,0-2,.28,3.87,3.87,0,0,0-1.39.79l-.32,1.73h-2.3v-3.18a8.82,8.82,0,0,1,2.71-1.43,10.66,10.66,0,0,1,3.45-.54,6.9,6.9,0,0,1,4.51,1.42,5,5,0,0,1,1.73,4.08v7.88c0,.21,0,.42,0,.62a4.17,4.17,0,0,0,0,.61l1.21.16V425Zm-4.8-2.18a5.35,5.35,0,0,0,2.71-.71,4.4,4.4,0,0,0,1.76-1.71v-2.69h-3.18a4.57,4.57,0,0,0-2.9.84,2.56,2.56,0,0,0-1.07,2.06,2,2,0,0,0,.67,1.64A3,3,0,0,0,757.37,422.84Z"/><path class="cls-47" d="M768.15,403.33v-1.92h5.45v21.28l2.47.42V425h-7.92v-1.91l2.47-.42V403.75Z"/><path class="cls-47" d="M785.59,423.11l2.46-.42V411l-2.46-.42v-1.93h5.13l.21,2.44a6,6,0,0,1,2.05-2,5.47,5.47,0,0,1,2.81-.72,5.37,5.37,0,0,1,4.1,1.55,6.81,6.81,0,0,1,1.45,4.79v8l2.47.42V425H795.9v-1.91l2.46-.42v-7.95a4.44,4.44,0,0,0-.85-3.07,3.45,3.45,0,0,0-2.61-.91,4.23,4.23,0,0,0-2.28.62,4.54,4.54,0,0,0-1.58,1.7v9.61l2.46.42V425h-7.91Z"/><path class="cls-47" d="M805.84,416.68a9,9,0,0,1,2-6,7.28,7.28,0,0,1,10.71,0,9,9,0,0,1,2,6V417a8.94,8.94,0,0,1-2,6,7.31,7.31,0,0,1-10.71,0,9,9,0,0,1-2-6Zm3,.33a7.78,7.78,0,0,0,1.1,4.3,3.95,3.95,0,0,0,6.49,0,7.78,7.78,0,0,0,1.1-4.3v-.33a7.8,7.8,0,0,0-1.1-4.28,3.64,3.64,0,0,0-3.26-1.71,3.6,3.6,0,0,0-3.24,1.71,7.8,7.8,0,0,0-1.09,4.28Z"/><path class="cls-47" d="M835.75,413.79h-2.24l-.48-2a4,4,0,0,0-1.37-.82,5.28,5.28,0,0,0-1.87-.31,3.49,3.49,0,0,0-2.37.69,2.21,2.21,0,0,0-.77,1.68,1.88,1.88,0,0,0,.68,1.53,7,7,0,0,0,2.77,1,12.07,12.07,0,0,1,4.62,1.81,3.63,3.63,0,0,1,1.51,3.06,4.22,4.22,0,0,1-1.76,3.53,7.36,7.36,0,0,1-4.61,1.35,11.81,11.81,0,0,1-3.34-.43,9,9,0,0,1-2.65-1.25l0-3.74h2.24l.56,2.2a3.17,3.17,0,0,0,1.4.68,7.86,7.86,0,0,0,1.81.21,4.28,4.28,0,0,0,2.49-.64,2,2,0,0,0,.9-1.69,2,2,0,0,0-.75-1.62,7,7,0,0,0-2.84-1.11,11.83,11.83,0,0,1-4.49-1.77,3.56,3.56,0,0,1-1.51-3,4.25,4.25,0,0,1,1.7-3.4,6.7,6.7,0,0,1,4.43-1.41,10.52,10.52,0,0,1,3.34.49,7,7,0,0,1,2.47,1.34Z"/><path class="cls-47" d="M846.21,423.11l1.63-.22L855.55,403h2.56l7.57,19.91,1.62.22V425H861v-1.91l1.66-.28-1.45-4.06h-8.82l-1.5,4.06,1.66.28V425h-6.31Zm7.07-6.84h7l-3.42-9.46h-.09Z"/><path class="cls-47" d="M869,423.11l2.47-.42V411l-2.47-.42v-1.93h5.13l.21,2.44a6,6,0,0,1,2-2,5.49,5.49,0,0,1,2.81-.72,5.37,5.37,0,0,1,4.11,1.55,6.86,6.86,0,0,1,1.45,4.79v8l2.46.42V425H879.3v-1.91l2.47-.42v-7.95a4.43,4.43,0,0,0-.86-3.07,3.45,3.45,0,0,0-2.61-.91,4.23,4.23,0,0,0-2.28.62,4.54,4.54,0,0,0-1.58,1.7v9.61l2.47.42V425H869Z"/><path class="cls-47" d="M889.24,416.68a9,9,0,0,1,2-6,7.28,7.28,0,0,1,10.71,0,9,9,0,0,1,2,6V417a9,9,0,0,1-2,6,7.32,7.32,0,0,1-10.72,0,9,9,0,0,1-2-6Zm3,.33a7.78,7.78,0,0,0,1.1,4.3,3.95,3.95,0,0,0,6.49,0,7.69,7.69,0,0,0,1.1-4.3v-.33a7.71,7.71,0,0,0-1.1-4.28,3.94,3.94,0,0,0-6.5,0,7.88,7.88,0,0,0-1.09,4.28Z"/><path class="cls-47" d="M919.15,413.79h-2.24l-.48-2a3.94,3.94,0,0,0-1.37-.82,5.2,5.2,0,0,0-1.87-.31,3.45,3.45,0,0,0-2.36.69,2.18,2.18,0,0,0-.77,1.68,1.85,1.85,0,0,0,.68,1.53,6.84,6.84,0,0,0,2.77,1,12,12,0,0,1,4.61,1.81,3.64,3.64,0,0,1,1.52,3.06,4.23,4.23,0,0,1-1.77,3.53,7.36,7.36,0,0,1-4.61,1.35,11.86,11.86,0,0,1-3.34-.43,9.12,9.12,0,0,1-2.65-1.25l0-3.74h2.25l.56,2.2a3.11,3.11,0,0,0,1.4.68,7.77,7.77,0,0,0,1.8.21,4.28,4.28,0,0,0,2.49-.64,2.07,2.07,0,0,0,.16-3.31,7.08,7.08,0,0,0-2.84-1.11,11.82,11.82,0,0,1-4.5-1.77,3.56,3.56,0,0,1-1.51-3,4.28,4.28,0,0,1,1.7-3.4,6.72,6.72,0,0,1,4.43-1.41,10.47,10.47,0,0,1,3.34.49,7,7,0,0,1,2.47,1.34Z"/><path class="cls-47" d="M929.85,423.11l2.47-.42V405.33l-2.47-.43V403h17v5.3h-2.54l-.24-2.95h-8.8v7.6h8.53v2.34H935.3v7.42l2.47.42V425h-7.92Z"/><path class="cls-47" d="M949.4,423.11l2.46-.42V411l-2.46-.42v-1.93h5.45v14.05l2.46.42V425H949.4Zm5.45-18.66h-3v-3h3Z"/><path class="cls-47" d="M959.15,423.11l2.46-.42V411l-2.46-.42v-1.93h5.13l.21,2.44a5.91,5.91,0,0,1,2-2,5.47,5.47,0,0,1,2.81-.72,5.37,5.37,0,0,1,4.1,1.55,6.81,6.81,0,0,1,1.45,4.79v8l2.47.42V425h-7.92v-1.91l2.47-.42v-7.95a4.44,4.44,0,0,0-.85-3.07,3.45,3.45,0,0,0-2.62-.91,4.22,4.22,0,0,0-2.27.62,4.65,4.65,0,0,0-1.59,1.7v9.61l2.47.42V425h-7.91Z"/><path class="cls-47" d="M990.22,425c-.09-.44-.16-.84-.21-1.19s-.09-.71-.11-1.06a7.26,7.26,0,0,1-2.15,1.84,5.65,5.65,0,0,1-2.77.73,5.51,5.51,0,0,1-3.89-1.25,4.62,4.62,0,0,1-1.33-3.52,4.07,4.07,0,0,1,1.89-3.59,9.11,9.11,0,0,1,5.17-1.27h3.07V413.8a2.93,2.93,0,0,0-.91-2.27,3.58,3.58,0,0,0-2.53-.84,6.25,6.25,0,0,0-2,.28,4,4,0,0,0-1.39.79l-.32,1.73h-2.3v-3.18a8.82,8.82,0,0,1,2.71-1.43,10.66,10.66,0,0,1,3.45-.54,6.9,6.9,0,0,1,4.51,1.42,5,5,0,0,1,1.73,4.08v7.88c0,.21,0,.42,0,.62s0,.41,0,.61l1.21.16V425Zm-4.8-2.18a5.35,5.35,0,0,0,2.71-.71,4.34,4.34,0,0,0,1.76-1.71v-2.69h-3.18a4.57,4.57,0,0,0-2.9.84,2.56,2.56,0,0,0-1.07,2.06,2,2,0,0,0,.67,1.64A3,3,0,0,0,985.42,422.84Z"/><path class="cls-47" d="M996.61,423.11l2.47-.42V411l-2.47-.42v-1.93h5.45v14.05l2.47.42V425h-7.92Zm5.45-18.66h-3v-3h3Z"/><path class="cls-47" d="M1019.33,413.79h-2.24l-.49-2a3.94,3.94,0,0,0-1.37-.82,5.2,5.2,0,0,0-1.87-.31,3.48,3.48,0,0,0-2.36.69,2.21,2.21,0,0,0-.77,1.68,1.88,1.88,0,0,0,.68,1.53,7,7,0,0,0,2.77,1,12.07,12.07,0,0,1,4.62,1.81,3.63,3.63,0,0,1,1.51,3.06,4.24,4.24,0,0,1-1.76,3.53,7.38,7.38,0,0,1-4.61,1.35,11.94,11.94,0,0,1-3.35-.43,9.06,9.06,0,0,1-2.64-1.25l0-3.74h2.24l.56,2.2a3.11,3.11,0,0,0,1.4.68,7.86,7.86,0,0,0,1.81.21,4.28,4.28,0,0,0,2.49-.64,2,2,0,0,0,.9-1.69,2,2,0,0,0-.75-1.62,7,7,0,0,0-2.84-1.11,11.83,11.83,0,0,1-4.49-1.77,3.57,3.57,0,0,1-1.52-3,4.26,4.26,0,0,1,1.71-3.4,6.7,6.7,0,0,1,4.42-1.41,10.54,10.54,0,0,1,3.35.49,7,7,0,0,1,2.47,1.34Z"/><path class="cls-47" d="M1041.34,423.07a5.27,5.27,0,0,1-2,1.69,5.89,5.89,0,0,1-2.69.58,5.57,5.57,0,0,1-4.68-2.17,9.05,9.05,0,0,1-1.69-5.72v-.32a10.91,10.91,0,0,1,1.69-6.37,5.42,5.42,0,0,1,4.71-2.42,5.82,5.82,0,0,1,2.57.54,5.34,5.34,0,0,1,1.9,1.55v-6.68l-2.47-.42v-1.92h5.45v21.28l2.47.42V425h-5.06Zm-8-5.62a7,7,0,0,0,1,4,3.54,3.54,0,0,0,3.14,1.5,3.91,3.91,0,0,0,2.24-.61,4.67,4.67,0,0,0,1.5-1.71V413a4.72,4.72,0,0,0-1.5-1.63,3.9,3.9,0,0,0-2.21-.61,3.4,3.4,0,0,0-3.16,1.77,9.16,9.16,0,0,0-1,4.6Z"/><path class="cls-47" d="M1048.92,416.68a9,9,0,0,1,2-6,7.28,7.28,0,0,1,10.71,0,9,9,0,0,1,2,6V417a9,9,0,0,1-2,6,7.32,7.32,0,0,1-10.72,0,9,9,0,0,1-2-6Zm3,.33a7.78,7.78,0,0,0,1.1,4.3,3.95,3.95,0,0,0,6.49,0,7.78,7.78,0,0,0,1.1-4.3v-.33a7.8,7.8,0,0,0-1.1-4.28,3.94,3.94,0,0,0-6.5,0,7.88,7.88,0,0,0-1.09,4.28Z"/><path class="cls-47" d="M554.27,462.22v-1.91l2.46-.42V442.53l-2.46-.43v-1.92h16.92v5.3h-2.56l-.24-3h-8.67v7.13h8.43V452h-8.43v7.89h8.85l.24-2.95h2.55v5.28Z"/><path class="cls-47" d="M573.87,460.31l2.47-.42v-11.7l-2.47-.42v-1.93H579l.21,2.44a6,6,0,0,1,2-2,5.49,5.49,0,0,1,2.81-.72,5.34,5.34,0,0,1,4.1,1.55,6.81,6.81,0,0,1,1.46,4.79v8l2.46.42v1.91h-7.91v-1.91l2.46-.42v-7.95a4.44,4.44,0,0,0-.85-3.07,3.45,3.45,0,0,0-2.61-.91,4.23,4.23,0,0,0-2.28.62,4.54,4.54,0,0,0-1.58,1.7v9.61l2.47.42v1.91h-7.92Z"/><path class="cls-47" d="M606.79,451h-2.24l-.48-2a4,4,0,0,0-1.37-.82,5.24,5.24,0,0,0-1.87-.31,3.45,3.45,0,0,0-2.36.69,2.19,2.19,0,0,0-.78,1.68,1.86,1.86,0,0,0,.69,1.53,6.84,6.84,0,0,0,2.77,1,12.08,12.08,0,0,1,4.61,1.81,3.64,3.64,0,0,1,1.52,3.07,4.22,4.22,0,0,1-1.77,3.52,7.36,7.36,0,0,1-4.61,1.35,11.86,11.86,0,0,1-3.34-.43,9.12,9.12,0,0,1-2.65-1.25l0-3.74h2.24l.56,2.2a3.17,3.17,0,0,0,1.4.68,7.86,7.86,0,0,0,1.81.21,4.28,4.28,0,0,0,2.49-.64,2,2,0,0,0,.9-1.69,2,2,0,0,0-.74-1.62,7.08,7.08,0,0,0-2.84-1.11,11.82,11.82,0,0,1-4.5-1.77,3.56,3.56,0,0,1-1.51-3,4.25,4.25,0,0,1,1.7-3.4,6.72,6.72,0,0,1,4.43-1.41,10.52,10.52,0,0,1,3.34.49,7,7,0,0,1,2.47,1.34Z"/><path class="cls-47" d="M610.06,460.31l2.47-.42v-11.7l-2.47-.42v-1.93h5.45v14.05l2.47.42v1.91h-7.92Zm5.45-18.66h-3v-3h3Z"/><path class="cls-47" d="M619.81,460.31l2.47-.42v-11.7l-2.47-.42v-1.93h5.13l.21,2.44a6,6,0,0,1,2.05-2,5.49,5.49,0,0,1,2.81-.72,5.34,5.34,0,0,1,4.1,1.55,6.81,6.81,0,0,1,1.46,4.79v8l2.46.42v1.91h-7.91v-1.91l2.47-.42v-7.95a4.43,4.43,0,0,0-.86-3.07,3.45,3.45,0,0,0-2.61-.91,4.23,4.23,0,0,0-2.28.62,4.54,4.54,0,0,0-1.58,1.7v9.61l2.47.42v1.91h-7.92Z"/><path class="cls-47" d="M640.06,453.88a9,9,0,0,1,2-6,7.28,7.28,0,0,1,10.71,0,9,9,0,0,1,2,6v.33a9,9,0,0,1-2,6,7.32,7.32,0,0,1-10.72,0,9,9,0,0,1-2-6Zm3,.33a7.78,7.78,0,0,0,1.1,4.3,3.95,3.95,0,0,0,6.49,0,7.78,7.78,0,0,0,1.1-4.3v-.33a7.8,7.8,0,0,0-1.1-4.28,3.94,3.94,0,0,0-6.5,0,7.88,7.88,0,0,0-1.09,4.28Z"/><path class="cls-47" d="M664.87,460.31l2.47-.42V442.53l-2.47-.43v-1.92h17v5.3h-2.54l-.24-3h-8.8v7.6h8.52v2.34h-8.52v7.42l2.47.42v1.91h-7.92Z"/><path class="cls-47" d="M695.8,459.8a5.62,5.62,0,0,1-2,2,5.53,5.53,0,0,1-2.81.71,5.23,5.23,0,0,1-4.16-1.71q-1.5-1.71-1.5-5.33v-7.31l-1.88-.42v-1.93h4.86v9.69a6.1,6.1,0,0,0,.77,3.6,2.88,2.88,0,0,0,2.41,1,4.87,4.87,0,0,0,2.62-.65,4,4,0,0,0,1.57-1.82v-9.46l-2.19-.42v-1.93h5.17v14.05l1.88.42v1.91H696Z"/><path class="cls-47" d="M702.47,460.31l2.47-.42v-11.7l-2.47-.42v-1.93h5.13l.22,2.44a5.82,5.82,0,0,1,2-2,5.43,5.43,0,0,1,2.8-.72,5.37,5.37,0,0,1,4.11,1.55,6.81,6.81,0,0,1,1.45,4.79v8l2.47.42v1.91h-7.92v-1.91l2.47-.42v-7.95a4.43,4.43,0,0,0-.86-3.07,3.45,3.45,0,0,0-2.61-.91,4.23,4.23,0,0,0-2.28.62,4.54,4.54,0,0,0-1.58,1.7v9.61l2.47.42v1.91h-7.92Z"/><path class="cls-47" d="M733.74,460.27a5.12,5.12,0,0,1-2,1.69,5.84,5.84,0,0,1-2.68.58,5.61,5.61,0,0,1-4.69-2.17,9.11,9.11,0,0,1-1.69-5.72v-.32a11,11,0,0,1,1.69-6.37,5.44,5.44,0,0,1,4.72-2.42,5.77,5.77,0,0,1,2.56.54,5.25,5.25,0,0,1,1.9,1.55V441l-2.46-.42v-1.92h5.45v21.28l2.46.42v1.91h-5Zm-8-5.62a7,7,0,0,0,1,4,3.52,3.52,0,0,0,3.13,1.5,3.89,3.89,0,0,0,2.24-.61,4.49,4.49,0,0,0,1.5-1.71v-7.6a4.53,4.53,0,0,0-1.5-1.63,4,4,0,0,0-2.21-.61,3.39,3.39,0,0,0-3.15,1.77,9.19,9.19,0,0,0-1,4.6Z"/><path class="cls-47" d="M752,462.22c-.09-.44-.16-.84-.21-1.19s-.09-.71-.11-1.06a7.18,7.18,0,0,1-2.16,1.84,5.58,5.58,0,0,1-2.76.73,5.51,5.51,0,0,1-3.89-1.25,4.57,4.57,0,0,1-1.33-3.52,4.08,4.08,0,0,1,1.88-3.59,9.13,9.13,0,0,1,5.17-1.27h3.08V451a3,3,0,0,0-.91-2.27,3.59,3.59,0,0,0-2.53-.84,6.27,6.27,0,0,0-2,.28,3.82,3.82,0,0,0-1.38.79l-.32,1.73h-2.3v-3.18a8.82,8.82,0,0,1,2.71-1.43,10.66,10.66,0,0,1,3.45-.54,6.9,6.9,0,0,1,4.51,1.42,5,5,0,0,1,1.73,4.08v7.88c0,.21,0,.42,0,.62s0,.41,0,.61l1.21.16v1.91ZM747.2,460a5.35,5.35,0,0,0,2.71-.71,4.4,4.4,0,0,0,1.76-1.71v-2.69h-3.18a4.57,4.57,0,0,0-2.9.84,2.56,2.56,0,0,0-1.07,2.06,2,2,0,0,0,.67,1.64A3,3,0,0,0,747.2,460Z"/><path class="cls-47" d="M757.8,460.31l2.46-.42v-11.7l-2.46-.42v-1.93h5.14l.2,2.14a5.25,5.25,0,0,1,2-1.8,6.13,6.13,0,0,1,2.87-.64,5,5,0,0,1,2.81.76,4.61,4.61,0,0,1,1.77,2.27,6,6,0,0,1,2-2.21,5.34,5.34,0,0,1,3-.82,4.9,4.9,0,0,1,4,1.72,7.84,7.84,0,0,1,1.45,5.17v7.46l2.47.42v1.91h-7.93v-1.91l2.47-.42V452.4a5.4,5.4,0,0,0-.84-3.43,3,3,0,0,0-2.46-1,3.16,3.16,0,0,0-2.51,1.1,4.83,4.83,0,0,0-1.1,2.76v8.07l2.47.42v1.91H767.7v-1.91l2.46-.42V452.4a5.37,5.37,0,0,0-.85-3.37,3,3,0,0,0-2.48-1.07,4.13,4.13,0,0,0-2.24.56,3.65,3.65,0,0,0-1.34,1.58v9.79l2.46.42v1.91H757.8Z"/><path class="cls-47" d="M795,462.54a6.91,6.91,0,0,1-5.44-2.28,8.56,8.56,0,0,1-2-5.91v-.67a8.39,8.39,0,0,1,2.08-5.82,6.44,6.44,0,0,1,4.93-2.32,6.2,6.2,0,0,1,5,2,7.91,7.91,0,0,1,1.7,5.33v1.86H790.63l0,.07a6.48,6.48,0,0,0,1.2,3.89,3.81,3.81,0,0,0,3.22,1.52,7.69,7.69,0,0,0,2.66-.43,6.17,6.17,0,0,0,2-1.19l1.17,1.94a7.34,7.34,0,0,1-2.32,1.43A9.53,9.53,0,0,1,795,462.54Zm-.45-14.65a3.24,3.24,0,0,0-2.56,1.26,5.94,5.94,0,0,0-1.3,3.17l0,.08h7.55V452a4.52,4.52,0,0,0-.94-2.93A3.32,3.32,0,0,0,794.55,447.89Z"/><path class="cls-47" d="M803.75,460.31l2.47-.42v-11.7l-2.47-.42v-1.93h5.13l.21,2.44a5.93,5.93,0,0,1,2.06-2,5.43,5.43,0,0,1,2.8-.72,5.37,5.37,0,0,1,4.11,1.55,6.86,6.86,0,0,1,1.45,4.79v8l2.47.42v1.91h-7.92v-1.91l2.47-.42v-7.95a4.43,4.43,0,0,0-.86-3.07,3.45,3.45,0,0,0-2.61-.91,4.23,4.23,0,0,0-2.28.62,4.54,4.54,0,0,0-1.58,1.7v9.61l2.47.42v1.91h-7.92Z"/><path class="cls-47" d="M829.35,441.89v3.95h3.1v2.21h-3.1V458a2.26,2.26,0,0,0,.47,1.62,1.75,1.75,0,0,0,1.27.47A7.38,7.38,0,0,0,832,460c.33,0,.61-.09.83-.14l.41,2a4.06,4.06,0,0,1-1.24.45,8.3,8.3,0,0,1-1.64.17,3.87,3.87,0,0,1-2.89-1.1,4.74,4.74,0,0,1-1.07-3.44v-9.95h-2.59v-2.21h2.59v-3.95Z"/><path class="cls-47" d="M846.18,462.22c-.09-.44-.16-.84-.21-1.19s-.09-.71-.11-1.06a7.18,7.18,0,0,1-2.16,1.84,5.58,5.58,0,0,1-2.76.73,5.51,5.51,0,0,1-3.89-1.25,4.57,4.57,0,0,1-1.33-3.52,4.08,4.08,0,0,1,1.88-3.59,9.13,9.13,0,0,1,5.17-1.27h3.08V451a3,3,0,0,0-.91-2.27,3.59,3.59,0,0,0-2.53-.84,6.27,6.27,0,0,0-2,.28,3.82,3.82,0,0,0-1.38.79l-.32,1.73h-2.3v-3.18a8.82,8.82,0,0,1,2.71-1.43,10.66,10.66,0,0,1,3.45-.54A6.9,6.9,0,0,1,847.1,447a5,5,0,0,1,1.73,4.08v7.88c0,.21,0,.42,0,.62s0,.41,0,.61l1.22.16v1.91Zm-4.8-2.18a5.35,5.35,0,0,0,2.71-.71,4.4,4.4,0,0,0,1.76-1.71v-2.69h-3.18a4.57,4.57,0,0,0-2.9.84,2.56,2.56,0,0,0-1.07,2.06,2,2,0,0,0,.67,1.64A3,3,0,0,0,841.38,460Z"/><path class="cls-47" d="M852.16,440.53v-1.92h5.45v21.28l2.47.42v1.91h-7.92v-1.91l2.47-.42V441Z"/><path class="cls-47" d="M865.3,462.22h-2.15v-2.53h2.15Zm-.18-7.23h-1.81V440.18h1.81Z"/></g></svg>