<svg xmlns="http://www.w3.org/2000/svg" xmlns:xlink="http://www.w3.org/1999/xlink" viewBox="0 0 1124.64 651.26"><defs><style>.cls-1{fill:#e6f4ff;}.cls-2{fill:none;}.cls-3{fill:#8bb5d8;}.cls-4{fill:#329e89;}.cls-5{clip-path:url(#clip-path);}.cls-6{fill:#c5e2ff;}.cls-7{clip-path:url(#clip-path-2);}.cls-8{fill:#ef9777;}.cls-9{fill:#fff;}.cls-10{fill:#3a1e1c;}.cls-11{clip-path:url(#clip-path-3);}.cls-12{fill:#d88268;}.cls-13{fill:#d98369;}.cls-14{fill:#da8469;}.cls-15{fill:#db856a;}.cls-16{fill:#dc866b;}.cls-17{fill:#dd876b;}.cls-18{fill:#de886c;}.cls-19{fill:#df896d;}.cls-20{fill:#e08a6d;}.cls-21{fill:#e18b6e;}.cls-22{fill:#e28c6f;}.cls-23{fill:#e48d70;}.cls-24{fill:#e58d70;}.cls-25{fill:#e68e71;}.cls-26{fill:#e78f72;}.cls-27{fill:#e89072;}.cls-28{fill:#e99173;}.cls-29{fill:#ea9274;}.cls-30{fill:#eb9374;}.cls-31{fill:#ec9475;}.cls-32{fill:#ed9576;}.cls-33{fill:#ee9676;}.cls-34{fill:#3d201f;}.cls-35{fill:#b5574d;}.cls-36{fill:#b3514e;}.cls-37{fill:#312235;}.cls-38{fill:#fc999c;}.cls-39{fill:#f9aaaa;}.cls-40{fill:#196b5d;}.cls-41{fill:#208975;}.cls-42{fill:#8acec3;}.cls-43{fill:#5b1f3c;}.cls-44{fill:#fffdfd;}.cls-45{clip-path:url(#clip-path-4);}.cls-46{fill:#ce7061;}.cls-47{fill:#175b4e;}</style><clipPath id="clip-path"><path class="cls-1" d="M428.87,402.79a192.51,192.51,0,0,0-5.05-43.86c-32.69-73-109.23-124.15-198.45-124.15C106.43,234.78,10,325.78,10,438a193.16,193.16,0,0,0,5,43.87C47.74,554.84,124.28,606,213.5,606,332.44,606,428.87,515,428.87,402.79Z"/></clipPath><clipPath id="clip-path-2"><path class="cls-2" d="M541,351.81c-10.3-18-97.34-31.5-97.34-31.5S301.34,131.55,232.33,138s-80.25,56.59-80.25,56.59l-32.63,66.55C54.18,296,10.14,362.17,10.14,438c0,112.25,96.42,203.24,215.37,203.24,117.57,0,213.12-88.9,215.32-199.34C473.18,419.61,549,365.68,541,351.81Z"/></clipPath><clipPath id="clip-path-3"><path class="cls-2" d="M227.82,319.63l-2.36,9.78s-19.92,12.9-37.91,11.87c-5.35-.3,67.76,42.8,71.74,43s34.38-50.16,34.38-50.16-20.41-3.73-27.17-4S252,311.8,252,311.8Z"/></clipPath><clipPath id="clip-path-4"><path class="cls-2" d="M541.11-404.43c-10.3-18-97.34-31.5-97.34-31.5S301.45-624.7,232.44-618.27s-80.25,56.59-80.25,56.59l-32.63,66.55C54.29-460.21,10.25-394.07,10.25-318.22,10.25-206,106.68-115,225.62-115c117.57,0,213.12-88.9,215.32-199.35C473.29-336.63,549.06-390.56,541.11-404.43Z"/></clipPath></defs><title>5-fala2</title><g id="Camada_5" data-name="Camada 5"><ellipse class="cls-3" cx="225.37" cy="438.02" rx="215.37" ry="203.24"/><path class="cls-4" d="M225.37,234.78c119,0,215.37,91,215.37,203.24S344.32,641.26,225.37,641.26,10,550.27,10,438s96.42-203.24,215.37-203.24m0-10a235.1,235.1,0,0,0-87.54,16.69A225.72,225.72,0,0,0,66.22,287,212.37,212.37,0,0,0,17.8,354.82a203.34,203.34,0,0,0,0,166.4A212.3,212.3,0,0,0,66.22,589a225.89,225.89,0,0,0,71.61,45.57,238.05,238.05,0,0,0,175.08,0A225.94,225.94,0,0,0,384.53,589a212.12,212.12,0,0,0,48.41-67.79,203.34,203.34,0,0,0,0-166.4A212.19,212.19,0,0,0,384.53,287a225.76,225.76,0,0,0-71.62-45.57,235.1,235.1,0,0,0-87.54-16.69Z"/><path class="cls-1" d="M428.87,402.79a192.51,192.51,0,0,0-5.05-43.86c-32.69-73-109.23-124.15-198.45-124.15C106.43,234.78,10,325.78,10,438a193.16,193.16,0,0,0,5,43.87C47.74,554.84,124.28,606,213.5,606,332.44,606,428.87,515,428.87,402.79Z"/><g class="cls-5"><circle class="cls-1" cx="306.79" cy="408.71" r="104.58"/><circle class="cls-1" cx="306.79" cy="408.71" r="100.64"/><circle class="cls-1" cx="306.79" cy="408.71" r="98.66"/><circle class="cls-1" cx="306.79" cy="408.71" r="96.69"/><circle class="cls-1" cx="306.79" cy="408.71" r="94.72"/><circle class="cls-1" cx="306.79" cy="408.71" r="92.74"/><circle class="cls-1" cx="306.79" cy="408.71" r="90.77"/><circle class="cls-1" cx="306.79" cy="408.71" r="88.8"/><circle class="cls-1" cx="306.79" cy="408.71" r="86.82"/><circle class="cls-1" cx="306.79" cy="408.71" r="84.85"/><circle class="cls-1" cx="306.79" cy="408.71" r="82.88"/><circle class="cls-1" cx="306.79" cy="408.71" r="80.9"/><circle class="cls-1" cx="306.79" cy="408.71" r="78.93"/><circle class="cls-1" cx="306.79" cy="408.71" r="76.96"/><circle class="cls-1" cx="306.79" cy="408.71" r="74.98"/><circle class="cls-1" cx="306.79" cy="408.71" r="73.01"/><circle class="cls-1" cx="306.79" cy="408.71" r="71.04"/><circle class="cls-1" cx="306.79" cy="408.71" r="69.06"/><circle class="cls-1" cx="306.79" cy="408.71" r="67.09"/><circle class="cls-1" cx="306.79" cy="408.71" r="65.12"/><circle class="cls-1" cx="306.79" cy="408.71" r="63.15"/><circle class="cls-1" cx="306.79" cy="408.71" r="61.17"/><circle class="cls-1" cx="306.79" cy="408.71" r="59.2"/><circle class="cls-1" cx="306.79" cy="408.71" r="57.23"/><circle class="cls-1" cx="306.79" cy="408.71" r="55.25"/><circle class="cls-1" cx="306.79" cy="408.71" r="53.28"/><circle class="cls-1" cx="306.79" cy="408.71" r="51.31"/><circle class="cls-1" cx="306.79" cy="408.71" r="49.33"/><circle class="cls-1" cx="306.79" cy="408.71" r="47.36"/><circle class="cls-1" cx="306.79" cy="408.71" r="45.39"/><circle class="cls-1" cx="306.79" cy="408.71" r="43.41"/><circle class="cls-1" cx="306.79" cy="408.71" r="41.44"/><circle class="cls-1" cx="306.79" cy="408.71" r="39.47"/><circle class="cls-1" cx="306.79" cy="408.71" r="37.49"/><circle class="cls-1" cx="306.79" cy="408.71" r="35.52"/><circle class="cls-1" cx="306.79" cy="408.71" r="33.55"/><circle class="cls-1" cx="306.79" cy="408.71" r="31.57"/><circle class="cls-1" cx="306.79" cy="408.71" r="29.6"/><circle class="cls-1" cx="306.79" cy="408.71" r="27.63"/><circle class="cls-1" cx="306.79" cy="408.71" r="25.65"/><circle class="cls-1" cx="306.79" cy="408.71" r="23.68"/><circle class="cls-1" cx="306.79" cy="408.71" r="21.71"/><circle class="cls-1" cx="306.79" cy="408.71" r="19.73"/><circle class="cls-1" cx="306.79" cy="408.71" r="17.76"/><circle class="cls-1" cx="306.79" cy="408.71" r="15.79"/><circle class="cls-1" cx="306.79" cy="408.71" r="13.81"/><circle class="cls-1" cx="306.79" cy="408.71" r="11.84"/><circle class="cls-1" cx="306.79" cy="408.71" r="9.87"/><circle class="cls-1" cx="306.79" cy="408.71" r="7.89"/><circle class="cls-1" cx="306.79" cy="408.71" r="5.92"/><circle class="cls-1" cx="306.79" cy="408.71" r="3.95"/><circle class="cls-1" cx="306.79" cy="408.71" r="1.97"/></g><path class="cls-3" d="M787.8,44.22c-174.89,0-318.64,118.13-335.23,269.27L353,353.14s-6.51,2.41-5.85,11.74a12.7,12.7,0,0,0,7.43,10.89L458.82,407C492,541,626.68,641.26,787.8,641.26c186,0,336.84-133.65,336.84-298.52S973.83,44.22,787.8,44.22Z"/><path class="cls-6" d="M787.75,0C612.85,0,469.11,118.13,452.52,269.27L353,308.92s-6.51,2.41-5.86,11.74a12.7,12.7,0,0,0,7.44,10.88l104.21,31.28C492,496.78,626.63,597,787.75,597c186,0,336.84-133.65,336.84-298.52S973.78,0,787.75,0Z"/><g class="cls-7"><path class="cls-8" d="M534.35,352.94a18,18,0,0,0-2.21-1.87,19.39,19.39,0,0,0-1.77-1.13,22.73,22.73,0,0,0-4.25-1.84,17.85,17.85,0,0,0-2.86-.67s-45.4,6.11-38.5,3-1.63-3.79-1.63-3.79-21.75,4.67-30,9.17c-5.48,3-12.26,25.5-12.26,25.5l12.28,14.26s13.81-9.68,18.89-14.76c3.66-3.66,20.55-3.28,33.25-5.34,4.95-.8,12.12-3.69,14.92-4.36,3.25-.78,3.54-3.18,6.58-5.16a31.06,31.06,0,0,0,4.82-3.82c1.7-1.67,1.32-1.57,1.86-3.17.28-.79,1.74-2.75,1.71-3.67A3.43,3.43,0,0,0,534.35,352.94Zm-19.63,13.12s-16.06,2.81-17-.63c-2.53,1,21.79-1.33,28.2-3.88Z"/><path class="cls-9" d="M153.42,564.7s24.48-21.86,24.48-27-14.35-8.35-14.35-8.35l-20.41,29.5,9.58,7.33Z"/><path class="cls-10" d="M176.08,358.82s-46.9-131.84,7.44-198.9c0,0,58.11-39.81,101.53,7s13,178.54,13,178.54Z"/><g class="cls-11"><polygon class="cls-12" points="293.6 311.8 293.63 312.12 182.21 322.49 182.21 311.8 293.6 311.8"/><polygon class="cls-12" points="293.63 312.12 293.67 312.49 293.67 312.93 182.21 323.3 182.21 322.49 293.63 312.12"/><polygon class="cls-13" points="293.67 313.74 182.21 324.11 182.21 323.3 293.67 312.93 293.67 313.74"/><polygon class="cls-14" points="293.67 314.55 182.21 324.93 182.21 324.11 293.67 313.74 293.67 314.55"/><polygon class="cls-15" points="293.67 315.37 182.21 325.74 182.21 324.93 293.67 314.55 293.67 315.37"/><polygon class="cls-16" points="293.67 316.18 182.21 326.55 182.21 325.74 293.67 315.37 293.67 316.18"/><polygon class="cls-17" points="293.67 316.99 182.21 327.37 182.21 326.55 293.67 316.18 293.67 316.99"/><polygon class="cls-18" points="293.67 317.81 182.21 328.18 182.21 327.37 293.67 316.99 293.67 317.81"/><polygon class="cls-19" points="293.67 318.62 182.21 328.99 182.21 328.18 293.67 317.81 293.67 318.62"/><polygon class="cls-20" points="293.67 319.43 182.21 329.81 182.21 328.99 293.67 318.62 293.67 319.43"/><polygon class="cls-21" points="293.67 320.24 182.21 330.62 182.21 329.81 293.67 319.43 293.67 320.24"/><polygon class="cls-22" points="293.67 321.06 182.21 331.43 182.21 330.62 293.67 320.24 293.67 321.06"/><polygon class="cls-23" points="293.67 321.87 182.21 332.24 182.21 331.43 293.67 321.06 293.67 321.87"/><polygon class="cls-24" points="293.67 322.68 182.21 333.06 182.21 332.24 293.67 321.87 293.67 322.68"/><polygon class="cls-25" points="293.67 323.5 182.21 333.87 182.21 333.06 293.67 322.68 293.67 323.5"/><polygon class="cls-26" points="293.67 324.31 182.21 334.68 182.21 333.87 293.67 323.5 293.67 324.31"/><polygon class="cls-27" points="293.67 325.12 182.21 335.5 182.21 334.68 293.67 324.31 293.67 325.12"/><polygon class="cls-28" points="293.67 325.94 182.21 336.31 182.21 335.5 293.67 325.12 293.67 325.94"/><polygon class="cls-29" points="293.67 326.75 182.21 337.12 182.21 336.31 293.67 325.94 293.67 326.75"/><polygon class="cls-30" points="293.67 327.56 182.21 337.94 182.21 337.12 293.67 326.75 293.67 327.56"/><polygon class="cls-31" points="293.67 328.38 182.21 338.75 182.21 337.94 293.67 327.56 293.67 328.38"/><polygon class="cls-32" points="293.67 329.19 182.21 339.56 182.21 338.75 293.67 328.38 293.67 329.19"/><polygon class="cls-33" points="293.67 330 182.21 340.38 182.21 339.56 293.67 329.19 293.67 330"/><polygon class="cls-8" points="293.67 330.82 182.21 341.19 182.21 340.38 293.67 330 293.67 330.82"/><polygon class="cls-8" points="184.24 384.38 182.21 362.56 182.21 341.19 293.67 330.82 293.67 384.38 184.24 384.38"/></g><path class="cls-8" d="M182.49,220.71s-.89,110.78,64.76,101.68c35.49-4.92,47.51-40.41,40.88-70.92a191.55,191.55,0,0,1-3.79-46.76s-4.08-29.37-38.7-20.31S196,190.12,196,190.12,180.43,193.3,182.49,220.71Z"/><path class="cls-10" d="M177,226.89s25.09-2.78,36.43-7.67l.58-15.39s2.55,9.93,4.85,12.4,22.88-.73,32-3.58,4.8-14.7,4.8-14.7L260,209.8s28.58,3.45,28.74-.93-3.86-24.71-12.21-28.74-73.88-4.44-83.08,4.1S177.42,214.69,177,226.89Z"/><ellipse class="cls-34" cx="265.84" cy="242.56" rx="3.92" ry="3.17" transform="matrix(1, -0.1, 0.1, 1, -22.23, 26.87)"/><ellipse class="cls-34" cx="226.77" cy="246.26" rx="3.92" ry="3.17" transform="translate(-22.77 23.11) rotate(-5.56)"/><path class="cls-35" d="M250.44,277a15.34,15.34,0,0,1-5.17-.8l.35-.94c5.16,1.91,13.88,0,15.56-3.34,1.13-2.27-1.44-4.53-3.78-6-6.89-4.38-5.32-8.94-5.25-9.13l.94.34c-.05.16-1.33,4,4.84,7.94,4.88,3.11,4.95,5.69,4.14,7.32C260.61,275.31,255.26,277,250.44,277Z"/><path class="cls-36" d="M264.84,287.05c-18.37,4.76-37.46.2-36.73,1.53,0,0,1.76,14.25,18,14.15C262.86,302.62,264.84,287.05,264.84,287.05Z"/><path class="cls-9" d="M219.27,331.75s22.52,13.66,36.94,11.81c6.84-.88,19-14,19-14l13,129.73-49.8,2.24Z"/><path class="cls-37" d="M172.55,555.72s-17.61,72.57-15.63,92.45,4.68,52.17,34,145.94c0,0,78.25,32.39,150.2-.8,0,0,6.29-1.86,10.91-43.82S364.46,606.9,343.32,562,172.55,555.72,172.55,555.72Z"/><path class="cls-10" d="M274.7,219.71s-4.74-6.2-9.75-3.1a.89.89,0,0,0-.58,1.12c.25.83,1.91-1.64,9.83,2.73C274.2,220.46,274.7,220.75,274.7,219.71Z"/><path class="cls-10" d="M214.82,224.15s4.75-6.21,9.75-3.11a.89.89,0,0,1,.58,1.12c-.25.84-1.91-1.63-9.83,2.73C215.32,224.89,214.82,225.18,214.82,224.15Z"/><path class="cls-9" d="M262.51,287.6s-.65,3.21-2,4.13-15.62,2-24.11.95c-5.38-.66-6.4-3.32-6.26-4.3C230.16,288.38,249,290.65,262.51,287.6Z"/><path class="cls-38" d="M249.27,302.5s-1.22-9.7-18.49-7.16C230.78,295.34,234.91,304.19,249.27,302.5Z"/><ellipse class="cls-39" cx="280.9" cy="252.77" rx="3.62" ry="6.23" transform="translate(5.69 511.72) rotate(-85.24)"/><ellipse class="cls-39" cx="214.68" cy="262.02" rx="6.23" ry="3.62" transform="translate(-52.56 53.87) rotate(-12.76)"/><path class="cls-40" d="M333.45,438.84l41.91,37.38s10.59,6.85,14.41,7.27c4,.44,11.28-4.8,11.28-4.8l67.67-73.64s-37.64-24.88-38-28.5-33.25,46.55-33.25,46.55-2.17-2.74-7.67-1.67c-3,.59-1.59,5.6-7.66-.14-3.74-3.54-9.95-8.73-15.17-16.11-29.22-41.33-56.53-70.83-58.39-72.35s-11-6.17-14.23-4.65-19.19,1.41-19.19,1.41L277.8,445,219.27,331.75s-12.56,4.33-26.08,2.61S157,338,157,338s-10.24,27.71-17.55,29.81-11,20.25-11,20.25c-2.17,2.65-10.18,14.08-19.61,27.72h0s-37.48,45.93-43,49.91-2.65,13.44-2.65,13.44L142,562.9l27.83-35.51c-7.13-.5-43.13-49.77-43.13-49.77,2.53-4.53,2.3-8.26,1.56-10.72,17.3-18.49,42.63-47.18,42.63-47.18.41,4.06,6.47,16.8,16.93,32.51s9.69,42.14,9.69,42.14c-14.94,21.68-25,61.35-25,61.35s1,7.92,26.28,20.54c11,5.51,46.51,16.31,46.51,16.31l39.46-43.28,50.78,35.64s9.12-9.13,8.21-18.27-18.44-63.5-18.44-63.5-1.89-19,.27-24.66S333.45,438.84,333.45,438.84Z"/><path class="cls-12" d="M153.42,564.7s12.2,10.7,14.67,8.23l12.43-35.19S165,549,153.42,564.7Z"/><path class="cls-8" d="M170.77,565.87s5.9-5.86,14.86,2.8,9.68,9.26,9.68,9.26,6.95,2.88,7.52-4.63c0,0,8.8,1.29,6.82-8.39,0,0,6.14-4.42.71-12,0,0,5.51-1.06,2.24-11.47s-24-20.46-24-20.46-9.94-3.49-10.82,8.07c0,0-7.16.38-4.66,10.38,0,0-4.65,4.2-3.65,8.77s-.11,3.66-.11,3.66S162.68,559.29,170.77,565.87Z"/><path class="cls-35" d="M202.45,573.63c-.11-.14-11.87-13.67-24.48-19.79l.43-.9c12.8,6.21,24.69,19.9,24.81,20Z"/><path class="cls-35" d="M209.31,565.27c-.17-.16-17.14-16.1-29.48-22.75l.48-.88c12.45,6.72,29.52,22.74,29.69,22.9Z"/><path class="cls-35" d="M210,553.19c-.15-.18-15.21-17.9-27.55-21.76l.3-.95c12.61,3.94,27.39,21.33,28,22.07Z"/><path class="cls-41" d="M219.27,331.75S195.12,343.4,182,363.18l44.38,12.67s-15.11,14.86-14.79,18.07,66.17,51,66.17,51,33.54-61.51,29.81-64.56-24.29-6.81-24.29-6.81S302.8,346,306.19,345.64s-28-16.36-31-16.05,2.52,110.28,2.52,110.28l-.15,2.38Z"/><path class="cls-37" d="M277.8,445s9.26,81.81,7,104.33"/><circle class="cls-42" cx="291.54" cy="469.64" r="5.33"/><circle class="cls-42" cx="293.67" cy="507.64" r="5.33"/><path class="cls-43" d="M173.7,402.9l-1-.23a76.61,76.61,0,0,0-11.55-60.85l.82-.57A77.63,77.63,0,0,1,173.7,402.9Z"/><path class="cls-43" d="M329,405.1l-1-.09c1.1-12.3-3.36-24.58-7.3-35.41-4.66-12.82-9.95-27.35-20.07-37.88l.72-.69c10.27,10.68,15.59,25.32,20.29,38.23C325.59,380.19,330.1,392.58,329,405.1Z"/><path class="cls-43" d="M146.21,375.14a27.73,27.73,0,0,0-3.49-6.94l.82-.57a28.39,28.39,0,0,1,3.62,7.19Z"/><path class="cls-43" d="M135.93,390.8a34.62,34.62,0,0,0-6.08-.84l.05-1a36.56,36.56,0,0,1,6.25.85Z"/><path class="cls-43" d="M334.33,439.12l-1-.11a74.31,74.31,0,0,0,.43-11.93l1,0A75,75,0,0,1,334.33,439.12Z"/><path class="cls-43" d="M400.28,437.11a74.37,74.37,0,0,0-2.84-11.6l.95-.31A74,74,0,0,1,401.26,437Z"/><path class="cls-43" d="M384.94,437.09l-1-.15a60.44,60.44,0,0,0,.75-10.74l1,0A61.34,61.34,0,0,1,384.94,437.09Z"/><path class="cls-43" d="M200.3,494.73l-.52-.85a60.15,60.15,0,0,1,11.59-5.54l.34.94A58.87,58.87,0,0,0,200.3,494.73Z"/><path class="cls-43" d="M127.66,467.41c-2.33,0-10-.2-12.54-2.75l.7-.71c2.65,2.65,12.37,2.45,12.47,2.45l0,1Z"/><path class="cls-43" d="M118.72,481.06v-1c3.43,0,7.7-2.83,7.74-2.86l.56.83C126.83,478.16,122.45,481.06,118.72,481.06Z"/><path class="cls-44" d="M429.8,380.81s2.67-5,6.17-7l37.67,21.76L464.3,407Z"/><path class="cls-35" d="M468.32,355l-.7-.71c1.94-1.94,15-3.57,16.44-3.75l.12,1C478.51,352.26,469.61,353.75,468.32,355Z"/><path class="cls-35" d="M494,354.74c-1.39,0-1.52-.19-1.63-.35a.58.58,0,0,1,.09-.77l.71.71a.41.41,0,0,0,.08-.36.36.36,0,0,0-.2-.27c1.85.69,34.51-3.93,36.74-4.53v0c.14,0,.57-.05.68.37l-.28.58c-.42.2-11.19,1.79-18.63,2.79C500.61,354.34,496,354.74,494,354.74Z"/><path class="cls-35" d="M496.65,358.81a13.91,13.91,0,0,1-4-.37l.37-.93c3.79,1.53,39.32-2.56,40.89-4.7a.17.17,0,0,0,0,.1l1,.07a1.12,1.12,0,0,1-.59.8C531,355.82,506.75,358.81,496.65,358.81Z"/><path class="cls-35" d="M506.85,368c-3.94,0-8-.56-9.1-1.28a.83.83,0,0,1-.47-1l1,.29a.28.28,0,0,0,0-.22c.26.31,2.34.86,5.94,1.08,4.89.3,9.1-.22,10.23-1.25l.15-.1,17-6.81a8.07,8.07,0,0,1,2,0,.64.64,0,0,1,.41.42c.14.44-.19,1.19-1,2.24l-.81-.59a7.23,7.23,0,0,0,.71-1.15c-.32,0-.81,0-1.25,0L515,366.49C513.65,367.62,510.28,368,506.85,368Z"/><path class="cls-35" d="M470.51,365.43l-.41-.91c.2-.09,4.9-2.33,4.62-8.69l1,0A10,10,0,0,1,470.51,365.43Z"/><path class="cls-35" d="M457.94,373l-.94-.33c.14-.4,3.66-9.84,21.35-8.16.08,0,3.77.61,5.41-1l.08-.08.11,0c.25-.09,6.15-2.07,9.66.61l-.61.79c-2.85-2.18-7.85-.74-8.62-.49-2,1.9-6,1.25-6.16,1.22C461.34,363.85,458,372.88,457.94,373Z"/><path class="cls-35" d="M498,368.5l-.92-.39c.32-.77.61-2,.29-2.32-.07-.07-6.06-7.14-5.25-8.56a17.41,17.41,0,0,0,.18-4.89l1-.06c.05.74.23,4.49-.31,5.44,0,.89,4.21,6.49,5.08,7.36S498.17,368.09,498,368.5Z"/></g><g class="cls-45"><path class="cls-37" d="M190,275.55s-6.77,14.38-4.3,22.7S202.88,312,202.88,312s37.07,22.44,68.87,18.45,21.38-11,21.38-11l-55.79-45.94Z"/><path class="cls-37" d="M298,272s-5.18,10.44-3,17.43,15.57,10.15,15.57,10.15l10.35.39,104,5.36s7.43-21.13-51.76-33.44S298,272,298,272Z"/><path class="cls-46" d="M202.2,14.2l2.37,26.31s-29.12,70.66-9.27,203l-6,40.43s24.06,11.27,41.43,15.9a72.35,72.35,0,0,0,32,1.2s-39.64-43.48-45.34-49.63L267.07,11S238.58-46.54,202.2,14.2Z"/><path class="cls-46" d="M284.55,12.39S258.79,82.93,300,217.08c0,0,5.91,55.23-2.05,54.93s81.06,6.76,86.9,7-44.4-20.8-48.8-31.06-6.29-201.14-.33-218.46a234.54,234.54,0,0,0,8.72-34.22S289.46,1.67,284.55,12.39Z"/><path class="cls-37" d="M172.66-198.52S155.05-125.95,157-106.07s4.68,52.17,34,145.94c0,0,78.26,32.39,150.2-.8,0,0,6.29-1.86,10.91-43.82s12.42-142.59-8.72-187.46S172.66-198.52,172.66-198.52Z"/></g><path class="cls-47" d="M567.43,239.56a12.38,12.38,0,0,1-2.74,8.34,8.89,8.89,0,0,1-7.11,3.21,8.68,8.68,0,0,1-7-3.22,12.51,12.51,0,0,1-2.7-8.33v-.29a12.6,12.6,0,0,1,2.69-8.34,8.67,8.67,0,0,1,7-3.22,8.92,8.92,0,0,1,7.12,3.22,12.47,12.47,0,0,1,2.74,8.34Zm-1.88-.32a11.26,11.26,0,0,0-2.15-7.16,7,7,0,0,0-5.83-2.73,6.81,6.81,0,0,0-5.71,2.73,11.43,11.43,0,0,0-2.1,7.16v.32a11.42,11.42,0,0,0,2.11,7.19,6.81,6.81,0,0,0,5.71,2.74,7,7,0,0,0,5.84-2.73,11.38,11.38,0,0,0,2.13-7.2Z"/><path class="cls-47" d="M582.94,239.1h-1.53l-.22-2.39a4.89,4.89,0,0,0-1.77-1.15,6.9,6.9,0,0,0-2.46-.4,4.57,4.57,0,0,0-3.07.88,2.67,2.67,0,0,0-1,2.07,2.45,2.45,0,0,0,.88,1.94,8.52,8.52,0,0,0,3.52,1.34,11.52,11.52,0,0,1,4.52,1.84,3.78,3.78,0,0,1,1.5,3.16,4.1,4.1,0,0,1-1.71,3.42,7.27,7.27,0,0,1-4.53,1.3,10.48,10.48,0,0,1-3.41-.52,8,8,0,0,1-2.67-1.48v-3.4h1.52l.27,2.4a4.43,4.43,0,0,0,1.89,1.09,8.69,8.69,0,0,0,2.4.33,5.16,5.16,0,0,0,3.21-.89,2.63,2.63,0,0,0,1.17-2.15,2.74,2.74,0,0,0-1-2.08,7.77,7.77,0,0,0-3.52-1.45,11.8,11.8,0,0,1-4.48-1.75,3.57,3.57,0,0,1-1.46-3,4.08,4.08,0,0,1,1.64-3.27,6.65,6.65,0,0,1,4.33-1.34,9.74,9.74,0,0,1,3.4.57,7.17,7.17,0,0,1,2.51,1.54Z"/><path class="cls-47" d="M594.37,242.64a11.3,11.3,0,0,1,1.74-6.58,5.6,5.6,0,0,1,4.86-2.5,6.1,6.1,0,0,1,2.65.56,5.35,5.35,0,0,1,2,1.62l.25-1.86h2.66v21l2.55.44v2h-8.17v-2l2.54-.44v-5.67a5.24,5.24,0,0,1-1.93,1.44,6.36,6.36,0,0,1-2.54.48,5.78,5.78,0,0,1-4.83-2.24,9.35,9.35,0,0,1-1.74-5.9Zm3.07.33a7.4,7.4,0,0,0,1,4.15,3.6,3.6,0,0,0,3.23,1.59,4,4,0,0,0,2.18-.57,4.45,4.45,0,0,0,1.51-1.59v-8.49a4.73,4.73,0,0,0-1.51-1.51,4,4,0,0,0-2.14-.56,3.49,3.49,0,0,0-3.26,1.86,9.73,9.73,0,0,0-1.06,4.79Z"/><path class="cls-47" d="M624.49,248.28a5.74,5.74,0,0,1-2,2.1,5.65,5.65,0,0,1-2.9.73,5.43,5.43,0,0,1-4.3-1.76q-1.54-1.77-1.55-5.5V236.3l-1.93-.44v-2h5v10a6.32,6.32,0,0,0,.8,3.72,3,3,0,0,0,2.48,1,5.06,5.06,0,0,0,2.71-.66,4.11,4.11,0,0,0,1.62-1.89V236.3l-2.26-.44v-2h5.34v14.5l1.94.43v2h-4.71Z"/><path class="cls-47" d="M642.87,250.78c-.1-.45-.17-.87-.22-1.23a10.32,10.32,0,0,1-.11-1.09,7.45,7.45,0,0,1-2.23,1.89,6.37,6.37,0,0,1-6.87-.53,4.76,4.76,0,0,1-1.37-3.63,4.22,4.22,0,0,1,1.94-3.71,9.5,9.5,0,0,1,5.34-1.31h3.17v-2a3.05,3.05,0,0,0-.94-2.36A3.72,3.72,0,0,0,639,236a6.54,6.54,0,0,0-2,.29,3.74,3.74,0,0,0-1.43.82l-.33,1.78H632.8V235.6a9.08,9.08,0,0,1,2.8-1.48,11,11,0,0,1,3.56-.56,7.09,7.09,0,0,1,4.66,1.47,5.14,5.14,0,0,1,1.78,4.21v8.14c0,.22,0,.43,0,.64s0,.41,0,.62l1.25.17v2Zm-5-2.25a5.47,5.47,0,0,0,2.8-.73,4.54,4.54,0,0,0,1.81-1.77v-2.78h-3.28a4.63,4.63,0,0,0-3,.88,2.6,2.6,0,0,0-1.1,2.12,2.13,2.13,0,0,0,.68,1.7A3.15,3.15,0,0,0,637.91,248.53Z"/><path class="cls-47" d="M654.83,229.8v4.08H658v2.28h-3.21v10.26a2.31,2.31,0,0,0,.5,1.68,1.77,1.77,0,0,0,1.3.48,6.36,6.36,0,0,0,.92-.07l.85-.15.42,2.11a3.89,3.89,0,0,1-1.28.46,8.16,8.16,0,0,1-1.69.18,4,4,0,0,1-3-1.13,4.93,4.93,0,0,1-1.11-3.56V236.16h-2.68v-2.28h2.68V229.8Z"/><path class="cls-47" d="M661.18,235.86v-2h5.29l.3,2.45a5.9,5.9,0,0,1,1.78-2,4.1,4.1,0,0,1,2.41-.74,4.71,4.71,0,0,1,.74.06,5,5,0,0,1,.59.12l-.41,2.86-1.75-.1a3.56,3.56,0,0,0-2,.57,3.73,3.73,0,0,0-1.28,1.6v9.71l2.55.43v2h-8.17v-2l2.54-.43V236.3Z"/><path class="cls-47" d="M674.12,242.17a9.28,9.28,0,0,1,2-6.18,7.5,7.5,0,0,1,11.05,0,9.25,9.25,0,0,1,2,6.18v.35a9.3,9.3,0,0,1-2,6.19,7.56,7.56,0,0,1-11.06,0,9.24,9.24,0,0,1-2-6.18Zm3.07.35a8,8,0,0,0,1.14,4.44,4.07,4.07,0,0,0,6.69,0,8,8,0,0,0,1.14-4.44v-.35a8,8,0,0,0-1.14-4.42,3.76,3.76,0,0,0-3.36-1.76,3.71,3.71,0,0,0-3.34,1.76,8.08,8.08,0,0,0-1.13,4.42Z"/><path class="cls-47" d="M699.63,255.3l2.55-.44V236.3l-2.55-.44v-2h5.19l.28,2.06a5.77,5.77,0,0,1,2-1.77,6.28,6.28,0,0,1,2.81-.61,5.63,5.63,0,0,1,4.88,2.5,11.26,11.26,0,0,1,1.74,6.58V243a9.29,9.29,0,0,1-1.75,5.9,5.78,5.78,0,0,1-4.82,2.24,6.71,6.71,0,0,1-2.75-.52,5.31,5.31,0,0,1-2-1.56v5.83l2.54.44v2h-8.17Zm13.86-12.66a9,9,0,0,0-1.12-4.73,3.68,3.68,0,0,0-3.35-1.85,4.11,4.11,0,0,0-2.25.6,4.45,4.45,0,0,0-1.51,1.62v8.24a4.17,4.17,0,0,0,1.5,1.61,4.23,4.23,0,0,0,2.29.58,3.82,3.82,0,0,0,3.32-1.6,7,7,0,0,0,1.12-4.14Z"/><path class="cls-47" d="M719.38,248.81l2.55-.43V236.3l-2.55-.44v-2H725v14.5l2.54.43v2h-8.17ZM725,229.55h-3.08v-3.14H725Z"/><path class="cls-47" d="M729.47,228.39v-2h5.63v22l2.55.43v2h-8.18v-2l2.55-.43V228.83Z"/><path class="cls-47" d="M751,250.78c-.1-.45-.17-.87-.22-1.23a10.32,10.32,0,0,1-.11-1.09,7.45,7.45,0,0,1-2.23,1.89,6.37,6.37,0,0,1-6.87-.53,4.76,4.76,0,0,1-1.37-3.63,4.22,4.22,0,0,1,1.94-3.71,9.5,9.5,0,0,1,5.34-1.31h3.17v-2a3.05,3.05,0,0,0-.94-2.36,3.71,3.71,0,0,0-2.6-.86,6.56,6.56,0,0,0-2,.29,3.74,3.74,0,0,0-1.43.82l-.33,1.78h-2.38V235.6a9.08,9.08,0,0,1,2.8-1.48,11,11,0,0,1,3.56-.56A7.09,7.09,0,0,1,752,235a5.14,5.14,0,0,1,1.78,4.21v8.14c0,.22,0,.43,0,.64s0,.41,0,.62l1.25.17v2Zm-5-2.25a5.47,5.47,0,0,0,2.8-.73,4.54,4.54,0,0,0,1.81-1.77v-2.78h-3.28a4.63,4.63,0,0,0-3,.88,2.6,2.6,0,0,0-1.1,2.12A2.13,2.13,0,0,0,744,248,3.17,3.17,0,0,0,746.05,248.53Z"/><path class="cls-47" d="M757.6,235.86v-2h5.3l.29,2.45a5.9,5.9,0,0,1,1.78-2,4.1,4.1,0,0,1,2.41-.74,4.71,4.71,0,0,1,.74.06,5,5,0,0,1,.59.12l-.41,2.86-1.75-.1a3.5,3.5,0,0,0-2,.57,3.75,3.75,0,0,0-1.29,1.6v9.71l2.55.43v2H757.6v-2l2.55-.43V236.3Z"/><path class="cls-47" d="M778.26,251.11a7.12,7.12,0,0,1-5.62-2.35,8.86,8.86,0,0,1-2.09-6.1V242a8.68,8.68,0,0,1,2.15-6,6.62,6.62,0,0,1,5.09-2.4,6.39,6.39,0,0,1,5.16,2.07,8.2,8.2,0,0,1,1.76,5.5v1.92h-11l0,.08a6.66,6.66,0,0,0,1.24,4,3.93,3.93,0,0,0,3.33,1.58,7.68,7.68,0,0,0,2.74-.45,6.54,6.54,0,0,0,2-1.23l1.2,2a7.17,7.17,0,0,1-2.4,1.48A9.58,9.58,0,0,1,778.26,251.11ZM777.79,236a3.33,3.33,0,0,0-2.64,1.3,6.2,6.2,0,0,0-1.35,3.27l0,.08h7.8v-.4a4.68,4.68,0,0,0-1-3A3.41,3.41,0,0,0,777.79,236Z"/><path class="cls-47" d="M800.68,239.19h-2.31l-.5-2a4.07,4.07,0,0,0-1.42-.85,5.32,5.32,0,0,0-1.93-.32,3.57,3.57,0,0,0-2.44.72,2.22,2.22,0,0,0-.79,1.73A1.93,1.93,0,0,0,792,240a7.34,7.34,0,0,0,2.86,1,12.4,12.4,0,0,1,4.77,1.87,3.75,3.75,0,0,1,1.56,3.16,4.38,4.38,0,0,1-1.82,3.64,7.62,7.62,0,0,1-4.76,1.39,12.61,12.61,0,0,1-3.45-.44,9.35,9.35,0,0,1-2.74-1.29v-3.86h2.31l.58,2.26a3.14,3.14,0,0,0,1.44.71,8.32,8.32,0,0,0,1.87.22,4.38,4.38,0,0,0,2.57-.67,2,2,0,0,0,.93-1.74,2.09,2.09,0,0,0-.77-1.67,7.27,7.27,0,0,0-2.93-1.14,12.28,12.28,0,0,1-4.64-1.83,3.67,3.67,0,0,1-1.57-3.13A4.42,4.42,0,0,1,790,235a6.94,6.94,0,0,1,4.57-1.46,11.18,11.18,0,0,1,3.45.5,7.18,7.18,0,0,1,2.55,1.4Z"/><path class="cls-47" d="M823.4,248.77a5.56,5.56,0,0,1-2,1.75,6.21,6.21,0,0,1-2.77.59,5.8,5.8,0,0,1-4.84-2.24A9.35,9.35,0,0,1,812,243v-.33a11.3,11.3,0,0,1,1.74-6.58,5.62,5.62,0,0,1,4.87-2.5,6,6,0,0,1,2.65.56,5.4,5.4,0,0,1,2,1.6v-6.89l-2.55-.44v-2h5.63v22l2.55.43v2h-5.22Zm-8.3-5.8a7.15,7.15,0,0,0,1,4.09,3.6,3.6,0,0,0,3.23,1.55,4.1,4.1,0,0,0,2.31-.62,4.8,4.8,0,0,0,1.55-1.77v-7.84a4.77,4.77,0,0,0-1.55-1.69,4,4,0,0,0-2.28-.63,3.51,3.51,0,0,0-3.26,1.83,9.49,9.49,0,0,0-1,4.75Z"/><path class="cls-47" d="M831.22,242.17a9.28,9.28,0,0,1,2-6.18,7.5,7.5,0,0,1,11,0,9.25,9.25,0,0,1,2,6.18v.35a9.3,9.3,0,0,1-2,6.19,7.56,7.56,0,0,1-11.06,0,9.25,9.25,0,0,1-2-6.18Zm3.08.35a8,8,0,0,0,1.14,4.44,4.07,4.07,0,0,0,6.69,0,8,8,0,0,0,1.14-4.44v-.35a8,8,0,0,0-1.14-4.42,3.76,3.76,0,0,0-3.36-1.76,3.71,3.71,0,0,0-3.34,1.76,8.08,8.08,0,0,0-1.13,4.42Z"/><path class="cls-47" d="M867.29,228a8,8,0,0,1,5.66,1.88,7.06,7.06,0,0,1,0,9.89,8.06,8.06,0,0,1-5.66,1.86h-4.83v6.72l2.55.43v2h-8.18v-2l2.55-.43V230.46l-2.55-.44v-2h10.46Zm-4.83,11.22h4.83a4.14,4.14,0,0,0,4.61-4.37,4.55,4.55,0,0,0-1.15-3.16,4.46,4.46,0,0,0-3.46-1.26h-4.83Z"/><path class="cls-47" d="M885,251.11a7.12,7.12,0,0,1-5.62-2.35,8.85,8.85,0,0,1-2.08-6.1V242a8.68,8.68,0,0,1,2.14-6,6.63,6.63,0,0,1,5.09-2.4,6.39,6.39,0,0,1,5.16,2.07,8.15,8.15,0,0,1,1.76,5.5v1.92h-11l0,.08a6.66,6.66,0,0,0,1.23,4,3.93,3.93,0,0,0,3.33,1.58,7.68,7.68,0,0,0,2.74-.45,6.32,6.32,0,0,0,2-1.23l1.2,2a7.22,7.22,0,0,1-2.39,1.48A9.67,9.67,0,0,1,885,251.11ZM884.49,236a3.33,3.33,0,0,0-2.64,1.3,6.12,6.12,0,0,0-1.34,3.27l0,.08h7.79v-.4a4.74,4.74,0,0,0-1-3A3.45,3.45,0,0,0,884.49,236Z"/><path class="cls-47" d="M894,248.81l2.55-.43V236.3l-2.55-.44v-2h5.3l.22,2.51a6.08,6.08,0,0,1,2.11-2.08,5.62,5.62,0,0,1,2.9-.75,5.53,5.53,0,0,1,4.24,1.61,7,7,0,0,1,1.5,4.94v8.27l2.54.43v2h-8.17v-2l2.55-.43v-8.21a4.62,4.62,0,0,0-.88-3.17,3.57,3.57,0,0,0-2.7-.94,4.3,4.3,0,0,0-2.35.65,4.59,4.59,0,0,0-1.63,1.75v9.92l2.54.43v2H894Z"/><path class="cls-47" d="M928,239.19h-2.31l-.5-2a3.94,3.94,0,0,0-1.41-.85,5.32,5.32,0,0,0-1.93-.32,3.54,3.54,0,0,0-2.44.72,2.23,2.23,0,0,0-.8,1.73,1.94,1.94,0,0,0,.71,1.58,7.34,7.34,0,0,0,2.86,1,12.28,12.28,0,0,1,4.76,1.87,3.75,3.75,0,0,1,1.56,3.16,4.35,4.35,0,0,1-1.82,3.64,7.59,7.59,0,0,1-4.75,1.39,12.68,12.68,0,0,1-3.46-.44,9.29,9.29,0,0,1-2.73-1.29l0-3.86H918l.57,2.26a3.24,3.24,0,0,0,1.45.71,8.32,8.32,0,0,0,1.87.22,4.38,4.38,0,0,0,2.57-.67,2,2,0,0,0,.93-1.74,2.07,2.07,0,0,0-.78-1.67,7.15,7.15,0,0,0-2.93-1.14,12.35,12.35,0,0,1-4.64-1.83,3.69,3.69,0,0,1-1.56-3.13,4.42,4.42,0,0,1,1.76-3.51,6.92,6.92,0,0,1,4.57-1.46,11.18,11.18,0,0,1,3.45.5,7.26,7.26,0,0,1,2.55,1.4Z"/><path class="cls-47" d="M942.38,250.78c-.09-.45-.17-.87-.22-1.23s-.09-.73-.11-1.09a7.29,7.29,0,0,1-2.22,1.89,6.37,6.37,0,0,1-6.87-.53,4.73,4.73,0,0,1-1.38-3.63,4.21,4.21,0,0,1,1.95-3.71,9.48,9.48,0,0,1,5.34-1.31H942v-2a3.09,3.09,0,0,0-.94-2.36,3.75,3.75,0,0,0-2.61-.86,6.65,6.65,0,0,0-2,.29,3.82,3.82,0,0,0-1.43.82l-.33,1.78h-2.37V235.6a9,9,0,0,1,2.8-1.48,11,11,0,0,1,3.56-.56,7.06,7.06,0,0,1,4.65,1.47,5.14,5.14,0,0,1,1.79,4.21V248c0,.21,0,.41,0,.62l1.25.17v2Zm-5-2.25a5.43,5.43,0,0,0,2.79-.73A4.57,4.57,0,0,0,942,246v-2.78h-3.28a4.68,4.68,0,0,0-3,.88,2.63,2.63,0,0,0-1.1,2.12,2.11,2.11,0,0,0,.69,1.7A3.15,3.15,0,0,0,937.43,248.53Z"/><path class="cls-47" d="M948.37,248.81l2.54-.43V236.3l-2.54-.44v-2h5.31l.2,2.2a5.58,5.58,0,0,1,2.09-1.86,6.43,6.43,0,0,1,3-.66,5.24,5.24,0,0,1,2.9.79,4.67,4.67,0,0,1,1.82,2.34,6.27,6.27,0,0,1,2.11-2.28,5.58,5.58,0,0,1,3.06-.85,5.1,5.1,0,0,1,4.1,1.78,8.09,8.09,0,0,1,1.5,5.33v7.71l2.54.43v2h-8.18v-2l2.54-.43v-7.74a5.6,5.6,0,0,0-.86-3.54,3.11,3.11,0,0,0-2.54-1,3.23,3.23,0,0,0-2.59,1.14,4.87,4.87,0,0,0-1.13,2.85v8.33l2.55.43v2h-8.18v-2l2.55-.43v-7.74a5.51,5.51,0,0,0-.88-3.47,3.08,3.08,0,0,0-2.56-1.11,4.28,4.28,0,0,0-2.31.58,3.77,3.77,0,0,0-1.39,1.63v10.11l2.55.43v2h-8.17Z"/><path class="cls-47" d="M986.77,251.11a7.15,7.15,0,0,1-5.62-2.35,8.85,8.85,0,0,1-2.08-6.1V242a8.64,8.64,0,0,1,2.15-6,6.6,6.6,0,0,1,5.08-2.4,6.41,6.41,0,0,1,5.17,2.07,8.19,8.19,0,0,1,1.75,5.5v1.92h-11l0,.08a6.66,6.66,0,0,0,1.23,4,3.93,3.93,0,0,0,3.33,1.58,7.64,7.64,0,0,0,2.74-.45,6.32,6.32,0,0,0,2-1.23l1.21,2a7.38,7.38,0,0,1-2.4,1.48A9.63,9.63,0,0,1,986.77,251.11ZM986.3,236a3.33,3.33,0,0,0-2.64,1.3,6.12,6.12,0,0,0-1.34,3.27l0,.08h7.8v-.4a4.74,4.74,0,0,0-1-3A3.45,3.45,0,0,0,986.3,236Z"/><path class="cls-47" d="M995.8,248.81l2.55-.43V236.3l-2.55-.44v-2h5.3l.22,2.51a6.11,6.11,0,0,1,2.12-2.08,6.21,6.21,0,0,1,7.13.86,7,7,0,0,1,1.5,4.94v8.27l2.55.43v2h-8.18v-2l2.55-.43v-8.21a4.57,4.57,0,0,0-.88-3.17,3.57,3.57,0,0,0-2.7-.94,4.32,4.32,0,0,0-2.35.65,4.59,4.59,0,0,0-1.63,1.75v9.92l2.54.43v2H995.8Z"/><path class="cls-47" d="M1022.22,229.8v4.08h3.21v2.28h-3.21v10.26a2.31,2.31,0,0,0,.5,1.68,1.78,1.78,0,0,0,1.3.48,6.36,6.36,0,0,0,.92-.07l.85-.15.42,2.11a3.89,3.89,0,0,1-1.28.46,8.09,8.09,0,0,1-1.69.18,4,4,0,0,1-3-1.13,4.93,4.93,0,0,1-1.11-3.56V236.16h-2.68v-2.28h2.68V229.8Z"/><path class="cls-47" d="M1028.27,242.17a9.33,9.33,0,0,1,2-6.18,7.51,7.51,0,0,1,11.06,0,9.25,9.25,0,0,1,2,6.18v.35a9.3,9.3,0,0,1-2,6.19,7.57,7.57,0,0,1-11.07,0,9.29,9.29,0,0,1-2-6.18Zm3.08.35a8.08,8.08,0,0,0,1.13,4.44,4.08,4.08,0,0,0,6.7,0,8,8,0,0,0,1.14-4.44v-.35a8,8,0,0,0-1.14-4.42,4.08,4.08,0,0,0-6.71,0,8.08,8.08,0,0,0-1.12,4.42Z"/><path class="cls-47" d="M565,273.42H562.8l-.58-3.22a5.87,5.87,0,0,0-1.84-1.2,6.47,6.47,0,0,0-2.61-.47,6.36,6.36,0,0,0-5.45,2.57,10.66,10.66,0,0,0-1.91,6.52V278a10.84,10.84,0,0,0,1.87,6.54,6,6,0,0,0,5.18,2.59,7.85,7.85,0,0,0,2.81-.49,5.2,5.2,0,0,0,2-1.19l.58-3.22H565v4.05a8.38,8.38,0,0,1-3,2.26,10,10,0,0,1-4.56,1,9.18,9.18,0,0,1-7.28-3.28,12.14,12.14,0,0,1-2.85-8.25v-.33a12.31,12.31,0,0,1,2.8-8.27,9.19,9.19,0,0,1,7.33-3.27,9.88,9.88,0,0,1,4.56,1,8.88,8.88,0,0,1,3,2.26Z"/><path class="cls-47" d="M568.27,280.57a9.33,9.33,0,0,1,2-6.18,7.51,7.51,0,0,1,11.06,0,9.25,9.25,0,0,1,2,6.18v.35a9.3,9.3,0,0,1-2,6.19,7.57,7.57,0,0,1-11.07,0,9.29,9.29,0,0,1-2-6.18Zm3.08.35a8.08,8.08,0,0,0,1.13,4.44,4.08,4.08,0,0,0,6.7,0,8,8,0,0,0,1.14-4.44v-.35a8,8,0,0,0-1.14-4.42,4.08,4.08,0,0,0-6.71,0,8.08,8.08,0,0,0-1.12,4.42Z"/><path class="cls-47" d="M585.6,287.21l2.55-.43V274.7l-2.55-.44v-2h5.31l.21,2.2a5.51,5.51,0,0,1,2.09-1.86,6.37,6.37,0,0,1,3-.66,5.26,5.26,0,0,1,2.9.79,4.78,4.78,0,0,1,1.82,2.34,6.18,6.18,0,0,1,2.11-2.28,5.53,5.53,0,0,1,3.06-.85,5.08,5.08,0,0,1,4.09,1.78,8.09,8.09,0,0,1,1.5,5.33v7.71l2.55.43v2H606v-2l2.55-.43V279a5.67,5.67,0,0,0-.86-3.54,3.12,3.12,0,0,0-2.55-1,3.23,3.23,0,0,0-2.58,1.14,4.88,4.88,0,0,0-1.14,2.85v8.33l2.55.43v2h-8.17v-2l2.55-.43V279a5.51,5.51,0,0,0-.89-3.47,3.07,3.07,0,0,0-2.55-1.11,4.25,4.25,0,0,0-2.31.58,3.79,3.79,0,0,0-1.4,1.63v10.11l2.55.43v2H585.6Z"/><path class="cls-47" d="M616.07,293.7l2.55-.44V274.7l-2.55-.44v-2h5.19l.28,2.06a5.69,5.69,0,0,1,2.05-1.77,6.25,6.25,0,0,1,2.81-.61,5.63,5.63,0,0,1,4.88,2.5A11.26,11.26,0,0,1,633,281v.33a9.29,9.29,0,0,1-1.75,5.9,5.79,5.79,0,0,1-4.83,2.24,6.7,6.7,0,0,1-2.74-.52,5.34,5.34,0,0,1-2-1.56v5.83l2.55.44v2h-8.17ZM629.93,281a9,9,0,0,0-1.13-4.73,3.67,3.67,0,0,0-3.34-1.85,4.06,4.06,0,0,0-2.25.6,4.55,4.55,0,0,0-1.52,1.62v8.24a4,4,0,0,0,3.8,2.19,3.8,3.8,0,0,0,3.31-1.6,7,7,0,0,0,1.13-4.14Z"/><path class="cls-47" d="M647.91,286.68a5.45,5.45,0,0,1-4.95,2.83,5.44,5.44,0,0,1-4.3-1.76q-1.54-1.77-1.54-5.5V274.7l-1.94-.44v-2h5v10A6.32,6.32,0,0,0,641,286a3,3,0,0,0,2.48,1,5.12,5.12,0,0,0,2.72-.66,4.1,4.1,0,0,0,1.61-1.89V274.7l-2.26-.44v-2h5.34v14.5l1.94.43v2h-4.7Z"/><path class="cls-47" d="M660.63,268.2v4.08h3.2v2.28h-3.2v10.26a2.36,2.36,0,0,0,.49,1.68,1.81,1.81,0,0,0,1.31.48,6.23,6.23,0,0,0,.91-.07l.85-.15.43,2.11a4,4,0,0,1-1.29.46,8,8,0,0,1-1.68.18,4,4,0,0,1-3-1.13,4.93,4.93,0,0,1-1.11-3.56V274.56h-2.67v-2.28h2.67V268.2Z"/><path class="cls-47" d="M678,289.18c-.1-.45-.17-.87-.22-1.23a10.32,10.32,0,0,1-.11-1.09,7.45,7.45,0,0,1-2.23,1.89,6.37,6.37,0,0,1-6.87-.53,4.76,4.76,0,0,1-1.37-3.63,4.22,4.22,0,0,1,1.94-3.71,9.5,9.5,0,0,1,5.34-1.31h3.17v-2a3.05,3.05,0,0,0-.94-2.36,3.71,3.71,0,0,0-2.6-.86,6.56,6.56,0,0,0-2,.29,3.74,3.74,0,0,0-1.43.82l-.33,1.78h-2.38V274a9.08,9.08,0,0,1,2.8-1.48,11,11,0,0,1,3.56-.56,7.14,7.14,0,0,1,4.66,1.47,5.14,5.14,0,0,1,1.78,4.21v8.14c0,.22,0,.43,0,.64s0,.41,0,.62l1.25.17v2Zm-5-2.25a5.47,5.47,0,0,0,2.8-.73,4.54,4.54,0,0,0,1.81-1.77v-2.78h-3.28a4.63,4.63,0,0,0-3,.88,2.6,2.6,0,0,0-1.1,2.12,2.13,2.13,0,0,0,.68,1.7A3.17,3.17,0,0,0,673.05,286.93Z"/><path class="cls-47" d="M692.19,287.11a4.18,4.18,0,0,0,2.7-.95,2.89,2.89,0,0,0,1.16-2.32h2.77l0,.09a4.76,4.76,0,0,1-2,3.89,7.11,7.11,0,0,1-4.71,1.69,6.82,6.82,0,0,1-5.63-2.4,9.3,9.3,0,0,1-1.94-6.05v-.66a9.28,9.28,0,0,1,2-6,6.81,6.81,0,0,1,5.62-2.42,9.39,9.39,0,0,1,3.65.68,7.28,7.28,0,0,1,2.68,1.84l.14,3.75h-2.45l-.67-2.66a4.26,4.26,0,0,0-1.41-.86,5.6,5.6,0,0,0-1.94-.32,3.71,3.71,0,0,0-3.46,1.74,8.21,8.21,0,0,0-1,4.27v.66a8.37,8.37,0,0,0,1,4.32A3.73,3.73,0,0,0,692.19,287.11Z"/><path class="cls-47" d="M701.85,287.21l2.55-.43V274.7l-2.55-.44v-2h5.62v14.5l2.55.43v2h-8.17ZM707.47,268H704.4v-3.14h3.07Z"/><path class="cls-47" d="M712.38,280.57a9.33,9.33,0,0,1,2-6.18,7.51,7.51,0,0,1,11.06,0,9.25,9.25,0,0,1,2,6.18v.35a9.26,9.26,0,0,1-2,6.19,7.56,7.56,0,0,1-11.06,0,9.29,9.29,0,0,1-2-6.18Zm3.08.35a8.08,8.08,0,0,0,1.13,4.44,4.08,4.08,0,0,0,6.7,0,8,8,0,0,0,1.14-4.44v-.35a8,8,0,0,0-1.14-4.42,4.08,4.08,0,0,0-6.71,0,8.08,8.08,0,0,0-1.12,4.42Z"/><path class="cls-47" d="M729.87,287.21l2.54-.43V274.7l-2.54-.44v-2h5.29l.22,2.51a6.11,6.11,0,0,1,2.12-2.08,5.59,5.59,0,0,1,2.9-.75,5.51,5.51,0,0,1,4.23,1.61,7,7,0,0,1,1.5,4.94v8.27l2.55.43v2h-8.17v-2l2.54-.43v-8.21a4.57,4.57,0,0,0-.88-3.17,3.57,3.57,0,0,0-2.7-.94,4.32,4.32,0,0,0-2.35.65,4.66,4.66,0,0,0-1.63,1.75v9.92l2.55.43v2h-8.17Z"/><path class="cls-47" d="M761.94,289.18c-.09-.45-.16-.87-.22-1.23s-.08-.73-.1-1.09a7.45,7.45,0,0,1-2.23,1.89,6.37,6.37,0,0,1-6.87-.53,4.72,4.72,0,0,1-1.37-3.63,4.22,4.22,0,0,1,1.94-3.71,9.5,9.5,0,0,1,5.34-1.31h3.17v-2a3.05,3.05,0,0,0-.94-2.36,3.72,3.72,0,0,0-2.61-.86,6.65,6.65,0,0,0-2,.29,3.82,3.82,0,0,0-1.43.82l-.32,1.78h-2.38V274a9,9,0,0,1,2.8-1.48,11,11,0,0,1,3.56-.56,7.14,7.14,0,0,1,4.66,1.47,5.17,5.17,0,0,1,1.78,4.21v8.14c0,.22,0,.43,0,.64s0,.41,0,.62l1.25.17v2Zm-5-2.25a5.49,5.49,0,0,0,2.8-.73,4.6,4.6,0,0,0,1.81-1.77v-2.78h-3.28a4.63,4.63,0,0,0-3,.88,2.62,2.62,0,0,0-1.11,2.12,2.11,2.11,0,0,0,.69,1.7A3.15,3.15,0,0,0,757,286.93Z"/><path class="cls-47" d="M768.12,266.79v-2h5.62v22l2.55.43v2h-8.17v-2l2.54-.43V267.23Z"/><path class="cls-47" d="M794,289.51a6.82,6.82,0,0,1-5.28-2.33,8.61,8.61,0,0,1-2.09-5.95v-.86a8.82,8.82,0,0,1,2.09-6,6.44,6.44,0,0,1,5-2.4,6.29,6.29,0,0,1,4.9,2,7.59,7.59,0,0,1,1.78,5.25v1.6H788.46v.45A7.46,7.46,0,0,0,790,286a4.84,4.84,0,0,0,4,1.93,8.18,8.18,0,0,0,3-.48,5.8,5.8,0,0,0,2.11-1.39l.8,1.28a6.76,6.76,0,0,1-2.41,1.59A9.27,9.27,0,0,1,794,289.51Zm-.25-15.95a4.49,4.49,0,0,0-3.47,1.58,6.8,6.8,0,0,0-1.65,4l0,.08h9.91v-.47a5.43,5.43,0,0,0-1.3-3.69A4.43,4.43,0,0,0,793.72,273.56Z"/><path class="cls-47" d="M816,277.5h-1.54l-.21-2.39a4.85,4.85,0,0,0-1.78-1.15,6.9,6.9,0,0,0-2.46-.4,4.59,4.59,0,0,0-3.07.88,2.67,2.67,0,0,0-1,2.07,2.45,2.45,0,0,0,.88,1.94,8.52,8.52,0,0,0,3.52,1.34,11.52,11.52,0,0,1,4.52,1.84,3.79,3.79,0,0,1,1.5,3.16,4.1,4.1,0,0,1-1.71,3.42,7.26,7.26,0,0,1-4.52,1.3,10.58,10.58,0,0,1-3.42-.52,8,8,0,0,1-2.66-1.48v-3.4h1.51l.27,2.4a4.4,4.4,0,0,0,1.9,1.09,8.59,8.59,0,0,0,2.4.33,5.13,5.13,0,0,0,3.2-.89,2.63,2.63,0,0,0,1.17-2.15,2.74,2.74,0,0,0-1-2.08,7.77,7.77,0,0,0-3.52-1.45,11.87,11.87,0,0,1-4.48-1.75,3.57,3.57,0,0,1-1.46-3,4.08,4.08,0,0,1,1.64-3.27A6.67,6.67,0,0,1,810,272a9.74,9.74,0,0,1,3.4.58,6.92,6.92,0,0,1,2.51,1.53Z"/><path class="cls-47" d="M824.05,268v4.33h3.72v1.53h-3.72v11a3.64,3.64,0,0,0,.6,2.36,2,2,0,0,0,1.61.69,8.51,8.51,0,0,0,.88,0c.28,0,.62-.07,1-.13l.28,1.39a4.91,4.91,0,0,1-1.14.31,8.65,8.65,0,0,1-1.34.11,3.52,3.52,0,0,1-2.78-1.12,5.32,5.32,0,0,1-1-3.57v-11h-2.9v-1.53h2.9V268Z"/><path class="cls-47" d="M842.88,289.18c-.12-.57-.21-1.06-.26-1.48a8.93,8.93,0,0,1-.08-1.27,7.57,7.57,0,0,1-2.5,2.21,7.12,7.12,0,0,1-3.52.87,5.4,5.4,0,0,1-3.84-1.28,4.52,4.52,0,0,1-1.36-3.47,4.3,4.3,0,0,1,2-3.72,9.65,9.65,0,0,1,5.47-1.37h3.74v-2.24a3.6,3.6,0,0,0-1.17-2.84,4.71,4.71,0,0,0-3.25-1,8.31,8.31,0,0,0-2.57.38,5.83,5.83,0,0,0-1.95,1l-.16,2.27H831.9V274a9.46,9.46,0,0,1,2.81-1.47,10.39,10.39,0,0,1,3.47-.57,6.76,6.76,0,0,1,4.5,1.43,5,5,0,0,1,1.71,4.07v8.32c0,.34,0,.67,0,1a9.13,9.13,0,0,0,.1.93l1.69.11v1.37Zm.67-23.42a3.14,3.14,0,0,1-.86,2.28,2.8,2.8,0,0,1-2.14.91,4.11,4.11,0,0,1-2.36-.86,3.78,3.78,0,0,0-2-.86,1.61,1.61,0,0,0-1.24.55,2,2,0,0,0-.5,1.39l-1.23-.28a3.25,3.25,0,0,1,.83-2.26,2.78,2.78,0,0,1,2.14-.92,4.33,4.33,0,0,1,2.3.86,4.09,4.09,0,0,0,2.1.86,1.62,1.62,0,0,0,1.24-.56,2,2,0,0,0,.51-1.42Zm-6.83,22.1a6.8,6.8,0,0,0,3.58-.94,5.59,5.59,0,0,0,2.24-2.42v-3.39h-3.77a7.06,7.06,0,0,0-4.07,1.05,3.14,3.14,0,0,0-1.52,2.66,2.79,2.79,0,0,0,.94,2.2A3.78,3.78,0,0,0,836.72,287.86Z"/><path class="cls-47" d="M848.87,280.48a9.08,9.08,0,0,1,2-6.12,7.34,7.34,0,0,1,10.86,0,9,9,0,0,1,2.05,6.12V281a9.09,9.09,0,0,1-2,6.13,6.76,6.76,0,0,1-5.41,2.38,6.83,6.83,0,0,1-5.46-2.38,9.09,9.09,0,0,1-2-6.13Zm1.87.52a8,8,0,0,0,1.48,4.93,5.24,5.24,0,0,0,8.24,0,8,8,0,0,0,1.48-4.93v-.52a8,8,0,0,0-1.49-4.91,5.22,5.22,0,0,0-8.23,0,8.06,8.06,0,0,0-1.48,4.91Z"/><path class="cls-47" d="M886.91,277.5h-1.53l-.22-2.39a4.89,4.89,0,0,0-1.77-1.15,7,7,0,0,0-2.46-.4,4.57,4.57,0,0,0-3.07.88,2.65,2.65,0,0,0-1,2.07,2.46,2.46,0,0,0,.89,1.94,8.46,8.46,0,0,0,3.52,1.34,11.52,11.52,0,0,1,4.52,1.84,3.79,3.79,0,0,1,1.5,3.16,4.1,4.1,0,0,1-1.71,3.42,7.29,7.29,0,0,1-4.53,1.3,10.48,10.48,0,0,1-3.41-.52,8,8,0,0,1-2.67-1.48v-3.4h1.52l.26,2.4a4.46,4.46,0,0,0,1.9,1.09,8.69,8.69,0,0,0,2.4.33,5.11,5.11,0,0,0,3.2-.89,2.61,2.61,0,0,0,1.18-2.15,2.74,2.74,0,0,0-1-2.08,7.82,7.82,0,0,0-3.52-1.45,11.8,11.8,0,0,1-4.48-1.75,3.57,3.57,0,0,1-1.46-3,4.08,4.08,0,0,1,1.64-3.27,6.65,6.65,0,0,1,4.33-1.34,9.74,9.74,0,0,1,3.4.58,6.88,6.88,0,0,1,2.5,1.53Z"/><path class="cls-47" d="M898.12,289.51a6.82,6.82,0,0,1-5.29-2.33,8.61,8.61,0,0,1-2.09-5.95v-.86a8.82,8.82,0,0,1,2.09-6,6.45,6.45,0,0,1,5-2.4,6.28,6.28,0,0,1,4.89,2,7.59,7.59,0,0,1,1.78,5.25v1.6H892.6v.45a7.46,7.46,0,0,0,1.52,4.77,4.85,4.85,0,0,0,4,1.93,8.16,8.16,0,0,0,3-.48,5.8,5.8,0,0,0,2.11-1.39l.8,1.28a6.76,6.76,0,0,1-2.41,1.59A9.21,9.21,0,0,1,898.12,289.51Zm-.25-15.95a4.49,4.49,0,0,0-3.48,1.58,6.87,6.87,0,0,0-1.65,4l0,.08h9.91v-.47a5.38,5.38,0,0,0-1.3-3.69A4.42,4.42,0,0,0,897.87,273.56Z"/><path class="cls-47" d="M907.54,287.81l2.54-.2V273.87l-2.54-.2v-1.39h4.2l.17,3a6,6,0,0,1,2.2-2.41,6.09,6.09,0,0,1,3.27-.86,5.25,5.25,0,0,1,4.19,1.68q1.44,1.68,1.44,5.25v8.72l2.54.2v1.37h-7v-1.37l2.55-.2V278.9c0-1.94-.36-3.3-1.08-4.11a4,4,0,0,0-3.09-1.2,4.86,4.86,0,0,0-3.21,1,5.71,5.71,0,0,0-1.79,2.76v10.22l2.55.2v1.37h-7Z"/><path class="cls-47" d="M940.08,286.75a5.81,5.81,0,0,1-2.17,2,6.45,6.45,0,0,1-3.12.72,5.6,5.6,0,0,1-4.74-2.26,9.74,9.74,0,0,1-1.72-6.05v-.33a11,11,0,0,1,1.72-6.48,5.53,5.53,0,0,1,4.77-2.43,6,6,0,0,1,3.06.75,6.13,6.13,0,0,1,2.16,2.11V266.4l-2.55-.2v-1.39h4.42v22.8l2.55.2v1.37h-4.22Zm-9.86-5.55a8.52,8.52,0,0,0,1.23,4.87,4.17,4.17,0,0,0,3.7,1.82,5.19,5.19,0,0,0,3-.82,5.38,5.38,0,0,0,1.89-2.23v-8a5.78,5.78,0,0,0-1.81-2.34,4.81,4.81,0,0,0-3.05-.91,4.07,4.07,0,0,0-3.71,2,9.92,9.92,0,0,0-1.25,5.26Z"/><path class="cls-47" d="M947.33,280.48a9.09,9.09,0,0,1,2-6.12,7.34,7.34,0,0,1,10.86,0,9.09,9.09,0,0,1,2,6.12V281a9.09,9.09,0,0,1-2,6.13,7.4,7.4,0,0,1-10.87,0,9.1,9.1,0,0,1-2-6.13Zm1.88.52a8,8,0,0,0,1.48,4.93,5.24,5.24,0,0,0,8.24,0,8,8,0,0,0,1.48-4.93v-.52a8.06,8.06,0,0,0-1.49-4.91,5.22,5.22,0,0,0-8.23,0,8.06,8.06,0,0,0-1.48,4.91Z"/><path class="cls-47" d="M984.87,286.75a5.91,5.91,0,0,1-2.18,2,6.42,6.42,0,0,1-3.12.72,5.6,5.6,0,0,1-4.74-2.26,9.81,9.81,0,0,1-1.71-6.05v-.33a11.05,11.05,0,0,1,1.71-6.48A5.53,5.53,0,0,1,979.6,272a6,6,0,0,1,3.06.75,6.05,6.05,0,0,1,2.16,2.11V266.4l-2.55-.2v-1.39h4.42v22.8l2.55.2v1.37H985ZM975,281.2a8.53,8.53,0,0,0,1.22,4.87,4.17,4.17,0,0,0,3.7,1.82,5.23,5.23,0,0,0,3-.82,5.43,5.43,0,0,0,1.88-2.23v-8A5.78,5.78,0,0,0,983,274.5a4.81,4.81,0,0,0-3-.91,4.07,4.07,0,0,0-3.71,2,9.92,9.92,0,0,0-1.24,5.26Z"/><path class="cls-47" d="M999.57,289.51a6.79,6.79,0,0,1-5.28-2.33,8.57,8.57,0,0,1-2.1-5.95v-.86a8.82,8.82,0,0,1,2.09-6,6.45,6.45,0,0,1,5-2.4,6.28,6.28,0,0,1,4.89,2,7.54,7.54,0,0,1,1.78,5.25v1.6H994.05v.45a7.41,7.41,0,0,0,1.53,4.77,4.82,4.82,0,0,0,4,1.93,8.26,8.26,0,0,0,3-.48,6,6,0,0,0,2.11-1.39l.79,1.28a6.63,6.63,0,0,1-2.4,1.59A9.3,9.3,0,0,1,999.57,289.51Zm-.25-15.95a4.49,4.49,0,0,0-3.48,1.58,6.87,6.87,0,0,0-1.65,4l0,.08h9.91v-.47a5.38,5.38,0,0,0-1.3-3.69A4.41,4.41,0,0,0,999.32,273.56Z"/><path class="cls-47" d="M547.82,319.27a10.91,10.91,0,0,1,1.73-6.48,5.53,5.53,0,0,1,4.78-2.43,6,6,0,0,1,3.12.79,6.3,6.3,0,0,1,2.18,2.23l.22-2.7h1.58v16.68a7.25,7.25,0,0,1-1.77,5.16,6.41,6.41,0,0,1-4.92,1.89,12.29,12.29,0,0,1-2.6-.3,9.68,9.68,0,0,1-2.42-.81l.5-1.58a10.42,10.42,0,0,0,4.49,1,4.53,4.53,0,0,0,3.62-1.42,5.86,5.86,0,0,0,1.22-4v-2.14a5.85,5.85,0,0,1-2.17,2,6.51,6.51,0,0,1-3.08.69,5.63,5.63,0,0,1-4.76-2.26,9.74,9.74,0,0,1-1.72-6Zm1.87.33a8.51,8.51,0,0,0,1.25,4.87,4.19,4.19,0,0,0,3.71,1.82,5,5,0,0,0,4.9-3.11v-7.85a5.9,5.9,0,0,0-1.79-2.41,4.83,4.83,0,0,0-3.08-.93,4.12,4.12,0,0,0-3.73,2,9.86,9.86,0,0,0-1.26,5.25Z"/><path class="cls-47" d="M569.72,310.68l.24,2.81v.2a6,6,0,0,1,2-2.44,5,5,0,0,1,3-.89,3.93,3.93,0,0,1,.69.06l.56.12-.25,1.75-1.4-.1a4.23,4.23,0,0,0-2.89,1,5.45,5.45,0,0,0-1.62,2.73V326l2.55.21v1.37h-7v-1.37l2.55-.21V312.27l-2.55-.2v-1.39h4.17Z"/><path class="cls-47" d="M590.21,327.58c-.13-.57-.21-1.06-.27-1.48a10.69,10.69,0,0,1-.07-1.27,7.57,7.57,0,0,1-2.5,2.21,7.15,7.15,0,0,1-3.52.87,5.38,5.38,0,0,1-3.84-1.28,4.52,4.52,0,0,1-1.36-3.47,4.3,4.3,0,0,1,2-3.72,9.65,9.65,0,0,1,5.47-1.37h3.74v-2.24A3.6,3.6,0,0,0,588.7,313a4.74,4.74,0,0,0-3.26-1,8.4,8.4,0,0,0-2.57.38,5.88,5.88,0,0,0-1.94,1l-.16,2.27h-1.55l0-3.25a9.46,9.46,0,0,1,2.81-1.47,10.39,10.39,0,0,1,3.47-.57,6.76,6.76,0,0,1,4.5,1.43,5,5,0,0,1,1.7,4.07v8.32q0,.51,0,1a7,7,0,0,0,.1.93l1.69.11v1.37Zm-6.16-1.33a6.8,6.8,0,0,0,3.58-.93,5.59,5.59,0,0,0,2.24-2.42v-3.4H586.1a7.06,7.06,0,0,0-4.07,1.06,3.12,3.12,0,0,0-1.52,2.66,2.79,2.79,0,0,0,.94,2.2A3.78,3.78,0,0,0,584.05,326.25Z"/><path class="cls-47" d="M595.85,326.21l2.55-.21V312.27l-2.55-.2v-1.39h4.2l.17,2.95a5.87,5.87,0,0,1,5.47-3.27,5.21,5.21,0,0,1,4.19,1.68q1.44,1.68,1.44,5.25V326l2.55.21v1.37h-7v-1.37l2.54-.21v-8.7c0-1.94-.36-3.3-1.08-4.11a4,4,0,0,0-3.09-1.2,4.86,4.86,0,0,0-3.21,1,5.78,5.78,0,0,0-1.79,2.76V326l2.55.21v1.37h-7Z"/><path class="cls-47" d="M628.4,325.15a5.91,5.91,0,0,1-2.18,2,6.42,6.42,0,0,1-3.12.72,5.6,5.6,0,0,1-4.74-2.26,9.81,9.81,0,0,1-1.71-6v-.33a11.05,11.05,0,0,1,1.71-6.48,5.5,5.5,0,0,1,4.77-2.43,6,6,0,0,1,3.06.75,6.05,6.05,0,0,1,2.16,2.11V304.8l-2.55-.2v-1.39h4.42V326l2.55.21v1.37h-4.22Zm-9.86-5.55a8.6,8.6,0,0,0,1.22,4.87,4.17,4.17,0,0,0,3.7,1.82,5.23,5.23,0,0,0,3-.82,5.43,5.43,0,0,0,1.88-2.23v-8a5.85,5.85,0,0,0-1.8-2.34,4.86,4.86,0,0,0-3.06-.91,4.07,4.07,0,0,0-3.71,2,9.92,9.92,0,0,0-1.24,5.26Z"/><path class="cls-47" d="M643.1,327.91a6.79,6.79,0,0,1-5.28-2.33,8.57,8.57,0,0,1-2.1-5.95v-.86a8.84,8.84,0,0,1,2.09-6,6.47,6.47,0,0,1,5-2.39,6.28,6.28,0,0,1,4.89,2,7.54,7.54,0,0,1,1.78,5.25v1.6H637.58v.45a7.41,7.41,0,0,0,1.53,4.77,4.82,4.82,0,0,0,4,1.93,8.18,8.18,0,0,0,3-.48,6,6,0,0,0,2.11-1.39l.79,1.28a6.76,6.76,0,0,1-2.4,1.59A9.3,9.3,0,0,1,643.1,327.91Zm-.25-16a4.51,4.51,0,0,0-3.48,1.58,6.87,6.87,0,0,0-1.65,4l0,.08h9.9v-.47a5.43,5.43,0,0,0-1.29-3.69A4.44,4.44,0,0,0,642.85,312Z"/><path class="cls-47" d="M665.55,312.07l-2.11.15,4.22,11.13.55,2h.09l.6-2,4.15-11.13-2.11-.15v-1.39h5.69v1.39l-1.66.14-6,15.37h-1.5l-6-15.37-1.65-.14v-1.39h5.68Z"/><path class="cls-47" d="M690.13,327.58c-.12-.57-.21-1.06-.26-1.48a8.93,8.93,0,0,1-.08-1.27,7.57,7.57,0,0,1-2.5,2.21,7.12,7.12,0,0,1-3.52.87,5.4,5.4,0,0,1-3.84-1.28,4.52,4.52,0,0,1-1.36-3.47,4.3,4.3,0,0,1,2-3.72,9.65,9.65,0,0,1,5.47-1.37h3.74v-2.24a3.6,3.6,0,0,0-1.17-2.84,4.71,4.71,0,0,0-3.25-1,8.31,8.31,0,0,0-2.57.38,5.83,5.83,0,0,0-1.95,1l-.16,2.27h-1.54V312.4a9.46,9.46,0,0,1,2.81-1.47,10.39,10.39,0,0,1,3.47-.57,6.76,6.76,0,0,1,4.5,1.43,5,5,0,0,1,1.71,4.07v8.32c0,.34,0,.67,0,1a9.13,9.13,0,0,0,.1.93l1.69.11v1.37ZM684,326.25a6.8,6.8,0,0,0,3.58-.93,5.59,5.59,0,0,0,2.24-2.42v-3.4H686a7.06,7.06,0,0,0-4.07,1.06,3.14,3.14,0,0,0-1.52,2.66,2.79,2.79,0,0,0,.94,2.2A3.78,3.78,0,0,0,684,326.25Z"/><path class="cls-47" d="M695.74,304.6v-1.39h4.41V326l2.54.21v1.37h-7v-1.37l2.55-.21V304.8Z"/><path class="cls-47" d="M705.52,326.21l2.55-.21V312.27l-2.55-.2v-1.39h4.41V326l2.54.21v1.37h-7Zm4.41-20.38h-1.86v-2.62h1.86Z"/><path class="cls-47" d="M727.29,327.58a14.48,14.48,0,0,1-.27-1.48,10.69,10.69,0,0,1-.08-1.27,7.47,7.47,0,0,1-2.5,2.21,7.08,7.08,0,0,1-3.51.87,5.42,5.42,0,0,1-3.85-1.28,4.56,4.56,0,0,1-1.36-3.47,4.31,4.31,0,0,1,2-3.72,9.63,9.63,0,0,1,5.47-1.37h3.73v-2.24a3.63,3.63,0,0,0-1.16-2.84,4.74,4.74,0,0,0-3.26-1,8.35,8.35,0,0,0-2.57.38,5.78,5.78,0,0,0-1.94,1l-.16,2.27H716.3l0-3.25a9.4,9.4,0,0,1,2.8-1.47,10.5,10.5,0,0,1,3.48-.57,6.8,6.8,0,0,1,4.5,1.43,5,5,0,0,1,1.7,4.07v8.32q0,.51,0,1a7,7,0,0,0,.1.93l1.69.11v1.37Zm-6.16-1.33a6.82,6.82,0,0,0,3.58-.93,5.56,5.56,0,0,0,2.23-2.42v-3.4h-3.76a7,7,0,0,0-4.07,1.06,3.13,3.13,0,0,0-1.53,2.66,2.8,2.8,0,0,0,.95,2.2A3.78,3.78,0,0,0,721.13,326.25Z"/><path class="cls-47" d="M740.71,326.21l2.55-.21V312.27l-2.55-.2v-1.39h4.2l.17,2.95a5.87,5.87,0,0,1,5.47-3.27,5.21,5.21,0,0,1,4.19,1.68q1.44,1.68,1.44,5.25V326l2.54.21v1.37h-7v-1.37l2.54-.21v-8.7c0-1.94-.36-3.3-1.08-4.11a4,4,0,0,0-3.09-1.2,4.86,4.86,0,0,0-3.21,1,5.78,5.78,0,0,0-1.79,2.76V326l2.55.21v1.37h-7Z"/><path class="cls-47" d="M769,327.91a6.79,6.79,0,0,1-5.28-2.33,8.57,8.57,0,0,1-2.1-5.95v-.86a8.84,8.84,0,0,1,2.09-6,6.47,6.47,0,0,1,5-2.39,6.28,6.28,0,0,1,4.89,2,7.54,7.54,0,0,1,1.78,5.25v1.6H763.44v.45A7.41,7.41,0,0,0,765,324.4a4.82,4.82,0,0,0,4,1.93,8.22,8.22,0,0,0,3-.48,6,6,0,0,0,2.11-1.39l.79,1.28a6.76,6.76,0,0,1-2.4,1.59A9.3,9.3,0,0,1,769,327.91Zm-.25-16a4.49,4.49,0,0,0-3.48,1.58,6.87,6.87,0,0,0-1.65,4l0,.08h9.9v-.47a5.38,5.38,0,0,0-1.3-3.69A4.41,4.41,0,0,0,768.71,312Z"/><path class="cls-47" d="M791,315.9h-1.53l-.22-2.4a5,5,0,0,0-1.77-1.14A7,7,0,0,0,785,312a4.57,4.57,0,0,0-3.07.88,2.65,2.65,0,0,0-1,2.07,2.46,2.46,0,0,0,.89,1.94,8.46,8.46,0,0,0,3.52,1.34,11.46,11.46,0,0,1,4.51,1.84,3.78,3.78,0,0,1,1.5,3.16,4.1,4.1,0,0,1-1.71,3.42,7.26,7.26,0,0,1-4.52,1.3,10.48,10.48,0,0,1-3.41-.52,8,8,0,0,1-2.67-1.48V322.5h1.52l.26,2.41a4.46,4.46,0,0,0,1.9,1.09,8.69,8.69,0,0,0,2.4.33,5.13,5.13,0,0,0,3.2-.89,2.63,2.63,0,0,0,1.17-2.15,2.73,2.73,0,0,0-1-2.08,7.92,7.92,0,0,0-3.53-1.46A11.59,11.59,0,0,1,780.5,318a3.54,3.54,0,0,1-1.46-3,4.05,4.05,0,0,1,1.64-3.27,6.63,6.63,0,0,1,4.33-1.34,9.65,9.65,0,0,1,3.39.57,7,7,0,0,1,2.51,1.54Z"/><path class="cls-47" d="M807,315.9h-1.54l-.21-2.4a5,5,0,0,0-1.78-1.14A6.9,6.9,0,0,0,801,312a4.59,4.59,0,0,0-3.07.88,2.67,2.67,0,0,0-1,2.07,2.45,2.45,0,0,0,.88,1.94,8.52,8.52,0,0,0,3.52,1.34,11.52,11.52,0,0,1,4.52,1.84,3.78,3.78,0,0,1,1.5,3.16,4.1,4.1,0,0,1-1.71,3.42,7.26,7.26,0,0,1-4.52,1.3,10.58,10.58,0,0,1-3.42-.52,8,8,0,0,1-2.66-1.48V322.5h1.51l.27,2.41a4.4,4.4,0,0,0,1.9,1.09,8.59,8.59,0,0,0,2.4.33,5.13,5.13,0,0,0,3.2-.89,2.63,2.63,0,0,0,1.17-2.15,2.74,2.74,0,0,0-1-2.08,7.87,7.87,0,0,0-3.52-1.46,11.72,11.72,0,0,1-4.48-1.74,3.57,3.57,0,0,1-1.46-3,4.08,4.08,0,0,1,1.64-3.27,6.67,6.67,0,0,1,4.33-1.34,9.74,9.74,0,0,1,3.4.57,7.08,7.08,0,0,1,2.51,1.54Z"/><path class="cls-47" d="M818.21,327.91a6.79,6.79,0,0,1-5.28-2.33,8.57,8.57,0,0,1-2.1-5.95v-.86a8.84,8.84,0,0,1,2.09-6,6.47,6.47,0,0,1,5-2.39,6.28,6.28,0,0,1,4.89,2,7.54,7.54,0,0,1,1.78,5.25v1.6H812.69v.45a7.41,7.41,0,0,0,1.53,4.77,4.82,4.82,0,0,0,4,1.93,8.22,8.22,0,0,0,3-.48,6,6,0,0,0,2.11-1.39l.79,1.28a6.76,6.76,0,0,1-2.4,1.59A9.3,9.3,0,0,1,818.21,327.91ZM818,312a4.49,4.49,0,0,0-3.48,1.58,6.87,6.87,0,0,0-1.65,4l0,.08h9.9v-.47a5.38,5.38,0,0,0-1.3-3.69A4.41,4.41,0,0,0,818,312Z"/><path class="cls-47" d="M843.21,327.91a6.79,6.79,0,0,1-5.28-2.33,8.57,8.57,0,0,1-2.1-5.95v-.86a8.84,8.84,0,0,1,2.09-6,6.47,6.47,0,0,1,5-2.39,6.28,6.28,0,0,1,4.89,2,7.54,7.54,0,0,1,1.78,5.25v1.6H837.69v.45a7.41,7.41,0,0,0,1.53,4.77,4.82,4.82,0,0,0,4,1.93,8.22,8.22,0,0,0,3-.48,6,6,0,0,0,2.11-1.39l.79,1.28a6.76,6.76,0,0,1-2.4,1.59A9.3,9.3,0,0,1,843.21,327.91ZM843,312a4.49,4.49,0,0,0-3.48,1.58,6.87,6.87,0,0,0-1.65,4l0,.08h9.9v-.47a5.38,5.38,0,0,0-1.3-3.69A4.41,4.41,0,0,0,843,312Z"/><path class="cls-47" d="M857.68,312.07l-2.11.15,4.22,11.13.54,2h.1l.59-2,4.16-11.13-2.11-.15v-1.39h5.69v1.39l-1.66.14-6,15.37h-1.5l-6-15.37-1.66-.14v-1.39h5.69Z"/><path class="cls-47" d="M878.07,327.91a6.79,6.79,0,0,1-5.28-2.33,8.57,8.57,0,0,1-2.1-5.95v-.86a8.84,8.84,0,0,1,2.09-6,6.47,6.47,0,0,1,5-2.39,6.28,6.28,0,0,1,4.89,2,7.54,7.54,0,0,1,1.78,5.25v1.6H872.55v.45a7.41,7.41,0,0,0,1.53,4.77,4.82,4.82,0,0,0,4,1.93,8.26,8.26,0,0,0,3-.48,6,6,0,0,0,2.11-1.39l.79,1.28a6.76,6.76,0,0,1-2.4,1.59A9.3,9.3,0,0,1,878.07,327.91Zm-.25-16a4.49,4.49,0,0,0-3.48,1.58,6.87,6.87,0,0,0-1.65,4l0,.08h9.91v-.47a5.38,5.38,0,0,0-1.3-3.69A4.41,4.41,0,0,0,877.82,312Z"/><path class="cls-47" d="M887.49,326.21,890,326V312.27l-2.55-.2v-1.39h4.2l.18,2.95a6,6,0,0,1,2.19-2.41,6.09,6.09,0,0,1,3.27-.86,5.21,5.21,0,0,1,4.19,1.68q1.44,1.68,1.44,5.25V326l2.55.21v1.37h-7v-1.37l2.54-.21v-8.7c0-1.94-.36-3.3-1.08-4.11a4,4,0,0,0-3.09-1.2,4.86,4.86,0,0,0-3.21,1,5.78,5.78,0,0,0-1.79,2.76V326l2.55.21v1.37h-7Z"/><path class="cls-47" d="M912.74,306.35v4.33h3.72v1.53h-3.72v11a3.64,3.64,0,0,0,.6,2.36,2,2,0,0,0,1.6.69,8.57,8.57,0,0,0,.89,0c.28,0,.61-.07,1-.13l.28,1.39a4.91,4.91,0,0,1-1.14.31,8.75,8.75,0,0,1-1.34.11,3.51,3.51,0,0,1-2.78-1.12,5.32,5.32,0,0,1-1-3.57v-11h-2.91v-1.53h2.91v-4.33Z"/><path class="cls-47" d="M919.58,318.88a9.13,9.13,0,0,1,2-6.13,7.36,7.36,0,0,1,10.86,0,9.13,9.13,0,0,1,2,6.13v.52a9.09,9.09,0,0,1-2,6.13,7.4,7.4,0,0,1-10.87,0,9.1,9.1,0,0,1-2-6.13Zm1.88.52a8,8,0,0,0,1.48,4.93,5.24,5.24,0,0,0,8.24,0,8,8,0,0,0,1.48-4.93v-.52a8.06,8.06,0,0,0-1.49-4.91,5.22,5.22,0,0,0-8.23,0,8.06,8.06,0,0,0-1.48,4.91Z"/><path class="cls-47" d="M940.47,327.58h-2.14V325h2.14Z"/></g></svg>