<svg xmlns="http://www.w3.org/2000/svg" xmlns:xlink="http://www.w3.org/1999/xlink" viewBox="0 0 1124.64 651.26"><defs><style>.cls-1{fill:none;}.cls-2{fill:#e6f4ff;}.cls-3{clip-path:url(#clip-path);}.cls-4{fill:#312235;}.cls-5{fill:#ce7061;}.cls-6{fill:#8bb5d8;}.cls-7{fill:#329e89;}.cls-8{clip-path:url(#clip-path-2);}.cls-9{fill:#c5e2ff;}.cls-10{clip-path:url(#clip-path-3);}.cls-11{fill:#fff;}.cls-12{fill:#3a1e1c;}.cls-13{clip-path:url(#clip-path-4);}.cls-14{fill:#d88268;}.cls-15{fill:#d98369;}.cls-16{fill:#da8469;}.cls-17{fill:#db856a;}.cls-18{fill:#dc866b;}.cls-19{fill:#dd876b;}.cls-20{fill:#de886c;}.cls-21{fill:#df896d;}.cls-22{fill:#e08a6d;}.cls-23{fill:#e18b6e;}.cls-24{fill:#e28c6f;}.cls-25{fill:#e48d70;}.cls-26{fill:#e58d70;}.cls-27{fill:#e68e71;}.cls-28{fill:#e78f72;}.cls-29{fill:#e89072;}.cls-30{fill:#e99173;}.cls-31{fill:#ea9274;}.cls-32{fill:#eb9374;}.cls-33{fill:#ec9475;}.cls-34{fill:#ed9576;}.cls-35{fill:#ee9676;}.cls-36{fill:#ef9777;}.cls-37{fill:#3d201f;}.cls-38{fill:#b5574d;}.cls-39{fill:#b3514e;}.cls-40{fill:#fc999c;}.cls-41{fill:#f9aaaa;}.cls-42{fill:#196b5d;}.cls-43{fill:#208975;}.cls-44{fill:#8acec3;}.cls-45{fill:#5b1f3c;}.cls-46{fill:#fffdfd;}.cls-47{fill:#175b4e;}</style><clipPath id="clip-path"><path class="cls-1" d="M541-384.19c-10.3-18-97.34-31.5-97.34-31.5S301.34-604.45,232.33-598s-80.25,56.59-80.25,56.59l-32.63,66.55C54.18-440,10.14-373.83,10.14-298c0,112.25,96.42,203.24,215.37,203.24,117.57,0,213.12-88.9,215.32-199.34C473.18-316.39,549-370.32,541-384.19Z"/></clipPath><clipPath id="clip-path-2"><path class="cls-2" d="M428.87,402.79a192.51,192.51,0,0,0-5.05-43.86c-32.69-73-109.23-124.15-198.45-124.15C106.43,234.78,10,325.78,10,438a193.16,193.16,0,0,0,5,43.87C47.74,554.84,124.28,606,213.5,606,332.44,606,428.87,515,428.87,402.79Z"/></clipPath><clipPath id="clip-path-3"><path class="cls-1" d="M541.22,351.81c-8.62-15-92-32.76-90.33-32.5,3.75,5-153.08-187.41-218.34-181.34-69,6.43-80.25,56.59-80.25,56.59l-32.63,66.55C54.4,296,10.36,362.17,10.36,438c0,112.25,96.43,203.24,215.37,203.24,117.57,0,213.12-88.9,215.32-199.34C473.4,419.61,549.17,365.68,541.22,351.81Z"/></clipPath><clipPath id="clip-path-4"><path class="cls-1" d="M228,319.63l-2.36,9.78s-19.92,12.9-37.91,11.87c-5.34-.3,67.76,42.8,71.74,43s34.38-50.16,34.38-50.16-20.41-3.73-27.17-4-14.47-18.28-14.47-18.28Z"/></clipPath></defs><title>5-fala3</title><g id="Camada_5" data-name="Camada 5"><g class="cls-3"><path class="cls-4" d="M189.84,293.79s-6.77,14.38-4.3,22.7,17.23,13.73,17.23,13.73,37.07,22.44,68.87,18.45,21.38-11,21.38-11l-55.79-45.94Z"/><path class="cls-4" d="M297.85,290.25s-5.18,10.44-3.05,17.43,15.57,10.15,15.57,10.15l10.35.39,104,5.36s7.44-21.13-51.75-33.44S297.85,290.25,297.85,290.25Z"/><path class="cls-5" d="M202.09,32.44l2.37,26.31s-29.12,70.66-9.27,203l-6,40.43s24.06,11.27,41.42,15.9a72.39,72.39,0,0,0,32,1.2S223,275.75,217.3,269.6L267,29.2S238.47-28.3,202.09,32.44Z"/><path class="cls-5" d="M284.44,30.63s-25.76,70.54,15.46,204.69c0,0,5.91,55.23-2,54.93s81.06,6.76,86.9,7-44.4-20.8-48.8-31.06S329.66,65,335.62,47.71a234.2,234.2,0,0,0,8.72-34.22S289.35,19.91,284.44,30.63Z"/><path class="cls-4" d="M172.55-180.28s-17.61,72.57-15.63,92.45,4.68,52.17,34,145.94c0,0,78.25,32.39,150.2-.8,0,0,6.29-1.86,10.91-43.82S364.46-129.1,343.32-174,172.55-180.28,172.55-180.28Z"/></g><ellipse class="cls-6" cx="225.37" cy="438.02" rx="215.37" ry="203.24"/><path class="cls-7" d="M225.37,234.78c119,0,215.37,91,215.37,203.24S344.32,641.26,225.37,641.26,10,550.27,10,438s96.42-203.24,215.37-203.24m0-10a235.1,235.1,0,0,0-87.54,16.69A225.72,225.72,0,0,0,66.22,287,212.37,212.37,0,0,0,17.8,354.82a203.34,203.34,0,0,0,0,166.4A212.3,212.3,0,0,0,66.22,589a225.89,225.89,0,0,0,71.61,45.57,238.05,238.05,0,0,0,175.08,0A225.94,225.94,0,0,0,384.53,589a212.12,212.12,0,0,0,48.41-67.79,203.34,203.34,0,0,0,0-166.4A212.19,212.19,0,0,0,384.53,287a225.76,225.76,0,0,0-71.62-45.57,235.1,235.1,0,0,0-87.54-16.69Z"/><path class="cls-2" d="M428.87,402.79a192.51,192.51,0,0,0-5.05-43.86c-32.69-73-109.23-124.15-198.45-124.15C106.43,234.78,10,325.78,10,438a193.16,193.16,0,0,0,5,43.87C47.74,554.84,124.28,606,213.5,606,332.44,606,428.87,515,428.87,402.79Z"/><g class="cls-8"><circle class="cls-2" cx="306.79" cy="408.71" r="104.58"/><circle class="cls-2" cx="306.79" cy="408.71" r="100.64"/><circle class="cls-2" cx="306.79" cy="408.71" r="98.66"/><circle class="cls-2" cx="306.79" cy="408.71" r="96.69"/><circle class="cls-2" cx="306.79" cy="408.71" r="94.72"/><circle class="cls-2" cx="306.79" cy="408.71" r="92.74"/><circle class="cls-2" cx="306.79" cy="408.71" r="90.77"/><circle class="cls-2" cx="306.79" cy="408.71" r="88.8"/><circle class="cls-2" cx="306.79" cy="408.71" r="86.82"/><circle class="cls-2" cx="306.79" cy="408.71" r="84.85"/><circle class="cls-2" cx="306.79" cy="408.71" r="82.88"/><circle class="cls-2" cx="306.79" cy="408.71" r="80.9"/><circle class="cls-2" cx="306.79" cy="408.71" r="78.93"/><circle class="cls-2" cx="306.79" cy="408.71" r="76.96"/><circle class="cls-2" cx="306.79" cy="408.71" r="74.98"/><circle class="cls-2" cx="306.79" cy="408.71" r="73.01"/><circle class="cls-2" cx="306.79" cy="408.71" r="71.04"/><circle class="cls-2" cx="306.79" cy="408.71" r="69.06"/><circle class="cls-2" cx="306.79" cy="408.71" r="67.09"/><circle class="cls-2" cx="306.79" cy="408.71" r="65.12"/><circle class="cls-2" cx="306.79" cy="408.71" r="63.15"/><circle class="cls-2" cx="306.79" cy="408.71" r="61.17"/><circle class="cls-2" cx="306.79" cy="408.71" r="59.2"/><circle class="cls-2" cx="306.79" cy="408.71" r="57.23"/><circle class="cls-2" cx="306.79" cy="408.71" r="55.25"/><circle class="cls-2" cx="306.79" cy="408.71" r="53.28"/><circle class="cls-2" cx="306.79" cy="408.71" r="51.31"/><circle class="cls-2" cx="306.79" cy="408.71" r="49.33"/><circle class="cls-2" cx="306.79" cy="408.71" r="47.36"/><circle class="cls-2" cx="306.79" cy="408.71" r="45.39"/><circle class="cls-2" cx="306.79" cy="408.71" r="43.41"/><circle class="cls-2" cx="306.79" cy="408.71" r="41.44"/><circle class="cls-2" cx="306.79" cy="408.71" r="39.47"/><circle class="cls-2" cx="306.79" cy="408.71" r="37.49"/><circle class="cls-2" cx="306.79" cy="408.71" r="35.52"/><circle class="cls-2" cx="306.79" cy="408.71" r="33.55"/><circle class="cls-2" cx="306.79" cy="408.71" r="31.57"/><circle class="cls-2" cx="306.79" cy="408.71" r="29.6"/><circle class="cls-2" cx="306.79" cy="408.71" r="27.63"/><circle class="cls-2" cx="306.79" cy="408.71" r="25.65"/><circle class="cls-2" cx="306.79" cy="408.71" r="23.68"/><circle class="cls-2" cx="306.79" cy="408.71" r="21.71"/><circle class="cls-2" cx="306.79" cy="408.71" r="19.73"/><circle class="cls-2" cx="306.79" cy="408.71" r="17.76"/><circle class="cls-2" cx="306.79" cy="408.71" r="15.79"/><circle class="cls-2" cx="306.79" cy="408.71" r="13.81"/><circle class="cls-2" cx="306.79" cy="408.71" r="11.84"/><circle class="cls-2" cx="306.79" cy="408.71" r="9.87"/><circle class="cls-2" cx="306.79" cy="408.71" r="7.89"/><circle class="cls-2" cx="306.79" cy="408.71" r="5.92"/><circle class="cls-2" cx="306.79" cy="408.71" r="3.95"/><circle class="cls-2" cx="306.79" cy="408.71" r="1.97"/></g><path class="cls-6" d="M787.8,44.22c-174.89,0-318.64,118.13-335.23,269.27L353,353.14s-6.51,2.41-5.85,11.74a12.7,12.7,0,0,0,7.43,10.89L458.82,407C492,541,626.68,641.26,787.8,641.26c186,0,336.84-133.65,336.84-298.52S973.83,44.22,787.8,44.22Z"/><path class="cls-9" d="M787.75,0C612.85,0,469.11,118.13,452.52,269.27L353,308.92s-6.51,2.41-5.86,11.74a12.7,12.7,0,0,0,7.44,10.88l104.21,31.28C492,496.78,626.63,597,787.75,597c186,0,336.84-133.65,336.84-298.52S973.78,0,787.75,0Z"/><g class="cls-10"><path class="cls-11" d="M153.64,564.7s24.48-21.86,24.48-27-14.34-8.35-14.34-8.35l-20.42,29.5,9.58,7.33Z"/><path class="cls-12" d="M176.3,358.82S129.4,227,183.74,159.92c0,0,58.11-39.81,101.53,7s13,178.54,13,178.54Z"/><g class="cls-13"><polygon class="cls-14" points="293.83 311.8 293.86 312.12 182.43 322.49 182.43 311.8 293.83 311.8"/><polygon class="cls-14" points="293.86 312.12 293.89 312.49 293.89 312.93 182.43 323.3 182.43 322.49 293.86 312.12"/><polygon class="cls-15" points="293.89 313.74 182.43 324.11 182.43 323.3 293.89 312.93 293.89 313.74"/><polygon class="cls-16" points="293.89 314.55 182.43 324.93 182.43 324.11 293.89 313.74 293.89 314.55"/><polygon class="cls-17" points="293.89 315.37 182.43 325.74 182.43 324.93 293.89 314.55 293.89 315.37"/><polygon class="cls-18" points="293.89 316.18 182.43 326.55 182.43 325.74 293.89 315.37 293.89 316.18"/><polygon class="cls-19" points="293.89 316.99 182.43 327.37 182.43 326.55 293.89 316.18 293.89 316.99"/><polygon class="cls-20" points="293.89 317.81 182.43 328.18 182.43 327.37 293.89 316.99 293.89 317.81"/><polygon class="cls-21" points="293.89 318.62 182.43 328.99 182.43 328.18 293.89 317.81 293.89 318.62"/><polygon class="cls-22" points="293.89 319.43 182.43 329.81 182.43 328.99 293.89 318.62 293.89 319.43"/><polygon class="cls-23" points="293.89 320.24 182.43 330.62 182.43 329.81 293.89 319.43 293.89 320.24"/><polygon class="cls-24" points="293.89 321.06 182.43 331.43 182.43 330.62 293.89 320.24 293.89 321.06"/><polygon class="cls-25" points="293.89 321.87 182.43 332.24 182.43 331.43 293.89 321.06 293.89 321.87"/><polygon class="cls-26" points="293.89 322.68 182.43 333.06 182.43 332.24 293.89 321.87 293.89 322.68"/><polygon class="cls-27" points="293.89 323.5 182.43 333.87 182.43 333.06 293.89 322.68 293.89 323.5"/><polygon class="cls-28" points="293.89 324.31 182.43 334.68 182.43 333.87 293.89 323.5 293.89 324.31"/><polygon class="cls-29" points="293.89 325.12 182.43 335.5 182.43 334.68 293.89 324.31 293.89 325.12"/><polygon class="cls-30" points="293.89 325.94 182.43 336.31 182.43 335.5 293.89 325.12 293.89 325.94"/><polygon class="cls-31" points="293.89 326.75 182.43 337.12 182.43 336.31 293.89 325.94 293.89 326.75"/><polygon class="cls-32" points="293.89 327.56 182.43 337.94 182.43 337.12 293.89 326.75 293.89 327.56"/><polygon class="cls-33" points="293.89 328.38 182.43 338.75 182.43 337.94 293.89 327.56 293.89 328.38"/><polygon class="cls-34" points="293.89 329.19 182.43 339.56 182.43 338.75 293.89 328.38 293.89 329.19"/><polygon class="cls-35" points="293.89 330 182.43 340.38 182.43 339.56 293.89 329.19 293.89 330"/><polygon class="cls-36" points="293.89 330.82 182.43 341.19 182.43 340.38 293.89 330 293.89 330.82"/><polygon class="cls-36" points="184.46 384.38 182.43 362.56 182.43 341.19 293.89 330.82 293.89 384.38 184.46 384.38"/></g><path class="cls-36" d="M182.71,220.71s-.88,110.78,64.76,101.68C283,317.47,295,282,288.35,251.47a191.55,191.55,0,0,1-3.79-46.76s-4.08-29.37-38.7-20.31-49.64,5.72-49.64,5.72S180.65,193.3,182.71,220.71Z"/><path class="cls-12" d="M177.18,226.89s25.09-2.78,36.43-7.67l.58-15.39s2.55,9.93,4.85,12.4,22.88-.73,32-3.58,4.81-14.7,4.81-14.7l4.34,11.85s28.57,3.45,28.73-.93-3.86-24.71-12.21-28.74-73.88-4.44-83.08,4.1S177.64,214.69,177.18,226.89Z"/><ellipse class="cls-37" cx="266.06" cy="242.56" rx="3.92" ry="3.17" transform="translate(-22.23 26.9) rotate(-5.56)"/><ellipse class="cls-37" cx="226.99" cy="246.26" rx="3.92" ry="3.17" transform="translate(-22.77 23.13) rotate(-5.56)"/><path class="cls-38" d="M250.66,277a15.34,15.34,0,0,1-5.17-.8l.35-.94c5.16,1.91,13.88,0,15.56-3.34,1.13-2.27-1.43-4.53-3.78-6-6.89-4.38-5.32-8.94-5.25-9.13l.94.34c-.05.16-1.33,4,4.84,7.94,4.89,3.11,5,5.69,4.15,7.32C260.83,275.31,255.48,277,250.66,277Z"/><path class="cls-39" d="M265.06,287.05c-18.37,3.57-37.46.15-36.73,1.15,0,0,1.77,10.68,18,10.61C263.08,298.73,265.06,287.05,265.06,287.05Z"/><path class="cls-11" d="M219.49,331.75s22.52,13.66,36.94,11.81c6.84-.88,18.95-14,18.95-14l13,129.73-49.8,2.24Z"/><path class="cls-4" d="M172.77,555.72s-17.61,72.57-15.62,92.45,4.67,52.17,34,145.94c0,0,78.26,32.39,150.2-.8,0,0,6.29-1.86,10.91-43.82S364.68,606.9,343.54,562,172.77,555.72,172.77,555.72Z"/><path class="cls-12" d="M271.16,224s-6.44-4.41-10.23.1a.89.89,0,0,0-.21,1.24c.5.72,1.31-2.15,10.2-.47C270.92,224.88,271.48,225,271.16,224Z"/><path class="cls-12" d="M218.84,227.22s5.76-5.29,10.14-1.36a.89.89,0,0,1,.39,1.2c-.4.78-1.61-1.94-10.16,1C219.21,228,218.66,228.24,218.84,227.22Z"/><path class="cls-11" d="M262.73,287.47s-.64,2.4-2,3.09-15.62,1.5-24.11.72c-5.38-.5-6.4-2.5-6.25-3.23C230.39,288.05,249.2,289.75,262.73,287.47Z"/><path class="cls-40" d="M249.49,298.64s-1.22-7.27-18.49-5.37C231,293.27,235.13,299.91,249.49,298.64Z"/><ellipse class="cls-41" cx="281.12" cy="252.77" rx="3.62" ry="6.23" transform="translate(5.89 511.94) rotate(-85.24)"/><ellipse class="cls-41" cx="214.9" cy="262.02" rx="6.23" ry="3.62" transform="translate(-52.55 53.92) rotate(-12.76)"/><path class="cls-42" d="M333.67,438.84l41.91,37.38s10.59,6.85,14.41,7.27c4,.44,18.28-9.52,18.28-9.52l39.67-86.66s-43.31-16.06-43.67-19.67-13.35,48.69-13.35,48.69-1-1.57-6.5-.5c-3,.58-1.8,5.6-7.87-.14-3.74-3.54-4.14-3.13-9.36-10.51-29.22-41.33-56.53-70.83-58.39-72.35s-11-6.17-14.23-4.65-19.19,1.41-19.19,1.41L278,445,219.49,331.75s-12.56,4.33-26.08,2.61S157.17,338,157.17,338s-10.23,27.71-17.55,29.81-11,20.25-11,20.25c-2.17,2.65-10.18,14.08-19.61,27.72h0s-37.48,45.93-43,49.91-2.65,13.44-2.65,13.44l78.84,83.79,27.83-35.51C163,526.89,127,477.62,127,477.62c2.53-4.53,2.3-8.26,1.56-10.72,17.3-18.49,42.63-47.18,42.63-47.18.41,4.06,6.47,16.8,16.94,32.51s9.68,42.14,9.68,42.14c-14.94,21.68-25,61.35-25,61.35s1,7.92,26.28,20.54c11,5.51,46.51,16.31,46.51,16.31L285,549.29l50.78,35.64s9.12-9.13,8.21-18.27-18.44-63.5-18.44-63.5-1.89-19,.28-24.66S333.67,438.84,333.67,438.84Z"/><path class="cls-14" d="M153.64,564.7s12.2,10.7,14.67,8.23l12.44-35.19S165.17,549,153.64,564.7Z"/><path class="cls-36" d="M171,565.87s5.9-5.86,14.86,2.8,9.68,9.26,9.68,9.26,7,2.88,7.52-4.63c0,0,8.8,1.29,6.83-8.39,0,0,6.13-4.42.71-12,0,0,5.5-1.06,2.23-11.47s-24-20.46-24-20.46S178.84,517.45,178,529c0,0-7.16.38-4.66,10.38,0,0-4.65,4.2-3.65,8.77s-.11,3.66-.11,3.66S162.9,559.29,171,565.87Z"/><path class="cls-38" d="M202.67,573.63c-.11-.14-11.87-13.67-24.48-19.79l.44-.9c12.79,6.21,24.68,19.9,24.8,20Z"/><path class="cls-38" d="M209.53,565.27c-.17-.16-17.14-16.1-29.48-22.75l.48-.88c12.45,6.72,29.52,22.74,29.69,22.9Z"/><path class="cls-38" d="M210.2,553.19c-.15-.18-15.21-17.9-27.55-21.76l.3-.95c12.61,3.94,27.39,21.33,28,22.07Z"/><path class="cls-43" d="M219.49,331.75s-24.15,11.65-37.22,31.43l44.37,12.67s-15.11,14.86-14.79,18.07S278,445,278,445s33.54-61.51,29.81-64.56-24.28-6.81-24.28-6.81S303,346,306.41,345.64s-28-16.36-31-16.05,2.52,110.28,2.52,110.28l-.15,2.38Z"/><path class="cls-4" d="M278,445s9.26,81.81,7,104.33"/><circle class="cls-44" cx="291.76" cy="469.64" r="5.33"/><circle class="cls-44" cx="293.89" cy="507.64" r="5.33"/><path class="cls-45" d="M173.92,402.9l-1-.23a76.65,76.65,0,0,0-11.56-60.85l.82-.57A77.63,77.63,0,0,1,173.92,402.9Z"/><path class="cls-45" d="M329.2,405.1l-1-.09c1.1-12.3-3.36-24.58-7.3-35.41-4.66-12.82-9.95-27.35-20.07-37.88l.72-.69c10.27,10.68,15.59,25.32,20.29,38.23C325.81,380.19,330.32,392.58,329.2,405.1Z"/><path class="cls-45" d="M146.43,375.14a27.4,27.4,0,0,0-3.49-6.94l.82-.57a28.39,28.39,0,0,1,3.62,7.19Z"/><path class="cls-45" d="M136.15,390.8a33.69,33.69,0,0,0-6.08-.83l.05-1a36.56,36.56,0,0,1,6.25.85Z"/><path class="cls-45" d="M334.55,439.12l-1-.11a73.17,73.17,0,0,0,.43-11.93l1,0A73.89,73.89,0,0,1,334.55,439.12Z"/><path class="cls-45" d="M396.5,433.11a74.37,74.37,0,0,0-2.84-11.6l.95-.31A74,74,0,0,1,397.48,433Z"/><path class="cls-45" d="M383.16,434.09l-1-.15a58.15,58.15,0,0,0,.75-10.74l1,0A59.25,59.25,0,0,1,383.16,434.09Z"/><path class="cls-45" d="M200.53,494.73l-.53-.85a60,60,0,0,1,11.6-5.54l.33.94A59.09,59.09,0,0,0,200.53,494.73Z"/><path class="cls-45" d="M127.88,467.41c-2.32,0-10-.2-12.54-2.75l.71-.71c2.65,2.66,12.36,2.45,12.46,2.45l0,1Z"/><path class="cls-45" d="M118.94,481.06v-1c3.43,0,7.7-2.83,7.74-2.86l.56.83C127.05,478.16,122.68,481.06,118.94,481.06Z"/><path class="cls-46" d="M405,372.47a11.23,11.23,0,0,1,3.26-6.3L449.13,378l-4.26,11.35Z"/><path class="cls-36" d="M413.24,368.67s2.55-5.88,1.16-10.37-5.57-14.17-4.84-19.36a101.16,101.16,0,0,0,1.33-15.6c0-16-1.25-38.25-1.16-38.92.14-1,6.37-.85,6.68,2.46.12,1.26-.27,7.05.61,12.71,1.43,9.25,3.23,20.4,3.23,20.4s12.35-3.55,16.86-.31c0,0,8.21-2.12,9,1.69,0,0,6.59-.47,6.72,2.47a76.37,76.37,0,0,1,0,9c-.08.53-3.31,5.76-3.68,8.66-.74,5.81,1,11.35-.56,14.66-2.35,5-7.64,8.17-7.83,9.53s-2.62,12.93-3.33,13.46S412.59,373.28,413.24,368.67Z"/><path class="cls-38" d="M431.15,344.62l-.38,0c-1.67-.14-3.4-1.31-3.24-4.18a17.18,17.18,0,0,1,1.35-4.27c.65-1.63,1.64-4.1,1.24-4.64a13.19,13.19,0,0,1-1.58-4.26c-1.17.7-3.23,1.63-4.27.23l.79-.6c.63.84,2.5-.14,3.51-.85l.69.08.08.1,0,.14a14.22,14.22,0,0,0,1.55,4.56c.74,1-.12,3.13-1.11,5.62a16.75,16.75,0,0,0-1.28,4c-.15,2.63,1.58,3.06,2.32,3.13a3.88,3.88,0,0,0,4.13-3.17,18.17,18.17,0,0,1,.85-2.57,32.9,32.9,0,0,0,1.46-4.53c.18-1.31-.43-10.28-.68-13.62l1-.07c0,.49.9,12.15.67,13.83a32.68,32.68,0,0,1-1.51,4.73c-.36,1-.77,2.09-.8,2.34A4.81,4.81,0,0,1,431.15,344.62Z"/><path class="cls-38" d="M440.27,344.18l-.3,0a6.62,6.62,0,0,1-5-3.46l.91-.42a5.59,5.59,0,0,0,4.18,2.89,1.16,1.16,0,0,0,.88-.26c1.28-1,2.27-4.19,2.94-9.54l.06-.43,1.65-11.64,1,.14-1.7,12.05c-.27,2.1-1.06,8.48-3.33,10.21A2.17,2.17,0,0,1,440.27,344.18Z"/><path class="cls-38" d="M447.53,342.16a4.36,4.36,0,0,1-1.46-.27,4.46,4.46,0,0,1-2.89-2.82l1-.23a3.56,3.56,0,0,0,2.26,2.11,2.37,2.37,0,0,0,2.25-.13c1.29-1,3.15-6.17,3.76-8.1l1,.31c-.24.74-2.34,7.26-4.11,8.59A2.86,2.86,0,0,1,447.53,342.16Z"/><path class="cls-36" d="M421.52,355.71c1.12.16,5.94-3.58,6.86-5.66s1.8-4.73,1.8-4.73,3.7-1.81,5.2-1.54c3.17.58,5.87-2.24,5.84-4,0-2-2.6-4.12-7.44-3,0,0-4.18,1.57-5.11,1.44s-3.64-.13-4.77.72a8.14,8.14,0,0,1-4.51,1.13c-.93-.13-3.36-.13-4.39.64"/><path class="cls-38" d="M421.57,356.21h-.12l.14-1h0c.86,0,5.41-3.34,6.31-5.37s1.78-4.66,1.78-4.69l.07-.2.19-.09c.39-.19,3.9-1.87,5.51-1.58a4.65,4.65,0,0,0,3.84-1.13,3.58,3.58,0,0,0,1.41-2.38,2.47,2.47,0,0,0-1-1.85c-1.26-1-3.38-1.26-5.8-.72-.65.25-4.28,1.58-5.29,1.45s-3.49-.07-4.4.62a8.58,8.58,0,0,1-4.88,1.22c-1-.14-3.19-.07-4,.55l-.6-.8c1.18-.89,3.76-.88,4.76-.74a7.75,7.75,0,0,0,4.14-1c1.31-1,4.23-.94,5.14-.81a22.41,22.41,0,0,0,4.86-1.42c3.8-.85,5.83.2,6.71.89a3.48,3.48,0,0,1,1.41,2.62,4.48,4.48,0,0,1-1.76,3.17,5.72,5.72,0,0,1-4.67,1.34c-.93-.17-3.3.74-4.7,1.41-.23.66-1,2.83-1.75,4.58C427.9,352.35,423.16,356.21,421.57,356.21Z"/></g><path class="cls-47" d="M627.7,232.74l-2.47.39,6,17.55.61,2.14H632l.61-2.14,6-17.57-2.44-.37v-2.36h8.52v2.36l-2.17.3L633.5,257.4h-3.13l-9-24.36-2.16-.3v-2.36h8.54Z"/><path class="cls-47" d="M655.57,257.79A8.46,8.46,0,0,1,648.9,255a10.54,10.54,0,0,1-2.48-7.25v-.82A10.3,10.3,0,0,1,649,239.8a7.85,7.85,0,0,1,6-2.85,7.61,7.61,0,0,1,6.13,2.45,9.73,9.73,0,0,1,2.09,6.53v2.28h-13l-.05.1a8,8,0,0,0,1.46,4.76,4.68,4.68,0,0,0,4,1.86,9.23,9.23,0,0,0,3.25-.53,7.48,7.48,0,0,0,2.43-1.45l1.42,2.37a8.78,8.78,0,0,1-2.84,1.76A11.58,11.58,0,0,1,655.57,257.79Zm-.56-18a4,4,0,0,0-3.14,1.55,7.39,7.39,0,0,0-1.59,3.88l0,.1h9.26v-.48a5.57,5.57,0,0,0-1.16-3.6A4.07,4.07,0,0,0,655,239.83Z"/><path class="cls-47" d="M666.29,255.06l3-.52V240.2l-3-.52v-2.36h6.29l.26,3a7.37,7.37,0,0,1,2.52-2.48,6.74,6.74,0,0,1,3.44-.88,6.6,6.6,0,0,1,5,1.9c1.18,1.27,1.78,3.23,1.78,5.88v9.81l3,.52v2.34h-9.7v-2.34l3-.52V244.8A5.45,5.45,0,0,0,680.9,241a4.2,4.2,0,0,0-3.2-1.11,5.12,5.12,0,0,0-2.79.76,5.55,5.55,0,0,0-1.94,2.08v11.78l3,.52v2.34h-9.71Z"/><path class="cls-47" d="M690.78,255.06l3-.52V231.33l-3-.52v-2.36h6.68V240a7.36,7.36,0,0,1,2.54-2.25,7.07,7.07,0,0,1,3.34-.8,6.48,6.48,0,0,1,5,1.93q1.78,1.94,1.79,5.94v9.72l3,.52v2.34h-9.7v-2.34l3-.52v-9.76a5.38,5.38,0,0,0-1.06-3.67,4.1,4.1,0,0,0-3.19-1.19,5.3,5.3,0,0,0-2.73.72,6,6,0,0,0-2,1.93v12l3,.52v2.34h-9.71Z"/><path class="cls-47" d="M728.91,257.4c-.11-.54-.19-1-.26-1.47s-.1-.86-.13-1.3a8.66,8.66,0,0,1-2.64,2.26,6.77,6.77,0,0,1-3.39.9,6.69,6.69,0,0,1-4.76-1.53,5.63,5.63,0,0,1-1.64-4.32,5,5,0,0,1,2.31-4.4,11.2,11.2,0,0,1,6.34-1.55h3.76v-2.34a3.62,3.62,0,0,0-1.11-2.79,4.36,4.36,0,0,0-3.1-1,7.76,7.76,0,0,0-2.42.35,4.66,4.66,0,0,0-1.7,1l-.39,2.11H717v-3.9a11,11,0,0,1,3.33-1.75,13.12,13.12,0,0,1,4.23-.66,8.39,8.39,0,0,1,5.53,1.75,6.09,6.09,0,0,1,2.11,5v9.66c0,.26,0,.52,0,.77s0,.49.05.74l1.48.2v2.34ZM723,254.73a6.51,6.51,0,0,0,3.32-.87,5.44,5.44,0,0,0,2.15-2.1v-3.3h-3.89a5.5,5.5,0,0,0-3.55,1,3.09,3.09,0,0,0-1.31,2.52,2.49,2.49,0,0,0,.81,2A3.71,3.71,0,0,0,723,254.73Z"/><path class="cls-47" d="M755.35,257.79a8.49,8.49,0,0,1-6.67-2.79,10.54,10.54,0,0,1-2.47-7.25v-.82a10.3,10.3,0,0,1,2.55-7.13,7.85,7.85,0,0,1,6-2.85,7.62,7.62,0,0,1,6.13,2.45,9.73,9.73,0,0,1,2.09,6.53v2.28H750l0,.1a7.9,7.9,0,0,0,1.46,4.76,4.68,4.68,0,0,0,4,1.86,9.25,9.25,0,0,0,3.26-.53A7.43,7.43,0,0,0,761,253l1.43,2.37a8.94,8.94,0,0,1-2.85,1.76A11.51,11.51,0,0,1,755.35,257.79Zm-.55-18a4,4,0,0,0-3.14,1.55,7.31,7.31,0,0,0-1.59,3.88l0,.1h9.26v-.48a5.57,5.57,0,0,0-1.15-3.6A4.08,4.08,0,0,0,754.8,239.83Z"/><path class="cls-47" d="M766.12,255.06l2.15-.43,5.92-7.38-5.74-7.14-2.15-.43v-2.36h7.87v2.36l-1.82.22,3.75,4.83,3.76-4.85-1.79-.2v-2.36H786v2.36l-2.15.43-5.74,7.14,5.9,7.38,2.17.43v2.34h-7.86v-2.34l1.78-.2-3.94-5.05-3.93,5.05,1.8.2v2.34h-7.9Z"/><path class="cls-47" d="M797.53,257.79a8.46,8.46,0,0,1-6.67-2.79,10.54,10.54,0,0,1-2.48-7.25v-.82a10.3,10.3,0,0,1,2.55-7.13,7.86,7.86,0,0,1,6-2.85,7.61,7.61,0,0,1,6.13,2.45,9.68,9.68,0,0,1,2.09,6.53v2.28h-13l-.06.1a8,8,0,0,0,1.47,4.76,4.66,4.66,0,0,0,3.95,1.86,9.32,9.32,0,0,0,3.26-.53,7.43,7.43,0,0,0,2.42-1.45l1.43,2.37a8.94,8.94,0,0,1-2.85,1.76A11.51,11.51,0,0,1,797.53,257.79Zm-.56-18a3.93,3.93,0,0,0-3.13,1.55,7.32,7.32,0,0,0-1.6,3.88l0,.1h9.26v-.48a5.62,5.62,0,0,0-1.15-3.6A4.1,4.1,0,0,0,797,239.83Z"/><path class="cls-47" d="M808.79,239.68v-2.36h6.29l.35,2.92a7.06,7.06,0,0,1,2.11-2.42,4.89,4.89,0,0,1,2.87-.87,5.39,5.39,0,0,1,.88.07,4.31,4.31,0,0,1,.69.14l-.48,3.39-2.08-.11a4.21,4.21,0,0,0-2.43.68,4.39,4.39,0,0,0-1.52,1.9v11.52l3,.52v2.34h-9.71v-2.34l3-.52V240.2Z"/><path class="cls-47" d="M833.17,254.93a4.92,4.92,0,0,0,3.2-1.12,3.44,3.44,0,0,0,1.38-2.76H841l0,.12a5.65,5.65,0,0,1-2.31,4.61,8.46,8.46,0,0,1-5.6,2,8.09,8.09,0,0,1-6.69-2.86,11,11,0,0,1-2.31-7.18V247a11,11,0,0,1,2.32-7.15,8.1,8.1,0,0,1,6.68-2.87,11.21,11.21,0,0,1,4.33.8,8.81,8.81,0,0,1,3.19,2.19l.16,4.45h-2.91l-.8-3.15a4.82,4.82,0,0,0-1.67-1,6.38,6.38,0,0,0-2.3-.39,4.41,4.41,0,0,0-4.11,2.07,9.77,9.77,0,0,0-1.23,5.07v.78a9.94,9.94,0,0,0,1.22,5.13A4.41,4.41,0,0,0,833.17,254.93Z"/><path class="cls-47" d="M844.64,255.06l3-.52V240.2l-3-.52v-2.36h6.68v17.22l3,.52v2.34h-9.7Zm6.68-22.88h-3.66v-3.73h3.66Z"/><path class="cls-47" d="M863.51,232.48v4.84h3.8V240h-3.8v12.19a2.74,2.74,0,0,0,.58,2,2.13,2.13,0,0,0,1.55.57,9,9,0,0,0,1.09-.08c.4-.06.74-.11,1-.18l.5,2.51a4.94,4.94,0,0,1-1.52.55,9.78,9.78,0,0,1-2,.21,4.73,4.73,0,0,1-3.55-1.35,5.82,5.82,0,0,1-1.32-4.22V240h-3.17v-2.71h3.17v-4.84Z"/><path class="cls-47" d="M884.14,257.4c-.11-.54-.2-1-.26-1.47s-.1-.86-.13-1.3a8.66,8.66,0,0,1-2.64,2.26,7.58,7.58,0,0,1-8.16-.63,5.62,5.62,0,0,1-1.63-4.32,5,5,0,0,1,2.31-4.4A11.2,11.2,0,0,1,880,246h3.76v-2.34a3.62,3.62,0,0,0-1.11-2.79,4.38,4.38,0,0,0-3.1-1,7.76,7.76,0,0,0-2.42.35,4.66,4.66,0,0,0-1.7,1l-.39,2.11h-2.82v-3.9a11,11,0,0,1,3.32-1.75,13.13,13.13,0,0,1,4.24-.66,8.36,8.36,0,0,1,5.52,1.75,6.09,6.09,0,0,1,2.12,5v9.66c0,.26,0,.52,0,.77s0,.49,0,.74l1.49.2v2.34Zm-5.88-2.67a6.51,6.51,0,0,0,3.32-.87,5.44,5.44,0,0,0,2.15-2.1v-3.3h-3.89a5.55,5.55,0,0,0-3.56,1A3.11,3.11,0,0,0,875,252a2.49,2.49,0,0,0,.81,2A3.71,3.71,0,0,0,878.26,254.73Z"/><path class="cls-47" d="M892,239.68v-2.36h6.29l.35,2.92a7.16,7.16,0,0,1,2.11-2.42,4.92,4.92,0,0,1,2.87-.87,5.39,5.39,0,0,1,.88.07,4.74,4.74,0,0,1,.7.14l-.49,3.39-2.08-.11a4.21,4.21,0,0,0-2.43.68,4.39,4.39,0,0,0-1.52,1.9v11.52l3,.52v2.34H892v-2.34l3-.52V240.2Z"/><path class="cls-47" d="M932.5,243.63h-2.75l-.59-2.41a5,5,0,0,0-1.68-1,6.6,6.6,0,0,0-2.3-.38,4.21,4.21,0,0,0-2.89.85,2.69,2.69,0,0,0-.95,2.06,2.31,2.31,0,0,0,.84,1.88,8.85,8.85,0,0,0,3.4,1.22,14.4,14.4,0,0,1,5.65,2.22,4.45,4.45,0,0,1,1.86,3.75,5.19,5.19,0,0,1-2.16,4.33,9.07,9.07,0,0,1-5.65,1.65,14.77,14.77,0,0,1-4.1-.53,10.7,10.7,0,0,1-3.25-1.53l0-4.58h2.75l.68,2.69a3.85,3.85,0,0,0,1.72.83,9.11,9.11,0,0,0,2.22.26,5.14,5.14,0,0,0,3.05-.79,2.4,2.4,0,0,0,1.1-2.07,2.48,2.48,0,0,0-.91-2,8.82,8.82,0,0,0-3.48-1.36,14.43,14.43,0,0,1-5.51-2.17,4.36,4.36,0,0,1-1.86-3.71,5.24,5.24,0,0,1,2.09-4.17,8.23,8.23,0,0,1,5.42-1.73,13.11,13.11,0,0,1,4.11.6,8.43,8.43,0,0,1,3,1.65Z"/><path class="cls-47" d="M945.67,257.79A8.46,8.46,0,0,1,939,255a10.54,10.54,0,0,1-2.48-7.25v-.82a10.3,10.3,0,0,1,2.55-7.13,7.86,7.86,0,0,1,6-2.85,7.64,7.64,0,0,1,6.14,2.45,9.73,9.73,0,0,1,2.08,6.53v2.28h-13l-.06.1a8,8,0,0,0,1.47,4.76,4.66,4.66,0,0,0,3.95,1.86,9.28,9.28,0,0,0,3.26-.53,7.43,7.43,0,0,0,2.42-1.45l1.43,2.37a8.94,8.94,0,0,1-2.85,1.76A11.51,11.51,0,0,1,945.67,257.79Zm-.56-18a3.93,3.93,0,0,0-3.13,1.55,7.32,7.32,0,0,0-1.6,3.88l0,.1h9.26v-.48a5.62,5.62,0,0,0-1.15-3.6A4.1,4.1,0,0,0,945.11,239.83Z"/><path class="cls-47" d="M971.29,254.43a6.5,6.5,0,0,1-5.88,3.36,6.41,6.41,0,0,1-5.1-2.1c-1.22-1.4-1.84-3.57-1.84-6.53v-9l-2.3-.52v-2.36h6V249.2c0,2.14.31,3.61.94,4.41a3.51,3.51,0,0,0,2.95,1.21,6,6,0,0,0,3.22-.79,4.88,4.88,0,0,0,1.92-2.23V240.2l-2.69-.52v-2.36h6.35v17.22l2.3.52v2.34h-5.59Z"/><path class="cls-47" d="M995.38,243.63h-2.75l-.59-2.41a5,5,0,0,0-1.68-1,6.59,6.59,0,0,0-2.29-.38,4.22,4.22,0,0,0-2.9.85,2.68,2.68,0,0,0-.94,2.06,2.3,2.3,0,0,0,.83,1.88,8.85,8.85,0,0,0,3.4,1.22,14.53,14.53,0,0,1,5.66,2.22,4.46,4.46,0,0,1,1.85,3.75,5.19,5.19,0,0,1-2.16,4.33,9.05,9.05,0,0,1-5.65,1.65,14.77,14.77,0,0,1-4.1-.53,10.82,10.82,0,0,1-3.25-1.53l0-4.58h2.75l.69,2.69a3.81,3.81,0,0,0,1.71.83,9.23,9.23,0,0,0,2.22.26,5.12,5.12,0,0,0,3.05-.79,2.41,2.41,0,0,0,1.11-2.07,2.49,2.49,0,0,0-.92-2,8.75,8.75,0,0,0-3.48-1.36,14.43,14.43,0,0,1-5.51-2.17,4.36,4.36,0,0,1-1.86-3.71,5.24,5.24,0,0,1,2.09-4.17,8.24,8.24,0,0,1,5.43-1.73,13.09,13.09,0,0,1,4.1.6,8.34,8.34,0,0,1,3,1.65Z"/><path class="cls-47" d="M629,300.53a4.92,4.92,0,0,0,3.2-1.12,3.44,3.44,0,0,0,1.38-2.76h3.29l0,.11a5.63,5.63,0,0,1-2.31,4.62,8.44,8.44,0,0,1-5.59,2,8.09,8.09,0,0,1-6.69-2.86,11,11,0,0,1-2.31-7.18v-.78a11,11,0,0,1,2.32-7.15,8.1,8.1,0,0,1,6.68-2.87,11.21,11.21,0,0,1,4.33.8,8.69,8.69,0,0,1,3.18,2.19l.17,4.45h-2.91l-.8-3.15a4.82,4.82,0,0,0-1.67-1,6.41,6.41,0,0,0-2.3-.39,4.4,4.4,0,0,0-4.11,2.07,9.77,9.77,0,0,0-1.23,5.07v.78a9.84,9.84,0,0,0,1.22,5.13A4.41,4.41,0,0,0,629,300.53Z"/><path class="cls-47" d="M640.44,292.78a11,11,0,0,1,2.42-7.34,8.9,8.9,0,0,1,13.12,0,11,11,0,0,1,2.43,7.35v.4a11,11,0,0,1-2.42,7.35,9,9,0,0,1-13.13,0,11,11,0,0,1-2.42-7.34Zm3.66.4a9.56,9.56,0,0,0,1.34,5.27,4.85,4.85,0,0,0,8,0,9.48,9.48,0,0,0,1.35-5.27v-.4a9.54,9.54,0,0,0-1.35-5.26,4.47,4.47,0,0,0-4-2.09,4.41,4.41,0,0,0-4,2.09,9.62,9.62,0,0,0-1.34,5.26Z"/><path class="cls-47" d="M661.21,300.66l3-.52V285.8l-3-.52v-2.36h6.29l.26,3a7.26,7.26,0,0,1,2.51-2.48,6.8,6.8,0,0,1,3.44-.88,6.58,6.58,0,0,1,5,1.9q1.78,1.91,1.78,5.88v9.81l3,.52V303h-9.71v-2.34l3-.52V290.4a5.45,5.45,0,0,0-1-3.77,4.21,4.21,0,0,0-3.2-1.11,5.12,5.12,0,0,0-2.79.76,5.55,5.55,0,0,0-1.94,2.08v11.78l3,.52V303h-9.7Z"/><path class="cls-47" d="M685.7,300.66l3-.52V276.93l-3-.52v-2.36h6.68v11.54a7.34,7.34,0,0,1,2.54-2.24,7,7,0,0,1,3.34-.8,6.51,6.51,0,0,1,5,1.93q1.79,1.93,1.78,5.94v9.72l3,.52V303h-9.71v-2.34l3-.52v-9.76a5.36,5.36,0,0,0-1.07-3.67,4.06,4.06,0,0,0-3.18-1.19,5.34,5.34,0,0,0-2.74.72,5.94,5.94,0,0,0-2,1.93v12l3,.52V303h-9.7Z"/><path class="cls-47" d="M719.71,303.39A8.48,8.48,0,0,1,713,300.6a10.54,10.54,0,0,1-2.48-7.25v-.82a10.3,10.3,0,0,1,2.55-7.13,7.88,7.88,0,0,1,6-2.85,7.63,7.63,0,0,1,6.14,2.45,9.73,9.73,0,0,1,2.08,6.53v2.28h-13l-.06.1a8,8,0,0,0,1.47,4.76,4.66,4.66,0,0,0,4,1.86A9.28,9.28,0,0,0,723,300a7.43,7.43,0,0,0,2.42-1.45l1.43,2.37a8.75,8.75,0,0,1-2.85,1.75A11.3,11.3,0,0,1,719.71,303.39Zm-.56-18A3.93,3.93,0,0,0,716,287a7.32,7.32,0,0,0-1.6,3.88l0,.1h9.26v-.49a5.56,5.56,0,0,0-1.15-3.59A4.1,4.1,0,0,0,719.15,285.43Z"/><path class="cls-47" d="M740,300.53a4.92,4.92,0,0,0,3.2-1.12,3.44,3.44,0,0,0,1.38-2.76h3.29l0,.11a5.66,5.66,0,0,1-2.31,4.62,8.48,8.48,0,0,1-5.6,2,8.09,8.09,0,0,1-6.69-2.86,11,11,0,0,1-2.31-7.18v-.78a11,11,0,0,1,2.32-7.15,8.1,8.1,0,0,1,6.68-2.87,11.21,11.21,0,0,1,4.33.8,8.69,8.69,0,0,1,3.18,2.19l.17,4.45h-2.91l-.8-3.15a4.82,4.82,0,0,0-1.67-1,6.41,6.41,0,0,0-2.3-.39,4.4,4.4,0,0,0-4.11,2.07,9.77,9.77,0,0,0-1.23,5.07v.78a9.94,9.94,0,0,0,1.22,5.13A4.41,4.41,0,0,0,740,300.53Z"/><path class="cls-47" d="M751.46,300.66l3-.52V285.8l-3-.52v-2.36h6.68v17.22l3,.52V303h-9.7Zm6.68-22.88h-3.66v-3.73h3.66Z"/><path class="cls-47" d="M763.22,300.66l3-.52V285.8l-3-.52v-2.36h6.31l.24,2.62a6.55,6.55,0,0,1,2.49-2.21,7.61,7.61,0,0,1,3.52-.78,6.22,6.22,0,0,1,3.45.93,5.73,5.73,0,0,1,2.16,2.78,7.5,7.5,0,0,1,2.5-2.71,6.64,6.64,0,0,1,3.64-1,6,6,0,0,1,4.86,2.11q1.79,2.1,1.78,6.33v9.15l3,.52V303h-9.72v-2.34l3-.52V291a6.71,6.71,0,0,0-1-4.21,3.71,3.71,0,0,0-3-1.23,3.85,3.85,0,0,0-3.07,1.35,5.8,5.8,0,0,0-1.34,3.38v9.89l3,.52V303h-9.7v-2.34l3-.52V291a6.58,6.58,0,0,0-1-4.13,3.67,3.67,0,0,0-3-1.31,5,5,0,0,0-2.75.69,4.47,4.47,0,0,0-1.65,1.93v12l3,.52V303h-9.7Z"/><path class="cls-47" d="M808.83,303.39a8.46,8.46,0,0,1-6.67-2.79,10.54,10.54,0,0,1-2.48-7.25v-.82a10.3,10.3,0,0,1,2.55-7.13,7.86,7.86,0,0,1,6-2.85A7.61,7.61,0,0,1,814.4,285a9.68,9.68,0,0,1,2.09,6.53v2.28h-13l-.06.1a8,8,0,0,0,1.47,4.76,4.66,4.66,0,0,0,4,1.86,9.28,9.28,0,0,0,3.26-.53,7.43,7.43,0,0,0,2.42-1.45l1.42,2.37a8.6,8.6,0,0,1-2.84,1.75A11.3,11.3,0,0,1,808.83,303.39Zm-.56-18a3.93,3.93,0,0,0-3.13,1.55,7.32,7.32,0,0,0-1.6,3.88l0,.1h9.26v-.49a5.62,5.62,0,0,0-1.15-3.59A4.1,4.1,0,0,0,808.27,285.43Z"/><path class="cls-47" d="M819.55,300.66l3-.52V285.8l-3-.52v-2.36h6.29l.26,3a7.37,7.37,0,0,1,2.52-2.48,6.77,6.77,0,0,1,3.44-.88,6.6,6.6,0,0,1,5,1.9c1.18,1.27,1.78,3.23,1.78,5.88v9.81l3,.52V303h-9.7v-2.34l3-.52V290.4a5.5,5.5,0,0,0-1-3.77,4.22,4.22,0,0,0-3.21-1.11,5.12,5.12,0,0,0-2.79.76,5.63,5.63,0,0,0-1.94,2.08v11.78l3,.52V303h-9.71Z"/><path class="cls-47" d="M850.93,278.08v4.84h3.8v2.71h-3.8v12.19a2.75,2.75,0,0,0,.58,2,2.13,2.13,0,0,0,1.55.57,9,9,0,0,0,1.09-.08c.4-.06.74-.11,1-.18l.5,2.51a4.71,4.71,0,0,1-1.52.54,9.14,9.14,0,0,1-2,.22,4.73,4.73,0,0,1-3.55-1.35,5.82,5.82,0,0,1-1.32-4.22V285.63H844.1v-2.71h3.17v-4.84Z"/><path class="cls-47" d="M858.11,292.78a11,11,0,0,1,2.41-7.34,8.91,8.91,0,0,1,13.13,0,11,11,0,0,1,2.42,7.35v.4a11,11,0,0,1-2.41,7.35,9,9,0,0,1-13.14,0,11,11,0,0,1-2.41-7.34Zm3.65.4a9.48,9.48,0,0,0,1.35,5.27,4.84,4.84,0,0,0,7.95,0,9.48,9.48,0,0,0,1.36-5.27v-.4a9.54,9.54,0,0,0-1.36-5.26,4.83,4.83,0,0,0-8,0,9.62,9.62,0,0,0-1.34,5.26Z"/><path class="cls-47" d="M894.77,289.23H892l-.6-2.41a4.8,4.8,0,0,0-1.68-1,6.29,6.29,0,0,0-2.29-.38,4.21,4.21,0,0,0-2.89.85,2.69,2.69,0,0,0-1,2.06,2.27,2.27,0,0,0,.84,1.87,8.59,8.59,0,0,0,3.39,1.23,14.46,14.46,0,0,1,5.66,2.22,4.45,4.45,0,0,1,1.86,3.75,5.19,5.19,0,0,1-2.16,4.33,9.09,9.09,0,0,1-5.65,1.65,14.72,14.72,0,0,1-4.1-.53,10.7,10.7,0,0,1-3.25-1.53l0-4.58h2.75l.68,2.69a3.79,3.79,0,0,0,1.72.83,9.11,9.11,0,0,0,2.22.26,5.16,5.16,0,0,0,3.05-.79,2.43,2.43,0,0,0,1.1-2.07,2.46,2.46,0,0,0-.92-2,8.69,8.69,0,0,0-3.47-1.36,14.55,14.55,0,0,1-5.52-2.17,4.38,4.38,0,0,1-1.85-3.71,5.22,5.22,0,0,1,2.09-4.17,8.23,8.23,0,0,1,5.42-1.73,13,13,0,0,1,4.1.6,8.39,8.39,0,0,1,3,1.65Z"/><path class="cls-47" d="M903.44,294.13h-3.66V276h3.66Zm0,8.87h-3.66v-3.79h3.66Z"/></g></svg>