<svg xmlns="http://www.w3.org/2000/svg" xmlns:xlink="http://www.w3.org/1999/xlink" viewBox="0 0 1124.64 651.26"><defs><style>.cls-1{fill:#e6f4ff;}.cls-2{fill:none;}.cls-3{fill:#8bb5d8;}.cls-4{fill:#329e89;}.cls-5{clip-path:url(#clip-path);}.cls-6{fill:#c5e2ff;}.cls-7{clip-path:url(#clip-path-2);}.cls-8{fill:#fffdfd;}.cls-9{fill:#fff;}.cls-10{fill:#3a1e1c;}.cls-11{clip-path:url(#clip-path-3);}.cls-12{fill:#d88268;}.cls-13{fill:#d98369;}.cls-14{fill:#da8469;}.cls-15{fill:#db856a;}.cls-16{fill:#dc866b;}.cls-17{fill:#dd876b;}.cls-18{fill:#de886c;}.cls-19{fill:#df896d;}.cls-20{fill:#e08a6d;}.cls-21{fill:#e18b6e;}.cls-22{fill:#e28c6f;}.cls-23{fill:#e48d70;}.cls-24{fill:#e58d70;}.cls-25{fill:#e68e71;}.cls-26{fill:#e78f72;}.cls-27{fill:#e89072;}.cls-28{fill:#e99173;}.cls-29{fill:#ea9274;}.cls-30{fill:#eb9374;}.cls-31{fill:#ec9475;}.cls-32{fill:#ed9576;}.cls-33{fill:#ee9676;}.cls-34{fill:#ef9777;}.cls-35{fill:#3d201f;}.cls-36{fill:#b5574d;}.cls-37{fill:#b3514e;}.cls-38{fill:#312235;}.cls-39{fill:#fc999c;}.cls-40{fill:#f9aaaa;}.cls-41{fill:#196b5d;}.cls-42{fill:#208975;}.cls-43{fill:#8acec3;}.cls-44{fill:#5b1f3c;}.cls-45{fill:#175b4e;}</style><clipPath id="clip-path"><path class="cls-1" d="M428.87,402.79a192.51,192.51,0,0,0-5.05-43.86c-32.69-73-109.23-124.15-198.45-124.15C106.43,234.78,10,325.78,10,438a193.16,193.16,0,0,0,5,43.87C47.74,554.84,124.28,606,213.5,606,332.44,606,428.87,515,428.87,402.79Z"/></clipPath><clipPath id="clip-path-2"><path class="cls-2" d="M541.11,351.64c-10.3-18-97.34-31.5-97.34-31.5S301.45,131.38,232.44,137.81s-80.25,56.58-80.25,56.58l-32.63,66.55C54.29,295.86,10.25,362,10.25,437.86c0,112.25,96.43,203.24,215.37,203.24,117.57,0,213.12-88.9,215.32-199.35C473.29,419.44,549.06,365.51,541.11,351.64Z"/></clipPath><clipPath id="clip-path-3"><path class="cls-2" d="M227.93,321.46l-2.36,9.79s-19.92,12.89-37.91,11.87c-5.34-.31,67.76,42.79,71.74,42.94s34.38-50.15,34.38-50.15-20.41-3.74-27.17-4-14.47-18.28-14.47-18.28Z"/></clipPath></defs><title>5-fala1</title><g id="Camada_5" data-name="Camada 5"><ellipse class="cls-3" cx="225.37" cy="438.02" rx="215.37" ry="203.24"/><path class="cls-4" d="M225.37,234.78c119,0,215.37,91,215.37,203.24S344.32,641.26,225.37,641.26,10,550.27,10,438s96.42-203.24,215.37-203.24m0-10a235.1,235.1,0,0,0-87.54,16.69A225.72,225.72,0,0,0,66.22,287,212.37,212.37,0,0,0,17.8,354.82a203.34,203.34,0,0,0,0,166.4A212.3,212.3,0,0,0,66.22,589a225.89,225.89,0,0,0,71.61,45.57,238.05,238.05,0,0,0,175.08,0A225.94,225.94,0,0,0,384.53,589a212.12,212.12,0,0,0,48.41-67.79,203.34,203.34,0,0,0,0-166.4A212.19,212.19,0,0,0,384.53,287a225.76,225.76,0,0,0-71.62-45.57,235.1,235.1,0,0,0-87.54-16.69Z"/><path class="cls-1" d="M428.87,402.79a192.51,192.51,0,0,0-5.05-43.86c-32.69-73-109.23-124.15-198.45-124.15C106.43,234.78,10,325.78,10,438a193.16,193.16,0,0,0,5,43.87C47.74,554.84,124.28,606,213.5,606,332.44,606,428.87,515,428.87,402.79Z"/><g class="cls-5"><circle class="cls-1" cx="306.79" cy="408.71" r="104.58"/><circle class="cls-1" cx="306.79" cy="408.71" r="100.64"/><circle class="cls-1" cx="306.79" cy="408.71" r="98.66"/><circle class="cls-1" cx="306.79" cy="408.71" r="96.69"/><circle class="cls-1" cx="306.79" cy="408.71" r="94.72"/><circle class="cls-1" cx="306.79" cy="408.71" r="92.74"/><circle class="cls-1" cx="306.79" cy="408.71" r="90.77"/><circle class="cls-1" cx="306.79" cy="408.71" r="88.8"/><circle class="cls-1" cx="306.79" cy="408.71" r="86.82"/><circle class="cls-1" cx="306.79" cy="408.71" r="84.85"/><circle class="cls-1" cx="306.79" cy="408.71" r="82.88"/><circle class="cls-1" cx="306.79" cy="408.71" r="80.9"/><circle class="cls-1" cx="306.79" cy="408.71" r="78.93"/><circle class="cls-1" cx="306.79" cy="408.71" r="76.96"/><circle class="cls-1" cx="306.79" cy="408.71" r="74.98"/><circle class="cls-1" cx="306.79" cy="408.71" r="73.01"/><circle class="cls-1" cx="306.79" cy="408.71" r="71.04"/><circle class="cls-1" cx="306.79" cy="408.71" r="69.06"/><circle class="cls-1" cx="306.79" cy="408.71" r="67.09"/><circle class="cls-1" cx="306.79" cy="408.71" r="65.12"/><circle class="cls-1" cx="306.79" cy="408.71" r="63.15"/><circle class="cls-1" cx="306.79" cy="408.71" r="61.17"/><circle class="cls-1" cx="306.79" cy="408.71" r="59.2"/><circle class="cls-1" cx="306.79" cy="408.71" r="57.23"/><circle class="cls-1" cx="306.79" cy="408.71" r="55.25"/><circle class="cls-1" cx="306.79" cy="408.71" r="53.28"/><circle class="cls-1" cx="306.79" cy="408.71" r="51.31"/><circle class="cls-1" cx="306.79" cy="408.71" r="49.33"/><circle class="cls-1" cx="306.79" cy="408.71" r="47.36"/><circle class="cls-1" cx="306.79" cy="408.71" r="45.39"/><circle class="cls-1" cx="306.79" cy="408.71" r="43.41"/><circle class="cls-1" cx="306.79" cy="408.71" r="41.44"/><circle class="cls-1" cx="306.79" cy="408.71" r="39.47"/><circle class="cls-1" cx="306.79" cy="408.71" r="37.49"/><circle class="cls-1" cx="306.79" cy="408.71" r="35.52"/><circle class="cls-1" cx="306.79" cy="408.71" r="33.55"/><circle class="cls-1" cx="306.79" cy="408.71" r="31.57"/><circle class="cls-1" cx="306.79" cy="408.71" r="29.6"/><circle class="cls-1" cx="306.79" cy="408.71" r="27.63"/><circle class="cls-1" cx="306.79" cy="408.71" r="25.65"/><circle class="cls-1" cx="306.79" cy="408.71" r="23.68"/><circle class="cls-1" cx="306.79" cy="408.71" r="21.71"/><circle class="cls-1" cx="306.79" cy="408.71" r="19.73"/><circle class="cls-1" cx="306.79" cy="408.71" r="17.76"/><circle class="cls-1" cx="306.79" cy="408.71" r="15.79"/><circle class="cls-1" cx="306.79" cy="408.71" r="13.81"/><circle class="cls-1" cx="306.79" cy="408.71" r="11.84"/><circle class="cls-1" cx="306.79" cy="408.71" r="9.87"/><circle class="cls-1" cx="306.79" cy="408.71" r="7.89"/><circle class="cls-1" cx="306.79" cy="408.71" r="5.92"/><circle class="cls-1" cx="306.79" cy="408.71" r="3.95"/><circle class="cls-1" cx="306.79" cy="408.71" r="1.97"/></g><path class="cls-3" d="M787.8,44.22c-174.89,0-318.64,118.13-335.23,269.27L353,353.14s-6.51,2.41-5.85,11.74a12.7,12.7,0,0,0,7.43,10.89L458.82,407C492,541,626.68,641.26,787.8,641.26c186,0,336.84-133.65,336.84-298.52S973.83,44.22,787.8,44.22Z"/><path class="cls-6" d="M787.75,0C612.85,0,469.11,118.13,452.52,269.27L353,308.92s-6.51,2.41-5.86,11.74a12.7,12.7,0,0,0,7.44,10.88l104.21,31.28C492,496.78,626.63,597,787.75,597c186,0,336.84-133.65,336.84-298.52S973.78,0,787.75,0Z"/><g class="cls-7"><path class="cls-8" d="M329.94,510.18s.78-10,4.41-10.57l24.22,31.55-9.37,5.44Z"/><path class="cls-9" d="M153.53,566.53s24.48-21.86,24.48-27-14.35-8.34-14.35-8.34l-20.41,29.5,9.58,7.33Z"/><path class="cls-10" d="M176.44,360.74s-46.9-131.84,7.44-198.9c0,0,58.11-39.81,101.53,7s13,178.54,13,178.54Z"/><g class="cls-11"><polygon class="cls-12" points="293.71 313.64 293.74 313.95 182.31 324.32 182.31 313.64 293.71 313.64"/><polygon class="cls-12" points="293.74 313.95 293.78 314.33 293.78 314.76 182.31 325.13 182.31 324.32 293.74 313.95"/><polygon class="cls-13" points="293.78 315.57 182.31 325.95 182.31 325.13 293.78 314.76 293.78 315.57"/><polygon class="cls-14" points="293.78 316.39 182.31 326.76 182.31 325.95 293.78 315.57 293.78 316.39"/><polygon class="cls-15" points="293.78 317.2 182.31 327.57 182.31 326.76 293.78 316.39 293.78 317.2"/><polygon class="cls-16" points="293.78 318.01 182.31 328.39 182.31 327.57 293.78 317.2 293.78 318.01"/><polygon class="cls-17" points="293.78 318.83 182.31 329.2 182.31 328.39 293.78 318.01 293.78 318.83"/><polygon class="cls-18" points="293.78 319.64 182.31 330.01 182.31 329.2 293.78 318.83 293.78 319.64"/><polygon class="cls-19" points="293.78 320.45 182.31 330.83 182.31 330.01 293.78 319.64 293.78 320.45"/><polygon class="cls-20" points="293.78 321.27 182.31 331.64 182.31 330.83 293.78 320.45 293.78 321.27"/><polygon class="cls-21" points="293.78 322.08 182.31 332.45 182.31 331.64 293.78 321.27 293.78 322.08"/><polygon class="cls-22" points="293.78 322.89 182.31 333.27 182.31 332.45 293.78 322.08 293.78 322.89"/><polygon class="cls-23" points="293.78 323.71 182.31 334.08 182.31 333.27 293.78 322.89 293.78 323.71"/><polygon class="cls-24" points="293.78 324.52 182.31 334.89 182.31 334.08 293.78 323.71 293.78 324.52"/><polygon class="cls-25" points="293.78 325.33 182.31 335.71 182.31 334.89 293.78 324.52 293.78 325.33"/><polygon class="cls-26" points="293.78 326.14 182.31 336.52 182.31 335.71 293.78 325.33 293.78 326.14"/><polygon class="cls-27" points="293.78 326.96 182.31 337.33 182.31 336.52 293.78 326.14 293.78 326.96"/><polygon class="cls-28" points="293.78 327.77 182.31 338.14 182.31 337.33 293.78 326.96 293.78 327.77"/><polygon class="cls-29" points="293.78 328.58 182.31 338.96 182.31 338.14 293.78 327.77 293.78 328.58"/><polygon class="cls-30" points="293.78 329.4 182.31 339.77 182.31 338.96 293.78 328.58 293.78 329.4"/><polygon class="cls-31" points="293.78 330.21 182.31 340.58 182.31 339.77 293.78 329.4 293.78 330.21"/><polygon class="cls-32" points="293.78 331.02 182.31 341.4 182.31 340.58 293.78 330.21 293.78 331.02"/><polygon class="cls-33" points="293.78 331.84 182.31 342.21 182.31 341.4 293.78 331.02 293.78 331.84"/><polygon class="cls-34" points="293.78 332.65 182.31 343.02 182.31 342.21 293.78 331.84 293.78 332.65"/><polygon class="cls-34" points="184.35 386.21 182.31 364.39 182.31 343.02 293.78 332.65 293.78 386.21 184.35 386.21"/></g><path class="cls-34" d="M182.6,222.54s-.88,110.78,64.76,101.68c35.49-4.92,47.51-40.41,40.88-70.91a191.62,191.62,0,0,1-3.79-46.77s-4.08-29.37-38.7-20.3S196.11,192,196.11,192,180.54,195.13,182.6,222.54Z"/><path class="cls-10" d="M177.07,228.73s25.09-2.78,36.43-7.67l.58-15.4s2.55,9.93,4.85,12.41,22.88-.74,32-3.59,4.81-14.7,4.81-14.7l4.34,11.86s28.57,3.44,28.73-.93S285,186,276.62,182s-73.88-4.43-83.08,4.1S177.53,216.52,177.07,228.73Z"/><ellipse class="cls-35" cx="262.95" cy="244.39" rx="3.92" ry="3.17" transform="translate(-22.42 26.6) rotate(-5.56)"/><ellipse class="cls-35" cx="223.88" cy="248.1" rx="3.92" ry="3.17" transform="translate(-22.97 22.84) rotate(-5.56)"/><path class="cls-36" d="M250.55,278.83a15.34,15.34,0,0,1-5.17-.8l.35-.94c5.16,1.91,13.88,0,15.56-3.33,1.13-2.28-1.44-4.53-3.78-6-6.89-4.38-5.32-8.93-5.25-9.13l.94.35c0,.16-1.33,4,4.84,7.94,4.88,3.1,4.95,5.69,4.14,7.31C260.72,277.15,255.37,278.83,250.55,278.83Z"/><path class="cls-37" d="M262,289.89c-18.37,4.75-31.32.71-30.6,2,0,0-.78,13.73,15.42,13.63C263.55,305.45,262,289.89,262,289.89Z"/><path class="cls-9" d="M219.38,333.59s22.52,13.65,36.94,11.8c6.84-.87,18.95-14,18.95-14l13,129.74-49.8,2.24Z"/><path class="cls-38" d="M172.66,557.55S155.05,630.13,157,650s4.68,52.17,34,146c0,0,78.26,32.38,150.2-.81,0,0,6.29-1.86,10.91-43.81s12.42-142.59-8.72-187.47S172.66,557.55,172.66,557.55Z"/><path class="cls-10" d="M270.81,230.55s-4.74-6.21-9.75-3.11a.89.89,0,0,0-.58,1.12c.25.84,1.91-1.63,9.83,2.73C270.31,231.29,270.81,231.58,270.81,230.55Z"/><path class="cls-10" d="M213.93,234s4.75-6.2,9.75-3.1a.89.89,0,0,1,.58,1.12c-.25.83-1.91-1.64-9.83,2.73C214.43,234.73,213.93,235,213.93,234Z"/><path class="cls-9" d="M259.62,290.44s-.65,3.21-2,4.12-15.59,1.66-24.11,1c-2.87-.24-2.32-2.92-2.18-3.89C231.35,291.63,246.09,293.49,259.62,290.44Z"/><path class="cls-39" d="M251.34,305.09s-1.86-9.5-19.13-7C232.21,298.13,235.94,307.82,251.34,305.09Z"/><ellipse class="cls-40" cx="281.01" cy="254.61" rx="3.62" ry="6.23" transform="translate(3.96 513.52) rotate(-85.24)"/><ellipse class="cls-40" cx="214.79" cy="263.85" rx="6.23" ry="3.62" transform="translate(-52.96 53.94) rotate(-12.76)"/><path class="cls-41" d="M334.61,435.84,357,461.35s-6.12,9.16-12,18.65c-6.27,10.12-15.54,20.35-13.57,20.57,4,.44,26.78,31.77,26.78,31.77l28-38s21.11-33.38,20.75-37-18.37-28.47-24.44-34.21c-3.74-3.54-9.95-8.73-15.17-16.12-29.22-41.32-56.53-70.82-58.39-72.35s-11-6.17-14.23-4.64-19.19,1.4-19.19,1.4l2.64,115.37L219.63,333.58s-12.56,4.34-26.08,2.61-36.24,3.62-36.24,3.62-10.24,27.71-17.55,29.81-11,20.26-11,20.26c-2.17,2.65-10.18,14.08-19.61,27.71h0s-37.48,45.94-43,49.92S63.56,481,63.56,481l78.84,83.79,27.83-35.52c-7.13-.49-43.13-49.77-43.13-49.77,2.53-4.53,2.3-8.25,1.56-10.71,17.3-18.49,42.63-47.19,42.63-47.19.41,4.07,6.47,16.8,16.93,32.52s9.69,42.14,9.69,42.14c-14.94,21.68-25,61.34-25,61.34s1,7.93,26.28,20.55c11,5.5,46.51,16.31,46.51,16.31l39.46-43.29,50.78,35.64s9.12-9.12,8.21-18.27S325.71,505,325.71,505s-1.89-19,.27-24.66S334.61,435.84,334.61,435.84Z"/><path class="cls-12" d="M153.53,566.53s12.2,10.71,14.67,8.24l12.43-35.2S165.06,550.81,153.53,566.53Z"/><path class="cls-34" d="M170.88,567.7s5.9-5.86,14.86,2.8,9.68,9.26,9.68,9.26,7,2.88,7.52-4.62c0,0,8.8,1.29,6.83-8.4,0,0,6.13-4.42.7-12,0,0,5.51-1.05,2.24-11.46s-24-20.47-24-20.47-9.94-3.49-10.82,8.08c0,0-7.16.37-4.66,10.37,0,0-4.65,4.21-3.65,8.77s-.11,3.67-.11,3.67S162.79,561.13,170.88,567.7Z"/><path class="cls-36" d="M202.56,575.46c-.11-.13-11.87-13.67-24.48-19.79l.43-.9c12.8,6.21,24.69,19.9,24.81,20Z"/><path class="cls-36" d="M209.42,567.1c-.17-.16-17.14-16.09-29.48-22.74l.48-.88c12.45,6.71,29.52,22.73,29.69,22.9Z"/><path class="cls-36" d="M210.09,555c-.15-.18-15.21-17.91-27.55-21.76l.3-1c12.61,4,27.39,21.33,28,22.07Z"/><path class="cls-34" d="M347.86,556.51l-16.17,4.75s-6.95,2.88-7.52-4.62c0,0-8.8,1.29-6.82-8.4,0,0-6.14-4.42-.71-12,0,0-5.51-1.05-2.24-11.46s15.67-13.15,15.67-13.15,9.94-3.49,10.82,8.07c0,0,7.16.38,4.66,10.37,0,0,4.65,4.21,3.65,8.78s.11,3.66.11,3.66S356,549.94,347.86,556.51Z"/><path class="cls-36" d="M324.44,557.06l-.54-.84A275.12,275.12,0,0,1,349.1,542l.43.9A273.55,273.55,0,0,0,324.44,557.06Z"/><path class="cls-36" d="M317.64,548.64l-.59-.8c.16-.12,15.84-11.55,28.27-18.25l.47.88C333.42,537.14,317.8,548.53,317.64,548.64Z"/><path class="cls-36" d="M317.07,536.46l-.86-.51c.09-.16,9.39-15.38,24.63-16.79l.09,1C326.2,521.52,317.16,536.31,317.07,536.46Z"/><path class="cls-42" d="M219.38,333.59S195.23,345.24,182.15,365l44.38,12.67s-15.11,14.85-14.79,18.07,66.17,51,66.17,51,33.54-61.51,29.81-64.56-24.29-6.81-24.29-6.81,19.48-27.6,22.87-27.94-28-16.36-31-16.06,2.52,110.28,2.52,110.28l-.15,2.38Z"/><path class="cls-38" d="M277.91,446.79s9.26,81.81,7,104.33"/><circle class="cls-43" cx="291.65" cy="471.48" r="5.33"/><circle class="cls-43" cx="293.78" cy="509.48" r="5.33"/><path class="cls-44" d="M173.81,404.74l-1-.23a76.6,76.6,0,0,0-11.55-60.85l.82-.58A77.66,77.66,0,0,1,173.81,404.74Z"/><path class="cls-44" d="M329.09,406.93l-1-.09c1.1-12.29-3.36-24.57-7.3-35.4-4.66-12.82-10-27.36-20.07-37.89l.72-.69c10.27,10.68,15.59,25.32,20.29,38.23C325.7,382,330.21,394.42,329.09,406.93Z"/><path class="cls-44" d="M146.32,377a27.46,27.46,0,0,0-3.49-7l.82-.57a28.62,28.62,0,0,1,3.62,7.2Z"/><path class="cls-44" d="M136,392.63a35.57,35.57,0,0,0-6.08-.83l0-1a35.6,35.6,0,0,1,6.25.86Z"/><path class="cls-44" d="M334.44,441l-1-.12a74.23,74.23,0,0,0,.43-11.92l1-.05A75.14,75.14,0,0,1,334.44,441Z"/><path class="cls-44" d="M355.5,460.4l-.14-1a75,75,0,0,1,12.07-.73l0,1A74.13,74.13,0,0,0,355.5,460.4Z"/><path class="cls-44" d="M365,468.05a59.33,59.33,0,0,0-8.69-6.35l.52-.86a62,62,0,0,1,8.83,6.45Z"/><path class="cls-44" d="M200.41,496.57l-.52-.85a60,60,0,0,1,11.6-5.55l.33.94A58.91,58.91,0,0,0,200.41,496.57Z"/><path class="cls-44" d="M127.77,469.24c-2.33,0-10-.2-12.54-2.74l.7-.71c2.66,2.65,12.37,2.44,12.47,2.45l0,1Z"/><path class="cls-44" d="M118.83,482.89v-1c3.43,0,7.7-2.82,7.74-2.85l.56.83C126.94,480,122.56,482.89,118.83,482.89Z"/></g><path class="cls-45" d="M566.15,169.06h-2.31l-.61-3.42a6.46,6.46,0,0,0-2-1.28,7.08,7.08,0,0,0-2.78-.5,6.78,6.78,0,0,0-5.79,2.73,11.34,11.34,0,0,0-2,6.93v.39a11.56,11.56,0,0,0,2,6.94,6.39,6.39,0,0,0,5.5,2.75,8.38,8.38,0,0,0,3-.51,6,6,0,0,0,2.08-1.26l.61-3.42h2.31v4.3A9.17,9.17,0,0,1,563,185.1a10.53,10.53,0,0,1-4.85,1.06,9.75,9.75,0,0,1-7.73-3.49,12.86,12.86,0,0,1-3-8.76v-.35a13,13,0,0,1,3-8.79,9.73,9.73,0,0,1,7.78-3.48,10.53,10.53,0,0,1,4.85,1.07,9.31,9.31,0,0,1,3.14,2.4Z"/><path class="cls-45" d="M581.35,185.81c-.1-.49-.17-.92-.23-1.31s-.09-.78-.11-1.16a7.87,7.87,0,0,1-2.37,2,6.77,6.77,0,0,1-7.3-.56,5,5,0,0,1-1.46-3.86A4.46,4.46,0,0,1,572,177a10,10,0,0,1,5.67-1.39H581v-2.09a3.22,3.22,0,0,0-1-2.5,3.92,3.92,0,0,0-2.77-.92,6.85,6.85,0,0,0-2.17.31,4,4,0,0,0-1.51.87l-.35,1.89h-2.53v-3.49a10,10,0,0,1,3-1.57,11.9,11.9,0,0,1,3.79-.58,7.52,7.52,0,0,1,5,1.56,5.45,5.45,0,0,1,1.89,4.46v8.65c0,.23,0,.46,0,.68s0,.44,0,.67l1.33.18v2.09Zm-5.26-2.39a5.78,5.78,0,0,0,3-.78,4.86,4.86,0,0,0,1.93-1.88v-2.95H577.5a5,5,0,0,0-3.18.93,2.79,2.79,0,0,0-1.17,2.26,2.27,2.27,0,0,0,.73,1.8A3.39,3.39,0,0,0,576.09,183.42Z"/><path class="cls-45" d="M588.36,170v-2.11H594l.31,2.6a6.22,6.22,0,0,1,1.89-2.15,4.31,4.31,0,0,1,2.56-.78,5.32,5.32,0,0,1,.79,0,3.59,3.59,0,0,1,.62.13l-.43,3-1.86-.1a3.77,3.77,0,0,0-2.17.6,3.92,3.92,0,0,0-1.36,1.7v10.31l2.7.47v2.09h-8.68v-2.09l2.71-.47V170.42Z"/><path class="cls-45" d="M629.23,177.48a11,11,0,0,1-2,6.11,6.34,6.34,0,0,1-5.51,2.57,3.31,3.31,0,0,1-2.1-.69,3.74,3.74,0,0,1-1.27-1.93,5.45,5.45,0,0,1-2,2,5.73,5.73,0,0,1-2.77.65,3.56,3.56,0,0,1-3.22-2,9,9,0,0,1-.85-5.26,13.53,13.53,0,0,1,2.29-6.89,5.57,5.57,0,0,1,4.62-2.6,7.48,7.48,0,0,1,2.8.43,12.27,12.27,0,0,1,2.33,1.33l-.07.06h.1l-.84,9.72a4,4,0,0,0,.35,2.51,1.6,1.6,0,0,0,1.36.69,3.73,3.73,0,0,0,3.26-1.88,9.56,9.56,0,0,0,1.35-4.79q.29-6.34-2.38-9.89t-8.23-3.54a10,10,0,0,0-8.23,3.83,16.46,16.46,0,0,0-3.35,10q-.3,6.25,2.49,9.87a9.48,9.48,0,0,0,8,3.63,13.05,13.05,0,0,0,2.95-.35,10.15,10.15,0,0,0,2.53-.94l.64,1.77a9.2,9.2,0,0,1-2.84,1.09,15.13,15.13,0,0,1-3.35.39q-6.3,0-9.76-4.14t-3.14-11.32a18.09,18.09,0,0,1,4.14-11.42,12.59,12.59,0,0,1,10-4.4q6.29,0,9.65,4.15T629.23,177.48Zm-16.81,1.42a7.64,7.64,0,0,0,.36,3.58,1.85,1.85,0,0,0,1.78,1.24,4.46,4.46,0,0,0,1.93-.42,4.15,4.15,0,0,0,1.62-1.46c0-.13,0-.27,0-.41s0-.31,0-.48l.78-8.94a5,5,0,0,0-.9-.31,4.07,4.07,0,0,0-1-.12,3.51,3.51,0,0,0-3.17,1.81A13.4,13.4,0,0,0,612.42,178.9Z"/><path class="cls-45" d="M649.17,183.6a4.42,4.42,0,0,0,2.87-1,3.07,3.07,0,0,0,1.23-2.47h2.94l0,.1a5,5,0,0,1-2.06,4.13,7.57,7.57,0,0,1-5,1.8,7.23,7.23,0,0,1-6-2.56,9.86,9.86,0,0,1-2.07-6.42v-.7a9.81,9.81,0,0,1,2.08-6.4,7.22,7.22,0,0,1,6-2.56,10,10,0,0,1,3.88.71,7.88,7.88,0,0,1,2.85,2l.15,4h-2.61l-.72-2.82a4.13,4.13,0,0,0-1.49-.91,5.56,5.56,0,0,0-2.06-.35,3.94,3.94,0,0,0-3.67,1.85,8.68,8.68,0,0,0-1.11,4.54v.7a8.86,8.86,0,0,0,1.1,4.59A4,4,0,0,0,649.17,183.6Z"/><path class="cls-45" d="M672.28,183.15a5.81,5.81,0,0,1-5.26,3,5.77,5.77,0,0,1-4.57-1.88q-1.63-1.87-1.64-5.84v-8l-2.06-.46v-2.11h5.33v10.62c0,1.92.28,3.23.85,3.95a3.14,3.14,0,0,0,2.64,1.08,5.39,5.39,0,0,0,2.88-.7,4.44,4.44,0,0,0,1.72-2V170.42l-2.41-.46v-2.11h5.68v15.4l2,.47v2.09h-5Z"/><path class="cls-45" d="M680.08,170v-2.11h5.63l.32,2.6a6.3,6.3,0,0,1,1.88-2.15,4.32,4.32,0,0,1,2.57-.78,5.27,5.27,0,0,1,.78,0,3.75,3.75,0,0,1,.63.13l-.43,3-1.86-.1a3.78,3.78,0,0,0-2.18.6,4,4,0,0,0-1.36,1.7v10.31l2.71.47v2.09h-8.69v-2.09l2.71-.47V170.42Z"/><path class="cls-45" d="M707.89,173.49h-2.46l-.53-2.16a4.61,4.61,0,0,0-1.5-.9,5.72,5.72,0,0,0-2-.34,3.78,3.78,0,0,0-2.59.76,2.42,2.42,0,0,0-.85,1.84,2.06,2.06,0,0,0,.75,1.68,7.72,7.72,0,0,0,3,1.1,13,13,0,0,1,5.06,2,4,4,0,0,1,1.66,3.36,4.62,4.62,0,0,1-1.93,3.87,8.09,8.09,0,0,1-5.06,1.48,13.39,13.39,0,0,1-3.67-.47,10.07,10.07,0,0,1-2.9-1.37l0-4.1h2.46l.61,2.4a3.42,3.42,0,0,0,1.54.75,8.78,8.78,0,0,0,2,.23,4.59,4.59,0,0,0,2.73-.7,2.18,2.18,0,0,0,1-1.85,2.22,2.22,0,0,0-.82-1.78,7.59,7.59,0,0,0-3.11-1.21,13.07,13.07,0,0,1-4.93-1.95,3.89,3.89,0,0,1-1.66-3.32,4.69,4.69,0,0,1,1.86-3.73,7.39,7.39,0,0,1,4.86-1.54,11.66,11.66,0,0,1,3.67.53,7.65,7.65,0,0,1,2.71,1.47Z"/><path class="cls-45" d="M711.48,183.72l2.7-.47V170.42l-2.7-.46v-2.11h6v15.4l2.71.47v2.09h-8.68Zm6-20.47h-3.27v-3.34h3.27Z"/><path class="cls-45" d="M736.4,173.49h-2.46l-.53-2.16a4.61,4.61,0,0,0-1.5-.9,5.76,5.76,0,0,0-2-.34,3.75,3.75,0,0,0-2.59.76,2.39,2.39,0,0,0-.85,1.84,2.06,2.06,0,0,0,.75,1.68,7.65,7.65,0,0,0,3,1.1,13.12,13.12,0,0,1,5.07,2,4,4,0,0,1,1.66,3.36,4.63,4.63,0,0,1-1.94,3.87,8.06,8.06,0,0,1-5,1.48,13.34,13.34,0,0,1-3.67-.47,10.13,10.13,0,0,1-2.91-1.37v-4.1h2.45l.62,2.4a3.43,3.43,0,0,0,1.53.75,8.8,8.8,0,0,0,2,.23,4.64,4.64,0,0,0,2.73-.7,2.18,2.18,0,0,0,1-1.85,2.25,2.25,0,0,0-.82-1.78,7.65,7.65,0,0,0-3.12-1.21,13.14,13.14,0,0,1-4.93-1.95,3.91,3.91,0,0,1-1.66-3.32,4.67,4.67,0,0,1,1.87-3.73,7.37,7.37,0,0,1,4.86-1.54,11.55,11.55,0,0,1,3.66.53,7.56,7.56,0,0,1,2.71,1.47Z"/><path class="cls-45" d="M745.69,163.51v4.34h3.41v2.42h-3.41v10.91a2.41,2.41,0,0,0,.53,1.77,1.86,1.86,0,0,0,1.38.52,7.15,7.15,0,0,0,1-.08c.36,0,.67-.1.91-.15l.45,2.24a4.3,4.3,0,0,1-1.36.49,8.47,8.47,0,0,1-1.8.19A4.21,4.21,0,0,1,743.6,185a5.24,5.24,0,0,1-1.18-3.77V170.27h-2.84v-2.42h2.84v-4.34Z"/><path class="cls-45" d="M764.15,185.81c-.1-.49-.17-.92-.23-1.31s-.09-.78-.11-1.16a8,8,0,0,1-2.37,2,6.77,6.77,0,0,1-7.3-.56,5,5,0,0,1-1.46-3.86,4.46,4.46,0,0,1,2.07-3.94,10,10,0,0,1,5.67-1.39h3.37v-2.09a3.22,3.22,0,0,0-1-2.5,3.92,3.92,0,0,0-2.77-.92,6.85,6.85,0,0,0-2.17.31,4,4,0,0,0-1.51.87l-.35,1.89h-2.53v-3.49a10,10,0,0,1,3-1.57,11.9,11.9,0,0,1,3.79-.58,7.52,7.52,0,0,1,4.95,1.56,5.45,5.45,0,0,1,1.89,4.46v8.65c0,.23,0,.46,0,.68s0,.44,0,.67l1.33.18v2.09Zm-5.26-2.39a5.78,5.78,0,0,0,3-.78,4.86,4.86,0,0,0,1.93-1.88v-2.95H760.3a5,5,0,0,0-3.18.93A2.79,2.79,0,0,0,756,181a2.27,2.27,0,0,0,.73,1.8A3.39,3.39,0,0,0,758.89,183.42Z"/><path class="cls-45" d="M775.36,171.2h-3.27v-3.35h3.27Zm0,14.61h-3.27v-3.35h3.27Z"/><path class="cls-45" d="M569.94,242.61l-.09,0-8.45,20h-1.3l-8.44-19.94-.09,0,.17,9.87V261l2.55.2v1.38h-6.95v-1.38l2.54-.2V241.45l-2.54-.2v-1.39h5l8.35,20h.1l8.39-20h5v1.39l-2.54.2V261l2.54.2v1.38h-7v-1.38l2.55-.2v-8.47Z"/><path class="cls-45" d="M576.69,261.23l2.55-.2V247.3l-2.55-.21V245.7h4.41V261l2.55.2v1.38h-7Zm4.41-20.37h-1.86v-2.63h1.86Z"/><path class="cls-45" d="M586.44,261.23,589,261V247.3l-2.55-.21V245.7h4.21l.17,3a6.06,6.06,0,0,1,2.19-2.42,6.23,6.23,0,0,1,3.28-.85,5.22,5.22,0,0,1,4.19,1.68q1.42,1.68,1.43,5.24V261l2.55.2v1.38h-7v-1.38L600,261v-8.7c0-1.94-.36-3.31-1.09-4.11a3.93,3.93,0,0,0-3.08-1.2,4.77,4.77,0,0,0-3.21,1,5.73,5.73,0,0,0-1.79,2.75V261l2.54.2v1.38h-7Z"/><path class="cls-45" d="M606.85,239.63v-1.4h4.41v10.36a6,6,0,0,1,5.53-3.2,5.1,5.1,0,0,1,4.1,1.66c1,1.1,1.43,2.82,1.43,5.14V261l2.55.2v1.38h-7v-1.38l2.54-.2v-8.87a5.83,5.83,0,0,0-1.08-3.95,3.83,3.83,0,0,0-3-1.19,5,5,0,0,0-3.21,1,5.88,5.88,0,0,0-1.9,2.68V261l2.54.2v1.38h-6.95v-1.38l2.55-.2v-21.2Z"/><path class="cls-45" d="M639.35,262.61c-.12-.57-.21-1.07-.26-1.48a8.93,8.93,0,0,1-.08-1.27,7.43,7.43,0,0,1-2.5,2.2,7,7,0,0,1-3.52.88,5.4,5.4,0,0,1-3.84-1.28,4.53,4.53,0,0,1-1.36-3.47,4.3,4.3,0,0,1,2-3.72,9.57,9.57,0,0,1,5.47-1.38H639v-2.23a3.57,3.57,0,0,0-1.17-2.84,4.72,4.72,0,0,0-3.25-1,8.12,8.12,0,0,0-2.58.39,5.7,5.7,0,0,0-1.94,1l-.16,2.26h-1.54v-3.25a10,10,0,0,1,2.81-1.47,10.65,10.65,0,0,1,3.47-.56,6.81,6.81,0,0,1,4.5,1.42,5,5,0,0,1,1.71,4.08v8.31c0,.35,0,.68,0,1s.05.62.1.93l1.69.1v1.38Zm-6.16-1.33a6.71,6.71,0,0,0,3.58-.94,5.53,5.53,0,0,0,2.24-2.42v-3.39h-3.77a7,7,0,0,0-4.07,1.06,3.14,3.14,0,0,0-1.52,2.66,2.79,2.79,0,0,0,.94,2.2A3.83,3.83,0,0,0,633.19,261.28Z"/><path class="cls-45" d="M657.6,250.92h-1.53l-.22-2.39a4.75,4.75,0,0,0-1.77-1.14,7,7,0,0,0-2.46-.41,4.57,4.57,0,0,0-3.07.89,2.65,2.65,0,0,0-1,2.07,2.46,2.46,0,0,0,.89,1.94,8.6,8.6,0,0,0,3.52,1.34,11.46,11.46,0,0,1,4.51,1.84,3.78,3.78,0,0,1,1.5,3.16,4.08,4.08,0,0,1-1.71,3.41,7.25,7.25,0,0,1-4.52,1.31,10.47,10.47,0,0,1-3.41-.53,8,8,0,0,1-2.67-1.47v-3.41h1.52l.26,2.41a4.35,4.35,0,0,0,1.9,1.08,8.34,8.34,0,0,0,2.4.34,5.2,5.2,0,0,0,3.2-.89,2.64,2.64,0,0,0,1.18-2.16,2.76,2.76,0,0,0-1-2.08,8.05,8.05,0,0,0-3.52-1.45,11.91,11.91,0,0,1-4.48-1.74,3.55,3.55,0,0,1-1.46-3,4.05,4.05,0,0,1,1.64-3.27,6.63,6.63,0,0,1,4.33-1.34A9.65,9.65,0,0,1,655,246a6.72,6.72,0,0,1,2.51,1.54Z"/><path class="cls-45" d="M676.35,261.36a5.32,5.32,0,0,0,3.28-1.06,3.49,3.49,0,0,0,1.42-3h1.66l0,.1a4.64,4.64,0,0,1-1.87,3.92,7,7,0,0,1-4.52,1.58,6.43,6.43,0,0,1-5.33-2.37,9.47,9.47,0,0,1-1.89-6.09v-.65a9.42,9.42,0,0,1,1.89-6.06,6.39,6.39,0,0,1,5.32-2.38,8.54,8.54,0,0,1,3.57.74,6.86,6.86,0,0,1,2.64,2l.08,3.68H681l-.3-3a5.34,5.34,0,0,0-1.87-1.33,6.17,6.17,0,0,0-2.53-.5,4.51,4.51,0,0,0-4,2,8.62,8.62,0,0,0-1.3,4.9v.65a8.74,8.74,0,0,0,1.29,4.94A4.55,4.55,0,0,0,676.35,261.36Z"/><path class="cls-45" d="M690.27,245.7l.24,2.82v.2a6,6,0,0,1,2-2.45,5,5,0,0,1,2.94-.88,5.65,5.65,0,0,1,1.25.17l-.25,1.75-1.39-.09a4.25,4.25,0,0,0-2.9,1,5.47,5.47,0,0,0-1.61,2.73V261l2.54.2v1.38H686.1v-1.38l2.55-.2V247.3l-2.55-.21V245.7h4.17Z"/><path class="cls-45" d="M699,261.23l2.55-.2V247.3l-2.55-.21V245.7h4.41V261l2.54.2v1.38H699Zm4.41-20.37h-1.86v-2.63h1.86Z"/><path class="cls-45" d="M720.73,262.61a15,15,0,0,1-.27-1.48,10.69,10.69,0,0,1-.08-1.27,7.34,7.34,0,0,1-2.5,2.2,7,7,0,0,1-3.51.88,5.42,5.42,0,0,1-3.85-1.28,4.57,4.57,0,0,1-1.36-3.47,4.31,4.31,0,0,1,2-3.72,9.52,9.52,0,0,1,5.47-1.38h3.73v-2.23a3.6,3.6,0,0,0-1.16-2.84,4.74,4.74,0,0,0-3.26-1,8.06,8.06,0,0,0-2.57.39,5.66,5.66,0,0,0-1.95,1l-.15,2.26h-1.55l0-3.25a9.88,9.88,0,0,1,2.8-1.47,10.76,10.76,0,0,1,3.48-.56,6.85,6.85,0,0,1,4.5,1.42,5,5,0,0,1,1.7,4.08v8.31c0,.35,0,.68,0,1a7.37,7.37,0,0,0,.11.93l1.68.1v1.38Zm-6.16-1.33a6.74,6.74,0,0,0,3.58-.94,5.51,5.51,0,0,0,2.23-2.42v-3.39h-3.76a7,7,0,0,0-4.07,1.06,3.13,3.13,0,0,0-1.53,2.66,2.8,2.8,0,0,0,1,2.2A3.81,3.81,0,0,0,714.57,261.28Z"/><path class="cls-45" d="M726.37,261.23l2.54-.2V247.3l-2.54-.21V245.7h4.2l.17,3a6,6,0,0,1,2.2-2.42,6.17,6.17,0,0,1,3.27-.85,5.22,5.22,0,0,1,4.19,1.68q1.44,1.68,1.44,5.24V261l2.54.2v1.38h-7v-1.38L740,261v-8.7c0-1.94-.36-3.31-1.09-4.11a3.93,3.93,0,0,0-3.08-1.2,4.8,4.8,0,0,0-3.21,1,5.73,5.73,0,0,0-1.79,2.75V261l2.55.2v1.38h-7Z"/><path class="cls-45" d="M754.38,261.36a5.32,5.32,0,0,0,3.28-1.06,3.49,3.49,0,0,0,1.43-3h1.65l0,.1a4.66,4.66,0,0,1-1.86,3.92,7,7,0,0,1-4.53,1.58,6.43,6.43,0,0,1-5.33-2.37,9.47,9.47,0,0,1-1.89-6.09v-.65a9.42,9.42,0,0,1,1.89-6.06,6.4,6.4,0,0,1,5.32-2.38,8.54,8.54,0,0,1,3.57.74,7,7,0,0,1,2.65,2l.07,3.68h-1.59l-.3-3a5.39,5.39,0,0,0-1.86-1.33,6.26,6.26,0,0,0-2.54-.5,4.51,4.51,0,0,0-4,2,8.62,8.62,0,0,0-1.3,4.9v.65a8.66,8.66,0,0,0,1.3,4.94A4.52,4.52,0,0,0,754.38,261.36Zm.49,1.39-.18,1a3.76,3.76,0,0,1,2,.76,2.33,2.33,0,0,1,.75,1.91,2.65,2.65,0,0,1-1.23,2.28,6.24,6.24,0,0,1-3.53.85l-.11-1.22a5.21,5.21,0,0,0,2.35-.48,1.51,1.51,0,0,0,1-1.4,1.29,1.29,0,0,0-.64-1.24,6.34,6.34,0,0,0-2.26-.48l.43-2Z"/><path class="cls-45" d="M775.93,262.61a15,15,0,0,1-.27-1.48,10.69,10.69,0,0,1-.07-1.27,7.43,7.43,0,0,1-2.5,2.2,7,7,0,0,1-3.52.88,5.38,5.38,0,0,1-3.84-1.28,4.53,4.53,0,0,1-1.36-3.47,4.3,4.3,0,0,1,2-3.72,9.57,9.57,0,0,1,5.47-1.38h3.74v-2.23a3.57,3.57,0,0,0-1.17-2.84,4.74,4.74,0,0,0-3.26-1,8.1,8.1,0,0,0-2.57.39,5.7,5.7,0,0,0-1.94,1l-.16,2.26h-1.55l0-3.25a10,10,0,0,1,2.8-1.47,10.76,10.76,0,0,1,3.48-.56,6.81,6.81,0,0,1,4.5,1.42,5,5,0,0,1,1.7,4.08v8.31c0,.35,0,.68,0,1a7.34,7.34,0,0,0,.1.93l1.69.1v1.38Zm-6.16-1.33a6.71,6.71,0,0,0,3.58-.94,5.53,5.53,0,0,0,2.24-2.42v-3.39h-3.77a7,7,0,0,0-4.07,1.06,3.12,3.12,0,0,0-1.52,2.66,2.79,2.79,0,0,0,.94,2.2A3.83,3.83,0,0,0,769.77,261.28Z"/><path class="cls-45" d="M794.18,250.92h-1.53l-.22-2.39a4.75,4.75,0,0,0-1.77-1.14,7,7,0,0,0-2.47-.41,4.61,4.61,0,0,0-3.07.89,2.67,2.67,0,0,0-1,2.07,2.45,2.45,0,0,0,.88,1.94,8.73,8.73,0,0,0,3.53,1.34,11.46,11.46,0,0,1,4.51,1.84,3.78,3.78,0,0,1,1.5,3.16,4.08,4.08,0,0,1-1.71,3.41,7.27,7.27,0,0,1-4.52,1.31,10.58,10.58,0,0,1-3.42-.53,8.08,8.08,0,0,1-2.66-1.47v-3.41h1.52l.26,2.41a4.29,4.29,0,0,0,1.9,1.08,8.29,8.29,0,0,0,2.4.34,5.2,5.2,0,0,0,3.2-.89,2.63,2.63,0,0,0,1.17-2.16,2.75,2.75,0,0,0-1-2.08,8.05,8.05,0,0,0-3.53-1.45,11.92,11.92,0,0,1-4.47-1.74,3.55,3.55,0,0,1-1.46-3,4.05,4.05,0,0,1,1.64-3.27,6.62,6.62,0,0,1,4.32-1.34,9.7,9.7,0,0,1,3.4.57,6.81,6.81,0,0,1,2.51,1.54Z"/><path class="cls-45" d="M813.16,262.94a6.79,6.79,0,0,1-5.28-2.34,8.58,8.58,0,0,1-2.09-5.94v-.86a8.83,8.83,0,0,1,2.08-6,6.47,6.47,0,0,1,5-2.39,6.25,6.25,0,0,1,4.89,2,7.51,7.51,0,0,1,1.79,5.25v1.59H807.65v.46a7.5,7.5,0,0,0,1.52,4.77,4.84,4.84,0,0,0,4,1.93,8.18,8.18,0,0,0,3-.48,5.91,5.91,0,0,0,2.11-1.4l.8,1.29a6.87,6.87,0,0,1-2.41,1.58A9.26,9.26,0,0,1,813.16,262.94Zm-.25-16a4.46,4.46,0,0,0-3.47,1.59,6.71,6.71,0,0,0-1.65,4l0,.08h9.91v-.47a5.43,5.43,0,0,0-1.3-3.69A4.45,4.45,0,0,0,812.91,247Z"/><path class="cls-45" d="M835.19,250.92h-1.53l-.22-2.39a4.67,4.67,0,0,0-1.77-1.14,6.89,6.89,0,0,0-2.46-.41,4.57,4.57,0,0,0-3.07.89,2.67,2.67,0,0,0-1,2.07,2.45,2.45,0,0,0,.88,1.94,8.67,8.67,0,0,0,3.52,1.34,11.52,11.52,0,0,1,4.52,1.84,3.78,3.78,0,0,1,1.5,3.16,4.08,4.08,0,0,1-1.71,3.41,7.28,7.28,0,0,1-4.53,1.31,10.51,10.51,0,0,1-3.41-.53,8,8,0,0,1-2.66-1.47v-3.41h1.51l.27,2.41a4.29,4.29,0,0,0,1.9,1.08,8.22,8.22,0,0,0,2.39.34,5.21,5.21,0,0,0,3.21-.89,2.63,2.63,0,0,0,1.17-2.16,2.76,2.76,0,0,0-1-2.08,8,8,0,0,0-3.52-1.45A12.05,12.05,0,0,1,824.7,253a3.58,3.58,0,0,1-1.46-3,4.08,4.08,0,0,1,1.64-3.27,6.67,6.67,0,0,1,4.33-1.34,9.74,9.74,0,0,1,3.4.57,6.89,6.89,0,0,1,2.51,1.54Z"/><path class="cls-45" d="M843.24,241.38v4.32H847v1.53h-3.72v11a3.61,3.61,0,0,0,.6,2.35,2,2,0,0,0,1.6.7c.31,0,.6,0,.89,0s.61-.07,1-.13l.28,1.39a4.91,4.91,0,0,1-1.14.31,8.75,8.75,0,0,1-1.34.11,3.52,3.52,0,0,1-2.78-1.13,5.29,5.29,0,0,1-1-3.56v-11h-2.91V245.7h2.91v-4.32Z"/><path class="cls-45" d="M862.07,262.61c-.13-.57-.21-1.07-.27-1.48a10.69,10.69,0,0,1-.07-1.27,7.43,7.43,0,0,1-2.5,2.2,7,7,0,0,1-3.52.88,5.38,5.38,0,0,1-3.84-1.28,4.53,4.53,0,0,1-1.36-3.47,4.3,4.3,0,0,1,2-3.72,9.57,9.57,0,0,1,5.47-1.38h3.74v-2.23a3.57,3.57,0,0,0-1.17-2.84,4.73,4.73,0,0,0-3.26-1,8.1,8.1,0,0,0-2.57.39,5.7,5.7,0,0,0-1.94,1l-.16,2.26h-1.54v-3.25a10,10,0,0,1,2.81-1.47,10.65,10.65,0,0,1,3.47-.56,6.81,6.81,0,0,1,4.5,1.42,5,5,0,0,1,1.71,4.08v8.31c0,.35,0,.68,0,1a7.34,7.34,0,0,0,.1.93l1.69.1v1.38Zm.67-23.42a3.2,3.2,0,0,1-.86,2.28,2.85,2.85,0,0,1-2.14.91,4.09,4.09,0,0,1-2.36-.86,3.7,3.7,0,0,0-2-.86,1.61,1.61,0,0,0-1.24.54,2,2,0,0,0-.5,1.39l-1.23-.28a3.18,3.18,0,0,1,.83-2.25,2.78,2.78,0,0,1,2.14-.92,4.33,4.33,0,0,1,2.3.86,4.19,4.19,0,0,0,2.1.86,1.65,1.65,0,0,0,1.24-.56,2,2,0,0,0,.51-1.42Zm-6.83,22.09a6.71,6.71,0,0,0,3.58-.94,5.53,5.53,0,0,0,2.24-2.42v-3.39H858a7,7,0,0,0-4.07,1.06,3.12,3.12,0,0,0-1.52,2.66,2.79,2.79,0,0,0,.94,2.2A3.83,3.83,0,0,0,855.91,261.28Z"/><path class="cls-45" d="M868.05,253.91a9.13,9.13,0,0,1,2.05-6.13,7.36,7.36,0,0,1,10.86,0,9.13,9.13,0,0,1,2,6.13v.51a9.12,9.12,0,0,1-2,6.14,7.4,7.4,0,0,1-10.87,0,9.13,9.13,0,0,1-2.05-6.14Zm1.88.51a8,8,0,0,0,1.48,4.94,5.24,5.24,0,0,0,8.24,0,8,8,0,0,0,1.48-4.94v-.51a8,8,0,0,0-1.49-4.91,5.2,5.2,0,0,0-8.23,0,8,8,0,0,0-1.48,4.91Z"/><path class="cls-45" d="M547.24,285.49V284.1h4.11l.24,2.63a6.07,6.07,0,0,1,2.19-2.17,6.18,6.18,0,0,1,3.13-.77,5.53,5.53,0,0,1,4.77,2.43,11.05,11.05,0,0,1,1.72,6.48V293a9.77,9.77,0,0,1-1.72,6.05,5.63,5.63,0,0,1-4.74,2.26,6.82,6.82,0,0,1-3.11-.68,5.71,5.71,0,0,1-2.18-1.93v7.19l2.54.2v1.39h-7v-1.39l2.55-.2V285.7Zm14.28,7.21a9.72,9.72,0,0,0-1.28-5.25,4.14,4.14,0,0,0-3.75-2,5,5,0,0,0-3.07.89,5.45,5.45,0,0,0-1.77,2.34v8.13A5.06,5.06,0,0,0,553.5,299a5.39,5.39,0,0,0,3,.8,4.24,4.24,0,0,0,3.73-1.84,8.45,8.45,0,0,0,1.27-4.89Z"/><path class="cls-45" d="M578.12,301a15,15,0,0,1-.27-1.48,10.69,10.69,0,0,1-.08-1.27,7.34,7.34,0,0,1-2.5,2.2,7,7,0,0,1-3.51.88,5.42,5.42,0,0,1-3.85-1.28,4.57,4.57,0,0,1-1.36-3.47,4.31,4.31,0,0,1,2-3.72,9.55,9.55,0,0,1,5.47-1.38h3.73v-2.23a3.6,3.6,0,0,0-1.16-2.84,4.74,4.74,0,0,0-3.26-1,8.06,8.06,0,0,0-2.57.38,5.61,5.61,0,0,0-1.94,1l-.16,2.26h-1.55l0-3.25a9.88,9.88,0,0,1,2.8-1.47,10.76,10.76,0,0,1,3.48-.56,6.85,6.85,0,0,1,4.5,1.42,5,5,0,0,1,1.7,4.08v8.31c0,.35,0,.68,0,1a5.88,5.88,0,0,0,.1.93l1.68.11V301ZM572,299.68a6.74,6.74,0,0,0,3.58-.94,5.51,5.51,0,0,0,2.23-2.42v-3.39H574a7,7,0,0,0-4.07,1.06,3.13,3.13,0,0,0-1.53,2.66,2.8,2.8,0,0,0,1,2.2A3.83,3.83,0,0,0,572,299.68Z"/><path class="cls-45" d="M588.15,284.1l.23,2.82v.2a6,6,0,0,1,2-2.45,5,5,0,0,1,2.95-.88,3.85,3.85,0,0,1,.69.06,4.26,4.26,0,0,1,.56.11l-.25,1.75-1.39-.09a4.23,4.23,0,0,0-2.9,1,5.41,5.41,0,0,0-1.62,2.73v10.09l2.55.21V301H584v-1.37l2.54-.21V285.7l-2.54-.21V284.1h4.17Z"/><path class="cls-45" d="M601.76,279.78v4.32h3.72v1.54h-3.72v11a3.59,3.59,0,0,0,.6,2.35,2,2,0,0,0,1.6.7,8.38,8.38,0,0,0,.88,0c.29,0,.62-.07,1-.13l.28,1.39a5.2,5.2,0,0,1-1.14.31,8.78,8.78,0,0,1-1.35.11,3.49,3.49,0,0,1-2.77-1.13,5.29,5.29,0,0,1-1-3.56v-11H597V284.1h2.91v-4.32Z"/><path class="cls-45" d="M608.79,299.64l2.55-.21V285.7l-2.55-.21V284.1h4.4v15.33l2.55.21V301h-7Zm4.4-20.38h-1.85v-2.62h1.85Z"/><path class="cls-45" d="M626.1,299.76a5.32,5.32,0,0,0,3.28-1.06,3.47,3.47,0,0,0,1.42-3h1.66l0,.1a4.64,4.64,0,0,1-1.87,3.92,7,7,0,0,1-4.52,1.58,6.43,6.43,0,0,1-5.33-2.37,9.46,9.46,0,0,1-1.89-6.08v-.66a9.42,9.42,0,0,1,1.89-6.06,6.39,6.39,0,0,1,5.32-2.38,8.54,8.54,0,0,1,3.57.74,6.86,6.86,0,0,1,2.64,2l.08,3.68h-1.59l-.3-3a5.34,5.34,0,0,0-1.87-1.33,6.17,6.17,0,0,0-2.53-.49,4.5,4.5,0,0,0-4,1.94,8.62,8.62,0,0,0-1.3,4.9v.66a8.71,8.71,0,0,0,1.29,4.93A4.55,4.55,0,0,0,626.1,299.76Z"/><path class="cls-45" d="M635.85,299.64l2.55-.21V285.7l-2.55-.21V284.1h4.41v15.33l2.54.21V301h-6.95Zm4.41-20.38H638.4v-2.62h1.86Z"/><path class="cls-45" d="M645.44,285.49V284.1h4.11l.24,2.63a6.07,6.07,0,0,1,2.19-2.17,6.22,6.22,0,0,1,3.14-.77,5.5,5.5,0,0,1,4.76,2.43,11,11,0,0,1,1.72,6.48V293a9.7,9.7,0,0,1-1.72,6.05,5.6,5.6,0,0,1-4.73,2.26,6.83,6.83,0,0,1-3.12-.68,5.71,5.71,0,0,1-2.18-1.93v7.19l2.55.2v1.39h-7v-1.39l2.55-.2V285.7Zm14.29,7.21a9.63,9.63,0,0,0-1.29-5.25,4.14,4.14,0,0,0-3.75-2,5,5,0,0,0-3.07.89,5.61,5.61,0,0,0-1.77,2.34v8.13A5.13,5.13,0,0,0,651.7,299a5.42,5.42,0,0,0,3,.8,4.23,4.23,0,0,0,3.72-1.84,8.45,8.45,0,0,0,1.28-4.89Z"/><path class="cls-45" d="M676.32,301c-.13-.57-.21-1.07-.27-1.48a10.69,10.69,0,0,1-.07-1.27,7.43,7.43,0,0,1-2.5,2.2,7,7,0,0,1-3.52.88,5.38,5.38,0,0,1-3.84-1.28,4.53,4.53,0,0,1-1.36-3.47,4.3,4.3,0,0,1,2-3.72,9.57,9.57,0,0,1,5.47-1.38H676v-2.23a3.57,3.57,0,0,0-1.17-2.84,4.72,4.72,0,0,0-3.26-1,8.1,8.1,0,0,0-2.57.38,5.7,5.7,0,0,0-1.94,1l-.16,2.26h-1.54v-3.25a10,10,0,0,1,2.81-1.47,10.65,10.65,0,0,1,3.47-.56,6.81,6.81,0,0,1,4.5,1.42,5,5,0,0,1,1.71,4.08v8.31c0,.35,0,.68,0,1a7.34,7.34,0,0,0,.1.93l1.69.11V301Zm-6.16-1.33a6.71,6.71,0,0,0,3.58-.94,5.53,5.53,0,0,0,2.24-2.42v-3.39h-3.77a7,7,0,0,0-4.07,1.06,3.12,3.12,0,0,0-1.52,2.66,2.79,2.79,0,0,0,.94,2.2A3.83,3.83,0,0,0,670.16,299.68Z"/><path class="cls-45" d="M682,299.64l2.55-.21V285.7l-2.55-.21V284.1h4.2l.18,3a6.06,6.06,0,0,1,2.19-2.42,6.17,6.17,0,0,1,3.27-.85,5.21,5.21,0,0,1,4.19,1.68q1.44,1.68,1.44,5.24v8.72l2.55.21V301h-7v-1.37l2.54-.21v-8.7q0-2.91-1.08-4.11a4,4,0,0,0-3.09-1.2,4.8,4.8,0,0,0-3.21,1,5.8,5.8,0,0,0-1.79,2.75v10.22l2.55.21V301h-7Z"/><path class="cls-45" d="M714.51,298.57a5.91,5.91,0,0,1-2.17,2.05,6.49,6.49,0,0,1-3.13.72,5.61,5.61,0,0,1-4.74-2.27,9.77,9.77,0,0,1-1.71-6v-.33a11.05,11.05,0,0,1,1.71-6.48,5.5,5.5,0,0,1,4.77-2.43,5.8,5.8,0,0,1,5.22,2.86v-8.42l-2.55-.2v-1.39h4.43v22.79l2.54.21V301h-4.22ZM704.65,293a8.63,8.63,0,0,0,1.22,4.87,4.16,4.16,0,0,0,3.7,1.81,5.3,5.3,0,0,0,3-.81,5.49,5.49,0,0,0,1.88-2.23v-8a6,6,0,0,0-1.8-2.35,4.92,4.92,0,0,0-3.06-.9,4.07,4.07,0,0,0-3.71,2,9.92,9.92,0,0,0-1.24,5.26Z"/><path class="cls-45" d="M721.76,292.31a9.13,9.13,0,0,1,2-6.13,7.36,7.36,0,0,1,10.86,0,9.08,9.08,0,0,1,2.05,6.13v.51a9.12,9.12,0,0,1-2,6.14,6.79,6.79,0,0,1-5.41,2.38A6.88,6.88,0,0,1,723.8,299a9.12,9.12,0,0,1-2-6.14Zm1.87.51a8.05,8.05,0,0,0,1.49,4.94,4.87,4.87,0,0,0,4.14,2,4.82,4.82,0,0,0,4.09-2,8.05,8.05,0,0,0,1.49-4.94v-.51a8,8,0,0,0-1.5-4.91,5.21,5.21,0,0,0-8.22,0,8,8,0,0,0-1.49,4.91Z"/><path class="cls-45" d="M759.29,298.57a5.83,5.83,0,0,1-2.17,2.05,6.49,6.49,0,0,1-3.13.72,5.61,5.61,0,0,1-4.74-2.27,9.77,9.77,0,0,1-1.71-6v-.33a11.05,11.05,0,0,1,1.71-6.48,5.5,5.5,0,0,1,4.77-2.43,5.77,5.77,0,0,1,5.22,2.86v-8.42l-2.55-.2v-1.39h4.43v22.79l2.54.21V301h-4.22ZM749.43,293a8.55,8.55,0,0,0,1.23,4.87,4.13,4.13,0,0,0,3.69,1.81,5.3,5.3,0,0,0,3-.81,5.42,5.42,0,0,0,1.88-2.23v-8a6,6,0,0,0-1.8-2.35,4.92,4.92,0,0,0-3.06-.9,4.08,4.08,0,0,0-3.71,2,9.92,9.92,0,0,0-1.24,5.26Z"/><path class="cls-45" d="M774,301.34a6.79,6.79,0,0,1-5.28-2.34,8.53,8.53,0,0,1-2.09-5.94v-.86a8.83,8.83,0,0,1,2.08-6,6.47,6.47,0,0,1,5-2.39,6.28,6.28,0,0,1,4.89,2,7.51,7.51,0,0,1,1.78,5.25v1.59H768.48v.46a7.45,7.45,0,0,0,1.52,4.77,4.82,4.82,0,0,0,4,1.93,8.18,8.18,0,0,0,3-.48,6,6,0,0,0,2.11-1.39l.8,1.28a6.87,6.87,0,0,1-2.41,1.58A9.26,9.26,0,0,1,774,301.34Zm-.25-15.95a4.49,4.49,0,0,0-3.48,1.58,6.77,6.77,0,0,0-1.64,4l0,.08h9.9v-.47a5.43,5.43,0,0,0-1.29-3.69A4.44,4.44,0,0,0,773.74,285.39Z"/><path class="cls-45" d="M804,298.23a5.82,5.82,0,0,1-2.18,2.3,6.33,6.33,0,0,1-3.26.81,5.17,5.17,0,0,1-4.18-1.81q-1.5-1.81-1.5-5.63v-8.2l-2.1-.21V284.1h4v9.83a7.31,7.31,0,0,0,1.06,4.44,3.56,3.56,0,0,0,3,1.34,5.53,5.53,0,0,0,3.38-.93,5,5,0,0,0,1.78-2.6V285.7l-2.41-.21V284.1h4.28v15.33l2.27.21V301h-3.91Z"/><path class="cls-45" d="M810.38,285.49V284.1h4.21l.17,2.8a5.94,5.94,0,0,1,2.17-2.3,6.2,6.2,0,0,1,3.23-.81,5.38,5.38,0,0,1,3.24.95,5.27,5.27,0,0,1,1.86,2.88,6.56,6.56,0,0,1,2.18-2.81,5.72,5.72,0,0,1,3.44-1,5.1,5.1,0,0,1,4.18,1.8q1.49,1.8,1.48,5.56v8.27l2.55.22V301h-7v-1.37l2.55-.22v-8.3c0-2.08-.37-3.56-1.1-4.41a3.83,3.83,0,0,0-3.07-1.29,4.16,4.16,0,0,0-3.37,1.39,6.65,6.65,0,0,0-1.46,3.54,1.77,1.77,0,0,0,0,.24v8.84l2.55.21V301h-7v-1.37l2.55-.21v-8.31c0-2-.37-3.5-1.12-4.38a3.8,3.8,0,0,0-3.07-1.32,4.66,4.66,0,0,0-3.16,1,5.44,5.44,0,0,0-1.64,2.72v10.29l2.55.21V301h-7v-1.37l2.55-.21V285.7Z"/><path class="cls-45" d="M853.07,301c-.13-.57-.21-1.07-.27-1.48a10.69,10.69,0,0,1-.07-1.27,7.43,7.43,0,0,1-2.5,2.2,7,7,0,0,1-3.52.88,5.38,5.38,0,0,1-3.84-1.28,4.53,4.53,0,0,1-1.36-3.47,4.3,4.3,0,0,1,2-3.72,9.57,9.57,0,0,1,5.47-1.38h3.74v-2.23a3.57,3.57,0,0,0-1.17-2.84,4.72,4.72,0,0,0-3.26-1,8.1,8.1,0,0,0-2.57.38,5.7,5.7,0,0,0-1.94,1l-.16,2.26h-1.54v-3.25a10,10,0,0,1,2.81-1.47,10.65,10.65,0,0,1,3.47-.56,6.81,6.81,0,0,1,4.5,1.42,5,5,0,0,1,1.71,4.08v8.31c0,.35,0,.68,0,1a7.34,7.34,0,0,0,.1.93l1.69.11V301Zm-6.16-1.33a6.71,6.71,0,0,0,3.58-.94,5.53,5.53,0,0,0,2.24-2.42v-3.39H849a7,7,0,0,0-4.07,1.06,3.12,3.12,0,0,0-1.52,2.66,2.79,2.79,0,0,0,.94,2.2A3.83,3.83,0,0,0,846.91,299.68Z"/><path class="cls-45" d="M866.9,292.4a9.28,9.28,0,0,1,2-6.18,6.8,6.8,0,0,1,5.51-2.43,6.87,6.87,0,0,1,5.54,2.42,9.29,9.29,0,0,1,2,6.19v.34a9.27,9.27,0,0,1-2,6.19,7.54,7.54,0,0,1-11.06,0,9.22,9.22,0,0,1-2-6.18Zm3.08.34a8,8,0,0,0,1.13,4.44,4.07,4.07,0,0,0,6.69,0,8,8,0,0,0,1.14-4.44v-.34A8,8,0,0,0,877.8,288a3.74,3.74,0,0,0-3.36-1.77A3.7,3.7,0,0,0,871.1,288,8.08,8.08,0,0,0,870,292.4Z"/><path class="cls-45" d="M884.1,278.62v-2h5.63v22l2.54.44v2H884.1v-2l2.55-.44V279.06Z"/><path class="cls-45" d="M894.62,286.09v-2h5.62v14.5l2.55.44v2h-8.17v-2l2.54-.44V286.53Zm4.89-8.47h3.59l0,.09-4.2,4.07h-2.3Z"/><path class="cls-45" d="M904.49,299l2.55-.44V286.53l-2.55-.44v-2h5.31l.21,2.21a5.58,5.58,0,0,1,2.09-1.86,6.37,6.37,0,0,1,3-.66,5.26,5.26,0,0,1,2.9.78,4.81,4.81,0,0,1,1.82,2.35,6.18,6.18,0,0,1,2.11-2.28,5.45,5.45,0,0,1,3.06-.85,5.07,5.07,0,0,1,4.09,1.77,8.14,8.14,0,0,1,1.5,5.34v7.7l2.55.44v2h-8.19v-2l2.55-.44v-7.73a5.63,5.63,0,0,0-.86-3.54,3.12,3.12,0,0,0-2.55-1,3.25,3.25,0,0,0-2.58,1.13,4.93,4.93,0,0,0-1.13,2.86v8.32l2.54.44v2h-8.17v-2l2.55-.44v-7.73a5.56,5.56,0,0,0-.89-3.48,3.08,3.08,0,0,0-2.55-1.1,4.17,4.17,0,0,0-2.31.58,3.73,3.73,0,0,0-1.39,1.62V298.6l2.54.44v2h-8.17Z"/><path class="cls-45" d="M935,305.53l2.55-.44V286.53l-2.55-.44v-2h5.19l.28,2.07a5.77,5.77,0,0,1,2.05-1.77,6.15,6.15,0,0,1,2.81-.61,5.62,5.62,0,0,1,4.88,2.49,11.32,11.32,0,0,1,1.74,6.59v.33a9.31,9.31,0,0,1-1.75,5.9,5.78,5.78,0,0,1-4.82,2.24,6.71,6.71,0,0,1-2.75-.53,5.19,5.19,0,0,1-2-1.55v5.83l2.54.44v2H935Zm13.86-12.66a8.93,8.93,0,0,0-1.13-4.73,3.67,3.67,0,0,0-3.34-1.85,4.11,4.11,0,0,0-2.25.6,4.37,4.37,0,0,0-1.51,1.62v8.23a4.2,4.2,0,0,0,1.5,1.62,4.32,4.32,0,0,0,2.29.57,3.79,3.79,0,0,0,3.31-1.59,7,7,0,0,0,1.13-4.14Z"/><path class="cls-45" d="M954.71,299l2.55-.44V286.53l-2.55-.44v-2h5.63v14.5l2.54.44v2h-8.17Zm5.63-19.26h-3.08v-3.14h3.08Z"/><path class="cls-45" d="M976.26,301c-.1-.46-.17-.87-.22-1.23s-.09-.73-.11-1.1a7.36,7.36,0,0,1-2.23,1.9,6.36,6.36,0,0,1-6.86-.53,4.73,4.73,0,0,1-1.38-3.63,4.2,4.2,0,0,1,1.95-3.71,9.44,9.44,0,0,1,5.33-1.31h3.17v-2a3.06,3.06,0,0,0-.93-2.35,3.71,3.71,0,0,0-2.61-.87,6.31,6.31,0,0,0-2,.3,3.86,3.86,0,0,0-1.43.81l-.33,1.78h-2.38v-3.28a9.28,9.28,0,0,1,2.8-1.47,11.07,11.07,0,0,1,3.56-.56,7.09,7.09,0,0,1,4.66,1.47,5.13,5.13,0,0,1,1.78,4.2v8.14c0,.22,0,.44,0,.64s0,.42,0,.63l1.25.17v2Zm-5-2.25a5.47,5.47,0,0,0,2.8-.73,4.54,4.54,0,0,0,1.81-1.77v-2.78h-3.28a4.69,4.69,0,0,0-3,.87,2.66,2.66,0,0,0-1.1,2.13,2.09,2.09,0,0,0,.69,1.69A3.12,3.12,0,0,0,971.3,298.76Z"/><path class="cls-45" d="M994.24,299a5.35,5.35,0,0,1-2,1.75,6.12,6.12,0,0,1-2.78.6,5.78,5.78,0,0,1-4.83-2.24,9.37,9.37,0,0,1-1.74-5.9v-.33a11.3,11.3,0,0,1,1.74-6.58,5.61,5.61,0,0,1,4.87-2.5,6,6,0,0,1,2.64.56,5.51,5.51,0,0,1,2,1.6v-6.89l-2.55-.44v-2h5.62v22l2.55.44v2h-5.22Zm-8.3-5.79a7.15,7.15,0,0,0,1,4.09,3.65,3.65,0,0,0,3.24,1.55,4.07,4.07,0,0,0,2.31-.63,4.78,4.78,0,0,0,1.55-1.76V288.6a4.83,4.83,0,0,0-1.55-1.68,4.06,4.06,0,0,0-2.28-.63,3.5,3.5,0,0,0-3.26,1.83,9.47,9.47,0,0,0-1.06,4.75Z"/><path class="cls-45" d="M1013.09,301c-.1-.46-.17-.87-.22-1.23a10.24,10.24,0,0,1-.11-1.1,7.48,7.48,0,0,1-2.23,1.9,6.37,6.37,0,0,1-6.87-.53,4.76,4.76,0,0,1-1.37-3.63,4.21,4.21,0,0,1,1.94-3.71,9.5,9.5,0,0,1,5.34-1.31h3.17v-2a3,3,0,0,0-.94-2.35,3.67,3.67,0,0,0-2.61-.87,6.24,6.24,0,0,0-2,.3,3.86,3.86,0,0,0-1.43.81l-.33,1.78H1003v-3.28a9.28,9.28,0,0,1,2.8-1.47,11,11,0,0,1,3.56-.56,7.09,7.09,0,0,1,4.66,1.47,5.13,5.13,0,0,1,1.78,4.2v8.14c0,.22,0,.44,0,.64a4.44,4.44,0,0,0,0,.63l1.25.17v2Zm-5-2.25a5.47,5.47,0,0,0,2.8-.73,4.54,4.54,0,0,0,1.81-1.77v-2.78h-3.28a4.69,4.69,0,0,0-3,.87,2.64,2.64,0,0,0-1.1,2.13,2.08,2.08,0,0,0,.68,1.69A3.15,3.15,0,0,0,1008.13,298.76Z"/><path class="cls-45" d="M555.34,339.74a7.15,7.15,0,0,1-5.62-2.35,8.88,8.88,0,0,1-2.09-6.11v-.68a8.68,8.68,0,0,1,2.15-6,6.62,6.62,0,0,1,5.09-2.4,6.41,6.41,0,0,1,5.16,2.06,8.22,8.22,0,0,1,1.76,5.5v1.93h-11l-.05.07a6.62,6.62,0,0,0,1.24,4,3.92,3.92,0,0,0,3.33,1.57,7.91,7.91,0,0,0,2.74-.44,6.54,6.54,0,0,0,2-1.23l1.2,2a7.44,7.44,0,0,1-2.4,1.48A9.58,9.58,0,0,1,555.34,339.74Zm-.47-15.13a3.33,3.33,0,0,0-2.64,1.31,6.2,6.2,0,0,0-1.35,3.27l0,.08h7.8v-.41a4.68,4.68,0,0,0-1-3A3.46,3.46,0,0,0,554.87,324.61Z"/><path class="cls-45" d="M577.76,327.82h-2.32l-.5-2a4.24,4.24,0,0,0-1.41-.85,5.54,5.54,0,0,0-1.93-.32,3.56,3.56,0,0,0-2.44.72,2.26,2.26,0,0,0-.79,1.74,1.91,1.91,0,0,0,.7,1.57,7.31,7.31,0,0,0,2.86,1,12.29,12.29,0,0,1,4.76,1.86,3.75,3.75,0,0,1,1.57,3.17,4.38,4.38,0,0,1-1.82,3.64,7.69,7.69,0,0,1-4.76,1.39,12.22,12.22,0,0,1-3.45-.45,8.76,8.76,0,0,1-2.74-1.29v-3.86h2.31l.58,2.27a3.14,3.14,0,0,0,1.44.7,7.78,7.78,0,0,0,1.87.22,4.38,4.38,0,0,0,2.57-.66,2.05,2.05,0,0,0,.93-1.74,2.13,2.13,0,0,0-.77-1.68,7.58,7.58,0,0,0-2.93-1.14,12,12,0,0,1-4.64-1.83,3.67,3.67,0,0,1-1.57-3.12,4.43,4.43,0,0,1,1.76-3.52,7,7,0,0,1,4.57-1.45,11.18,11.18,0,0,1,3.45.5,7.25,7.25,0,0,1,2.55,1.39Z"/><path class="cls-45" d="M588.73,337.33a4.14,4.14,0,0,0,2.69-.94,2.89,2.89,0,0,0,1.17-2.32h2.76l0,.09a4.73,4.73,0,0,1-1.94,3.88,7.12,7.12,0,0,1-4.71,1.7,6.82,6.82,0,0,1-5.64-2.41,9.34,9.34,0,0,1-1.94-6.05v-.65a9.29,9.29,0,0,1,2-6,6.84,6.84,0,0,1,5.63-2.41,9.52,9.52,0,0,1,3.64.67,7.42,7.42,0,0,1,2.68,1.85l.14,3.75h-2.45l-.67-2.66a4.16,4.16,0,0,0-1.41-.86,5.35,5.35,0,0,0-1.93-.33,3.73,3.73,0,0,0-3.47,1.74,8.27,8.27,0,0,0-1,4.28v.65a8.27,8.27,0,0,0,1,4.32A3.69,3.69,0,0,0,588.73,337.33Z"/><path class="cls-45" d="M598.4,330.8a9.28,9.28,0,0,1,2-6.18,6.8,6.8,0,0,1,5.51-2.43,6.87,6.87,0,0,1,5.54,2.42,9.29,9.29,0,0,1,2,6.19v.34a9.27,9.27,0,0,1-2,6.19,7.54,7.54,0,0,1-11.06,0,9.24,9.24,0,0,1-2-6.18Zm3.08.34a8,8,0,0,0,1.13,4.44,4.07,4.07,0,0,0,6.69,0,8,8,0,0,0,1.14-4.44v-.34a8,8,0,0,0-1.14-4.42,3.74,3.74,0,0,0-3.36-1.77,3.7,3.7,0,0,0-3.34,1.77,8.08,8.08,0,0,0-1.12,4.42Z"/><path class="cls-45" d="M615.6,317v-2h5.63v22l2.54.44v2H615.6v-2l2.55-.44V317.46Z"/><path class="cls-45" d="M637.13,339.41c-.09-.46-.17-.87-.22-1.23s-.09-.73-.11-1.1a7.32,7.32,0,0,1-2.22,1.9,5.74,5.74,0,0,1-2.85.76,5.66,5.66,0,0,1-4-1.29,4.72,4.72,0,0,1-1.37-3.63,4.22,4.22,0,0,1,1.94-3.72,9.58,9.58,0,0,1,5.34-1.3h3.17v-2a3,3,0,0,0-.94-2.35,3.67,3.67,0,0,0-2.61-.87,6.35,6.35,0,0,0-2,.3,3.94,3.94,0,0,0-1.43.81l-.33,1.78h-2.37v-3.28a9.16,9.16,0,0,1,2.8-1.47,11,11,0,0,1,3.56-.56,7.11,7.11,0,0,1,4.66,1.47,5.16,5.16,0,0,1,1.78,4.2v8.78c0,.21,0,.42,0,.63l1.25.17v2Zm-5-2.25a5.49,5.49,0,0,0,2.8-.73,4.6,4.6,0,0,0,1.81-1.77v-2.78h-3.28a4.74,4.74,0,0,0-3,.87,2.66,2.66,0,0,0-1.1,2.13,2.09,2.09,0,0,0,.69,1.69A3.15,3.15,0,0,0,632.18,337.16Z"/><path class="cls-45" d="M643.73,324.49v-2H649l.3,2.46a5.89,5.89,0,0,1,1.77-2,4.15,4.15,0,0,1,2.42-.74,4.81,4.81,0,0,1,.74.06,3.94,3.94,0,0,1,.59.11l-.41,2.86-1.75-.09a3.54,3.54,0,0,0-2,.57,3.67,3.67,0,0,0-1.28,1.6V337l2.55.44v2h-8.17v-2l2.54-.44V324.93Z"/><path class="cls-45" d="M659.8,338.66a7.07,7.07,0,0,1-.58,2.81,6.91,6.91,0,0,1-1.6,2.33l-1.11-.81a8,8,0,0,0,1.08-2.05,6.72,6.72,0,0,0,.35-2.25v-2.22h1.86Z"/><path class="cls-45" d="M671,331.1a11.05,11.05,0,0,1,1.71-6.48,5.51,5.51,0,0,1,4.78-2.43,5.8,5.8,0,0,1,5.18,2.81l.19-2.5h1.64v21.82l2.55.2v1.39h-7v-1.39l2.55-.2v-7.13a5.93,5.93,0,0,1-2.16,1.89,6.59,6.59,0,0,1-3,.66,5.61,5.61,0,0,1-4.74-2.27,9.77,9.77,0,0,1-1.71-6Zm1.89.33a8.64,8.64,0,0,0,1.23,4.89,4.14,4.14,0,0,0,3.69,1.84,5.22,5.22,0,0,0,3-.79,5.33,5.33,0,0,0,1.87-2.16V327a6.12,6.12,0,0,0-1.82-2.28,4.72,4.72,0,0,0-3-.9,4.08,4.08,0,0,0-3.72,2,10.11,10.11,0,0,0-1.24,5.28Z"/><path class="cls-45" d="M701.29,336.63a5.82,5.82,0,0,1-2.18,2.3,6.33,6.33,0,0,1-3.26.81,5.17,5.17,0,0,1-4.18-1.81c-1-1.21-1.51-3.09-1.51-5.63v-8.2l-2.09-.21V322.5H692v9.83a7.24,7.24,0,0,0,1.06,4.44,3.56,3.56,0,0,0,3,1.34,5.55,5.55,0,0,0,3.38-.93,5,5,0,0,0,1.78-2.6V324.1l-2.41-.21V322.5h4.28v15.33l2.27.2v1.38h-3.91Z"/><path class="cls-45" d="M715.57,339.74a6.76,6.76,0,0,1-5.28-2.34,8.54,8.54,0,0,1-2.1-5.94v-.86a8.84,8.84,0,0,1,2.09-6,6.47,6.47,0,0,1,5-2.39,6.28,6.28,0,0,1,4.89,2,7.51,7.51,0,0,1,1.78,5.25V331H710.05v.46a7.45,7.45,0,0,0,1.53,4.77,4.82,4.82,0,0,0,4,1.93,8.22,8.22,0,0,0,3-.48,6,6,0,0,0,2.11-1.4l.79,1.29a6.74,6.74,0,0,1-2.4,1.58A9.3,9.3,0,0,1,715.57,339.74Zm-.25-16a4.48,4.48,0,0,0-3.48,1.59,6.84,6.84,0,0,0-1.65,4l0,.08h9.9V329a5.43,5.43,0,0,0-1.29-3.69A4.45,4.45,0,0,0,715.32,323.78Z"/><path class="cls-45" d="M740.57,339.74a6.76,6.76,0,0,1-5.28-2.34,8.54,8.54,0,0,1-2.1-5.94v-.86a8.84,8.84,0,0,1,2.09-6,6.47,6.47,0,0,1,5-2.39,6.28,6.28,0,0,1,4.89,2,7.51,7.51,0,0,1,1.78,5.25V331H735.05v.46a7.45,7.45,0,0,0,1.53,4.77,4.82,4.82,0,0,0,4,1.93,8.22,8.22,0,0,0,3-.48,6,6,0,0,0,2.11-1.4l.79,1.29a6.74,6.74,0,0,1-2.4,1.58A9.3,9.3,0,0,1,740.57,339.74Zm-.25-16a4.48,4.48,0,0,0-3.48,1.59,6.84,6.84,0,0,0-1.65,4l0,.08h9.9V329a5.43,5.43,0,0,0-1.29-3.69A4.45,4.45,0,0,0,740.32,323.78Z"/><path class="cls-45" d="M750,338l2.55-.2V324.1l-2.55-.21V322.5h4.2l.18,3a6.06,6.06,0,0,1,2.19-2.42,6.18,6.18,0,0,1,3.28-.85,5.2,5.2,0,0,1,4.18,1.68q1.44,1.68,1.44,5.24v8.72l2.55.2v1.38h-7V338l2.55-.2v-8.7A6.13,6.13,0,0,0,762.5,325a4,4,0,0,0-3.09-1.2,4.85,4.85,0,0,0-3.21,1,5.88,5.88,0,0,0-1.79,2.76v10.22l2.55.2v1.38h-7Z"/><path class="cls-45" d="M775.85,323.89l-2.11.16L778,335.18l.55,2h.09l.59-2,4.16-11.13-2.11-.16V322.5h5.69v1.39l-1.66.14-6,15.38h-1.5l-6-15.38-1.66-.14V322.5h5.69Z"/><path class="cls-45" d="M788.76,330.71a9.13,9.13,0,0,1,2-6.13,7.36,7.36,0,0,1,10.86,0,9.08,9.08,0,0,1,2.05,6.13v.51a9.08,9.08,0,0,1-2,6.13,6.77,6.77,0,0,1-5.41,2.39,6.85,6.85,0,0,1-5.46-2.39,9.08,9.08,0,0,1-2-6.13Zm1.87.51a8.05,8.05,0,0,0,1.49,4.94,4.87,4.87,0,0,0,4.14,2,4.82,4.82,0,0,0,4.09-2,8.05,8.05,0,0,0,1.49-4.94v-.51a8,8,0,0,0-1.5-4.91,5.19,5.19,0,0,0-8.22,0,8,8,0,0,0-1.49,4.91Z"/><path class="cls-45" d="M806.07,316.43V315h4.41v22.8l2.54.2v1.38h-6.95V338l2.55-.2v-21.2Z"/><path class="cls-45" d="M820.88,323.89l-2.11.16L823,335.18l.55,2h.09l.6-2,4.15-11.13-2.11-.16V322.5H832v1.39l-1.66.14-6,15.38h-1.5l-6-15.38-1.66-.14V322.5h5.69Z"/><path class="cls-45" d="M841.27,339.74A6.79,6.79,0,0,1,836,337.4a8.53,8.53,0,0,1-2.09-5.94v-.86a8.83,8.83,0,0,1,2.08-6,6.47,6.47,0,0,1,5-2.39,6.26,6.26,0,0,1,4.89,2,7.51,7.51,0,0,1,1.78,5.25V331H835.76v.46a7.45,7.45,0,0,0,1.52,4.77,4.84,4.84,0,0,0,4,1.93,8.18,8.18,0,0,0,3-.48,5.91,5.91,0,0,0,2.11-1.4l.8,1.29a6.87,6.87,0,0,1-2.41,1.58A9.26,9.26,0,0,1,841.27,339.74Zm-.25-16a4.46,4.46,0,0,0-3.47,1.59,6.71,6.71,0,0,0-1.65,4l0,.08h9.91V329a5.43,5.43,0,0,0-1.3-3.69A4.45,4.45,0,0,0,841,323.78Z"/><path class="cls-45" d="M866.27,339.74A6.79,6.79,0,0,1,861,337.4a8.53,8.53,0,0,1-2.09-5.94v-.86a8.83,8.83,0,0,1,2.08-6,6.47,6.47,0,0,1,5-2.39,6.26,6.26,0,0,1,4.89,2,7.51,7.51,0,0,1,1.78,5.25V331H860.76v.46a7.45,7.45,0,0,0,1.52,4.77,4.84,4.84,0,0,0,4,1.93,8.18,8.18,0,0,0,3-.48,5.91,5.91,0,0,0,2.11-1.4l.8,1.29a6.87,6.87,0,0,1-2.41,1.58A9.26,9.26,0,0,1,866.27,339.74Zm-.25-16a4.46,4.46,0,0,0-3.47,1.59,6.71,6.71,0,0,0-1.65,4l0,.08h9.91V329a5.43,5.43,0,0,0-1.3-3.69A4.45,4.45,0,0,0,866,323.78Z"/><path class="cls-45" d="M888.3,327.72h-1.53l-.22-2.39a4.67,4.67,0,0,0-1.77-1.14,6.89,6.89,0,0,0-2.46-.41,4.57,4.57,0,0,0-3.07.89,2.67,2.67,0,0,0-1,2.07,2.45,2.45,0,0,0,.88,1.94,8.67,8.67,0,0,0,3.52,1.34,11.68,11.68,0,0,1,4.52,1.83,3.81,3.81,0,0,1,1.5,3.17,4.08,4.08,0,0,1-1.71,3.41,7.28,7.28,0,0,1-4.53,1.31,10.47,10.47,0,0,1-3.41-.53,8,8,0,0,1-2.66-1.47v-3.41h1.51l.27,2.41a4.31,4.31,0,0,0,1.89,1.08,8.34,8.34,0,0,0,2.4.34,5.21,5.21,0,0,0,3.21-.89,2.63,2.63,0,0,0,1.17-2.16,2.76,2.76,0,0,0-1-2.08,8,8,0,0,0-3.52-1.45,12.05,12.05,0,0,1-4.48-1.74,3.58,3.58,0,0,1-1.46-3,4.08,4.08,0,0,1,1.64-3.27,6.67,6.67,0,0,1,4.33-1.34,9.74,9.74,0,0,1,3.4.57,6.89,6.89,0,0,1,2.51,1.54Z"/><path class="cls-45" d="M899.27,338.16a5.3,5.3,0,0,0,3.28-1.06,3.49,3.49,0,0,0,1.43-3h1.65l0,.1a4.66,4.66,0,0,1-1.86,3.92,7,7,0,0,1-4.53,1.58,6.43,6.43,0,0,1-5.33-2.37,9.47,9.47,0,0,1-1.89-6.09v-.65a9.42,9.42,0,0,1,1.89-6.06,6.4,6.4,0,0,1,5.32-2.38,8.62,8.62,0,0,1,3.58.74,7,7,0,0,1,2.64,2l.07,3.68H904l-.3-3a5.27,5.27,0,0,0-1.86-1.33,6.26,6.26,0,0,0-2.54-.5,4.51,4.51,0,0,0-4,2,8.62,8.62,0,0,0-1.3,4.9v.65a8.66,8.66,0,0,0,1.3,4.94A4.52,4.52,0,0,0,899.27,338.16Z"/><path class="cls-45" d="M909.15,330.71a9.13,9.13,0,0,1,2-6.13,7.36,7.36,0,0,1,10.86,0,9.08,9.08,0,0,1,2.05,6.13v.51a9.08,9.08,0,0,1-2,6.13,6.77,6.77,0,0,1-5.41,2.39,6.85,6.85,0,0,1-5.46-2.39,9.08,9.08,0,0,1-2-6.13Zm1.87.51a8.05,8.05,0,0,0,1.49,4.94,4.87,4.87,0,0,0,4.14,2,4.82,4.82,0,0,0,4.09-2,8.05,8.05,0,0,0,1.49-4.94v-.51a8,8,0,0,0-1.5-4.91,5.19,5.19,0,0,0-8.22,0,8,8,0,0,0-1.49,4.91Z"/><path class="cls-45" d="M926.46,316.43V315h4.41v22.8l2.54.2v1.38h-6.95V338l2.55-.2v-21.2Z"/><path class="cls-45" d="M948,339.41a15,15,0,0,1-.27-1.48,10.69,10.69,0,0,1-.08-1.27,7.25,7.25,0,0,1-2.5,2.2,7,7,0,0,1-3.51.88,5.38,5.38,0,0,1-3.84-1.28,4.53,4.53,0,0,1-1.36-3.47,4.3,4.3,0,0,1,2-3.72,9.57,9.57,0,0,1,5.47-1.38h3.73v-2.23a3.57,3.57,0,0,0-1.16-2.84,4.74,4.74,0,0,0-3.26-1,8.1,8.1,0,0,0-2.57.39,5.7,5.7,0,0,0-1.94,1l-.16,2.26h-1.55l0-3.25a10,10,0,0,1,2.8-1.47,10.76,10.76,0,0,1,3.48-.56,6.85,6.85,0,0,1,4.5,1.42,5,5,0,0,1,1.7,4.08V336c0,.35,0,.68,0,1a7.34,7.34,0,0,0,.1.93l1.69.1v1.38Zm-6.16-1.33a6.71,6.71,0,0,0,3.58-.94,5.45,5.45,0,0,0,2.23-2.42v-3.39h-3.76a7,7,0,0,0-4.07,1.06,3.12,3.12,0,0,0-1.52,2.66,2.79,2.79,0,0,0,.94,2.2A3.83,3.83,0,0,0,941.88,338.08Z"/><path class="cls-45" d="M966.29,327.72h-1.53l-.22-2.39a4.71,4.71,0,0,0-1.78-1.14,6.89,6.89,0,0,0-2.46-.41,4.61,4.61,0,0,0-3.07.89,2.67,2.67,0,0,0-1,2.07,2.45,2.45,0,0,0,.88,1.94,8.73,8.73,0,0,0,3.53,1.34,11.62,11.62,0,0,1,4.51,1.83,3.81,3.81,0,0,1,1.5,3.17,4.08,4.08,0,0,1-1.71,3.41,7.27,7.27,0,0,1-4.52,1.31,10.58,10.58,0,0,1-3.42-.53,8.08,8.08,0,0,1-2.66-1.47v-3.41h1.52l.26,2.41a4.29,4.29,0,0,0,1.9,1.08,8.24,8.24,0,0,0,2.4.34,5.2,5.2,0,0,0,3.2-.89,2.63,2.63,0,0,0,1.17-2.16,2.75,2.75,0,0,0-1-2.08,8.11,8.11,0,0,0-3.53-1.45,11.92,11.92,0,0,1-4.47-1.74,3.55,3.55,0,0,1-1.46-3,4.05,4.05,0,0,1,1.64-3.27,6.62,6.62,0,0,1,4.32-1.34,9.7,9.7,0,0,1,3.4.57,6.81,6.81,0,0,1,2.51,1.54Z"/><path class="cls-45" d="M989.49,339.41c-.12-.57-.21-1.07-.26-1.48a8.93,8.93,0,0,1-.08-1.27,7.43,7.43,0,0,1-2.5,2.2,7,7,0,0,1-3.52.88,5.4,5.4,0,0,1-3.84-1.28,4.53,4.53,0,0,1-1.36-3.47,4.3,4.3,0,0,1,2-3.72,9.57,9.57,0,0,1,5.47-1.38h3.74v-2.23a3.57,3.57,0,0,0-1.17-2.84,4.72,4.72,0,0,0-3.25-1,8,8,0,0,0-2.57.39,5.66,5.66,0,0,0-1.95,1l-.16,2.26h-1.54v-3.25a10,10,0,0,1,2.81-1.47,10.7,10.7,0,0,1,3.47-.56,6.81,6.81,0,0,1,4.5,1.42,5,5,0,0,1,1.71,4.08V336c0,.35,0,.68,0,1s.05.62.1.93l1.69.1v1.38Zm-6.15-1.33a6.7,6.7,0,0,0,3.57-.94,5.53,5.53,0,0,0,2.24-2.42v-3.39h-3.77a7,7,0,0,0-4.07,1.06,3.14,3.14,0,0,0-1.52,2.66,2.79,2.79,0,0,0,.94,2.2A3.84,3.84,0,0,0,983.34,338.08Z"/><path class="cls-45" d="M995.48,331.1a11.05,11.05,0,0,1,1.71-6.48,5.5,5.5,0,0,1,4.77-2.43,6,6,0,0,1,3,.73,6.1,6.1,0,0,1,2.15,2.08l.19-2.5H1009v21.82l2.54.2v1.39h-7v-1.39l2.55-.2v-7.13a5.77,5.77,0,0,1-2.16,1.89,6.54,6.54,0,0,1-3,.66,5.61,5.61,0,0,1-4.74-2.27,9.77,9.77,0,0,1-1.71-6Zm1.89.33a8.64,8.64,0,0,0,1.22,4.89,4.14,4.14,0,0,0,3.7,1.84,5.18,5.18,0,0,0,2.94-.79,5.33,5.33,0,0,0,1.87-2.16V327a6,6,0,0,0-1.82-2.28,4.7,4.7,0,0,0-3-.9,4.06,4.06,0,0,0-3.71,2,10,10,0,0,0-1.24,5.28Z"/><path class="cls-45" d="M1025.77,336.63a5.82,5.82,0,0,1-2.18,2.3,6.3,6.3,0,0,1-3.25.81,5.15,5.15,0,0,1-4.18-1.81q-1.51-1.81-1.51-5.63v-8.2l-2.1-.21V322.5h4v9.83a7.32,7.32,0,0,0,1,4.44,3.56,3.56,0,0,0,3,1.34,5.59,5.59,0,0,0,3.39-.93,5,5,0,0,0,1.77-2.6V324.1l-2.41-.21V322.5h4.29v15.33l2.26.2v1.38h-3.91Z"/><path class="cls-45" d="M1032.48,338l2.54-.2V324.1l-2.54-.21V322.5h4.4v15.33l2.55.2v1.38h-7Zm4.4-20.37H1035V315h1.86Z"/><path class="cls-45" d="M559.49,375.37a5.83,5.83,0,0,1-2.17,2.05,6.49,6.49,0,0,1-3.13.72,5.61,5.61,0,0,1-4.74-2.27,9.77,9.77,0,0,1-1.71-6v-.33a11.05,11.05,0,0,1,1.71-6.48,5.51,5.51,0,0,1,4.78-2.43,5.77,5.77,0,0,1,5.21,2.86V355l-2.54-.2v-1.39h4.42v22.79l2.55.21v1.37h-4.22Zm-9.86-5.54a8.55,8.55,0,0,0,1.23,4.87,4.16,4.16,0,0,0,3.69,1.81,5,5,0,0,0,4.89-3v-8a5.77,5.77,0,0,0-1.8-2.35,4.89,4.89,0,0,0-3-.9,4.08,4.08,0,0,0-3.72,2,10,10,0,0,0-1.24,5.26Z"/><path class="cls-45" d="M578.41,377.81c-.12-.57-.21-1.07-.26-1.48a8.93,8.93,0,0,1-.08-1.27,7.43,7.43,0,0,1-2.5,2.2,7,7,0,0,1-3.52.88,5.41,5.41,0,0,1-3.84-1.28,4.53,4.53,0,0,1-1.36-3.47,4.28,4.28,0,0,1,2-3.72,9.52,9.52,0,0,1,5.47-1.38h3.73v-2.23a3.6,3.6,0,0,0-1.16-2.84,4.76,4.76,0,0,0-3.26-1,8,8,0,0,0-2.57.38,5.66,5.66,0,0,0-2,1l-.15,2.26h-1.55v-3.25a10.08,10.08,0,0,1,2.81-1.47,10.76,10.76,0,0,1,3.48-.56,6.85,6.85,0,0,1,4.5,1.42,5,5,0,0,1,1.7,4.08v8.31c0,.35,0,.68,0,1s0,.62.1.93l1.69.11v1.37Zm-6.15-1.33a6.76,6.76,0,0,0,3.58-.94,5.51,5.51,0,0,0,2.23-2.42v-3.39H574.3a7,7,0,0,0-4.07,1.06,3.14,3.14,0,0,0-1.52,2.66,2.77,2.77,0,0,0,.95,2.2A3.81,3.81,0,0,0,572.26,376.48Z"/><path class="cls-45" d="M596.23,360.9l.23,2.82v.2a6,6,0,0,1,2-2.45,5,5,0,0,1,3-.88,3.85,3.85,0,0,1,.69.06,4.26,4.26,0,0,1,.56.11l-.25,1.75-1.39-.09a4.23,4.23,0,0,0-2.9,1,5.41,5.41,0,0,0-1.62,2.73v10.09l2.55.21v1.37h-7v-1.37l2.55-.21V362.5l-2.55-.21V360.9h4.18Z"/><path class="cls-45" d="M612.19,378.14a6.79,6.79,0,0,1-5.28-2.34,8.58,8.58,0,0,1-2.09-5.94V369a8.79,8.79,0,0,1,2.09-6,6.46,6.46,0,0,1,5-2.39,6.29,6.29,0,0,1,4.9,2,7.55,7.55,0,0,1,1.78,5.25v1.59H606.68v.46a7.5,7.5,0,0,0,1.52,4.77,4.84,4.84,0,0,0,4,1.93,8.18,8.18,0,0,0,3-.48,5.93,5.93,0,0,0,2.11-1.39l.8,1.28a6.87,6.87,0,0,1-2.41,1.58A9.26,9.26,0,0,1,612.19,378.14Zm-.25-15.95a4.45,4.45,0,0,0-3.47,1.58,6.77,6.77,0,0,0-1.65,4l0,.08h9.91v-.47a5.43,5.43,0,0,0-1.3-3.69A4.44,4.44,0,0,0,611.94,362.19Z"/><path class="cls-45" d="M622,369.5a11,11,0,0,1,1.72-6.48,5.56,5.56,0,0,1,4.79-2.43,5.93,5.93,0,0,1,3.12.79,6.3,6.3,0,0,1,2.18,2.23l.22-2.71h1.58v16.69a7.25,7.25,0,0,1-1.77,5.16,6.41,6.41,0,0,1-4.92,1.89,12.29,12.29,0,0,1-2.6-.3,10.56,10.56,0,0,1-2.42-.81l.5-1.58a11.07,11.07,0,0,0,2.14.75,10,10,0,0,0,2.35.27,4.5,4.5,0,0,0,3.62-1.43,5.82,5.82,0,0,0,1.22-4v-2.14a5.74,5.74,0,0,1-2.17,2,6.4,6.4,0,0,1-3.08.7,5.63,5.63,0,0,1-4.76-2.27,9.71,9.71,0,0,1-1.72-6Zm1.87.33a8.45,8.45,0,0,0,1.25,4.86,4.17,4.17,0,0,0,3.71,1.82,5.28,5.28,0,0,0,3-.82,5.42,5.42,0,0,0,1.86-2.29v-7.84a5.9,5.9,0,0,0-1.79-2.41,4.83,4.83,0,0,0-3.08-.93,4.1,4.1,0,0,0-3.73,2,9.81,9.81,0,0,0-1.26,5.25Z"/><path class="cls-45" d="M639.77,376.44l2.55-.21V362.5l-2.55-.21V360.9h4.41v15.33l2.55.21v1.37h-7Zm4.41-20.38h-1.86v-2.62h1.86Z"/><path class="cls-45" d="M661.54,377.81a15,15,0,0,1-.27-1.48,10.69,10.69,0,0,1-.08-1.27,7.25,7.25,0,0,1-2.5,2.2,7,7,0,0,1-3.51.88,5.38,5.38,0,0,1-3.84-1.28,4.53,4.53,0,0,1-1.36-3.47,4.3,4.3,0,0,1,2-3.72,9.57,9.57,0,0,1,5.47-1.38h3.73v-2.23a3.57,3.57,0,0,0-1.16-2.84,4.74,4.74,0,0,0-3.26-1,8.1,8.1,0,0,0-2.57.38,5.7,5.7,0,0,0-1.94,1l-.16,2.26h-1.55l0-3.25a10,10,0,0,1,2.8-1.47,10.76,10.76,0,0,1,3.48-.56,6.85,6.85,0,0,1,4.5,1.42,5,5,0,0,1,1.7,4.08v8.31c0,.35,0,.68,0,1a7.34,7.34,0,0,0,.1.93l1.69.11v1.37Zm.67-23.42a3.18,3.18,0,0,1-.86,2.28,2.85,2.85,0,0,1-2.14.91,4.09,4.09,0,0,1-2.36-.86,3.7,3.7,0,0,0-2.05-.86,1.6,1.6,0,0,0-1.23.54,2,2,0,0,0-.5,1.39l-1.23-.28a3.18,3.18,0,0,1,.83-2.25,2.77,2.77,0,0,1,2.13-.92,4.33,4.33,0,0,1,2.31.86,4.19,4.19,0,0,0,2.1.86,1.62,1.62,0,0,0,1.23-.56,2,2,0,0,0,.52-1.42Zm-6.83,22.09a6.71,6.71,0,0,0,3.58-.94,5.45,5.45,0,0,0,2.23-2.42v-3.39h-3.76a7,7,0,0,0-4.07,1.06,3.12,3.12,0,0,0-1.52,2.66,2.79,2.79,0,0,0,.94,2.2A3.83,3.83,0,0,0,655.38,376.48Z"/><path class="cls-45" d="M667.52,369.11a9.08,9.08,0,0,1,2.05-6.13,7.36,7.36,0,0,1,10.86,0,9.13,9.13,0,0,1,2.05,6.13v.51a9.12,9.12,0,0,1-2,6.14,7.4,7.4,0,0,1-10.87,0,9.07,9.07,0,0,1-2.05-6.14Zm1.88.51a8,8,0,0,0,1.48,4.94,5.24,5.24,0,0,0,8.24,0,8,8,0,0,0,1.48-4.94v-.51a8,8,0,0,0-1.49-4.91,5.22,5.22,0,0,0-8.23,0,8,8,0,0,0-1.48,4.91Z"/><path class="cls-45" d="M688.24,377.06a7.07,7.07,0,0,1-.58,2.81,6.93,6.93,0,0,1-1.61,2.33l-1.11-.81a8,8,0,0,0,1.09-2.05,7,7,0,0,0,.35-2.25v-2.22h1.86Z"/><path class="cls-45" d="M706.65,376.56a5.32,5.32,0,0,0,3.28-1.06,3.47,3.47,0,0,0,1.42-3H713l0,.1a4.64,4.64,0,0,1-1.87,3.92,7,7,0,0,1-4.52,1.58,6.43,6.43,0,0,1-5.33-2.37,9.46,9.46,0,0,1-1.89-6.08V369a9.42,9.42,0,0,1,1.89-6.06,6.39,6.39,0,0,1,5.31-2.38,8.59,8.59,0,0,1,3.58.74,7,7,0,0,1,2.64,2l.08,3.68h-1.59l-.3-3a5.34,5.34,0,0,0-1.87-1.33,6.19,6.19,0,0,0-2.54-.49,4.49,4.49,0,0,0-4,1.94,8.62,8.62,0,0,0-1.31,4.9v.66a8.71,8.71,0,0,0,1.3,4.93A4.52,4.52,0,0,0,706.65,376.56Z"/><path class="cls-45" d="M716.52,369.11a9.08,9.08,0,0,1,2.05-6.13,7.36,7.36,0,0,1,10.86,0,9.13,9.13,0,0,1,2.05,6.13v.51a9.12,9.12,0,0,1-2,6.14,7.4,7.4,0,0,1-10.87,0,9.07,9.07,0,0,1-2.05-6.14Zm1.88.51a8,8,0,0,0,1.48,4.94,5.24,5.24,0,0,0,8.24,0,8,8,0,0,0,1.48-4.94v-.51a8,8,0,0,0-1.49-4.91,5.22,5.22,0,0,0-8.23,0,8,8,0,0,0-1.48,4.91Z"/><path class="cls-45" d="M734.12,362.29V360.9h4.2l.17,2.8a6,6,0,0,1,2.17-2.3,6.23,6.23,0,0,1,3.24-.81,5.33,5.33,0,0,1,3.23,1,5.16,5.16,0,0,1,1.86,2.88,6.64,6.64,0,0,1,2.18-2.81,5.73,5.73,0,0,1,3.45-1,5.11,5.11,0,0,1,4.18,1.8q1.47,1.8,1.47,5.56v8.27l2.55.22v1.37h-7v-1.37l2.54-.22v-8.3c0-2.08-.37-3.56-1.1-4.41a3.82,3.82,0,0,0-3.07-1.29,4.17,4.17,0,0,0-3.37,1.39,6.73,6.73,0,0,0-1.46,3.54,1.77,1.77,0,0,0,0,.24c0,.07,0,.17,0,.28v8.56l2.54.21v1.37h-7v-1.37l2.54-.21v-8.31a6.82,6.82,0,0,0-1.11-4.38,3.82,3.82,0,0,0-3.07-1.32,4.69,4.69,0,0,0-3.17,1,5.35,5.35,0,0,0-1.63,2.72v10.29l2.55.21v1.37h-7v-1.37l2.54-.21V362.5Z"/><path class="cls-45" d="M777.82,362.29l-2.11.16,4.22,11.13.55,2h.09l.59-2,4.16-11.13-2.11-.16V360.9h5.69v1.39l-1.66.15-6,15.37h-1.5l-6-15.37-1.66-.15V360.9h5.69Z"/><path class="cls-45" d="M802.4,377.81a15,15,0,0,1-.27-1.48,10.69,10.69,0,0,1-.08-1.27,7.34,7.34,0,0,1-2.5,2.2,7,7,0,0,1-3.51.88,5.42,5.42,0,0,1-3.85-1.28,4.56,4.56,0,0,1-1.35-3.47,4.3,4.3,0,0,1,2-3.72,9.55,9.55,0,0,1,5.47-1.38h3.73v-2.23a3.57,3.57,0,0,0-1.16-2.84,4.74,4.74,0,0,0-3.26-1,8.06,8.06,0,0,0-2.57.38,5.7,5.7,0,0,0-1.94,1l-.16,2.26h-1.55l0-3.25a9.88,9.88,0,0,1,2.8-1.47,10.76,10.76,0,0,1,3.48-.56,6.85,6.85,0,0,1,4.5,1.42,5,5,0,0,1,1.7,4.08v8.31c0,.35,0,.68,0,1a7.34,7.34,0,0,0,.1.93l1.69.11v1.37Zm-6.16-1.33a6.74,6.74,0,0,0,3.58-.94,5.51,5.51,0,0,0,2.23-2.42v-3.39h-3.76a7,7,0,0,0-4.07,1.06,3.13,3.13,0,0,0-1.53,2.66,2.8,2.8,0,0,0,.95,2.2A3.83,3.83,0,0,0,796.24,376.48Zm3.17-22h2.3l0,.09-3.89,4.07h-1.68Z"/><path class="cls-45" d="M812.43,360.9l.23,2.82v.2a6.1,6.1,0,0,1,2-2.45,5,5,0,0,1,3-.88,3.85,3.85,0,0,1,.69.06,4.26,4.26,0,0,1,.56.11l-.25,1.75-1.39-.09a4.25,4.25,0,0,0-2.9,1,5.48,5.48,0,0,0-1.62,2.73v10.09l2.55.21v1.37h-7v-1.37l2.54-.21V362.5l-2.54-.21V360.9h4.17Z"/><path class="cls-45" d="M821.12,376.44l2.54-.21V362.5l-2.54-.21V360.9h4.4v15.33l2.55.21v1.37h-7Zm4.4-20.38h-1.86v-2.62h1.86Z"/><path class="cls-45" d="M842.88,377.81c-.12-.57-.21-1.07-.26-1.48a8.93,8.93,0,0,1-.08-1.27,7.43,7.43,0,0,1-2.5,2.2,7,7,0,0,1-3.52.88,5.41,5.41,0,0,1-3.84-1.28,4.53,4.53,0,0,1-1.36-3.47,4.28,4.28,0,0,1,2-3.72,9.51,9.51,0,0,1,5.46-1.38h3.74v-2.23a3.57,3.57,0,0,0-1.17-2.84,4.71,4.71,0,0,0-3.25-1,8,8,0,0,0-2.57.38,5.66,5.66,0,0,0-1.95,1l-.16,2.26H831.9v-3.25a10,10,0,0,1,2.81-1.47,10.7,10.7,0,0,1,3.47-.56,6.81,6.81,0,0,1,4.5,1.42,5,5,0,0,1,1.71,4.08v8.31c0,.35,0,.68,0,1s.05.62.1.93l1.69.11v1.37Zm-6.15-1.33a6.7,6.7,0,0,0,3.57-.94,5.48,5.48,0,0,0,2.24-2.42v-3.39h-3.77a7,7,0,0,0-4.07,1.06,3.14,3.14,0,0,0-1.52,2.66,2.79,2.79,0,0,0,.94,2.2A3.84,3.84,0,0,0,836.73,376.48Z"/><path class="cls-45" d="M861.13,366.12H859.6l-.22-2.39a4.75,4.75,0,0,0-1.77-1.14,7,7,0,0,0-2.46-.4,4.57,4.57,0,0,0-3.07.88,2.65,2.65,0,0,0-1,2.07,2.46,2.46,0,0,0,.89,1.94,8.6,8.6,0,0,0,3.52,1.34,11.52,11.52,0,0,1,4.52,1.84,3.78,3.78,0,0,1,1.5,3.16,4.07,4.07,0,0,1-1.72,3.41,7.25,7.25,0,0,1-4.52,1.31,10.47,10.47,0,0,1-3.41-.53,8,8,0,0,1-2.67-1.47v-3.41h1.52l.26,2.41a4.35,4.35,0,0,0,1.9,1.08,8.34,8.34,0,0,0,2.4.34,5.2,5.2,0,0,0,3.2-.89,2.62,2.62,0,0,0,1.18-2.16,2.72,2.72,0,0,0-1-2.07,7.93,7.93,0,0,0-3.52-1.46,12,12,0,0,1-4.48-1.74,3.58,3.58,0,0,1-1.46-3,4.08,4.08,0,0,1,1.64-3.27,6.65,6.65,0,0,1,4.33-1.34,9.74,9.74,0,0,1,3.4.57,6.9,6.9,0,0,1,2.5,1.54Z"/><path class="cls-45" d="M872.26,362.29V360.9h4.2l.17,2.8a6,6,0,0,1,2.17-2.3,6.23,6.23,0,0,1,3.24-.81,5.33,5.33,0,0,1,3.23,1,5.16,5.16,0,0,1,1.86,2.88,6.64,6.64,0,0,1,2.18-2.81,5.73,5.73,0,0,1,3.45-1,5.11,5.11,0,0,1,4.18,1.8q1.47,1.8,1.47,5.56v8.27l2.55.22v1.37h-7v-1.37l2.54-.22v-8.3c0-2.08-.36-3.56-1.1-4.41a3.82,3.82,0,0,0-3.07-1.29,4.17,4.17,0,0,0-3.37,1.39,6.73,6.73,0,0,0-1.46,3.54,1.77,1.77,0,0,0,0,.24,2.27,2.27,0,0,1,0,.28v8.56l2.55.21v1.37h-7v-1.37l2.54-.21v-8.31a6.82,6.82,0,0,0-1.11-4.38,3.82,3.82,0,0,0-3.07-1.32,4.69,4.69,0,0,0-3.17,1,5.42,5.42,0,0,0-1.63,2.72v10.29l2.55.21v1.37h-7v-1.37l2.54-.21V362.5Z"/><path class="cls-45" d="M903.12,369.11a9.13,9.13,0,0,1,2-6.13A7.36,7.36,0,0,1,916,363a9.08,9.08,0,0,1,2.05,6.13v.51a9.12,9.12,0,0,1-2,6.14,6.79,6.79,0,0,1-5.41,2.38,6.86,6.86,0,0,1-5.46-2.38,9.12,9.12,0,0,1-2-6.14Zm1.87.51a8.05,8.05,0,0,0,1.49,4.94,5.23,5.23,0,0,0,8.23,0,8,8,0,0,0,1.48-4.94v-.51a8,8,0,0,0-1.49-4.91,5.21,5.21,0,0,0-8.22,0,8,8,0,0,0-1.49,4.91Z"/><path class="cls-45" d="M932.87,375.37a5.86,5.86,0,0,1-2.18,2.05,6.42,6.42,0,0,1-3.12.72,5.61,5.61,0,0,1-4.74-2.27,9.77,9.77,0,0,1-1.71-6v-.33a11.05,11.05,0,0,1,1.71-6.48,5.5,5.5,0,0,1,4.77-2.43,5.8,5.8,0,0,1,5.22,2.86V355l-2.55-.2v-1.39h4.42v22.79l2.55.21v1.37H933ZM923,369.83a8.63,8.63,0,0,0,1.22,4.87,4.16,4.16,0,0,0,3.7,1.81,5.3,5.3,0,0,0,3-.81,5.49,5.49,0,0,0,1.88-2.23v-8a5.88,5.88,0,0,0-1.81-2.35,4.87,4.87,0,0,0-3-.9,4.07,4.07,0,0,0-3.71,2A9.92,9.92,0,0,0,923,369.5Z"/><path class="cls-45" d="M951.79,377.81a15,15,0,0,1-.27-1.48,10.69,10.69,0,0,1-.08-1.27,7.25,7.25,0,0,1-2.5,2.2,7,7,0,0,1-3.51.88,5.38,5.38,0,0,1-3.84-1.28,4.53,4.53,0,0,1-1.36-3.47,4.3,4.3,0,0,1,2-3.72,9.57,9.57,0,0,1,5.47-1.38h3.73v-2.23a3.57,3.57,0,0,0-1.16-2.84,4.74,4.74,0,0,0-3.26-1,8.1,8.1,0,0,0-2.57.38,5.7,5.7,0,0,0-1.94,1l-.16,2.26H940.8l0-3.25a10,10,0,0,1,2.8-1.47,10.76,10.76,0,0,1,3.48-.56,6.85,6.85,0,0,1,4.5,1.42,5,5,0,0,1,1.7,4.08v8.31c0,.35,0,.68,0,1a7.34,7.34,0,0,0,.1.93l1.69.11v1.37Zm-6.16-1.33a6.71,6.71,0,0,0,3.58-.94,5.45,5.45,0,0,0,2.23-2.42v-3.39h-3.76a7,7,0,0,0-4.07,1.06,3.12,3.12,0,0,0-1.52,2.66,2.79,2.79,0,0,0,.94,2.2A3.83,3.83,0,0,0,945.63,376.48Z"/><path class="cls-45" d="M957.4,354.83v-1.39h4.4v22.79l2.55.21v1.37h-7v-1.37l2.54-.21V355Z"/><path class="cls-45" d="M967.18,376.44l2.55-.21V362.5l-2.55-.21V360.9h4.41v15.33l2.54.21v1.37h-7Zm4.41-20.38h-1.86v-2.62h1.86Z"/><path class="cls-45" d="M989,375.37a5.76,5.76,0,0,1-2.17,2.05,6.47,6.47,0,0,1-3.12.72,5.62,5.62,0,0,1-4.75-2.27,9.77,9.77,0,0,1-1.71-6v-.33A11.05,11.05,0,0,1,979,363a5.51,5.51,0,0,1,4.78-2.43,6.13,6.13,0,0,1,3.06.74,6.25,6.25,0,0,1,2.16,2.12V355l-2.55-.2v-1.39h4.42v22.79l2.55.21v1.37h-4.22Zm-9.86-5.54a8.55,8.55,0,0,0,1.23,4.87,4.16,4.16,0,0,0,3.7,1.81,5.27,5.27,0,0,0,3-.81,5.44,5.44,0,0,0,1.89-2.23v-8a5.88,5.88,0,0,0-1.81-2.35,4.89,4.89,0,0,0-3-.9,4.05,4.05,0,0,0-3.71,2,9.92,9.92,0,0,0-1.25,5.26Z"/><path class="cls-45" d="M1007.94,377.81c-.12-.57-.21-1.07-.26-1.48a10.69,10.69,0,0,1-.08-1.27,7.34,7.34,0,0,1-2.5,2.2,7,7,0,0,1-3.51.88,5.42,5.42,0,0,1-3.85-1.28,4.57,4.57,0,0,1-1.36-3.47,4.28,4.28,0,0,1,2-3.72,9.52,9.52,0,0,1,5.47-1.38h3.73v-2.23a3.6,3.6,0,0,0-1.16-2.84,4.76,4.76,0,0,0-3.26-1,8,8,0,0,0-2.57.38,5.66,5.66,0,0,0-2,1l-.15,2.26H997l0-3.25a9.88,9.88,0,0,1,2.8-1.47,10.76,10.76,0,0,1,3.48-.56,6.85,6.85,0,0,1,4.5,1.42,5,5,0,0,1,1.7,4.08v8.31c0,.35,0,.68,0,1a7.37,7.37,0,0,0,.11.93l1.68.11v1.37Zm-6.15-1.33a6.74,6.74,0,0,0,3.58-.94,5.51,5.51,0,0,0,2.23-2.42v-3.39h-3.76a7,7,0,0,0-4.08,1.06,3.14,3.14,0,0,0-1.52,2.66,2.8,2.8,0,0,0,1,2.2A3.81,3.81,0,0,0,1001.79,376.48Z"/><path class="cls-45" d="M1025.68,375.37a5.83,5.83,0,0,1-2.17,2.05,6.49,6.49,0,0,1-3.13.72,5.61,5.61,0,0,1-4.74-2.27,9.77,9.77,0,0,1-1.71-6v-.33a11.05,11.05,0,0,1,1.71-6.48,5.5,5.5,0,0,1,4.77-2.43,5.77,5.77,0,0,1,5.22,2.86V355l-2.54-.2v-1.39h4.42v22.79l2.54.21v1.37h-4.21Zm-9.86-5.54a8.55,8.55,0,0,0,1.23,4.87,4.13,4.13,0,0,0,3.69,1.81,5.3,5.3,0,0,0,3-.81,5.42,5.42,0,0,0,1.88-2.23v-8a6,6,0,0,0-1.8-2.35,4.92,4.92,0,0,0-3.06-.9,4.08,4.08,0,0,0-3.71,2,9.92,9.92,0,0,0-1.24,5.26Z"/><path class="cls-45" d="M1040.38,378.14a6.79,6.79,0,0,1-5.28-2.34,8.53,8.53,0,0,1-2.09-5.94V369a8.83,8.83,0,0,1,2.08-6,6.47,6.47,0,0,1,5-2.39,6.26,6.26,0,0,1,4.89,2,7.51,7.51,0,0,1,1.78,5.25v1.59h-11.93v.46a7.45,7.45,0,0,0,1.52,4.77,4.84,4.84,0,0,0,4,1.93,8.18,8.18,0,0,0,3-.48,6,6,0,0,0,2.11-1.39l.8,1.28a6.87,6.87,0,0,1-2.41,1.58A9.26,9.26,0,0,1,1040.38,378.14Zm-.25-15.95a4.45,4.45,0,0,0-3.47,1.58,6.71,6.71,0,0,0-1.65,4l0,.08h9.9v-.47a5.43,5.43,0,0,0-1.29-3.69A4.44,4.44,0,0,0,1040.13,362.19Z"/><path class="cls-45" d="M1062.41,366.12h-1.53l-.22-2.39a4.75,4.75,0,0,0-1.77-1.14,6.9,6.9,0,0,0-2.46-.4,4.57,4.57,0,0,0-3.07.88,2.67,2.67,0,0,0-1,2.07,2.45,2.45,0,0,0,.88,1.94,8.67,8.67,0,0,0,3.52,1.34,11.52,11.52,0,0,1,4.52,1.84,3.78,3.78,0,0,1,1.5,3.16,4.08,4.08,0,0,1-1.71,3.41,7.28,7.28,0,0,1-4.53,1.31,10.47,10.47,0,0,1-3.41-.53,8,8,0,0,1-2.67-1.47v-3.41H1052l.27,2.41a4.31,4.31,0,0,0,1.89,1.08,8.34,8.34,0,0,0,2.4.34,5.23,5.23,0,0,0,3.21-.89,2.63,2.63,0,0,0,1.17-2.16,2.72,2.72,0,0,0-1-2.07,7.93,7.93,0,0,0-3.52-1.46,12,12,0,0,1-4.48-1.74,3.58,3.58,0,0,1-1.46-3,4.08,4.08,0,0,1,1.64-3.27,6.65,6.65,0,0,1,4.33-1.34,9.74,9.74,0,0,1,3.4.57,7,7,0,0,1,2.51,1.54Z"/><path class="cls-45" d="M555.19,416.54a6.79,6.79,0,0,1-5.28-2.34,8.58,8.58,0,0,1-2.09-5.94v-.86a8.79,8.79,0,0,1,2.09-6,6.46,6.46,0,0,1,5-2.39,6.29,6.29,0,0,1,4.9,2,7.55,7.55,0,0,1,1.78,5.25v1.59H549.68v.46A7.5,7.5,0,0,0,551.2,413a4.84,4.84,0,0,0,4,1.93,8.18,8.18,0,0,0,3-.48,5.93,5.93,0,0,0,2.11-1.39l.8,1.28a6.87,6.87,0,0,1-2.41,1.58A9.26,9.26,0,0,1,555.19,416.54Zm-.25-16a4.45,4.45,0,0,0-3.47,1.58,6.77,6.77,0,0,0-1.65,4l0,.08h9.91v-.47a5.43,5.43,0,0,0-1.3-3.69A4.44,4.44,0,0,0,554.94,400.59Z"/><path class="cls-45" d="M577.23,404.52h-1.54l-.21-2.39A4.71,4.71,0,0,0,573.7,401a6.9,6.9,0,0,0-2.46-.4,4.59,4.59,0,0,0-3.07.88,2.67,2.67,0,0,0-1,2.07,2.45,2.45,0,0,0,.88,1.94,8.52,8.52,0,0,0,3.52,1.34,11.52,11.52,0,0,1,4.52,1.84,3.78,3.78,0,0,1,1.5,3.16,4.08,4.08,0,0,1-1.71,3.41,7.27,7.27,0,0,1-4.52,1.31,10.86,10.86,0,0,1-3.42-.52,8.18,8.18,0,0,1-2.66-1.48v-3.41h1.51l.27,2.41a4.29,4.29,0,0,0,1.9,1.08,8.24,8.24,0,0,0,2.4.34,5.2,5.2,0,0,0,3.2-.89,2.63,2.63,0,0,0,1.17-2.16,2.72,2.72,0,0,0-1-2.07,7.87,7.87,0,0,0-3.52-1.46,12.05,12.05,0,0,1-4.48-1.74,3.58,3.58,0,0,1-1.46-3,4.08,4.08,0,0,1,1.64-3.27,6.67,6.67,0,0,1,4.33-1.34,9.74,9.74,0,0,1,3.4.57,6.94,6.94,0,0,1,2.51,1.54Z"/><path class="cls-45" d="M580.48,400.69V399.3h4.11l.23,2.63a6.07,6.07,0,0,1,2.19-2.17,6.24,6.24,0,0,1,3.14-.77,5.5,5.5,0,0,1,4.76,2.43,11,11,0,0,1,1.72,6.48v.33a9.7,9.7,0,0,1-1.72,6,5.6,5.6,0,0,1-4.73,2.26,6.83,6.83,0,0,1-3.12-.68,5.71,5.71,0,0,1-2.18-1.93v7.19l2.55.2v1.39h-6.95v-1.39l2.54-.2V400.9Zm14.28,7.21a9.72,9.72,0,0,0-1.28-5.25,4.16,4.16,0,0,0-3.75-2,4.89,4.89,0,0,0-3.07.9,5.46,5.46,0,0,0-1.78,2.33V412a5.2,5.2,0,0,0,1.85,2.18,5.42,5.42,0,0,0,3,.8,4.23,4.23,0,0,0,3.72-1.84,8.45,8.45,0,0,0,1.28-4.89Z"/><path class="cls-45" d="M599.68,407.51a9.08,9.08,0,0,1,2.05-6.13,7.36,7.36,0,0,1,10.86,0,9.13,9.13,0,0,1,2,6.13V408a9.12,9.12,0,0,1-2,6.14,7.38,7.38,0,0,1-10.86,0,9.07,9.07,0,0,1-2.05-6.14Zm1.87.51A8.05,8.05,0,0,0,603,413a4.87,4.87,0,0,0,4.14,2,4.82,4.82,0,0,0,4.09-2,8.05,8.05,0,0,0,1.49-4.94v-.51a8,8,0,0,0-1.5-4.91,5.21,5.21,0,0,0-8.22,0,8,8,0,0,0-1.49,4.91Z"/><path class="cls-45" d="M621.73,399.3l.23,2.82v.2a6,6,0,0,1,2-2.45,5,5,0,0,1,3-.88,3.85,3.85,0,0,1,.69.06,4.26,4.26,0,0,1,.56.11l-.25,1.75-1.39-.09a4.23,4.23,0,0,0-2.9,1,5.41,5.41,0,0,0-1.62,2.73v10.09l2.55.21v1.37h-7v-1.37l2.55-.21V400.9l-2.55-.21V399.3h4.18Z"/><path class="cls-45" d="M635.34,395v4.32h3.71v1.54h-3.71v11a3.59,3.59,0,0,0,.6,2.35,2,2,0,0,0,1.6.7,8.51,8.51,0,0,0,.88,0c.29,0,.62-.07,1-.13l.28,1.39a4.91,4.91,0,0,1-1.14.31,8.55,8.55,0,0,1-1.34.11,3.49,3.49,0,0,1-2.77-1.13,5.24,5.24,0,0,1-1-3.56v-11h-2.9V399.3h2.9V395Z"/><path class="cls-45" d="M642.37,414.84l2.54-.21V400.9l-2.54-.21V399.3h4.4v15.33l2.55.21v1.37h-7Zm4.4-20.38h-1.86v-2.62h1.86Z"/><path class="cls-45" d="M657.37,400.69l-2.11.16L659.48,412l.54,2h.1l.59-2,4.16-11.13-2.11-.16V399.3h5.68v1.39l-1.65.15-6,15.37h-1.5l-6-15.37-1.66-.15V399.3h5.69Z"/><path class="cls-45" d="M681.94,416.21c-.12-.57-.21-1.07-.26-1.48a10.69,10.69,0,0,1-.08-1.27,7.34,7.34,0,0,1-2.5,2.2,7,7,0,0,1-3.51.88,5.42,5.42,0,0,1-3.85-1.28,4.57,4.57,0,0,1-1.36-3.47,4.28,4.28,0,0,1,2-3.72,9.52,9.52,0,0,1,5.47-1.38h3.73v-2.23a3.6,3.6,0,0,0-1.16-2.84,4.76,4.76,0,0,0-3.26-1,8,8,0,0,0-2.57.38,5.66,5.66,0,0,0-2,1l-.15,2.26H671l0-3.25a9.88,9.88,0,0,1,2.8-1.47,10.76,10.76,0,0,1,3.48-.56,6.85,6.85,0,0,1,4.5,1.42,5,5,0,0,1,1.7,4.08v8.31c0,.35,0,.68,0,1a7.37,7.37,0,0,0,.11.93l1.68.11v1.37Zm-6.15-1.33a6.74,6.74,0,0,0,3.58-.94,5.51,5.51,0,0,0,2.23-2.42v-3.39h-3.76a7,7,0,0,0-4.08,1.06,3.14,3.14,0,0,0-1.52,2.66,2.8,2.8,0,0,0,1,2.2A3.81,3.81,0,0,0,675.79,414.88Z"/><path class="cls-45" d="M700.19,404.52h-1.53l-.22-2.39a4.67,4.67,0,0,0-1.77-1.14,6.9,6.9,0,0,0-2.46-.4,4.57,4.57,0,0,0-3.07.88,2.67,2.67,0,0,0-1,2.07,2.45,2.45,0,0,0,.88,1.94,8.52,8.52,0,0,0,3.52,1.34,11.52,11.52,0,0,1,4.52,1.84,3.78,3.78,0,0,1,1.5,3.16,4.08,4.08,0,0,1-1.71,3.41,7.28,7.28,0,0,1-4.53,1.31,10.8,10.8,0,0,1-3.41-.52,8.18,8.18,0,0,1-2.66-1.48v-3.41h1.51l.27,2.41a4.29,4.29,0,0,0,1.9,1.08,8.22,8.22,0,0,0,2.39.34,5.21,5.21,0,0,0,3.21-.89,2.63,2.63,0,0,0,1.17-2.16,2.72,2.72,0,0,0-1-2.07,7.87,7.87,0,0,0-3.52-1.46,12.05,12.05,0,0,1-4.48-1.74,3.58,3.58,0,0,1-1.46-3,4.08,4.08,0,0,1,1.64-3.27,6.67,6.67,0,0,1,4.33-1.34,9.74,9.74,0,0,1,3.4.57,7,7,0,0,1,2.51,1.54Z"/><path class="cls-45" d="M719.18,416.54a6.76,6.76,0,0,1-5.28-2.34,8.54,8.54,0,0,1-2.1-5.94v-.86a8.84,8.84,0,0,1,2.09-6,6.47,6.47,0,0,1,5-2.39,6.28,6.28,0,0,1,4.89,2,7.51,7.51,0,0,1,1.78,5.25v1.59H713.66v.46a7.45,7.45,0,0,0,1.53,4.77,4.82,4.82,0,0,0,4,1.93,8.22,8.22,0,0,0,3-.48,6.11,6.11,0,0,0,2.11-1.39l.79,1.28a6.74,6.74,0,0,1-2.4,1.58A9.3,9.3,0,0,1,719.18,416.54Zm-.25-16a4.46,4.46,0,0,0-3.48,1.58,6.84,6.84,0,0,0-1.65,4l0,.08h9.9v-.47a5.38,5.38,0,0,0-1.3-3.69A4.41,4.41,0,0,0,718.93,400.59Z"/><path class="cls-45" d="M736.32,400.69V399.3h4.2l.17,2.8a6,6,0,0,1,2.18-2.3,6.17,6.17,0,0,1,3.23-.81,5.38,5.38,0,0,1,3.24.95,5.2,5.2,0,0,1,1.85,2.88,6.55,6.55,0,0,1,2.18-2.8,5.69,5.69,0,0,1,3.45-1,5.11,5.11,0,0,1,4.18,1.8c1,1.2,1.48,3,1.48,5.56v8.27l2.54.22v1.37h-7v-1.37l2.55-.22v-8.3q0-3.12-1.11-4.41a3.8,3.8,0,0,0-3.07-1.29,4.14,4.14,0,0,0-3.36,1.39,6.61,6.61,0,0,0-1.46,3.54v.24a2.27,2.27,0,0,1,0,.28v8.56l2.55.21v1.37h-7v-1.37l2.55-.21v-8.31a6.82,6.82,0,0,0-1.12-4.38,3.82,3.82,0,0,0-3.07-1.32,4.69,4.69,0,0,0-3.17,1,5.42,5.42,0,0,0-1.63,2.72v10.29l2.55.21v1.37h-7v-1.37l2.55-.21V400.9Z"/><path class="cls-45" d="M779.76,413.43a5.76,5.76,0,0,1-2.18,2.3,6.33,6.33,0,0,1-3.26.81,5.13,5.13,0,0,1-4.18-1.81q-1.51-1.82-1.51-5.63v-8.2l-2.09-.21V399.3h4v9.83a7.24,7.24,0,0,0,1.06,4.44,3.56,3.56,0,0,0,3,1.34,5.57,5.57,0,0,0,3.38-.93,5,5,0,0,0,1.77-2.6V400.9l-2.4-.21V399.3h4.28v15.33l2.27.21v1.37h-3.91Z"/><path class="cls-45" d="M786.46,414.84l2.55-.21V400.9l-2.55-.21V399.3h4.41v15.33l2.54.21v1.37h-6.95Zm4.41-20.38H789v-2.62h1.86Z"/><path class="cls-45" d="M800.85,395v4.32h3.72v1.54h-3.72v11a3.59,3.59,0,0,0,.6,2.35,2,2,0,0,0,1.6.7,8.57,8.57,0,0,0,.89,0c.28,0,.61-.07,1-.13l.28,1.39a4.91,4.91,0,0,1-1.14.31,8.75,8.75,0,0,1-1.34.11,3.52,3.52,0,0,1-2.78-1.13,5.29,5.29,0,0,1-1-3.56v-11h-2.91V399.3H799V395Z"/><path class="cls-45" d="M819.68,416.21a15,15,0,0,1-.27-1.48,10.69,10.69,0,0,1-.07-1.27,7.43,7.43,0,0,1-2.5,2.2,7,7,0,0,1-3.52.88,5.38,5.38,0,0,1-3.84-1.28,4.53,4.53,0,0,1-1.36-3.47,4.3,4.3,0,0,1,2-3.72,9.57,9.57,0,0,1,5.47-1.38h3.74v-2.23a3.57,3.57,0,0,0-1.17-2.84,4.74,4.74,0,0,0-3.26-1,8.1,8.1,0,0,0-2.57.38,5.7,5.7,0,0,0-1.94,1l-.16,2.26h-1.55l0-3.25a10,10,0,0,1,2.8-1.47A10.76,10.76,0,0,1,815,399a6.81,6.81,0,0,1,4.5,1.42,5,5,0,0,1,1.7,4.08v8.31c0,.35,0,.68,0,1a7.34,7.34,0,0,0,.1.93l1.69.11v1.37Zm-6.16-1.33a6.71,6.71,0,0,0,3.58-.94,5.53,5.53,0,0,0,2.24-2.42v-3.39h-3.77a7,7,0,0,0-4.07,1.06,3.12,3.12,0,0,0-1.52,2.66,2.79,2.79,0,0,0,.94,2.2A3.83,3.83,0,0,0,813.52,414.88Z"/><path class="cls-45" d="M837.93,404.52H836.4l-.22-2.39a4.75,4.75,0,0,0-1.77-1.14,7,7,0,0,0-2.47-.4,4.61,4.61,0,0,0-3.07.88,2.67,2.67,0,0,0-1,2.07,2.45,2.45,0,0,0,.88,1.94,8.58,8.58,0,0,0,3.53,1.34,11.46,11.46,0,0,1,4.51,1.84,3.78,3.78,0,0,1,1.5,3.16,4.08,4.08,0,0,1-1.71,3.41,7.27,7.27,0,0,1-4.52,1.31,10.86,10.86,0,0,1-3.42-.52,8.28,8.28,0,0,1-2.66-1.48v-3.41h1.52l.26,2.41a4.29,4.29,0,0,0,1.9,1.08,8.29,8.29,0,0,0,2.4.34,5.2,5.2,0,0,0,3.2-.89,2.63,2.63,0,0,0,1.17-2.16,2.71,2.71,0,0,0-1-2.07,7.92,7.92,0,0,0-3.53-1.46,11.92,11.92,0,0,1-4.47-1.74,3.55,3.55,0,0,1-1.46-3,4.05,4.05,0,0,1,1.64-3.27,6.62,6.62,0,0,1,4.32-1.34,9.7,9.7,0,0,1,3.4.57,6.94,6.94,0,0,1,2.51,1.54Z"/><path class="cls-45" d="M860.37,416.21c-.1-.46-.17-.87-.22-1.23a10.24,10.24,0,0,1-.11-1.1,7.48,7.48,0,0,1-2.23,1.9,6.37,6.37,0,0,1-6.87-.53,4.76,4.76,0,0,1-1.37-3.63,4.21,4.21,0,0,1,1.94-3.71,9.5,9.5,0,0,1,5.34-1.31H860v-2a3.06,3.06,0,0,0-.93-2.35,3.71,3.71,0,0,0-2.61-.87,6.26,6.26,0,0,0-2,.3,3.86,3.86,0,0,0-1.43.81l-.33,1.78H850.3V401a9.28,9.28,0,0,1,2.8-1.47,11,11,0,0,1,3.56-.56,7.09,7.09,0,0,1,4.66,1.47,5.13,5.13,0,0,1,1.78,4.2v8.14c0,.22,0,.44,0,.64s0,.42,0,.63l1.25.17v2Zm-5-2.25a5.47,5.47,0,0,0,2.8-.73,4.54,4.54,0,0,0,1.81-1.77v-2.78h-3.28a4.69,4.69,0,0,0-3,.87,2.64,2.64,0,0,0-1.1,2.13,2.09,2.09,0,0,0,.69,1.69A3.06,3.06,0,0,0,855.41,414Z"/><path class="cls-45" d="M872.34,395.23v4.07h3.2v2.29h-3.2v10.26a2.28,2.28,0,0,0,.49,1.67,1.75,1.75,0,0,0,1.3.49,8.19,8.19,0,0,0,.92-.07l.85-.15.42,2.11a3.89,3.89,0,0,1-1.28.46,8.09,8.09,0,0,1-1.69.18,4,4,0,0,1-3-1.13,4.93,4.93,0,0,1-1.11-3.56V401.59h-2.67V399.3h2.67v-4.07Z"/><path class="cls-45" d="M878.68,414.24l2.55-.44V401.73l-2.55-.44v-2h5.62v14.5l2.55.44v2h-8.17ZM884.3,395h-3.07v-3.14h3.07Z"/><path class="cls-45" d="M895,401.29l-2,.31,3.48,9.63.29,1.21h.09l.3-1.21,3.37-9.63-2-.31v-2H905v2l-1.39.23-5.68,14.69h-2.32l-5.74-14.69-1.39-.23v-2H895Z"/><path class="cls-45" d="M907.05,414.24l2.55-.44V401.73l-2.55-.44v-2h5.63v14.5l2.55.44v2h-8.18ZM912.68,395H909.6v-3.14h3.08Z"/><path class="cls-45" d="M929,414.19a5.35,5.35,0,0,1-2,1.75,6.15,6.15,0,0,1-2.78.6,5.78,5.78,0,0,1-4.83-2.24,9.37,9.37,0,0,1-1.74-5.9v-.33a11.3,11.3,0,0,1,1.74-6.58,5.6,5.6,0,0,1,4.86-2.5,6,6,0,0,1,2.65.56,5.4,5.4,0,0,1,2,1.6v-6.89l-2.54-.44v-2h5.62v22l2.55.44v2h-5.22Zm-8.3-5.79a7.15,7.15,0,0,0,1.05,4.09,3.64,3.64,0,0,0,3.23,1.55,4.08,4.08,0,0,0,2.32-.63,4.67,4.67,0,0,0,1.54-1.76V403.8a4.71,4.71,0,0,0-1.54-1.68,4.06,4.06,0,0,0-2.28-.63,3.5,3.5,0,0,0-3.26,1.83,9.36,9.36,0,0,0-1.06,4.75Z"/><path class="cls-45" d="M947.8,416.21q-.13-.69-.21-1.23a10.24,10.24,0,0,1-.11-1.1,7.48,7.48,0,0,1-2.23,1.9,6.37,6.37,0,0,1-6.87-.53,4.72,4.72,0,0,1-1.37-3.63,4.21,4.21,0,0,1,1.94-3.71,9.5,9.5,0,0,1,5.34-1.31h3.17v-2a3,3,0,0,0-.94-2.35,3.67,3.67,0,0,0-2.61-.87,6.35,6.35,0,0,0-2,.3,4,4,0,0,0-1.43.81l-.32,1.78h-2.38V401a9.16,9.16,0,0,1,2.8-1.47,11,11,0,0,1,3.56-.56,7.09,7.09,0,0,1,4.66,1.47,5.16,5.16,0,0,1,1.78,4.2v8.14c0,.22,0,.44,0,.64a4.44,4.44,0,0,0,0,.63l1.25.17v2ZM942.85,414a5.49,5.49,0,0,0,2.8-.73,4.6,4.6,0,0,0,1.81-1.77v-2.78h-3.28a4.69,4.69,0,0,0-3,.87,2.64,2.64,0,0,0-1.1,2.13,2.08,2.08,0,0,0,.68,1.69A3.09,3.09,0,0,0,942.85,414Z"/><path class="cls-45" d="M965.79,414.19a5.31,5.31,0,0,1-2,1.75,6.08,6.08,0,0,1-2.77.6,5.78,5.78,0,0,1-4.83-2.24,9.31,9.31,0,0,1-1.75-5.9v-.33a11.23,11.23,0,0,1,1.75-6.58A5.6,5.6,0,0,1,961,399a6,6,0,0,1,2.65.56,5.4,5.4,0,0,1,2,1.6v-6.89l-2.54-.44v-2h5.62v22l2.55.44v2H966Zm-8.3-5.79a7.15,7.15,0,0,0,1,4.09,3.63,3.63,0,0,0,3.23,1.55,4.08,4.08,0,0,0,2.32-.63,4.67,4.67,0,0,0,1.54-1.76V403.8a4.71,4.71,0,0,0-1.54-1.68,4.07,4.07,0,0,0-2.29-.63,3.5,3.5,0,0,0-3.25,1.83,9.36,9.36,0,0,0-1.06,4.75Z"/><path class="cls-45" d="M981.32,416.54a7.12,7.12,0,0,1-5.62-2.35,8.85,8.85,0,0,1-2.08-6.1v-.69a8.68,8.68,0,0,1,2.14-6,6.63,6.63,0,0,1,5.09-2.4,6.41,6.41,0,0,1,5.16,2.06,8.16,8.16,0,0,1,1.76,5.5v1.93h-11l0,.07a6.66,6.66,0,0,0,1.23,4,3.92,3.92,0,0,0,3.33,1.57,7.91,7.91,0,0,0,2.74-.44,6.32,6.32,0,0,0,2-1.23l1.2,2a7.39,7.39,0,0,1-2.39,1.48A9.67,9.67,0,0,1,981.32,416.54Zm-.47-15.13a3.34,3.34,0,0,0-2.64,1.31,6.12,6.12,0,0,0-1.34,3.27l0,.08h7.79v-.41a4.76,4.76,0,0,0-1-3A3.48,3.48,0,0,0,980.85,401.41Z"/><path class="cls-45" d="M1003.74,404.62h-2.31l-.5-2a4.24,4.24,0,0,0-1.42-.86,5.48,5.48,0,0,0-1.92-.32,3.54,3.54,0,0,0-2.44.72,2.27,2.27,0,0,0-.8,1.74,1.94,1.94,0,0,0,.7,1.57,7.38,7.38,0,0,0,2.86,1,12.44,12.44,0,0,1,4.77,1.86,3.78,3.78,0,0,1,1.56,3.17,4.38,4.38,0,0,1-1.82,3.64,7.6,7.6,0,0,1-4.76,1.39,12.22,12.22,0,0,1-3.45-.45,8.82,8.82,0,0,1-2.73-1.29l0-3.86h2.31l.58,2.27a3.18,3.18,0,0,0,1.45.7,7.76,7.76,0,0,0,1.86.22,4.36,4.36,0,0,0,2.57-.66,2.05,2.05,0,0,0,.93-1.74,2.1,2.1,0,0,0-.77-1.68,7.51,7.51,0,0,0-2.93-1.14,12.19,12.19,0,0,1-4.64-1.82,3.71,3.71,0,0,1-1.56-3.13,4.43,4.43,0,0,1,1.75-3.52,7,7,0,0,1,4.58-1.45,11.18,11.18,0,0,1,3.45.5,7.41,7.41,0,0,1,2.55,1.39Z"/></g></svg>