<svg xmlns="http://www.w3.org/2000/svg" xmlns:xlink="http://www.w3.org/1999/xlink" viewBox="0 0 1124.64 1086.98"><defs><style>.cls-1{fill:#e6f4ff;}.cls-12,.cls-2,.cls-41{fill:none;}.cls-3{fill:#8bb5d8;}.cls-4{fill:#329e89;}.cls-5{clip-path:url(#clip-path);}.cls-6{fill:#c5e2ff;}.cls-7{clip-path:url(#clip-path-2);}.cls-8{fill:#fffdfd;}.cls-9{fill:#fff;}.cls-10{fill:#312235;}.cls-11{fill:#ce7061;}.cls-12{stroke:#0ae00a;stroke-linecap:round;stroke-linejoin:round;}.cls-13{fill:#3a1e1c;}.cls-14{clip-path:url(#clip-path-3);}.cls-15{fill:#d88268;}.cls-16{fill:#d98369;}.cls-17{fill:#da8469;}.cls-18{fill:#db856a;}.cls-19{fill:#dc866b;}.cls-20{fill:#dd876b;}.cls-21{fill:#de886c;}.cls-22{fill:#df896d;}.cls-23{fill:#e08a6d;}.cls-24{fill:#e18b6e;}.cls-25{fill:#e28c6f;}.cls-26{fill:#e48d70;}.cls-27{fill:#e58d70;}.cls-28{fill:#e68e71;}.cls-29{fill:#e78f72;}.cls-30{fill:#e89072;}.cls-31{fill:#e99173;}.cls-32{fill:#ea9274;}.cls-33{fill:#eb9374;}.cls-34{fill:#ec9475;}.cls-35{fill:#ed9576;}.cls-36{fill:#ee9676;}.cls-37{fill:#ef9777;}.cls-38{fill:#3d201f;}.cls-39{fill:#b5574d;}.cls-40{fill:#b3514e;}.cls-41{stroke:#ef0a0a;stroke-miterlimit:10;}.cls-42{fill:#fc999c;}.cls-43{fill:#f9aaaa;}.cls-44{fill:#196b5d;}.cls-45{fill:#208975;}.cls-46{fill:#8acec3;}.cls-47{fill:#5b1f3c;}.cls-48{fill:#175b4e;}</style><clipPath id="clip-path"><path class="cls-1" d="M428.87,402.79a192.93,192.93,0,0,0-5-43.86c-32.69-73-109.24-124.14-198.45-124.14C106.43,234.78,10,325.78,10,438a192.94,192.94,0,0,0,5,43.86C47.74,554.84,124.28,606,213.5,606,332.44,606,428.87,515,428.87,402.79Z"/></clipPath><clipPath id="clip-path-2"><path class="cls-2" d="M541.11,351.64c-10.3-18-97.33-31.5-97.33-31.5S301.45,131.38,232.44,137.81s-80.25,56.58-80.25,56.58l-32.63,66.55C54.29,295.86,10.25,362,10.25,437.86c0,112.25,96.43,203.24,215.37,203.24,117.57,0,213.12-88.9,215.32-199.35C473.29,419.44,549.06,365.51,541.11,351.64Z"/></clipPath><clipPath id="clip-path-3"><path class="cls-2" d="M227.93,321.46l-2.36,9.78s-19.92,12.9-37.91,11.87c-5.34-.31,67.76,42.8,71.74,42.95s34.38-50.15,34.38-50.15-20.41-3.74-27.17-4-14.46-18.28-14.46-18.28Z"/></clipPath></defs><title>5-fala1</title><g id="Camada_2" data-name="Camada 2"><g id="Camada_5" data-name="Camada 5"><ellipse class="cls-3" cx="225.37" cy="438.02" rx="215.37" ry="203.24"/><path class="cls-4" d="M225.37,234.78c118.95,0,215.37,91,215.37,203.24S344.32,641.26,225.37,641.26,10,550.27,10,438s96.42-203.24,215.37-203.24m0-10a235.06,235.06,0,0,0-87.54,16.68A225.76,225.76,0,0,0,66.22,287,212.29,212.29,0,0,0,17.8,354.82a203.35,203.35,0,0,0,0,166.4A212.29,212.29,0,0,0,66.22,589a225.76,225.76,0,0,0,71.61,45.57,238,238,0,0,0,175.08,0A225.76,225.76,0,0,0,384.53,589a212.29,212.29,0,0,0,48.42-67.79,203.35,203.35,0,0,0,0-166.4A212.29,212.29,0,0,0,384.53,287a225.76,225.76,0,0,0-71.61-45.57,235.06,235.06,0,0,0-87.54-16.68Z"/><path class="cls-1" d="M428.87,402.79a192.93,192.93,0,0,0-5-43.86c-32.69-73-109.24-124.14-198.45-124.14C106.43,234.78,10,325.78,10,438a192.94,192.94,0,0,0,5,43.86C47.74,554.84,124.28,606,213.5,606,332.44,606,428.87,515,428.87,402.79Z"/><g class="cls-5"><circle class="cls-1" cx="306.79" cy="408.71" r="104.58" transform="translate(-175.58 239.93) rotate(-33.82)"/><circle class="cls-1" cx="306.79" cy="408.71" r="100.64" transform="translate(-175.58 239.93) rotate(-33.82)"/><circle class="cls-1" cx="306.79" cy="408.71" r="98.66" transform="translate(-175.58 239.93) rotate(-33.82)"/><circle class="cls-1" cx="306.79" cy="408.71" r="96.69" transform="translate(-175.58 239.93) rotate(-33.82)"/><circle class="cls-1" cx="306.79" cy="408.71" r="94.72" transform="translate(-175.58 239.93) rotate(-33.82)"/><circle class="cls-1" cx="306.79" cy="408.71" r="92.74" transform="translate(-175.58 239.93) rotate(-33.82)"/><circle class="cls-1" cx="306.79" cy="408.71" r="90.77" transform="translate(-175.58 239.93) rotate(-33.82)"/><circle class="cls-1" cx="306.79" cy="408.71" r="88.8" transform="matrix(0.83, -0.56, 0.56, 0.83, -175.58, 239.93)"/><circle class="cls-1" cx="306.79" cy="408.71" r="86.82" transform="translate(-175.58 239.93) rotate(-33.82)"/><circle class="cls-1" cx="306.79" cy="408.71" r="84.85" transform="translate(-175.58 239.93) rotate(-33.82)"/><circle class="cls-1" cx="306.79" cy="408.71" r="82.88" transform="translate(-175.58 239.93) rotate(-33.82)"/><circle class="cls-1" cx="306.79" cy="408.71" r="80.9" transform="translate(-175.58 239.93) rotate(-33.82)"/><circle class="cls-1" cx="306.79" cy="408.71" r="78.93" transform="translate(-175.58 239.93) rotate(-33.82)"/><circle class="cls-1" cx="306.79" cy="408.71" r="76.96" transform="translate(-175.58 239.93) rotate(-33.82)"/><circle class="cls-1" cx="306.79" cy="408.71" r="74.98" transform="translate(-175.58 239.93) rotate(-33.82)"/><circle class="cls-1" cx="306.79" cy="408.71" r="73.01" transform="translate(-175.58 239.93) rotate(-33.82)"/><circle class="cls-1" cx="306.79" cy="408.71" r="71.04" transform="translate(-175.58 239.93) rotate(-33.82)"/><circle class="cls-1" cx="306.79" cy="408.71" r="69.06" transform="translate(-175.58 239.93) rotate(-33.82)"/><circle class="cls-1" cx="306.79" cy="408.71" r="67.09" transform="translate(-175.58 239.93) rotate(-33.82)"/><circle class="cls-1" cx="306.79" cy="408.71" r="65.12" transform="translate(-175.58 239.93) rotate(-33.82)"/><circle class="cls-1" cx="306.79" cy="408.71" r="63.15" transform="translate(-175.58 239.93) rotate(-33.82)"/><circle class="cls-1" cx="306.79" cy="408.71" r="61.17" transform="translate(-175.58 239.93) rotate(-33.82)"/><circle class="cls-1" cx="306.79" cy="408.71" r="59.2" transform="translate(-175.58 239.93) rotate(-33.82)"/><circle class="cls-1" cx="306.79" cy="408.71" r="57.23" transform="translate(-175.58 239.93) rotate(-33.82)"/><circle class="cls-1" cx="306.79" cy="408.71" r="55.25" transform="translate(-175.58 239.93) rotate(-33.82)"/><circle class="cls-1" cx="306.79" cy="408.71" r="53.28" transform="translate(-175.58 239.93) rotate(-33.82)"/><circle class="cls-1" cx="306.79" cy="408.71" r="51.31" transform="translate(-175.58 239.93) rotate(-33.82)"/><circle class="cls-1" cx="306.79" cy="408.71" r="49.33" transform="translate(-175.58 239.93) rotate(-33.82)"/><circle class="cls-1" cx="306.79" cy="408.71" r="47.36" transform="matrix(0.83, -0.56, 0.56, 0.83, -175.58, 239.93)"/><circle class="cls-1" cx="306.79" cy="408.71" r="45.39" transform="translate(-175.58 239.93) rotate(-33.82)"/><circle class="cls-1" cx="306.79" cy="408.71" r="43.41" transform="matrix(0.83, -0.56, 0.56, 0.83, -175.58, 239.93)"/><circle class="cls-1" cx="306.79" cy="408.71" r="41.44" transform="translate(-175.58 239.93) rotate(-33.82)"/><circle class="cls-1" cx="306.79" cy="408.71" r="39.47" transform="translate(-175.58 239.93) rotate(-33.82)"/><circle class="cls-1" cx="306.79" cy="408.71" r="37.49" transform="translate(-175.58 239.93) rotate(-33.82)"/><circle class="cls-1" cx="306.79" cy="408.71" r="35.52" transform="translate(-175.58 239.93) rotate(-33.82)"/><circle class="cls-1" cx="306.79" cy="408.71" r="33.55" transform="translate(-175.58 239.93) rotate(-33.82)"/><circle class="cls-1" cx="306.79" cy="408.71" r="31.57" transform="translate(-175.58 239.93) rotate(-33.82)"/><circle class="cls-1" cx="306.79" cy="408.71" r="29.6" transform="translate(-175.58 239.93) rotate(-33.82)"/><circle class="cls-1" cx="306.79" cy="408.71" r="27.63" transform="translate(-175.58 239.93) rotate(-33.82)"/><circle class="cls-1" cx="306.79" cy="408.71" r="25.65" transform="matrix(0.83, -0.56, 0.56, 0.83, -175.58, 239.93)"/><circle class="cls-1" cx="306.79" cy="408.71" r="23.68" transform="translate(-175.58 239.93) rotate(-33.82)"/><circle class="cls-1" cx="306.79" cy="408.71" r="21.71" transform="translate(-175.58 239.93) rotate(-33.82)"/><circle class="cls-1" cx="306.79" cy="408.71" r="19.73" transform="translate(-175.58 239.93) rotate(-33.82)"/><circle class="cls-1" cx="306.79" cy="408.71" r="17.76" transform="translate(-175.58 239.93) rotate(-33.82)"/><circle class="cls-1" cx="306.79" cy="408.71" r="15.79" transform="translate(-175.58 239.93) rotate(-33.82)"/><circle class="cls-1" cx="306.79" cy="408.71" r="13.81" transform="translate(-175.58 239.93) rotate(-33.82)"/><circle class="cls-1" cx="306.79" cy="408.71" r="11.84" transform="translate(-175.58 239.93) rotate(-33.82)"/><circle class="cls-1" cx="306.79" cy="408.71" r="9.87" transform="translate(-175.58 239.93) rotate(-33.82)"/><circle class="cls-1" cx="306.79" cy="408.71" r="7.89" transform="translate(-175.58 239.93) rotate(-33.82)"/><circle class="cls-1" cx="306.79" cy="408.71" r="5.92" transform="matrix(0.83, -0.56, 0.56, 0.83, -175.58, 239.93)"/><circle class="cls-1" cx="306.79" cy="408.71" r="3.95" transform="translate(-175.58 239.93) rotate(-33.82)"/><circle class="cls-1" cx="306.79" cy="408.71" r="1.97" transform="translate(-175.58 239.93) rotate(-33.82)"/></g><path class="cls-3" d="M787.8,44.22c-174.89,0-318.64,118.13-335.23,269.27L353,353.14s-6.51,2.41-5.86,11.74a12.7,12.7,0,0,0,7.44,10.88L458.82,407C492,541,626.68,641.26,787.8,641.26c186,0,336.84-133.65,336.84-298.52S973.83,44.22,787.8,44.22Z"/><path class="cls-6" d="M787.75,0C612.85,0,469.11,118.13,452.52,269.27L353,308.92s-6.51,2.41-5.86,11.74a12.7,12.7,0,0,0,7.44,10.88l104.21,31.27c33.19,134,167.86,234.22,329,234.22,186,0,336.84-133.65,336.84-298.52S973.78,0,787.75,0Z"/><g class="cls-7"><path class="cls-8" d="M329.94,510.18s.78-10,4.42-10.57l24.22,31.55-9.37,5.44Z"/><path class="cls-9" d="M153.53,566.53s24.48-21.86,24.48-27-14.35-8.35-14.35-8.35l-20.42,29.5,9.58,7.33Z"/><path class="cls-10" d="M189.95,1031.62s-6.76,14.39-4.29,22.71,17.22,13.73,17.22,13.73,37.07,22.44,68.87,18.45,21.38-11,21.38-11l-55.78-45.95Z"/><path class="cls-10" d="M298,1028.09s-5.17,10.44-3,17.43,15.57,10.15,15.57,10.15l10.35.39,104,5.37s7.43-21.13-51.76-33.44S298,1028.09,298,1028.09Z"/><path class="cls-11" d="M202.2,770.27l2.38,26.31s-29.12,70.66-9.27,203l-6,40.44s24.06,11.26,41.42,15.9a72.41,72.41,0,0,0,32,1.2s-39.64-43.49-45.34-49.63L267.07,767S238.58,709.54,202.2,770.27Z"/><path class="cls-11" d="M284.55,768.47S258.79,839,300,973.16c0,0,5.91,55.23-2.06,54.93s81.07,6.75,86.9,7-44.4-20.8-48.8-31.06-6.29-201.14-.33-218.46a235.61,235.61,0,0,0,8.72-34.22S289.46,757.74,284.55,768.47Z"/><path class="cls-12" d="M299.66,1025.23"/><path class="cls-13" d="M176.44,360.74s-46.9-131.84,7.44-198.9c0,0,58.1-39.81,101.53,7s13,178.54,13,178.54Z"/><g class="cls-14"><polygon class="cls-15" points="293.71 313.64 293.74 313.95 182.31 324.32 182.31 313.64 293.71 313.64"/><polygon class="cls-15" points="293.74 313.95 293.78 314.33 293.78 314.76 182.31 325.13 182.31 324.32 293.74 313.95"/><polygon class="cls-16" points="293.78 315.57 182.31 325.95 182.31 325.13 293.78 314.76 293.78 315.57"/><polygon class="cls-17" points="293.78 316.39 182.31 326.76 182.31 325.95 293.78 315.57 293.78 316.39"/><polygon class="cls-18" points="293.78 317.2 182.31 327.57 182.31 326.76 293.78 316.39 293.78 317.2"/><polygon class="cls-19" points="293.78 318.01 182.31 328.39 182.31 327.57 293.78 317.2 293.78 318.01"/><polygon class="cls-20" points="293.78 318.83 182.31 329.2 182.31 328.39 293.78 318.01 293.78 318.83"/><polygon class="cls-21" points="293.78 319.64 182.31 330.01 182.31 329.2 293.78 318.83 293.78 319.64"/><polygon class="cls-22" points="293.78 320.45 182.31 330.83 182.31 330.01 293.78 319.64 293.78 320.45"/><polygon class="cls-23" points="293.78 321.27 182.31 331.64 182.31 330.83 293.78 320.45 293.78 321.27"/><polygon class="cls-24" points="293.78 322.08 182.31 332.45 182.31 331.64 293.78 321.27 293.78 322.08"/><polygon class="cls-25" points="293.78 322.89 182.31 333.27 182.31 332.45 293.78 322.08 293.78 322.89"/><polygon class="cls-26" points="293.78 323.71 182.31 334.08 182.31 333.27 293.78 322.89 293.78 323.71"/><polygon class="cls-27" points="293.78 324.52 182.31 334.89 182.31 334.08 293.78 323.71 293.78 324.52"/><polygon class="cls-28" points="293.78 325.33 182.31 335.71 182.31 334.89 293.78 324.52 293.78 325.33"/><polygon class="cls-29" points="293.78 326.14 182.31 336.52 182.31 335.71 293.78 325.33 293.78 326.14"/><polygon class="cls-30" points="293.78 326.96 182.31 337.33 182.31 336.52 293.78 326.14 293.78 326.96"/><polygon class="cls-31" points="293.78 327.77 182.31 338.14 182.31 337.33 293.78 326.96 293.78 327.77"/><polygon class="cls-32" points="293.78 328.58 182.31 338.96 182.31 338.14 293.78 327.77 293.78 328.58"/><polygon class="cls-33" points="293.78 329.4 182.31 339.77 182.31 338.96 293.78 328.58 293.78 329.4"/><polygon class="cls-34" points="293.78 330.21 182.31 340.58 182.31 339.77 293.78 329.4 293.78 330.21"/><polygon class="cls-35" points="293.78 331.02 182.31 341.4 182.31 340.58 293.78 330.21 293.78 331.02"/><polygon class="cls-36" points="293.78 331.84 182.31 342.21 182.31 341.4 293.78 331.02 293.78 331.84"/><polygon class="cls-37" points="293.78 332.65 182.31 343.02 182.31 342.21 293.78 331.84 293.78 332.65"/><polygon class="cls-37" points="184.35 386.21 182.31 364.39 182.31 343.02 293.78 332.65 293.78 386.21 184.35 386.21"/></g><path class="cls-37" d="M182.6,222.54s-.89,110.78,64.76,101.68c35.49-4.92,47.51-40.41,40.88-70.91a191.46,191.46,0,0,1-3.79-46.77s-4.08-29.37-38.7-20.3S196.11,192,196.11,192,180.54,195.13,182.6,222.54Z"/><path class="cls-13" d="M177.07,228.73s25.08-2.78,36.43-7.67l.58-15.39s2.55,9.93,4.85,12.41,22.88-.74,32-3.59,4.8-14.7,4.8-14.7l4.34,11.86s28.57,3.45,28.74-.93S285,186,276.62,182s-73.88-4.44-83.08,4.1S177.53,216.52,177.07,228.73Z"/><path class="cls-12" d="M284.29,374"/><ellipse class="cls-38" cx="262.95" cy="244.39" rx="3.92" ry="3.17" transform="translate(-22.42 26.6) rotate(-5.56)"/><ellipse class="cls-38" cx="223.88" cy="248.1" rx="3.92" ry="3.17" transform="translate(-22.97 22.84) rotate(-5.56)"/><path class="cls-39" d="M250.55,278.83a15.21,15.21,0,0,1-5.16-.8l.35-.94c5.16,1.91,13.88,0,15.56-3.34,1.13-2.27-1.43-4.53-3.78-6-6.89-4.38-5.31-8.94-5.24-9.13l.94.34c-.06.16-1.33,4,4.84,7.94,4.88,3.1,4.95,5.69,4.14,7.31C260.72,277.15,255.37,278.83,250.55,278.83Z"/><path class="cls-40" d="M262,289.89c-18.38,4.76-31.33.71-30.6,2,0,0-.78,13.74,15.42,13.63C263.55,305.45,262,289.89,262,289.89Z"/><path class="cls-9" d="M219.38,333.59s22.52,13.66,36.94,11.81c6.84-.88,19-14,19-14l13,129.73-49.8,2.24Z"/><path class="cls-10" d="M172.66,557.55S155,630.13,157,650s4.67,52.17,34,145.94c0,0,78.26,32.39,150.21-.8,0,0,6.28-1.86,10.91-43.82s12.42-142.59-8.72-187.46S172.66,557.55,172.66,557.55Z"/><path class="cls-41" d="M116.48,944.41"/><path class="cls-13" d="M270.81,230.55s-4.74-6.21-9.75-3.1a.9.9,0,0,0-.59,1.12c.25.84,1.92-1.63,9.83,2.73C270.31,231.29,270.81,231.58,270.81,230.55Z"/><path class="cls-13" d="M213.93,234s4.74-6.21,9.75-3.1a.9.9,0,0,1,.59,1.12c-.25.84-1.92-1.63-9.83,2.73C214.43,234.73,213.93,235,213.93,234Z"/><path class="cls-9" d="M259.62,290.44s-.65,3.21-2,4.13-15.59,1.65-24.11,1c-2.88-.24-2.32-2.91-2.18-3.89C231.35,291.63,246.09,293.49,259.62,290.44Z"/><path class="cls-42" d="M251.34,305.09s-1.87-9.49-19.14-7C232.21,298.13,235.94,307.82,251.34,305.09Z"/><ellipse class="cls-43" cx="281.01" cy="254.61" rx="3.62" ry="6.23" transform="translate(3.96 513.52) rotate(-85.24)"/><ellipse class="cls-43" cx="214.79" cy="263.85" rx="6.23" ry="3.62" transform="matrix(0.98, -0.22, 0.22, 0.98, -52.96, 53.94)"/><path class="cls-44" d="M334.61,435.84,357,461.35s-6.12,9.16-12,18.66c-6.27,10.12-15.54,20.35-13.57,20.56,4,.44,26.78,31.77,26.78,31.77l28-38s21.11-33.39,20.75-37-18.37-28.48-24.44-34.22c-3.74-3.54-9.95-8.73-15.17-16.11-29.22-41.33-56.53-70.83-58.4-72.35s-11-6.17-14.22-4.65-19.19,1.4-19.19,1.4l2.63,115.37L219.63,333.58s-12.57,4.33-26.08,2.61-36.24,3.62-36.24,3.62-10.23,27.71-17.55,29.81-11,20.26-11,20.26c-2.17,2.65-10.19,14.08-19.62,27.72h0s-37.48,45.93-43,49.92-2.65,13.44-2.65,13.44l78.85,83.79,27.83-35.51c-7.13-.5-43.13-49.77-43.13-49.77,2.54-4.53,2.3-8.26,1.56-10.72,17.3-18.49,42.63-47.19,42.63-47.19.41,4.06,6.47,16.8,16.93,32.52s9.68,42.14,9.68,42.14c-14.94,21.68-25,61.34-25,61.34s1,7.93,26.28,20.55c11,5.5,46.51,16.31,46.51,16.31l39.47-43.29,50.77,35.64s9.12-9.12,8.21-18.27S325.71,505,325.71,505s-1.9-19,.27-24.66S334.61,435.84,334.61,435.84Z"/><path class="cls-15" d="M153.53,566.53s12.21,10.71,14.68,8.24l12.43-35.19S165.06,550.81,153.53,566.53Z"/><path class="cls-37" d="M170.88,567.7s5.9-5.86,14.86,2.8,9.69,9.26,9.69,9.26,7,2.88,7.52-4.62c0,0,8.8,1.29,6.82-8.4,0,0,6.14-4.42.71-12,0,0,5.51-1.06,2.23-11.46s-24-20.47-24-20.47-9.94-3.49-10.82,8.08c0,0-7.16.37-4.67,10.37,0,0-4.65,4.21-3.65,8.77s-.11,3.66-.11,3.66S162.79,561.13,170.88,567.7Z"/><path class="cls-39" d="M202.56,575.46c-.12-.14-11.87-13.67-24.48-19.79l.44-.9c12.8,6.21,24.69,19.9,24.81,20Z"/><path class="cls-39" d="M209.42,567.1c-.17-.16-17.14-16.1-29.48-22.75l.47-.88c12.46,6.72,29.52,22.74,29.69,22.9Z"/><path class="cls-39" d="M210.09,555c-.15-.18-15.22-17.9-27.55-21.76l.3-1c12.61,3.94,27.39,21.33,28,22.07Z"/><path class="cls-37" d="M347.86,556.51l-16.17,4.75s-7,2.88-7.52-4.62c0,0-8.8,1.29-6.82-8.4,0,0-6.14-4.42-.71-12,0,0-5.51-1.06-2.23-11.46s15.67-13.15,15.67-13.15,9.94-3.49,10.82,8.08c0,0,7.16.37,4.67,10.37,0,0,4.65,4.21,3.65,8.77s.11,3.66.11,3.66S356,549.94,347.86,556.51Z"/><path class="cls-39" d="M324.44,557.06l-.54-.84A277.14,277.14,0,0,1,349.1,542l.44.9A276.08,276.08,0,0,0,324.44,557.06Z"/><path class="cls-39" d="M317.64,548.64l-.59-.81c.16-.12,15.84-11.54,28.26-18.24l.47.88C333.42,537.14,317.8,548.53,317.64,548.64Z"/><path class="cls-39" d="M317.07,536.46l-.86-.51c.09-.15,9.39-15.38,24.63-16.78l.09,1C326.2,521.52,317.16,536.31,317.07,536.46Z"/><path class="cls-45" d="M219.38,333.59S195.23,345.24,182.15,365l44.37,12.67s-15.11,14.85-14.79,18.07,66.17,51,66.17,51,33.54-61.51,29.81-64.56-24.29-6.81-24.29-6.81,19.48-27.61,22.87-27.94-28-16.36-31-16.06,2.52,110.28,2.52,110.28l-.15,2.38Z"/><path class="cls-10" d="M277.91,446.79s9.27,81.81,7,104.33"/><circle class="cls-46" cx="291.65" cy="471.48" r="5.33"/><circle class="cls-46" cx="293.78" cy="509.48" r="5.33"/><path class="cls-47" d="M173.81,404.74l-1-.23a76.63,76.63,0,0,0-11.56-60.85l.82-.57A77.64,77.64,0,0,1,173.81,404.74Z"/><path class="cls-47" d="M329.09,406.93l-1-.09c1.1-12.29-3.37-24.57-7.31-35.41-4.66-12.82-9.95-27.35-20.07-37.88l.72-.69c10.27,10.68,15.59,25.32,20.29,38.23C325.7,382,330.21,394.42,329.09,406.93Z"/><path class="cls-47" d="M146.32,377a27.53,27.53,0,0,0-3.49-6.94l.82-.57a28.53,28.53,0,0,1,3.62,7.19Z"/><path class="cls-47" d="M136,392.63a34.92,34.92,0,0,0-6.08-.83l0-1a35.77,35.77,0,0,1,6.25.86Z"/><path class="cls-47" d="M334.44,441l-1-.12a74,74,0,0,0,.43-11.92l1,0A75,75,0,0,1,334.44,441Z"/><path class="cls-47" d="M355.5,460.4l-.14-1a75.56,75.56,0,0,1,12.07-.73l0,1A73.81,73.81,0,0,0,355.5,460.4Z"/><path class="cls-47" d="M365,468a60.31,60.31,0,0,0-8.69-6.35l.52-.86a61.39,61.39,0,0,1,8.84,6.45Z"/><path class="cls-47" d="M200.41,496.57l-.53-.85a60.08,60.08,0,0,1,11.6-5.55l.33.94A59,59,0,0,0,200.41,496.57Z"/><path class="cls-47" d="M127.77,469.24c-2.32,0-10-.2-12.54-2.75l.71-.71c2.65,2.65,12.37,2.44,12.47,2.45l0,1Z"/><path class="cls-47" d="M118.83,482.89v-1c3.43,0,7.7-2.83,7.74-2.86l.56.83C126.94,480,122.56,482.89,118.83,482.89Z"/></g><path class="cls-48" d="M564.71,168.52h-2.17L562,165.3a6,6,0,0,0-1.84-1.2,6.6,6.6,0,0,0-2.61-.47,6.38,6.38,0,0,0-5.45,2.57,10.66,10.66,0,0,0-1.91,6.52v.36a10.88,10.88,0,0,0,1.87,6.54,6,6,0,0,0,5.18,2.59,7.81,7.81,0,0,0,2.81-.48,5.38,5.38,0,0,0,2-1.19l.58-3.22h2.17v4a8.52,8.52,0,0,1-3,2.26,10,10,0,0,1-4.56,1,9.2,9.2,0,0,1-7.28-3.28,12.14,12.14,0,0,1-2.84-8.25v-.33a12.29,12.29,0,0,1,2.8-8.27,9.17,9.17,0,0,1,7.33-3.27,9.88,9.88,0,0,1,4.56,1,8.78,8.78,0,0,1,3,2.26Z"/><path class="cls-48" d="M579,184.29q-.14-.69-.22-1.23T578.7,182a7.44,7.44,0,0,1-2.23,1.9,6.38,6.38,0,0,1-6.87-.53,4.74,4.74,0,0,1-1.37-3.63,4.21,4.21,0,0,1,1.95-3.71,9.48,9.48,0,0,1,5.34-1.3h3.17v-2a3,3,0,0,0-.94-2.35,3.7,3.7,0,0,0-2.61-.87,6.41,6.41,0,0,0-2,.3,3.83,3.83,0,0,0-1.43.81l-.33,1.78H569V169.1a9.14,9.14,0,0,1,2.8-1.48,11.07,11.07,0,0,1,3.56-.55,7.09,7.09,0,0,1,4.66,1.47,5.14,5.14,0,0,1,1.78,4.2v8.14c0,.22,0,.43,0,.64s0,.42,0,.63l1.25.17v2Zm-5-2.25a5.47,5.47,0,0,0,2.8-.73,4.56,4.56,0,0,0,1.81-1.77v-2.78H575.4a4.68,4.68,0,0,0-3,.88,2.63,2.63,0,0,0-1.1,2.13,2.1,2.1,0,0,0,.69,1.7A3.14,3.14,0,0,0,574.07,182Z"/><path class="cls-48" d="M585.62,169.36v-2h5.3l.3,2.45a5.91,5.91,0,0,1,1.77-2,4.12,4.12,0,0,1,2.41-.73,5.31,5.31,0,0,1,.74.05,4.29,4.29,0,0,1,.59.12l-.41,2.86-1.75-.09a3.52,3.52,0,0,0-2,.57,3.69,3.69,0,0,0-1.28,1.6v9.7l2.55.44v2h-8.17v-2l2.55-.44V169.8Z"/><path class="cls-48" d="M624.09,176.44a10.38,10.38,0,0,1-1.87,5.76,6,6,0,0,1-5.19,2.41,3.13,3.13,0,0,1-2-.65,3.53,3.53,0,0,1-1.2-1.82,5.16,5.16,0,0,1-1.91,1.86,5.39,5.39,0,0,1-2.61.61,3.34,3.34,0,0,1-3-1.88,8.32,8.32,0,0,1-.8-4.95,12.72,12.72,0,0,1,2.15-6.49,5.26,5.26,0,0,1,4.35-2.45,7.08,7.08,0,0,1,2.63.41,11.6,11.6,0,0,1,2.2,1.25l-.06.06h.09l-.8,9.14a3.7,3.7,0,0,0,.34,2.37,1.5,1.5,0,0,0,1.27.65,3.51,3.51,0,0,0,3.07-1.77,8.92,8.92,0,0,0,1.27-4.51q.27-6-2.24-9.3T612,163.8a9.47,9.47,0,0,0-7.75,3.61,15.52,15.52,0,0,0-3.16,9.41q-.28,5.88,2.34,9.29a8.93,8.93,0,0,0,7.53,3.41,12,12,0,0,0,2.78-.34,9.22,9.22,0,0,0,2.38-.88l.61,1.67a8.82,8.82,0,0,1-2.68,1,14.24,14.24,0,0,1-3.15.37q-5.94,0-9.19-3.9t-3-10.65a17,17,0,0,1,3.89-10.75,11.86,11.86,0,0,1,9.41-4.14q5.92,0,9.09,3.91T624.09,176.44Zm-15.83,1.34a7.2,7.2,0,0,0,.34,3.37,1.73,1.73,0,0,0,1.67,1.16,4.24,4.24,0,0,0,1.82-.39,4,4,0,0,0,1.52-1.37,3,3,0,0,1,0-.39c0-.13,0-.29,0-.45l.73-8.41a4.75,4.75,0,0,0-.85-.3,3.92,3.92,0,0,0-.93-.11,3.29,3.29,0,0,0-3,1.7A12.59,12.59,0,0,0,608.26,177.79Z"/><path class="cls-48" d="M642.85,182.21a4.15,4.15,0,0,0,2.7-.95,2.89,2.89,0,0,0,1.16-2.32h2.77l0,.09a4.74,4.74,0,0,1-1.95,3.88,7.11,7.11,0,0,1-4.71,1.7,6.82,6.82,0,0,1-5.63-2.41,9.31,9.31,0,0,1-1.95-6v-.66a9.26,9.26,0,0,1,2-6,6.81,6.81,0,0,1,5.63-2.41,9.45,9.45,0,0,1,3.65.67,7.38,7.38,0,0,1,2.68,1.84l.14,3.75h-2.45l-.67-2.66a4.09,4.09,0,0,0-1.41-.86,5.4,5.4,0,0,0-1.94-.33,3.71,3.71,0,0,0-3.46,1.74,8.2,8.2,0,0,0-1,4.27v.66a8.3,8.3,0,0,0,1,4.32A3.71,3.71,0,0,0,642.85,182.21Z"/><path class="cls-48" d="M664.6,181.79a5.71,5.71,0,0,1-2.05,2.09,5.65,5.65,0,0,1-2.9.73,5.41,5.41,0,0,1-4.3-1.77q-1.55-1.77-1.55-5.5V169.8l-1.94-.44v-2h5v10a6.29,6.29,0,0,0,.8,3.72,3,3,0,0,0,2.48,1,5.06,5.06,0,0,0,2.71-.66,4.16,4.16,0,0,0,1.62-1.88V169.8l-2.27-.44v-2h5.34v14.5l1.94.44v2h-4.7Z"/><path class="cls-48" d="M671.95,169.36v-2h5.3l.3,2.45a5.91,5.91,0,0,1,1.77-2,4.12,4.12,0,0,1,2.41-.73,5.31,5.31,0,0,1,.74.05,4.29,4.29,0,0,1,.59.12l-.41,2.86L680.9,170a3.52,3.52,0,0,0-2,.57,3.69,3.69,0,0,0-1.28,1.6v9.7l2.55.44v2h-8.17v-2l2.55-.44V169.8Z"/><path class="cls-48" d="M698.12,172.69h-2.31l-.5-2a4.18,4.18,0,0,0-1.41-.85,5.47,5.47,0,0,0-1.93-.32,3.55,3.55,0,0,0-2.44.72,2.25,2.25,0,0,0-.8,1.73,1.93,1.93,0,0,0,.7,1.58,7.28,7.28,0,0,0,2.86,1,12.34,12.34,0,0,1,4.77,1.87,3.77,3.77,0,0,1,1.56,3.16,4.37,4.37,0,0,1-1.82,3.64,7.62,7.62,0,0,1-4.76,1.39,12.36,12.36,0,0,1-3.45-.45,9.18,9.18,0,0,1-2.73-1.29l0-3.86h2.31l.58,2.27a3.2,3.2,0,0,0,1.45.7,8,8,0,0,0,1.87.22,4.35,4.35,0,0,0,2.57-.66,2,2,0,0,0,.93-1.74,2.1,2.1,0,0,0-.77-1.67,7.28,7.28,0,0,0-2.93-1.14,12.27,12.27,0,0,1-4.64-1.83,3.68,3.68,0,0,1-1.56-3.12,4.41,4.41,0,0,1,1.76-3.52,6.94,6.94,0,0,1,4.57-1.45,11.11,11.11,0,0,1,3.45.5A7.21,7.21,0,0,1,698,169Z"/><path class="cls-48" d="M701.5,182.32l2.55-.44V169.8l-2.55-.44v-2h5.63v14.5l2.55.44v2H701.5Zm5.63-19.27H704v-3.14h3.08Z"/><path class="cls-48" d="M724.95,172.69h-2.31l-.5-2a4.18,4.18,0,0,0-1.41-.85,5.47,5.47,0,0,0-1.93-.32,3.55,3.55,0,0,0-2.44.72,2.25,2.25,0,0,0-.8,1.73,1.93,1.93,0,0,0,.7,1.58,7.28,7.28,0,0,0,2.86,1,12.34,12.34,0,0,1,4.77,1.87,3.77,3.77,0,0,1,1.56,3.16,4.37,4.37,0,0,1-1.82,3.64,7.62,7.62,0,0,1-4.76,1.39,12.36,12.36,0,0,1-3.45-.45,9.18,9.18,0,0,1-2.73-1.29l0-3.86H715l.58,2.27a3.2,3.2,0,0,0,1.45.7,8,8,0,0,0,1.87.22,4.35,4.35,0,0,0,2.57-.66,2,2,0,0,0,.93-1.74,2.1,2.1,0,0,0-.77-1.67,7.28,7.28,0,0,0-2.93-1.14,12.27,12.27,0,0,1-4.64-1.83,3.68,3.68,0,0,1-1.56-3.12,4.41,4.41,0,0,1,1.76-3.52,6.94,6.94,0,0,1,4.57-1.45,11.11,11.11,0,0,1,3.45.5,7.21,7.21,0,0,1,2.55,1.39Z"/><path class="cls-48" d="M733.7,163.3v4.08h3.2v2.28h-3.2v10.27a2.3,2.3,0,0,0,.49,1.67,1.78,1.78,0,0,0,1.3.48,6.74,6.74,0,0,0,.91-.07c.34,0,.62-.1.85-.15l.42,2.11a4,4,0,0,1-1.28.46,8.13,8.13,0,0,1-1.69.18,4,4,0,0,1-3-1.13,4.92,4.92,0,0,1-1.11-3.55V169.66h-2.67v-2.28h2.67V163.3Z"/><path class="cls-48" d="M751.07,184.29q-.14-.69-.22-1.23t-.11-1.09a7.44,7.44,0,0,1-2.23,1.9,6.38,6.38,0,0,1-6.87-.53,4.74,4.74,0,0,1-1.37-3.63,4.21,4.21,0,0,1,1.95-3.71,9.48,9.48,0,0,1,5.34-1.3h3.17v-2a3,3,0,0,0-.94-2.35,3.7,3.7,0,0,0-2.61-.87,6.41,6.41,0,0,0-2,.3,3.83,3.83,0,0,0-1.43.81l-.33,1.78H741V169.1a9.14,9.14,0,0,1,2.8-1.48,11.07,11.07,0,0,1,3.56-.55,7.09,7.09,0,0,1,4.66,1.47,5.14,5.14,0,0,1,1.78,4.2v8.14c0,.22,0,.43,0,.64s0,.42,0,.63l1.25.17v2Zm-5-2.25a5.47,5.47,0,0,0,2.8-.73,4.56,4.56,0,0,0,1.81-1.77v-2.78h-3.28a4.68,4.68,0,0,0-3,.88,2.63,2.63,0,0,0-1.1,2.13,2.1,2.1,0,0,0,.69,1.7A3.14,3.14,0,0,0,746.12,182Z"/><path class="cls-48" d="M761.62,170.54h-3.08v-3.16h3.08Zm0,13.75h-3.08v-3.16h3.08Z"/><path class="cls-48" d="M569.68,241.09l-.09,0-8.45,20h-1.3l-8.44-19.94-.09,0,.17,9.88v8.47l2.55.2v1.38h-7v-1.37l2.55-.2V239.93l-2.55-.2v-1.39h5l8.36,20h.09l8.39-20h5v1.39l-2.55.2v19.58l2.55.2v1.38h-7v-1.37l2.55-.2V251Z"/><path class="cls-48" d="M576.43,259.71l2.55-.2V245.77l-2.55-.2v-1.39h4.41v15.33l2.55.2v1.38h-7Zm4.41-20.38H579v-2.62h1.86Z"/><path class="cls-48" d="M586.18,259.71l2.55-.2V245.77l-2.55-.2v-1.39h4.2l.17,3a6,6,0,0,1,2.2-2.41,6.12,6.12,0,0,1,3.27-.85,5.21,5.21,0,0,1,4.19,1.68q1.44,1.68,1.44,5.24v8.72l2.55.2v1.38h-7v-1.37l2.55-.2v-8.7q0-2.91-1.09-4.11a4,4,0,0,0-3.09-1.2,4.84,4.84,0,0,0-3.21,1,5.79,5.79,0,0,0-1.79,2.76v10.22l2.55.2v1.38h-7Z"/><path class="cls-48" d="M606.59,238.1v-1.39H611v10.36a6,6,0,0,1,5.53-3.2,5.13,5.13,0,0,1,4.1,1.66q1.43,1.66,1.43,5.14v8.84l2.55.2v1.38h-7v-1.37l2.55-.2v-8.88a5.8,5.8,0,0,0-1.09-3.95,3.84,3.84,0,0,0-3-1.2,5.05,5.05,0,0,0-3.21,1,5.86,5.86,0,0,0-1.9,2.68v10.33l2.55.2v1.38h-7v-1.37l2.55-.2V238.3Z"/><path class="cls-48" d="M639.09,261.09q-.19-.86-.27-1.48a10.05,10.05,0,0,1-.08-1.27,7.46,7.46,0,0,1-2.5,2.2,7.08,7.08,0,0,1-3.52.88,5.39,5.39,0,0,1-3.84-1.28,4.54,4.54,0,0,1-1.36-3.47,4.28,4.28,0,0,1,2-3.72,9.58,9.58,0,0,1,5.47-1.37h3.73v-2.23a3.61,3.61,0,0,0-1.16-2.84,4.75,4.75,0,0,0-3.26-1,8.2,8.2,0,0,0-2.57.38,5.81,5.81,0,0,0-1.95,1l-.16,2.27H628.1l0-3.25a9.73,9.73,0,0,1,2.8-1.47,10.6,10.6,0,0,1,3.48-.56,6.8,6.8,0,0,1,4.5,1.42,5,5,0,0,1,1.7,4.08v8.31q0,.52,0,1a7.54,7.54,0,0,0,.1.93l1.69.11v1.38Zm-6.16-1.33a6.77,6.77,0,0,0,3.58-.94,5.54,5.54,0,0,0,2.23-2.42V253H635a7,7,0,0,0-4.07,1.05,3.14,3.14,0,0,0-1.52,2.66,2.79,2.79,0,0,0,.95,2.2A3.79,3.79,0,0,0,632.93,259.76Z"/><path class="cls-48" d="M657.34,249.4h-1.53l-.22-2.39a4.76,4.76,0,0,0-1.77-1.14,6.92,6.92,0,0,0-2.46-.41,4.6,4.6,0,0,0-3.07.88,2.66,2.66,0,0,0-1,2.07,2.45,2.45,0,0,0,.88,1.94,8.57,8.57,0,0,0,3.52,1.34,11.54,11.54,0,0,1,4.52,1.84,3.79,3.79,0,0,1,1.5,3.16,4.09,4.09,0,0,1-1.71,3.41,7.26,7.26,0,0,1-4.52,1.3,10.56,10.56,0,0,1-3.41-.52,8.1,8.1,0,0,1-2.66-1.48V256h1.52l.27,2.41a4.35,4.35,0,0,0,1.9,1.09,8.47,8.47,0,0,0,2.4.34,5.18,5.18,0,0,0,3.2-.89,2.64,2.64,0,0,0,1.17-2.16,2.74,2.74,0,0,0-1-2.08,7.93,7.93,0,0,0-3.52-1.45,11.86,11.86,0,0,1-4.48-1.74,3.57,3.57,0,0,1-1.46-3A4.08,4.08,0,0,1,647,245.2a6.64,6.64,0,0,1,4.33-1.34,9.72,9.72,0,0,1,3.4.57,6.88,6.88,0,0,1,2.51,1.54Z"/><path class="cls-48" d="M676.09,259.84a5.33,5.33,0,0,0,3.28-1.06,3.48,3.48,0,0,0,1.42-3h1.66l0,.09a4.64,4.64,0,0,1-1.87,3.92,7,7,0,0,1-4.52,1.58,6.43,6.43,0,0,1-5.33-2.37,9.45,9.45,0,0,1-1.89-6.09v-.66a9.43,9.43,0,0,1,1.89-6.06,6.4,6.4,0,0,1,5.31-2.37,8.6,8.6,0,0,1,3.58.73,7,7,0,0,1,2.64,2l.08,3.69h-1.59l-.3-3a5.34,5.34,0,0,0-1.87-1.34,6.24,6.24,0,0,0-2.54-.49,4.51,4.51,0,0,0-4,1.95,8.61,8.61,0,0,0-1.3,4.9V253a8.69,8.69,0,0,0,1.3,4.94A4.52,4.52,0,0,0,676.09,259.84Z"/><path class="cls-48" d="M690,244.18l.23,2.81v.2a6,6,0,0,1,2-2.45,5,5,0,0,1,2.95-.88,4.37,4.37,0,0,1,.7.05,5.37,5.37,0,0,1,.55.12l-.25,1.75-1.39-.09a4.24,4.24,0,0,0-2.9,1,5.46,5.46,0,0,0-1.62,2.73v10.09l2.55.2v1.38h-7v-1.37l2.55-.2V245.77l-2.55-.2v-1.39H690Z"/><path class="cls-48" d="M698.7,259.71l2.55-.2V245.77l-2.55-.2v-1.39h4.41v15.33l2.55.2v1.38h-7Zm4.41-20.38h-1.86v-2.62h1.86Z"/><path class="cls-48" d="M720.46,261.09q-.19-.86-.27-1.48a10.05,10.05,0,0,1-.08-1.27,7.46,7.46,0,0,1-2.5,2.2,7.08,7.08,0,0,1-3.52.88,5.39,5.39,0,0,1-3.84-1.28,4.54,4.54,0,0,1-1.36-3.47,4.28,4.28,0,0,1,2-3.72,9.58,9.58,0,0,1,5.47-1.37h3.73v-2.23a3.61,3.61,0,0,0-1.16-2.84,4.75,4.75,0,0,0-3.26-1,8.2,8.2,0,0,0-2.57.38,5.81,5.81,0,0,0-1.95,1l-.16,2.27h-1.55l0-3.25a9.73,9.73,0,0,1,2.8-1.47,10.6,10.6,0,0,1,3.48-.56,6.8,6.8,0,0,1,4.5,1.42,5,5,0,0,1,1.7,4.08v8.31q0,.52,0,1a7.54,7.54,0,0,0,.1.93l1.69.11v1.38Zm-6.16-1.33a6.77,6.77,0,0,0,3.58-.94,5.54,5.54,0,0,0,2.23-2.42V253h-3.77a7,7,0,0,0-4.07,1.05,3.14,3.14,0,0,0-1.52,2.66,2.79,2.79,0,0,0,.95,2.2A3.79,3.79,0,0,0,714.31,259.76Z"/><path class="cls-48" d="M726.1,259.71l2.55-.2V245.77l-2.55-.2v-1.39h4.2l.17,3a6,6,0,0,1,2.2-2.41,6.12,6.12,0,0,1,3.27-.85,5.21,5.21,0,0,1,4.19,1.68q1.44,1.68,1.44,5.24v8.72l2.55.2v1.38h-7v-1.37l2.55-.2v-8.7q0-2.91-1.09-4.11a4,4,0,0,0-3.09-1.2,4.84,4.84,0,0,0-3.21,1,5.79,5.79,0,0,0-1.79,2.76v10.22l2.55.2v1.38h-7Z"/><path class="cls-48" d="M754.12,259.84a5.33,5.33,0,0,0,3.28-1.06,3.48,3.48,0,0,0,1.42-3h1.66l0,.09a4.64,4.64,0,0,1-1.87,3.92,7,7,0,0,1-4.52,1.58,6.43,6.43,0,0,1-5.33-2.37A9.45,9.45,0,0,1,746.9,253v-.66a9.43,9.43,0,0,1,1.89-6.06,6.4,6.4,0,0,1,5.31-2.37,8.6,8.6,0,0,1,3.58.73,7,7,0,0,1,2.64,2l.08,3.69h-1.59l-.3-3a5.34,5.34,0,0,0-1.87-1.34,6.24,6.24,0,0,0-2.54-.49,4.51,4.51,0,0,0-4,1.95,8.61,8.61,0,0,0-1.3,4.9V253a8.69,8.69,0,0,0,1.3,4.94A4.52,4.52,0,0,0,754.12,259.84Zm.48,1.39-.17,1a3.76,3.76,0,0,1,2,.76,2.32,2.32,0,0,1,.76,1.91,2.64,2.64,0,0,1-1.23,2.27,6.19,6.19,0,0,1-3.53.85l-.11-1.22a5.26,5.26,0,0,0,2.35-.48,1.51,1.51,0,0,0,1-1.4,1.29,1.29,0,0,0-.64-1.24,6.12,6.12,0,0,0-2.27-.48l.44-2Z"/><path class="cls-48" d="M775.67,261.09q-.19-.86-.27-1.48a10.05,10.05,0,0,1-.08-1.27,7.46,7.46,0,0,1-2.5,2.2,7.08,7.08,0,0,1-3.52.88,5.39,5.39,0,0,1-3.84-1.28,4.54,4.54,0,0,1-1.36-3.47,4.28,4.28,0,0,1,2-3.72,9.58,9.58,0,0,1,5.47-1.37h3.73v-2.23a3.61,3.61,0,0,0-1.16-2.84,4.75,4.75,0,0,0-3.26-1,8.2,8.2,0,0,0-2.57.38,5.81,5.81,0,0,0-1.95,1l-.16,2.27h-1.55l0-3.25a9.73,9.73,0,0,1,2.8-1.47,10.6,10.6,0,0,1,3.48-.56,6.8,6.8,0,0,1,4.5,1.42,5,5,0,0,1,1.7,4.08v8.31q0,.52,0,1a7.54,7.54,0,0,0,.1.93l1.69.11v1.38Zm-6.16-1.33a6.77,6.77,0,0,0,3.58-.94,5.54,5.54,0,0,0,2.23-2.42V253h-3.77a7,7,0,0,0-4.07,1.05,3.14,3.14,0,0,0-1.52,2.66,2.79,2.79,0,0,0,.95,2.2A3.79,3.79,0,0,0,769.51,259.76Z"/><path class="cls-48" d="M793.92,249.4h-1.53l-.22-2.39a4.76,4.76,0,0,0-1.77-1.14,6.92,6.92,0,0,0-2.46-.41,4.6,4.6,0,0,0-3.07.88,2.66,2.66,0,0,0-1,2.07,2.45,2.45,0,0,0,.88,1.94,8.57,8.57,0,0,0,3.52,1.34,11.54,11.54,0,0,1,4.52,1.84,3.79,3.79,0,0,1,1.5,3.16,4.09,4.09,0,0,1-1.71,3.41,7.26,7.26,0,0,1-4.52,1.3,10.56,10.56,0,0,1-3.41-.52,8.1,8.1,0,0,1-2.66-1.48V256h1.52l.27,2.41a4.35,4.35,0,0,0,1.9,1.09,8.47,8.47,0,0,0,2.4.34,5.18,5.18,0,0,0,3.2-.89,2.64,2.64,0,0,0,1.17-2.16,2.74,2.74,0,0,0-1-2.08,7.93,7.93,0,0,0-3.52-1.45,11.86,11.86,0,0,1-4.48-1.74,3.57,3.57,0,0,1-1.46-3,4.08,4.08,0,0,1,1.64-3.27,6.64,6.64,0,0,1,4.33-1.34,9.72,9.72,0,0,1,3.4.57,6.88,6.88,0,0,1,2.51,1.54Z"/><path class="cls-48" d="M812.9,261.41a6.79,6.79,0,0,1-5.28-2.34,8.57,8.57,0,0,1-2.09-5.95v-.86a8.82,8.82,0,0,1,2.09-6,6.46,6.46,0,0,1,5-2.39,6.26,6.26,0,0,1,4.89,2,7.53,7.53,0,0,1,1.78,5.25v1.59H807.39v.45a7.46,7.46,0,0,0,1.52,4.77,4.84,4.84,0,0,0,4,1.93,8.13,8.13,0,0,0,3-.48A5.87,5.87,0,0,0,818,258l.8,1.28a6.76,6.76,0,0,1-2.41,1.59A9.26,9.26,0,0,1,812.9,261.41Zm-.25-16a4.48,4.48,0,0,0-3.48,1.59,6.79,6.79,0,0,0-1.65,4l0,.08h9.91v-.47a5.41,5.41,0,0,0-1.3-3.69A4.43,4.43,0,0,0,812.65,245.46Z"/><path class="cls-48" d="M834.93,249.4H833.4l-.22-2.39a4.76,4.76,0,0,0-1.77-1.14,6.92,6.92,0,0,0-2.46-.41,4.6,4.6,0,0,0-3.07.88,2.66,2.66,0,0,0-1,2.07,2.45,2.45,0,0,0,.88,1.94,8.57,8.57,0,0,0,3.52,1.34,11.54,11.54,0,0,1,4.52,1.84,3.79,3.79,0,0,1,1.5,3.16,4.09,4.09,0,0,1-1.71,3.41,7.26,7.26,0,0,1-4.52,1.3,10.56,10.56,0,0,1-3.41-.52,8.1,8.1,0,0,1-2.66-1.48V256h1.52l.27,2.41a4.35,4.35,0,0,0,1.9,1.09,8.47,8.47,0,0,0,2.4.34,5.18,5.18,0,0,0,3.2-.89,2.64,2.64,0,0,0,1.17-2.16,2.74,2.74,0,0,0-1-2.08,7.93,7.93,0,0,0-3.52-1.45,11.86,11.86,0,0,1-4.48-1.74,3.57,3.57,0,0,1-1.46-3,4.08,4.08,0,0,1,1.64-3.27,6.64,6.64,0,0,1,4.33-1.34,9.72,9.72,0,0,1,3.4.57,6.88,6.88,0,0,1,2.51,1.54Z"/><path class="cls-48" d="M843,239.85v4.33h3.72v1.53H843v11a3.6,3.6,0,0,0,.6,2.35,2,2,0,0,0,1.6.7q.45,0,.88,0c.29,0,.62-.07,1-.13l.28,1.39a4.9,4.9,0,0,1-1.14.31,8.43,8.43,0,0,1-1.34.11,3.5,3.5,0,0,1-2.77-1.12,5.3,5.3,0,0,1-1-3.56v-11h-2.91v-1.53h2.91v-4.33Z"/><path class="cls-48" d="M861.81,261.09q-.19-.86-.27-1.48a10.05,10.05,0,0,1-.08-1.27,7.46,7.46,0,0,1-2.5,2.2,7.08,7.08,0,0,1-3.52.88,5.39,5.39,0,0,1-3.84-1.28,4.54,4.54,0,0,1-1.36-3.47,4.28,4.28,0,0,1,2-3.72,9.58,9.58,0,0,1,5.47-1.37h3.73v-2.23a3.61,3.61,0,0,0-1.16-2.84,4.75,4.75,0,0,0-3.26-1,8.2,8.2,0,0,0-2.57.38,5.81,5.81,0,0,0-1.95,1l-.16,2.27h-1.55l0-3.25a9.73,9.73,0,0,1,2.8-1.47,10.6,10.6,0,0,1,3.48-.56,6.8,6.8,0,0,1,4.5,1.42,5,5,0,0,1,1.7,4.08v8.31q0,.52,0,1a7.54,7.54,0,0,0,.1.93l1.69.11v1.38Zm.67-23.42a3.19,3.19,0,0,1-.86,2.28,2.83,2.83,0,0,1-2.14.91,4.06,4.06,0,0,1-2.36-.86,3.78,3.78,0,0,0-2-.86,1.61,1.61,0,0,0-1.23.55,2,2,0,0,0-.5,1.39l-1.23-.28a3.22,3.22,0,0,1,.84-2.26,2.76,2.76,0,0,1,2.13-.91,4.31,4.31,0,0,1,2.3.86,4.15,4.15,0,0,0,2.1.86,1.62,1.62,0,0,0,1.23-.56,2,2,0,0,0,.52-1.42Zm-6.83,22.09a6.77,6.77,0,0,0,3.58-.94,5.54,5.54,0,0,0,2.23-2.42V253H857.7a7,7,0,0,0-4.07,1.05,3.14,3.14,0,0,0-1.52,2.66,2.79,2.79,0,0,0,.95,2.2A3.79,3.79,0,0,0,855.65,259.76Z"/><path class="cls-48" d="M867.79,252.38a9.08,9.08,0,0,1,2-6.12,7.36,7.36,0,0,1,10.86,0,9.09,9.09,0,0,1,2,6.13v.52a9.1,9.1,0,0,1-2,6.13,7.39,7.39,0,0,1-10.87,0,9.07,9.07,0,0,1-2-6.13Zm1.88.52a8,8,0,0,0,1.48,4.94,5.24,5.24,0,0,0,8.23,0,8.05,8.05,0,0,0,1.48-4.94v-.52a8,8,0,0,0-1.49-4.91,5.2,5.2,0,0,0-8.23,0,8,8,0,0,0-1.48,4.91Z"/><path class="cls-48" d="M547,284v-1.39h4.11l.23,2.63a6.13,6.13,0,0,1,2.2-2.17,6.2,6.2,0,0,1,3.13-.77,5.52,5.52,0,0,1,4.77,2.43,11,11,0,0,1,1.72,6.48v.33a9.75,9.75,0,0,1-1.72,6.05,5.62,5.62,0,0,1-4.73,2.26,6.79,6.79,0,0,1-3.12-.68,5.71,5.71,0,0,1-2.18-1.93v7.19l2.55.2V306h-7V304.6l2.55-.2V284.17Zm14.28,7.2a9.71,9.71,0,0,0-1.28-5.25,4.16,4.16,0,0,0-3.75-2,4.93,4.93,0,0,0-3.07.9,5.52,5.52,0,0,0-1.77,2.34v8.13a5.11,5.11,0,0,0,1.85,2.19,5.38,5.38,0,0,0,3,.8,4.24,4.24,0,0,0,3.73-1.84,8.45,8.45,0,0,0,1.27-4.89Z"/><path class="cls-48" d="M577.85,299.49q-.19-.86-.27-1.48a10.05,10.05,0,0,1-.08-1.27,7.46,7.46,0,0,1-2.5,2.2,7.08,7.08,0,0,1-3.52.88,5.39,5.39,0,0,1-3.84-1.28,4.54,4.54,0,0,1-1.36-3.47,4.28,4.28,0,0,1,2-3.72,9.58,9.58,0,0,1,5.47-1.37h3.73v-2.23a3.61,3.61,0,0,0-1.16-2.84,4.75,4.75,0,0,0-3.26-1,8.2,8.2,0,0,0-2.57.38,5.81,5.81,0,0,0-1.95,1l-.16,2.27h-1.55l0-3.25a9.73,9.73,0,0,1,2.8-1.47,10.6,10.6,0,0,1,3.48-.56,6.8,6.8,0,0,1,4.5,1.42,5,5,0,0,1,1.7,4.08v8.31q0,.52,0,1a7.54,7.54,0,0,0,.1.93l1.69.11v1.38Zm-6.16-1.33a6.77,6.77,0,0,0,3.58-.94,5.54,5.54,0,0,0,2.23-2.42v-3.39h-3.77a7,7,0,0,0-4.07,1.05,3.14,3.14,0,0,0-1.52,2.66,2.79,2.79,0,0,0,.95,2.2A3.79,3.79,0,0,0,571.7,298.16Z"/><path class="cls-48" d="M587.89,282.58l.23,2.81v.2a6,6,0,0,1,2-2.45,5,5,0,0,1,2.95-.88,4.37,4.37,0,0,1,.7.05,5.37,5.37,0,0,1,.55.12l-.25,1.75-1.39-.09a4.24,4.24,0,0,0-2.9,1,5.46,5.46,0,0,0-1.62,2.73v10.09l2.55.2v1.38h-7v-1.37l2.55-.2V284.17l-2.55-.2v-1.39h4.17Z"/><path class="cls-48" d="M601.5,278.25v4.33h3.72v1.53H601.5v11a3.6,3.6,0,0,0,.6,2.35,2,2,0,0,0,1.6.7q.45,0,.88,0c.29,0,.62-.07,1-.13l.28,1.39a4.9,4.9,0,0,1-1.14.31,8.43,8.43,0,0,1-1.34.11,3.5,3.5,0,0,1-2.77-1.12,5.3,5.3,0,0,1-1-3.56v-11H596.7v-1.53h2.91v-4.33Z"/><path class="cls-48" d="M608.53,298.11l2.55-.2V284.17l-2.55-.2v-1.39h4.41v15.33l2.55.2v1.38h-7Zm4.41-20.37h-1.86v-2.62h1.86Z"/><path class="cls-48" d="M625.84,298.24a5.33,5.33,0,0,0,3.28-1.06,3.48,3.48,0,0,0,1.42-3h1.66l0,.09a4.64,4.64,0,0,1-1.87,3.92,7,7,0,0,1-4.52,1.58,6.43,6.43,0,0,1-5.33-2.37,9.45,9.45,0,0,1-1.89-6.09v-.66a9.43,9.43,0,0,1,1.89-6.06,6.4,6.4,0,0,1,5.31-2.37,8.6,8.6,0,0,1,3.58.73,7,7,0,0,1,2.64,2l.08,3.69h-1.59l-.3-3a5.34,5.34,0,0,0-1.87-1.34,6.24,6.24,0,0,0-2.54-.49,4.51,4.51,0,0,0-4,1.95,8.61,8.61,0,0,0-1.3,4.9v.66a8.69,8.69,0,0,0,1.3,4.94A4.52,4.52,0,0,0,625.84,298.24Z"/><path class="cls-48" d="M635.59,298.11l2.55-.2V284.17l-2.55-.2v-1.39H640v15.33l2.55.2v1.38h-7ZM640,277.74h-1.86v-2.62H640Z"/><path class="cls-48" d="M645.18,284v-1.39h4.11l.23,2.63a6.13,6.13,0,0,1,2.2-2.17,6.2,6.2,0,0,1,3.13-.77,5.52,5.52,0,0,1,4.77,2.43,11,11,0,0,1,1.72,6.48v.33a9.75,9.75,0,0,1-1.72,6.05,5.62,5.62,0,0,1-4.73,2.26,6.79,6.79,0,0,1-3.12-.68,5.71,5.71,0,0,1-2.18-1.93v7.19l2.55.2V306h-7V304.6l2.55-.2V284.17Zm14.28,7.2a9.71,9.71,0,0,0-1.28-5.25,4.16,4.16,0,0,0-3.75-2,4.93,4.93,0,0,0-3.07.9,5.52,5.52,0,0,0-1.77,2.34v8.13a5.11,5.11,0,0,0,1.85,2.19,5.38,5.38,0,0,0,3,.8,4.24,4.24,0,0,0,3.73-1.84,8.45,8.45,0,0,0,1.27-4.89Z"/><path class="cls-48" d="M676.06,299.49q-.19-.86-.27-1.48a10.05,10.05,0,0,1-.08-1.27,7.46,7.46,0,0,1-2.5,2.2,7.08,7.08,0,0,1-3.52.88,5.39,5.39,0,0,1-3.84-1.28,4.54,4.54,0,0,1-1.36-3.47,4.28,4.28,0,0,1,2-3.72A9.58,9.58,0,0,1,672,290h3.73v-2.23a3.61,3.61,0,0,0-1.16-2.84,4.75,4.75,0,0,0-3.26-1,8.2,8.2,0,0,0-2.57.38,5.81,5.81,0,0,0-1.95,1l-.16,2.27h-1.55l0-3.25a9.73,9.73,0,0,1,2.8-1.47,10.6,10.6,0,0,1,3.48-.56,6.8,6.8,0,0,1,4.5,1.42,5,5,0,0,1,1.7,4.08v8.31q0,.52,0,1a7.54,7.54,0,0,0,.1.93l1.69.11v1.38Zm-6.16-1.33a6.77,6.77,0,0,0,3.58-.94,5.54,5.54,0,0,0,2.23-2.42v-3.39h-3.77a7,7,0,0,0-4.07,1.05,3.14,3.14,0,0,0-1.52,2.66,2.79,2.79,0,0,0,.95,2.2A3.79,3.79,0,0,0,669.9,298.16Z"/><path class="cls-48" d="M681.7,298.11l2.55-.2V284.17l-2.55-.2v-1.39h4.2l.17,3a6,6,0,0,1,2.2-2.41,6.12,6.12,0,0,1,3.27-.85,5.21,5.21,0,0,1,4.19,1.68q1.44,1.68,1.44,5.24v8.72l2.55.2v1.38h-7v-1.37l2.55-.2v-8.7q0-2.91-1.09-4.11a4,4,0,0,0-3.09-1.2,4.84,4.84,0,0,0-3.21,1,5.79,5.79,0,0,0-1.79,2.76v10.22l2.55.2v1.38h-7Z"/><path class="cls-48" d="M714.25,297a5.83,5.83,0,0,1-2.17,2,6.48,6.48,0,0,1-3.12.72,5.61,5.61,0,0,1-4.74-2.27,9.79,9.79,0,0,1-1.71-6v-.33a11,11,0,0,1,1.71-6.48,5.51,5.51,0,0,1,4.77-2.43,5.8,5.8,0,0,1,5.22,2.86v-8.42l-2.55-.2v-1.39h4.42v22.8l2.55.2v1.38H714.4Zm-9.86-5.55a8.57,8.57,0,0,0,1.23,4.88,4.16,4.16,0,0,0,3.7,1.81,5.28,5.28,0,0,0,3-.81,5.4,5.4,0,0,0,1.88-2.23v-8a5.83,5.83,0,0,0-1.8-2.34,4.88,4.88,0,0,0-3.05-.91,4.07,4.07,0,0,0-3.71,2,9.94,9.94,0,0,0-1.24,5.26Z"/><path class="cls-48" d="M721.5,290.78a9.08,9.08,0,0,1,2-6.12,7.36,7.36,0,0,1,10.86,0,9.09,9.09,0,0,1,2,6.13v.52a9.1,9.1,0,0,1-2,6.13,7.39,7.39,0,0,1-10.87,0,9.07,9.07,0,0,1-2-6.13Zm1.88.52a8,8,0,0,0,1.48,4.94,5.24,5.24,0,0,0,8.23,0,8.05,8.05,0,0,0,1.48-4.94v-.52a8,8,0,0,0-1.49-4.91,5.2,5.2,0,0,0-8.23,0,8,8,0,0,0-1.48,4.91Z"/><path class="cls-48" d="M759,297a5.83,5.83,0,0,1-2.17,2,6.48,6.48,0,0,1-3.12.72,5.61,5.61,0,0,1-4.74-2.27,9.79,9.79,0,0,1-1.71-6v-.33A11,11,0,0,1,749,284.7a5.51,5.51,0,0,1,4.77-2.43,5.8,5.8,0,0,1,5.22,2.86v-8.42l-2.55-.2v-1.39h4.42v22.8l2.55.2v1.38h-4.22Zm-9.86-5.55a8.57,8.57,0,0,0,1.23,4.88,4.16,4.16,0,0,0,3.7,1.81,5.28,5.28,0,0,0,3-.81,5.4,5.4,0,0,0,1.88-2.23v-8a5.83,5.83,0,0,0-1.8-2.34,4.88,4.88,0,0,0-3.05-.91,4.07,4.07,0,0,0-3.71,2,9.94,9.94,0,0,0-1.24,5.26Z"/><path class="cls-48" d="M773.73,299.81a6.79,6.79,0,0,1-5.28-2.34,8.57,8.57,0,0,1-2.09-5.95v-.86a8.82,8.82,0,0,1,2.09-6,6.46,6.46,0,0,1,5-2.39,6.26,6.26,0,0,1,4.89,2,7.53,7.53,0,0,1,1.78,5.25v1.59H768.21v.45a7.46,7.46,0,0,0,1.52,4.77,4.84,4.84,0,0,0,4,1.93,8.13,8.13,0,0,0,3-.48,5.87,5.87,0,0,0,2.11-1.39l.8,1.28a6.76,6.76,0,0,1-2.41,1.59A9.26,9.26,0,0,1,773.73,299.81Zm-.25-16a4.48,4.48,0,0,0-3.48,1.59,6.79,6.79,0,0,0-1.65,4l0,.08h9.91V289a5.41,5.41,0,0,0-1.3-3.69A4.43,4.43,0,0,0,773.48,283.86Z"/><path class="cls-48" d="M803.7,296.71a5.75,5.75,0,0,1-2.18,2.3,6.32,6.32,0,0,1-3.26.81,5.14,5.14,0,0,1-4.18-1.81q-1.51-1.81-1.51-5.62v-8.2l-2.09-.2v-1.39h4v9.83a7.27,7.27,0,0,0,1.05,4.44,3.58,3.58,0,0,0,3,1.34,5.54,5.54,0,0,0,3.38-.94,5,5,0,0,0,1.77-2.59V284.17l-2.41-.2v-1.39h4.28v15.33l2.27.2v1.38h-3.91Z"/><path class="cls-48" d="M810.12,284v-1.39h4.2l.17,2.8a5.92,5.92,0,0,1,2.17-2.3,6.19,6.19,0,0,1,3.23-.81,5.35,5.35,0,0,1,3.23.95A5.23,5.23,0,0,1,825,286.1a6.57,6.57,0,0,1,2.18-2.8,5.72,5.72,0,0,1,3.45-1,5.11,5.11,0,0,1,4.18,1.8q1.48,1.8,1.48,5.56v8.27l2.55.22v1.38h-7v-1.37l2.55-.22v-8.3q0-3.12-1.1-4.41a3.82,3.82,0,0,0-3.07-1.29,4.17,4.17,0,0,0-3.37,1.39,6.68,6.68,0,0,0-1.46,3.55c0,.08,0,.16,0,.23s0,.17,0,.28v8.56l2.55.2v1.38h-7v-1.37l2.55-.2V289.6a6.8,6.8,0,0,0-1.12-4.38,3.81,3.81,0,0,0-3.07-1.32,4.67,4.67,0,0,0-3.16,1,5.36,5.36,0,0,0-1.63,2.71v10.3l2.55.2v1.38h-7v-1.37l2.55-.2V284.17Z"/><path class="cls-48" d="M852.81,299.49q-.19-.86-.27-1.48a10.05,10.05,0,0,1-.08-1.27,7.46,7.46,0,0,1-2.5,2.2,7.08,7.08,0,0,1-3.52.88,5.39,5.39,0,0,1-3.84-1.28,4.54,4.54,0,0,1-1.36-3.47,4.28,4.28,0,0,1,2-3.72,9.58,9.58,0,0,1,5.47-1.37h3.73v-2.23a3.61,3.61,0,0,0-1.16-2.84,4.75,4.75,0,0,0-3.26-1,8.2,8.2,0,0,0-2.57.38,5.81,5.81,0,0,0-1.95,1l-.16,2.27h-1.55l0-3.25a9.73,9.73,0,0,1,2.8-1.47,10.6,10.6,0,0,1,3.48-.56,6.8,6.8,0,0,1,4.5,1.42,5,5,0,0,1,1.7,4.08v8.31q0,.52,0,1a7.54,7.54,0,0,0,.1.93l1.69.11v1.38Zm-6.16-1.33a6.77,6.77,0,0,0,3.58-.94,5.54,5.54,0,0,0,2.23-2.42v-3.39H848.7a7,7,0,0,0-4.07,1.05,3.14,3.14,0,0,0-1.52,2.66,2.79,2.79,0,0,0,.95,2.2A3.79,3.79,0,0,0,846.65,298.16Z"/><path class="cls-48" d="M866.46,290.88a9.31,9.31,0,0,1,2-6.18,7.51,7.51,0,0,1,11.05,0,9.28,9.28,0,0,1,2,6.19v.34a9.26,9.26,0,0,1-2,6.19,7.55,7.55,0,0,1-11.06,0,9.27,9.27,0,0,1-2-6.18Zm3.08.34a8,8,0,0,0,1.13,4.44,4.08,4.08,0,0,0,6.7,0,8,8,0,0,0,1.14-4.44v-.34a8,8,0,0,0-1.14-4.42,3.75,3.75,0,0,0-3.36-1.77,3.71,3.71,0,0,0-3.34,1.77,8.08,8.08,0,0,0-1.12,4.42Z"/><path class="cls-48" d="M883.67,277.1v-2h5.63v22l2.55.44v2h-8.17v-2l2.55-.44V277.53Z"/><path class="cls-48" d="M894.17,297.52l2.55-.44V285l-2.55-.44v-2h5.63v14.5l2.55.44v2h-8.17Zm5.63-19.27h-3.08v-3.14h3.08Z"/><path class="cls-48" d="M904.07,297.52l2.55-.44V285l-2.55-.44v-2h5.31l.2,2.2a5.53,5.53,0,0,1,2.09-1.86,6.42,6.42,0,0,1,3-.66,5.23,5.23,0,0,1,2.9.78,4.74,4.74,0,0,1,1.82,2.34,6.27,6.27,0,0,1,2.11-2.28,5.54,5.54,0,0,1,3.06-.84,5.08,5.08,0,0,1,4.09,1.77,8.1,8.1,0,0,1,1.5,5.34v7.7l2.55.44v2H924.5v-2l2.55-.44v-7.73a5.63,5.63,0,0,0-.86-3.54,3.12,3.12,0,0,0-2.55-1,3.25,3.25,0,0,0-2.59,1.13,4.92,4.92,0,0,0-1.13,2.85v8.33l2.55.44v2h-8.17v-2l2.55-.44v-7.73a5.55,5.55,0,0,0-.88-3.48,3.08,3.08,0,0,0-2.55-1.1,4.23,4.23,0,0,0-2.31.58A3.73,3.73,0,0,0,909.7,287v10.11l2.55.44v2h-8.17Z"/><path class="cls-48" d="M934.54,304l2.55-.44V285l-2.55-.44v-2h5.19l.28,2.06a5.69,5.69,0,0,1,2.05-1.77,6.16,6.16,0,0,1,2.8-.61,5.62,5.62,0,0,1,4.88,2.49,11.28,11.28,0,0,1,1.74,6.59v.33a9.32,9.32,0,0,1-1.75,5.9,5.79,5.79,0,0,1-4.83,2.24,6.71,6.71,0,0,1-2.74-.52,5.29,5.29,0,0,1-2-1.55v5.83l2.55.44v2h-8.17Zm13.86-12.66a9,9,0,0,0-1.12-4.73,3.67,3.67,0,0,0-3.34-1.84,4.12,4.12,0,0,0-2.25.59,4.47,4.47,0,0,0-1.52,1.63v8.23a4,4,0,0,0,3.8,2.19,3.8,3.8,0,0,0,3.31-1.59,7,7,0,0,0,1.13-4.14Z"/><path class="cls-48" d="M954.31,284.56v-2h5.63v14.5l2.55.44v2h-8.17v-2l2.55-.44V285Zm4.89-8.47h3.59l0,.09-4.2,4.06h-2.3Z"/><path class="cls-48" d="M975.82,299.49q-.14-.69-.22-1.23t-.11-1.09a7.44,7.44,0,0,1-2.23,1.9,6.38,6.38,0,0,1-6.87-.53,4.74,4.74,0,0,1-1.37-3.63,4.21,4.21,0,0,1,1.95-3.71,9.48,9.48,0,0,1,5.34-1.3h3.17v-2a3,3,0,0,0-.94-2.35,3.7,3.7,0,0,0-2.61-.87,6.41,6.41,0,0,0-2,.3,3.83,3.83,0,0,0-1.43.81l-.33,1.78h-2.37V284.3a9.14,9.14,0,0,1,2.8-1.48,11.07,11.07,0,0,1,3.56-.55,7.09,7.09,0,0,1,4.66,1.47,5.14,5.14,0,0,1,1.78,4.2v8.14c0,.22,0,.43,0,.64s0,.42,0,.63l1.25.17v2Zm-5-2.25a5.47,5.47,0,0,0,2.8-.73,4.56,4.56,0,0,0,1.81-1.77V292H972.2a4.68,4.68,0,0,0-3,.88,2.63,2.63,0,0,0-1.1,2.13,2.1,2.1,0,0,0,.69,1.7A3.14,3.14,0,0,0,970.87,297.24Z"/><path class="cls-48" d="M993.81,297.47a5.45,5.45,0,0,1-2,1.75,6.16,6.16,0,0,1-2.77.59,5.78,5.78,0,0,1-4.84-2.24,9.34,9.34,0,0,1-1.74-5.9v-.33a11.28,11.28,0,0,1,1.74-6.58,5.6,5.6,0,0,1,4.87-2.5,6,6,0,0,1,2.65.55,5.49,5.49,0,0,1,2,1.6v-6.89l-2.55-.44v-2h5.63v22l2.55.44v2h-5.22Zm-8.3-5.8a7.18,7.18,0,0,0,1,4.09,3.63,3.63,0,0,0,3.23,1.55,4.08,4.08,0,0,0,2.31-.62,4.76,4.76,0,0,0,1.55-1.77v-7.84a4.76,4.76,0,0,0-1.55-1.69,4.07,4.07,0,0,0-2.28-.62,3.5,3.5,0,0,0-3.26,1.83,9.44,9.44,0,0,0-1.05,4.75Z"/><path class="cls-48" d="M1012.65,299.49q-.14-.69-.22-1.23t-.11-1.09a7.44,7.44,0,0,1-2.23,1.9,6.38,6.38,0,0,1-6.87-.53,4.74,4.74,0,0,1-1.37-3.63,4.21,4.21,0,0,1,1.95-3.71,9.48,9.48,0,0,1,5.34-1.3h3.17v-2a3,3,0,0,0-.94-2.35,3.7,3.7,0,0,0-2.61-.87,6.41,6.41,0,0,0-2,.3,3.83,3.83,0,0,0-1.43.81l-.33,1.78h-2.37V284.3a9.14,9.14,0,0,1,2.8-1.48,11.07,11.07,0,0,1,3.56-.55,7.09,7.09,0,0,1,4.66,1.47,5.14,5.14,0,0,1,1.78,4.2v8.14c0,.22,0,.43,0,.64s0,.42,0,.63l1.25.17v2Zm-5-2.25a5.47,5.47,0,0,0,2.8-.73,4.56,4.56,0,0,0,1.81-1.77V292H1009a4.68,4.68,0,0,0-3,.88,2.63,2.63,0,0,0-1.1,2.13,2.1,2.1,0,0,0,.69,1.7A3.14,3.14,0,0,0,1007.7,297.24Z"/><path class="cls-48" d="M555.07,338.21a7.13,7.13,0,0,1-5.62-2.35,8.85,8.85,0,0,1-2.09-6.1v-.69a8.67,8.67,0,0,1,2.15-6,6.62,6.62,0,0,1,5.09-2.4,6.41,6.41,0,0,1,5.16,2.06,8.19,8.19,0,0,1,1.76,5.5v1.92h-11l0,.08a6.68,6.68,0,0,0,1.23,4,3.93,3.93,0,0,0,3.33,1.57,7.75,7.75,0,0,0,2.74-.45,6.3,6.3,0,0,0,2-1.23l1.2,2a7.37,7.37,0,0,1-2.4,1.48A9.6,9.6,0,0,1,555.07,338.21Zm-.47-15.12a3.34,3.34,0,0,0-2.64,1.3,6.17,6.17,0,0,0-1.34,3.27l0,.08h7.8v-.41a4.72,4.72,0,0,0-1-3A3.45,3.45,0,0,0,554.6,323.09Z"/><path class="cls-48" d="M577.5,326.29h-2.31l-.5-2a4.18,4.18,0,0,0-1.41-.85,5.47,5.47,0,0,0-1.93-.32,3.55,3.55,0,0,0-2.44.72,2.25,2.25,0,0,0-.8,1.73,1.93,1.93,0,0,0,.7,1.58,7.28,7.28,0,0,0,2.86,1,12.34,12.34,0,0,1,4.77,1.87,3.77,3.77,0,0,1,1.56,3.16,4.37,4.37,0,0,1-1.82,3.64,7.62,7.62,0,0,1-4.76,1.39,12.36,12.36,0,0,1-3.45-.45,9.18,9.18,0,0,1-2.73-1.29l0-3.86h2.31l.58,2.27a3.2,3.2,0,0,0,1.45.7,8,8,0,0,0,1.87.22,4.35,4.35,0,0,0,2.57-.66,2,2,0,0,0,.93-1.74,2.1,2.1,0,0,0-.77-1.67,7.28,7.28,0,0,0-2.93-1.14,12.27,12.27,0,0,1-4.64-1.83,3.68,3.68,0,0,1-1.56-3.12,4.41,4.41,0,0,1,1.76-3.52,6.94,6.94,0,0,1,4.57-1.45,11.11,11.11,0,0,1,3.45.5,7.21,7.21,0,0,1,2.55,1.39Z"/><path class="cls-48" d="M588.46,335.81a4.15,4.15,0,0,0,2.7-.95,2.89,2.89,0,0,0,1.16-2.32h2.77l0,.09a4.74,4.74,0,0,1-1.95,3.88,7.11,7.11,0,0,1-4.71,1.7,6.82,6.82,0,0,1-5.63-2.41,9.31,9.31,0,0,1-1.95-6v-.66a9.26,9.26,0,0,1,2-6,6.81,6.81,0,0,1,5.63-2.41,9.45,9.45,0,0,1,3.65.67,7.38,7.38,0,0,1,2.68,1.84l.14,3.75h-2.45l-.67-2.66a4.09,4.09,0,0,0-1.41-.86,5.4,5.4,0,0,0-1.94-.33,3.71,3.71,0,0,0-3.46,1.74,8.2,8.2,0,0,0-1,4.27v.66a8.3,8.3,0,0,0,1,4.32A3.71,3.71,0,0,0,588.46,335.81Z"/><path class="cls-48" d="M598.14,329.28a9.31,9.31,0,0,1,2-6.18,7.51,7.51,0,0,1,11.05,0,9.28,9.28,0,0,1,2,6.19v.34a9.26,9.26,0,0,1-2,6.19,7.55,7.55,0,0,1-11.06,0,9.27,9.27,0,0,1-2-6.18Zm3.08.34a8,8,0,0,0,1.13,4.44,4.08,4.08,0,0,0,6.7,0,8,8,0,0,0,1.14-4.44v-.34a8,8,0,0,0-1.14-4.42,3.75,3.75,0,0,0-3.36-1.77,3.71,3.71,0,0,0-3.34,1.77,8.08,8.08,0,0,0-1.12,4.42Z"/><path class="cls-48" d="M615.34,315.5v-2H621v22l2.55.44v2h-8.17v-2l2.55-.44V315.93Z"/><path class="cls-48" d="M636.87,337.89q-.14-.69-.22-1.23t-.11-1.09a7.44,7.44,0,0,1-2.23,1.9,6.38,6.38,0,0,1-6.87-.53,4.74,4.74,0,0,1-1.37-3.63,4.21,4.21,0,0,1,1.95-3.71,9.48,9.48,0,0,1,5.34-1.3h3.17v-2a3,3,0,0,0-.94-2.35,3.7,3.7,0,0,0-2.61-.87,6.41,6.41,0,0,0-2,.3,3.83,3.83,0,0,0-1.43.81l-.33,1.78h-2.37V322.7a9.14,9.14,0,0,1,2.8-1.48,11.07,11.07,0,0,1,3.56-.55,7.09,7.09,0,0,1,4.66,1.47,5.14,5.14,0,0,1,1.78,4.2v8.14c0,.22,0,.43,0,.64s0,.42,0,.63l1.25.17v2Zm-5-2.25a5.47,5.47,0,0,0,2.8-.73,4.56,4.56,0,0,0,1.81-1.77v-2.78h-3.28a4.68,4.68,0,0,0-3,.88,2.63,2.63,0,0,0-1.1,2.13,2.1,2.1,0,0,0,.69,1.7A3.14,3.14,0,0,0,631.92,335.64Z"/><path class="cls-48" d="M643.46,323v-2h5.3l.3,2.45a5.91,5.91,0,0,1,1.77-2,4.12,4.12,0,0,1,2.41-.73,5.31,5.31,0,0,1,.74.05,4.29,4.29,0,0,1,.59.12l-.41,2.86-1.75-.09a3.52,3.52,0,0,0-2,.57,3.69,3.69,0,0,0-1.28,1.6v9.7l2.55.44v2h-8.17v-2l2.55-.44V323.4Z"/><path class="cls-48" d="M659.54,337.14a7.11,7.11,0,0,1-.59,2.81,6.82,6.82,0,0,1-1.6,2.33l-1.11-.81a8.16,8.16,0,0,0,1.09-2,6.85,6.85,0,0,0,.35-2.25v-2.22h1.86Z"/><path class="cls-48" d="M670.73,329.57a11,11,0,0,1,1.71-6.48,5.51,5.51,0,0,1,4.77-2.43,5.78,5.78,0,0,1,5.19,2.81l.19-2.5h1.64v21.81l2.55.2v1.39h-7V343l2.55-.2v-7.12a5.78,5.78,0,0,1-2.16,1.89,6.6,6.6,0,0,1-3,.66,5.61,5.61,0,0,1-4.74-2.27,9.79,9.79,0,0,1-1.71-6Zm1.89.33a8.68,8.68,0,0,0,1.23,4.9,4.14,4.14,0,0,0,3.7,1.84,5.23,5.23,0,0,0,2.95-.79,5.33,5.33,0,0,0,1.87-2.16v-8.25a6.11,6.11,0,0,0-1.82-2.28,4.74,4.74,0,0,0-3-.89,4.07,4.07,0,0,0-3.71,2,10,10,0,0,0-1.24,5.27Z"/><path class="cls-48" d="M701,335.1a5.75,5.75,0,0,1-2.18,2.3,6.32,6.32,0,0,1-3.26.81,5.14,5.14,0,0,1-4.18-1.81q-1.51-1.81-1.51-5.62v-8.2l-2.09-.2V321h4v9.83a7.27,7.27,0,0,0,1.05,4.44,3.58,3.58,0,0,0,3,1.34,5.54,5.54,0,0,0,3.38-.94,5,5,0,0,0,1.77-2.59V322.57l-2.41-.2V321h4.28v15.33l2.27.2v1.38H701.2Z"/><path class="cls-48" d="M715.31,338.21a6.79,6.79,0,0,1-5.28-2.34,8.57,8.57,0,0,1-2.09-5.95v-.86a8.82,8.82,0,0,1,2.09-6,6.46,6.46,0,0,1,5-2.39,6.26,6.26,0,0,1,4.89,2,7.53,7.53,0,0,1,1.78,5.25v1.59H709.79v.45a7.46,7.46,0,0,0,1.52,4.77,4.84,4.84,0,0,0,4,1.93,8.13,8.13,0,0,0,3-.48,5.87,5.87,0,0,0,2.11-1.39l.8,1.28a6.76,6.76,0,0,1-2.41,1.59A9.26,9.26,0,0,1,715.31,338.21Zm-.25-16a4.48,4.48,0,0,0-3.48,1.59,6.79,6.79,0,0,0-1.65,4l0,.08h9.91v-.47a5.41,5.41,0,0,0-1.3-3.69A4.43,4.43,0,0,0,715.06,322.26Z"/><path class="cls-48" d="M740.31,338.21a6.79,6.79,0,0,1-5.28-2.34,8.57,8.57,0,0,1-2.09-5.95v-.86a8.82,8.82,0,0,1,2.09-6,6.46,6.46,0,0,1,5-2.39,6.26,6.26,0,0,1,4.89,2,7.53,7.53,0,0,1,1.78,5.25v1.59H734.79v.45a7.46,7.46,0,0,0,1.52,4.77,4.84,4.84,0,0,0,4,1.93,8.13,8.13,0,0,0,3-.48,5.87,5.87,0,0,0,2.11-1.39l.8,1.28a6.76,6.76,0,0,1-2.41,1.59A9.26,9.26,0,0,1,740.31,338.21Zm-.25-16a4.48,4.48,0,0,0-3.48,1.59,6.79,6.79,0,0,0-1.65,4l0,.08h9.91v-.47a5.41,5.41,0,0,0-1.3-3.69A4.43,4.43,0,0,0,740.06,322.26Z"/><path class="cls-48" d="M749.73,336.51l2.55-.2V322.57l-2.55-.2V321h4.2l.17,3a6,6,0,0,1,2.2-2.41,6.12,6.12,0,0,1,3.27-.85,5.21,5.21,0,0,1,4.19,1.68q1.44,1.68,1.44,5.24v8.72l2.55.2v1.38h-7v-1.37l2.55-.2v-8.7q0-2.91-1.09-4.11a4,4,0,0,0-3.09-1.2,4.84,4.84,0,0,0-3.21,1,5.79,5.79,0,0,0-1.79,2.76v10.22l2.55.2v1.38h-7Z"/><path class="cls-48" d="M775.59,322.37l-2.11.16,4.22,11.13.55,2h.09l.59-2,4.16-11.12-2.11-.16V321h5.69v1.39l-1.66.14-6,15.38h-1.5l-6-15.37-1.66-.14V321h5.69Z"/><path class="cls-48" d="M788.5,329.18a9.08,9.08,0,0,1,2-6.12,7.36,7.36,0,0,1,10.86,0,9.09,9.09,0,0,1,2,6.13v.52a9.1,9.1,0,0,1-2,6.13,7.39,7.39,0,0,1-10.87,0,9.07,9.07,0,0,1-2-6.13Zm1.88.52a8,8,0,0,0,1.48,4.94,5.24,5.24,0,0,0,8.23,0,8.05,8.05,0,0,0,1.48-4.94v-.52a8,8,0,0,0-1.49-4.91,5.2,5.2,0,0,0-8.23,0,8,8,0,0,0-1.48,4.91Z"/><path class="cls-48" d="M805.81,314.9v-1.39h4.41v22.8l2.55.2v1.38h-7v-1.37l2.55-.2V315.1Z"/><path class="cls-48" d="M820.62,322.37l-2.11.16,4.22,11.13.55,2h.09l.59-2,4.16-11.12-2.11-.16V321h5.69v1.39l-1.66.14-6,15.38h-1.5l-6-15.37-1.66-.14V321h5.69Z"/><path class="cls-48" d="M841,338.21a6.79,6.79,0,0,1-5.28-2.34,8.57,8.57,0,0,1-2.09-5.95v-.86a8.82,8.82,0,0,1,2.09-6,6.46,6.46,0,0,1,5-2.39,6.26,6.26,0,0,1,4.89,2,7.53,7.53,0,0,1,1.78,5.25v1.59H835.5v.45a7.46,7.46,0,0,0,1.52,4.77,4.84,4.84,0,0,0,4,1.93,8.13,8.13,0,0,0,3-.48,5.87,5.87,0,0,0,2.11-1.39l.8,1.28a6.76,6.76,0,0,1-2.41,1.59A9.26,9.26,0,0,1,841,338.21Zm-.25-16a4.48,4.48,0,0,0-3.48,1.59,6.79,6.79,0,0,0-1.65,4l0,.08h9.91v-.47a5.41,5.41,0,0,0-1.3-3.69A4.43,4.43,0,0,0,840.76,322.26Z"/><path class="cls-48" d="M866,338.21a6.79,6.79,0,0,1-5.28-2.34,8.57,8.57,0,0,1-2.09-5.95v-.86a8.82,8.82,0,0,1,2.09-6,6.46,6.46,0,0,1,5-2.39,6.26,6.26,0,0,1,4.89,2,7.53,7.53,0,0,1,1.78,5.25v1.59H860.5v.45a7.46,7.46,0,0,0,1.52,4.77,4.84,4.84,0,0,0,4,1.93,8.13,8.13,0,0,0,3-.48,5.87,5.87,0,0,0,2.11-1.39l.8,1.28a6.76,6.76,0,0,1-2.41,1.59A9.26,9.26,0,0,1,866,338.21Zm-.25-16a4.48,4.48,0,0,0-3.48,1.59,6.79,6.79,0,0,0-1.65,4l0,.08h9.91v-.47a5.41,5.41,0,0,0-1.3-3.69A4.43,4.43,0,0,0,865.76,322.26Z"/><path class="cls-48" d="M888,326.2h-1.53l-.22-2.39a4.76,4.76,0,0,0-1.77-1.14,6.92,6.92,0,0,0-2.46-.41,4.6,4.6,0,0,0-3.07.88,2.66,2.66,0,0,0-1,2.07,2.45,2.45,0,0,0,.88,1.94,8.57,8.57,0,0,0,3.52,1.34,11.54,11.54,0,0,1,4.52,1.84,3.79,3.79,0,0,1,1.5,3.16,4.09,4.09,0,0,1-1.71,3.41,7.26,7.26,0,0,1-4.52,1.3,10.56,10.56,0,0,1-3.41-.52,8.1,8.1,0,0,1-2.66-1.48v-3.41h1.52l.27,2.41a4.35,4.35,0,0,0,1.9,1.09,8.47,8.47,0,0,0,2.4.34,5.18,5.18,0,0,0,3.2-.89,2.64,2.64,0,0,0,1.17-2.16,2.74,2.74,0,0,0-1-2.08,7.93,7.93,0,0,0-3.52-1.45,11.86,11.86,0,0,1-4.48-1.74,3.57,3.57,0,0,1-1.46-3,4.08,4.08,0,0,1,1.64-3.27,6.64,6.64,0,0,1,4.33-1.34,9.72,9.72,0,0,1,3.4.57,6.88,6.88,0,0,1,2.51,1.54Z"/><path class="cls-48" d="M899,336.64a5.33,5.33,0,0,0,3.28-1.06,3.48,3.48,0,0,0,1.42-3h1.66l0,.09a4.64,4.64,0,0,1-1.87,3.92,7,7,0,0,1-4.52,1.58,6.43,6.43,0,0,1-5.33-2.37,9.45,9.45,0,0,1-1.89-6.09v-.66a9.43,9.43,0,0,1,1.89-6.06,6.4,6.4,0,0,1,5.31-2.37,8.6,8.6,0,0,1,3.58.73,7,7,0,0,1,2.64,2l.08,3.69H903.7l-.3-3a5.34,5.34,0,0,0-1.87-1.34,6.24,6.24,0,0,0-2.54-.49,4.51,4.51,0,0,0-4,1.95,8.61,8.61,0,0,0-1.3,4.9v.66a8.69,8.69,0,0,0,1.3,4.94A4.52,4.52,0,0,0,899,336.64Z"/><path class="cls-48" d="M908.89,329.18a9.08,9.08,0,0,1,2-6.12,7.36,7.36,0,0,1,10.86,0,9.09,9.09,0,0,1,2,6.13v.52a9.1,9.1,0,0,1-2,6.13,7.39,7.39,0,0,1-10.87,0,9.07,9.07,0,0,1-2-6.13Zm1.88.52a8,8,0,0,0,1.48,4.94,5.24,5.24,0,0,0,8.23,0A8.05,8.05,0,0,0,922,329.7v-.52a8,8,0,0,0-1.49-4.91,5.2,5.2,0,0,0-8.23,0,8,8,0,0,0-1.48,4.91Z"/><path class="cls-48" d="M926.2,314.9v-1.39h4.41v22.8l2.55.2v1.38h-7v-1.37l2.55-.2V315.1Z"/><path class="cls-48" d="M947.78,337.89q-.19-.86-.27-1.48a10.05,10.05,0,0,1-.08-1.27,7.46,7.46,0,0,1-2.5,2.2,7.08,7.08,0,0,1-3.52.88,5.39,5.39,0,0,1-3.84-1.28,4.54,4.54,0,0,1-1.36-3.47,4.28,4.28,0,0,1,2-3.72,9.58,9.58,0,0,1,5.47-1.37h3.73v-2.23a3.61,3.61,0,0,0-1.16-2.84,4.75,4.75,0,0,0-3.26-1,8.2,8.2,0,0,0-2.57.38,5.81,5.81,0,0,0-1.95,1l-.16,2.27h-1.55l0-3.25a9.73,9.73,0,0,1,2.8-1.47,10.6,10.6,0,0,1,3.48-.56,6.8,6.8,0,0,1,4.5,1.42,5,5,0,0,1,1.7,4.08v8.31q0,.52,0,1a7.54,7.54,0,0,0,.1.93l1.69.11v1.38Zm-6.16-1.33a6.77,6.77,0,0,0,3.58-.94,5.54,5.54,0,0,0,2.23-2.42v-3.39h-3.77a7,7,0,0,0-4.07,1.05,3.14,3.14,0,0,0-1.52,2.66,2.79,2.79,0,0,0,.95,2.2A3.79,3.79,0,0,0,941.62,336.56Z"/><path class="cls-48" d="M966,326.2H964.5l-.22-2.39a4.76,4.76,0,0,0-1.77-1.14,6.92,6.92,0,0,0-2.46-.41,4.6,4.6,0,0,0-3.07.88,2.66,2.66,0,0,0-1,2.07,2.45,2.45,0,0,0,.88,1.94,8.57,8.57,0,0,0,3.52,1.34,11.54,11.54,0,0,1,4.52,1.84,3.79,3.79,0,0,1,1.5,3.16,4.09,4.09,0,0,1-1.71,3.41,7.26,7.26,0,0,1-4.52,1.3,10.56,10.56,0,0,1-3.41-.52,8.1,8.1,0,0,1-2.66-1.48v-3.41h1.52l.27,2.41a4.35,4.35,0,0,0,1.9,1.09,8.47,8.47,0,0,0,2.4.34,5.18,5.18,0,0,0,3.2-.89,2.64,2.64,0,0,0,1.17-2.16,2.74,2.74,0,0,0-1-2.08,7.93,7.93,0,0,0-3.52-1.45,11.86,11.86,0,0,1-4.48-1.74,3.57,3.57,0,0,1-1.46-3,4.08,4.08,0,0,1,1.64-3.27,6.64,6.64,0,0,1,4.33-1.34,9.72,9.72,0,0,1,3.4.57,6.88,6.88,0,0,1,2.51,1.54Z"/><path class="cls-48" d="M989.23,337.89Q989,337,989,336.4a10.05,10.05,0,0,1-.08-1.27,7.46,7.46,0,0,1-2.5,2.2,7.08,7.08,0,0,1-3.52.88,5.39,5.39,0,0,1-3.84-1.28,4.54,4.54,0,0,1-1.36-3.47,4.28,4.28,0,0,1,2-3.72,9.58,9.58,0,0,1,5.47-1.37h3.73v-2.23a3.61,3.61,0,0,0-1.16-2.84,4.75,4.75,0,0,0-3.26-1,8.2,8.2,0,0,0-2.57.38,5.81,5.81,0,0,0-1.95,1l-.16,2.27h-1.55l0-3.25a9.73,9.73,0,0,1,2.8-1.47,10.6,10.6,0,0,1,3.48-.56,6.8,6.8,0,0,1,4.5,1.42,5,5,0,0,1,1.7,4.08v8.31q0,.52,0,1a7.54,7.54,0,0,0,.1.93l1.69.11v1.38Zm-6.16-1.33a6.77,6.77,0,0,0,3.58-.94,5.54,5.54,0,0,0,2.23-2.42v-3.39h-3.77a7,7,0,0,0-4.07,1.05,3.14,3.14,0,0,0-1.52,2.66,2.79,2.79,0,0,0,.95,2.2A3.79,3.79,0,0,0,983.07,336.56Z"/><path class="cls-48" d="M995.21,329.57a11,11,0,0,1,1.71-6.48,5.51,5.51,0,0,1,4.77-2.43,5.78,5.78,0,0,1,5.19,2.81l.19-2.5h1.64v21.81l2.55.2v1.39h-7V343l2.55-.2v-7.12a5.78,5.78,0,0,1-2.16,1.89,6.6,6.6,0,0,1-3,.66,5.61,5.61,0,0,1-4.74-2.27,9.79,9.79,0,0,1-1.71-6Zm1.89.33a8.68,8.68,0,0,0,1.23,4.9,4.14,4.14,0,0,0,3.7,1.84,5.23,5.23,0,0,0,2.95-.79,5.33,5.33,0,0,0,1.87-2.16v-8.25a6.11,6.11,0,0,0-1.82-2.28,4.74,4.74,0,0,0-3-.89,4.07,4.07,0,0,0-3.71,2,10,10,0,0,0-1.24,5.27Z"/><path class="cls-48" d="M1025.51,335.1a5.75,5.75,0,0,1-2.18,2.3,6.32,6.32,0,0,1-3.26.81,5.14,5.14,0,0,1-4.18-1.81q-1.51-1.81-1.51-5.62v-8.2l-2.09-.2V321h4v9.83a7.27,7.27,0,0,0,1.05,4.44,3.58,3.58,0,0,0,3,1.34,5.54,5.54,0,0,0,3.38-.94,5,5,0,0,0,1.77-2.59V322.57l-2.41-.2V321h4.28v15.33l2.27.2v1.38h-3.91Z"/><path class="cls-48" d="M1032.21,336.51l2.55-.2V322.57l-2.55-.2V321h4.41v15.33l2.55.2v1.38h-7Zm4.41-20.37h-1.86v-2.62h1.86Z"/><path class="cls-48" d="M559.23,373.85a5.83,5.83,0,0,1-2.17,2,6.48,6.48,0,0,1-3.12.72,5.61,5.61,0,0,1-4.74-2.27,9.79,9.79,0,0,1-1.71-6V368a11,11,0,0,1,1.71-6.48,5.51,5.51,0,0,1,4.77-2.43,5.8,5.8,0,0,1,5.22,2.86V353.5l-2.55-.2v-1.39h4.42v22.8l2.55.2v1.38h-4.22Zm-9.86-5.55a8.57,8.57,0,0,0,1.23,4.88,4.16,4.16,0,0,0,3.7,1.81,5.28,5.28,0,0,0,3-.81,5.4,5.4,0,0,0,1.88-2.23v-8a5.83,5.83,0,0,0-1.8-2.34,4.88,4.88,0,0,0-3.05-.91,4.07,4.07,0,0,0-3.71,2,9.94,9.94,0,0,0-1.24,5.26Z"/><path class="cls-48" d="M578.15,376.29q-.19-.86-.27-1.48a10.05,10.05,0,0,1-.08-1.27,7.46,7.46,0,0,1-2.5,2.2,7.08,7.08,0,0,1-3.52.88,5.39,5.39,0,0,1-3.84-1.28,4.54,4.54,0,0,1-1.36-3.47,4.28,4.28,0,0,1,2-3.72,9.58,9.58,0,0,1,5.47-1.37h3.73v-2.23a3.61,3.61,0,0,0-1.16-2.84,4.75,4.75,0,0,0-3.26-1,8.2,8.2,0,0,0-2.57.38,5.81,5.81,0,0,0-1.95,1l-.16,2.27h-1.55l0-3.25a9.73,9.73,0,0,1,2.8-1.47,10.6,10.6,0,0,1,3.48-.56,6.8,6.8,0,0,1,4.5,1.42,5,5,0,0,1,1.7,4.08v8.31q0,.52,0,1a7.54,7.54,0,0,0,.1.93l1.69.11v1.38ZM572,375a6.77,6.77,0,0,0,3.58-.94,5.54,5.54,0,0,0,2.23-2.42v-3.39H574a7,7,0,0,0-4.07,1.05,3.14,3.14,0,0,0-1.52,2.66,2.79,2.79,0,0,0,.95,2.2A3.79,3.79,0,0,0,572,375Z"/><path class="cls-48" d="M596,359.38l.23,2.81v.2a6,6,0,0,1,2-2.45,5,5,0,0,1,2.95-.88,4.37,4.37,0,0,1,.7.05,5.37,5.37,0,0,1,.55.12L602.1,361l-1.39-.09a4.24,4.24,0,0,0-2.9,1,5.46,5.46,0,0,0-1.62,2.73v10.09l2.55.2v1.38h-7v-1.37l2.55-.2V361l-2.55-.2v-1.39H596Z"/><path class="cls-48" d="M611.93,376.61a6.79,6.79,0,0,1-5.28-2.34,8.57,8.57,0,0,1-2.09-5.95v-.86a8.82,8.82,0,0,1,2.09-6,6.46,6.46,0,0,1,5-2.39,6.26,6.26,0,0,1,4.89,2,7.53,7.53,0,0,1,1.78,5.25v1.59H606.42v.45a7.46,7.46,0,0,0,1.52,4.77,4.84,4.84,0,0,0,4,1.93,8.13,8.13,0,0,0,3-.48,5.87,5.87,0,0,0,2.11-1.39l.8,1.28A6.76,6.76,0,0,1,615.4,376,9.26,9.26,0,0,1,611.93,376.61Zm-.25-16a4.48,4.48,0,0,0-3.48,1.59,6.79,6.79,0,0,0-1.65,4l0,.08h9.91v-.47a5.41,5.41,0,0,0-1.3-3.69A4.43,4.43,0,0,0,611.68,360.66Z"/><path class="cls-48" d="M621.78,368a11,11,0,0,1,1.73-6.48,5.55,5.55,0,0,1,4.79-2.43,6,6,0,0,1,3.12.79,6.31,6.31,0,0,1,2.18,2.23l.22-2.7h1.58v16.69a7.26,7.26,0,0,1-1.77,5.16,6.41,6.41,0,0,1-4.92,1.89,12.47,12.47,0,0,1-2.6-.3,10.18,10.18,0,0,1-2.41-.81l.5-1.58a10.74,10.74,0,0,0,2.13.75,10.15,10.15,0,0,0,2.35.27,4.51,4.51,0,0,0,3.63-1.42,5.89,5.89,0,0,0,1.22-4v-2.14a5.88,5.88,0,0,1-2.17,2,6.49,6.49,0,0,1-3.08.7,5.64,5.64,0,0,1-4.77-2.27,9.75,9.75,0,0,1-1.72-6Zm1.88.33a8.5,8.5,0,0,0,1.24,4.87A4.19,4.19,0,0,0,628.6,375a5.26,5.26,0,0,0,3-.83,5.37,5.37,0,0,0,1.87-2.28V364a6,6,0,0,0-1.8-2.41,4.81,4.81,0,0,0-3.08-.93,4.11,4.11,0,0,0-3.73,2,9.84,9.84,0,0,0-1.26,5.25Z"/><path class="cls-48" d="M639.51,374.91l2.55-.2V361l-2.55-.2v-1.39h4.41v15.33l2.55.2v1.38h-7Zm4.41-20.37h-1.86v-2.62h1.86Z"/><path class="cls-48" d="M661.28,376.29q-.19-.86-.27-1.48a10.05,10.05,0,0,1-.08-1.27,7.46,7.46,0,0,1-2.5,2.2,7.08,7.08,0,0,1-3.52.88,5.39,5.39,0,0,1-3.84-1.28,4.54,4.54,0,0,1-1.36-3.47,4.28,4.28,0,0,1,2-3.72,9.58,9.58,0,0,1,5.47-1.37h3.73v-2.23a3.61,3.61,0,0,0-1.16-2.84,4.75,4.75,0,0,0-3.26-1,8.2,8.2,0,0,0-2.57.38,5.81,5.81,0,0,0-1.95,1l-.16,2.27h-1.55l0-3.25a9.73,9.73,0,0,1,2.8-1.47,10.6,10.6,0,0,1,3.48-.56,6.8,6.8,0,0,1,4.5,1.42,5,5,0,0,1,1.7,4.08v8.31q0,.52,0,1a7.54,7.54,0,0,0,.1.93l1.69.11v1.38Zm.67-23.42a3.19,3.19,0,0,1-.86,2.28,2.83,2.83,0,0,1-2.14.91,4.06,4.06,0,0,1-2.36-.86,3.78,3.78,0,0,0-2-.86,1.61,1.61,0,0,0-1.23.55,2,2,0,0,0-.5,1.39l-1.23-.28a3.22,3.22,0,0,1,.84-2.26,2.76,2.76,0,0,1,2.13-.91,4.31,4.31,0,0,1,2.3.86,4.15,4.15,0,0,0,2.1.86,1.62,1.62,0,0,0,1.23-.56,2,2,0,0,0,.52-1.42ZM655.12,375a6.77,6.77,0,0,0,3.58-.94,5.54,5.54,0,0,0,2.23-2.42v-3.39h-3.77a7,7,0,0,0-4.07,1.05,3.14,3.14,0,0,0-1.52,2.66,2.79,2.79,0,0,0,.95,2.2A3.79,3.79,0,0,0,655.12,375Z"/><path class="cls-48" d="M667.26,367.58a9.08,9.08,0,0,1,2-6.12,7.36,7.36,0,0,1,10.86,0,9.09,9.09,0,0,1,2,6.13v.52a9.1,9.1,0,0,1-2,6.13,7.39,7.39,0,0,1-10.87,0,9.07,9.07,0,0,1-2-6.13Zm1.88.52a8,8,0,0,0,1.48,4.94,5.24,5.24,0,0,0,8.23,0,8.05,8.05,0,0,0,1.48-4.94v-.52a8,8,0,0,0-1.49-4.91,5.2,5.2,0,0,0-8.23,0,8,8,0,0,0-1.48,4.91Z"/><path class="cls-48" d="M688,375.54a7.11,7.11,0,0,1-.59,2.81,6.82,6.82,0,0,1-1.6,2.33l-1.11-.81a8.16,8.16,0,0,0,1.09-2,6.85,6.85,0,0,0,.35-2.25v-2.22H688Z"/><path class="cls-48" d="M706.39,375a5.33,5.33,0,0,0,3.28-1.06,3.48,3.48,0,0,0,1.42-3h1.66l0,.09a4.64,4.64,0,0,1-1.87,3.92,7,7,0,0,1-4.52,1.58,6.43,6.43,0,0,1-5.33-2.37,9.45,9.45,0,0,1-1.89-6.09v-.66a9.43,9.43,0,0,1,1.89-6.06,6.4,6.4,0,0,1,5.31-2.37,8.6,8.6,0,0,1,3.58.73,7,7,0,0,1,2.64,2l.08,3.69h-1.59l-.3-3a5.34,5.34,0,0,0-1.87-1.34,6.24,6.24,0,0,0-2.54-.49,4.51,4.51,0,0,0-4,1.95,8.61,8.61,0,0,0-1.3,4.9v.66a8.69,8.69,0,0,0,1.3,4.94A4.52,4.52,0,0,0,706.39,375Z"/><path class="cls-48" d="M716.26,367.58a9.08,9.08,0,0,1,2-6.12,7.36,7.36,0,0,1,10.86,0,9.09,9.09,0,0,1,2,6.13v.52a9.1,9.1,0,0,1-2,6.13,7.39,7.39,0,0,1-10.87,0,9.07,9.07,0,0,1-2-6.13Zm1.88.52a8,8,0,0,0,1.48,4.94,5.24,5.24,0,0,0,8.23,0,8.05,8.05,0,0,0,1.48-4.94v-.52a8,8,0,0,0-1.49-4.91,5.2,5.2,0,0,0-8.23,0,8,8,0,0,0-1.48,4.91Z"/><path class="cls-48" d="M733.85,360.77v-1.39h4.2l.17,2.8a5.92,5.92,0,0,1,2.17-2.3,6.19,6.19,0,0,1,3.23-.81,5.35,5.35,0,0,1,3.23.95,5.23,5.23,0,0,1,1.86,2.88,6.57,6.57,0,0,1,2.18-2.8,5.72,5.72,0,0,1,3.45-1,5.11,5.11,0,0,1,4.18,1.8q1.48,1.8,1.48,5.56v8.27l2.55.22v1.38h-7v-1.37l2.55-.22v-8.3q0-3.12-1.1-4.41a3.82,3.82,0,0,0-3.07-1.29,4.17,4.17,0,0,0-3.37,1.39,6.68,6.68,0,0,0-1.46,3.55c0,.08,0,.16,0,.23s0,.17,0,.28v8.56l2.55.2v1.38h-7v-1.37l2.55-.2V366.4a6.8,6.8,0,0,0-1.12-4.38,3.81,3.81,0,0,0-3.07-1.32,4.67,4.67,0,0,0-3.16,1,5.36,5.36,0,0,0-1.63,2.71v10.3l2.55.2v1.38h-7v-1.37l2.55-.2V361Z"/><path class="cls-48" d="M777.56,360.77l-2.11.16,4.22,11.13.55,2h.09l.59-2,4.16-11.12-2.11-.16v-1.39h5.69v1.39l-1.66.14-6,15.38h-1.5l-6-15.37-1.66-.14v-1.39h5.69Z"/><path class="cls-48" d="M802.14,376.29q-.19-.86-.27-1.48a10.05,10.05,0,0,1-.08-1.27,7.46,7.46,0,0,1-2.5,2.2,7.08,7.08,0,0,1-3.52.88,5.39,5.39,0,0,1-3.84-1.28,4.54,4.54,0,0,1-1.36-3.47,4.28,4.28,0,0,1,2-3.72,9.58,9.58,0,0,1,5.47-1.37h3.73v-2.23a3.61,3.61,0,0,0-1.16-2.84,4.75,4.75,0,0,0-3.26-1,8.2,8.2,0,0,0-2.57.38,5.81,5.81,0,0,0-1.95,1l-.16,2.27h-1.55l0-3.25a9.73,9.73,0,0,1,2.8-1.47,10.6,10.6,0,0,1,3.48-.56,6.8,6.8,0,0,1,4.5,1.42,5,5,0,0,1,1.7,4.08v8.31q0,.52,0,1a7.54,7.54,0,0,0,.1.93l1.69.11v1.38ZM796,375a6.77,6.77,0,0,0,3.58-.94,5.54,5.54,0,0,0,2.23-2.42v-3.39H798a7,7,0,0,0-4.07,1.05,3.14,3.14,0,0,0-1.52,2.66,2.79,2.79,0,0,0,.95,2.2A3.79,3.79,0,0,0,796,375Zm3.17-22h2.3l0,.09-3.89,4.06h-1.67Z"/><path class="cls-48" d="M812.17,359.38l.23,2.81v.2a6,6,0,0,1,2-2.45,5,5,0,0,1,2.95-.88,4.37,4.37,0,0,1,.7.05,5.37,5.37,0,0,1,.55.12l-.25,1.75-1.39-.09a4.24,4.24,0,0,0-2.9,1,5.46,5.46,0,0,0-1.62,2.73v10.09l2.55.2v1.38h-7v-1.37l2.55-.2V361l-2.55-.2v-1.39h4.17Z"/><path class="cls-48" d="M820.85,374.91l2.55-.2V361l-2.55-.2v-1.39h4.41v15.33l2.55.2v1.38h-7Zm4.41-20.37H823.4v-2.62h1.86Z"/><path class="cls-48" d="M842.62,376.29q-.19-.86-.27-1.48a10.05,10.05,0,0,1-.08-1.27,7.46,7.46,0,0,1-2.5,2.2,7.08,7.08,0,0,1-3.52.88,5.39,5.39,0,0,1-3.84-1.28,4.54,4.54,0,0,1-1.36-3.47,4.28,4.28,0,0,1,2-3.72,9.58,9.58,0,0,1,5.47-1.37h3.73v-2.23a3.61,3.61,0,0,0-1.16-2.84,4.75,4.75,0,0,0-3.26-1,8.2,8.2,0,0,0-2.57.38,5.81,5.81,0,0,0-1.95,1l-.16,2.27h-1.55l0-3.25a9.73,9.73,0,0,1,2.8-1.47,10.6,10.6,0,0,1,3.48-.56,6.8,6.8,0,0,1,4.5,1.42,5,5,0,0,1,1.7,4.08v8.31q0,.52,0,1a7.54,7.54,0,0,0,.1.93l1.69.11v1.38ZM836.46,375A6.77,6.77,0,0,0,840,374a5.54,5.54,0,0,0,2.23-2.42v-3.39h-3.77a7,7,0,0,0-4.07,1.05,3.14,3.14,0,0,0-1.52,2.66,2.79,2.79,0,0,0,.95,2.2A3.79,3.79,0,0,0,836.46,375Z"/><path class="cls-48" d="M860.87,364.6h-1.53l-.22-2.39a4.76,4.76,0,0,0-1.77-1.14,6.92,6.92,0,0,0-2.46-.41,4.6,4.6,0,0,0-3.07.88,2.66,2.66,0,0,0-1,2.07,2.45,2.45,0,0,0,.88,1.94,8.57,8.57,0,0,0,3.52,1.34,11.54,11.54,0,0,1,4.52,1.84,3.79,3.79,0,0,1,1.5,3.16,4.09,4.09,0,0,1-1.71,3.41,7.26,7.26,0,0,1-4.52,1.3,10.56,10.56,0,0,1-3.41-.52,8.1,8.1,0,0,1-2.66-1.48v-3.41h1.52l.27,2.41a4.35,4.35,0,0,0,1.9,1.09,8.47,8.47,0,0,0,2.4.34,5.18,5.18,0,0,0,3.2-.89,2.64,2.64,0,0,0,1.17-2.16,2.74,2.74,0,0,0-1-2.08,7.93,7.93,0,0,0-3.52-1.45,11.86,11.86,0,0,1-4.48-1.74,3.57,3.57,0,0,1-1.46-3,4.08,4.08,0,0,1,1.64-3.27,6.64,6.64,0,0,1,4.33-1.34,9.72,9.72,0,0,1,3.4.57,6.88,6.88,0,0,1,2.51,1.54Z"/><path class="cls-48" d="M872,360.77v-1.39h4.2l.17,2.8a5.92,5.92,0,0,1,2.17-2.3,6.19,6.19,0,0,1,3.23-.81A5.35,5.35,0,0,1,885,360a5.23,5.23,0,0,1,1.86,2.88,6.57,6.57,0,0,1,2.18-2.8,5.72,5.72,0,0,1,3.45-1,5.11,5.11,0,0,1,4.18,1.8q1.48,1.8,1.48,5.56v8.27l2.55.22v1.38h-7v-1.37l2.55-.22v-8.3q0-3.12-1.1-4.41a3.82,3.82,0,0,0-3.07-1.29,4.17,4.17,0,0,0-3.37,1.39,6.68,6.68,0,0,0-1.46,3.55c0,.08,0,.16,0,.23s0,.17,0,.28v8.56l2.55.2v1.38h-7v-1.37l2.55-.2V366.4a6.8,6.8,0,0,0-1.12-4.38,3.81,3.81,0,0,0-3.07-1.32,4.67,4.67,0,0,0-3.16,1,5.36,5.36,0,0,0-1.63,2.71v10.3l2.55.2v1.38h-7v-1.37l2.55-.2V361Z"/><path class="cls-48" d="M902.85,367.58a9.08,9.08,0,0,1,2-6.12,7.36,7.36,0,0,1,10.86,0,9.09,9.09,0,0,1,2,6.13v.52a9.1,9.1,0,0,1-2,6.13,7.39,7.39,0,0,1-10.87,0,9.07,9.07,0,0,1-2-6.13Zm1.88.52a8,8,0,0,0,1.48,4.94,5.24,5.24,0,0,0,8.23,0,8.05,8.05,0,0,0,1.48-4.94v-.52a8,8,0,0,0-1.49-4.91,5.2,5.2,0,0,0-8.23,0,8,8,0,0,0-1.48,4.91Z"/><path class="cls-48" d="M932.6,373.85a5.83,5.83,0,0,1-2.17,2,6.48,6.48,0,0,1-3.12.72,5.61,5.61,0,0,1-4.74-2.27,9.79,9.79,0,0,1-1.71-6V368a11,11,0,0,1,1.71-6.48,5.51,5.51,0,0,1,4.77-2.43,5.8,5.8,0,0,1,5.22,2.86V353.5l-2.55-.2v-1.39h4.42v22.8l2.55.2v1.38h-4.22Zm-9.86-5.55a8.57,8.57,0,0,0,1.23,4.88,4.16,4.16,0,0,0,3.7,1.81,5.28,5.28,0,0,0,3-.81,5.4,5.4,0,0,0,1.88-2.23v-8a5.83,5.83,0,0,0-1.8-2.34,4.88,4.88,0,0,0-3.05-.91,4.07,4.07,0,0,0-3.71,2,9.94,9.94,0,0,0-1.24,5.26Z"/><path class="cls-48" d="M951.53,376.29q-.19-.86-.27-1.48a10.05,10.05,0,0,1-.08-1.27,7.46,7.46,0,0,1-2.5,2.2,7.08,7.08,0,0,1-3.52.88,5.39,5.39,0,0,1-3.84-1.28,4.54,4.54,0,0,1-1.36-3.47,4.28,4.28,0,0,1,2-3.72,9.58,9.58,0,0,1,5.47-1.37h3.73v-2.23a3.61,3.61,0,0,0-1.16-2.84,4.75,4.75,0,0,0-3.26-1,8.2,8.2,0,0,0-2.57.38,5.81,5.81,0,0,0-1.95,1l-.16,2.27h-1.55l0-3.25a9.73,9.73,0,0,1,2.8-1.47,10.6,10.6,0,0,1,3.48-.56,6.8,6.8,0,0,1,4.5,1.42,5,5,0,0,1,1.7,4.08v8.31q0,.52,0,1a7.54,7.54,0,0,0,.1.93l1.69.11v1.38ZM945.37,375a6.77,6.77,0,0,0,3.58-.94,5.54,5.54,0,0,0,2.23-2.42v-3.39h-3.77a7,7,0,0,0-4.07,1.05,3.14,3.14,0,0,0-1.52,2.66,2.79,2.79,0,0,0,.95,2.2A3.79,3.79,0,0,0,945.37,375Z"/><path class="cls-48" d="M957.14,353.3v-1.39h4.41v22.8l2.55.2v1.38h-7v-1.37l2.55-.2V353.5Z"/><path class="cls-48" d="M966.92,374.91l2.55-.2V361l-2.55-.2v-1.39h4.41v15.33l2.55.2v1.38h-7Zm4.41-20.37h-1.86v-2.62h1.86Z"/><path class="cls-48" d="M988.76,373.85a5.83,5.83,0,0,1-2.17,2,6.48,6.48,0,0,1-3.12.72,5.61,5.61,0,0,1-4.74-2.27,9.79,9.79,0,0,1-1.71-6V368a11,11,0,0,1,1.71-6.48,5.51,5.51,0,0,1,4.77-2.43,5.8,5.8,0,0,1,5.22,2.86V353.5l-2.55-.2v-1.39h4.42v22.8l2.55.2v1.38h-4.22Zm-9.86-5.55a8.57,8.57,0,0,0,1.23,4.88,4.16,4.16,0,0,0,3.7,1.81,5.28,5.28,0,0,0,3-.81,5.4,5.4,0,0,0,1.88-2.23v-8a5.83,5.83,0,0,0-1.8-2.34,4.88,4.88,0,0,0-3.05-.91,4.07,4.07,0,0,0-3.71,2A9.94,9.94,0,0,0,978.9,368Z"/><path class="cls-48" d="M1007.68,376.29q-.19-.86-.27-1.48a10.05,10.05,0,0,1-.08-1.27,7.46,7.46,0,0,1-2.5,2.2,7.08,7.08,0,0,1-3.52.88,5.39,5.39,0,0,1-3.84-1.28,4.54,4.54,0,0,1-1.36-3.47,4.28,4.28,0,0,1,2-3.72,9.58,9.58,0,0,1,5.47-1.37h3.73v-2.23a3.61,3.61,0,0,0-1.16-2.84,4.75,4.75,0,0,0-3.26-1,8.2,8.2,0,0,0-2.57.38,5.81,5.81,0,0,0-1.95,1l-.16,2.27H996.7l0-3.25a9.73,9.73,0,0,1,2.8-1.47,10.6,10.6,0,0,1,3.48-.56,6.8,6.8,0,0,1,4.5,1.42,5,5,0,0,1,1.7,4.08v8.31q0,.52,0,1a7.54,7.54,0,0,0,.1.93l1.69.11v1.38Zm-6.16-1.33a6.77,6.77,0,0,0,3.58-.94,5.54,5.54,0,0,0,2.23-2.42v-3.39h-3.77a7,7,0,0,0-4.07,1.05,3.14,3.14,0,0,0-1.52,2.66,2.79,2.79,0,0,0,.95,2.2A3.79,3.79,0,0,0,1001.53,375Z"/><path class="cls-48" d="M1025.42,373.85a5.83,5.83,0,0,1-2.17,2,6.48,6.48,0,0,1-3.12.72,5.61,5.61,0,0,1-4.74-2.27,9.79,9.79,0,0,1-1.71-6V368a11,11,0,0,1,1.71-6.48,5.51,5.51,0,0,1,4.77-2.43,5.8,5.8,0,0,1,5.22,2.86V353.5l-2.55-.2v-1.39h4.42v22.8l2.55.2v1.38h-4.22Zm-9.86-5.55a8.57,8.57,0,0,0,1.23,4.88,4.16,4.16,0,0,0,3.7,1.81,5.28,5.28,0,0,0,3-.81,5.4,5.4,0,0,0,1.88-2.23v-8a5.83,5.83,0,0,0-1.8-2.34,4.88,4.88,0,0,0-3.05-.91,4.07,4.07,0,0,0-3.71,2,9.94,9.94,0,0,0-1.24,5.26Z"/><path class="cls-48" d="M1040.12,376.61a6.79,6.79,0,0,1-5.28-2.34,8.57,8.57,0,0,1-2.09-5.95v-.86a8.82,8.82,0,0,1,2.09-6,6.46,6.46,0,0,1,5-2.39,6.26,6.26,0,0,1,4.89,2,7.53,7.53,0,0,1,1.78,5.25v1.59H1034.6v.45a7.46,7.46,0,0,0,1.52,4.77,4.84,4.84,0,0,0,4,1.93,8.13,8.13,0,0,0,3-.48,5.87,5.87,0,0,0,2.11-1.39l.8,1.28a6.76,6.76,0,0,1-2.41,1.59A9.26,9.26,0,0,1,1040.12,376.61Zm-.25-16a4.48,4.48,0,0,0-3.48,1.59,6.79,6.79,0,0,0-1.65,4l0,.08h9.91v-.47a5.41,5.41,0,0,0-1.3-3.69A4.43,4.43,0,0,0,1039.87,360.66Z"/><path class="cls-48" d="M1062.15,364.6h-1.53l-.22-2.39a4.76,4.76,0,0,0-1.77-1.14,6.92,6.92,0,0,0-2.46-.41,4.6,4.6,0,0,0-3.07.88,2.66,2.66,0,0,0-1,2.07,2.45,2.45,0,0,0,.88,1.94,8.57,8.57,0,0,0,3.52,1.34,11.54,11.54,0,0,1,4.52,1.84,3.79,3.79,0,0,1,1.5,3.16,4.09,4.09,0,0,1-1.71,3.41,7.26,7.26,0,0,1-4.52,1.3,10.56,10.56,0,0,1-3.41-.52,8.1,8.1,0,0,1-2.66-1.48v-3.41h1.52l.27,2.41a4.35,4.35,0,0,0,1.9,1.09,8.47,8.47,0,0,0,2.4.34,5.18,5.18,0,0,0,3.2-.89,2.64,2.64,0,0,0,1.17-2.16,2.74,2.74,0,0,0-1-2.08,7.93,7.93,0,0,0-3.52-1.45,11.86,11.86,0,0,1-4.48-1.74,3.57,3.57,0,0,1-1.46-3,4.08,4.08,0,0,1,1.64-3.27,6.64,6.64,0,0,1,4.33-1.34,9.72,9.72,0,0,1,3.4.57,6.88,6.88,0,0,1,2.51,1.54Z"/><path class="cls-48" d="M554.93,415a6.79,6.79,0,0,1-5.28-2.34,8.57,8.57,0,0,1-2.09-5.95v-.86a8.82,8.82,0,0,1,2.09-6,6.46,6.46,0,0,1,5-2.39,6.26,6.26,0,0,1,4.89,2,7.53,7.53,0,0,1,1.78,5.25v1.59H549.42v.45a7.46,7.46,0,0,0,1.52,4.77,4.84,4.84,0,0,0,4,1.93,8.13,8.13,0,0,0,3-.48,5.87,5.87,0,0,0,2.11-1.39l.8,1.28a6.76,6.76,0,0,1-2.41,1.59A9.26,9.26,0,0,1,554.93,415Zm-.25-16a4.48,4.48,0,0,0-3.48,1.59,6.79,6.79,0,0,0-1.65,4l0,.08h9.91v-.47a5.41,5.41,0,0,0-1.3-3.69A4.43,4.43,0,0,0,554.68,399.06Z"/><path class="cls-48" d="M577,403h-1.53l-.22-2.39a4.76,4.76,0,0,0-1.77-1.14,6.92,6.92,0,0,0-2.46-.41,4.6,4.6,0,0,0-3.07.88,2.66,2.66,0,0,0-1,2.07,2.45,2.45,0,0,0,.88,1.94,8.57,8.57,0,0,0,3.52,1.34,11.54,11.54,0,0,1,4.52,1.84,3.79,3.79,0,0,1,1.5,3.16,4.09,4.09,0,0,1-1.71,3.41,7.26,7.26,0,0,1-4.52,1.3,10.56,10.56,0,0,1-3.41-.52A8.1,8.1,0,0,1,565,413v-3.41h1.52l.27,2.41a4.35,4.35,0,0,0,1.9,1.09,8.47,8.47,0,0,0,2.4.34,5.18,5.18,0,0,0,3.2-.89,2.64,2.64,0,0,0,1.17-2.16,2.74,2.74,0,0,0-1-2.08,7.93,7.93,0,0,0-3.52-1.45,11.86,11.86,0,0,1-4.48-1.74,3.57,3.57,0,0,1-1.46-3,4.08,4.08,0,0,1,1.64-3.27,6.64,6.64,0,0,1,4.33-1.34,9.72,9.72,0,0,1,3.4.57,6.88,6.88,0,0,1,2.51,1.54Z"/><path class="cls-48" d="M580.21,399.17v-1.39h4.11l.23,2.63a6.13,6.13,0,0,1,2.2-2.17,6.2,6.2,0,0,1,3.13-.77,5.52,5.52,0,0,1,4.77,2.43,11,11,0,0,1,1.72,6.48v.33a9.75,9.75,0,0,1-1.72,6.05,5.62,5.62,0,0,1-4.73,2.26,6.79,6.79,0,0,1-3.12-.68,5.71,5.71,0,0,1-2.18-1.93v7.19l2.55.2v1.39h-7V419.8l2.55-.2V399.37Zm14.28,7.2a9.71,9.71,0,0,0-1.28-5.25,4.16,4.16,0,0,0-3.75-2,4.93,4.93,0,0,0-3.07.9,5.52,5.52,0,0,0-1.77,2.34v8.13a5.11,5.11,0,0,0,1.85,2.19,5.38,5.38,0,0,0,3,.8,4.24,4.24,0,0,0,3.73-1.84,8.45,8.45,0,0,0,1.27-4.89Z"/><path class="cls-48" d="M599.42,406a9.08,9.08,0,0,1,2-6.12,7.36,7.36,0,0,1,10.86,0,9.09,9.09,0,0,1,2,6.13v.52a9.1,9.1,0,0,1-2,6.13,7.39,7.39,0,0,1-10.87,0,9.07,9.07,0,0,1-2-6.13Zm1.88.52a8,8,0,0,0,1.48,4.94,5.24,5.24,0,0,0,8.23,0,8.05,8.05,0,0,0,1.48-4.94V406a8,8,0,0,0-1.49-4.91,5.2,5.2,0,0,0-8.23,0,8,8,0,0,0-1.48,4.91Z"/><path class="cls-48" d="M621.46,397.78l.23,2.81v.2a6,6,0,0,1,2-2.45,5,5,0,0,1,2.95-.88,4.37,4.37,0,0,1,.7.05,5.37,5.37,0,0,1,.55.12l-.25,1.75-1.39-.09a4.24,4.24,0,0,0-2.9,1A5.46,5.46,0,0,0,621.7,403v10.09l2.55.2v1.38h-7v-1.37l2.55-.2V399.37l-2.55-.2v-1.39h4.17Z"/><path class="cls-48" d="M635.07,393.45v4.33h3.72v1.53h-3.72v11a3.6,3.6,0,0,0,.6,2.35,2,2,0,0,0,1.6.7q.45,0,.88,0c.29,0,.62-.07,1-.13l.28,1.39a4.9,4.9,0,0,1-1.14.31,8.43,8.43,0,0,1-1.34.11,3.5,3.5,0,0,1-2.77-1.12,5.3,5.3,0,0,1-1-3.56v-11h-2.91v-1.53h2.91v-4.33Z"/><path class="cls-48" d="M642.1,413.31l2.55-.2V399.37l-2.55-.2v-1.39h4.41v15.33l2.55.2v1.38h-7Zm4.41-20.37h-1.86v-2.62h1.86Z"/><path class="cls-48" d="M657.1,399.17l-2.11.16,4.22,11.13.55,2h.09l.59-2,4.16-11.12-2.11-.16v-1.39h5.69v1.39l-1.66.14-6,15.38h-1.5l-6-15.37-1.66-.14v-1.39h5.69Z"/><path class="cls-48" d="M681.68,414.69q-.19-.86-.27-1.48a10.05,10.05,0,0,1-.08-1.27,7.46,7.46,0,0,1-2.5,2.2,7.08,7.08,0,0,1-3.52.88,5.39,5.39,0,0,1-3.84-1.28,4.54,4.54,0,0,1-1.36-3.47,4.28,4.28,0,0,1,2-3.72,9.58,9.58,0,0,1,5.47-1.37h3.73v-2.23a3.61,3.61,0,0,0-1.16-2.84,4.75,4.75,0,0,0-3.26-1,8.2,8.2,0,0,0-2.57.38,5.81,5.81,0,0,0-1.95,1l-.16,2.27H670.7l0-3.25a9.73,9.73,0,0,1,2.8-1.47,10.6,10.6,0,0,1,3.48-.56,6.8,6.8,0,0,1,4.5,1.42,5,5,0,0,1,1.7,4.08v8.31q0,.52,0,1a7.54,7.54,0,0,0,.1.93l1.69.11v1.38Zm-6.16-1.33a6.77,6.77,0,0,0,3.58-.94,5.54,5.54,0,0,0,2.23-2.42v-3.39h-3.77a7,7,0,0,0-4.07,1.05,3.14,3.14,0,0,0-1.52,2.66,2.79,2.79,0,0,0,.95,2.2A3.79,3.79,0,0,0,675.53,413.36Z"/><path class="cls-48" d="M699.93,403H698.4l-.22-2.39a4.76,4.76,0,0,0-1.77-1.14,6.92,6.92,0,0,0-2.46-.41,4.6,4.6,0,0,0-3.07.88,2.66,2.66,0,0,0-1,2.07,2.45,2.45,0,0,0,.88,1.94,8.57,8.57,0,0,0,3.52,1.34,11.54,11.54,0,0,1,4.52,1.84,3.79,3.79,0,0,1,1.5,3.16,4.09,4.09,0,0,1-1.71,3.41A7.26,7.26,0,0,1,694,415a10.56,10.56,0,0,1-3.41-.52A8.1,8.1,0,0,1,688,413v-3.41h1.52l.27,2.41a4.35,4.35,0,0,0,1.9,1.09,8.47,8.47,0,0,0,2.4.34,5.18,5.18,0,0,0,3.2-.89,2.64,2.64,0,0,0,1.17-2.16,2.74,2.74,0,0,0-1-2.08,7.93,7.93,0,0,0-3.52-1.45,11.86,11.86,0,0,1-4.48-1.74,3.57,3.57,0,0,1-1.46-3,4.08,4.08,0,0,1,1.64-3.27,6.64,6.64,0,0,1,4.33-1.34,9.72,9.72,0,0,1,3.4.57,6.88,6.88,0,0,1,2.51,1.54Z"/><path class="cls-48" d="M718.92,415a6.79,6.79,0,0,1-5.28-2.34,8.57,8.57,0,0,1-2.09-5.95v-.86a8.82,8.82,0,0,1,2.09-6,6.46,6.46,0,0,1,5-2.39,6.26,6.26,0,0,1,4.89,2,7.53,7.53,0,0,1,1.78,5.25v1.59H713.4v.45a7.46,7.46,0,0,0,1.52,4.77,4.84,4.84,0,0,0,4,1.93,8.13,8.13,0,0,0,3-.48,5.87,5.87,0,0,0,2.11-1.39l.8,1.28a6.76,6.76,0,0,1-2.41,1.59A9.26,9.26,0,0,1,718.92,415Zm-.25-16a4.48,4.48,0,0,0-3.48,1.59,6.79,6.79,0,0,0-1.65,4l0,.08h9.91v-.47a5.41,5.41,0,0,0-1.3-3.69A4.43,4.43,0,0,0,718.67,399.06Z"/><path class="cls-48" d="M736.06,399.17v-1.39h4.2l.17,2.8a5.92,5.92,0,0,1,2.17-2.3,6.19,6.19,0,0,1,3.23-.81,5.35,5.35,0,0,1,3.23.95,5.23,5.23,0,0,1,1.86,2.88,6.57,6.57,0,0,1,2.18-2.8,5.72,5.72,0,0,1,3.45-1,5.11,5.11,0,0,1,4.18,1.8q1.48,1.8,1.48,5.56v8.27l2.55.22v1.38h-7v-1.37l2.55-.22v-8.3q0-3.12-1.1-4.41a3.82,3.82,0,0,0-3.07-1.29,4.17,4.17,0,0,0-3.37,1.39,6.68,6.68,0,0,0-1.46,3.55c0,.08,0,.16,0,.23s0,.17,0,.28v8.56l2.55.2v1.38h-7v-1.37l2.55-.2V404.8a6.8,6.8,0,0,0-1.12-4.38,3.81,3.81,0,0,0-3.07-1.32,4.67,4.67,0,0,0-3.16,1,5.36,5.36,0,0,0-1.63,2.71v10.3l2.55.2v1.38h-7v-1.37l2.55-.2V399.37Z"/><path class="cls-48" d="M779.5,411.91a5.75,5.75,0,0,1-2.18,2.3,6.32,6.32,0,0,1-3.26.81,5.14,5.14,0,0,1-4.18-1.81q-1.51-1.81-1.51-5.62v-8.2l-2.09-.2v-1.39h4v9.83a7.27,7.27,0,0,0,1.05,4.44,3.58,3.58,0,0,0,3,1.34,5.54,5.54,0,0,0,3.38-.94,5,5,0,0,0,1.77-2.59V399.37l-2.41-.2v-1.39h4.28v15.33l2.27.2v1.38h-3.91Z"/><path class="cls-48" d="M786.2,413.31l2.55-.2V399.37l-2.55-.2v-1.39h4.41v15.33l2.55.2v1.38h-7Zm4.41-20.37h-1.86v-2.62h1.86Z"/><path class="cls-48" d="M800.59,393.45v4.33h3.72v1.53h-3.72v11a3.6,3.6,0,0,0,.6,2.35,2,2,0,0,0,1.6.7q.45,0,.88,0c.29,0,.62-.07,1-.13l.28,1.39a4.9,4.9,0,0,1-1.14.31,8.43,8.43,0,0,1-1.34.11,3.5,3.5,0,0,1-2.77-1.12,5.3,5.3,0,0,1-1-3.56v-11h-2.91v-1.53h2.91v-4.33Z"/><path class="cls-48" d="M819.42,414.69q-.19-.86-.27-1.48a10.05,10.05,0,0,1-.08-1.27,7.46,7.46,0,0,1-2.5,2.2,7.08,7.08,0,0,1-3.52.88,5.39,5.39,0,0,1-3.84-1.28,4.54,4.54,0,0,1-1.36-3.47,4.28,4.28,0,0,1,2-3.72,9.58,9.58,0,0,1,5.47-1.37h3.73v-2.23a3.61,3.61,0,0,0-1.16-2.84,4.75,4.75,0,0,0-3.26-1,8.2,8.2,0,0,0-2.57.38,5.81,5.81,0,0,0-1.95,1l-.16,2.27h-1.55l0-3.25a9.73,9.73,0,0,1,2.8-1.47,10.6,10.6,0,0,1,3.48-.56,6.8,6.8,0,0,1,4.5,1.42,5,5,0,0,1,1.7,4.08v8.31q0,.52,0,1a7.54,7.54,0,0,0,.1.93l1.69.11v1.38Zm-6.16-1.33a6.77,6.77,0,0,0,3.58-.94,5.54,5.54,0,0,0,2.23-2.42v-3.39h-3.77a7,7,0,0,0-4.07,1.05,3.14,3.14,0,0,0-1.52,2.66,2.79,2.79,0,0,0,.95,2.2A3.79,3.79,0,0,0,813.26,413.36Z"/><path class="cls-48" d="M837.67,403h-1.53l-.22-2.39a4.76,4.76,0,0,0-1.77-1.14,6.92,6.92,0,0,0-2.46-.41,4.6,4.6,0,0,0-3.07.88,2.66,2.66,0,0,0-1,2.07,2.45,2.45,0,0,0,.88,1.94A8.57,8.57,0,0,0,832,405.3a11.54,11.54,0,0,1,4.52,1.84,3.79,3.79,0,0,1,1.5,3.16,4.09,4.09,0,0,1-1.71,3.41,7.26,7.26,0,0,1-4.52,1.3,10.56,10.56,0,0,1-3.41-.52A8.1,8.1,0,0,1,825.7,413v-3.41h1.52l.27,2.41a4.35,4.35,0,0,0,1.9,1.09,8.47,8.47,0,0,0,2.4.34,5.18,5.18,0,0,0,3.2-.89,2.64,2.64,0,0,0,1.17-2.16,2.74,2.74,0,0,0-1-2.08,7.93,7.93,0,0,0-3.52-1.45,11.86,11.86,0,0,1-4.48-1.74,3.57,3.57,0,0,1-1.46-3,4.08,4.08,0,0,1,1.64-3.27,6.64,6.64,0,0,1,4.33-1.34,9.72,9.72,0,0,1,3.4.57,6.88,6.88,0,0,1,2.51,1.54Z"/><path class="cls-48" d="M860.1,414.69q-.14-.69-.22-1.23t-.11-1.09a7.44,7.44,0,0,1-2.23,1.9,6.38,6.38,0,0,1-6.87-.53,4.74,4.74,0,0,1-1.37-3.63,4.21,4.21,0,0,1,1.95-3.71,9.48,9.48,0,0,1,5.34-1.3h3.17v-2a3,3,0,0,0-.94-2.35,3.7,3.7,0,0,0-2.61-.87,6.41,6.41,0,0,0-2,.3,3.83,3.83,0,0,0-1.43.81l-.33,1.78H850V399.5a9.14,9.14,0,0,1,2.8-1.48,11.07,11.07,0,0,1,3.56-.55,7.09,7.09,0,0,1,4.66,1.47,5.14,5.14,0,0,1,1.78,4.2v8.14c0,.22,0,.43,0,.64s0,.42,0,.63l1.25.17v2Zm-5-2.25a5.47,5.47,0,0,0,2.8-.73,4.56,4.56,0,0,0,1.81-1.77v-2.78h-3.28a4.68,4.68,0,0,0-3,.88,2.63,2.63,0,0,0-1.1,2.13,2.1,2.1,0,0,0,.69,1.7A3.14,3.14,0,0,0,855.15,412.44Z"/><path class="cls-48" d="M872.07,393.7v4.08h3.2v2.28h-3.2v10.27a2.3,2.3,0,0,0,.49,1.67,1.78,1.78,0,0,0,1.3.48,6.74,6.74,0,0,0,.91-.07c.34,0,.62-.1.85-.15l.42,2.11a4,4,0,0,1-1.28.46,8.13,8.13,0,0,1-1.69.18,4,4,0,0,1-3-1.13,4.92,4.92,0,0,1-1.11-3.55V400.06h-2.67v-2.28H869V393.7Z"/><path class="cls-48" d="M878.42,412.72l2.55-.44V400.2l-2.55-.44v-2H884v14.5l2.55.44v2h-8.17ZM884,393.45H881v-3.14H884Z"/><path class="cls-48" d="M894.73,399.76l-2,.31,3.48,9.63.28,1.22h.09l.3-1.22,3.38-9.62-2-.31v-2h6.53v2l-1.39.23-5.67,14.69h-2.33L889.59,400l-1.39-.23v-2h6.53Z"/><path class="cls-48" d="M906.79,412.72l2.55-.44V400.2l-2.55-.44v-2h5.63v14.5l2.55.44v2h-8.17Zm5.63-19.27h-3.08v-3.14h3.08Z"/><path class="cls-48" d="M928.7,412.67a5.45,5.45,0,0,1-2,1.75,6.16,6.16,0,0,1-2.77.59,5.78,5.78,0,0,1-4.84-2.24,9.34,9.34,0,0,1-1.74-5.9v-.33a11.28,11.28,0,0,1,1.74-6.58,5.6,5.6,0,0,1,4.87-2.5,6,6,0,0,1,2.65.55,5.49,5.49,0,0,1,2,1.6v-6.89L926,392.3v-2h5.63v22l2.55.44v2h-5.22Zm-8.3-5.8a7.18,7.18,0,0,0,1,4.09,3.63,3.63,0,0,0,3.23,1.55,4.08,4.08,0,0,0,2.31-.62,4.76,4.76,0,0,0,1.55-1.77v-7.84a4.76,4.76,0,0,0-1.55-1.69,4.07,4.07,0,0,0-2.28-.62,3.5,3.5,0,0,0-3.26,1.83,9.44,9.44,0,0,0-1.05,4.75Z"/><path class="cls-48" d="M947.54,414.69q-.14-.69-.22-1.23t-.11-1.09a7.44,7.44,0,0,1-2.23,1.9,6.38,6.38,0,0,1-6.87-.53,4.74,4.74,0,0,1-1.37-3.63,4.21,4.21,0,0,1,1.95-3.71,9.48,9.48,0,0,1,5.34-1.3h3.17v-2a3,3,0,0,0-.94-2.35,3.7,3.7,0,0,0-2.61-.87,6.41,6.41,0,0,0-2,.3,3.83,3.83,0,0,0-1.43.81l-.33,1.78h-2.37V399.5a9.14,9.14,0,0,1,2.8-1.48,11.07,11.07,0,0,1,3.56-.55,7.09,7.09,0,0,1,4.66,1.47,5.14,5.14,0,0,1,1.78,4.2v8.14c0,.22,0,.43,0,.64s0,.42,0,.63l1.25.17v2Zm-5-2.25a5.47,5.47,0,0,0,2.8-.73,4.56,4.56,0,0,0,1.81-1.77v-2.78h-3.28a4.68,4.68,0,0,0-3,.88,2.63,2.63,0,0,0-1.1,2.13,2.1,2.1,0,0,0,.69,1.7A3.14,3.14,0,0,0,942.59,412.44Z"/><path class="cls-48" d="M965.53,412.67a5.45,5.45,0,0,1-2,1.75,6.16,6.16,0,0,1-2.77.59,5.78,5.78,0,0,1-4.84-2.24,9.34,9.34,0,0,1-1.74-5.9v-.33a11.28,11.28,0,0,1,1.74-6.58,5.6,5.6,0,0,1,4.87-2.5,6,6,0,0,1,2.65.55,5.49,5.49,0,0,1,2,1.6v-6.89l-2.55-.44v-2h5.63v22l2.55.44v2h-5.22Zm-8.3-5.8a7.18,7.18,0,0,0,1,4.09,3.63,3.63,0,0,0,3.23,1.55,4.08,4.08,0,0,0,2.31-.62,4.76,4.76,0,0,0,1.55-1.77v-7.84a4.76,4.76,0,0,0-1.55-1.69,4.07,4.07,0,0,0-2.28-.62,3.5,3.5,0,0,0-3.26,1.83,9.44,9.44,0,0,0-1.05,4.75Z"/><path class="cls-48" d="M981.06,415a7.13,7.13,0,0,1-5.62-2.35,8.85,8.85,0,0,1-2.09-6.1v-.69a8.67,8.67,0,0,1,2.15-6,6.62,6.62,0,0,1,5.09-2.4,6.41,6.41,0,0,1,5.16,2.06,8.19,8.19,0,0,1,1.76,5.5V407h-11l0,.08a6.68,6.68,0,0,0,1.23,4,3.93,3.93,0,0,0,3.33,1.57,7.75,7.75,0,0,0,2.74-.45,6.3,6.3,0,0,0,2-1.23l1.2,2a7.37,7.37,0,0,1-2.4,1.48A9.6,9.6,0,0,1,981.06,415Zm-.47-15.12a3.34,3.34,0,0,0-2.64,1.3,6.17,6.17,0,0,0-1.34,3.27l0,.08h7.8v-.41a4.72,4.72,0,0,0-1-3A3.45,3.45,0,0,0,980.59,399.89Z"/><path class="cls-48" d="M1003.48,403.09h-2.31l-.5-2a4.18,4.18,0,0,0-1.41-.85,5.47,5.47,0,0,0-1.93-.32,3.55,3.55,0,0,0-2.44.72,2.25,2.25,0,0,0-.8,1.73,1.93,1.93,0,0,0,.7,1.58,7.28,7.28,0,0,0,2.86,1,12.34,12.34,0,0,1,4.77,1.87A3.77,3.77,0,0,1,1004,410a4.37,4.37,0,0,1-1.82,3.64A7.62,7.62,0,0,1,997.4,415a12.36,12.36,0,0,1-3.45-.45,9.18,9.18,0,0,1-2.73-1.29l0-3.86h2.31l.58,2.27a3.2,3.2,0,0,0,1.45.7,8,8,0,0,0,1.87.22,4.35,4.35,0,0,0,2.57-.66,2,2,0,0,0,.93-1.74,2.1,2.1,0,0,0-.77-1.67,7.28,7.28,0,0,0-2.93-1.14,12.27,12.27,0,0,1-4.64-1.83,3.68,3.68,0,0,1-1.56-3.12,4.41,4.41,0,0,1,1.76-3.52,6.94,6.94,0,0,1,4.57-1.45,11.11,11.11,0,0,1,3.45.5,7.21,7.21,0,0,1,2.55,1.39Z"/><path class="cls-48" d="M546.75,451.12l2.55-.44V438.6l-2.55-.44v-2h5.31l.2,2.2a5.53,5.53,0,0,1,2.09-1.86,6.42,6.42,0,0,1,3-.66,5.23,5.23,0,0,1,2.9.78A4.74,4.74,0,0,1,562,439a6.27,6.27,0,0,1,2.11-2.28,5.54,5.54,0,0,1,3.06-.84,5.08,5.08,0,0,1,4.09,1.77,8.1,8.1,0,0,1,1.5,5.34v7.7l2.55.44v2h-8.19v-2l2.55-.44v-7.73a5.63,5.63,0,0,0-.86-3.54,3.12,3.12,0,0,0-2.55-1,3.25,3.25,0,0,0-2.59,1.13,4.92,4.92,0,0,0-1.13,2.85v8.33l2.55.44v2H557v-2l2.55-.44v-7.73a5.55,5.55,0,0,0-.88-3.48,3.08,3.08,0,0,0-2.55-1.1,4.23,4.23,0,0,0-2.31.58,3.73,3.73,0,0,0-1.39,1.63v10.11l2.55.44v2h-8.17Z"/><path class="cls-48" d="M589.68,450.59a5.71,5.71,0,0,1-2.05,2.09,5.65,5.65,0,0,1-2.9.73,5.41,5.41,0,0,1-4.3-1.77q-1.55-1.77-1.55-5.5V438.6l-1.94-.44v-2h5v10a6.29,6.29,0,0,0,.8,3.72,3,3,0,0,0,2.48,1,5.06,5.06,0,0,0,2.71-.66,4.16,4.16,0,0,0,1.62-1.88V438.6l-2.27-.44v-2h5.34v14.5l1.94.44v2h-4.7Z"/><path class="cls-48" d="M596.6,430.7v-2h5.63v22l2.55.44v2H596.6v-2l2.55-.44V431.13Z"/><path class="cls-48" d="M612.48,432.1v4.08h3.2v2.28h-3.2v10.27a2.3,2.3,0,0,0,.49,1.67,1.78,1.78,0,0,0,1.3.48,6.74,6.74,0,0,0,.91-.07c.34,0,.62-.1.85-.15l.42,2.11a4,4,0,0,1-1.28.46,8.13,8.13,0,0,1-1.69.18,4,4,0,0,1-3-1.13,4.92,4.92,0,0,1-1.11-3.55V438.46h-2.67v-2.28h2.67V432.1Z"/><path class="cls-48" d="M618.82,451.12l2.55-.44V438.6l-2.55-.44v-2h5.63v14.5l2.55.44v2h-8.17Zm5.63-19.27h-3.08v-3.14h3.08Z"/><path class="cls-48" d="M640.73,451.07a5.45,5.45,0,0,1-2,1.75,6.16,6.16,0,0,1-2.77.59,5.78,5.78,0,0,1-4.84-2.24,9.34,9.34,0,0,1-1.74-5.9v-.33a11.28,11.28,0,0,1,1.74-6.58,5.6,5.6,0,0,1,4.87-2.5,6,6,0,0,1,2.65.55,5.49,5.49,0,0,1,2,1.6v-6.89L638,430.7v-2h5.63v22l2.55.44v2H641Zm-8.3-5.8a7.18,7.18,0,0,0,1,4.09,3.63,3.63,0,0,0,3.23,1.55,4.08,4.08,0,0,0,2.31-.62,4.76,4.76,0,0,0,1.55-1.77v-7.84A4.76,4.76,0,0,0,639,439a4.07,4.07,0,0,0-2.28-.62,3.5,3.5,0,0,0-3.26,1.83,9.44,9.44,0,0,0-1.05,4.75Z"/><path class="cls-48" d="M648.54,451.12l2.55-.44V438.6l-2.55-.44v-2h5.63v14.5l2.55.44v2h-8.17Zm5.63-19.27h-3.08v-3.14h3.08Z"/><path class="cls-48" d="M672,441.49h-2.31l-.5-2a4.18,4.18,0,0,0-1.41-.85,5.47,5.47,0,0,0-1.93-.32,3.55,3.55,0,0,0-2.44.72,2.25,2.25,0,0,0-.8,1.73,1.93,1.93,0,0,0,.7,1.58,7.28,7.28,0,0,0,2.86,1,12.34,12.34,0,0,1,4.77,1.87,3.77,3.77,0,0,1,1.56,3.16,4.37,4.37,0,0,1-1.82,3.64,7.62,7.62,0,0,1-4.76,1.39,12.36,12.36,0,0,1-3.45-.45,9.18,9.18,0,0,1-2.73-1.29l0-3.86H662l.58,2.27a3.2,3.2,0,0,0,1.45.7,8,8,0,0,0,1.87.22,4.35,4.35,0,0,0,2.57-.66,2,2,0,0,0,.93-1.74,2.1,2.1,0,0,0-.77-1.67,7.28,7.28,0,0,0-2.93-1.14,12.27,12.27,0,0,1-4.64-1.83,3.68,3.68,0,0,1-1.56-3.12,4.41,4.41,0,0,1,1.76-3.52,6.94,6.94,0,0,1,4.57-1.45,11.11,11.11,0,0,1,3.45.5,7.21,7.21,0,0,1,2.55,1.39Z"/><path class="cls-48" d="M683,451a4.15,4.15,0,0,0,2.7-.95,2.89,2.89,0,0,0,1.16-2.32h2.77l0,.09a4.74,4.74,0,0,1-1.95,3.88,7.11,7.11,0,0,1-4.71,1.7,6.82,6.82,0,0,1-5.63-2.41,9.31,9.31,0,0,1-1.95-6v-.66a9.26,9.26,0,0,1,2-6,6.81,6.81,0,0,1,5.63-2.41,9.45,9.45,0,0,1,3.65.67,7.38,7.38,0,0,1,2.68,1.84l.14,3.75H687l-.67-2.66a4.09,4.09,0,0,0-1.41-.86,5.4,5.4,0,0,0-1.94-.33A3.71,3.71,0,0,0,679.5,440a8.2,8.2,0,0,0-1,4.27V445a8.3,8.3,0,0,0,1,4.32A3.71,3.71,0,0,0,683,451Z"/><path class="cls-48" d="M692.62,451.12l2.55-.44V438.6l-2.55-.44v-2h5.63v14.5l2.55.44v2h-8.17Zm5.63-19.27h-3.08v-3.14h3.08Z"/><path class="cls-48" d="M702.76,457.6l2.55-.44V438.6l-2.55-.44v-2h5.19l.28,2.06a5.69,5.69,0,0,1,2.05-1.77,6.16,6.16,0,0,1,2.8-.61,5.62,5.62,0,0,1,4.88,2.49,11.28,11.28,0,0,1,1.74,6.59v.33a9.32,9.32,0,0,1-1.75,5.9,5.79,5.79,0,0,1-4.83,2.24,6.71,6.71,0,0,1-2.74-.52,5.29,5.29,0,0,1-2-1.55v5.83l2.55.44v2h-8.17Zm13.86-12.66a9,9,0,0,0-1.12-4.73,3.67,3.67,0,0,0-3.34-1.84,4.12,4.12,0,0,0-2.25.59,4.47,4.47,0,0,0-1.52,1.63v8.23a4,4,0,0,0,3.8,2.19,3.8,3.8,0,0,0,3.31-1.59,7,7,0,0,0,1.13-4.14Z"/><path class="cls-48" d="M721.93,430.7v-2h5.63v22l2.55.44v2h-8.17v-2l2.55-.44V431.13Z"/><path class="cls-48" d="M732.43,451.12l2.55-.44V438.6l-2.55-.44v-2h5.63v14.5l2.55.44v2h-8.17Zm5.63-19.27H735v-3.14h3.08Z"/><path class="cls-48" d="M742.5,451.12l2.55-.44V438.6l-2.55-.44v-2h5.3l.22,2.52a6.14,6.14,0,0,1,2.12-2.09,5.65,5.65,0,0,1,2.9-.74,5.52,5.52,0,0,1,4.23,1.6,7,7,0,0,1,1.5,4.95v8.27l2.55.44v2h-8.17v-2l2.55-.44v-8.2a4.58,4.58,0,0,0-.88-3.17,3.54,3.54,0,0,0-2.7-.94,4.34,4.34,0,0,0-2.35.64,4.68,4.68,0,0,0-1.63,1.75v9.92l2.55.44v2H742.5Z"/><path class="cls-48" d="M774.57,453.09q-.14-.69-.22-1.23t-.11-1.09a7.44,7.44,0,0,1-2.23,1.9,6.38,6.38,0,0,1-6.87-.53,4.74,4.74,0,0,1-1.37-3.63,4.21,4.21,0,0,1,1.95-3.71,9.48,9.48,0,0,1,5.34-1.3h3.17v-2a3,3,0,0,0-.94-2.35,3.7,3.7,0,0,0-2.61-.87,6.41,6.41,0,0,0-2,.3,3.83,3.83,0,0,0-1.43.81l-.33,1.78h-2.37V437.9a9.14,9.14,0,0,1,2.8-1.48,11.07,11.07,0,0,1,3.56-.55,7.09,7.09,0,0,1,4.66,1.47,5.14,5.14,0,0,1,1.78,4.2v8.14c0,.22,0,.43,0,.64s0,.42,0,.63l1.25.17v2Zm-5-2.25a5.47,5.47,0,0,0,2.8-.73,4.56,4.56,0,0,0,1.81-1.77v-2.78h-3.28a4.68,4.68,0,0,0-3,.88,2.63,2.63,0,0,0-1.1,2.13,2.1,2.1,0,0,0,.69,1.7A3.14,3.14,0,0,0,769.62,450.84Z"/><path class="cls-48" d="M781.17,438.16v-2h5.3l.3,2.45a5.91,5.91,0,0,1,1.77-2,4.12,4.12,0,0,1,2.41-.73,5.31,5.31,0,0,1,.74.05,4.29,4.29,0,0,1,.59.12l-.41,2.86-1.75-.09a3.52,3.52,0,0,0-2,.57,3.69,3.69,0,0,0-1.28,1.6v9.7l2.55.44v2h-8.17v-2l2.55-.44V438.6Z"/><path class="cls-48" d="M801.82,453.41a7.13,7.13,0,0,1-5.62-2.35,8.85,8.85,0,0,1-2.09-6.1v-.69a8.67,8.67,0,0,1,2.15-6,6.62,6.62,0,0,1,5.09-2.4,6.41,6.41,0,0,1,5.16,2.06,8.19,8.19,0,0,1,1.76,5.5v1.92h-11l0,.08a6.68,6.68,0,0,0,1.23,4,3.93,3.93,0,0,0,3.33,1.57,7.75,7.75,0,0,0,2.74-.45,6.3,6.3,0,0,0,2-1.23l1.2,2a7.37,7.37,0,0,1-2.4,1.48A9.6,9.6,0,0,1,801.82,453.41Zm-.47-15.12a3.34,3.34,0,0,0-2.64,1.3,6.17,6.17,0,0,0-1.34,3.27l0,.08h7.8v-.41a4.72,4.72,0,0,0-1-3A3.45,3.45,0,0,0,801.35,438.29Z"/><path class="cls-48" d="M824.25,441.49h-2.31l-.5-2a4.18,4.18,0,0,0-1.41-.85,5.47,5.47,0,0,0-1.93-.32,3.55,3.55,0,0,0-2.44.72,2.25,2.25,0,0,0-.8,1.73,1.93,1.93,0,0,0,.7,1.58,7.28,7.28,0,0,0,2.86,1,12.34,12.34,0,0,1,4.77,1.87,3.77,3.77,0,0,1,1.56,3.16,4.37,4.37,0,0,1-1.82,3.64,7.62,7.62,0,0,1-4.76,1.39,12.36,12.36,0,0,1-3.45-.45,9.18,9.18,0,0,1-2.73-1.29l0-3.86h2.31l.58,2.27a3.2,3.2,0,0,0,1.45.7,8,8,0,0,0,1.87.22,4.35,4.35,0,0,0,2.57-.66,2,2,0,0,0,.93-1.74,2.1,2.1,0,0,0-.77-1.67,7.28,7.28,0,0,0-2.93-1.14,12.27,12.27,0,0,1-4.64-1.83,3.68,3.68,0,0,1-1.56-3.12,4.41,4.41,0,0,1,1.76-3.52,6.94,6.94,0,0,1,4.57-1.45,11.11,11.11,0,0,1,3.45.5,7.21,7.21,0,0,1,2.55,1.39Z"/><path class="cls-48" d="M831.57,453.09H828.5v-3.16h3.08Z"/></g></g></svg>