<svg xmlns="http://www.w3.org/2000/svg" viewBox="0 0 539.48 272.55"><defs><style>.cls-1{fill:#8cbfff;}.cls-2{opacity:0.4;}.cls-3{font-size:20px;font-family:Raleway-Regular, Raleway;}.cls-4{letter-spacing:-0.02em;}.cls-5{letter-spacing:-0.03em;}.cls-6{letter-spacing:-0.11em;}.cls-7{letter-spacing:0em;}.cls-8{letter-spacing:-0.03em;}.cls-9{letter-spacing:0em;}.cls-10{letter-spacing:-0.01em;}.cls-11{letter-spacing:-0.01em;}.cls-12{letter-spacing:0em;}.cls-13{letter-spacing:-0.01em;}.cls-14{letter-spacing:0em;}.cls-15{letter-spacing:0em;}.cls-16{letter-spacing:-0.01em;}.cls-17{letter-spacing:-0.01em;}.cls-18{letter-spacing:-0.02em;}.cls-19{letter-spacing:-0.03em;}.cls-20{letter-spacing:-0.02em;}.cls-21{letter-spacing:-0.01em;}.cls-22{letter-spacing:-0.01em;}.cls-23{letter-spacing:-0.01em;}.cls-24{letter-spacing:0em;}.cls-25{letter-spacing:-0.25em;}.cls-26{letter-spacing:-0.05em;}.cls-27{letter-spacing:0em;}</style></defs><title>micromundo4pg10-1</title><g id="Camada_2" data-name="Camada 2"><g id="Camada_1-2" data-name="Camada 1"><g id="Camada_2-2" data-name="Camada 2"><g id="Camada_1-2-2" data-name="Camada 1-2"><polygon class="cls-1" points="9.74 9.74 45 9.74 45 0 0 0 0 45 9.74 45 9.74 9.74"/><polygon class="cls-1" points="9.74 262.81 9.74 227.55 0 227.55 0 272.55 45 272.55 45 262.81 9.74 262.81"/><polygon class="cls-1" points="529.74 262.81 494.48 262.81 494.48 272.55 539.48 272.55 539.48 227.55 529.74 227.55 529.74 262.81"/><polygon class="cls-1" points="529.74 9.74 529.74 45 539.48 45 539.48 0 494.48 0 494.48 9.74 529.74 9.74"/><g class="cls-2"><rect class="cls-1" x="9.74" y="9.74" width="520" height="252.9"/></g><text class="cls-3" transform="translate(38.74 44.34)">Supe<tspan class="cls-4" x="48.1" y="0">r</tspan><tspan class="cls-5" x="54.64" y="0"> </tspan><tspan class="cls-6" x="59.18" y="0">T</tspan><tspan x="69.18" y="0">ru</tspan><tspan class="cls-7" x="88.08" y="0">n</tspan><tspan class="cls-8" x="99.64" y="0">f</tspan><tspan class="cls-9" x="105.72" y="0">o é um jogo de cartas. </tspan><tspan class="cls-10" x="315.08" y="0">N</tspan><tspan x="330.38" y="0">ele </tspan><tspan class="cls-11" x="364.4" y="0">t</tspan><tspan class="cls-12" x="370.84" y="0">oma-se </tspan><tspan class="cls-13" x="0" y="24">t</tspan><tspan class="cls-14" x="6.44" y="24">odas as cartas em jogo dos out</tspan><tspan class="cls-8" x="294.24" y="24">r</tspan><tspan x="300.74" y="24">os participa</tspan><tspan class="cls-15" x="407.38" y="24">n</tspan><tspan class="cls-16" x="418.94" y="24">t</tspan><tspan x="425.38" y="24">es </tspan><tspan x="0" y="48">po</tspan><tspan class="cls-4" x="24.24" y="48">r</tspan><tspan x="30.78" y="48" xml:space="preserve"> meio de es</tspan><tspan class="cls-15" x="138.12" y="48">c</tspan><tspan x="149" y="48">olhas de ca</tspan><tspan class="cls-17" x="254.9" y="48">r</tspan><tspan x="261.78" y="48">ac</tspan><tspan class="cls-16" x="283.66" y="48">t</tspan><tspan x="290.1" y="48">erísticas de cada </tspan><tspan x="0" y="72">carta (po</tspan><tspan class="cls-4" x="81.22" y="72">r</tspan><tspan x="87.76" y="72"> </tspan><tspan class="cls-18" x="92.86" y="72">e</tspan><tspan class="cls-14" x="104.22" y="72">x.: </tspan><tspan class="cls-19" x="126.94" y="72"> </tspan><tspan class="cls-20" x="131.5" y="72">v</tspan><tspan class="cls-9" x="141.8" y="72">elocidade, altu</tspan><tspan class="cls-21" x="278.26" y="72">r</tspan><tspan x="285.14" y="72">a, long</tspan><tspan class="cls-22" x="346.99" y="72">e</tspan><tspan x="358.45" y="72">vidad</tspan><tspan class="cls-22" x="409.25" y="72">e</tspan><tspan x="420.71" y="72">). O </tspan><tspan x="0" y="96">jogo </tspan><tspan class="cls-15" x="45.76" y="96">c</tspan><tspan x="56.64" y="96">omporta de dois a oi</tspan><tspan class="cls-16" x="245.96" y="96">t</tspan><tspan x="252.4" y="96">o participa</tspan><tspan class="cls-15" x="349.29" y="96">n</tspan><tspan class="cls-16" x="360.85" y="96">t</tspan><tspan x="367.29" y="96">es e </tspan><tspan class="cls-16" x="410.71" y="96">t</tspan><tspan x="417.15" y="96">em </tspan><tspan x="0" y="120">classificação liv</tspan><tspan class="cls-8" x="142.46" y="120">r</tspan><tspan x="148.96" y="120">e, podendo se</tspan><tspan class="cls-4" x="281.3" y="120">r</tspan><tspan x="287.84" y="120" xml:space="preserve"> disputado po</tspan><tspan class="cls-4" x="414.97" y="120">r</tspan><tspan x="421.51" y="120"> </tspan><tspan x="0" y="144">qualque</tspan><tspan class="cls-4" x="76.52" y="144">r</tspan><tspan x="83.06" y="144" xml:space="preserve"> pessoa al</tspan><tspan class="cls-23" x="175.96" y="144">f</tspan><tspan x="182.4" y="144">ab</tspan><tspan class="cls-24" x="205.64" y="144">e</tspan><tspan x="217.3" y="144">tizada.</tspan><tspan class="cls-15" x="0" y="192">h</tspan><tspan class="cls-9" x="11.56" y="192">ttps:</tspan><tspan class="cls-25" x="50.8" y="192">/</tspan><tspan class="cls-4" x="57.94" y="192">/</tspan><tspan class="cls-21" x="69.54" y="192">p</tspan><tspan x="81.74" y="192">t</tspan><tspan class="cls-26" x="88.44" y="192">.</tspan><tspan x="91.26" y="192">wikipedia.o</tspan><tspan class="cls-8" x="194.3" y="192">r</tspan><tspan x="200.8" y="192">g</tspan><tspan class="cls-16" x="213.16" y="192">/</tspan><tspan x="224.98" y="192">wiki/Super_</tspan><tspan class="cls-6" x="337.98" y="192">T</tspan><tspan x="347.98" y="192">ru</tspan><tspan class="cls-27" x="366.88" y="192">n</tspan><tspan class="cls-8" x="378.44" y="192">f</tspan><tspan x="384.52" y="192">o</tspan></text></g></g></g></g></svg>