<svg xmlns="http://www.w3.org/2000/svg" viewBox="0 0 539.48 269.5"><defs><style>.cls-1{fill:#8cbfff;}.cls-2{opacity:0.4;}.cls-3{font-size:20px;font-family:Raleway-Regular, Raleway;}.cls-4{letter-spacing:0em;}.cls-5{letter-spacing:-0.03em;}.cls-6{letter-spacing:0em;}.cls-7{letter-spacing:0em;}.cls-8{letter-spacing:-0.02em;}.cls-9{letter-spacing:-0.01em;}.cls-10{letter-spacing:-0.02em;}.cls-11{letter-spacing:0em;}.cls-12{letter-spacing:0em;}.cls-13{letter-spacing:-0.01em;}.cls-14{letter-spacing:0em;}.cls-15{letter-spacing:0em;}.cls-16{letter-spacing:0em;}.cls-17{letter-spacing:-0.03em;}.cls-18{letter-spacing:-0.01em;}.cls-19{letter-spacing:-0.03em;}.cls-20{letter-spacing:-0.02em;}.cls-21{letter-spacing:-0.01em;}.cls-22{letter-spacing:-0.01em;}.cls-23{letter-spacing:-0.01em;}.cls-24{letter-spacing:-0.03em;}.cls-25{letter-spacing:-0.01em;}</style></defs><title>micromundo4pg3</title><g id="Camada_2" data-name="Camada 2"><g id="Camada_1-2" data-name="Camada 1"><g id="Camada_2-2" data-name="Camada 2"><g id="Camada_1-2-2" data-name="Camada 1-2"><polygon class="cls-1" points="9.74 9.74 45 9.74 45 0 0 0 0 45 9.74 45 9.74 9.74"/><polygon class="cls-1" points="9.74 259.76 9.74 224.5 0 224.5 0 269.5 45 269.5 45 259.76 9.74 259.76"/><polygon class="cls-1" points="529.74 259.76 494.48 259.76 494.48 269.5 539.48 269.5 539.48 224.5 529.74 224.5 529.74 259.76"/><polygon class="cls-1" points="529.74 9.74 529.74 45 539.48 45 539.48 0 494.48 0 494.48 9.74 529.74 9.74"/><g class="cls-2"><rect class="cls-1" x="9.74" y="10.16" width="520" height="251.76"/></g><text class="cls-3" transform="translate(38.74 63.41)">Cada es<tspan class="cls-4" x="74.54" y="0">c</tspan><tspan x="85.42" y="0">ola p</tspan><tspan class="cls-5" x="131.1" y="0">r</tspan><tspan x="137.6" y="0">ecisa d</tspan><tspan class="cls-6" x="202.86" y="0">e</tspan><tspan class="cls-7" x="214.5" y="0">fini</tspan><tspan class="cls-8" x="240.6" y="0">r</tspan><tspan x="247.14" y="0" xml:space="preserve"> de que manei</tspan><tspan class="cls-9" x="379.62" y="0">r</tspan><tspan x="386.5" y="0">a pode </tspan><tspan x="0" y="24">e deseja participa</tspan><tspan class="cls-10" x="162.9" y="24">r</tspan><tspan x="169.44" y="24" xml:space="preserve"> da </tspan><tspan class="cls-4" x="202.98" y="24">c</tspan><tspan x="213.86" y="24">omp</tspan><tspan class="cls-11" x="256.48" y="24">e</tspan><tspan class="cls-7" x="268.14" y="24">tição, orie</tspan><tspan class="cls-4" x="357.59" y="24">n</tspan><tspan x="369.15" y="24">tando </tspan><tspan x="0" y="48">e</tspan><tspan class="cls-4" x="11.74" y="48">n</tspan><tspan class="cls-12" x="23.3" y="48">tão o planejame</tspan><tspan class="cls-6" x="172.5" y="48">n</tspan><tspan class="cls-13" x="184.06" y="48">t</tspan><tspan class="cls-12" x="190.5" y="48">o de </tspan><tspan class="cls-14" x="236.78" y="48">a</tspan><tspan class="cls-12" x="247.6" y="48">tividades </tspan><tspan class="cls-15" x="336.04" y="48">c</tspan><tspan class="cls-16" x="346.92" y="48">om</tspan><tspan class="cls-17" x="377.19" y="48"> </tspan><tspan x="381.75" y="48">vistas a </tspan><tspan x="0" y="72">o</tspan><tspan class="cls-18" x="11.9" y="72">b</tspan><tspan class="cls-13" x="24.1" y="72">t</tspan><tspan class="cls-12" x="30.54" y="72">e</tspan><tspan class="cls-10" x="42.28" y="72">r</tspan><tspan x="48.82" y="72"> </tspan><tspan class="cls-19" x="53.92" y="72">r</tspan><tspan x="60.42" y="72">esultados </tspan><tspan class="cls-4" x="156" y="72">c</tspan><tspan x="166.88" y="72">omp</tspan><tspan class="cls-11" x="209.5" y="72">a</tspan><tspan class="cls-7" x="220.32" y="72">tí</tspan><tspan class="cls-20" x="231.38" y="72">v</tspan><tspan x="241.68" y="72">eis </tspan><tspan class="cls-4" x="272.62" y="72">c</tspan><tspan x="283.5" y="72">om a i</tspan><tspan class="cls-15" x="339.24" y="72">n</tspan><tspan class="cls-16" x="350.8" y="72">f</tspan><tspan class="cls-21" x="357.4" y="72">r</tspan><tspan x="364.28" y="72">aestrutu</tspan><tspan class="cls-21" x="440.84" y="72">r</tspan><tspan x="447.72" y="72">a </tspan><tspan x="0" y="96">disponí</tspan><tspan class="cls-20" x="66.8" y="96">v</tspan><tspan x="77.1" y="96">el, o i</tspan><tspan class="cls-22" x="125.24" y="96">n</tspan><tspan class="cls-20" x="136.66" y="96">v</tspan><tspan x="146.96" y="96">estime</tspan><tspan class="cls-4" x="209.62" y="96">n</tspan><tspan class="cls-23" x="221.18" y="96">t</tspan><tspan x="227.62" y="96">o em p</tspan><tspan class="cls-5" x="292.18" y="96">r</tspan><tspan x="298.68" y="96">epa</tspan><tspan class="cls-9" x="333.65" y="96">r</tspan><tspan x="340.54" y="96">ação e </tspan><tspan x="0" y="120">t</tspan><tspan class="cls-19" x="6.7" y="120">r</tspan><tspan x="13.2" y="120">eino, o p</tspan><tspan class="cls-21" x="91.8" y="120">o</tspan><tspan class="cls-13" x="103.56" y="120">t</tspan><tspan x="110" y="120">encia</tspan><tspan class="cls-24" x="159.64" y="120">l</tspan><tspan x="164.46" y="120" xml:space="preserve"> dos estuda</tspan><tspan class="cls-6" x="272.14" y="120">n</tspan><tspan class="cls-13" x="283.7" y="120">t</tspan><tspan class="cls-12" x="290.14" y="120">es e times </tspan><tspan x="0" y="144">e</tspan><tspan class="cls-22" x="11.74" y="144">n</tspan><tspan class="cls-20" x="23.16" y="144">v</tspan><tspan class="cls-12" x="33.46" y="144">o</tspan><tspan class="cls-25" x="45.36" y="144">l</tspan><tspan class="cls-7" x="50.58" y="144">vidos, </tspan><tspan class="cls-14" x="109.28" y="144">e</tspan><tspan class="cls-23" x="120.94" y="144">t</tspan><tspan x="127.38" y="144" xml:space="preserve">c.  </tspan></text></g></g></g></g></svg>