<svg xmlns="http://www.w3.org/2000/svg" xmlns:xlink="http://www.w3.org/1999/xlink" viewBox="0 0 703.3 451.96"><defs><style>.cls-1{fill:url(#linear-gradient);}.cls-2{fill:#7683a8;}.cls-3{fill:#34b08a;}.cls-4{fill:#d75c30;}.cls-5{fill:#fff;}.cls-6{fill:#006f5a;}.cls-7,.cls-8{fill:#673e3e;}.cls-7{opacity:0.5;}</style><linearGradient id="linear-gradient" x1="351.39" y1="476.84" x2="351.39" y2="-43.74" gradientUnits="userSpaceOnUse"><stop offset="0.16" stop-color="#fff4a1"/><stop offset="1" stop-color="#ec6c37"/></linearGradient></defs><title>olimpiada</title><g id="Camada_2" data-name="Camada 2"><g id="Camada_3" data-name="Camada 3"><rect class="cls-1" width="702.78" height="451.96"/><g id="_Grupo_" data-name="&lt;Grupo&gt;"><g id="_Grupo_2" data-name="&lt;Grupo&gt;"><rect id="_Retângulo_" data-name="&lt;Retângulo&gt;" class="cls-2" x="402.43" y="98.21" width="79.07" height="171.38" transform="translate(883.93 367.8) rotate(-180)"/><polygon id="_Caminho_" data-name="&lt;Caminho&gt;" class="cls-2" points="598.6 301.67 521.97 301.67 521.97 90.75 598.6 71.22 598.6 301.67"/></g><g id="_Grupo_3" data-name="&lt;Grupo&gt;"><rect id="_Retângulo_2" data-name="&lt;Retângulo&gt;" class="cls-2" x="658.24" y="163.92" width="43.7" height="123.38" transform="translate(1360.17 451.23) rotate(-180)"/><rect id="_Retângulo_3" data-name="&lt;Retângulo&gt;" class="cls-2" x="477.86" y="178.41" width="51.99" height="108.9" transform="translate(1007.7 465.71) rotate(-180)"/><rect id="_Retângulo_4" data-name="&lt;Retângulo&gt;" class="cls-2" x="482.82" y="161.51" width="42.07" height="16.89" transform="translate(1007.7 339.92) rotate(-180)"/><polygon id="_Caminho_2" data-name="&lt;Caminho&gt;" class="cls-2" points="591.12 287.3 655.59 287.3 655.59 147.03 591.12 125 591.12 287.3"/></g></g><g id="_Grupo_4" data-name="&lt;Grupo&gt;"><g id="_Grupo_5" data-name="&lt;Grupo&gt;"><rect id="_Retângulo_5" data-name="&lt;Retângulo&gt;" class="cls-2" x="76.58" y="98" width="39.38" height="17.57"/><rect id="_Retângulo_6" data-name="&lt;Retângulo&gt;" class="cls-2" x="131.8" y="114.33" width="63.45" height="186.69"/><rect id="_Retângulo_7" data-name="&lt;Retângulo&gt;" class="cls-2" x="141.35" y="93.5" width="44.34" height="31.9"/><rect id="_Retângulo_8" data-name="&lt;Retângulo&gt;" class="cls-2" x="148.55" y="83.73" width="29.95" height="25.71"/><rect id="_Retângulo_9" data-name="&lt;Retângulo&gt;" class="cls-2" x="161.19" y="62.25" width="4.66" height="25.71"/><rect id="_Retângulo_10" data-name="&lt;Retângulo&gt;" class="cls-2" x="68.21" y="115.14" width="56.13" height="185.87"/><rect id="_Retângulo_11" data-name="&lt;Retângulo&gt;" class="cls-2" x="291.81" y="67.35" width="56.13" height="185.87"/><rect id="_Retângulo_12" data-name="&lt;Retângulo&gt;" class="cls-2" x="1.07" y="141.06" width="39.91" height="14.97"/><rect id="_Retângulo_13" data-name="&lt;Retângulo&gt;" class="cls-2" x="1.07" y="155.66" width="56.89" height="145.35"/><rect id="_Retângulo_14" data-name="&lt;Retângulo&gt;" class="cls-2" x="317.84" y="97.55" width="79.07" height="171.38"/><polygon id="_Caminho_3" data-name="&lt;Caminho&gt;" class="cls-2" points="200.75 301.01 277.37 301.01 277.37 90.09 200.75 70.56 200.75 301.01"/></g><g id="_Grupo_6" data-name="&lt;Grupo&gt;"><rect id="_Caminho_4" data-name="&lt;Caminho&gt;" class="cls-2" x="21.93" y="195.21" width="68.42" height="91.43"/><rect id="_Retângulo_15" data-name="&lt;Retângulo&gt;" class="cls-2" x="97.41" y="163.26" width="43.7" height="123.38"/><rect id="_Retângulo_16" data-name="&lt;Retângulo&gt;" class="cls-2" x="214.88" y="177.74" width="51.99" height="108.9"/><rect id="_Retângulo_17" data-name="&lt;Retângulo&gt;" class="cls-2" x="219.84" y="160.85" width="42.07" height="16.89"/><polygon id="_Caminho_5" data-name="&lt;Caminho&gt;" class="cls-2" points="357.3 286.64 270.22 286.64 270.22 106.68 310.61 106.68 310.61 126.9 357.3 126.9 357.3 286.64"/><polygon id="_Caminho_6" data-name="&lt;Caminho&gt;" class="cls-2" points="208.22 286.64 143.75 286.64 143.75 146.37 208.22 124.34 208.22 286.64"/><g id="_Grupo_7" data-name="&lt;Grupo&gt;"><rect id="_Caminho_7" data-name="&lt;Caminho&gt;" class="cls-2" x="46.65" y="174.28" width="43.7" height="35.99"/><rect id="_Caminho_8" data-name="&lt;Caminho&gt;" class="cls-2" x="53.23" y="150.78" width="30.54" height="35.99"/><rect id="_Caminho_9" data-name="&lt;Caminho&gt;" class="cls-2" x="58.19" y="139.76" width="20.62" height="29.01"/><rect id="_Caminho_10" data-name="&lt;Caminho&gt;" class="cls-2" x="65.29" y="115.53" width="6.43" height="29.01"/></g></g></g><rect class="cls-3" y="270.54" width="702.78" height="181.42"/><rect class="cls-4" y="324.31" width="702.78" height="127.23"/><rect class="cls-5" y="343.19" width="702.79" height="2.88"/><rect class="cls-5" y="366.22" width="702.79" height="2.88"/><rect class="cls-5" y="389.24" width="702.79" height="2.88"/><rect class="cls-5" y="412.27" width="702.79" height="2.88"/><rect class="cls-5" y="435.29" width="702.79" height="2.88"/><polygon class="cls-5" points="212.04 323.91 91.46 450.54 96.42 450.54 216.99 323.91 212.04 323.91"/><polygon class="cls-5" points="619.92 323.91 540.71 450.54 545.22 450.54 624.43 323.91 619.92 323.91"/><path class="cls-6" d="M691.89,263.16c-1.56-5.41-7.17-9.43-13.89-9.43-.39,0-.78,0-1.16.05-1.08-5.13-6.24-9-12.46-9-5.5,0-10.17,3.05-11.92,7.31a18.83,18.83,0,0,0-2.7-.21c-7.1,0-13.13,3.95-15.37,9.45a14.34,14.34,0,0,0-5,2.36,20.13,20.13,0,0,0-11.28-4.75c-2.25-7.86-10.41-13.69-20.16-13.69-.57,0-1.13,0-1.69.07-1.56-7.45-9.06-13.1-18.08-13.1-8,0-14.78,4.43-17.31,10.61a27.28,27.28,0,0,0-3.92-.31c-10.32,0-19.06,5.73-22.31,13.72a19.65,19.65,0,0,0-11.76,8.1,14.42,14.42,0,0,0-4.44-1.18c-1.55-5.41-7.17-9.43-13.89-9.43-.39,0-.77,0-1.16.05-1.07-5.13-6.24-9-12.46-9-5.5,0-10.17,3.05-11.92,7.31a18.8,18.8,0,0,0-2.7-.21c-7.1,0-13.13,3.95-15.37,9.45a14.34,14.34,0,0,0-5,2.36,20.1,20.1,0,0,0-11.28-4.75c-2.26-7.86-10.42-13.69-20.16-13.69-.57,0-1.13,0-1.68.07-1.56-7.45-9.06-13.1-18.09-13.1-8,0-14.77,4.43-17.31,10.61a27.3,27.3,0,0,0-3.92-.31c-10.31,0-19.06,5.73-22.31,13.72a19.66,19.66,0,0,0-11.76,8.1,14.43,14.43,0,0,0-4.44-1.18c-1.55-5.41-7.17-9.43-13.89-9.43-.39,0-.77,0-1.16.05-1.08-5.13-6.24-9-12.46-9-5.5,0-10.17,3.05-11.92,7.31a18.92,18.92,0,0,0-2.7-.21c-7.1,0-13.13,3.95-15.36,9.45a14.3,14.3,0,0,0-5,2.36,20.11,20.11,0,0,0-11.28-4.75c-2.25-7.86-10.42-13.69-20.17-13.69-.57,0-1.12,0-1.68.07-1.56-7.45-9.06-13.1-18.09-13.1-8,0-14.77,4.43-17.31,10.61a27.31,27.31,0,0,0-3.92-.31c-10.31,0-19.06,5.73-22.31,13.72a19.65,19.65,0,0,0-11.76,8.1,14.47,14.47,0,0,0-4.44-1.18c-1.55-5.41-7.17-9.43-13.89-9.43-.39,0-.77,0-1.16.05-1.07-5.13-6.24-9-12.45-9-5.5,0-10.18,3.05-11.93,7.31a18.83,18.83,0,0,0-2.7-.21c-7.1,0-13.13,3.95-15.37,9.45a14.36,14.36,0,0,0-5,2.36,20.12,20.12,0,0,0-11.28-4.75c-2.25-7.86-10.41-13.69-20.16-13.69-.57,0-1.13,0-1.68.07-1.56-7.45-9.05-13.1-18.08-13.1-8,0-14.77,4.43-17.31,10.61a27.29,27.29,0,0,0-3.92-.31c-10.31,0-19.06,5.73-22.31,13.72C6.14,258.3.15,264.79,0,272.53H703.3C702.33,267.59,697.69,263.73,691.89,263.16Z"/><g id="_Grupo_8" data-name="&lt;Grupo&gt;"><ellipse id="_Caminho_11" data-name="&lt;Caminho&gt;" class="cls-7" cx="425.1" cy="359.04" rx="65.05" ry="5.42"/><path id="_Caminho_12" data-name="&lt;Caminho&gt;" class="cls-8" d="M465.21,185.31s4.89,7.06,1.27,10.78-5.62-6-5.62-6l-.63-3Z"/><path id="_Caminho_13" data-name="&lt;Caminho&gt;" class="cls-8" d="M442.48,209.27l-4.72,7.16,9.12,6.06s2.48-8.53,4.4-10.46c0,0,13.21,7.43,14.86-3.58s.83-22.84-10.73-22.57-15.14,2.75-14,11A105.61,105.61,0,0,1,442.48,209.27Z"/><path id="_Caminho_14" data-name="&lt;Caminho&gt;" class="cls-8" d="M465.06,196.52s8.76,8.36,4.51,9-4.68,1.24-4.68,1.24Z"/><path id="_Caminho_15" data-name="&lt;Caminho&gt;" class="cls-8" d="M413.18,293.76,381,311.38s-15.41-35.23-20.92-38.26l5-3.3s19.8,16.56,19.66,30.09c0,0,.59-10.48,21.9-17.7Z"/><path id="_Caminho_16" data-name="&lt;Caminho&gt;" class="cls-8" d="M416.12,267l-17.53,15.56s10.73,15.41,14.59,17.34l18-15.45Z"/><path id="_Caminho_17" data-name="&lt;Caminho&gt;" class="cls-8" d="M372.81,277.42l-6.84,3.5c-2.35-4-4.48-7-5.91-7.8l5-3.3.05,0A88.92,88.92,0,0,1,372.81,277.42Z"/><polygon id="_Caminho_18" data-name="&lt;Caminho&gt;" class="cls-8" points="365.01 269.82 361.94 262.15 348.94 277.12 360.06 273.12 365.01 269.82"/><path id="_Caminho_19" data-name="&lt;Caminho&gt;" class="cls-8" d="M460.52,228.53l14.94,6s7.5-14.79,6.67-18.92-4.78-9.26,2.59-9.26,6.35,5.68,3.32,8.43c0,0-5.23,25.1-8.26,28.52,0,0-16.49-1.06-24.19-9.59Z"/><path id="_Caminho_20" data-name="&lt;Caminho&gt;" class="cls-8" d="M420.88,225.18l-17.7.34-3.49,23.66s3.91,1.77,3.36,5.35c-.27,1.77-.49,3.53-1.38,4.2-1.78,1.34-6.38,4.49-7.49-.94-1.37-6.74,2.88-38.33,2.88-38.33l24.92-3S422.81,225.18,420.88,225.18Z"/><path id="_Caminho_21" data-name="&lt;Caminho&gt;" class="cls-8" d="M431.07,290.74l22.28,20s-3.83,6.14,7.72,21.28,16.79,21.47,16.79,21.47l3.3-3s-16.93-36-17.89-42.94l-29.45-35.94L422,278.35Z"/><path id="_Caminho_22" data-name="&lt;Caminho&gt;" class="cls-8" d="M413.18,271.58c.76,12.07,18.72,25.48,18.72,25.48l17.34-12.74-11-17S412.78,265.25,413.18,271.58Z"/><polygon id="_Caminho_23" data-name="&lt;Caminho&gt;" class="cls-8" points="472.22 346.43 477.06 341.55 481.16 350.46 477.86 353.49 472.22 346.43"/><polygon id="_Caminho_24" data-name="&lt;Caminho&gt;" class="cls-8" points="477.86 353.49 481.16 360.1 496.85 348.81 481.16 350.46 477.86 353.49"/><path id="_Caminho_25" data-name="&lt;Caminho&gt;" class="cls-8" d="M424.83,228.66S412,248.6,408.22,273.16c0,0,25.6.52,33.3-3.34l-2.88-12.71,11.71-21.57,8,4,6.61-11.29-16.63-10.1s-6,5.07-9-4.13l-21.32,1-1.27,11.83Z"/><path id="_Caminho_26" data-name="&lt;Caminho&gt;" class="cls-8" d="M439.17,206.34c.86,1.28,2.36,3.46,3.9,3.44s3.22-1.95,4.35-3a12.51,12.51,0,0,0,4-8.67c-.19,1,2.49,2.34,3.45,2.16,2.48-.46,3.93-5.79,5-8.06a7.88,7.88,0,0,1-.14,4.83,10,10,0,0,0,5.45-11.75,19.68,19.68,0,0,0-17.14-2.88c-5.85,1.72-11.08,5.22-11.54,12.9C436.37,198.15,437.86,204.4,439.17,206.34Z"/><path id="_Caminho_27" data-name="&lt;Caminho&gt;" class="cls-8" d="M461.39,208.68a2.93,2.93,0,0,1-.84.53,3.32,3.32,0,0,1-2.23.13,3.28,3.28,0,0,1-1.75-1.38,5.89,5.89,0,0,1-.43-.89,6.24,6.24,0,0,0,2.36,1.7,4.13,4.13,0,0,0,2,.13A5.19,5.19,0,0,0,461.39,208.68Z"/><path id="_Caminho_28" data-name="&lt;Caminho&gt;" class="cls-8" d="M462.42,194.52a1.53,1.53,0,0,1,.58-.18,1.84,1.84,0,0,1,1.3.38,1.82,1.82,0,0,1,.64,1.2,2.77,2.77,0,0,1,0,.6,5,5,0,0,0-1-1.32A3.92,3.92,0,0,0,462.42,194.52Z"/><ellipse id="_Caminho_29" data-name="&lt;Caminho&gt;" class="cls-8" cx="463.66" cy="198.1" rx="0.36" ry="1.16"/><path id="_Caminho_30" data-name="&lt;Caminho&gt;" class="cls-8" d="M452.7,199.63s-2.74-6.74-4.1-2.69,1.9,7.24,1.9,7.24Z"/></g><g id="_Grupo_9" data-name="&lt;Grupo&gt;"><ellipse id="_Caminho_31" data-name="&lt;Caminho&gt;" class="cls-7" cx="278.19" cy="405.09" rx="65.05" ry="5.42"/><path id="_Caminho_32" data-name="&lt;Caminho&gt;" class="cls-8" d="M317.84,217.67s5.27,7.59,1.36,11.6-6.05-6.44-6.05-6.44l-.68-3.22Z"/><path id="_Caminho_33" data-name="&lt;Caminho&gt;" class="cls-8" d="M293.38,243.45l-5.08,7.7,9.82,6.51s2.67-9.18,4.74-11.25c0,0,14.22,8,16-3.85s.89-24.58-11.55-24.28-16.29,3-15.1,11.85A113.63,113.63,0,0,1,293.38,243.45Z"/><path id="_Caminho_34" data-name="&lt;Caminho&gt;" class="cls-8" d="M318.3,230s7.53,9.59,3,10.29l-3.14.74Z"/><path id="_Caminho_35" data-name="&lt;Caminho&gt;" class="cls-8" d="M261.85,334.37l-34.65,19s-16.58-37.91-22.51-41.16l5.33-3.55s21.3,17.81,21.16,32.38c0,0,.63-11.27,23.56-19Z"/><path id="_Caminho_36" data-name="&lt;Caminho&gt;" class="cls-8" d="M265,305.58l-18.86,16.74s11.55,16.58,15.7,18.66l19.4-16.63Z"/><path id="_Caminho_37" data-name="&lt;Caminho&gt;" class="cls-8" d="M218.42,316.79l-7.36,3.76c-2.53-4.3-4.82-7.53-6.36-8.39l5.33-3.55.06,0A95.63,95.63,0,0,1,218.42,316.79Z"/><polygon id="_Caminho_38" data-name="&lt;Caminho&gt;" class="cls-8" points="210.03 308.61 206.72 300.35 192.74 316.46 204.69 312.16 210.03 308.61"/><path id="_Caminho_39" data-name="&lt;Caminho&gt;" class="cls-8" d="M312.79,264.18l16.08,6.44s8.07-15.92,7.18-20.36-5.14-10,2.78-10,6.83,6.11,3.58,9.07c0,0-5.63,27-8.88,30.68,0,0-17.74-1.14-26-10.32Z"/><path id="_Caminho_40" data-name="&lt;Caminho&gt;" class="cls-8" d="M270.14,260.57l-19,.37-3.76,25.46s4.21,1.9,3.61,5.75c-.29,1.9-.53,3.8-1.48,4.51-1.91,1.44-6.87,4.84-8.06-1-1.47-7.26,3.1-41.25,3.1-41.25l26.81-3.25S272.22,260.57,270.14,260.57Z"/><path id="_Caminho_41" data-name="&lt;Caminho&gt;" class="cls-8" d="M281.1,331.11l24,21.52s-4.13,6.61,8.31,22.9,18.06,23.1,18.06,23.1l3.55-3.26s-18.21-38.71-19.25-46.2L284.06,310.5l-12.73,7.28Z"/><path id="_Caminho_42" data-name="&lt;Caminho&gt;" class="cls-8" d="M261.85,310.5c.82,13,20.14,27.42,20.14,27.42l18.66-13.71L288.8,305.94S261.42,303.68,261.85,310.5Z"/><polygon id="_Caminho_43" data-name="&lt;Caminho&gt;" class="cls-8" points="325.38 391.04 330.58 385.79 335 395.38 331.45 398.63 325.38 391.04"/><polygon id="_Caminho_44" data-name="&lt;Caminho&gt;" class="cls-8" points="331.45 398.63 335 405.74 351.88 393.6 335 395.38 331.45 398.63"/><path id="_Caminho_45" data-name="&lt;Caminho&gt;" class="cls-8" d="M289.81,240.3c.93,1.38,2.54,3.72,4.2,3.71s3.46-2.09,4.69-3.22a13.46,13.46,0,0,0,4.3-9.32c-.21,1,2.68,2.51,3.71,2.32,2.67-.49,4.23-6.23,5.42-8.67a8.48,8.48,0,0,1-.15,5.19,10.8,10.8,0,0,0,5.87-12.64,21.18,21.18,0,0,0-18.44-3.1c-6.3,1.85-11.93,5.62-12.41,13.88C286.8,231.49,288.41,238.22,289.81,240.3Z"/><path id="_Caminho_46" data-name="&lt;Caminho&gt;" class="cls-8" d="M313.73,242.82a3.15,3.15,0,0,1-.91.56,3.58,3.58,0,0,1-2.39.13,3.53,3.53,0,0,1-1.88-1.48,3.08,3.08,0,0,1-.35-.69l-.11-.27a6.6,6.6,0,0,0,2.54,1.84,4.42,4.42,0,0,0,2.11.13A5.35,5.35,0,0,0,313.73,242.82Z"/><path id="_Caminho_47" data-name="&lt;Caminho&gt;" class="cls-8" d="M314.83,227.59a1.66,1.66,0,0,1,.62-.18,2,2,0,0,1,1.39.41,2,2,0,0,1,.69,1.28,3,3,0,0,1,0,.64,5.24,5.24,0,0,0-1.06-1.43A4.08,4.08,0,0,0,314.83,227.59Z"/><ellipse id="_Caminho_48" data-name="&lt;Caminho&gt;" class="cls-8" cx="316.17" cy="231.44" rx="0.38" ry="1.25"/><path id="_Caminho_49" data-name="&lt;Caminho&gt;" class="cls-8" d="M304.38,233.08s-2.95-7.26-4.41-2.9,2,7.79,2,7.79Z"/><path id="_Caminho_50" data-name="&lt;Caminho&gt;" class="cls-8" d="M317.53,263.88,299.64,253s-6.43,5.45-9.63-4.45l-22.94,1.11-1.36,12.73,9.61,1s-13.63,27.36-17.77,48.79c0,0,26.52.53,34.81-3.61l-3.1-13.67,6.54-12.06c1.36-1,3-2.19,3.82-2.82,3.3-2.64,2.24-8.34,2.24-8.34l8.57,4.31Z"/><path id="_Caminho_51" data-name="&lt;Caminho&gt;" class="cls-8" d="M296.88,214.38c-3-3.82-8.26-6.14-13-4.82-3.92,1.1-6.79,4.41-10.4,6.29-6.15,3.23-13.61,2-20.4.56a8.34,8.34,0,0,0,3,3c1.42.6,3.22,1.24,3.22,1.24a15.44,15.44,0,0,1-9.68.85,2.84,2.84,0,0,1-2.11-1.37c.37,2.85,2.47,4.95,5.08,6.15,10.62,4.88,23.2,1.65,32.66-5.23,1.85-1.34,5.35-3,9-1.52C294.27,219.51,300.37,218.77,296.88,214.38Z"/><path id="_Caminho_52" data-name="&lt;Caminho&gt;" class="cls-8" d="M296.4,213.81s-.83,3.48-5.94,5.16c0,0-.87,3.69,3.76,1.44s4.79-3.84,4.4-5.11S297.31,214,296.4,213.81Z"/><path id="_Caminho_53" data-name="&lt;Caminho&gt;" class="cls-8" d="M298,320.2c-4.85,4-15.2,12.29-19.8,14.65-.47-.41-1-.86-1.49-1.32,3.64-2.61,14.21-10.18,20.3-14.84Z"/><path id="_Caminho_54" data-name="&lt;Caminho&gt;" class="cls-8" d="M266.33,337.14l-1.24,1.07c-4.28-3.25-11.86-14.08-15.28-19.12l1.33-1.18C255.29,324.26,263.86,334.28,266.33,337.14Z"/><path id="_Caminho_55" data-name="&lt;Caminho&gt;" class="cls-8" d="M248.69,277.26l-1.3,8.82a18.71,18.71,0,0,1-6.1,0c.14-2.62.36-5.52.62-8.46A24,24,0,0,0,248.69,277.26Z"/><path id="_Caminho_56" data-name="&lt;Caminho&gt;" class="cls-8" d="M341.72,252.57c-.44,2-1.08,4.83-1.82,7.89-1.34.2-3.26,0-5.74-1.78a30.3,30.3,0,0,0,1.9-6.82A8.4,8.4,0,0,0,341.72,252.57Z"/></g></g></g></svg>