<svg id="Layer_1" data-name="Layer 1" xmlns="http://www.w3.org/2000/svg" viewBox="0 0 5000 5000"><defs><style>.cls-1{fill:#00a199;}.cls-2{fill:#d9edef;}.cls-3{fill:#747172;}.cls-4{fill:#fff;}.cls-5{fill:#365257;}.cls-6{fill:#334a57;}.cls-7{fill:#605b58;}.cls-8{fill:#d26868;}.cls-9{fill:#c79c78;}.cls-10{fill:#ecc699;}.cls-11{fill:#f0efef;}.cls-12{fill:#4b4745;}.cls-13{fill:#5e5b5c;}.cls-14{fill:#63909f;}.cls-15{fill:#3a3632;}.cls-16{fill:#d65d4e;}.cls-17{fill:#e96c5a;}.cls-18{fill:#ecded2;}.cls-19{fill:#cd9912;}.cls-20{fill:#eeb800;}.cls-21{fill:#edc79b;}.cls-22{fill:none;}</style></defs><title>Situação1MM4</title><rect class="cls-1" width="5000" height="5008.18"/><polygon class="cls-2" points="1816.98 4313.55 1816.96 4313.58 1714.49 4286.03 1714.43 4285.37 1816.98 4313.55"/><path class="cls-2" d="M1820.53,4305.83,1712.9,4276.9l.17-.62,107.47,29.53S1820.54,4305.83,1820.53,4305.83Z"/><path class="cls-2" d="M1897.92,4017.87c4.88-29.66,84.51-284.5,95.72-320.29l-107.52-41.07-173,619.77-8.06-2.37,175.48-628.55L2004,3692.54l-1.18,3.78c-.92,2.92-91.59,292.27-96.63,322.9-4.83,29.4-67.91,254.47-77.56,288.82l-8.12-2.23C1829.84,4272.68,1893.23,4046.44,1897.92,4017.87Z"/><path class="cls-2" d="M1713.07,4276.28l-.17.62,107.63,28.93s0,0,0,0l8.12,2.23c-.58,2.06-1,3.47-1.15,4.08l-.16.55-1.93,3.19-8.45-2.28v0l-102.55-28.18.06.66-8.63-2.31-.81-9.65Z"/><polygon class="cls-2" points="1705.01 4273.91 1713.07 4276.28 1705.05 4274.07 1705.86 4283.72 1704.77 4274.76 1705.01 4273.91"/><polygon class="cls-2" points="1724.94 4411.65 1752.85 4419.16 1728.85 4458.68 1724.94 4411.65"/><polygon class="cls-2" points="1816.96 4313.58 1825.42 4315.85 1761.31 4421.43 1752.85 4419.16 1816.96 4313.58"/><polygon class="cls-2" points="1728.85 4458.68 1752.85 4419.16 1761.31 4421.43 1722.6 4485.17 1716.29 4409.33 1724.94 4411.65 1728.85 4458.68"/><polygon class="cls-2" points="1714.49 4286.03 1724.94 4411.65 1716.29 4409.33 1705.86 4283.72 1714.49 4286.03"/><path class="cls-2" d="M1912.61,3612.63l94.39,37.13c-1.21,2.89-2.43,5.46-3.54,7.65L1908.35,3620C1909.59,3617.68,1911,3615.21,1912.61,3612.63Z"/><path class="cls-2" d="M1901.88,3608.4l2.83,1.12a138.4,138.4,0,0,0-10.66,21.26l-1.49,4.06,6.37,2.13-7.15,16.93,103.36,33,5.75-15.95,3.68,1.23,1.77-2.72a110.48,110.48,0,0,0,8.52-16.6l1.3.51-15.86,44-119.85-38.25Z"/><path class="cls-2" d="M2011.92,3606.92c-3.58-11.75-12.59-20.75-26.79-26.74a59.68,59.68,0,0,0-7.86-2.72c-31-8.34-52.76,15.93-64.66,35.17l-7.9-3.11c13-21.45,37.94-50.08,74.75-40.19a67.83,67.83,0,0,1,8.94,3.1c16.6,7,27.22,17.79,31.57,32,5.22,17.09.24,35.52-5.11,48.38l-7.86-3.09C2011.85,3638.14,2016.42,3621.64,2011.92,3606.92Z"/><path class="cls-2" d="M2004.57,3672.17l-3.68-1.23,4.58-12.74-2-.79c1.11-2.19,2.33-4.76,3.54-7.65l7.86,3.09a110.48,110.48,0,0,1-8.52,16.6Z"/><path class="cls-2" d="M1908.35,3620l-1.91-.76-7.51,17.74-6.37-2.13,1.49-4.06a138.4,138.4,0,0,1,10.66-21.26l7.9,3.11C1911,3615.21,1909.59,3617.68,1908.35,3620Z"/><path class="cls-2" d="M1973.48,3686.49a1.05,1.05,0,0,1-.58-1.25c1.25-4.48,2.43-9.06,3.56-13.51,1-4,2-8,3.16-12.05-2,3.33-4,6.76-5.85,10.21-.6,1.13-1.16,2.31-1.72,3.51a43.22,43.22,0,0,1-3.85,7,1,1,0,0,1-1.17.38,1.06,1.06,0,0,1-.73-1c0-3.85,1.43-8.17,2.81-12.36.58-1.73,1.11-3.36,1.52-4.87s.85-3.23,1.28-4.86c0-.23.12-.47.17-.71a2.12,2.12,0,0,1-.11.21c-2.9,5.07-5.91,10.33-7.62,15.92a1,1,0,0,1-1,.74,1.06,1.06,0,0,1-1-.81c-.69-3,.81-7.15,2.13-10.82.46-1.29.89-2.5,1.16-3.46.3-1.14.59-2.3.87-3.46.57-2.28,1.15-4.6,1.89-6.87a64.12,64.12,0,0,0-4.32,8.08l-.76,1.59a73.46,73.46,0,0,0-4.25,11.5l-.1.36a12.52,12.52,0,0,1-1.46,3.57,1.07,1.07,0,0,1-1.12.46,1,1,0,0,1-.81-.88c-.45-3.23.65-6.83,1.61-10,.28-.86.53-1.71.74-2.52.27-1,.54-2,.8-3a97,97,0,0,1,2.84-9.66,52,52,0,0,0-3.75,10.8l-.37,1.42c-.1.36-.19.78-.28,1.22a10.1,10.1,0,0,1-1.35,3.81,18.44,18.44,0,0,1-1.68,1.9,20.1,20.1,0,0,0-1.65,1.87l-.9,1.27a38.35,38.35,0,0,1-5,6.11,1.06,1.06,0,0,1-1.75-.88c.82-8.63,3.13-17,5.36-25.07.44-1.61.89-3.23,1.32-4.85.38-1.4.79-2.73,1.24-4.06-4.64,6.33-8.38,13.86-11.27,20.13a49.3,49.3,0,0,1-3,5.26c-.92,1.48-1.78,2.89-2.51,4.37a1.06,1.06,0,0,1-2-.29,7.8,7.8,0,0,1,.36-3.24l.16-.64c.79-3.3,1.71-6.61,2.61-9.81.48-1.7,1-3.41,1.41-5.12.65-2.38,1.22-4.83,1.8-7.31.26-1.12.53-2.25.8-3.38-1.1,2-2.17,4-3.08,6.1a83.76,83.76,0,0,0-3.32,9.52,74.47,74.47,0,0,1-3.93,10.88,1,1,0,0,1-1.21.56,1,1,0,0,1-.79-1.06c.22-4.79,1.91-9.9,3.53-14.83.73-2.17,1.4-4.23,1.93-6.19.92-3.41,1.73-6.63,2.44-9.72a78.92,78.92,0,0,0-6.55,15.83c-.65,2.24-1.24,4.49-1.83,6.75-.33,1.23-.65,2.47-1,3.69-.08.3-.15.63-.23,1-.32,1.45-.69,3.1-1.72,4.08a1,1,0,0,1-1.75-1c.53-2.33.84-4.58,1.17-7l.19-1.34a78.64,78.64,0,0,1,2.5-10.6c.56-2,1.15-4.06,1.63-6.1.42-1.83.92-3.72,1.43-5.64.55-2.07,1.09-4.17,1.58-6.25a113.49,113.49,0,0,0-8.34,18.06c-.35,1-.62,2.17-.91,3.39a23.22,23.22,0,0,1-2.08,6.17,1,1,0,0,1-1.11.49,1,1,0,0,1-.83-.89c-.68-5.28.87-11.74,2-16.45l.23-1c0-.08,0-.18.07-.29-.8,1.53-1.58,3.07-2.22,4.61a36.61,36.61,0,0,0-1.21,3.54,22.38,22.38,0,0,1-3.22,7.22,1.05,1.05,0,0,1-1.28.31,2.9,2.9,0,0,1-1.46-2c-.62,2.94-1.42,5.77-2.79,7.41a1.05,1.05,0,0,1-1.13.33,1.06,1.06,0,0,1-.73-.94c-.17-2.92.7-6.16,1.48-9,.23-.85.45-1.68.64-2.46,1-4,2.08-8.06,3.16-12,.51-1.85,1-3.69,1.52-5.54l.42-1.6c-.51.93-1,1.86-1.42,2.8a61.36,61.36,0,0,0-2.36,6.34c-1.44,4.37-2.94,8.88-5.64,12a1,1,0,0,1-1.13.31,1,1,0,0,1-.71-.94c0-.73,0-1.46,0-2.21-.18.65-.36,1.3-.57,1.95l-.19.65c-.46,1.55-1,3.5-2.46,4.3a1,1,0,0,1-.81.09,1,1,0,0,1-.63-.51c-2-3.77-1.51-7.73-1-11.57.13-.95.24-1.9.32-2.83.07-.74.09-1.49.11-2.22a19,19,0,0,1,.75-5.57l2,.67a16.92,16.92,0,0,0-.63,5c0,.77,0,1.55-.12,2.33-.08,1-.2,1.95-.33,2.93-.39,3.09-.76,6,.15,8.79a14.78,14.78,0,0,0,.67-2l.21-.69c.52-1.63.94-3.36,1.36-5s.83-3.39,1.36-5.07a45.51,45.51,0,0,1,2.11-5.22,41.23,41.23,0,0,0,2.06-5.1,1.06,1.06,0,0,1,1.31-.7,1,1,0,0,1,.7,1.31c-.25.86-.52,1.75-.8,2.64-1.4,4.58-3,9.66-3.35,14.51a53.35,53.35,0,0,0,3.34-8.47,57,57,0,0,1,2.45-6.57c1-2.18,2.26-4.35,3.47-6.45.79-1.38,1.6-2.78,2.35-4.2.83-2.48-3.12-.92-1.9-3.28.26-.48,3.61-1.65,4.11-1.46s2.58,3.4,2.45,3.91c-.69,2.57-1.48-.69-2.73,1.69-.56,1.67-1,3.37-1.52,5.11,0,0,0-.1.07-.15a1,1,0,0,1,2,.75c-4.14,11.36-6.5,22.12-5.68,25.21a27.61,27.61,0,0,0,2.12-5.43c.39-1.26.79-2.55,1.28-3.74.92-2.2,2.09-4.37,3.21-6.48a62.27,62.27,0,0,0,3.62-7.56c.27-.88.55-1.74.84-2.61a1.05,1.05,0,0,1,2,.59,27.41,27.41,0,0,1-.87,2.7c-1,3.41-1.86,6.93-2.69,10.36l-.23,1c-.58,2.4-1.26,5.24-1.69,8.13.17-.7.36-1.38.58-2,2.79-8.15,6.9-15.67,11.58-23.94a1,1,0,0,1,1.24-.48,1.06,1.06,0,0,1,.72,1.13,98.92,98.92,0,0,1-2.75,12.69c-.51,1.9-1,3.78-1.42,5.58-.17.71-.34,1.41-.53,2.11a84.52,84.52,0,0,1,4.59-9.63c.2-.35.39-.74.6-1.14a15,15,0,0,1,2.43-3.78,1.05,1.05,0,0,1,1.77.95c-.87,4.51-2,9.24-3.33,14.39,1.11-2.35,2.37-4.62,3.59-6.82.84-1.52,1.68-3,2.47-4.56l.55-1c.08-.14.17-.29.24-.43.37-1.1.75-2.18,1.17-3.23a1,1,0,0,1,1.18-.65,1.08,1.08,0,0,1,.85,1,8.14,8.14,0,0,1-1.26,3.68c-1.25,3.85-2.2,7.92-3.12,11.87-.59,2.5-1.16,5-1.81,7.39-.46,1.72-.94,3.42-1.42,5.13-.66,2.33-1.33,4.73-2,7.12a39.18,39.18,0,0,0,2.33-4.21c3.8-8.23,9-18.62,16-25.85a1,1,0,0,1,1.35-.15,1.06,1.06,0,0,1,.36,1.32,59.34,59.34,0,0,0-3.68,10c-.44,1.62-.89,3.25-1.34,4.86-2,7.31-3.94,14.27-4.92,21.54.88-1.09,1.73-2.3,2.57-3.48l.92-1.28a20.6,20.6,0,0,1,1.84-2.11,15.33,15.33,0,0,0,1.49-1.66,8.94,8.94,0,0,0,1-3c.1-.47.2-.93.31-1.34l.37-1.39c1.4-5.39,3.77-14.41,8.87-16.23a1.05,1.05,0,0,1,1.26,1.51c-2.53,4.42-3.86,9.61-5.15,14.62-.12.45-.23.89-.34,1.33.31-.73.65-1.46,1-2.2l.74-1.57c2.08-4.41,4.94-10.47,8.81-12.9a1.06,1.06,0,0,1,1.27.12,1.07,1.07,0,0,1,.22,1.27c-1.92,3.6-2.94,7.72-3.93,11.71-.28,1.17-.58,2.35-.89,3.49-.26,1-.67,2.14-1.11,3.37,1.16-2.22,2.41-4.39,3.63-6.52,1.47-2.58,3-5.21,4.31-7.89l0-.14a10.42,10.42,0,0,1,2.13-4.48,1,1,0,0,1,1.74,1.11q-.88,2.17-1.94,4.27l-.08.29c-.87,2.93-1.66,6-2.41,8.91-.42,1.62-.84,3.25-1.27,4.87s-1,3.24-1.56,5c-.72,2.18-1.45,4.39-2,6.53.34-.71.67-1.42,1-2.12.58-1.22,1.16-2.45,1.77-3.59,2-3.74,4.19-7.42,6.32-11,1.3-2.18,2.6-4.36,3.86-6.57a1,1,0,0,1,1.33-.44,1.06,1.06,0,0,1,.59,1.28c-1,3.18-1.92,6.4-2.79,9.64.67-1.28,1.36-2.55,2-3.79,1-1.75,1.91-3.5,2.81-5.27l.23-.46a23.83,23.83,0,0,1,3.24-5.23,1,1,0,0,1,1.77,1.07,20.92,20.92,0,0,1-1.61,3.08,24.84,24.84,0,0,0-1.25,2.24c-.33.72-.63,1.46-.91,2.21.74-1.52,1.49-3,2.22-4.53a1.06,1.06,0,0,1,2,.72c-.88,3.41-1.82,6.85-2.75,10.28l-1.24,4.55c.76-2,1.52-4,2.3-6.07.24-.61.47-1.28.71-2a23.76,23.76,0,0,1,3.12-6.67,1.06,1.06,0,0,1,1-.39,1.08,1.08,0,0,1,.81.72c.87,2.76-.2,6.58-1.23,10.28,0,.05,0,.09,0,.13a26.74,26.74,0,0,1,3.79-8.07,1,1,0,0,1,1.85.93c-2.4,7.85-4.86,16.08-6.86,24.23.09-.27.19-.53.28-.79.24-.69.47-1.33.68-1.89.61-1.65,1.32-3.23,2-4.82a58.53,58.53,0,0,0,3.15-8.31c.17-.6.4-1.3.65-2,.58-1.68,1.29-3.77,1.12-5.12l2.08-.27c.24,1.82-.52,4.08-1.21,6.07-.23.68-.45,1.33-.61,1.89a61.56,61.56,0,0,1-3.25,8.61c-.67,1.56-1.36,3.11-2,4.73-.2.53-.42,1.16-.66,1.83-1.07,3.05-2.39,6.85-4.39,8.76a1.05,1.05,0,0,1-1.76-1c.13-.64.27-1.28.4-1.93,0,0,0,0,0,0a1,1,0,0,1-1.17.3,1.07,1.07,0,0,1-.68-1,48.63,48.63,0,0,1,1.82-10.17,61.21,61.21,0,0,0,1.59-7.55,37.15,37.15,0,0,1,1.2-5.15,51.39,51.39,0,0,0,1.3-5.43c-.37.91-.7,1.86-1,2.75-.25.71-.49,1.41-.74,2-1,2.57-2,5.16-2.92,7.74-.68,1.83-1.35,3.65-2,5.47a22.33,22.33,0,0,0-.68,2.7c-.58,2.68-1.24,5.71-3.13,7a1,1,0,0,1-1,.08,1.05,1.05,0,0,1-.59-.87,21.51,21.51,0,0,1,.79-6.62,8.61,8.61,0,0,1-1.14,2.29,1,1,0,0,1-1.9-.68,44.17,44.17,0,0,1,2.34-9.91c.44-1.41.89-2.79,1.24-4.11.23-.87.45-1.74.67-2.62a0,0,0,0,1,0,0,71.16,71.16,0,0,0-4.1,8.81,44.28,44.28,0,0,0-1.54,5.9c-.72,3.33-1.46,6.79-3.13,9.5a1.06,1.06,0,0,1-1.17.46Zm10.24-15.32c-.17.65-.31,1.37-.45,2.12-.11.54-.22,1.09-.35,1.65.41-1.36.86-2.7,1.29-4,.54-1.61,1.06-3.13,1.44-4.53l.95-3.53A69.31,69.31,0,0,0,1983.72,3671.17Z"/><polygon class="cls-2" points="1771.15 4297.52 1949.6 3677.15 1943.53 3675.4 1765.09 4295.77 1771.15 4297.52"/><path class="cls-2" d="M1935,3697l1.13-1.77c-4.41-2.79-8.07-7.62-11.62-12.29-1.39-1.82-2.7-3.54-4-5.09l-1.6,1.37c1.28,1.5,2.57,3.2,3.93,5C1926.35,3688.84,1930.31,3694.05,1935,3697Z"/><path class="cls-2" d="M1926.73,3712.69l1.84-1-2.1-3.87c-6.53-12-13.93-25.66-22.58-35.61l-1.58,1.38c8.49,9.77,15.83,23.3,22.31,35.23Z"/><path class="cls-2" d="M1916.18,3729.15l1.94-.82a98,98,0,0,0-8.38-14.84c-3.28-5.08-6.66-10.34-8.8-16-.72-1.91-1.25-3.8-1.75-5.64-1-3.44-1.86-6.69-3.91-9.75l-1.75,1.17c1.86,2.78,2.72,5.87,3.63,9.14.52,1.88,1.06,3.82,1.81,5.83,2.22,5.88,5.67,11.24,9,16.41A98.31,98.31,0,0,1,1916.18,3729.15Z"/><path class="cls-2" d="M1908.85,3756.14l2-.58c-1.84-6.38-4.9-12.25-7.86-17.93a117.89,117.89,0,0,1-6.6-14.17c-.91-2.5-1.61-5-2.29-7.46-1.5-5.35-2.92-10.4-6.24-15.33l-1.75,1.18c3.14,4.64,4.51,9.54,6,14.71.69,2.49,1.41,5.05,2.34,7.61a118.87,118.87,0,0,0,6.72,14.44C1904.05,3744.19,1907.06,3750,1908.85,3756.14Z"/><path class="cls-2" d="M1901.82,3785l.9-1.9c-10.46-5-19.11-44.07-18.8-57.53l-2.1-.05C1881.54,3737.51,1889.43,3779.15,1901.82,3785Z"/><path class="cls-2" d="M1892.8,3821.11l1.76-1.15c-5.06-7.81-9.12-20.79-12.72-32.24-1.2-3.83-2.33-7.45-3.42-10.63a226.27,226.27,0,0,1-6.67-25.5c-.5-2.31-1-4.61-1.53-6.91l-2,.48c.53,2.28,1,4.58,1.53,6.89a232.12,232.12,0,0,0,6.72,25.73c1.09,3.14,2.22,6.75,3.42,10.57C1883.47,3799.93,1887.58,3813.05,1892.8,3821.11Z"/><path class="cls-2" d="M1879.79,3841.18l2.08.24c.71-6.27-4.22-15.37-9-24.16-2.72-5-5.29-9.78-6.53-13.51-.46-1.41-.94-2.82-1.42-4.23-2.21-6.52-4.5-13.25-5.21-20l-2.1.23c.74,7,3.07,13.83,5.32,20.46.48,1.41,1,2.81,1.41,4.21,1.29,3.9,3.91,8.74,6.69,13.86C1875.43,3826.38,1880.41,3835.57,1879.79,3841.18Z"/><path class="cls-2" d="M1874.91,3874.5l1.62-1.33c-12.86-15.65-24.72-31.32-28.38-50.82l-2.06.4C1849.83,3842.72,1861.86,3858.63,1874.91,3874.5Z"/><path class="cls-2" d="M1868.83,3900.29l2.07-.34c-3.23-19.46-13.59-40.51-28.45-57.76l-1.59,1.38C1855.46,3860.53,1865.66,3881.21,1868.83,3900.29Z"/><path class="cls-2" d="M1862.06,3916.79l2-.67a144.69,144.69,0,0,1-4-16.75c-2.63-13.06-5.61-27.85-13.76-35.63l-1.46,1.53c7.68,7.32,10.6,21.76,13.16,34.51A145.47,145.47,0,0,0,1862.06,3916.79Z"/><path class="cls-2" d="M1857.8,3950.83l1.93-.82c-2.47-5.89-4.93-12.18-7.31-18.26-4.8-12.25-9.75-24.92-15.58-36.39l-1.88.95c5.78,11.38,10.73,24,15.49,36.21C1852.84,3938.61,1855.31,3944.91,1857.8,3950.83Z"/><path class="cls-2" d="M1855.88,3983.44l.68-2c-16-5.4-29.1-38-36.15-55.45l-1.6-3.93-2,.8,1.59,3.92C1825.63,3944.59,1839,3977.72,1855.88,3983.44Z"/><path class="cls-2" d="M1839,3994.41l1.67-1.27c-4.5-5.89-8-13.68-11.42-21.2-3.08-6.8-6.26-13.83-10.24-19.71l-1.74,1.18c3.88,5.73,7,12.67,10.06,19.4C1830.8,3980.44,1834.37,3988.33,1839,3994.41Z"/><path class="cls-2" d="M1835.47,4021.6a4.79,4.79,0,0,0,.71.12l.14-2.1c-5.78-.41-23.61-28.77-26.69-40.56l-2,.54C1810.37,3990.23,1827.39,4019.42,1835.47,4021.6Z"/><path class="cls-2" d="M1826.56,4049l1.94-.81c-2.49-6-4.79-12.17-7-18.18-4.34-11.75-8.83-23.89-15.09-35.08l-1.84,1c6.18,11,10.64,23.11,15,34.78C1821.75,4036.77,1824.05,4043,1826.56,4049Z"/><path class="cls-2" d="M1824.18,4069.4a1.46,1.46,0,0,0,.54,0l-.15-2.09-.11,0c-4.57-1.23-25.68-45.31-30.14-58.54l-2,.67C1794.65,4016.36,1816.81,4067.42,1824.18,4069.4Z"/><path class="cls-2" d="M1813.53,4094.23l1.45-1.51c-8.12-7.78-12.53-19.25-16.79-30.35-3.49-9.07-7.11-18.45-12.74-25.94l-1.67,1.27c5.45,7.25,9,16.49,12.44,25.43C1800.56,4074.44,1805.06,4086.14,1813.53,4094.23Z"/><path class="cls-2" d="M1801.66,4125l1.41-1.56c-9.35-8.52-16.21-22.86-22.26-35.52-1.75-3.67-3.4-7.14-5.06-10.34l-1.87,1c1.64,3.18,3.29,6.63,5,10.29C1785.05,4101.63,1792,4116.17,1801.66,4125Z"/><path class="cls-2" d="M1800.35,4147.59l1.53-1.46c-6.42-6.71-10-18.09-13.4-29.09-1.61-5.19-3.14-10.1-4.91-14.32l-1.94.82c1.74,4.13,3.24,9,4.85,14.13C1790,4128.9,1793.59,4140.51,1800.35,4147.59Z"/><path class="cls-2" d="M1790,4176l2-.74c-1.57-4.16-3.11-8.39-4.66-12.65-7.65-21-15.56-42.68-27.94-60.49l-1.72,1.2c12.22,17.59,20.09,39.16,27.68,60C1786.86,4167.59,1788.41,4171.82,1790,4176Z"/><path class="cls-2" d="M1788.32,4202.62l1-1.87c-9.18-4.68-14.39-20.3-18.58-32.85-1.4-4.21-2.74-8.2-4.1-11.42-.5-1.19-1-2.38-1.55-3.55-1.7-3.76-3.3-7.31-4-11.22l-2.07.34c.7,4.17,2.43,8,4.09,11.74.53,1.16,1.05,2.33,1.55,3.51,1.32,3.14,2.64,7.09,4,11.27C1773,4181.48,1778.37,4197.56,1788.32,4202.62Z"/><path class="cls-2" d="M1785.91,4228.51l1.46-1.52c-7.84-7.52-11.51-18.67-15.06-29.46-3.09-9.4-6.29-19.12-12.25-26.27l-1.61,1.36c5.7,6.83,8.7,15.93,11.87,25.57C1773.94,4209.22,1777.69,4220.63,1785.91,4228.51Z"/><path class="cls-2" d="M1770.75,4248.62l1.56-1.42c-8.88-9.82-13.66-23.78-18.27-37.29-3.25-9.52-6.61-19.36-11.38-27.46l-1.82,1.06c4.66,7.92,7.85,17.23,11.22,27.09C1756.74,4224.3,1761.58,4238.46,1770.75,4248.62Z"/><path class="cls-2" d="M1757.16,4263.13l1.56-1.42c-3.93-4.32-7-10.17-9.87-15.82a120,120,0,0,0-6.31-11.2c-.85-1.27-2.43-3.95-4.1-6.78-7.34-12.42-7.55-12.35-8.69-11.93-.28.11-.91.47-.7,1.6l2.07-.38a1,1,0,0,1-.53.7.91.91,0,0,1-.94,0c.81.69,4.52,7,7,11.11,1.7,2.86,3.28,5.56,4.17,6.88a123.46,123.46,0,0,1,6.19,11C1750,4252.63,1753.05,4258.6,1757.16,4263.13Z"/><path class="cls-2" d="M1732.38,4276l.75-2a14.59,14.59,0,0,1-8.06-7.83l-1.93.85A16.7,16.7,0,0,0,1732.38,4276Z"/><polygon class="cls-2" points="2465.34 1204.26 2576.48 1209.71 2283.44 915.99 2146.23 1221.39 2286.13 1234.79 2271.56 1491.53 2257.3 1486.48 2270.84 1247.91 2124.68 1233.92 2278.83 890.81 2613.29 1226.06 2482.17 1219.62 2533.74 1584.41 2518.3 1578.94 2465.34 1204.26"/><path class="cls-2" d="M320.57,1366.9c-18.22-107.56,13.35-207.14,91.3-288,85.61-88.79,215.22-141.08,338.26-136.47,45.94,1.72,88.76,11.27,127.27,28.38a283.93,283.93,0,0,1,104.37,78.68c82.11,99,123.57,197.78,123.24,293.56a326.41,326.41,0,0,1-2,35.3c.1,24.13,2.9,133.29,43.76,201.47l-7.58,7.85c-18.6-29.83-31.93-70.55-39.76-121.58-2.32-15.1-3.87-29.46-4.9-42.19-1.39-17.16-1.84-31.32-2-40.25q.71-5.16,1.23-10.33c10.28-101.29-29.74-208.22-120-317.12-52.37-63.15-131.9-99.82-224-103.27-120.14-4.5-246.7,46.56-330.3,133.26-166.11,172.27-85.84,401.09,59,540.79,69.23,66.76,153,98.28,238.37,95.44q2.76-.09,5.52-.24c8,.92,23.69,2.82,43.84,5.74,54,7.84,139.85,23,193.29,46.07l-3.08,3.2a44.46,44.46,0,0,0-4.16,5c-69.13-28.68-194.39-45.16-228-49.19a317.58,317.58,0,0,1-127.9-18.7c-45.33-16.52-87.46-43.36-125.21-79.76C390,1556.35,336.56,1461.28,320.57,1366.9Z"/><path class="cls-2" d="M969.6,1778.68q-4.83-2.39-10.11-4.66l179.66-186.32c1.94,3.1,3.93,6.07,6,8.94Z"/><path class="cls-2" d="M964.77,1833.12c14.4,13.88,38.9,14.71,51.45,1.7l205-209.17a34.44,34.44,0,0,0-.82-48.61c-11.75-11.32-34.26-23-48.1-8.61l-19.75,20.48c-2-2.93-4-6-5.85-9.06l18-18.71c17.18-17.81,44.56-9.4,62.84,8.22a44.8,44.8,0,0,1,1,63.36v0L1023.63,1842c-16.62,17.24-47.47,16.67-66.15-1.35a44.92,44.92,0,0,1-5.23-58.46c3.43,1.43,6.75,2.88,9.89,4.37A34.4,34.4,0,0,0,964.77,1833.12Z"/><path class="cls-2" d="M959.49,1774q5.28,2.28,10.11,4.66l-5.63,5.83c-.64.67-1.25,1.37-1.83,2.08-3.14-1.49-6.46-2.94-9.89-4.37a44.46,44.46,0,0,1,4.16-5Z"/><path class="cls-2" d="M1145.13,1596.64c-2.05-2.87-4-5.84-6-8.94l7.58-7.85c1.86,3.11,3.82,6.13,5.85,9.06Z"/><path class="cls-2" d="M1038.45,1903.75c-17.23-16.61-26.11-42.26-9.79-59.19L1224.92,1641c16.32-16.92,43.22-17.56,60-1.41,17.66,17,19.3,46.29,3.56,62.61l-190,200.11,0,0C1082.12,1919.29,1055.22,1919.93,1038.45,1903.75Zm-2.23-51.9c-12.89,13.37-1.35,33.86,9.55,44.37a32,32,0,0,0,45.14-1.09l190-200.15c11.68-12.1,10.12-34.88-3.27-47.79a32,32,0,0,0-45.12,1.13Z"/><polygon class="cls-2" points="1294.83 1738.2 1281.52 1708.03 1271.91 1712.27 1282.34 1735.92 1122.52 1898.2 1103.85 1888.92 1099.18 1898.33 1124.67 1911 1294.83 1738.2"/><path class="cls-2" d="M1108.31,1625.74c-17.26-23-40.13-44-62.24-64.28-8.35-7.65-16.24-14.88-23.88-22.25l-72.34-69.75c-4.54-4.38-9.11-9.06-13.54-13.58-18.57-19-37.77-38.63-63.79-46.81-24.69-8.59-49.4-18.22-80.11-31.2-15.65-7-26.54-4.54-37.57,8.68l-.43.55c-9.15,11.87-18.76,25.36-17,35.42.73,5.86,5.56,13.3,10.66,21.18,3.1,4.78,6.31,9.72,7.77,13.23.57,1.81,1.1,3.58,1.63,5.33,3.13,10.43,6.1,20.27,13.63,30.18,12.2,17,27,31.35,41.36,45.27,9.85,9.56,20,19.45,29.12,30,54.29,61.57,111.63,110.89,165.5,155l6.66-8.12c-53.53-43.85-110.48-92.84-164.25-153.81-9.35-10.82-19.7-20.87-29.71-30.6-14-13.62-28.52-27.7-40.19-43.92l-.09-.11c-6.41-8.42-9-17-12-26.9-.56-1.86-1.13-3.75-1.73-5.67l-.15-.41c-1.8-4.44-5.18-9.66-8.76-15.18-3.87-6-8.68-13.38-9.06-16.8l0-.39c-1.17-6.3,11-22.09,15-27.28l.23-.3c8.07-9.64,13.73-10.91,25.18-5.74l.12,0c31,13.1,55.93,22.82,80.88,31.5l.16,0c23.54,7.38,41.82,26.07,59.5,44.15,4.48,4.58,9.11,9.32,13.76,13.8l72.34,69.75c7.73,7.46,16,15.07,24.07,22.44,21.76,19.94,44.26,40.57,60.93,62.82Z"/><path class="cls-2" d="M849.24,1405c-17-88.51-38.8-162.06-66.7-224.87l-9.6,4.26c27.57,62.07,49.16,134.88,66,222.59Z"/><path class="cls-2" d="M762.24,1476.49l.48-10.49c-20-.91-40-7.41-59.27-13.68-13.22-4.3-26.88-8.74-40.68-11.48-6.93-1.66-13.69-3-20.23-4.25-12.51-2.44-24.32-4.74-36.5-9.17l-.22-.07c-11.64-3.65-22.1-8-36.11-15.12L565,1421.6c14.52,7.35,25.42,11.91,37.6,15.74,12.92,4.68,25.65,7.16,38,9.56,6.46,1.26,13.15,2.56,19.89,4.18l.2,0c13.22,2.63,26.62,7,39.58,11.19C720.19,1468.8,740.85,1475.52,762.24,1476.49Z"/><path class="cls-2" d="M776.28,1185.25c-15.59,10.65-30.56,6.2-37.86-2.44-6.84-8.1-9.31-22.07.72-35.11l.11-.17c7-9.41,17.21-13.39,27.87-10.93,11,2.53,20,11.56,22,22,1.51,7.86-1.08,15.56-7.19,21.9A37.85,37.85,0,0,1,776.28,1185.25Zm-26.57-33.83c-8.75,9.08-8,19.07-3.27,24.61,4.17,4.94,12.94,8,23.88.56,6.68-4.63,9.61-10.17,8.49-16-1.22-6.35-7.13-12.11-14-13.71a16.1,16.1,0,0,0-14.8,4.35Z"/><path class="cls-2" d="M567.42,1426.06c-15.59,10.66-30.56,6.21-37.86-2.43-6.84-8.1-9-22.1,1-35.15l-.17-.13c7-9.41,17.2-13.39,27.86-10.93,11,2.52,20,11.56,22,22,1.51,7.86-1.08,15.56-7.19,21.9A37.8,37.8,0,0,1,567.42,1426.06Zm-26.17-33.9c-8.75,9.08-8.35,19.15-3.67,24.69,4.17,4.94,12.94,8,23.88.56,6.68-4.63,9.62-10.18,8.49-16-1.22-6.35-7.13-12.12-14.05-13.71a16.08,16.08,0,0,0-14.8,4.35Z"/><path class="cls-2" d="M539.43,1385.41c-2.67-30.57.07-45,14-73.55,19.16-38.16,50.74-70.16,96.52-97.79,4.14-2.59,8.32-5.3,12.74-8.18,18.34-11.94,39.13-25.47,58.57-30.1a79.82,79.82,0,0,1,9.41-.92,84.72,84.72,0,0,0,10.55-1.06l-1.53-8.26a75.5,75.5,0,0,1-9.51.93,86.67,86.67,0,0,0-10.55,1.06l-.2,0c-20.9,4.94-42.37,18.92-61.32,31.25-4.39,2.86-8.54,5.56-12.56,8.07-47.12,28.44-79.74,61.56-99.65,101.23-14.56,29.92-18,50.76-15.16,82.82Z"/><path class="cls-2" d="M972.86,1314.12c10.47-50.46-16.74-99.31-44.73-140.43-48.13-72.49-90-107-127.86-105.6l.32,8.4c20.67-.78,43.8,11.4,68.75,36.21,21.65,21.52,39.94,47.79,51.82,65.67,27,39.71,53.3,86.66,43.47,134Z"/><path class="cls-2" d="M657.25,1619.05l2-8.16c-110-27-196.67-101.19-231.88-198.38l-7.9,2.87c18.15,50.11,50.38,95.5,93.18,131.25C553.61,1580.83,603.61,1605.87,657.25,1619.05Z"/><path class="cls-2" d="M1008.35,1237.25c-2.91-68.73-54.59-150.52-117.66-186.2l-4.14,7.32c60.79,34.39,110.6,113.12,113.4,179.24Z"/><path class="cls-2" d="M616.52,1634.54l1.68-8.24c-34.8-7.11-61.47-17.64-95.1-37.56-15.41-9.85-29.78-22.39-43.67-34.52-17-14.84-34.58-30.18-54.58-41.15l-4,7.37C440,1531,457.24,1546,473.9,1560.55c14.15,12.35,28.77,25.12,44.74,35.31l.12.07C553.29,1616.39,580.7,1627.22,616.52,1634.54Z"/><path class="cls-3" d="M1912.53,3723.47a46.76,46.76,0,0,0,59.34,28.76l1414.9-491a46.77,46.77,0,0,0,28.76-59.34l-630-1815.68a46.75,46.75,0,0,0-59.33-28.76l-1414.91,491a46.76,46.76,0,0,0-28.76,59.34Z"/><path class="cls-4" d="M1956.86,3595.81a46.78,46.78,0,0,0,59.34,28.77l1256.7-436.07a46.76,46.76,0,0,0,28.76-59.33l-560.5-1615.3a46.77,46.77,0,0,0-59.34-28.76l-1256.7,436.07a46.76,46.76,0,0,0-28.76,59.33Z"/><path class="cls-5" d="M1725.31,1648.61l278.5-87.38,272.79-103.91s18,95.08,92.39,163.37l-296.75,103-21.5,7.46-301.57,104.65C1765.28,1736.08,1725.31,1648.61,1725.31,1648.61Z"/><path class="cls-6" d="M1742.72,1831.34a34.06,34.06,0,0,0,43.34,21l569.73-197.7a34.1,34.1,0,0,0,21.05-43.36h0a34.1,34.1,0,0,0-43.39-21L1763.72,1788a34.06,34.06,0,0,0-21,43.34Z"/><path class="cls-6" d="M1716,1655.26a30.75,30.75,0,0,0,39.14,19l514.67-178.58a30.79,30.79,0,0,0,19-39.15h0a30.78,30.78,0,0,0-39.18-19l-514.66,178.58a30.78,30.78,0,0,0-19,39.17Z"/><path class="cls-6" d="M1841,1619.61l331.37-115-17-48.85c-31.75-91.49-131.68-140-223.17-108.19A175.39,175.39,0,0,0,1824,1570.77ZM1906.7,1482a68.12,68.12,0,1,1,86.66,42A68.13,68.13,0,0,1,1906.7,1482Z"/><path class="cls-7" d="M2014.88,3495.06,1583.08,2251A59.93,59.93,0,0,1,1620,2174.8l1076.23-373.53a59.93,59.93,0,0,1,76.18,36.92L3204.2,3082.28a59.92,59.92,0,0,1-36.92,76.17L2091.05,3532A59.93,59.93,0,0,1,2014.88,3495.06ZM1628.68,2199.8a33.44,33.44,0,0,0-20.6,42.5l431.8,1244.09a33.43,33.43,0,0,0,42.5,20.59L3158.6,3133.45a33.43,33.43,0,0,0,20.6-42.5L2747.41,1846.87a33.43,33.43,0,0,0-42.5-20.6Z"/><rect class="cls-7" x="1638.76" y="2252.63" width="1224.9" height="26.47" transform="translate(-618.55 863.52) rotate(-19.14)"/><rect class="cls-7" x="1731.32" y="2519.3" width="1224.9" height="26.46" transform="translate(-700.85 908.55) rotate(-19.14)"/><rect class="cls-7" x="1823.46" y="2784.79" width="1224.9" height="26.46" transform="translate(-782.77 953.38) rotate(-19.14)"/><rect class="cls-7" x="1916.02" y="3051.46" width="1224.9" height="26.46" transform="translate(-865.11 998.5) rotate(-19.14)"/><rect class="cls-7" x="2188.42" y="2031.71" width="26.46" height="1416.44" transform="translate(-776.65 873.32) rotate(-19.14)"/><rect class="cls-7" x="2574.15" y="1897.83" width="26.46" height="1416.44" transform="translate(-711.42 992.38) rotate(-19.14)"/><rect class="cls-8" x="2577.32" y="2234.39" width="239.43" height="41.59" transform="translate(-590.35 1009.02) rotate(-19.14)"/><rect class="cls-8" x="2286.2" y="2659.47" width="200.37" height="34.03" transform="translate(-745.66 930.43) rotate(-19.14)"/><rect class="cls-8" x="1711.01" y="2236.59" width="195.33" height="64.27" transform="translate(-643.89 718.45) rotate(-19.14)"/><rect class="cls-7" x="2110.15" y="2116.38" width="200.37" height="36.55" transform="translate(-577.74 842.76) rotate(-19.14)"/><rect class="cls-7" x="2378.39" y="2890.69" width="197.85" height="34.02" transform="translate(-816.44 973.02) rotate(-19.14)"/><rect class="cls-7" x="2217.33" y="2368.82" width="186.51" height="51.67" transform="translate(-657.44 889.99) rotate(-19.14)"/><rect class="cls-7" x="1808.73" y="2526.58" width="175.17" height="27.72" transform="translate(-728.14 762.21) rotate(-19.14)"/><rect class="cls-7" x="2572.7" y="1983.2" width="128.54" height="44.11" transform="translate(-511.73 975.51) rotate(-19.14)"/><rect class="cls-7" x="2698.3" y="2503.94" width="158.78" height="44.1" transform="translate(-674.69 1050.43) rotate(-19.14)"/><path class="cls-9" d="M3268.7,3155.61c23.79,48.2,3.4,106.21-45.53,129.59s-107.89,3.26-131.68-44.92-3.39-106.21,45.55-129.59S3244.92,3107.42,3268.7,3155.61Z"/><path class="cls-9" d="M3334.21,3265.71c23.78,48.19,3.4,106.2-45.54,129.58s-107.88,3.27-131.67-44.92-3.39-106.2,45.54-129.58S3310.43,3217.52,3334.21,3265.71Z"/><path class="cls-9" d="M3286.88,3376.57s226.71,16.34,337,224.28,122.05-9.2,122.05-9.2l41.88-288.19-164.23-216.19-253-15.12-180,86Z"/><path class="cls-10" d="M3430.94,3360.68s108.48,219.79,238.81,157.53,41.08-263.49,41.08-263.49l-86.57-150.94s-277.64,49.36-365.15,51.53-228.53-136.67-117.26-160.08l464.9-61.52s109.67-26.62,181.48,69.91l190.93,235.92s91.54,71.25,59.53,177.73-79.21,381.83-79.21,381.83l11.78,32L3602.74,3994.3l-59.18-11.53s-121.82-179.66-199.42-336.88,49.17-182,49.17-182Z"/><path class="cls-4" d="M3743.57,3870.14l231-104.76c24.32-11,53.62-1.54,65.44,21.19l85.4,164.27c11.83,22.74,1.69,50.12-22.63,61.15l-231,104.76-29.16-56.07Z"/><path class="cls-11" d="M3512.59,3974.9l231-104.76,99.06,190.54,29.16,56.07-231,104.76c-24.32,11-53.62,1.54-65.44-21.2L3490,4036C3478.13,4013.3,3488.26,3985.94,3512.59,3974.9Z"/><path class="cls-12" d="M3793.11,3958.45l-267.18,121.18c-23.61,10.71-36.33,31.73-28.41,47l487.41,873.06,382.32.35Z"/><path class="cls-13" d="M4754.52,5008.18,4117.38,3845.45c-7.91-15.22-33.46-18.9-57.07-8.18l-267.2,121.18L4367.25,5000Z"/><path class="cls-4" d="M3585,4218.79c11.47,22.07,39.91,31.29,63.52,20.58s33.44-37.28,22-59.35-39.92-31.27-63.52-20.57S3573.5,4196.73,3585,4218.79Z"/><path class="cls-14" d="M3943.54,3426c-30-8.54-47.38-39.39-38.73-69l11.43-39c8.61-29.53,40-46.58,70-38.07l39.71,11.29c30,8.53,47.32,39.41,38.68,68.93l-11.4,39c-8.65,29.57-40,46.61-70,38.08Z"/><polygon class="cls-15" points="2913.97 3055.25 2956.34 3089.71 2968.63 3047.75 2913.97 3055.25"/><path class="cls-16" d="M3918,3340.18l-823.61-233.91c16.26,10.45,29.51,28.65,24.6,45.39-5.81,19.86-28,30.57-51.27,26.56l-.46,1.62,828.81,235.38Z"/><path class="cls-17" d="M3940.37,3263.76l-828.83-235.38-.12.42c22.91,8.33,36.76,29.78,30.79,50.12-5.22,17.91-28.73,27.26-49.33,26.31a14.8,14.8,0,0,1,1.51,1L3918,3340.18Z"/><path class="cls-18" d="M3111.83,3029.14l.26-.91-143.46,19.52-12.29,42,110.9,90.16,0,.18c.11,0,.23,0,.34,0l.13.11,0-.09c23.3,3.82,45.56-7,51.39-26.89,5.14-17.5-4.43-35.73-21.58-46,20.84.92,39.75-9.5,45-27.59C3148.49,3059.23,3134.74,3037.63,3111.83,3029.14Z"/><polygon class="cls-19" points="3936.11 3425.83 3979.99 3275.79 3940.16 3264.49 3896.27 3414.51 3936.11 3425.83"/><path class="cls-20" d="M3915,3424a5.94,5.94,0,0,1-4.1-7.31l42.72-146.06a6.05,6.05,0,0,1,7.41-4h0a5.88,5.88,0,0,1,4.11,7.32L3922.42,3420a6,6,0,0,1-7.43,4Z"/><path class="cls-20" d="M3895.34,3419.19a5.9,5.9,0,0,1-4.12-7.28l42.72-146.08a6,6,0,0,1,7.43-4h0a5.91,5.91,0,0,1,4.11,7.29l-42.71,146.08a6,6,0,0,1-7.43,4Z"/><path class="cls-10" d="M3533.64,3530.9c23.74,48.11,3.4,106-45.42,129.33h0c-48.86,23.35-128.89,15-152.64-33.09L3160.93,3218.6c-23.72-48.06-3.37-106,45.49-129.31h0c48.81-23.33,107.65-3.25,131.37,44.82Z"/><path class="cls-21" d="M1343.5,3034.52c35.57,15.15,52.17,55.53,39.66,91.47a5.24,5.24,0,0,0,1,.1l26.76-62.83a73.35,73.35,0,0,1,135,57.5l28.74-67.47a73.52,73.52,0,0,1,96.21-38.74c37,15.76,54.53,59.13,38.73,96.23l115-269.89a73.33,73.33,0,1,1,134.92,57.49l-18.36,43.1L1787,3303.19,1766.25,3352c-3.51,8.22.9,18.74,7.82,24.49s17.64,6.75,25.18,1.82c77.26-43.58,101.36-108.88,172.92-78.39a50.84,50.84,0,0,1,11.36,87L1578.3,3751.82a36.78,36.78,0,0,1-36.89,4.73c-59-25.16-267.23-113.86-394.14-167.92a110,110,0,0,1-58.08-144.31l158.11-371.09A73.51,73.51,0,0,1,1343.5,3034.52Z"/><path class="cls-21" d="M1924.5,3398.54c-3.33,3.87-120.14,150.18-120.14,150.18s-121.95,190.12-178.45,224.54-129.23,61.62-164.17,110.09-412.06-186-412.06-186,20.93-186.11,30.94-213.4,126.92-124.16,126.92-124.16l606.67,79.65Z"/><path class="cls-4" d="M1288.84,3721l-247-124.94a52.75,52.75,0,0,0-70.91,23.26L875.84,3807.2a52.79,52.79,0,0,0,23.27,70.93l247,124.95,32.45-64.15Z"/><path class="cls-11" d="M1535.87,3845.91l-247-125-110.25,218-32.45,64.15,247,125a52.79,52.79,0,0,0,70.92-23.29l95.05-187.93A52.76,52.76,0,0,0,1535.87,3845.91Z"/><polygon class="cls-22" points="1136.54 4031.67 1135.72 4031.24 1233.83 3821.91 1136.54 4031.67"/><path class="cls-12" d="M1519.57,3966.45c25.25,12.77,38.57,37.25,29.75,54.67L1135.72,5000H718.09l515.74-1178.09Z"/><path class="cls-13" d="M886.41,3685.8c8.81-17.43,36.42-21.2,61.67-8.43l285.75,144.54L720.19,5000H330.76Z"/><path class="cls-11" d="M1453.39,4125.9a51.23,51.23,0,1,1-22.59-68.84A51.24,51.24,0,0,1,1453.39,4125.9Z"/><path class="cls-2" d="M3587.24,1789.84q5.13,3.44,9.72,7.21c23.52-28.67,55.29-43.56,94.75-44.35l3.17,0c47.51,0,83.62,21.28,107.34,63.26,13.07,23.13,18.6,46.4,20.65,57.44l-175.6,3.63c1.34,4.39,2.43,8.45,3.3,12.08l186.16-3.86-.74-6.6c-.16-1.41-4.07-34.8-23.2-68.66-15-26.48-41.87-57.18-88.27-66.56a72.86,72.86,0,0,0,39.64-64.9c0-40.11-32.39-72.74-72.21-72.74s-72.2,32.63-72.2,72.74a72.87,72.87,0,0,0,41.15,65.67C3631.55,1750.75,3606.64,1766.17,3587.24,1789.84ZM3692,1739.11c-33.12,0-60.06-27.19-60.06-60.61s26.94-60.6,60.06-60.6,60.06,27.19,60.06,60.6S3725.07,1739.11,3692,1739.11Z"/><path class="cls-2" d="M3364.65,1919.15l290-6-.74-6.61a154.38,154.38,0,0,0-3.3-17.46c-.87-3.63-2-7.69-3.3-12.08a196.36,196.36,0,0,0-16.6-39.11,144.91,144.91,0,0,0-33.71-40.84q-4.59-3.77-9.72-7.21a123.71,123.71,0,0,0-44.85-18.51,72.87,72.87,0,0,0,39.64-64.9c0-40.11-32.39-72.75-72.2-72.75s-72.2,32.64-72.2,72.75a72.87,72.87,0,0,0,41.15,65.67,133.05,133.05,0,0,0-27.43,9.3q-5.59,2.63-10.89,5.77c-20.83,12.33-38.21,30.62-51.54,54.54a198.11,198.11,0,0,0-12.65,27.67c-1.57,4.26-2.94,8.37-4.11,12.23a184.49,184.49,0,0,0-6.77,30.67ZM3509.83,1767c-33.12,0-60.06-27.19-60.06-60.61s26.94-60.61,60.06-60.61,60.06,27.19,60.06,60.61S3543,1767,3509.83,1767Zm-131.28,139.68a202.39,202.39,0,0,1,6.46-25.38c1.26-3.89,2.71-8,4.39-12.23a180.72,180.72,0,0,1,10.32-21.82q18.95-33.84,48.14-50.58a114,114,0,0,1,10.93-5.51q22.76-10,50.79-10.57l3.18,0c25.85,0,48.32,6.31,67.26,18.82a110.85,110.85,0,0,1,9.73,7.23q17.53,14.58,30.35,37.21a182.48,182.48,0,0,1,14.5,33.4c1.41,4.35,2.56,8.42,3.49,12.08,1.23,4.77,2.08,8.84,2.66,12Z"/><path class="cls-2" d="M3200.73,1885.15l171.43-3.54c1.17-3.86,2.54-8,4.11-12.23l-161.63,3.34c2.1-11.45,7.77-35.52,21.17-59.43,24.23-43.26,61.19-65.69,109.86-66.66l3.18,0c38,0,68.7,13.63,91.61,40.57q5.29-3.15,10.89-5.77c-16-19.4-39.37-37.29-72.88-44.06a72.88,72.88,0,0,0,39.65-64.91c0-40.11-32.39-72.74-72.2-72.74s-72.21,32.63-72.21,72.74a72.88,72.88,0,0,0,41.16,65.67c-38.31,8.58-69,32.24-89.86,69.62-19.48,35-23.37,69.13-23.53,70.57ZM3345.92,1733c-33.12,0-60.06-27.19-60.06-60.61s26.94-60.6,60.06-60.6S3406,1639,3406,1672.43,3379,1733,3345.92,1733Z"/><path class="cls-2" d="M3048,1762.44a426.29,426.29,0,0,0,36.87,174,444.9,444.9,0,0,0,100.48,142,469.2,469.2,0,0,0,148.94,95.68,491.37,491.37,0,0,0,364.61,0,469,469,0,0,0,148.93-95.68,444.75,444.75,0,0,0,100.48-142,429.06,429.06,0,0,0,0-348,444.6,444.6,0,0,0-100.48-142,468.9,468.9,0,0,0-148.93-95.69,491.37,491.37,0,0,0-364.61,0,469.06,469.06,0,0,0-148.94,95.69,444.75,444.75,0,0,0-100.48,142A426.32,426.32,0,0,0,3048,1762.44Zm697-376.18L3688.93,1468c-52.21-26.82-111.09-41.1-172.31-41.1-95.73,0-185.76,34.85-253.49,98.13a340,340,0,0,0-60.59,75l0-.13-95-30.3c74.74-143.21,230-241.87,409-241.87A471.23,471.23,0,0,1,3745.06,1386.26Zm-575,376.18c0-178.31,155.47-323.37,346.56-323.37s346.57,145.06,346.57,323.37-155.47,323.38-346.57,323.38S3170.06,1940.75,3170.06,1762.44Zm751.31-200.78-91.8,36.5a341.05,341.05,0,0,0-59.45-73.11,358.91,358.91,0,0,0-70.41-51.28l55.93-81.48C3825.62,1433.41,3883.12,1492,3921.37,1561.66Zm-404.75,635.42a481,481,0,0,1-57.4-3.42l28.84-96.76c9.45.69,19,1.06,28.56,1.06,95.74,0,185.77-34.85,253.5-98.13s105.21-147.69,105.21-237.39a316.65,316.65,0,0,0-39.64-153.64l91.41-36.35a415,415,0,0,1,46,190C3973.07,2002.1,3768.31,2197.08,3516.62,2197.08Zm-456.45-434.64a414.77,414.77,0,0,1,41.88-181.78l94.42,30.11a316.49,316.49,0,0,0-38.55,151.67c0,89.7,37.36,174,105.21,237.39,58,54.18,132.32,87.49,212.59,96L3447,2192C3228.26,2160,3060.17,1979.58,3060.17,1762.44Z"/><path class="cls-2" d="M2890.46,1185.83c-41.34-9.29-78.5-29.54-107.38-58.57-31.73-31.9-53.73-73.65-65.25-124.2-19.12-90.41-1.51-180.42,47.42-240.77,35.76-44.12,85.21-68.13,140.5-69.68v-.09h7.06v0c36.47.17,82.79,2.18,126.58,13.78,49.77,13.19,88.41,36.3,118.65,70.66,39.77,45.19,63.3,96.75,68.06,149.1,4.88,53.68-10.43,104.6-44.25,147.24-58.68,74.68-148.68,118.52-236.35,118.52A251.06,251.06,0,0,1,2890.46,1185.83ZM2776,770.73c-46.4,57.25-63.19,143.06-44.91,229.45,21.07,92.5,78.72,153.78,162.34,172.56a237.88,237.88,0,0,0,52.18,5.7c83.58,0,169.54-42,225.69-113.43,64-80.72,54.85-190.3-23.35-279.16-60.83-69.13-149.77-79.59-237.35-79.9C2856.54,706.41,2810,728.79,2776,770.73Z"/><path class="cls-2" d="M2921.36,958.34c0-10.87,9.26-19.71,20.64-19.71s20.64,8.84,20.64,19.71S2953.38,978,2942,978,2921.36,969.21,2921.36,958.34Zm11.41,0c0,4.57,4.14,8.29,9.23,8.29s9.22-3.72,9.22-8.29-4.13-8.29-9.22-8.29S2932.77,953.77,2932.77,958.34Z"/><path class="cls-2" d="M2930.89,945.14l14.38-2c-4.87-35.35-8.62-71.81-11.15-108.38-.17-2.07-.24-4-.31-6.16-.21-5.76-.42-11.71-2.53-18l-13.78,4.59c1.45,4.34,1.62,9,1.8,14,.07,2.18.16,4.43.35,6.74C2922.18,872.68,2926,909.47,2930.89,945.14Z"/><path class="cls-2" d="M2920,843.43a97.4,97.4,0,0,0,8-16.73c1.79,1.65,3.63,3.23,5.44,4.78,1.38,1.19,2.76,2.37,4.12,3.59l9.71-10.79c-1.44-1.29-2.91-2.56-4.37-3.82-4.62-4-9-7.7-11.78-12.1l-8.88-14-4.26,16c-1.84,6.92-5.14,17-10.37,25.45Z"/><path class="cls-2" d="M3114.85,990.83c.65,0,1.3,0,2-.05l-.7-14.5c-4.57.22-9.12-.88-13.94-2-2.12-.52-4.31-1-6.58-1.48-31.12-6.44-83-13.46-121-18.58l-14.8-2-2,14.39,14.82,2c37.7,5.09,89.34,12.07,120.06,18.43,2,.39,4,.86,6,1.35C3103.8,989.57,3109,990.83,3114.85,990.83Z"/><path class="cls-2" d="M3099.31,1002.51c1.63-1,3.24-2.11,4.85-3.19,5.06-3.37,9.84-6.57,14.83-8.07l15.83-4.79L3120.58,978c-6.16-3.64-14.94-9.52-21.7-16.83l-10.66,9.85a97.4,97.4,0,0,0,14,12.24c-2.07,1.28-4.08,2.62-6.07,4-1.51,1-3,2-4.57,3Z"/><path class="cls-2" d="M2922.82,770.79c1.92-12.4,1.94-24.95,1.94-37.46,0-8.43,13.07-8.43,13.07,0,0,13.73-.3,27.33-2.41,40.93-1.29,8.31-13.88,4.77-12.6-3.47Z"/><path class="cls-2" d="M2805.42,968.3c-12.12-3.9-24.56-6.24-37-8.71-8.26-1.63-4.76-14.22,3.48-12.59,12.46,2.46,24.9,4.8,37,8.71,8,2.57,4.57,15.19-3.47,12.59Z"/><path class="cls-2" d="M3194,974.44h-40c-9.41,0-9.41-12.94,0-12.94h40c9.41,0,9.41,12.94,0,12.94Z"/><path class="cls-2" d="M2935.88,1146.69c-4.16-22.25-2.5-44.6-2.41-67.08,0-8.42,13.1-8.43,13.07,0-.09,21.22-2,42.6,1.94,63.6,1.55,8.24-11.05,11.75-12.6,3.48Z"/><path class="cls-2" d="M2837.73,788.53c-9.23-7.37-15.31-17.94-24.8-25-4.46-3.31-.12-10.88,4.39-7.52,10.14,7.54,16.75,18.52,26.57,26.36,4.39,3.51-1.82,9.63-6.16,6.16Z"/><path class="cls-2" d="M2805.14,865.43c-15.72.19-28.93-8.9-44.23-10.7-5.51-.65-5.58-9.37,0-8.72,15.19,1.8,28.8,10.9,44.23,10.7,5.62-.06,5.61,8.65,0,8.72Z"/><path class="cls-2" d="M2803.77,1034.62c-9.39,5.53-17.21,13-25.52,20-4.26,3.59-10.46-2.54-6.15-6.16,8.86-7.45,17.24-15.46,27.27-21.37,4.85-2.85,9.24,4.68,4.4,7.53Z"/><path class="cls-2" d="M2874.25,1092.65c-5.32,13.57-5.05,28.43-10,42.09-1.89,5.24-10.32,3-8.4-2.32,4.93-13.66,4.66-28.52,10-42.09,2-5.17,10.46-2.92,8.4,2.32Z"/><path class="cls-2" d="M3035.64,1133.31c-3.53-16.09-5.09-32.55-9.28-48.51-1.42-5.44,7-7.74,8.4-2.31,4.19,16,5.75,32.41,9.28,48.51,1.2,5.47-7.2,7.8-8.4,2.31Z"/><path class="cls-2" d="M3131.15,1075.87c-16.12-1.26-28.31-10.3-40.18-20.53-4.26-3.68,1.93-9.81,6.17-6.16,9.93,8.57,20.43,16.92,34,18,5.56.43,5.61,9.15,0,8.71Z"/><path class="cls-2" d="M3158.71,852.43a436,436,0,0,0-42.81,11.41c-5.37,1.69-7.66-6.72-2.31-8.4a435.84,435.84,0,0,1,42.8-11.41c5.48-1.13,7.81,7.27,2.32,8.4Z"/><path class="cls-2" d="M3074.27,758.4c-7.91,10.26-14.43,21.51-23.5,30.85-3.92,4-10.08-2.13-6.16-6.16,8.55-8.81,14.68-19.41,22.14-29.08,3.38-4.38,11-.06,7.52,4.39Z"/><path class="cls-2" d="M733.52,3132c3.26-21.94,26.51-40.61,40.05-49.78L717.06,3043,837.64,2830.4l220.73,128.83-64.28,113.3-6.43-10.46a223.64,223.64,0,0,0-26.23-33.6c-13.89-14.27-26.08-21.18-35.27-20-6,.78-11.26,5.17-15.95,13.44-8.59,15.15-7.11,27.84,4.66,39.93,18.16,18.66,53.38,27.37,53.72,27.45l7.94,1.92-26.64,72.19L853,3119.5c.69,18.15-1.12,50.84-21.07,65.47-14.31,10.49-34.41,9.68-59.76-2.4-11.51-5.49-20.58-11.59-27-18.14C735.71,3154.67,731.78,3143.77,733.52,3132Zm223.85-30.84C944.8,3097.26,920,3088,904.47,3072c-16.27-16.71-18.65-36.49-6.89-57.22,7-12.34,16-19.3,26.73-20.68,14.09-1.81,30.08,6.35,47.53,24.27a223.59,223.59,0,0,1,21.48,26.13l45.34-79.93L843,2850.35,736.22,3038.6l64.26,44.68-10.21,5.65c-10.81,6-39.51,25.77-42.39,45.25-1,7.11,1.48,13.7,7.74,20.12,5.17,5.32,12.84,10.42,22.79,15.16,20.15,9.6,35.26,10.88,44.92,3.81,17.29-12.66,16.16-50.82,14.27-64.46l-1.84-13.06,105.91,48Z"/><path class="cls-2" d="M2982.7,4123.88c-62.39,10.08-155.85-65.33-175.55-82-10.83,3.51-40.64,12.6-85.31,22a1204.57,1204.57,0,0,1-200.13,24.7c-79.74,3.15-147.48-49.57-168.56-131.16-19.17-74.17,4.61-184,134.71-249.5,77.56-39,151.49-66.14,219.73-80.51,91.27-19.23,172.07-15.26,233.64,11.47,58.62,25.46,97.7,69.82,113,128.31,14.68,56.15,9.84,105.35-14.38,146.24-33.23,56.07-92.6,79.37-113.5,86.09,14.67,71.77,59.34,109.19,60.19,109.89l14.2,11.51Zm-487.49-401.3c-121.27,61.05-144.72,159.25-126.22,230.8,19.11,74,80.23,121.74,152.07,118.91a1187.86,1187.86,0,0,0,197.41-24.36c54.7-11.52,87.47-22.84,87.8-22.95l4.49-1.56,3.58,3.13c.95.83,86.2,74.95,147.61,81.48-16.76-18.81-43.4-56.36-53-112.84l-1.27-7.46,7.35-1.85c.73-.19,74.52-19.38,110.88-80.86,21.86-37,26.08-81.93,12.55-133.64-30.13-115.1-155.59-164.12-327.45-127.92C2644.11,3657.54,2571.51,3684.16,2495.21,3722.58Z"/><path class="cls-2" d="M2786.94,3757.49c0-32.61,25.73-55.38,62.57-55.38,38,0,69,25.92,69,57.77s-30.94,57.78-69,57.78C2813.84,3817.66,2786.94,3791.79,2786.94,3757.49Zm11.62,0c0,23.54,17.86,48.55,51,48.55,31.63,0,57.36-20.7,57.36-46.16s-25.73-46.15-57.36-46.15C2819,3713.73,2798.56,3731.31,2798.56,3757.49Z"/><path class="cls-2" d="M2638.84,3809.76c0-32.61,25.73-55.38,62.57-55.38,38,0,69,25.92,69,57.78s-30.94,57.77-69,57.77C2665.74,3869.93,2638.84,3844.06,2638.84,3809.76Zm11.61,0c0,23.54,17.86,48.56,51,48.56,31.62,0,57.35-20.71,57.35-46.16S2733,3766,2701.41,3766C2670.93,3766,2650.45,3783.59,2650.45,3809.76Z"/><path class="cls-2" d="M2473.31,3870.75c0-32.61,25.73-55.38,62.57-55.38,38,0,69,25.92,69,57.77s-30.94,57.78-69,57.78C2500.21,3930.92,2473.31,3905.05,2473.31,3870.75Zm11.62,0c0,23.53,17.85,48.55,51,48.55,31.62,0,57.35-20.71,57.35-46.16S2567.5,3827,2535.88,3827C2505.4,3827,2484.93,3844.57,2484.93,3870.75Z"/><path class="cls-2" d="M3369.28,2462l-28.63,31.15-.75-128,115.19,48.08-34.42,23.46,75.62,77.17-61.39,53.67Zm33.16-27.1,28.1-19.15-78.77-32.88.46,80.29,18.86-20.51,66.49,106.93,41.59-36.36Z"/><path class="cls-2" d="M3529.16,2749.09a156.15,156.15,0,0,1-19.78-48.54c-8.35-37.63-.33-72.25,23.2-100.12,18.39-21.8,40.81-32,66.61-30.27,25,1.65,47,14.22,59.43,22.92,1.79-20.11,9.3-58.41,39.55-87.94,29.75-29,73.56-41.86,130.22-38.1,1.61.11,3.21.22,4.85.36,88.34,7.23,126.65,47.55,143.22,82.5a78.68,78.68,0,0,1,31.49-4.33,83.5,83.5,0,0,1,35.58,10.87c23.52,13.24,32.1,35,34.92,52.82,3.58,0,7.06.17,10.41.39,54.6,3.62,70.92,31.35,75,54,7.85,43.54,2.2,76.75-16.81,98.7-23.66,27.33-58.9,26.43-60.39,26.38L3531,2751.85Zm607.78,4.23c16.12-18.72,20.71-48.07,13.63-87.3-4.69-26-25.75-40.45-62.6-42.89-4.84-.33-10-.44-15.35-.34l-6.25.11-.59-6.23c-1.47-15.52-7.67-36.52-28.88-48.46a70,70,0,0,0-29.84-9.17,66.16,66.16,0,0,0-31.41,5.69l-6.33,2.8-2.64-6.4c-19.66-47.56-64.93-74.57-134.54-80.28-1.57-.12-3.11-.24-4.64-.34-52.6-3.49-92.9,8-119.79,34.19-37.79,36.79-36.12,90.93-36.1,91.46l.67,16-11.93-10.69c-.28-.26-29-25.65-62-27.85-21.29-1.41-39.93,7.16-55.4,25.5-20.91,24.77-27.78,54.37-20.42,88,4.35,19.92,12.64,35.85,16.23,41.57l548.49,36.38C4089,2775.23,4118.1,2775.21,4136.94,2753.32Z"/><path class="cls-2" d="M786.56,2567.63c-23.44-24-34-59.62-26.3-88.72,6.13-23,22.63-39.47,46.57-46.26,19.55-5.87,39.1-9.55,54.32-10.39v-.08c24.73,0,48,12.1,63.15,33.21,17.09,23.84,22.06,55.88,12.67,83.58-9.37,28.1-32.75,48.8-62.55,55.38a93.76,93.76,0,0,1-87.86-26.72ZM862.61,2434c-14.79.74-33.34,4.27-52.31,10-25.47,7.22-35,24.66-38.6,38-6.72,25.24,2.65,56.38,23.38,77.57a81.79,81.79,0,0,0,76.81,23.39c26.11-5.77,45.77-23.13,54-47.66a82.06,82.06,0,0,0-10.89-73c-12.87-17.95-31.42-28-52.34-28.31Z"/><path class="cls-2" d="M813.5,2543.69c-14.17-14.5-20.59-36.11-15.89-53.79,3.78-14.22,13.9-24.37,28.61-28.54,11.57-3.47,22.57-5.64,32.08-6.12v0A47.53,47.53,0,0,1,897,2475.47c10.36,14.45,13.48,33.87,7.79,50.66-5.71,17.12-19.94,29.72-38.06,33.73a56.94,56.94,0,0,1-53.25-16.17ZM858.3,2467c-7.61.41-18.34,2.42-29.19,5.68-13.64,3.86-18.19,13.16-20.08,20.28-3.68,13.82,1.46,30.92,12.92,42.63a44.78,44.78,0,0,0,42.12,12.84c14.26-3.15,24.85-12.62,29.31-26s1.92-28.65-6.28-40.08c-7-9.7-16.44-15.14-28.8-15.37Z"/><path class="cls-2" d="M961.68,2368.87c18.06-24.3,31.6-51.53,45.89-78.12,4.3-8,16.47-.89,12.17,7.11-14.3,26.6-27.84,53.82-45.9,78.12-5.35,7.21-17.59.2-12.16-7.11Z"/><path class="cls-2" d="M847.44,2361.1s.1-58.71-6.59-87.19c-2.07-8.83,11.51-12.49,13.59-3.64,7,29.71,7.09,59.44,7.09,90.83,0,8.56-14.09,8.56-14.09,0Z"/><path class="cls-2" d="M759.54,2386.73c-18.6-24.47-37.12-49.07-51.76-76.17-4.32-8,7.85-15.11,12.16-7.11,14.65,27.1,33.17,51.7,51.76,76.17,5.5,7.23-6.74,14.24-12.16,7.11Z"/><path class="cls-2" d="M588.36,2517.67l-4-3.37,3.84-3.63c.34-.31,34.06-31.94,86.27-63.07,48.29-28.79,122.82-63.11,203.64-63.11,89.11,0,167.72,40.77,233.63,121.18l2.41,2.95-2.35,3c-1,1.26-24.62,31.08-67.76,61.33a350.35,350.35,0,0,1-79.64,42,305.18,305.18,0,0,1-106,19.1h0C769.34,2634.09,678.48,2595,588.36,2517.67ZM878.1,2394c-78.57,0-151.35,33.53-198.57,61.66A557.93,557.93,0,0,0,598.67,2514c87,73.46,174.34,110.68,259.7,110.68,78.66,0,141.27-32.27,179.94-59.34,34.4-24.08,56.51-48.44,63.56-56.68C1038.38,2432.59,963.11,2394,878.1,2394Z"/></svg>