<svg xmlns="http://www.w3.org/2000/svg" xmlns:xlink="http://www.w3.org/1999/xlink" viewBox="0 0 500 400"><defs><style>.cls-1{fill:none;}.cls-2{isolation:isolate;}.cls-3{fill:url(#Gradiente_sem_nome_25);}.cls-4{fill:#322023;}.cls-5{fill:#3d2c2f;}.cls-6{fill:#544548;}.cls-7{fill:#ffce86;}.cls-8{clip-path:url(#clip-path);}.cls-9{fill:#fabd73;}.cls-10{fill:#ffc37a;}.cls-11{fill:#ffc984;}.cls-12{fill:#f7ba74;}.cls-13{fill:#fff;}.cls-14{fill:#3373b8;mix-blend-mode:hard-light;}.cls-15{fill:#61bafa;}.cls-16{fill:#d4b19d;}.cls-16,.cls-26,.cls-34,.cls-51,.cls-52{mix-blend-mode:multiply;}.cls-17{fill:#5e3729;}.cls-18{fill:#ff531e;}.cls-19{fill:#c82c2f;}.cls-20{fill:#ffc75e;}.cls-21{fill:#e63200;}.cls-22{fill:#d12300;}.cls-23{fill:#d0f6ff;}.cls-24{fill:#6a3d30;}.cls-25{fill:#2f1300;}.cls-26{fill:url(#Áåçûìÿííûé_ãðàäèåíò_52);}.cls-27{fill:#706366;}.cls-28{fill:#49393c;}.cls-29{fill:#eae9e7;}.cls-30{fill:#7598c0;}.cls-31{fill:#89a7ca;}.cls-32{fill:#336393;}.cls-33{fill:#494b45;}.cls-34{fill:#6a7c95;}.cls-35{fill:#cc3e22;}.cls-36{fill:#ff5a35;}.cls-37{fill:#8d2d22;}.cls-38{fill:#9b9ca0;}.cls-39{fill:#5580b3;}.cls-40{fill:#9e9da3;}.cls-41{fill:#c7ae81;}.cls-42{fill:#e0c78d;}.cls-43{fill:#f95e25;}.cls-44{fill:#ffa534;}.cls-45{fill:#272922;}.cls-46{fill:#fd8b27;}.cls-47{fill:#ffa638;}.cls-48{fill:#ffb940;}.cls-49{fill:#793835;}.cls-50{fill:#3f0a06;}.cls-51{fill:#874e2b;}.cls-52{fill:#cf9d7e;}.cls-53{fill:#95360c;}</style><radialGradient id="Gradiente_sem_nome_25" cx="250" cy="200" r="226.38" gradientUnits="userSpaceOnUse"><stop offset="0" stop-color="#fff"/><stop offset="0.23" stop-color="#fff8f1"/><stop offset="0.66" stop-color="#ffe5cd"/><stop offset="1" stop-color="#ffd3ac"/></radialGradient><clipPath id="clip-path"><polygon class="cls-1" points="262.68 364.62 54.04 244.19 256.05 127.56 464.68 247.99 262.68 364.62"/></clipPath><linearGradient id="Áåçûìÿííûé_ãðàäèåíò_52" x1="-18.61" y1="207.45" x2="147.88" y2="207.45" gradientUnits="userSpaceOnUse"><stop offset="0" stop-color="#ab584f"/><stop offset="0.98" stop-color="#ba9a9a"/></linearGradient></defs><title>Situação2MM4</title><g class="cls-2"><g id="Layer_1" data-name="Layer 1"><rect class="cls-3" width="500" height="400"/><polygon class="cls-4" points="247.59 390.55 16.43 257.42 16.43 240.14 247.59 373.28 247.59 390.55"/><polygon class="cls-5" points="247.59 390.55 480.2 256.26 480.2 238.98 247.59 373.28 247.59 390.55"/><polygon class="cls-6" points="480.2 238.98 247.58 373.28 16.43 240.15 30.03 232.29 117.69 181.69 249.03 105.85 480.2 238.98"/><polygon class="cls-7" points="261.7 363.77 54.04 244.19 256.05 127.56 463.7 247.14 261.7 363.77"/><g class="cls-8"><g id="_Grupo_" data-name="&lt;Grupo&gt;"><polygon id="_Caminho_" data-name="&lt;Caminho&gt;" class="cls-9" points="40.27 336.46 33.58 340.36 -7.01 316.67 -0.31 312.77 40.27 336.46"/><polygon id="_Caminho_2" data-name="&lt;Caminho&gt;" class="cls-10" points="70.66 346.39 63.97 350.29 23.38 326.6 30.08 322.7 70.66 346.39"/><polygon id="_Caminho_3" data-name="&lt;Caminho&gt;" class="cls-11" points="67.79 336.91 61.09 340.81 16.02 314.5 22.72 310.6 67.79 336.91"/><polygon id="_Caminho_4" data-name="&lt;Caminho&gt;" class="cls-12" points="74.49 333.01 67.79 336.91 27.21 313.22 33.9 309.32 74.49 333.01"/><polygon id="_Caminho_5" data-name="&lt;Caminho&gt;" class="cls-9" points="67.06 320.87 60.36 324.77 19.78 301.08 26.47 297.18 67.06 320.87"/><polygon id="_Caminho_6" data-name="&lt;Caminho&gt;" class="cls-10" points="97.45 330.81 90.75 334.7 50.17 311.01 56.87 307.12 97.45 330.81"/><polygon id="_Caminho_7" data-name="&lt;Caminho&gt;" class="cls-11" points="94.58 321.32 87.88 325.22 47.3 301.53 53.99 297.63 94.58 321.32"/><polygon id="_Caminho_8" data-name="&lt;Caminho&gt;" class="cls-10" points="6.8 324.73 0.1 328.62 -40.48 304.93 -33.78 301.04 6.8 324.73"/><polygon id="_Caminho_9" data-name="&lt;Caminho&gt;" class="cls-11" points="3.93 315.25 -2.77 319.14 -47.84 292.83 -41.15 288.93 3.93 315.25"/><polygon id="_Caminho_10" data-name="&lt;Caminho&gt;" class="cls-12" points="10.63 311.35 3.93 315.25 -36.66 291.56 -29.96 287.66 10.63 311.35"/><polygon id="_Caminho_11" data-name="&lt;Caminho&gt;" class="cls-9" points="3.2 299.21 -3.5 303.1 -44.09 279.41 -37.39 275.52 3.2 299.21"/><polygon id="_Caminho_12" data-name="&lt;Caminho&gt;" class="cls-10" points="33.59 309.14 26.89 313.04 -13.69 289.35 -7 285.45 33.59 309.14"/><polygon id="_Caminho_13" data-name="&lt;Caminho&gt;" class="cls-11" points="30.71 299.66 24.02 303.56 -16.57 279.87 -9.87 275.97 30.71 299.66"/><polygon id="_Caminho_14" data-name="&lt;Caminho&gt;" class="cls-9" points="87.15 309.18 80.45 313.08 39.87 289.39 46.56 285.49 87.15 309.18"/><polygon id="_Caminho_15" data-name="&lt;Caminho&gt;" class="cls-10" points="70.26 299.32 76.95 295.43 101.11 309.53 101.11 317.33 70.26 299.32"/><polygon id="_Caminho_16" data-name="&lt;Caminho&gt;" class="cls-10" points="110.84 323.01 101.11 317.33 101.11 309.53 117.54 319.12 110.84 323.01"/><polygon id="_Caminho_17" data-name="&lt;Caminho&gt;" class="cls-11" points="62.9 287.22 69.59 283.32 101.11 301.72 101.11 309.53 62.9 287.22"/><polygon id="_Caminho_18" data-name="&lt;Caminho&gt;" class="cls-11" points="107.97 313.53 101.11 309.53 101.11 301.72 114.67 309.63 107.97 313.53"/><polygon id="_Caminho_19" data-name="&lt;Caminho&gt;" class="cls-12" points="74.08 285.94 80.78 282.05 101.11 293.92 101.11 301.72 74.08 285.94"/><polygon id="_Caminho_20" data-name="&lt;Caminho&gt;" class="cls-12" points="114.67 309.63 101.11 301.72 101.11 293.92 121.36 305.74 114.67 309.63"/><polygon id="_Caminho_21" data-name="&lt;Caminho&gt;" class="cls-9" points="66.65 273.8 73.35 269.9 101.11 286.11 101.11 293.92 66.65 273.8"/><polygon id="_Caminho_22" data-name="&lt;Caminho&gt;" class="cls-9" points="107.24 297.49 101.11 293.92 101.11 286.11 113.93 293.6 107.24 297.49"/><polygon id="_Caminho_23" data-name="&lt;Caminho&gt;" class="cls-10" points="97.04 283.74 101.11 281.37 101.11 286.11 97.04 283.74"/><polygon id="_Caminho_24" data-name="&lt;Caminho&gt;" class="cls-10" points="144.32 303.53 137.63 307.43 101.11 286.11 101.11 281.37 103.74 279.84 144.32 303.53"/><polygon id="_Caminho_25" data-name="&lt;Caminho&gt;" class="cls-11" points="94.17 274.25 100.87 270.36 101.11 270.5 101.11 278.31 94.17 274.25"/><polygon id="_Caminho_26" data-name="&lt;Caminho&gt;" class="cls-9" points="23.29 287.52 16.59 291.41 -24 267.72 -17.3 263.82 23.29 287.52"/><polygon id="_Caminho_27" data-name="&lt;Caminho&gt;" class="cls-10" points="53.68 297.45 46.98 301.35 6.39 277.66 13.09 273.76 53.68 297.45"/><polygon id="_Caminho_28" data-name="&lt;Caminho&gt;" class="cls-11" points="50.8 287.97 44.11 291.86 -0.97 265.55 5.73 261.66 50.8 287.97"/><polygon id="_Caminho_29" data-name="&lt;Caminho&gt;" class="cls-12" points="57.5 284.07 50.8 287.97 10.22 264.28 16.92 260.38 57.5 284.07"/><polygon id="_Caminho_30" data-name="&lt;Caminho&gt;" class="cls-9" points="50.07 271.93 43.38 275.82 2.79 252.13 9.49 248.24 50.07 271.93"/><polygon id="_Caminho_31" data-name="&lt;Caminho&gt;" class="cls-10" points="80.46 281.86 73.77 285.76 33.18 262.07 39.88 258.17 80.46 281.86"/><polygon id="_Caminho_32" data-name="&lt;Caminho&gt;" class="cls-11" points="77.59 272.38 70.89 276.28 30.31 252.59 37.01 248.69 77.59 272.38"/><polygon id="_Caminho_33" data-name="&lt;Caminho&gt;" class="cls-9" points="86.74 262.11 93.44 258.21 101.11 262.69 101.11 270.5 86.74 262.11"/><polygon id="_Caminho_34" data-name="&lt;Caminho&gt;" class="cls-9" points="127.33 285.8 101.11 270.5 101.11 262.69 134.02 281.9 127.33 285.8"/><polygon id="_Caminho_35" data-name="&lt;Caminho&gt;" class="cls-10" points="164.41 291.84 157.72 295.74 117.13 272.05 123.83 268.15 164.41 291.84"/><polygon id="_Caminho_36" data-name="&lt;Caminho&gt;" class="cls-11" points="161.54 282.36 154.84 286.25 109.77 259.94 116.47 256.05 161.54 282.36"/><polygon id="_Caminho_37" data-name="&lt;Caminho&gt;" class="cls-12" points="168.24 278.46 161.54 282.36 120.96 258.67 127.65 254.77 168.24 278.46"/><polygon id="_Caminho_38" data-name="&lt;Caminho&gt;" class="cls-9" points="160.81 266.32 154.11 270.21 113.53 246.52 120.22 242.63 160.81 266.32"/><polygon id="_Caminho_39" data-name="&lt;Caminho&gt;" class="cls-10" points="191.2 276.25 184.5 280.15 143.92 256.46 150.62 252.56 191.2 276.25"/><polygon id="_Caminho_40" data-name="&lt;Caminho&gt;" class="cls-11" points="188.33 266.77 181.63 270.67 141.05 246.97 147.74 243.08 188.33 266.77"/><polygon id="_Caminho_41" data-name="&lt;Caminho&gt;" class="cls-9" points="70.16 260.24 63.46 264.13 22.88 240.44 29.57 236.55 70.16 260.24"/><polygon id="_Caminho_42" data-name="&lt;Caminho&gt;" class="cls-11" points="97.68 260.69 90.98 264.59 45.91 238.28 52.6 234.38 97.68 260.69"/><polygon id="_Caminho_43" data-name="&lt;Caminho&gt;" class="cls-12" points="57.09 237 63.79 233.1 101.11 254.89 101.11 258.69 97.68 260.69 57.09 237"/><polygon id="_Caminho_44" data-name="&lt;Caminho&gt;" class="cls-12" points="104.38 256.79 101.11 258.69 101.11 254.89 104.38 256.79"/><polygon id="_Caminho_45" data-name="&lt;Caminho&gt;" class="cls-9" points="96.95 244.65 90.25 248.55 49.66 224.86 56.36 220.96 96.95 244.65"/><polygon id="_Caminho_46" data-name="&lt;Caminho&gt;" class="cls-10" points="80.06 234.79 86.75 230.89 101.11 239.28 101.11 247.08 80.06 234.79"/><polygon id="_Caminho_47" data-name="&lt;Caminho&gt;" class="cls-10" points="120.64 258.48 101.11 247.08 101.11 239.28 127.34 254.59 120.64 258.48"/><polygon id="_Caminho_48" data-name="&lt;Caminho&gt;" class="cls-11" points="77.18 225.31 83.88 221.41 101.11 231.47 101.11 239.28 77.18 225.31"/><polygon id="_Caminho_49" data-name="&lt;Caminho&gt;" class="cls-11" points="117.77 249 101.11 239.28 101.11 231.47 124.47 245.1 117.77 249"/><polygon id="_Caminho_50" data-name="&lt;Caminho&gt;" class="cls-9" points="180.9 254.63 174.2 258.52 133.62 234.83 140.31 230.94 180.9 254.63"/><polygon id="_Caminho_51" data-name="&lt;Caminho&gt;" class="cls-10" points="211.29 264.56 204.59 268.46 164.01 244.77 170.7 240.87 211.29 264.56"/><polygon id="_Caminho_52" data-name="&lt;Caminho&gt;" class="cls-11" points="208.42 255.08 201.72 258.98 156.65 232.66 163.34 228.77 208.42 255.08"/><polygon id="_Caminho_53" data-name="&lt;Caminho&gt;" class="cls-12" points="215.11 251.18 208.42 255.08 167.83 231.39 174.53 227.49 215.11 251.18"/><polygon id="_Caminho_54" data-name="&lt;Caminho&gt;" class="cls-9" points="207.68 239.04 200.99 242.94 160.4 219.25 167.1 215.35 207.68 239.04"/><polygon id="_Caminho_55" data-name="&lt;Caminho&gt;" class="cls-10" points="238.07 248.97 231.38 252.87 190.79 229.18 197.49 225.28 238.07 248.97"/><polygon id="_Caminho_56" data-name="&lt;Caminho&gt;" class="cls-11" points="235.2 239.49 228.51 243.39 187.92 219.7 194.62 215.8 235.2 239.49"/><polygon id="_Caminho_57" data-name="&lt;Caminho&gt;" class="cls-9" points="69.75 213.17 76.45 209.27 101.11 223.67 101.11 231.47 69.75 213.17"/><polygon id="_Caminho_58" data-name="&lt;Caminho&gt;" class="cls-9" points="110.34 236.86 101.11 231.47 101.11 223.67 117.04 232.96 110.34 236.86"/><polygon id="_Caminho_59" data-name="&lt;Caminho&gt;" class="cls-10" points="100.14 223.1 101.11 222.54 101.11 223.67 100.14 223.1"/><polygon id="_Caminho_60" data-name="&lt;Caminho&gt;" class="cls-10" points="147.43 242.89 140.73 246.79 101.11 223.67 101.11 222.54 106.84 219.2 147.43 242.89"/><polygon id="_Caminho_61" data-name="&lt;Caminho&gt;" class="cls-11" points="92.78 211 99.48 207.1 101.11 208.06 101.11 215.86 92.78 211"/><polygon id="_Caminho_62" data-name="&lt;Caminho&gt;" class="cls-11" points="137.86 237.31 101.11 215.86 101.11 208.06 144.56 233.41 137.86 237.31"/><polygon id="_Caminho_63" data-name="&lt;Caminho&gt;" class="cls-12" points="151.25 229.51 144.56 233.41 103.97 209.72 110.67 205.82 151.25 229.51"/><polygon id="_Caminho_64" data-name="&lt;Caminho&gt;" class="cls-9" points="96.54 197.58 101.11 194.92 101.11 200.25 96.54 197.58"/><polygon id="_Caminho_65" data-name="&lt;Caminho&gt;" class="cls-9" points="143.82 217.37 137.13 221.27 101.11 200.25 101.11 194.92 103.24 193.68 143.82 217.37"/><polygon id="_Caminho_66" data-name="&lt;Caminho&gt;" class="cls-10" points="174.21 227.31 167.52 231.2 126.93 207.51 133.63 203.62 174.21 227.31"/><polygon id="_Caminho_67" data-name="&lt;Caminho&gt;" class="cls-11" points="171.34 217.82 164.64 221.72 124.06 198.03 130.75 194.13 171.34 217.82"/><polygon id="_Caminho_68" data-name="&lt;Caminho&gt;" class="cls-9" points="227.77 227.35 221.08 231.25 180.49 207.56 187.19 203.66 227.77 227.35"/><polygon id="_Caminho_69" data-name="&lt;Caminho&gt;" class="cls-10" points="258.16 237.28 251.47 241.18 210.88 217.49 217.58 213.59 258.16 237.28"/><polygon id="_Caminho_70" data-name="&lt;Caminho&gt;" class="cls-11" points="255.29 227.8 248.6 231.7 203.52 205.39 210.22 201.49 255.29 227.8"/><polygon id="_Caminho_71" data-name="&lt;Caminho&gt;" class="cls-12" points="261.99 223.9 255.29 227.8 214.71 204.11 221.4 200.21 261.99 223.9"/><polygon id="_Caminho_72" data-name="&lt;Caminho&gt;" class="cls-9" points="254.56 211.76 247.86 215.66 207.28 191.97 213.97 188.07 254.56 211.76"/><polygon id="_Caminho_73" data-name="&lt;Caminho&gt;" class="cls-10" points="284.95 221.69 278.25 225.59 237.67 201.9 244.37 198 284.95 221.69"/><polygon id="_Caminho_74" data-name="&lt;Caminho&gt;" class="cls-11" points="282.08 212.21 275.38 216.11 234.8 192.42 241.49 188.52 282.08 212.21"/><polygon id="_Caminho_75" data-name="&lt;Caminho&gt;" class="cls-9" points="163.91 205.68 157.21 209.58 116.63 185.89 123.33 181.99 163.91 205.68"/><polygon id="_Caminho_76" data-name="&lt;Caminho&gt;" class="cls-10" points="194.3 215.62 187.6 219.51 147.02 195.82 153.72 191.93 194.3 215.62"/><polygon id="_Caminho_77" data-name="&lt;Caminho&gt;" class="cls-11" points="191.43 206.13 184.73 210.03 139.66 183.72 146.35 179.82 191.43 206.13"/><polygon id="_Caminho_78" data-name="&lt;Caminho&gt;" class="cls-12" points="198.13 202.24 191.43 206.13 150.84 182.44 157.54 178.55 198.13 202.24"/><polygon id="_Caminho_79" data-name="&lt;Caminho&gt;" class="cls-9" points="190.7 190.09 184 193.99 143.41 170.3 150.11 166.41 190.7 190.09"/><polygon id="_Caminho_80" data-name="&lt;Caminho&gt;" class="cls-10" points="221.09 200.03 214.39 203.93 173.81 180.24 180.5 176.34 221.09 200.03"/><polygon id="_Caminho_81" data-name="&lt;Caminho&gt;" class="cls-11" points="218.22 190.55 211.52 194.44 170.93 170.75 177.63 166.86 218.22 190.55"/><polygon id="_Caminho_82" data-name="&lt;Caminho&gt;" class="cls-9" points="274.65 200.07 267.95 203.97 227.37 180.28 234.06 176.38 274.65 200.07"/><polygon id="_Caminho_83" data-name="&lt;Caminho&gt;" class="cls-10" points="305.04 210 298.34 213.9 257.76 190.21 264.45 186.31 305.04 210"/><polygon id="_Caminho_84" data-name="&lt;Caminho&gt;" class="cls-11" points="302.17 200.52 295.47 204.42 250.4 178.11 257.09 174.21 302.17 200.52"/><polygon id="_Caminho_85" data-name="&lt;Caminho&gt;" class="cls-12" points="308.86 196.63 302.17 200.52 261.58 176.83 268.28 172.94 308.86 196.63"/><polygon id="_Caminho_86" data-name="&lt;Caminho&gt;" class="cls-9" points="301.43 184.48 294.74 188.38 254.15 164.69 260.85 160.79 301.43 184.48"/><polygon id="_Caminho_87" data-name="&lt;Caminho&gt;" class="cls-10" points="331.82 194.42 325.13 198.31 284.54 174.62 291.24 170.73 331.82 194.42"/><polygon id="_Caminho_88" data-name="&lt;Caminho&gt;" class="cls-11" points="328.95 184.94 322.26 188.83 281.67 165.14 288.37 161.25 328.95 184.94"/><polygon id="_Caminho_89" data-name="&lt;Caminho&gt;" class="cls-9" points="210.79 178.4 204.09 182.3 163.5 158.61 170.2 154.71 210.79 178.4"/><polygon id="_Caminho_90" data-name="&lt;Caminho&gt;" class="cls-10" points="241.18 188.34 234.48 192.24 193.9 168.54 200.59 164.65 241.18 188.34"/><polygon id="_Caminho_91" data-name="&lt;Caminho&gt;" class="cls-11" points="238.31 178.86 231.61 182.75 186.53 156.44 193.23 152.55 238.31 178.86"/><polygon id="_Caminho_92" data-name="&lt;Caminho&gt;" class="cls-12" points="245 174.96 238.31 178.86 197.72 155.17 204.42 151.27 245 174.96"/><polygon id="_Caminho_93" data-name="&lt;Caminho&gt;" class="cls-9" points="237.57 162.82 230.88 166.71 190.29 143.02 196.99 139.13 237.57 162.82"/><polygon id="_Caminho_94" data-name="&lt;Caminho&gt;" class="cls-10" points="267.96 172.75 261.27 176.65 220.68 152.96 227.38 149.06 267.96 172.75"/><polygon id="_Caminho_95" data-name="&lt;Caminho&gt;" class="cls-11" points="265.09 163.27 258.39 167.17 217.81 143.48 224.5 139.58 265.09 163.27"/><polygon id="_Caminho_96" data-name="&lt;Caminho&gt;" class="cls-9" points="321.52 172.79 314.83 176.69 274.24 153 280.94 149.1 321.52 172.79"/><polygon id="_Caminho_97" data-name="&lt;Caminho&gt;" class="cls-10" points="351.91 182.73 345.22 186.62 304.63 162.93 311.33 159.04 351.91 182.73"/><polygon id="_Caminho_98" data-name="&lt;Caminho&gt;" class="cls-11" points="349.04 173.25 342.35 177.14 297.27 150.83 303.97 146.93 349.04 173.25"/><polygon id="_Caminho_99" data-name="&lt;Caminho&gt;" class="cls-12" points="355.74 169.35 349.04 173.25 308.46 149.56 315.15 145.66 355.74 169.35"/><polygon id="_Caminho_100" data-name="&lt;Caminho&gt;" class="cls-9" points="348.31 157.21 341.61 161.1 301.03 137.41 307.72 133.51 348.31 157.21"/><polygon id="_Caminho_101" data-name="&lt;Caminho&gt;" class="cls-10" points="378.7 167.14 372 171.04 331.42 147.35 338.12 143.45 378.7 167.14"/><polygon id="_Caminho_102" data-name="&lt;Caminho&gt;" class="cls-11" points="375.83 157.66 369.13 161.55 328.55 137.86 335.24 133.97 375.83 157.66"/><polygon id="_Caminho_103" data-name="&lt;Caminho&gt;" class="cls-9" points="257.66 151.13 250.96 155.02 210.38 131.33 217.08 127.44 257.66 151.13"/><polygon id="_Caminho_104" data-name="&lt;Caminho&gt;" class="cls-10" points="288.05 161.06 281.36 164.96 240.77 141.27 247.47 137.37 288.05 161.06"/><polygon id="_Caminho_105" data-name="&lt;Caminho&gt;" class="cls-11" points="285.18 151.58 278.48 155.47 233.41 129.16 240.1 125.27 285.18 151.58"/><polygon id="_Caminho_106" data-name="&lt;Caminho&gt;" class="cls-12" points="291.88 147.68 285.18 151.58 244.59 127.89 251.29 123.99 291.88 147.68"/><polygon id="_Caminho_107" data-name="&lt;Caminho&gt;" class="cls-9" points="284.45 135.54 277.75 139.44 237.16 115.75 243.86 111.85 284.45 135.54"/><polygon id="_Caminho_108" data-name="&lt;Caminho&gt;" class="cls-10" points="314.84 145.47 308.14 149.37 267.56 125.68 274.25 121.78 314.84 145.47"/><polygon id="_Caminho_109" data-name="&lt;Caminho&gt;" class="cls-11" points="311.96 135.99 305.27 139.89 264.68 116.2 271.38 112.3 311.96 135.99"/><polygon id="_Caminho_110" data-name="&lt;Caminho&gt;" class="cls-9" points="368.4 145.51 361.7 149.41 321.12 125.72 327.81 121.83 368.4 145.51"/><polygon id="_Caminho_111" data-name="&lt;Caminho&gt;" class="cls-10" points="398.79 155.45 392.09 159.35 351.51 135.66 358.2 131.76 398.79 155.45"/><polygon id="_Caminho_112" data-name="&lt;Caminho&gt;" class="cls-11" points="395.92 145.97 389.22 149.86 344.15 123.55 350.84 119.66 395.92 145.97"/><polygon id="_Caminho_113" data-name="&lt;Caminho&gt;" class="cls-12" points="402.61 142.07 395.92 145.97 355.33 122.28 362.03 118.38 402.61 142.07"/><polygon id="_Caminho_114" data-name="&lt;Caminho&gt;" class="cls-9" points="395.18 129.93 388.49 133.82 347.9 110.13 354.6 106.24 395.18 129.93"/><polygon id="_Caminho_115" data-name="&lt;Caminho&gt;" class="cls-10" points="425.57 139.86 418.88 143.76 378.29 120.07 384.99 116.17 425.57 139.86"/><polygon id="_Caminho_116" data-name="&lt;Caminho&gt;" class="cls-11" points="422.7 130.38 416.01 134.28 375.42 110.59 382.12 106.69 422.7 130.38"/><polygon id="_Caminho_117" data-name="&lt;Caminho&gt;" class="cls-9" points="304.54 123.85 297.84 127.75 257.25 104.06 263.95 100.16 304.54 123.85"/><polygon id="_Caminho_118" data-name="&lt;Caminho&gt;" class="cls-10" points="334.93 133.78 328.23 137.68 287.64 113.99 294.34 110.09 334.93 133.78"/><polygon id="_Caminho_119" data-name="&lt;Caminho&gt;" class="cls-11" points="332.06 124.3 325.36 128.2 280.28 101.89 286.98 97.99 332.06 124.3"/><polygon id="_Caminho_120" data-name="&lt;Caminho&gt;" class="cls-12" points="338.75 120.4 332.06 124.3 291.47 100.61 298.17 96.71 338.75 120.4"/><polygon id="_Caminho_121" data-name="&lt;Caminho&gt;" class="cls-9" points="331.32 108.26 324.63 112.16 284.04 88.47 290.74 84.57 331.32 108.26"/><polygon id="_Caminho_122" data-name="&lt;Caminho&gt;" class="cls-10" points="361.71 118.2 355.02 122.09 314.43 98.4 321.13 94.5 361.71 118.2"/><polygon id="_Caminho_123" data-name="&lt;Caminho&gt;" class="cls-11" points="358.84 108.71 352.14 112.61 311.56 88.92 318.26 85.02 358.84 108.71"/><polygon id="_Caminho_124" data-name="&lt;Caminho&gt;" class="cls-9" points="415.27 118.24 408.58 122.13 367.99 98.44 374.69 94.55 415.27 118.24"/><polygon id="_Caminho_125" data-name="&lt;Caminho&gt;" class="cls-10" points="445.66 128.17 438.97 132.07 398.38 108.38 405.08 104.48 445.66 128.17"/><polygon id="_Caminho_126" data-name="&lt;Caminho&gt;" class="cls-11" points="442.79 118.69 436.1 122.59 391.02 96.28 397.72 92.38 442.79 118.69"/><polygon id="_Caminho_127" data-name="&lt;Caminho&gt;" class="cls-12" points="449.49 114.79 442.79 118.69 402.21 95 408.9 91.1 449.49 114.79"/><polygon id="_Caminho_128" data-name="&lt;Caminho&gt;" class="cls-9" points="442.06 102.65 435.36 106.55 394.78 82.86 401.47 78.96 442.06 102.65"/><polygon id="_Caminho_129" data-name="&lt;Caminho&gt;" class="cls-10" points="472.45 112.58 465.75 116.48 425.17 92.79 431.87 88.89 472.45 112.58"/><polygon id="_Caminho_130" data-name="&lt;Caminho&gt;" class="cls-11" points="469.58 103.1 462.88 107 422.3 83.31 428.99 79.41 469.58 103.1"/><polygon id="_Caminho_131" data-name="&lt;Caminho&gt;" class="cls-9" points="351.41 96.57 344.71 100.47 304.13 76.78 310.83 72.88 351.41 96.57"/><polygon id="_Caminho_132" data-name="&lt;Caminho&gt;" class="cls-10" points="381.8 106.5 375.11 110.4 334.52 86.71 341.22 82.81 381.8 106.5"/><polygon id="_Caminho_133" data-name="&lt;Caminho&gt;" class="cls-11" points="378.93 97.02 372.23 100.92 327.16 74.61 333.86 70.71 378.93 97.02"/><polygon id="_Caminho_134" data-name="&lt;Caminho&gt;" class="cls-12" points="385.63 93.13 378.93 97.02 338.35 73.33 345.04 69.44 385.63 93.13"/><polygon id="_Caminho_135" data-name="&lt;Caminho&gt;" class="cls-9" points="337.61 57.29 342.57 60.19 332.64 60.19 337.61 57.29"/><polygon id="_Caminho_136" data-name="&lt;Caminho&gt;" class="cls-9" points="371.5 84.88 330.92 61.19 332.64 60.19 342.57 60.19 378.2 80.98 371.5 84.88"/><polygon id="_Caminho_137" data-name="&lt;Caminho&gt;" class="cls-10" points="408.59 90.92 401.89 94.81 361.31 71.12 368 67.23 408.59 90.92"/><polygon id="_Caminho_138" data-name="&lt;Caminho&gt;" class="cls-11" points="365.13 57.74 369.31 60.19 360.94 60.19 365.13 57.74"/><polygon id="_Caminho_139" data-name="&lt;Caminho&gt;" class="cls-11" points="399.02 85.33 358.43 61.64 360.94 60.19 369.31 60.19 405.72 81.44 399.02 85.33"/><polygon id="_Caminho_140" data-name="&lt;Caminho&gt;" class="cls-9" points="462.15 90.96 455.45 94.86 414.87 71.17 421.56 67.27 462.15 90.96"/><polygon id="_Caminho_141" data-name="&lt;Caminho&gt;" class="cls-10" points="492.54 100.89 485.84 104.79 445.26 81.1 451.95 77.2 492.54 100.89"/><polygon id="_Caminho_142" data-name="&lt;Caminho&gt;" class="cls-11" points="489.67 91.41 482.97 95.31 437.9 69 444.59 65.1 489.67 91.41"/><polygon id="_Caminho_143" data-name="&lt;Caminho&gt;" class="cls-12" points="496.36 87.52 489.67 91.41 449.08 67.72 455.78 63.82 496.36 87.52"/><polygon id="_Caminho_144" data-name="&lt;Caminho&gt;" class="cls-9" points="441.65 55.58 448.35 51.68 462.92 60.19 449.55 60.19 441.65 55.58"/><polygon id="_Caminho_145" data-name="&lt;Caminho&gt;" class="cls-9" points="482.24 79.27 449.55 60.19 462.92 60.19 488.93 75.37 482.24 79.27"/><polygon id="_Caminho_146" data-name="&lt;Caminho&gt;" class="cls-10" points="519.33 85.31 512.63 89.2 472.04 65.51 478.74 61.62 519.33 85.31"/><polygon id="_Caminho_147" data-name="&lt;Caminho&gt;" class="cls-11" points="469.17 56.03 475.87 52.13 489.66 60.19 476.29 60.19 469.17 56.03"/><polygon id="_Caminho_148" data-name="&lt;Caminho&gt;" class="cls-11" points="509.76 79.72 476.29 60.19 489.66 60.19 516.45 75.82 509.76 79.72"/><polygon id="_Caminho_149" data-name="&lt;Caminho&gt;" class="cls-9" points="351 49.5 357.7 45.6 382.69 60.19 369.31 60.19 351 49.5"/><polygon id="_Caminho_150" data-name="&lt;Caminho&gt;" class="cls-9" points="391.59 73.19 369.31 60.19 382.69 60.19 398.29 69.29 391.59 73.19"/><polygon id="_Caminho_151" data-name="&lt;Caminho&gt;" class="cls-10" points="381.4 59.43 388.09 55.54 396.06 60.19 382.69 60.19 381.4 59.43"/><polygon id="_Caminho_152" data-name="&lt;Caminho&gt;" class="cls-10" points="421.98 83.12 382.69 60.19 396.06 60.19 428.68 79.23 421.98 83.12"/><polygon id="_Caminho_153" data-name="&lt;Caminho&gt;" class="cls-11" points="374.03 47.33 380.73 43.43 409.43 60.19 396.06 60.19 374.03 47.33"/><polygon id="_Caminho_154" data-name="&lt;Caminho&gt;" class="cls-11" points="419.11 73.64 396.06 60.19 409.43 60.19 425.81 69.75 419.11 73.64"/><polygon id="_Caminho_155" data-name="&lt;Caminho&gt;" class="cls-12" points="385.22 46.05 391.92 42.16 422.8 60.19 409.43 60.19 385.22 46.05"/><polygon id="_Caminho_156" data-name="&lt;Caminho&gt;" class="cls-12" points="425.81 69.75 409.43 60.19 422.8 60.19 432.5 65.85 425.81 69.75"/><polygon id="_Caminho_157" data-name="&lt;Caminho&gt;" class="cls-9" points="425.07 53.71 418.38 57.6 377.79 33.91 384.49 30.02 425.07 53.71"/><polygon id="_Caminho_158" data-name="&lt;Caminho&gt;" class="cls-10" points="408.18 43.85 414.88 39.95 449.55 60.19 436.18 60.19 408.18 43.85"/><polygon id="_Caminho_159" data-name="&lt;Caminho&gt;" class="cls-10" points="448.77 67.54 436.18 60.19 449.55 60.19 455.46 63.64 448.77 67.54"/><polygon id="_Caminho_160" data-name="&lt;Caminho&gt;" class="cls-11" points="452.59 54.16 445.89 58.05 405.31 34.37 412.01 30.47 452.59 54.16"/><polygon id="_Caminho_161" data-name="&lt;Caminho&gt;" class="cls-9" points="114.44 379.75 155.02 403.44 151.94 405.23 144.72 405.23 107.74 383.65 114.44 379.75"/><polygon id="_Caminho_162" data-name="&lt;Caminho&gt;" class="cls-10" points="144.83 389.69 171.46 405.23 158.09 405.23 138.13 393.58 144.83 389.69"/><polygon id="_Caminho_163" data-name="&lt;Caminho&gt;" class="cls-11" points="137.47 377.58 182.54 403.89 180.24 405.23 171.46 405.23 130.77 381.48 137.47 377.58"/><polygon id="_Caminho_164" data-name="&lt;Caminho&gt;" class="cls-12" points="189.24 400 182.54 403.89 141.96 380.2 148.65 376.31 189.24 400"/><polygon id="_Caminho_165" data-name="&lt;Caminho&gt;" class="cls-9" points="181.81 387.85 175.11 391.75 134.53 368.06 141.22 364.16 181.81 387.85"/><polygon id="_Caminho_166" data-name="&lt;Caminho&gt;" class="cls-10" points="212.2 397.79 205.5 401.68 164.92 377.99 171.61 374.1 212.2 397.79"/><polygon id="_Caminho_167" data-name="&lt;Caminho&gt;" class="cls-11" points="209.33 388.31 202.63 392.2 162.04 368.51 168.74 364.62 209.33 388.31"/><polygon id="_Caminho_168" data-name="&lt;Caminho&gt;" class="cls-9" points="91.16 381.77 84.46 385.67 43.88 361.98 50.58 358.08 91.16 381.77"/><polygon id="_Caminho_169" data-name="&lt;Caminho&gt;" class="cls-10" points="74.27 371.92 80.97 368.02 101.11 379.78 101.11 387.58 74.27 371.92"/><polygon id="_Caminho_170" data-name="&lt;Caminho&gt;" class="cls-10" points="114.85 395.61 101.11 387.58 101.11 379.78 121.55 391.71 114.85 395.61"/><polygon id="_Caminho_171" data-name="&lt;Caminho&gt;" class="cls-11" points="66.91 359.81 73.6 355.92 101.11 371.97 101.11 379.78 66.91 359.81"/><polygon id="_Caminho_172" data-name="&lt;Caminho&gt;" class="cls-11" points="111.98 386.12 101.11 379.78 101.11 371.97 118.68 382.23 111.98 386.12"/><polygon id="_Caminho_173" data-name="&lt;Caminho&gt;" class="cls-12" points="78.09 358.54 84.79 354.64 101.11 364.17 101.11 371.97 78.09 358.54"/><polygon id="_Caminho_174" data-name="&lt;Caminho&gt;" class="cls-12" points="118.68 382.23 101.11 371.97 101.11 364.17 125.38 378.33 118.68 382.23"/><polygon id="_Caminho_175" data-name="&lt;Caminho&gt;" class="cls-9" points="70.66 346.39 77.36 342.5 101.11 356.36 101.11 364.17 70.66 346.39"/><polygon id="_Caminho_176" data-name="&lt;Caminho&gt;" class="cls-9" points="111.25 370.08 101.11 364.17 101.11 356.36 117.94 366.19 111.25 370.08"/><polygon id="_Caminho_177" data-name="&lt;Caminho&gt;" class="cls-10" points="101.06 356.33 101.11 356.29 101.11 356.36 101.06 356.33"/><polygon id="_Caminho_178" data-name="&lt;Caminho&gt;" class="cls-10" points="148.34 376.12 141.64 380.02 101.11 356.36 101.11 356.29 107.75 352.43 148.34 376.12"/><polygon id="_Caminho_179" data-name="&lt;Caminho&gt;" class="cls-11" points="98.18 346.85 101.11 345.14 101.11 348.56 98.18 346.85"/><polygon id="_Caminho_180" data-name="&lt;Caminho&gt;" class="cls-11" points="145.46 366.64 138.77 370.54 101.11 348.56 101.11 345.14 104.88 342.95 145.46 366.64"/><polygon id="_Caminho_181" data-name="&lt;Caminho&gt;" class="cls-9" points="201.9 376.16 195.2 380.06 154.62 356.37 161.31 352.47 201.9 376.16"/><polygon id="_Caminho_182" data-name="&lt;Caminho&gt;" class="cls-10" points="232.29 386.1 225.59 389.99 185.01 366.3 191.7 362.41 232.29 386.1"/><polygon id="_Caminho_183" data-name="&lt;Caminho&gt;" class="cls-11" points="229.42 376.62 222.72 380.51 177.65 354.2 184.34 350.3 229.42 376.62"/><polygon id="_Caminho_184" data-name="&lt;Caminho&gt;" class="cls-12" points="236.11 372.72 229.42 376.62 188.83 352.93 195.53 349.03 236.11 372.72"/><polygon id="_Caminho_185" data-name="&lt;Caminho&gt;" class="cls-9" points="228.68 360.58 221.99 364.47 181.4 340.78 188.1 336.89 228.68 360.58"/><polygon id="_Caminho_186" data-name="&lt;Caminho&gt;" class="cls-10" points="259.07 370.51 252.38 374.41 211.79 350.72 218.49 346.82 259.07 370.51"/><polygon id="_Caminho_187" data-name="&lt;Caminho&gt;" class="cls-11" points="256.2 361.03 249.5 364.93 208.92 341.23 215.62 337.34 256.2 361.03"/><polygon id="_Caminho_188" data-name="&lt;Caminho&gt;" class="cls-9" points="90.75 334.7 97.45 330.81 101.11 332.94 101.11 340.75 90.75 334.7"/><polygon id="_Caminho_189" data-name="&lt;Caminho&gt;" class="cls-9" points="131.34 358.39 101.11 340.75 101.11 332.94 138.03 354.5 131.34 358.39"/><polygon id="_Caminho_190" data-name="&lt;Caminho&gt;" class="cls-10" points="168.43 364.43 161.73 368.33 121.14 344.64 127.84 340.74 168.43 364.43"/><polygon id="_Caminho_191" data-name="&lt;Caminho&gt;" class="cls-11" points="165.55 354.95 158.86 358.85 113.78 332.54 120.48 328.64 165.55 354.95"/><polygon id="_Caminho_192" data-name="&lt;Caminho&gt;" class="cls-12" points="172.25 351.05 165.55 354.95 124.97 331.26 131.66 327.36 172.25 351.05"/><polygon id="_Caminho_193" data-name="&lt;Caminho&gt;" class="cls-9" points="164.82 338.91 158.12 342.81 117.54 319.12 124.23 315.22 164.82 338.91"/><polygon id="_Caminho_194" data-name="&lt;Caminho&gt;" class="cls-10" points="195.21 348.84 188.51 352.74 147.93 329.05 154.63 325.15 195.21 348.84"/><polygon id="_Caminho_195" data-name="&lt;Caminho&gt;" class="cls-11" points="192.34 339.36 185.64 343.26 145.06 319.57 151.75 315.67 192.34 339.36"/><polygon id="_Caminho_196" data-name="&lt;Caminho&gt;" class="cls-10" points="279.16 358.82 272.47 362.72 231.88 339.03 238.58 335.13 279.16 358.82"/><polygon id="_Caminho_197" data-name="&lt;Caminho&gt;" class="cls-11" points="276.29 349.34 269.59 353.23 224.52 326.92 231.22 323.03 276.29 349.34"/><polygon id="_Caminho_198" data-name="&lt;Caminho&gt;" class="cls-12" points="282.99 345.44 276.29 349.34 235.71 325.65 242.4 321.75 282.99 345.44"/><polygon id="_Caminho_199" data-name="&lt;Caminho&gt;" class="cls-9" points="275.56 333.3 268.86 337.19 228.28 313.5 234.97 309.61 275.56 333.3"/><polygon id="_Caminho_200" data-name="&lt;Caminho&gt;" class="cls-10" points="305.95 343.23 299.25 347.13 258.67 323.44 265.36 319.54 305.95 343.23"/><polygon id="_Caminho_201" data-name="&lt;Caminho&gt;" class="cls-11" points="303.08 333.75 296.38 337.65 255.79 313.96 262.49 310.06 303.08 333.75"/><polygon id="_Caminho_202" data-name="&lt;Caminho&gt;" class="cls-9" points="184.91 327.22 178.21 331.12 137.63 307.43 144.32 303.53 184.91 327.22"/><polygon id="_Caminho_203" data-name="&lt;Caminho&gt;" class="cls-10" points="215.3 337.15 208.6 341.05 168.02 317.36 174.72 313.46 215.3 337.15"/><polygon id="_Caminho_204" data-name="&lt;Caminho&gt;" class="cls-12" points="219.13 323.77 212.43 327.67 171.84 303.98 178.54 300.08 219.13 323.77"/><polygon id="_Caminho_205" data-name="&lt;Caminho&gt;" class="cls-9" points="211.69 311.63 205 315.53 164.41 291.84 171.11 287.94 211.69 311.63"/><polygon id="_Caminho_206" data-name="&lt;Caminho&gt;" class="cls-10" points="242.09 321.57 235.39 325.46 194.81 301.77 201.5 297.88 242.09 321.57"/><polygon id="_Caminho_207" data-name="&lt;Caminho&gt;" class="cls-11" points="239.21 312.08 232.52 315.98 191.93 292.29 198.63 288.39 239.21 312.08"/><polygon id="_Caminho_208" data-name="&lt;Caminho&gt;" class="cls-9" points="295.65 321.61 288.95 325.5 248.37 301.81 255.06 297.92 295.65 321.61"/><polygon id="_Caminho_209" data-name="&lt;Caminho&gt;" class="cls-10" points="326.04 331.54 319.34 335.44 278.76 311.75 285.45 307.85 326.04 331.54"/><polygon id="_Caminho_210" data-name="&lt;Caminho&gt;" class="cls-11" points="323.17 322.06 316.47 325.96 271.39 299.64 278.09 295.75 323.17 322.06"/><polygon id="_Caminho_211" data-name="&lt;Caminho&gt;" class="cls-12" points="329.86 318.16 323.17 322.06 282.58 298.37 289.28 294.47 329.86 318.16"/><polygon id="_Caminho_212" data-name="&lt;Caminho&gt;" class="cls-9" points="322.43 306.02 315.74 309.92 275.15 286.23 281.85 282.33 322.43 306.02"/><polygon id="_Caminho_213" data-name="&lt;Caminho&gt;" class="cls-10" points="352.82 315.95 346.13 319.85 305.54 296.16 312.24 292.26 352.82 315.95"/><polygon id="_Caminho_214" data-name="&lt;Caminho&gt;" class="cls-11" points="349.95 306.47 343.25 310.37 302.67 286.68 309.37 282.78 349.95 306.47"/><polygon id="_Caminho_215" data-name="&lt;Caminho&gt;" class="cls-9" points="231.78 299.94 225.09 303.84 184.5 280.15 191.2 276.25 231.78 299.94"/><polygon id="_Caminho_216" data-name="&lt;Caminho&gt;" class="cls-10" points="262.18 309.88 255.48 313.77 214.89 290.08 221.59 286.19 262.18 309.88"/><polygon id="_Caminho_217" data-name="&lt;Caminho&gt;" class="cls-11" points="259.3 300.39 252.61 304.29 207.53 277.98 214.23 274.08 259.3 300.39"/><polygon id="_Caminho_218" data-name="&lt;Caminho&gt;" class="cls-12" points="266 296.5 259.3 300.39 218.72 276.7 225.41 272.81 266 296.5"/><polygon id="_Caminho_219" data-name="&lt;Caminho&gt;" class="cls-9" points="258.57 284.35 251.87 288.25 211.29 264.56 217.99 260.66 258.57 284.35"/><polygon id="_Caminho_220" data-name="&lt;Caminho&gt;" class="cls-10" points="288.96 294.29 282.26 298.19 241.68 274.5 248.38 270.6 288.96 294.29"/><polygon id="_Caminho_221" data-name="&lt;Caminho&gt;" class="cls-11" points="286.09 284.81 279.39 288.7 238.81 265.01 245.5 261.12 286.09 284.81"/><polygon id="_Caminho_222" data-name="&lt;Caminho&gt;" class="cls-9" points="342.52 294.33 335.83 298.23 295.24 274.54 301.94 270.64 342.52 294.33"/><polygon id="_Caminho_223" data-name="&lt;Caminho&gt;" class="cls-10" points="372.91 304.26 366.22 308.16 325.63 284.47 332.33 280.57 372.91 304.26"/><polygon id="_Caminho_224" data-name="&lt;Caminho&gt;" class="cls-11" points="370.04 294.78 363.35 298.68 318.27 272.37 324.97 268.47 370.04 294.78"/><polygon id="_Caminho_225" data-name="&lt;Caminho&gt;" class="cls-12" points="376.74 290.88 370.04 294.78 329.46 271.09 336.15 267.19 376.74 290.88"/><polygon id="_Caminho_226" data-name="&lt;Caminho&gt;" class="cls-9" points="369.31 278.74 362.61 282.64 322.03 258.95 328.72 255.05 369.31 278.74"/><polygon id="_Caminho_227" data-name="&lt;Caminho&gt;" class="cls-10" points="399.7 288.68 393 292.57 352.42 268.88 359.11 264.99 399.7 288.68"/><polygon id="_Caminho_228" data-name="&lt;Caminho&gt;" class="cls-11" points="396.83 279.19 390.13 283.09 349.55 259.4 356.24 255.5 396.83 279.19"/><polygon id="_Caminho_229" data-name="&lt;Caminho&gt;" class="cls-9" points="278.66 272.66 271.96 276.56 231.38 252.87 238.07 248.97 278.66 272.66"/><polygon id="_Caminho_230" data-name="&lt;Caminho&gt;" class="cls-10" points="309.05 282.6 302.35 286.49 261.77 262.8 268.47 258.91 309.05 282.6"/><polygon id="_Caminho_231" data-name="&lt;Caminho&gt;" class="cls-11" points="306.18 273.12 299.48 277.01 254.41 250.7 261.1 246.8 306.18 273.12"/><polygon id="_Caminho_232" data-name="&lt;Caminho&gt;" class="cls-12" points="312.88 269.22 306.18 273.12 265.59 249.43 272.29 245.53 312.88 269.22"/><polygon id="_Caminho_233" data-name="&lt;Caminho&gt;" class="cls-9" points="305.44 257.08 298.75 260.97 258.16 237.28 264.86 233.39 305.44 257.08"/><polygon id="_Caminho_234" data-name="&lt;Caminho&gt;" class="cls-10" points="335.84 267.01 329.14 270.91 288.56 247.22 295.25 243.32 335.84 267.01"/><polygon id="_Caminho_235" data-name="&lt;Caminho&gt;" class="cls-11" points="332.96 257.53 326.27 261.43 285.68 237.74 292.38 233.84 332.96 257.53"/><polygon id="_Caminho_236" data-name="&lt;Caminho&gt;" class="cls-9" points="389.4 267.05 382.7 270.95 342.12 247.26 348.81 243.36 389.4 267.05"/><polygon id="_Caminho_237" data-name="&lt;Caminho&gt;" class="cls-10" points="419.79 276.99 413.09 280.88 372.51 257.19 379.2 253.3 419.79 276.99"/><polygon id="_Caminho_238" data-name="&lt;Caminho&gt;" class="cls-11" points="416.92 267.5 410.22 271.4 365.14 245.09 371.84 241.19 416.92 267.5"/><polygon id="_Caminho_239" data-name="&lt;Caminho&gt;" class="cls-12" points="423.61 263.61 416.92 267.5 376.33 243.81 383.03 239.92 423.61 263.61"/><polygon id="_Caminho_240" data-name="&lt;Caminho&gt;" class="cls-9" points="416.18 251.47 409.49 255.36 368.9 231.67 375.6 227.77 416.18 251.47"/><polygon id="_Caminho_241" data-name="&lt;Caminho&gt;" class="cls-10" points="446.57 261.4 439.88 265.3 399.29 241.6 405.99 237.71 446.57 261.4"/><polygon id="_Caminho_242" data-name="&lt;Caminho&gt;" class="cls-11" points="443.7 251.92 437 255.81 396.42 232.12 403.12 228.23 443.7 251.92"/><polygon id="_Caminho_243" data-name="&lt;Caminho&gt;" class="cls-9" points="325.54 245.39 318.84 249.28 278.25 225.59 284.95 221.69 325.54 245.39"/><polygon id="_Caminho_244" data-name="&lt;Caminho&gt;" class="cls-10" points="355.93 255.32 349.23 259.22 308.64 235.53 315.34 231.63 355.93 255.32"/><polygon id="_Caminho_245" data-name="&lt;Caminho&gt;" class="cls-11" points="353.05 245.84 346.36 249.73 301.28 223.42 307.98 219.53 353.05 245.84"/><polygon id="_Caminho_246" data-name="&lt;Caminho&gt;" class="cls-12" points="359.75 241.94 353.05 245.84 312.47 222.15 319.17 218.25 359.75 241.94"/><polygon id="_Caminho_247" data-name="&lt;Caminho&gt;" class="cls-9" points="352.32 229.8 345.62 233.69 305.04 210 311.74 206.11 352.32 229.8"/><polygon id="_Caminho_248" data-name="&lt;Caminho&gt;" class="cls-10" points="382.71 239.73 376.01 243.63 335.43 219.94 342.13 216.04 382.71 239.73"/><polygon id="_Caminho_249" data-name="&lt;Caminho&gt;" class="cls-11" points="379.84 230.25 373.14 234.15 332.56 210.46 339.25 206.56 379.84 230.25"/><polygon id="_Caminho_250" data-name="&lt;Caminho&gt;" class="cls-9" points="436.27 239.77 429.58 243.67 388.99 219.98 395.69 216.08 436.27 239.77"/><polygon id="_Caminho_251" data-name="&lt;Caminho&gt;" class="cls-10" points="466.66 249.71 459.97 253.6 419.38 229.91 426.08 226.02 466.66 249.71"/><polygon id="_Caminho_252" data-name="&lt;Caminho&gt;" class="cls-11" points="463.79 240.23 457.1 244.12 412.02 217.81 418.72 213.91 463.79 240.23"/><polygon id="_Caminho_253" data-name="&lt;Caminho&gt;" class="cls-12" points="470.49 236.33 463.79 240.23 423.21 216.54 429.9 212.64 470.49 236.33"/><polygon id="_Caminho_254" data-name="&lt;Caminho&gt;" class="cls-9" points="463.06 224.19 456.36 228.08 415.78 204.39 422.47 200.5 463.06 224.19"/><polygon id="_Caminho_255" data-name="&lt;Caminho&gt;" class="cls-10" points="493.45 234.12 486.75 238.02 446.17 214.33 452.86 210.43 493.45 234.12"/><polygon id="_Caminho_256" data-name="&lt;Caminho&gt;" class="cls-11" points="490.58 224.64 483.88 228.54 443.3 204.84 449.99 200.95 490.58 224.64"/><polygon id="_Caminho_257" data-name="&lt;Caminho&gt;" class="cls-9" points="372.41 218.11 365.71 222 325.13 198.31 331.82 194.42 372.41 218.11"/><polygon id="_Caminho_258" data-name="&lt;Caminho&gt;" class="cls-10" points="402.8 228.04 396.1 231.94 355.52 208.25 362.22 204.35 402.8 228.04"/><polygon id="_Caminho_259" data-name="&lt;Caminho&gt;" class="cls-11" points="399.93 218.56 393.23 222.46 348.16 196.15 354.85 192.25 399.93 218.56"/><polygon id="_Caminho_260" data-name="&lt;Caminho&gt;" class="cls-12" points="406.63 214.66 399.93 218.56 359.34 194.87 366.04 190.97 406.63 214.66"/><polygon id="_Caminho_261" data-name="&lt;Caminho&gt;" class="cls-9" points="399.2 202.52 392.5 206.42 351.91 182.73 358.61 178.83 399.2 202.52"/><polygon id="_Caminho_262" data-name="&lt;Caminho&gt;" class="cls-10" points="429.59 212.46 422.89 216.35 382.31 192.66 389 188.76 429.59 212.46"/><polygon id="_Caminho_263" data-name="&lt;Caminho&gt;" class="cls-11" points="426.71 202.97 420.02 206.87 379.43 183.18 386.13 179.28 426.71 202.97"/><polygon id="_Caminho_264" data-name="&lt;Caminho&gt;" class="cls-9" points="483.15 212.5 476.45 216.39 435.87 192.7 442.56 188.81 483.15 212.5"/><polygon id="_Caminho_265" data-name="&lt;Caminho&gt;" class="cls-10" points="513.54 222.43 506.84 226.33 466.26 202.64 472.95 198.74 513.54 222.43"/><polygon id="_Caminho_266" data-name="&lt;Caminho&gt;" class="cls-11" points="510.67 212.95 503.97 216.84 458.89 190.53 465.59 186.64 510.67 212.95"/><polygon id="_Caminho_267" data-name="&lt;Caminho&gt;" class="cls-12" points="517.36 209.05 510.67 212.95 470.08 189.26 476.78 185.36 517.36 209.05"/><polygon id="_Caminho_268" data-name="&lt;Caminho&gt;" class="cls-9" points="509.93 196.91 503.24 200.81 462.65 177.12 469.35 173.22 509.93 196.91"/><polygon id="_Caminho_269" data-name="&lt;Caminho&gt;" class="cls-10" points="499.74 183.15 529.28 200.4 529.28 208.2 493.04 187.05 499.74 183.15"/><polygon id="_Caminho_270" data-name="&lt;Caminho&gt;" class="cls-11" points="496.87 173.67 529.28 192.59 529.28 200.4 490.17 177.57 496.87 173.67"/><polygon id="_Caminho_271" data-name="&lt;Caminho&gt;" class="cls-9" points="419.29 190.83 412.59 194.73 372 171.04 378.7 167.14 419.29 190.83"/><polygon id="_Caminho_272" data-name="&lt;Caminho&gt;" class="cls-10" points="449.68 200.76 442.98 204.66 402.39 180.97 409.09 177.07 449.68 200.76"/><polygon id="_Caminho_273" data-name="&lt;Caminho&gt;" class="cls-11" points="446.8 191.28 440.11 195.18 395.03 168.87 401.73 164.97 446.8 191.28"/><polygon id="_Caminho_274" data-name="&lt;Caminho&gt;" class="cls-12" points="453.5 187.38 446.8 191.28 406.22 167.59 412.92 163.69 453.5 187.38"/><polygon id="_Caminho_275" data-name="&lt;Caminho&gt;" class="cls-9" points="446.07 175.24 439.37 179.14 398.79 155.45 405.49 151.55 446.07 175.24"/><polygon id="_Caminho_276" data-name="&lt;Caminho&gt;" class="cls-10" points="476.46 185.18 469.76 189.07 429.18 165.38 435.88 161.49 476.46 185.18"/><polygon id="_Caminho_277" data-name="&lt;Caminho&gt;" class="cls-11" points="473.59 175.69 466.89 179.59 426.31 155.9 433 152 473.59 175.69"/><polygon id="_Caminho_278" data-name="&lt;Caminho&gt;" class="cls-9" points="482.74 165.43 489.44 161.53 529.28 184.78 529.28 185.65 523.33 189.12 482.74 165.43"/><polygon id="_Caminho_279" data-name="&lt;Caminho&gt;" class="cls-9" points="466.16 163.55 459.46 167.45 418.88 143.76 425.57 139.86 466.16 163.55"/><polygon id="_Caminho_280" data-name="&lt;Caminho&gt;" class="cls-10" points="496.55 173.49 489.86 177.38 449.27 153.69 455.97 149.8 496.55 173.49"/><polygon id="_Caminho_281" data-name="&lt;Caminho&gt;" class="cls-11" points="493.68 164 486.98 167.9 441.91 141.59 448.6 137.69 493.68 164"/><polygon id="_Caminho_282" data-name="&lt;Caminho&gt;" class="cls-12" points="500.38 160.11 493.68 164 453.09 140.31 459.79 136.42 500.38 160.11"/><polygon id="_Caminho_283" data-name="&lt;Caminho&gt;" class="cls-9" points="492.95 147.97 486.25 151.86 445.66 128.17 452.36 124.28 492.95 147.97"/><polygon id="_Caminho_284" data-name="&lt;Caminho&gt;" class="cls-10" points="523.34 157.9 516.64 161.8 476.06 138.11 482.75 134.21 523.34 157.9"/><polygon id="_Caminho_285" data-name="&lt;Caminho&gt;" class="cls-11" points="520.47 148.42 513.77 152.31 473.18 128.62 479.88 124.73 520.47 148.42"/><polygon id="_Caminho_286" data-name="&lt;Caminho&gt;" class="cls-9" points="513.03 136.27 506.34 140.17 465.75 116.48 472.45 112.58 513.03 136.27"/><polygon id="_Caminho_287" data-name="&lt;Caminho&gt;" class="cls-10" points="502.84 122.52 529.28 137.95 529.28 145.76 496.14 126.42 502.84 122.52"/><polygon id="_Caminho_288" data-name="&lt;Caminho&gt;" class="cls-11" points="495.48 110.42 529.28 130.15 529.28 137.95 488.78 114.31 495.48 110.42"/><polygon id="_Caminho_289" data-name="&lt;Caminho&gt;" class="cls-12" points="506.67 109.14 529.28 122.34 529.28 130.15 499.97 113.04 506.67 109.14"/><polygon id="_Caminho_290" data-name="&lt;Caminho&gt;" class="cls-9" points="499.24 97 529.28 114.53 529.28 122.34 492.54 100.89 499.24 97"/><polygon id="_Caminho_291" data-name="&lt;Caminho&gt;" class="cls-9" points="212.2 397.79 224.95 405.23 211.58 405.23 205.5 401.68 212.2 397.79"/><polygon id="_Caminho_292" data-name="&lt;Caminho&gt;" class="cls-11" points="235.23 395.62 251.7 405.23 238.32 405.23 228.53 399.52 235.23 395.62"/><polygon id="_Caminho_293" data-name="&lt;Caminho&gt;" class="cls-12" points="246.41 394.34 265.07 405.23 251.7 405.23 239.72 398.24 246.41 394.34"/><polygon id="_Caminho_294" data-name="&lt;Caminho&gt;" class="cls-9" points="238.98 382.2 278.44 405.23 265.07 405.23 232.29 386.1 238.98 382.2"/><polygon id="_Caminho_295" data-name="&lt;Caminho&gt;" class="cls-10" points="269.38 392.13 291.81 405.23 278.44 405.23 262.68 396.03 269.38 392.13"/><polygon id="_Caminho_296" data-name="&lt;Caminho&gt;" class="cls-11" points="266.5 382.65 305.19 405.23 291.81 405.23 259.81 386.55 266.5 382.65"/><polygon id="_Caminho_297" data-name="&lt;Caminho&gt;" class="cls-9" points="322.94 392.18 345.3 405.23 331.93 405.23 316.24 396.07 322.94 392.18"/><polygon id="_Caminho_298" data-name="&lt;Caminho&gt;" class="cls-11" points="345.96 390.01 372.05 405.23 358.68 405.23 339.27 393.9 345.96 390.01"/><polygon id="_Caminho_299" data-name="&lt;Caminho&gt;" class="cls-12" points="357.15 388.73 385.42 405.23 372.05 405.23 350.45 392.63 357.15 388.73"/><polygon id="_Caminho_300" data-name="&lt;Caminho&gt;" class="cls-9" points="390.31 400.28 383.61 404.18 343.02 380.49 349.72 376.59 390.31 400.28"/><polygon id="_Caminho_301" data-name="&lt;Caminho&gt;" class="cls-10" points="380.11 386.52 412.17 405.23 398.79 405.23 373.42 390.42 380.11 386.52"/><polygon id="_Caminho_302" data-name="&lt;Caminho&gt;" class="cls-11" points="417.83 400.73 411.13 404.63 370.54 380.94 377.24 377.04 417.83 400.73"/><polygon id="_Caminho_303" data-name="&lt;Caminho&gt;" class="cls-9" points="299.66 394.2 292.96 398.1 252.38 374.41 259.07 370.51 299.66 394.2"/><polygon id="_Caminho_304" data-name="&lt;Caminho&gt;" class="cls-10" points="289.46 380.44 330.05 404.13 328.16 405.23 318.56 405.23 282.77 384.34 289.46 380.44"/><polygon id="_Caminho_305" data-name="&lt;Caminho&gt;" class="cls-11" points="327.18 394.65 320.48 398.55 275.41 372.24 282.1 368.34 327.18 394.65"/><polygon id="_Caminho_306" data-name="&lt;Caminho&gt;" class="cls-12" points="333.87 390.75 327.18 394.65 286.59 370.96 293.29 367.06 333.87 390.75"/><polygon id="_Caminho_307" data-name="&lt;Caminho&gt;" class="cls-9" points="326.44 378.61 319.75 382.51 279.16 358.82 285.86 354.92 326.44 378.61"/><polygon id="_Caminho_308" data-name="&lt;Caminho&gt;" class="cls-10" points="356.84 388.55 350.14 392.44 309.55 368.75 316.25 364.86 356.84 388.55"/><polygon id="_Caminho_309" data-name="&lt;Caminho&gt;" class="cls-11" points="353.96 379.06 347.27 382.96 306.68 359.27 313.38 355.37 353.96 379.06"/><polygon id="_Caminho_310" data-name="&lt;Caminho&gt;" class="cls-9" points="410.4 388.59 403.7 392.49 363.12 368.8 369.81 364.9 410.4 388.59"/><polygon id="_Caminho_311" data-name="&lt;Caminho&gt;" class="cls-10" points="440.79 398.52 434.09 402.42 393.51 378.73 400.2 374.83 440.79 398.52"/><polygon id="_Caminho_312" data-name="&lt;Caminho&gt;" class="cls-11" points="437.92 389.04 431.22 392.94 386.14 366.63 392.84 362.73 437.92 389.04"/><polygon id="_Caminho_313" data-name="&lt;Caminho&gt;" class="cls-12" points="444.61 385.14 437.92 389.04 397.33 365.35 404.03 361.45 444.61 385.14"/><polygon id="_Caminho_314" data-name="&lt;Caminho&gt;" class="cls-9" points="437.18 373 430.49 376.9 389.9 353.21 396.6 349.31 437.18 373"/><polygon id="_Caminho_315" data-name="&lt;Caminho&gt;" class="cls-10" points="467.57 382.94 460.88 386.83 420.29 363.14 426.99 359.25 467.57 382.94"/><polygon id="_Caminho_316" data-name="&lt;Caminho&gt;" class="cls-11" points="464.7 373.45 458 377.35 417.42 353.66 424.12 349.76 464.7 373.45"/><polygon id="_Caminho_317" data-name="&lt;Caminho&gt;" class="cls-9" points="346.53 366.92 339.84 370.82 299.25 347.13 305.95 343.23 346.53 366.92"/><polygon id="_Caminho_318" data-name="&lt;Caminho&gt;" class="cls-10" points="376.93 376.86 370.23 380.75 329.64 357.06 336.34 353.17 376.93 376.86"/><polygon id="_Caminho_319" data-name="&lt;Caminho&gt;" class="cls-11" points="374.05 367.37 367.36 371.27 322.28 344.96 328.98 341.06 374.05 367.37"/><polygon id="_Caminho_320" data-name="&lt;Caminho&gt;" class="cls-12" points="380.75 363.48 374.05 367.37 333.47 343.68 340.16 339.79 380.75 363.48"/><polygon id="_Caminho_321" data-name="&lt;Caminho&gt;" class="cls-9" points="373.32 351.33 366.62 355.23 326.04 331.54 332.74 327.64 373.32 351.33"/><polygon id="_Caminho_322" data-name="&lt;Caminho&gt;" class="cls-10" points="403.71 361.27 397.01 365.17 356.43 341.48 363.13 337.58 403.71 361.27"/><polygon id="_Caminho_323" data-name="&lt;Caminho&gt;" class="cls-11" points="400.84 351.79 394.14 355.68 353.56 331.99 360.25 328.1 400.84 351.79"/><polygon id="_Caminho_324" data-name="&lt;Caminho&gt;" class="cls-9" points="457.27 361.31 450.57 365.21 409.99 341.52 416.69 337.62 457.27 361.31"/><polygon id="_Caminho_325" data-name="&lt;Caminho&gt;" class="cls-10" points="487.66 371.25 480.97 375.14 440.38 351.45 447.08 347.56 487.66 371.25"/><polygon id="_Caminho_326" data-name="&lt;Caminho&gt;" class="cls-11" points="484.79 361.76 478.09 365.66 433.02 339.35 439.72 335.45 484.79 361.76"/><polygon id="_Caminho_327" data-name="&lt;Caminho&gt;" class="cls-12" points="491.49 357.87 484.79 361.76 444.2 338.07 450.9 334.18 491.49 357.87"/><polygon id="_Caminho_328" data-name="&lt;Caminho&gt;" class="cls-9" points="484.06 345.72 477.36 349.62 436.78 325.93 443.47 322.03 484.06 345.72"/><polygon id="_Caminho_329" data-name="&lt;Caminho&gt;" class="cls-10" points="514.45 355.66 507.75 359.55 467.17 335.86 473.86 331.97 514.45 355.66"/><polygon id="_Caminho_330" data-name="&lt;Caminho&gt;" class="cls-11" points="511.58 346.18 504.88 350.07 464.29 326.38 470.99 322.49 511.58 346.18"/><polygon id="_Caminho_331" data-name="&lt;Caminho&gt;" class="cls-9" points="393.41 339.64 386.71 343.54 346.13 319.85 352.82 315.95 393.41 339.64"/><polygon id="_Caminho_332" data-name="&lt;Caminho&gt;" class="cls-10" points="423.8 349.58 417.1 353.48 376.52 329.79 383.21 325.89 423.8 349.58"/><polygon id="_Caminho_333" data-name="&lt;Caminho&gt;" class="cls-11" points="420.93 340.1 414.23 343.99 369.16 317.68 375.85 313.79 420.93 340.1"/><polygon id="_Caminho_334" data-name="&lt;Caminho&gt;" class="cls-12" points="427.62 336.2 420.93 340.1 380.34 316.41 387.04 312.51 427.62 336.2"/><polygon id="_Caminho_335" data-name="&lt;Caminho&gt;" class="cls-9" points="420.19 324.06 413.5 327.95 372.91 304.26 379.61 300.37 420.19 324.06"/><polygon id="_Caminho_336" data-name="&lt;Caminho&gt;" class="cls-10" points="450.59 333.99 443.89 337.89 403.3 314.2 410 310.3 450.59 333.99"/><polygon id="_Caminho_337" data-name="&lt;Caminho&gt;" class="cls-11" points="447.71 324.51 441.02 328.41 400.43 304.72 407.13 300.82 447.71 324.51"/><polygon id="_Caminho_338" data-name="&lt;Caminho&gt;" class="cls-9" points="504.15 334.03 497.45 337.93 456.87 314.24 463.56 310.34 504.15 334.03"/><polygon id="_Caminho_339" data-name="&lt;Caminho&gt;" class="cls-10" points="487.26 324.17 493.95 320.28 529.28 340.9 529.28 347.03 527.84 347.86 487.26 324.17"/><polygon id="_Caminho_340" data-name="&lt;Caminho&gt;" class="cls-11" points="479.89 312.07 486.59 308.17 529.28 333.09 529.28 335.87 524.97 338.38 479.89 312.07"/><polygon id="_Caminho_341" data-name="&lt;Caminho&gt;" class="cls-12" points="497.78 306.9 529.28 325.29 529.28 333.09 491.08 310.8 497.78 306.9"/><polygon id="_Caminho_342" data-name="&lt;Caminho&gt;" class="cls-9" points="483.65 298.65 490.35 294.75 529.28 317.48 529.28 319.41 524.24 322.34 483.65 298.65"/><polygon id="_Caminho_343" data-name="&lt;Caminho&gt;" class="cls-9" points="440.28 312.37 433.59 316.26 393 292.57 399.7 288.68 440.28 312.37"/><polygon id="_Caminho_344" data-name="&lt;Caminho&gt;" class="cls-10" points="470.68 322.3 463.98 326.2 423.39 302.51 430.09 298.61 470.68 322.3"/><polygon id="_Caminho_345" data-name="&lt;Caminho&gt;" class="cls-11" points="467.8 312.82 461.11 316.71 416.03 290.4 422.73 286.51 467.8 312.82"/><polygon id="_Caminho_346" data-name="&lt;Caminho&gt;" class="cls-12" points="474.5 308.92 467.8 312.82 427.22 289.13 433.91 285.23 474.5 308.92"/><polygon id="_Caminho_347" data-name="&lt;Caminho&gt;" class="cls-9" points="467.07 296.78 460.37 300.68 419.79 276.99 426.49 273.09 467.07 296.78"/><polygon id="_Caminho_348" data-name="&lt;Caminho&gt;" class="cls-10" points="497.46 306.71 490.76 310.61 450.18 286.92 456.88 283.02 497.46 306.71"/><polygon id="_Caminho_349" data-name="&lt;Caminho&gt;" class="cls-11" points="494.59 297.23 487.89 301.13 447.31 277.44 454 273.54 494.59 297.23"/><polygon id="_Caminho_350" data-name="&lt;Caminho&gt;" class="cls-9" points="487.16 285.09 480.46 288.99 439.88 265.3 446.57 261.4 487.16 285.09"/><polygon id="_Caminho_351" data-name="&lt;Caminho&gt;" class="cls-10" points="517.55 295.02 510.85 298.92 470.27 275.23 476.96 271.33 517.55 295.02"/><polygon id="_Caminho_352" data-name="&lt;Caminho&gt;" class="cls-11" points="514.68 285.54 507.98 289.44 462.91 263.13 469.6 259.23 514.68 285.54"/><polygon id="_Caminho_353" data-name="&lt;Caminho&gt;" class="cls-12" points="521.37 281.64 514.68 285.54 474.09 261.85 480.79 257.95 521.37 281.64"/><polygon id="_Caminho_354" data-name="&lt;Caminho&gt;" class="cls-9" points="513.95 269.5 507.25 273.4 466.66 249.71 473.36 245.81 513.95 269.5"/><polygon id="_Caminho_355" data-name="&lt;Caminho&gt;" class="cls-10" points="503.75 255.75 529.28 270.65 529.28 278.45 497.05 259.64 503.75 255.75"/><polygon id="_Caminho_356" data-name="&lt;Caminho&gt;" class="cls-11" points="500.88 246.26 529.28 262.84 529.28 270.65 494.18 250.16 500.88 246.26"/><polygon id="_Caminho_357" data-name="&lt;Caminho&gt;" class="cls-9" points="486.75 238.02 493.45 234.12 529.28 255.03 529.28 260.58 527.34 261.71 486.75 238.02"/><polygon id="_Caminho_358" data-name="&lt;Caminho&gt;" class="cls-9" points="447.48 394.63 465.65 405.23 452.28 405.23 440.79 398.52 447.48 394.63"/><polygon id="_Caminho_359" data-name="&lt;Caminho&gt;" class="cls-11" points="475 395.08 492.4 405.23 479.03 405.23 468.31 398.98 475 395.08"/><polygon id="_Caminho_360" data-name="&lt;Caminho&gt;" class="cls-9" points="467.57 382.94 505.77 405.23 492.4 405.23 460.88 386.83 467.57 382.94"/><polygon id="_Caminho_361" data-name="&lt;Caminho&gt;" class="cls-10" points="497.96 392.87 519.14 405.23 505.77 405.23 491.27 396.77 497.96 392.87"/><polygon id="_Caminho_362" data-name="&lt;Caminho&gt;" class="cls-11" points="490.6 380.77 529.28 403.34 529.28 405.23 519.14 405.23 483.91 384.66 490.6 380.77"/><polygon id="_Caminho_363" data-name="&lt;Caminho&gt;" class="cls-12" points="501.79 379.49 529.28 395.54 529.28 403.34 495.09 383.39 501.79 379.49"/><polygon id="_Caminho_364" data-name="&lt;Caminho&gt;" class="cls-9" points="487.66 371.25 494.36 367.35 529.28 387.73 529.28 394.33 528.25 394.94 487.66 371.25"/></g></g><path class="cls-13" d="M192.7,263.47l-87.14-50.31,96.73-55.85,87.14,50.31ZM110,213.16l82.67,47.73L285,207.62l-82.67-47.73Z"/><path class="cls-14" d="M406.29,281.66l-1.1.65L367.56,304l-7.12,4.11-37.58,21.7-1.15.66c-.38-.2-.77-.41-1.14-.63l-1.1-.65c-22.41-13.62-22.16-35.08.83-48.36s60.16-13.42,83.74-.47c.39.2.77.41,1.15.63S405.93,281.43,406.29,281.66Z"/><polygon class="cls-14" points="192.7 262.18 107.79 213.16 202.29 158.6 287.2 207.62 192.7 262.18"/><path class="cls-13" d="M405.74,280c-.18-.11-.38-.21-.57-.31-23.83-13.41-62-13.37-85.43.17-11.61,6.7-18,15.7-18,25.33,0,9.26,5.89,17.94,16.63,24.63.53.33,1.09.66,1.64,1,.19.12.39.22.58.32l1.12-.66,1.15-.66c-.59-.3-1.16-.61-1.73-.94l-.56-.33c-10.7-6.34-16.6-14.63-16.6-23.34s6-17.11,16.89-23.4c11.47-6.61,26.54-9.91,41.64-9.91,14.49,0,29,3,40.4,9.12.59.3,1.16.62,1.73,1l.56.33,1.1-.65,1.1-.64C406.86,280.69,406.3,280.36,405.74,280Z"/><path class="cls-13" d="M205,256.35l-87.11-50.29L190,164.4l87.1,50.29Zm-82.63-50.29L205,253.77l67.69-39.08L190,167Z"/><path class="cls-13" d="M367.56,304l-7.12,4.11a5,5,0,0,1-1.28-.54,4,4,0,0,1-1-.74c-1-1.16-.74-2.62.93-3.59a8.45,8.45,0,0,1,6.18-.53,5.51,5.51,0,0,1,1.29.55A4.19,4.19,0,0,1,367.56,304Z"/><path class="cls-13" d="M240.58,264.11c-12.83,0-25.68-2.83-35.47-8.49s-15.05-13.1-15.05-21.12,5.26-15.38,14.83-20.9c19.39-11.19,51-11.14,70.55.13,9.7,5.6,15,13.1,15,21.12s-5.26,15.37-14.83,20.9h0C266,261.32,253.3,264.11,240.58,264.11ZM240,207.44c-12.32,0-24.61,2.7-34,8.1-8.85,5.1-13.72,11.83-13.72,19s5,14,13.93,19.18c18.9,10.91,49.54,11,68.32.13h0c8.84-5.11,13.71-11.84,13.71-19s-4.95-14-13.93-19.19C264.83,210.18,252.38,207.44,240,207.44Z"/><path class="cls-15" d="M206.88,284a193.36,193.36,0,0,1-49.71-6.33l-.27-.11-79.72-46,1.12-1.94,79.59,46c44.24,11.82,97,6.48,131.22-13.3,18.43-10.65,30.12-24.7,32.9-39.58,2.23-11.94-1.2-24-9.92-34.92l-79.54-45.92,1.11-1.94L313.57,186l.13.17c9.24,11.48,12.87,24.23,10.51,36.89-2.95,15.75-14.7,30-34,41.1C267.77,277.09,237.54,284,206.88,284Z"/><path class="cls-13" d="M261.7,365.06,51.8,244.19,256,126.27l209.9,120.87ZM56.28,244.19,261.7,362.48,461.46,247.15,256.05,128.85Z"/><polygon class="cls-13" points="464.06 248.31 407.39 281.02 406.29 281.66 405.19 282.31 367.56 304.02 360.44 308.13 322.86 329.83 321.71 330.49 320.59 331.15 262.06 364.93 260.94 362.99 318.37 329.85 319.47 329.21 320.57 328.56 358.2 306.85 365.31 302.73 402.9 281.03 404.04 280.38 405.17 279.72 462.94 246.38 464.06 248.31"/><path class="cls-16" d="M351,290a23.14,23.14,0,0,0-11.9-2.64c.52-2.31-.75-4.73-3.83-6.51-5.26-3-13.75-3.05-19,0s-5.19,7.91.06,10.94a19.07,19.07,0,0,0,8.51,2.23c-1.39,3,0,6.37,4.08,8.75,6.13,3.53,16,3.55,22.12,0S357.15,293.55,351,290Z"/><path class="cls-17" d="M342.73,219.16s1.71-4.87,1.08-8.07a4.85,4.85,0,0,0-4.45-4.28,13,13,0,0,1-5.4-2c-1.7-1.23-9-6.52-11-8.35s-4.39-3.85-4.43-4.08-.48-3.7-.47-4.56a12.77,12.77,0,0,0-.14-2.87c-.18-.56-1.8-1.8-1.8-1.8a29,29,0,0,1-1.75,3.88c-1.15,2.11-2.78,3.16-1.93,4.66a6.12,6.12,0,0,0,2.39,2.4,25.43,25.43,0,0,1,3.87,3.85,65.06,65.06,0,0,0,4.35,5.76c1.85,2,6.05,6.22,6.05,6.22Z"/><path class="cls-18" d="M318.9,192.79a2.62,2.62,0,0,0-1.46.76,5.4,5.4,0,0,0-1.21,1.73l1.63,1.66s.25-1.58,1-2.07a5,5,0,0,1,1.59-.63Z"/><path class="cls-19" d="M341.09,289.15a3.14,3.14,0,0,0-2.58.08c-1.39.57-.69,2.3-.47,3.17s1.68,3.34,1.83,3.82a18.49,18.49,0,0,0,2.17,3.92,2.85,2.85,0,0,0,2.85.53c1-.3,1.26-.75,1.3-1.15a16.51,16.51,0,0,0-.35-3.35c-.25-.9-2.1-4.83-2.1-4.83Z"/><path class="cls-19" d="M324.15,283.14a6.57,6.57,0,0,1,.6,2.35,20.83,20.83,0,0,1,.26,3.42,2,2,0,0,1-1.87,1.56c-1.46.27-2.05-.2-2.89-1.61s-2.33-2.5-2.74-4.21a3.93,3.93,0,0,1,.66-3.74c.81-1.11,2.17-.86,3.15-.47S324.15,283.14,324.15,283.14Z"/><path class="cls-20" d="M341.05,287.93a3.17,3.17,0,0,0-2.57.08c-1.39.57-.7,2.3-.47,3.18s1.67,3.33,1.82,3.82a18.53,18.53,0,0,0,2.18,3.91,2.87,2.87,0,0,0,2.85.54c1-.3,1.26-.75,1.29-1.15a16.51,16.51,0,0,0-.35-3.35c-.25-.9-2.09-4.83-2.09-4.83Z"/><path class="cls-20" d="M324.11,281.92a6.53,6.53,0,0,1,.61,2.35,23.51,23.51,0,0,1,.26,3.43,2,2,0,0,1-1.88,1.56c-1.45.26-2-.2-2.88-1.62s-2.34-2.49-2.75-4.21a3.94,3.94,0,0,1,.66-3.73c.81-1.11,2.17-.87,3.15-.48S324.11,281.92,324.11,281.92Z"/><path class="cls-17" d="M342.44,254.58s-1.43,9.65-.87,12a41.67,41.67,0,0,0,1.89,7c.91,2,1.27,5.31,1.08,10.41s-.19,6.73-.12,7.62a23.89,23.89,0,0,1,.6,3c0,1.07-.82,1.42-2.63,1.34a2.86,2.86,0,0,1-2.54-2.46c0-.51.33-3.77-.17-5.55a71.61,71.61,0,0,1-2.14-8.41,14.43,14.43,0,0,0-1.2-5.08,27.09,27.09,0,0,1-2.53-6c-.27-1.59-2.66-12.65-2.66-12.65Z"/><path class="cls-17" d="M329.68,257a49.93,49.93,0,0,0-3.4,4.81,18.76,18.76,0,0,0-1.47,4.09c-.07.77.13,4.21-.08,6.91s-.51,6.06-.47,7.55a24.66,24.66,0,0,1,.12,3.95,2.43,2.43,0,0,1-2.58,1.37c-1.33-.09-1.51-.75-1.53-1.38a43.93,43.93,0,0,0-.79-6.22c-.41-1.34-2-7.11-1.87-9.9s.36-7.94.25-9.33a46.76,46.76,0,0,1,.28-6.88c.27-2.24,2.66-2.22,5.13-1.15S329.68,257,329.68,257Z"/><path class="cls-21" d="M341.57,245.11a25.82,25.82,0,0,1,1,7.41c-.15,3.72-.63,11.9-.32,13.49s-4.29,2.85-6.41,2.92-3.59,0-5.29-1.43-1.66-16.95-.83-18.24S341.57,245.11,341.57,245.11Z"/><path class="cls-22" d="M334.12,249.13A38.93,38.93,0,0,1,332,256.5c-1.6,4-5.36,6.87-5.59,8.27s-3,2.28-5.78,2.1-5.25-2.56-5.26-5,1.08-12.25,2-14.21,5.26-3.68,5.26-3.68Z"/><path class="cls-23" d="M318.31,223.82s.79-5.4,1.42-7.81,1.43-5.12,2.1-5.11,3.26,2,4.69.49,7.8-2.4,8.11-3,2.93-.82,4-.29,3.71.79,4.11,5.32a30.72,30.72,0,0,1-.69,10,38.31,38.31,0,0,0-.4,8.54,51.17,51.17,0,0,1,.35,7.06,67,67,0,0,0,.41,6.93c0,.53.43,2.07-2,3.38s-8.72,2.69-13,2.35-7.27-2.36-9.12-3-2.91-1.7-2.93-2.4,1.38-7.94,2-13.3S318.31,223.82,318.31,223.82Z"/><path class="cls-24" d="M326.5,211.58a8.41,8.41,0,0,0-.27-3.17,6.93,6.93,0,0,0-.92-1.9,7.72,7.72,0,0,1-1.31-2.75,18.71,18.71,0,0,0-.74-3.6,9.93,9.93,0,0,1,.56-3.37c.23,0,4.32-.79,5.87,1s5.3,5,5.19,5.79a21.06,21.06,0,0,0-.24,3.92,4.2,4.2,0,0,0,1.54,2.74c.44.19,1,.3,1.05.77s-.78,2.44-5.74,2.26S326.5,211.58,326.5,211.58Z"/><path class="cls-17" d="M325.3,206s-.66.19-.76-.35-.2-2-.36-2.52.05-1,.36-.59a3.52,3.52,0,0,1,.86,1.82C325.4,205.06,325.3,206,325.3,206Z"/><path class="cls-25" d="M326.56,205a22.14,22.14,0,0,0,1.31,2.6,5.51,5.51,0,0,0,4.48,1.13,5.12,5.12,0,0,0,3-1.52c.29-.34,2.62-3.6,2.86-6.5s0-6.37-3.25-8.43a9.46,9.46,0,0,0-8.36-1,4.91,4.91,0,0,0-3.1,3.85,11,11,0,0,0,.18,5.83c.35.76,1.42,1.85,1.7,2.44A8.94,8.94,0,0,0,326.56,205Z"/><path class="cls-17" d="M319,221.66s-2,7.1.92,8.25,4.42-9.52,4.67-12.67.07-5.24-2.74-6.34S319,221.66,319,221.66Z"/><path class="cls-24" d="M312.43,203.35s3,2.77,4.25,4.29,4.23,2.66,5.15,3.26,2.36,3.34,1.31,7-2.14,6-3.21,5.57-7.25-7.81-8.59-10.35-4.44-7.4-4.91-8.45a5.38,5.38,0,0,1-.11-3.75c.42-1.34,2.48-6.75,4-9.82a26.16,26.16,0,0,0,2.14-5.14,22,22,0,0,0-.59-4.34,20.11,20.11,0,0,1-.39-4c0-.38-.07-1.45.21-1.53a.6.6,0,0,1,.77.46c.07.42.13,1.94.19,2.14a10,10,0,0,0,.68,1.64,10.86,10.86,0,0,0,0-1.51s-.3-3.18-.21-3.38.14-.33.64-.3a.64.64,0,0,1,.67.73c0,.39.19,2,.25,2.5a8,8,0,0,0,.45,2c.14,0,.34-.1.34-.1a9.65,9.65,0,0,0,.5-1.89,16.81,16.81,0,0,1,.21-3.28c.17-.13,1-.51,1.22.4a23.43,23.43,0,0,1,.09,3.6c0,.09-.08,1.3-.08,1.3a9.15,9.15,0,0,0,.56-.92,9.91,9.91,0,0,0,.66-1.8c.09-.66.22-1.83.22-1.83s.77-.52,1.05.08a10.54,10.54,0,0,1,0,3c0,.15-.81,2.29-.84,2.47s.08.25.1.17a7.25,7.25,0,0,0,.71-1.4,2.32,2.32,0,0,1,1.39-1.17c.35,0,.65.13.49.52a8.15,8.15,0,0,0-.51,1.31,11.56,11.56,0,0,1-1.16,2.37c-.25.29-2,1.69-2,1.84s-1.41,1.49-1.44,2-1.56,3.89-2.28,7.4S312.51,203.23,312.43,203.35Z"/><path class="cls-18" d="M323.24,196.48s1.87,3.56,4.32,4.46a11.08,11.08,0,0,0,6.43.86c2.32-.42,3.55-.52,4.23-1.61a5.29,5.29,0,0,1-.69,3,13.69,13.69,0,0,1-6.87.88c-3.62-.56-5.58-1.86-6.45-3.08a5.09,5.09,0,0,1-.94-1.62A6.24,6.24,0,0,1,323.24,196.48Z"/><path class="cls-18" d="M312.16,186.89a5.85,5.85,0,0,1,2.58.52c1.16.59,1.28,1.28,1.28,1.28l-.68,1.93a4.13,4.13,0,0,0-2-1.29,3.23,3.23,0,0,0-2.11-.22Z"/><polygon class="cls-26" points="108.39 200.73 114.6 204.3 60.57 235.63 30.03 232.29 117.69 181.69 145.07 179.28 147.74 185.59 109.52 189.78 90.06 198.23 108.39 200.73"/><g id="_Grupo_2" data-name="&lt;Grupo&gt;"><polygon id="_Caminho_365" data-name="&lt;Caminho&gt;" class="cls-27" points="151.98 183.14 147.75 185.59 164.97 61.51 169.21 59.07 151.98 183.14"/><polygon id="_Caminho_366" data-name="&lt;Caminho&gt;" class="cls-28" points="169.21 59.07 164.97 61.51 159.38 58.28 163.62 55.84 169.21 59.07"/><polygon id="_Caminho_367" data-name="&lt;Caminho&gt;" class="cls-4" points="142.16 182.36 147.75 185.59 164.97 61.51 159.38 58.28 142.16 182.36"/></g><g id="_Grupo_3" data-name="&lt;Grupo&gt;"><polygon id="_Caminho_368" data-name="&lt;Caminho&gt;" class="cls-29" points="195.08 80.52 190.85 82.96 190.85 76.45 195.08 74 195.08 80.52"/><polygon id="_Caminho_369" data-name="&lt;Caminho&gt;" class="cls-28" points="195.08 74 190.85 76.45 164.97 61.51 169.21 59.07 195.08 74"/><polygon id="_Caminho_370" data-name="&lt;Caminho&gt;" class="cls-4" points="163.32 67.07 190.85 82.96 190.85 76.45 164.97 61.51 163.32 67.07"/><polygon id="_Caminho_371" data-name="&lt;Caminho&gt;" class="cls-4" points="195.08 74 190.85 76.45 160.85 91.34 165.09 88.89 195.08 74"/><polygon id="_Caminho_372" data-name="&lt;Caminho&gt;" class="cls-4" points="159.2 96.89 190.85 82.96 190.85 76.45 160.85 91.34 159.2 96.89"/></g><g id="_Grupo_4" data-name="&lt;Grupo&gt;"><polygon id="_Caminho_373" data-name="&lt;Caminho&gt;" class="cls-30" points="236.07 20.84 236.07 79.23 225.87 84.35 211.48 92.66 202.78 97.68 182.99 109.89 182.58 110.12 175.6 114.15 175.6 55.76 190.24 47.3 210.44 35.64 219.14 30.62 226.42 26.41 233.53 22.31 236.07 20.84"/><polygon id="_Caminho_374" data-name="&lt;Caminho&gt;" class="cls-31" points="208.85 39.16 200.22 94.91 181.4 105.73 181 105.97 188.66 50.82 208.85 39.16"/><polygon id="_Caminho_375" data-name="&lt;Caminho&gt;" class="cls-31" points="231.95 25.83 223.25 82.03 208.85 90.34 217.56 34.14 224.84 29.93 231.95 25.83"/><g id="_Grupo_5" data-name="&lt;Grupo&gt;"><path class="cls-13" d="M193.22,90.12V64.43l25.24-14.58v25.7Zm1.69-24.72V87.19l21.86-12.62V52.78Z"/></g><polygon id="_Caminho_376" data-name="&lt;Caminho&gt;" class="cls-32" points="177.97 110.19 234.97 77.28 234.86 74.99 177.97 107.83 177.97 110.19"/><polygon id="_Caminho_377" data-name="&lt;Caminho&gt;" class="cls-33" points="175.6 114.15 175.6 110.59 236.07 75.67 236.07 79.23 175.6 114.15"/><path id="_Caminho_378" data-name="&lt;Caminho&gt;" class="cls-34" d="M210.18,81.31V77.25l-7.41-.63L199.89,82v3.8l.66.33a27.25,27.25,0,0,0-4.91,7.66,43.54,43.54,0,0,0-2.17,10l2.9-1.67s1.93-10.57,4.82-13.54c2.4-2.45,8.47-5.37,11.1-3.69a9.16,9.16,0,0,1,2.93,2.76l3-1.73S214.07,81.29,210.18,81.31Z"/><g id="_Grupo_6" data-name="&lt;Grupo&gt;"><polygon id="_Caminho_379" data-name="&lt;Caminho&gt;" class="cls-35" points="212.87 76.24 207.5 79.35 202.77 76.62 208.14 73.51 212.87 76.24"/><polygon id="_Caminho_380" data-name="&lt;Caminho&gt;" class="cls-36" points="212.87 79.59 207.5 82.69 207.5 79.35 212.87 76.24 212.87 79.59"/><polygon id="_Caminho_381" data-name="&lt;Caminho&gt;" class="cls-37" points="202.77 82.04 204.75 83.18 207.5 82.69 207.5 79.35 202.77 76.62 202.77 82.04"/></g><polygon id="_Caminho_382" data-name="&lt;Caminho&gt;" class="cls-38" points="175.6 114.15 173.27 112.8 173.27 54.41 175.6 55.76 175.6 114.15"/><polygon id="_Caminho_383" data-name="&lt;Caminho&gt;" class="cls-39" points="235.42 78.87 231.78 76.77 231.78 23.49 235.42 25.59 235.42 78.87"/><polygon id="_Caminho_384" data-name="&lt;Caminho&gt;" class="cls-40" points="175.6 55.76 173.27 54.41 233.74 19.5 236.07 20.84 175.6 55.76"/><polygon id="_Caminho_385" data-name="&lt;Caminho&gt;" class="cls-13" points="175.6 59.32 175.6 55.76 236.07 20.84 236.07 24.4 175.6 59.32"/><polygon id="_Caminho_386" data-name="&lt;Caminho&gt;" class="cls-13" points="175.6 114.15 178.69 112.37 178.69 53.98 175.6 55.76 175.6 114.15"/><polygon id="_Caminho_387" data-name="&lt;Caminho&gt;" class="cls-13" points="232.99 81.02 236.07 79.23 236.07 20.84 232.99 22.62 232.99 81.02"/><polygon id="_Caminho_388" data-name="&lt;Caminho&gt;" class="cls-33" points="232.99 72.63 232.99 81.02 236.07 79.23 236.07 70.88 232.99 72.63"/><g id="_Grupo_7" data-name="&lt;Grupo&gt;"><g id="_Grupo_8" data-name="&lt;Grupo&gt;"><path class="cls-41" d="M235.49,105.49l-7.05-5.58L228,101.5a.56.56,0,0,1-.59.42.58.58,0,0,1-.53-.51l-.33-3-4.5-3.57-1,6a.57.57,0,0,1-1.12.06l-2.67-9.82-2.41-1.91.46,12.66a.57.57,0,0,1-1.1.24l-8-19.16a.73.73,0,0,1,1.13-.86l6.51,5.16-.33-9.08a.58.58,0,0,1,.49-.59.56.56,0,0,1,.63.41l3.42,12.59,3.3,2.62L224,77.33a.55.55,0,0,1,.58-.47.55.55,0,0,1,.55.5l2.3,20.57.49.39L233,79.53a.57.57,0,0,1,.61-.42.58.58,0,0,1,.51.54Zm-6.79-6.55,5.76,4.56L233.3,81.89ZM207.38,83.23l7,16.7-.42-11.51Zm20.2,16,0,.26.06-.19ZM218.51,92l1.92,7.06.8-4.9Zm3.72,1.77,4.19,3.32L224.5,80ZM214.84,88l2,1.62-2.3-8.45Z"/></g><g id="_Grupo_9" data-name="&lt;Grupo&gt;"><path class="cls-41" d="M210.67,104.21l-.73-24.4a.6.6,0,0,1,1.18-.21l6.11,18.92.11-.07,1.5-21.33A.61.61,0,0,1,220,77l4.3,16.58,1.73-1.2,2.7-14.85a.61.61,0,0,1,1.2,0l1.35,11.16,9.14-6.36L233.14,102a.62.62,0,0,1-.65.39.6.6,0,0,1-.53-.53l-1.39-11.53-3.67,2.55-1,5.65a.61.61,0,0,1-.57.5.63.63,0,0,1-.62-.46l-.91-3.51L218.23,99l-.1,1.51a.61.61,0,0,1-1.19.15l-.2-.62ZM210.92,82l.62,20.51,4.9-3.41Zm20.51,7.8,1.29,10.74,5.84-15.7ZM217.21,100.4Zm2.41-21.31-1.31,18.68,5.22-3.62Zm5,15.45.64,2.47.61-3.34Zm4.72-14.8-2.17,11.9,3.32-2.31Z"/></g><g id="_Grupo_10" data-name="&lt;Grupo&gt;"><path class="cls-42" d="M236.07,101.78a4.07,4.07,0,0,1-.62.55c1,2.3-.13,4.68-3.08,6.39-4.77,2.75-12.55,2.74-17.35,0-2.86-1.65-4.05-4-3.22-6.21a5.1,5.1,0,0,1-.61-.7c-1.3,2.73,0,5.64,3.42,7.61a20.1,20.1,0,0,0,18.17,0c3.33-1.93,4.63-4.8,3.39-7.5A.48.48,0,0,0,236.07,101.78Z"/><path class="cls-41" d="M212.06,102A7.31,7.31,0,0,1,215,99.19c4.75-2.75,12.51-2.73,17.3,0a7.37,7.37,0,0,1,3.06,3l-.11.08a5.77,5.77,0,0,1,.7.61.82.82,0,0,0,.28-1,8.18,8.18,0,0,0-3.47-3.49c-5-2.91-13.21-2.92-18.22,0a8.21,8.21,0,0,0-3.36,3.3.81.81,0,0,0,.12.88A5,5,0,0,1,212.06,102Z"/><path class="cls-42" d="M223.41,107.28a20.52,20.52,0,0,1-10-2.39c-2.77-1.6-4.29-3.75-4.29-6s1.5-4.4,4.22-6c5.48-3.17,14.42-3.15,19.93,0,2.77,1.6,4.29,3.74,4.29,6s-1.5,4.41-4.23,6A20.2,20.2,0,0,1,223.41,107.28Zm-.17-15.89a19.4,19.4,0,0,0-9.46,2.25c-2.43,1.41-3.78,3.26-3.78,5.2s1.37,3.84,3.84,5.27c5.27,3,13.8,3,19,0,2.44-1.41,3.78-3.26,3.78-5.21s-1.36-3.83-3.84-5.26A19.52,19.52,0,0,0,223.24,91.39Z"/><path class="cls-41" d="M223.45,96.06c-3.15,0-10.51-.18-11-1.9-.13-.47.15-.91.84-1.31h0c5.48-3.16,14.42-3.14,19.94,0,.69.4,1,.84.85,1.31C233.67,95.88,226.5,96.06,223.45,96.06ZM213.4,94c.43.48,3.74,1.17,9.83,1.19s9.54-.66,10-1.15a1.27,1.27,0,0,0-.39-.3c-5.26-3-13.8-3-19,0A1.47,1.47,0,0,0,213.4,94Z"/><path class="cls-42" d="M236.86,91.59a4.76,4.76,0,0,1,.5,3.42,7.74,7.74,0,0,1-4,4.56c-5.69,3.29-15,3.27-20.71,0-3.58-2.06-5-5-3.7-7.79a2.13,2.13,0,0,1,.49-.16,5.18,5.18,0,0,1-.57-.84c-.61.18-.7.36-.77.51-1.59,3.27,0,6.77,4.06,9.13a24,24,0,0,0,21.68,0c2.42-1.4,4-3.19,4.44-5.18a5.73,5.73,0,0,0-.72-4.39A5.59,5.59,0,0,1,236.86,91.59Z"/><path class="cls-41" d="M208.51,92.44l.12.07a5.93,5.93,0,0,1,.88-.51,1.08,1.08,0,0,1-.54-.33l-.41-.21.41.2a8.82,8.82,0,0,1,3.62-3.54c5.7-3.29,15-3.27,20.73,0a9.88,9.88,0,0,1,3.14,2.71,4.84,4.84,0,0,1,1.12.3,1,1,0,0,0-.14-.51,10.46,10.46,0,0,0-3.65-3.3c-6-3.46-15.71-3.48-21.66,0a9.66,9.66,0,0,0-4,3.94A.91.91,0,0,0,208.51,92.44Z"/><path class="cls-42" d="M238.28,89.46c-.24,2.08-1.77,4-4.4,5.54-6.15,3.55-16.19,3.53-22.38,0-2.41-1.39-3.93-3.16-4.38-5a4.83,4.83,0,0,1-1-1.28.84.84,0,0,0-.21.64c.21,2.51,2,4.85,5,6.6a25.93,25.93,0,0,0,23.44,0c3.32-1.91,5.08-4.5,5-7.28h0a.83.83,0,0,0-.2-.46A4.83,4.83,0,0,1,238.28,89.46Z"/><path class="cls-41" d="M206.93,89.12h0c-.17-2.42,1.46-4.79,4.47-6.53,6.17-3.57,16.24-3.55,22.45,0,2.82,1.62,4.43,3.75,4.55,6l-.08.06a4.4,4.4,0,0,1,.92.36.62.62,0,0,0,.08-.4c-.11-2.59-1.89-5-5-6.81-6.46-3.73-17-3.75-23.37,0-3.36,1.94-5.16,4.66-4.92,7.47a.72.72,0,0,0,.16.43A3.87,3.87,0,0,1,206.93,89.12Z"/></g><g id="_Grupo_11" data-name="&lt;Grupo&gt;"><rect class="cls-42" x="212.01" y="91.33" width="0.92" height="23.87" transform="translate(-23.45 90.99) rotate(-22.94)"/></g><g id="_Grupo_12" data-name="&lt;Grupo&gt;"><rect class="cls-42" x="204.97" y="102.73" width="16.56" height="0.92" transform="translate(69.51 291.51) rotate(-78.47)"/></g><g id="_Grupo_13" data-name="&lt;Grupo&gt;"><rect class="cls-42" x="219.21" y="94.86" width="0.92" height="20.18" transform="translate(-20.48 64.99) rotate(-16.09)"/></g><g id="_Grupo_14" data-name="&lt;Grupo&gt;"><rect class="cls-42" x="211.25" y="104.45" width="19.8" height="0.92" transform="translate(33.1 261.59) rotate(-65.18)"/></g><g id="_Grupo_15" data-name="&lt;Grupo&gt;"><rect class="cls-42" x="226.69" y="96.08" width="0.92" height="18.13" transform="translate(-14.52 39.98) rotate(-9.75)"/></g><g id="_Grupo_16" data-name="&lt;Grupo&gt;"><rect class="cls-42" x="216.1" y="103.82" width="23.25" height="0.92" transform="translate(31.68 260.16) rotate(-63.09)"/></g><g id="_Grupo_17" data-name="&lt;Grupo&gt;"><rect class="cls-42" x="220.93" y="102.26" width="23.73" height="0.92" transform="translate(55.92 285.64) rotate(-69.77)"/></g><g id="_Grupo_18" data-name="&lt;Grupo&gt;"><rect class="cls-42" x="226.85" y="100.43" width="17.74" height="0.92" transform="translate(109.24 323.93) rotate(-83.62)"/></g></g><g id="_Grupo_19" data-name="&lt;Grupo&gt;"><g id="_Grupo_20" data-name="&lt;Grupo&gt;"><path class="cls-43" d="M222.76,97.09A26.42,26.42,0,0,1,209.81,94c-3.71-2.14-5.75-5-5.75-8.21s2-6,5.67-8.13c7.08-4.09,18.64-4.07,25.77,0,3.71,2.14,5.75,5.06,5.75,8.22s-2,6-5.67,8.13A26.3,26.3,0,0,1,222.76,97.09Zm-.22-20A23.56,23.56,0,0,0,211,79.85c-2.84,1.64-4.4,3.74-4.4,5.93s1.59,4.35,4.48,6c6.42,3.71,16.84,3.73,23.23,0,2.83-1.64,4.4-3.75,4.4-5.93s-1.59-4.35-4.48-6A23.94,23.94,0,0,0,222.54,77.1Z"/></g><g id="_Grupo_21" data-name="&lt;Grupo&gt;"><path class="cls-44" d="M222.76,95.64a25.78,25.78,0,0,1-12.6-3c-3.48-2-5.4-4.71-5.4-7.6s1.89-5.54,5.32-7.52c6.89-4,18.14-4,25.07,0,3.48,2,5.39,4.71,5.39,7.6s-1.89,5.55-5.32,7.53h0A25.48,25.48,0,0,1,222.76,95.64Zm-.22-20a24.31,24.31,0,0,0-11.89,2.84c-3.07,1.77-4.76,4.09-4.76,6.54s1.72,4.83,4.83,6.62c6.62,3.83,17.36,3.85,23.94,0h0c3.07-1.77,4.75-4.1,4.75-6.55s-1.71-4.82-4.83-6.62A24.59,24.59,0,0,0,222.54,75.64Z"/></g></g><polygon id="_Caminho_389" data-name="&lt;Caminho&gt;" class="cls-33" points="178.69 103.92 175.6 105.76 173.27 104.65 173.27 112.8 175.6 114.15 178.69 112.37 178.69 103.92"/><polygon id="_Caminho_390" data-name="&lt;Caminho&gt;" class="cls-45" points="175.6 105.76 175.6 114.15 173.27 112.8 173.27 104.65 175.6 105.76"/></g><path class="cls-34" d="M218.11,65.48c-1,4-4.44,7.26-7.76,7.26s-5.23-3.25-4.26-7.26,4.44-7.26,7.76-7.26S219.08,61.47,218.11,65.48Z"/><g id="_Grupo_22" data-name="&lt;Grupo&gt;"><path id="_Caminho_391" data-name="&lt;Caminho&gt;" class="cls-46" d="M217.56,61.51a9.59,9.59,0,1,0,9.59-9.59A9.59,9.59,0,0,0,217.56,61.51Z"/><path id="_Caminho_392" data-name="&lt;Caminho&gt;" class="cls-47" d="M224.83,53.12a9.31,9.31,0,0,0,0,5.34c1.59-1.57,2.12-3.62,1.16-4.71A1.94,1.94,0,0,0,224.83,53.12Z"/><path id="_Caminho_393" data-name="&lt;Caminho&gt;" class="cls-47" d="M219.39,59.51c.94,1.07,3,.84,4.71-.46a11.07,11.07,0,0,1-.12-6,5.56,5.56,0,0,0-3.14,1.45C219,56.12,218.37,58.35,219.39,59.51Z"/><path id="_Caminho_394" data-name="&lt;Caminho&gt;" class="cls-48" d="M219.9,57.42c.47.53,1.73.2,2.81-.75s1.58-2.15,1.11-2.69-1.73-.2-2.81.75S219.43,56.88,219.9,57.42Z"/><path id="_Caminho_395" data-name="&lt;Caminho&gt;" class="cls-49" d="M224.1,59.05l.4-.33.29-.26a9.31,9.31,0,0,1,0-5.34,3,3,0,0,0-.85,0A11.07,11.07,0,0,0,224.1,59.05Z"/><path id="_Caminho_396" data-name="&lt;Caminho&gt;" class="cls-50" d="M225.65,52a9.72,9.72,0,0,0-1.32.3,4.32,4.32,0,0,0-.22.43,2.88,2.88,0,0,0-.13.31,3,3,0,0,1,.85,0v0A2.69,2.69,0,0,1,225.65,52Z"/><path id="_Caminho_397" data-name="&lt;Caminho&gt;" class="cls-50" d="M224,65a13.53,13.53,0,0,1-5.58.51c.14.3.3.59.46.87a8.5,8.5,0,0,0,1,0,16.36,16.36,0,0,0,4.48-.7,2.05,2.05,0,0,1-.14,2.22,4.24,4.24,0,0,1-3.08,1,9.09,9.09,0,0,0,1,.71,4.11,4.11,0,0,0,2.65-1.23,2.75,2.75,0,0,0,.3-3c.43-.14.87-.3,1.31-.47,1.12,2.1,2.48,4.22,4.58,5.19a8.67,8.67,0,0,0,1-.49c-2.22-.7-3.62-2.81-4.79-5l.73-.33c.51-.23,1-.49,1.5-.75a5.85,5.85,0,0,0,4.67,1.79c.23,0,.47,0,.71,0a10.56,10.56,0,0,0,1.1-.12q.18-.42.33-.87a13.33,13.33,0,0,1-1.48.19c-2.07.13-3.69-.35-4.61-1.38a18.23,18.23,0,0,0,4.38-3.49A8.43,8.43,0,0,0,236,57.72a9.1,9.1,0,0,0-.49-1,6.62,6.62,0,0,1-1.5,2.53,17.51,17.51,0,0,1-4.24,3.36c-.6-1.24.17-2.74,1.13-4.61a22.45,22.45,0,0,0,1.84-4.32,7.66,7.66,0,0,0-.7-.46,21.57,21.57,0,0,1-1.85,4.42c-1,2-1.94,3.76-1.12,5.37-.46.24-.92.47-1.4.7-.26.12-.51.23-.77.33l-.34-.66a21.8,21.8,0,0,1-1.73-4.93l-.29.26-.4.33a22,22,0,0,0,1.71,4.7l.31.61c-.44.16-.86.31-1.29.44-1-1.71-2.68-2.09-4.31-2.46a8,8,0,0,1-3-1.09v.26c0,.24,0,.47,0,.7a10.33,10.33,0,0,0,2.75.91C221.86,63.47,223.2,63.77,224,65Z"/><path id="_Caminho_398" data-name="&lt;Caminho&gt;" class="cls-51" d="M218.14,64.8a9.66,9.66,0,0,0,3.5,4.56,9.52,9.52,0,0,0,4.91,1.72l.6,0a9.59,9.59,0,0,0,9.52-8.4c0-.12,0-.25,0-.37s0-.54,0-.82v-.08c0-.11,0-.21,0-.32a8.87,8.87,0,0,0-.26-1.87,9.53,9.53,0,0,0-2.3-4.26,8.6,8.6,0,0,1,.31,1,8.87,8.87,0,0,1,.26,1.87c0,.1,0,.21,0,.32v.08c0,.27,0,.55,0,.82,0,.12,0,.25,0,.37a9.58,9.58,0,0,1-5.6,7.56,9.5,9.5,0,0,1-3.92.84l-.6,0a9.52,9.52,0,0,1-4.91-1.72A10,10,0,0,1,218.14,64.8Z"/><path id="_Caminho_399" data-name="&lt;Caminho&gt;" class="cls-52" d="M217.76,63.46a1.16,1.16,0,0,0,0,.18,9.1,9.1,0,0,0,.34,1.16,10,10,0,0,0,1.51,1.32,9.52,9.52,0,0,0,4.91,1.72l.6,0a9.5,9.5,0,0,0,3.92-.84,9.58,9.58,0,0,0,5.6-7.56c0-.12,0-.25,0-.37,0-.27,0-.55,0-.82v-.08c0-.11,0-.22,0-.32a8.87,8.87,0,0,0-.26-1.87,8.6,8.6,0,0,0-.31-1l-.37-.39-.33-.29h0A9.88,9.88,0,0,0,231.66,53l-.14-.07a9.8,9.8,0,0,1,.19,1.55c0,.11,0,.21,0,.32v.08a7.5,7.5,0,0,1,0,.82c0,.12,0,.25,0,.37a8.75,8.75,0,0,1-.35,1.63A9.6,9.6,0,0,1,226,63.67a9.46,9.46,0,0,1-3.91.84l-.6,0A9.57,9.57,0,0,1,217.76,63.46Z"/><g id="_Grupo_23" data-name="&lt;Grupo&gt;"><path id="_Caminho_400" data-name="&lt;Caminho&gt;" class="cls-53" d="M229.53,61.45c-.1-1.09.56-2.36,1.33-3.86a23.78,23.78,0,0,0,1.74-4l.1.08A22.45,22.45,0,0,1,230.86,58,10,10,0,0,0,229.53,61.45Z"/><path id="_Caminho_401" data-name="&lt;Caminho&gt;" class="cls-53" d="M230.19,63.28c-.1-.08.08-.33,0-.42a18.5,18.5,0,0,0,4.38-3.5,9.15,9.15,0,0,0,1.3-1.86l.09.22a8.43,8.43,0,0,1-1.39,2.07A18.47,18.47,0,0,1,230.19,63.28Z"/><path id="_Caminho_402" data-name="&lt;Caminho&gt;" class="cls-53" d="M226.12,63.93a3.08,3.08,0,0,1,0,.43l-.31-.61a22,22,0,0,1-1.71-4.7,15.38,15.38,0,0,1-.48-3.79,16.6,16.6,0,0,0,.48,3.36,22.12,22.12,0,0,0,1.71,4.71C225.91,63.53,226,63.73,226.12,63.93Z"/><path id="_Caminho_403" data-name="&lt;Caminho&gt;" class="cls-53" d="M219.05,66c.28,0,.58,0,.88,0a16.75,16.75,0,0,0,4.48-.7,2.83,2.83,0,0,1,.24,1.33,3.52,3.52,0,0,0-.24-.91,16.36,16.36,0,0,1-4.48.7,8.5,8.5,0,0,1-1,0c-.08-.13-.15-.26-.22-.4Z"/><path id="_Caminho_404" data-name="&lt;Caminho&gt;" class="cls-53" d="M227.24,64.34,228,64c.51-.24,1-.49,1.5-.76a5.85,5.85,0,0,0,4.67,1.8l.71,0c.36,0,.71-.07,1.08-.12h.19c-.06.15-.11.29-.17.43a10.56,10.56,0,0,1-1.1.12c-.24,0-.48,0-.71,0a5.85,5.85,0,0,1-4.67-1.79c-.48.26-1,.52-1.5.75l-.73.33C227.17,64.65,227.22,64.51,227.24,64.34Z"/><path id="_Caminho_405" data-name="&lt;Caminho&gt;" class="cls-53" d="M217.59,61.79a10.33,10.33,0,0,0,2.75.91c1.52.34,2.86.64,3.69,1.91.07.25.09.41,0,.43-.84-1.24-2.32-1.61-3.69-1.92a10.33,10.33,0,0,1-2.75-.91c0-.23,0-.46,0-.7v-.24C217.57,61.44,217.57,61.62,217.59,61.79Z"/><path id="_Caminho_406" data-name="&lt;Caminho&gt;" class="cls-53" d="M222.25,69.32h0a4.09,4.09,0,0,0,2.61-1.22,2.38,2.38,0,0,0,.57-1.41,2.41,2.41,0,0,1-.57,1.83,4.11,4.11,0,0,1-2.65,1.23,5.54,5.54,0,0,1-.51-.33A4.51,4.51,0,0,1,222.25,69.32Z"/><path id="_Caminho_407" data-name="&lt;Caminho&gt;" class="cls-53" d="M226.49,64.65c1.12,2.09,2.48,4.21,4.58,5.19h0a2.16,2.16,0,0,0,.33.27l-.35.16c-2.1-1-3.46-3.09-4.58-5.19-.4.16-.76.29-1.31.47a1.53,1.53,0,0,1,0-.43C225.61,65,226.05,64.82,226.49,64.65Z"/></g></g></g></g></svg>