<svg xmlns="http://www.w3.org/2000/svg" xmlns:xlink="http://www.w3.org/1999/xlink" viewBox="0 0 500 500"><defs><style>.cls-1{fill:#393e5c;}.cls-2{fill:url(#Gradiente_sem_nome_9);}.cls-3{fill:#130c2e;}.cls-3,.cls-43{opacity:0.2;}.cls-4{fill:#e6af1e;}.cls-5{fill:#ffc221;}.cls-6{fill:#33231b;}.cls-11,.cls-21,.cls-6{opacity:0.1;}.cls-7{fill:#2a113c;}.cls-8{fill:#1f0d2e;}.cls-11,.cls-27,.cls-43,.cls-9{fill:#fff;}.cls-10,.cls-9{opacity:0.05;}.cls-10{fill:#52392b;}.cls-12{fill:#f5a857;}.cls-13{fill:#ccd1be;}.cls-14{fill:#eef5de;}.cls-15,.cls-44,.cls-46{fill:#fffffa;}.cls-16{fill:#171d45;}.cls-17{fill:#121736;}.cls-18{fill:#df3a24;}.cls-19{fill:#cc3621;}.cls-20{fill:#ef592b;}.cls-21{fill:#2b0b07;}.cls-22{fill:#b32f1d;}.cls-23{fill:#f58b4e;}.cls-24{fill:#f5935a;}.cls-25{fill:#592922;}.cls-26{fill:#6d3229;}.cls-28{fill:#ffaa0e;}.cls-29{fill:#ffb225;}.cls-30{fill:#f7a40e;}.cls-31{fill:#ce6413;}.cls-32{fill:#f5932b;}.cls-33{fill:#f59d3f;}.cls-34{fill:#0f132b;}.cls-35{fill:#382b34;}.cls-36{fill:#fc705d;}.cls-37{fill:#fc513a;}.cls-38{fill:#e64a34;}.cls-39{fill:#4d180e;}.cls-40{fill:#bf8400;}.cls-41{fill:#e49e00;}.cls-42{fill:#a52e1c;}.cls-44{font-size:55px;}.cls-44,.cls-46{font-family:Montserrat-Black, Montserrat Black;}.cls-45{fill:#eba522;}.cls-46{font-size:35px;}.cls-47{fill:#28347a;}.cls-48{fill:#2c22b8;}.cls-49{fill:#4c42d4;}</style><radialGradient id="Gradiente_sem_nome_9" cx="250" cy="199.55" r="226.38" gradientTransform="translate(0 0.11) scale(1 1.25)" gradientUnits="userSpaceOnUse"><stop offset="0" stop-color="#fff"/><stop offset="0.12" stop-color="#fbf7f1"/><stop offset="0.34" stop-color="#f0e0cd"/><stop offset="0.65" stop-color="#debc92"/><stop offset="1" stop-color="#c78d46"/></radialGradient></defs><title>Situação3MM4</title><g id="BACKGROUND"><rect class="cls-1" width="500" height="500"/></g><g id="OBJECTS"><rect class="cls-2" y="-0.45" width="500" height="500"/><ellipse class="cls-3" cx="250" cy="460.75" rx="196.94" ry="12.59"/><path class="cls-4" d="M223.93,86.6a55.41,55.41,0,0,1-12.52-2.06c-4-1.17-7.57-3-9.1-7.15-1.31-3.57-1.51-8.59,2.37-10.64a4.23,4.23,0,0,1,5.26.72A4.37,4.37,0,0,1,211,69.4a2.8,2.8,0,0,1,0,.79,2.72,2.72,0,0,0-4.4,2.6c.64,3,4.38,3.07,6.13,1.08,4.57-5.17-2.4-12.14-8-10.3-7.57,2.47-7.38,12.55-3.44,18.05,2.28,3.2,5.89,4.73,9.55,5.79a58.84,58.84,0,0,0,13.31,2.12C226,89.63,225.81,86.69,223.93,86.6Z"/><path class="cls-4" d="M244.17,88.52a59.3,59.3,0,0,0,13-3.46c3.54-1.42,7-3.31,8.93-6.72,3.36-5.87,2.52-15.92-5.25-17.61-5.8-1.26-12,6.37-7,11.06,1.95,1.8,5.66,1.31,6-1.69A2.72,2.72,0,0,0,255.26,68a3.09,3.09,0,0,1-.12-.78,4.65,4.65,0,0,1,.86-2,4.23,4.23,0,0,1,5.16-1.25c4.07,1.65,4.39,6.66,3.44,10.35-1.1,4.28-4.44,6.46-8.33,8A55.36,55.36,0,0,1,244,85.58C242.16,85.86,242.3,88.8,244.17,88.52Z"/><path class="cls-5" d="M240.26,112.73l-9.66.24c1.3-2.83,1.83-6.8,2-10.65a86.11,86.11,0,0,0-.49-12.54l3.93-.09c-.19,2.62.7,7.74,1.7,12.5C238.92,107.71,240.26,112.73,240.26,112.73Z"/><path class="cls-6" d="M237.74,102.19c-1.45,1-3.08,1-5.14.13a86.11,86.11,0,0,0-.49-12.54l3.93-.09C235.85,92.31,236.74,97.43,237.74,102.19Z"/><polygon class="cls-4" points="222.47 114.59 224.1 111.81 247.98 110.16 249.39 113.13 222.47 114.59"/><path class="cls-5" d="M255.5,57.55s-.28,1.54-.84,4c-2.21,9.92-8.81,34.86-19.47,35.44a7.53,7.53,0,0,1-.95,0c-12.4-.44-19.2-22.86-21.69-33.26-.75-3.15-1.11-5.2-1.11-5.2l3.4-.08,7.32-.16,3.82-.09,2.81-.06,21.9-.49Z"/><polygon class="cls-7" points="216.5 114.89 257.38 112.83 257.07 134.82 218.72 136.76 216.5 114.89"/><polygon class="cls-8" points="222.87 119.73 224.37 131.2 252.15 129.79 253.23 118.19 222.87 119.73"/><polygon class="cls-9" points="238.16 113.8 235.02 136.23 218.72 136.76 216.5 114.89 238.16 113.8"/><polygon class="cls-9" points="243.9 113.51 240.84 135.64 248.53 135.25 251.3 113.13 243.9 113.51"/><path class="cls-10" d="M255.5,57.55s-.28,1.54-.83,4c-8.64,2.42-24,3.29-42.12,2.18-.75-3.15-1.11-5.2-1.11-5.2l10.72-.24,6.62-.15,21.91-.49Z"/><path class="cls-11" d="M235,94.52c-3.32-.1-16.24-10.36-20.14-36.06l7.32-.16,3.82-.09C226.25,72.52,231.15,92.34,235,94.52Z"/><path class="cls-4" d="M255,54.89q-21.89,0-43.74,1c-3.15.14-2.9,5,.25,4.89q21.86-1,43.73-1C258.43,59.77,258.17,54.88,255,54.89Z"/><path class="cls-12" d="M276.31,354.06l2.28,26.12a9.82,9.82,0,0,1-11.36.55l-1.7-26.15Z"/><path class="cls-13" d="M266.84,380a65.13,65.13,0,0,0-3.58,13.35,30.38,30.38,0,0,0,9.93,2.2,17.24,17.24,0,0,0,9.57-2.63q-1.59-6.17-2.71-12.43C276,380.3,270.87,380.08,266.84,380Z"/><path class="cls-14" d="M269.11,378.48c-2.74,0-3.29.47-2.57,3.18a17.38,17.38,0,0,0,3.58,6.86c2.83,3.32,5.28,0,7.26-2.45,1.23-1.5,4.22-5.18,2-7a7.59,7.59,0,0,0-3.72-1.07C273.44,377.92,271.29,378.47,269.11,378.48Z"/><path class="cls-15" d="M262.5,398.58a11.58,11.58,0,0,1,6.5-11.36,9.79,9.79,0,0,1,3.56-.9c7.85-.38,12.85,8.36,12.52,11.88C277.55,399.89,270.16,399.55,262.5,398.58Z"/><path class="cls-12" d="M224.61,354.53l-1,26.2a9.83,9.83,0,0,0,11.38,0l.43-26.2Z"/><path class="cls-16" d="M280.58,375c-4.92,2.76-16.81,1.21-16.81,1.21L253,289.85c-4.9,1.53-11.06.14-11.06.14l-3.72,86.45c-8.08,1.77-17.91-.35-17.91-.35l-1.75-84.46-.17-8.24L217,260h13.52l30.22,0h11.78l.64,20.3,1,12.39Z"/><path class="cls-17" d="M230.55,260c-.66,6.68-1.65,13.32-4,19.4a30.54,30.54,0,0,1-8.06,12.19l-.17-8.24L217,260Z"/><path class="cls-17" d="M274.16,292.69c-4.18-3-7.39-7.95-9.41-13.25-2.31-6.09-3.31-12.74-4-19.44h11.78l.64,20.3Z"/><path class="cls-3" d="M273.19,280.3a70.59,70.59,0,0,1-25.14,5.88,112.06,112.06,0,0,1-29.69-2.79L217,260l55.52,0Z"/><path class="cls-17" d="M260.92,285.84c-1.92.33-3.75,1.72-5.63,2.33a27.24,27.24,0,0,1-6.44,1.28,28.41,28.41,0,0,1-6.25-.24c-2.15-.33-4.14-1.12-6.25-1.58a.54.54,0,0,0-.41,1,14.41,14.41,0,0,0,4.43,1.82c-.37.29-.71.62-1,.9a19.93,19.93,0,0,0-2.25,2.43.75.75,0,1,0,1.18.91,19.15,19.15,0,0,1,2.06-2.35,18.71,18.71,0,0,0,1.66-1.56,30.62,30.62,0,0,0,7.17.25,29.93,29.93,0,0,0,3.89-.59c1.6,1.4,4.12,2.18,6,2.83.87.29,1.23-1.07.37-1.37a37.26,37.26,0,0,1-3.54-1.41l-1.05-.51c.28-.08.56-.15.83-.24,1.86-.6,4.52-1.36,5.77-2.92A.58.58,0,0,0,260.92,285.84Z"/><path class="cls-13" d="M235.32,379.94a64.73,64.73,0,0,1,4.22,13.16,30.59,30.59,0,0,1-9.81,2.68,17.27,17.27,0,0,1-9.69-2.17q1.29-6.24,2.11-12.55C226.17,380.73,231.3,380.26,235.32,379.94Z"/><path class="cls-14" d="M233,378.57c2.74-.12,3.31.32,2.73,3.06a17.61,17.61,0,0,1-3.25,7c-2.67,3.44-5.28.21-7.37-2.1-1.31-1.44-4.46-5-2.3-6.92a7.65,7.65,0,0,1,3.67-1.24C228.63,378.23,230.8,378.67,233,378.57Z"/><path class="cls-15" d="M240.56,398.33a11.59,11.59,0,0,0-7-11,9.71,9.71,0,0,0-3.6-.72c-7.87,0-12.43,9-11.93,12.46C225.59,400.37,233,399.68,240.56,398.33Z"/><path class="cls-18" d="M273,273.77a6.57,6.57,0,0,1-2.53,2.54c-.13.07-.25.14-.39.2a51.13,51.13,0,0,1-7,2.62c-1,.31-2,.58-3,.82a57,57,0,0,1-7.35,1.3c-1,.12-2,.22-3,.28a69.87,69.87,0,0,1-8.42.07q-1.54-.08-3-.21c-2.64-.23-5.15-.59-7.48-1-1.05-.19-2.06-.39-3-.61-2.45-.52-4.64-1.1-6.49-1.66-.54-.16-1.05-.31-1.53-.47a5.31,5.31,0,0,1-1.44-.69,7.43,7.43,0,0,1-3-7.19l1.33-9.45,2.58-.15,3-.17,5.83-.33,3-.18,7.09-.39,3-.17,8.42-.49,3-.17,5.88-.34,3-.17,4.53-.26,3.09-.17,3-.17,1.7,11.65A7.71,7.71,0,0,1,273,273.77Z"/><path class="cls-19" d="M222.25,260c-.32,6-.66,12.08-1,18.12-.54-.16-1.05-.31-1.53-.47a5.31,5.31,0,0,1-1.44-.69q.45-8.38.91-16.79Z"/><path class="cls-19" d="M231.1,259.48q-.16,10.45-.32,20.9c-1.05-.19-2.06-.39-3-.61q.17-10,.32-20.11Z"/><path class="cls-19" d="M241.29,281.6q-1.54-.08-3-.21,0-11.14-.07-22.3l3-.17Q241.24,270.25,241.29,281.6Z"/><path class="cls-19" d="M252.74,281.25c-1,.12-2,.22-3,.28q0-11.55-.07-23.1l3-.17Q252.7,269.75,252.74,281.25Z"/><path class="cls-19" d="M263.07,279.13c-1,.31-2,.58-3,.82q-.76-11-1.54-22l3-.17Z"/><path class="cls-19" d="M273,273.77a6.57,6.57,0,0,1-2.53,2.54q-2.16-9.4-4.34-18.82l3.09-.17Q271.08,265.54,273,273.77Z"/><path class="cls-20" d="M272.82,269.92c-17.85,7-37.11,8.19-54.9,1.23a5.72,5.72,0,0,1-3.43-5.43c.06-5.94.26-10.43.56-14.28.77-10.15,2.2-15.77,3.4-31.13.93-11.89,12.85-20.36,23.81-20.29s23.66,6.28,25.3,18.08c2,14.18,3.32,19.77,5.17,28.19,1,4.39,2.07,9.54,3.47,17.07A5.86,5.86,0,0,1,272.82,269.92Z"/><path class="cls-21" d="M272.82,269.92c-17.85,7-37.11,8.19-54.9,1.23a5.72,5.72,0,0,1-3.43-5.43c.06-5.94.26-10.43.56-14.28a46.59,46.59,0,0,0,31.61,6.29,58.28,58.28,0,0,0,26.07-11.44c1,4.39,2.07,9.54,3.47,17.07A5.86,5.86,0,0,1,272.82,269.92Z"/><path class="cls-18" d="M229.85,200.38a8,8,0,0,0-2,2.94,8.45,8.45,0,0,0,.52,6.3,11.21,11.21,0,0,0,3.83,4.27,15.39,15.39,0,0,0,16.76.78,12.71,12.71,0,0,0,5.53-6.15c1.14-2.84,1.09-6.63-.58-9-1.42-2-3.66-2.65-5.76-2.95C242.15,195.73,235,195.26,229.85,200.38Z"/><path class="cls-22" d="M254.07,201.87c0,.74-2.13,3-3.31,4-2.14,1.83-4.82,2.62-9.39,2.88a16.89,16.89,0,0,1-9.19-2.3c-3-1.6-3.28-2.61-3.28-2.61s1.5-5,12.59-5.85C253.21,197.13,254.07,201.87,254.07,201.87Z"/><path class="cls-12" d="M216.37,180.36a26.18,26.18,0,0,1-5.44-.58,6.58,6.58,0,0,1-2.66-1.05,4.24,4.24,0,0,1-1.16-5,5.22,5.22,0,0,1,4.35-2.94,6.9,6.9,0,0,1,5,1.82C216.51,174.93,216.37,178.07,216.37,180.36Z"/><path class="cls-23" d="M215.64,173.84c-.7-.18-1.4-.23-2.12-.35a4.65,4.65,0,0,0-2.34.15,1.57,1.57,0,0,0-1.05,2.06,3.19,3.19,0,0,0,2,1.59,8.65,8.65,0,0,0,2.72.43,2.32,2.32,0,0,0,2.08-1.71A1.94,1.94,0,0,0,215.64,173.84Z"/><path class="cls-12" d="M264.61,179a26.09,26.09,0,0,0,5.43-.58,6.56,6.56,0,0,0,2.67-1.05,4.24,4.24,0,0,0,1.16-5,5.24,5.24,0,0,0-4.35-2.94,6.9,6.9,0,0,0-5,1.82C264.47,173.61,264.61,176.75,264.61,179Z"/><path class="cls-23" d="M264.8,172.54a21.31,21.31,0,0,1,2.12-.36,4.51,4.51,0,0,1,2.33.16,1.57,1.57,0,0,1,1.06,2,3.19,3.19,0,0,1-2,1.59,8.54,8.54,0,0,1-2.71.43,2.3,2.3,0,0,1-2.08-1.71A1.92,1.92,0,0,1,264.8,172.54Z"/><path class="cls-12" d="M250.76,205.91c-2.15,1.83-4.82,2.63-9.4,2.88a15.76,15.76,0,0,1-9.18-2.3c.13-1,.25-2.08.37-3.13s.24-2.21.35-3.32c.28-2.64.51-5.28.71-7.92,4.46.8,9.34,0,13.78-.9.7,2.35,1.41,5,2,7.64.24,1,.46,2,.65,3C250.34,203.26,250.58,204.61,250.76,205.91Z"/><path class="cls-24" d="M250.06,201.88a19.66,19.66,0,0,1-5.46,2.17,21,21,0,0,1-12-.69c.12-1.1.24-2.21.35-3.32.28-2.64.51-5.28.71-7.92,4.46.8,9.34,0,13.78-.9.7,2.35,1.41,5,2,7.64C249.65,199.87,249.87,200.88,250.06,201.88Z"/><path class="cls-12" d="M220.27,194.19a19.41,19.41,0,0,0,10.67,4.74,58.78,58.78,0,0,0,27-2.37,10.34,10.34,0,0,0,4.87-2.79c1.38-1.63,1.73-3.89,2-6a153.63,153.63,0,0,0,.74-25.82c-1-17.9-27.46-12.72-39.12-10.71-13.33,2.3-12.29,12.27-11.51,23.79.27,4.14.17,8.49,1.36,12.51A14.65,14.65,0,0,0,220.27,194.19Z"/><path class="cls-25" d="M220.47,158.53A144.12,144.12,0,0,1,218.9,175c-.17,1-.57,2.34-1.63,2.49a2.31,2.31,0,0,1-1.9-1c-3-3.51-3.34-8.46-3.35-13,0-3.42.12-6.83.38-10.24A36.28,36.28,0,0,0,220.47,158.53Z"/><path class="cls-25" d="M260.6,158.53A141.88,141.88,0,0,0,262.16,175c.17,1,.57,2.34,1.63,2.49a2.31,2.31,0,0,0,1.9-1c2.95-3.51,3.34-8.46,3.35-13,0-3.42-.12-6.83-.38-10.24A36.45,36.45,0,0,1,260.6,158.53Z"/><path class="cls-26" d="M212.55,153.65c6.53,9.28,31.06,9.16,40.31,7.79a32.64,32.64,0,0,0,9.65-2.72c8.51-4.22,12-13.12,14.8-21.25-14.64.39-29.34.11-44,.5-5.57.15-11.37.35-16.27,2.66-3.85,1.82-6.6,5.35-6,9.24A8.68,8.68,0,0,0,212.55,153.65Z"/><path class="cls-26" d="M246.24,157.66c1.35,3.67,5.39,5.43,10.11,6.3-3.39.71-6.83,1.42-10.26.8a12.59,12.59,0,0,1-8.93-6.69C241.16,158.24,242.25,157.86,246.24,157.66Z"/><path class="cls-27" d="M234.91,186l11.33-.55s.27,8.29-5.67,8.56S234.91,186,234.91,186Z"/><path class="cls-25" d="M236.27,167.91c-.3-.59-1.3-.79-2.31-.71a15.54,15.54,0,0,0-3.92.62c-1,.41-1.06,1.4.37,1.58a18.75,18.75,0,0,0,4.55-.24C235.94,169,236.53,168.43,236.27,167.91Z"/><path class="cls-25" d="M246.79,166.94c.22-.6,1.19-.84,2.2-.8a16.54,16.54,0,0,1,4,.48c1.09.36,1.23,1.35-.17,1.59a18.91,18.91,0,0,1-4.57-.07C247.26,168,246.59,167.47,246.79,166.94Z"/><path class="cls-8" d="M234.36,174.12h-.14a1.62,1.62,0,0,0,0,3.23h.14a1.62,1.62,0,0,0,0-3.23Z"/><path class="cls-8" d="M249.15,174.12H249a1.62,1.62,0,0,0,0,3.23h.14a1.62,1.62,0,0,0,0-3.23Z"/><path class="cls-12" d="M224,136c-1.69-.69-3.44-1.1-5.18-1.62.34-1.9,3.34-5.19.25-6-2-.51-3.56,2.07-4.1,3.58-.67,1.86-2.39,5.25,2.89,6.37a85.09,85.09,0,0,1-5.28,7.59,35.86,35.86,0,0,0,6.12,3.17C219.73,147.87,226.64,137.05,224,136Z"/><path class="cls-27" d="M220.14,148.21s-.08.06,0,.08.1,0,.13-.07c1-1.28,2-2.81,3-4.08a14.79,14.79,0,0,0-8.09-3.84,35.86,35.86,0,0,0-3,4.38C214,147,217.22,148.1,220.14,148.21Z"/><path class="cls-20" d="M227.19,206.77c-6-2.67-18.78-10.7-22.93-15.68-5.72-6.88,15.43-41.52,17.45-43.81a17.81,17.81,0,0,0-9.14-4.78c-8.32,12-16.18,23.26-21,36.08-1.12,3-2.21,6-1.95,9.21a19.06,19.06,0,0,0,2.47,7.19,62.33,62.33,0,0,0,30.84,28.16C225.66,218.61,226.47,212,227.19,206.77Z"/><path class="cls-12" d="M251.72,135.17a52,52,0,0,1,4.93-2.26c-.57-1.84-4-4.73-1-5.9,1.94-.75,3.79,1.62,4.51,3,.9,1.76,3,4.91-2.07,6.68a83.8,83.8,0,0,0,6.19,6.87,36.22,36.22,0,0,1-5.67,3.92C257.44,146.45,249.23,136.58,251.72,135.17Z"/><path class="cls-27" d="M257.07,146.85s.09,0,0,.07-.1,0-.14-.06c-1.13-1.14-2.35-2.53-3.48-3.67a14.79,14.79,0,0,1,7.56-4.82,36.68,36.68,0,0,1,3.49,4C263,144.83,260,146.37,257.07,146.85Z"/><path class="cls-20" d="M257.41,205.82c5.6-3.39,17.29-13,20.79-18.43,4.81-7.53-20.51-39.25-22.8-41.27a17.79,17.79,0,0,1,8.47-5.89c9.76,10.91,19,21.05,25.39,33.16,1.48,2.8,2.94,5.73,3.09,8.89a19.05,19.05,0,0,1-1.55,7.45,62.32,62.32,0,0,1-27.08,31.79C260.4,217.38,258.78,211,257.41,205.82Z"/><path class="cls-27" d="M249,54l.79.4A4.18,4.18,0,0,1,251.5,56l.45.76a.16.16,0,0,0,.27,0l.4-.79a4.16,4.16,0,0,1,1.59-1.71l.76-.45a.16.16,0,0,0,0-.28l-.79-.39a4.15,4.15,0,0,1-1.72-1.6l-.45-.76a.15.15,0,0,0-.27,0l-.4.79a4.16,4.16,0,0,1-1.59,1.71l-.76.45A.15.15,0,0,0,249,54Z"/><path class="cls-27" d="M210.34,94.28l1,.36a5,5,0,0,1,2.25,1.66l.63.84a.18.18,0,0,0,.32,0l.37-1a4.93,4.93,0,0,1,1.66-2.24l.84-.64a.19.19,0,0,0-.05-.32l-1-.36a5,5,0,0,1-2.24-1.66l-.64-.84a.18.18,0,0,0-.32,0l-.37,1a4.89,4.89,0,0,1-1.66,2.25l-.83.64A.18.18,0,0,0,210.34,94.28Z"/><path class="cls-27" d="M242.19,66.47l.68.34a3.58,3.58,0,0,1,1.48,1.38l.39.65a.14.14,0,0,0,.24,0l.34-.68a3.55,3.55,0,0,1,1.38-1.47l.65-.39a.14.14,0,0,0,0-.24l-.68-.34a3.62,3.62,0,0,1-1.47-1.38l-.39-.65a.14.14,0,0,0-.24,0l-.34.68a3.58,3.58,0,0,1-1.38,1.48l-.65.39A.14.14,0,0,0,242.19,66.47Z"/><path class="cls-27" d="M213.67,77.49l.68.34a3.64,3.64,0,0,1,1.48,1.38l.39.66a.13.13,0,0,0,.23,0l.34-.68a3.58,3.58,0,0,1,1.38-1.48l.66-.39a.13.13,0,0,0,0-.23l-.68-.35a3.52,3.52,0,0,1-1.48-1.38l-.39-.65a.13.13,0,0,0-.23,0l-.34.68a3.62,3.62,0,0,1-1.38,1.47l-.66.39A.14.14,0,0,0,213.67,77.49Z"/><path class="cls-18" d="M335,115.49l-2.52-4.44s8.61,1.9,13.83-4.8l1.41,3.81A16,16,0,0,1,335,115.49Z"/><path class="cls-28" d="M88.72,62.07l-.54,2.86s-.73-.91-4-.75-6.58.5-8.41-1.73l1.48-4.91a6.33,6.33,0,0,0,4.53,2.7C85.08,60.71,86.22,60.42,88.72,62.07Z"/><path class="cls-18" d="M419.43,105.69l-3.55-1s1.23-.81,1.4-4.89.11-8.36,3.12-10.42l6,2.43a8,8,0,0,0-3.91,5.41C421.56,101.26,421.79,102.73,419.43,105.69Z"/><path class="cls-28" d="M256,64.78l2.12.49s-.7.52-.68,2.93.19,4.92-1.53,6.22l-3.62-1.25a4.71,4.71,0,0,0,2.14-3.3C254.87,67.46,254.68,66.6,256,64.78Z"/><path class="cls-29" d="M393.78,70.94l5.05.11s-6,6.33-2.92,14.13l-4-.73A15.84,15.84,0,0,1,393.78,70.94Z"/><path class="cls-28" d="M426.14,155.18l-5.31,5s-.27-12.58-11.32-17.55l4.81-3.24A22.89,22.89,0,0,1,426.14,155.18Z"/><path class="cls-18" d="M125.57,97.92l-.27,3.26s-.92-.92-4.5-.37-7.28,1.34-9.59-.93l1.07-5.66a7.08,7.08,0,0,0,5.38,2.47C121.35,96.84,122.59,96.38,125.57,97.92Z"/><path class="cls-18" d="M364.52,181.08l-1.72,2.78s-.4-1.25-3.84-2.39-7.09-2.14-8.1-5.22l3.54-4.54a7.1,7.1,0,0,0,3.65,4.66C361.26,178.19,362.58,178.35,364.52,181.08Z"/><path class="cls-30" d="M350.3,134.11l.71,1s-.49-.05-1.4,1-1.79,2.14-3,2l-1.05-1.9a2.68,2.68,0,0,0,2.16-.58C348.82,134.81,349.07,134.38,350.3,134.11Z"/><path class="cls-30" d="M75.18,126l-1.61-3s1.31.28,4.09-2.21,5.53-5.26,8.8-4.6l2.26,5.48a7.32,7.32,0,0,0-6,.89C79.43,124.55,78.61,125.65,75.18,126Z"/><path class="cls-18" d="M368.05,48.93l-4.24-.66s1.3-1.12.92-5.87-1-9.68,2.16-12.48l7.31,2a9.33,9.33,0,0,0-3.77,6.8C369.89,43.51,370.36,45.18,368.05,48.93Z"/><path class="cls-18" d="M108.64,146.76l6.3-2.4s-4.2,10.84,3.49,19l-5.26,1.07A21.16,21.16,0,0,1,108.64,146.76Z"/><path class="cls-18" d="M278.22,126.52l-2.75.6s2.41-4.21-.26-8.05l2.23-.11A8.8,8.8,0,0,1,278.22,126.52Z"/><path class="cls-30" d="M388.31,142.28l2.79.26s-.8.78-.36,3.86,1.09,6.26-.88,8.22l-4.85-1a6,6,0,0,0,2.17-4.58C387.34,145.89,387,144.82,388.31,142.28Z"/><path class="cls-30" d="M172.13,114.1l-6.64.2s7.42-8.74,2.88-18.81l5.24.7A20.83,20.83,0,0,1,172.13,114.1Z"/><path class="cls-30" d="M160.38,163l-1.67-1.71s4.12-.16,5.69-3.81l1.09,1.56A7.52,7.52,0,0,1,160.38,163Z"/><path class="cls-18" d="M319.61,79.22l-2.77,1.26s1.59-5-2.11-8.46l2.34-.63A9.56,9.56,0,0,1,319.61,79.22Z"/><path class="cls-18" d="M284.07,50.37l-2.71,6.35s-5-10.81-16.49-10.94l2.95-4.63A21.66,21.66,0,0,1,284.07,50.37Z"/><path class="cls-18" d="M134.62,56.54l1.64.44s-.56.38-.61,2.27,0,3.87-1.38,4.84L131.47,63a3.68,3.68,0,0,0,1.77-2.52C133.67,58.6,133.55,57.92,134.62,56.54Z"/><path class="cls-18" d="M202.28,136.32l0,1.57s-.48-.4-2.17,0-3.43,1-4.64,0l.26-2.75a3.41,3.41,0,0,0,2.68.93C200.2,136,200.78,135.71,202.28,136.32Z"/><path class="cls-31" d="M142.24,185.27c-5.24.29-10.22,1.54-13.72,4a22.14,22.14,0,0,0-3.22,3c-12.6,13.73-16.3,41.6-1.44,55.29,8.56,7.89,21.74,11.07,33.62,8.73,21.59-4.24,27.53-27.64,23-44.82a35,35,0,0,0-19-23C156.48,186.18,149.13,184.89,142.24,185.27Z"/><path class="cls-31" d="M128.16,262.29a34.07,34.07,0,0,0-.36,10.37c1.5,10.72,10.93,19.16,20.78,19.22s19.14-7.8,22.21-18.1a36,36,0,0,0,1.4-9.64,26.05,26.05,0,0,0-1-8.31,18.89,18.89,0,0,0-13.73-12.34C144.1,240.47,130.79,246.7,128.16,262.29Z"/><path class="cls-19" d="M131.63,252.88c.17,1.15,3.72,8.56,19.43,7.46,16.16-1.15,17.75-7.79,17.94-9-2.59,1.78-9,4.95-18.48,4.85C140.47,256.13,133.32,254.11,131.63,252.88Z"/><path class="cls-32" d="M154.69,258c-5.42,4.42-11.06,0-11.06,0l1-11.42,8.94-.8Z"/><path class="cls-33" d="M123.26,229.5A20.54,20.54,0,0,1,119,229a5.15,5.15,0,0,1-2.09-.82,3.35,3.35,0,0,1-.92-3.92A4.15,4.15,0,0,1,119.4,222a5.44,5.44,0,0,1,4,1.44C123.37,225.23,123.26,227.7,123.26,229.5Z"/><path class="cls-32" d="M122.68,224.38a15.54,15.54,0,0,0-1.66-.28,3.59,3.59,0,0,0-1.84.12,1.23,1.23,0,0,0-.83,1.61,2.5,2.5,0,0,0,1.58,1.26,7,7,0,0,0,2.14.33,1.83,1.83,0,0,0,1.64-1.34A1.53,1.53,0,0,0,122.68,224.38Z"/><path class="cls-33" d="M172.27,229.5a20.45,20.45,0,0,0,4.27-.46,5.25,5.25,0,0,0,2.1-.82,3.36,3.36,0,0,0,.91-3.92,4.15,4.15,0,0,0-3.43-2.31,5.4,5.4,0,0,0-4,1.44C172.16,225.23,172.27,227.7,172.27,229.5Z"/><path class="cls-32" d="M172.84,224.38a15.54,15.54,0,0,1,1.66-.28,3.59,3.59,0,0,1,1.84.12,1.22,1.22,0,0,1,.83,1.61,2.5,2.5,0,0,1-1.58,1.26,7,7,0,0,1-2.14.33,1.82,1.82,0,0,1-1.63-1.34A1.51,1.51,0,0,1,172.84,224.38Z"/><path class="cls-33" d="M173.71,225.4c0-18.25-6.12-30.8-27-30.8s-24.32,13-24.32,31.26,16.92,24.31,25.67,24.27C159.74,250.08,173.71,243.66,173.71,225.4Z"/><path class="cls-8" d="M139.22,222.45a2,2,0,0,0-1.93,1.93v.24a1.93,1.93,0,1,0,3.86,0v-.24A2,2,0,0,0,139.22,222.45Z"/><path class="cls-8" d="M156.86,222.45a2,2,0,0,0-1.93,1.93v.24a1.94,1.94,0,1,0,3.87,0v-.24A2,2,0,0,0,156.86,222.45Z"/><path class="cls-27" d="M141.57,234.41l11-.54s.27,8.06-5.51,8.33S141.57,234.41,141.57,234.41Z"/><path class="cls-31" d="M142.38,216.81c-.32-.62-1.39-.84-2.46-.76a16.7,16.7,0,0,0-4.2.67c-1.11.44-1.13,1.49.41,1.69a19.71,19.71,0,0,0,4.85-.26C142,218,142.66,217.37,142.38,216.81Z"/><path class="cls-31" d="M153.62,215.78c.23-.64,1.28-.9,2.36-.86a18.23,18.23,0,0,1,4.27.51c1.16.39,1.32,1.45-.19,1.7a20,20,0,0,1-4.88-.07C154.12,217,153.41,216.34,153.62,215.78Z"/><path class="cls-31" d="M118.58,216.56c5.77,1.52,11.85-.07,17.59-1.66a41.43,41.43,0,0,0,5.89-1.94,21.42,21.42,0,0,0,10-9.16c4.87,7.12,13.85,11.84,22.46,11.3-.71-7.44-4.07-14.51-10-19a35.6,35.6,0,0,0-13.81-6,27.93,27.93,0,0,0-8.24-.77c-6.55.51-12.5,4.43-16.67,9.5S120.72,210.35,118.58,216.56Z"/><path class="cls-15" d="M148.57,405.26a2.71,2.71,0,0,1,.22,1.37,2.84,2.84,0,0,1-.71,1.76c-1.36,2.06-5,.65-6.21,2.53-1.54,2.32,4.76,1.53,5.51,1.26a6.81,6.81,0,0,0,3.06-2.26,11.32,11.32,0,0,0,.44,1.64c.1.27.25.57.49.62.44.08.64-.61.67-1.13.09-1.84,0-3.37,0-5.79C151.26,406,149.27,406.08,148.57,405.26Z"/><path class="cls-15" d="M157.63,405.26a2.67,2.67,0,0,0-.21,1.37,2.79,2.79,0,0,0,.71,1.76c1.36,2.06,5,.65,6.21,2.53,1.53,2.32-4.76,1.53-5.52,1.26a6.83,6.83,0,0,1-3-2.26,11.35,11.35,0,0,1-.45,1.64c-.09.27-.24.57-.49.62-.43.08-.63-.61-.66-1.13-.09-1.84,0-3.37,0-5.79C154.94,406,156.93,406.08,157.63,405.26Z"/><path class="cls-17" d="M160.23,407.83c-4.78,1.12-10-.19-14.69-2.2q-2.28-27.12-4.57-54.22c-.6-7.31-1.35-15.7-1.55-23.82,0-1.27,0-2.54,0-3.8,0-3,.1-5.93.32-8.73a28.49,28.49,0,0,1,.71-4.5c1.69-7.08,5.68-10.32,8.61-10.43s5.59,1.77,8.32,3.62a9.42,9.42,0,0,1,4.35,6.18,5.63,5.63,0,0,1,.14.59,48.4,48.4,0,0,1,.72,8.33c0,1.66.07,3.31.1,5C163.23,351.79,162.71,380.71,160.23,407.83Z"/><path class="cls-34" d="M154.1,326.54a3.44,3.44,0,0,1-5.5.09c-.45-.53-1.2.23-.76.75A4.45,4.45,0,0,0,151.4,329a.44.44,0,0,0,0,.1q1.77,39.15,1,78.35a.54.54,0,0,0,1.07,0q.76-39.18-1-78.35a.42.42,0,0,0-.07-.23,4.79,4.79,0,0,0,2.64-1.79C155.44,326.53,154.51,326,154.1,326.54Z"/><path class="cls-34" d="M144.12,311.21c-.46,3.87-1,10.21-4.74,12.58,0-3,.1-5.93.32-8.73a28.49,28.49,0,0,1,.71-4.5Z"/><path class="cls-34" d="M162.65,323.82c-3.74-2.36-4.3-8.73-4.77-12.61l4-.69a48.4,48.4,0,0,1,.72,8.33C162.59,320.51,162.62,322.16,162.65,323.82Z"/><path class="cls-33" d="M119.29,266c4.79,2.85,10.26,4.3,15.65,5.71a42.2,42.2,0,0,1,1.4,10.89,16.78,16.78,0,0,0,4.42-9.13c.56-3.39-1.53-9.8-2.07-13.2-10.34-.66-17.71-3.18-25.89-11.7-7.18-7.46-10.46-18.3-9.82-28.64,1.94-1.66,3.31-6.93,2.23-7.47-.8-.4-2.14,2.78-3.21,2.94.36-1.92.27-12.16-1.06-12.22s-1.13,6.87-1.34,8.94c.39-1.34-1.74-9.35-3.34-9.44-.8,0,.73,7.7.61,9.8-.31-1.25-2.61-7.83-3.51-6.94-.58.58.7,6.16,1.57,7.35-.62-.86-1.71-3-2.61-2.43-1.07.73,4.88,8.65,5.48,9C98.73,247.41,111.9,261.56,119.29,266Z"/><path class="cls-33" d="M160,260s-7.07,39.93,4.65,49.82C164.64,309.81,178.2,260.79,160,260Z"/><polygon class="cls-35" points="149.58 252.58 149.58 252.59 149.57 252.58 149.58 252.58"/><polygon class="cls-35" points="149.57 252.58 149.55 252.59 149.55 252.58 149.57 252.58"/><path class="cls-36" d="M165.41,316A23.63,23.63,0,0,1,151,320.09a31.74,31.74,0,0,1-14.23-4.32c.13,0,1.24-13.12,1.24-14.66a7,7,0,0,0-.17-1.53c-.57-2.78-2.57-4.85-3.34-7.76-1.35-5.2-.09-9.33,1.43-13.74,1.71-5,3.73-10.27,2.77-17.85,8.43-1.31,14.1-1.41,21.3-.23.84,6.05,4.29,13.08,6.23,17.94a16,16,0,0,1,1.37,4.6c0,.17,0,.33,0,.5,0,4.8-2,12.13-3.08,17.18-.07.39-.15.76-.21,1.13C163.76,304.38,165.55,315.93,165.41,316Z"/><path class="cls-37" d="M155.94,261a6.45,6.45,0,0,1-1.25,1.19,9,9,0,0,1-1,.68,9.23,9.23,0,0,1-2,.86,8.25,8.25,0,0,1-1.06.23c-.32,0-.65.1-1,.12a9.06,9.06,0,0,1-1.48,0,7.73,7.73,0,0,1-1.07-.19,10.41,10.41,0,0,1-2.7-1.05c-.37-.21-.71-.41-1-.6a10.35,10.35,0,0,1-1.22-.95l1-7.32c.44.07.87.15,1.28.2l1.06.14c.59.07,1.16.13,1.69.17l1.07.07c.68,0,1.31,0,1.9,0l1.07,0c.65,0,1.24-.09,1.73-.14l1.06-.15a10.76,10.76,0,0,0,1.33-.31Z"/><path class="cls-38" d="M145.46,254.22c-.28,2.85-.65,5.7-1.12,8.53-.37-.21-.71-.41-1-.6.45-2.68.79-5.37,1-8.07Z"/><path class="cls-38" d="M148.22,254.46q-.06,4.75-.11,9.53a7.73,7.73,0,0,1-1.07-.19c0-3.14.08-6.27.11-9.41Z"/><path class="cls-38" d="M151.65,263.68a8.25,8.25,0,0,1-1.06.23q-.24-4.71-.47-9.41l1.07,0C151.33,257.54,151.49,260.6,151.65,263.68Z"/><path class="cls-38" d="M154.69,262.14a9,9,0,0,1-1,.68c-.16-2.83-.42-5.66-.75-8.48l1.06-.15Q154.45,258.15,154.69,262.14Z"/><path class="cls-21" d="M167.6,283c0,4.8-2,12.13-3.08,17.18-.81-.17-1.62-.38-2.4-.61-3.48-1.05-6.87-2.57-10.49-3-4.74-.53-9.44.93-13.8,2.93-.57-2.78-2.57-4.85-3.34-7.76-1.35-5.2-.09-9.33,1.43-13.74,3.3,2.22,7.52,2.89,11.55,3a50.75,50.75,0,0,0,18.75-3.14,16,16,0,0,1,1.37,4.6C167.6,282.71,167.6,282.87,167.6,283Z"/><path class="cls-39" d="M147.55,276.9a6,6,0,0,1,3.48-.08l8.57-17.29-3.44-.35Z"/><path class="cls-5" d="M149.16,275.11a7.5,7.5,0,1,0,7.5,7.5A7.49,7.49,0,0,0,149.16,275.11Zm2.76,1.46a.6.6,0,0,1-.57.4l-.2,0-.1,0a6,6,0,0,0-3.48-.08l-.39.12a.61.61,0,0,1-.77-.37.6.6,0,0,1,.37-.76,2.65,2.65,0,0,1,.37-.12,7.37,7.37,0,0,1,3.4-.16,7.08,7.08,0,0,1,1,.28A.6.6,0,0,1,151.92,276.57Z"/><path class="cls-40" d="M154.76,282.61a5.6,5.6,0,0,1-5.06,5.57,4.63,4.63,0,0,1-.54,0,5.6,5.6,0,0,1,0-11.2,4.63,4.63,0,0,1,.54,0A5.6,5.6,0,0,1,154.76,282.61Z"/><path class="cls-41" d="M154.76,282.61A5.08,5.08,0,1,1,149.7,277,5.6,5.6,0,0,1,154.76,282.61Z"/><path class="cls-42" d="M151.05,276.9l-.5-.14-.35-.07a5.83,5.83,0,0,0-1.91,0l-.31.05-.41.1-8.88-16.92h3.45Z"/><path class="cls-43" d="M155.2,284.05a5.41,5.41,0,0,1-3.14,4.13c-.35.15-.19.73.16.58a6,6,0,0,0,3.56-4.55C155.87,283.84,155.29,283.68,155.2,284.05Z"/><path class="cls-43" d="M155.35,281.75V283a.3.3,0,0,0,.6,0v-1.2A.3.3,0,0,0,155.35,281.75Z"/><polygon class="cls-29" points="195.79 399.39 305.93 399.39 306.62 457.36 192.68 457.36 195.79 399.39"/><text class="cls-44" transform="translate(238.39 450.82)">1</text><polygon class="cls-45" points="192.68 457.36 195.09 412.34 94.4 412.34 88.4 457.36 192.68 457.36"/><text class="cls-46" transform="translate(136.23 448.16)">2</text><polygon class="cls-21" points="195.09 412.34 192.68 457.36 173.54 457.36 177.37 412.34 195.09 412.34"/><polygon class="cls-45" points="306.62 457.36 305.54 422.41 408.59 422.41 411.6 457.36 306.62 457.36"/><text class="cls-46" transform="translate(344.64 453.49)">3</text><polygon class="cls-21" points="305.54 422.41 320.4 422.41 323.9 457.36 306.62 457.36 305.54 422.41"/><polygon class="cls-12" points="349.89 395.94 352.32 416.5 357.92 416.5 357.92 395.94 349.89 395.94"/><polygon class="cls-12" points="373.05 395.94 370.62 416.5 365.01 416.5 365.01 395.94 373.05 395.94"/><path class="cls-14" d="M364,421.45a8.09,8.09,0,0,0,.09,1h18.8c0-.33,0-.68.05-1a5.91,5.91,0,0,0-1.06-4.23,5.1,5.1,0,0,0-2.44-1.42c-2.82-.81-5.84-.15-8.67.66l-5.8,0A9.45,9.45,0,0,0,364,421.45Z"/><path class="cls-13" d="M370.6,416.12c0-.71,1.17-.72,1.12,0a3.31,3.31,0,0,0,0,.63c.1.71-1,1-1.08.3A4.8,4.8,0,0,1,370.6,416.12Z"/><path class="cls-13" d="M372.49,415.7c.06-.71,1.18-.72,1.12,0a3.3,3.3,0,0,0,0,.63c.11.71-1,1-1.08.3A4.12,4.12,0,0,1,372.49,415.7Z"/><path class="cls-13" d="M375.43,415.49v.56a.56.56,0,0,1-1.12,0v-.56A.56.56,0,0,1,375.43,415.49Z"/><path class="cls-13" d="M364,421.45a8.09,8.09,0,0,0,.09,1h18.8c0-.33,0-.68.05-1Z"/><path class="cls-14" d="M358.9,421.45a8.09,8.09,0,0,1-.09,1H340c0-.33,0-.68-.06-1a5.87,5.87,0,0,1,1.07-4.23,5,5,0,0,1,2.43-1.42c2.83-.81,5.84-.15,8.67.66l5.8,0A9.45,9.45,0,0,1,358.9,421.45Z"/><path class="cls-13" d="M352.33,416.12c-.05-.71-1.17-.72-1.12,0a2.66,2.66,0,0,1,0,.63c-.1.71,1,1,1.08.3A4.12,4.12,0,0,0,352.33,416.12Z"/><path class="cls-13" d="M350.44,415.7c-.06-.71-1.18-.72-1.12,0a2.65,2.65,0,0,1,0,.63c-.11.71,1,1,1.08.3A3.61,3.61,0,0,0,350.44,415.7Z"/><path class="cls-13" d="M347.5,415.49v.56a.56.56,0,0,0,1.12,0v-.56A.56.56,0,0,0,347.5,415.49Z"/><path class="cls-13" d="M358.9,421.45a8.09,8.09,0,0,1-.09,1H340c0-.33,0-.68-.06-1Z"/><path class="cls-16" d="M364.16,413.47h8.51s3.62-39.08,5.62-59h0c0-.46.09-.92.14-1.36.54-5.37.94-9.1,1.1-9.9H341.38s.33,4.42.91,11.13c0,.42.08.85.11,1.3,1.49,16.82,4.46,46.09,8,57.88h9.2L357.92,360l5.22.18Z"/><polygon class="cls-47" points="363.14 410.71 373.84 410.71 372.88 415.17 363.31 415.17 363.14 410.71"/><polygon class="cls-47" points="360.35 410.71 348.62 410.71 349.57 415.17 360.17 415.17 360.35 410.71"/><path class="cls-17" d="M342.4,355.59c2.5-1.36,4.55-2.85,5.73-5.58a16.17,16.17,0,0,0,1.44-6.85h-8.19Z"/><path class="cls-17" d="M373.07,343.16A16.17,16.17,0,0,0,374.5,350a10.08,10.08,0,0,0,3.79,4.41l1.24-11.26Z"/><path class="cls-17" d="M368,358.39a23.14,23.14,0,0,1-14,.09c-.66-.2-.94.83-.28,1a24.93,24.93,0,0,0,3.35.77,16.85,16.85,0,0,1-1.61.53.54.54,0,0,0,.29,1,16.36,16.36,0,0,0,2.95-1.1.48.48,0,0,0,.23-.24,24.06,24.06,0,0,0,4.07,0,10.88,10.88,0,0,0,2.2,1.42c.62.3,1.16-.62.54-.92a11.7,11.7,0,0,1-1.2-.69,26.49,26.49,0,0,0,3.76-.86C368.9,359.21,368.62,358.18,368,358.39Z"/><path class="cls-12" d="M380.19,286.54c7.36-1.21,15.66-4.74,19.29-12a7.72,7.72,0,0,1-2.31-5.31,1.18,1.18,0,0,1,.32-1.05c.45-.35,1.1,0,1.49.42a6.36,6.36,0,0,1,1.15,1.62,7.84,7.84,0,0,1,.63-4.08,2.62,2.62,0,0,1,.49-1,1.07,1.07,0,0,1,1-.36,1.41,1.41,0,0,1,.85.94,5.1,5.1,0,0,1,.23,2.84c.17-.34.95-.85,1.12-1.2a5,5,0,0,1,1.05-1.58,1.71,1.71,0,0,1,1.76-.42,1.75,1.75,0,0,1,.85,2,5.15,5.15,0,0,1-1.17,2,4.24,4.24,0,0,1,1.94,0,1.44,1.44,0,0,1,1.15,1.21,1.55,1.55,0,0,1-.49,1.14,5.42,5.42,0,0,1-3.36,1.25,3.87,3.87,0,0,1,2.08,1.16,1.43,1.43,0,0,1-.34,1.95,2.15,2.15,0,0,1-1.44.09l-2.27-.38c-3.24,8-14.65,16.69-18.86,18.4C384,293.94,380.57,287.6,380.19,286.54Z"/><path class="cls-48" d="M374,300.73c8.19-.52,15.27-4.7,21-9.32-1.4-4.55-2.38-7.56-5.24-11.37-7.45,4.49-15.47,7.93-23.88,5.76C369.64,291.1,371,295,374,300.73Z"/><path class="cls-12" d="M335.92,313.55c-1.05,7.41-.24,15,.56,22.46.35,3.23.73,6.57,2.11,9.36,1.09,2.18-1.44,4.4-.21,6.24a4.2,4.2,0,0,0,2,1.41,2.88,2.88,0,0,0,1.35.34c1.51-.14.76-1.35.67-2.25a22.07,22.07,0,0,1,.28-4.83c.19-2.2,0-4.59,0-6.81,0-4.54,0-9.08.38-13.6a36,36,0,0,0,.22-6.8c-.25-2.26-1.1-4.54-2.68-5.74S336.23,311.31,335.92,313.55Z"/><path class="cls-48" d="M357,285.83c-12,.93-19,13.65-21,19q-1.83,5-3.15,10.11l14.89,1.77C350.46,307.87,358.45,294.81,357,285.83Z"/><path class="cls-48" d="M379.51,343.36s1.71-17.27-.54-33a75.61,75.61,0,0,0-1.44-7.51c-2.61-10.4-7.66-18.5-17.12-17.68-9.05.79-14,8.55-16.73,18.14a64.83,64.83,0,0,0-1.62,7.53c-2.5,15.53-.68,32.34-.68,32.34C354.88,349.38,368.49,349.38,379.51,343.36Z"/><path class="cls-49" d="M379,310.35a239.39,239.39,0,0,1-36.91.48,64.83,64.83,0,0,1,1.62-7.53,239.06,239.06,0,0,0,33.85-.46A75.61,75.61,0,0,1,379,310.35Z"/><path class="cls-39" d="M359.49,303.52a6,6,0,0,1,3.47-.08l8.56-17.26-3.44-.35Z"/><path class="cls-5" d="M361.1,301.74a7.48,7.48,0,1,0,7.48,7.48A7.48,7.48,0,0,0,361.1,301.74Zm2.75,1.45a.6.6,0,0,1-.57.4.69.69,0,0,1-.2,0l-.1,0a6,6,0,0,0-3.47-.08,2.64,2.64,0,0,0-.4.12.6.6,0,0,1-.4-1.13c.13,0,.25-.09.38-.12a7.16,7.16,0,0,1,3.38-.15,6,6,0,0,1,1,.27A.61.61,0,0,1,363.85,303.19Z"/><path class="cls-40" d="M366.68,309.22a5.58,5.58,0,0,1-5.05,5.56,4.58,4.58,0,0,1-.53,0,5.59,5.59,0,0,1,0-11.18,4.58,4.58,0,0,1,.53,0A5.58,5.58,0,0,1,366.68,309.22Z"/><path class="cls-41" d="M366.68,309.22a5.07,5.07,0,1,1-5.05-5.56A5.58,5.58,0,0,1,366.68,309.22Z"/><path class="cls-42" d="M363,303.52l-.5-.14-.35-.07a5.83,5.83,0,0,0-1.91,0l-.3,0-.41.1-8.87-16.89h3.44Z"/><path class="cls-43" d="M367.13,310.66a5.42,5.42,0,0,1-3.14,4.12c-.35.15-.2.73.16.58a6,6,0,0,0,3.55-4.54C367.79,310.45,367.21,310.29,367.13,310.66Z"/><path class="cls-43" d="M367.27,308.36v1.2a.3.3,0,0,0,.6,0v-1.2A.3.3,0,0,0,367.27,308.36Z"/><path class="cls-12" d="M384.85,257.17a27.54,27.54,0,0,0,5.8-.62,7.2,7.2,0,0,0,2.86-1.12,4.57,4.57,0,0,0,1.24-5.33,5.64,5.64,0,0,0-4.66-3.14,7.39,7.39,0,0,0-5.39,1.95C384.7,251.36,384.85,254.72,384.85,257.17Z"/><path class="cls-23" d="M385.05,250.22c.75-.19,1.5-.25,2.26-.38a4.83,4.83,0,0,1,2.5.17,1.67,1.67,0,0,1,1.13,2.19,3.39,3.39,0,0,1-2.15,1.7,9.23,9.23,0,0,1-2.91.46,2.46,2.46,0,0,1-2.22-1.83A2.06,2.06,0,0,1,385.05,250.22Z"/><path class="cls-12" d="M330.71,258.56a27.7,27.7,0,0,1-5.81-.62,7.16,7.16,0,0,1-2.85-1.12,4.55,4.55,0,0,1-1.24-5.33,5.64,5.64,0,0,1,4.66-3.14,7.4,7.4,0,0,1,5.39,2C330.86,252.75,330.71,256.11,330.71,258.56Z"/><path class="cls-23" d="M330.51,251.61c-.75-.19-1.5-.25-2.27-.38a4.8,4.8,0,0,0-2.49.17c-.92.31-1.59,1.39-1.13,2.19a3.4,3.4,0,0,0,2.15,1.71,9.5,9.5,0,0,0,2.9.45,2.48,2.48,0,0,0,2.23-1.83A2.07,2.07,0,0,0,330.51,251.61Z"/><path class="cls-12" d="M365.38,288c-4.23,3.45-8.62,0-8.62,0l.29-3.92.49-6.57,7-.63.6,7.68Z"/><path class="cls-24" d="M365.11,284.53a11.69,11.69,0,0,1-8.06-.48l.49-6.57,7-.63Z"/><ellipse class="cls-12" cx="358.88" cy="254.65" rx="29.49" ry="25.76"/><path class="cls-8" d="M348.66,256.74a2.27,2.27,0,0,0-2.24,2.24v.28a2.24,2.24,0,0,0,4.48,0V259A2.27,2.27,0,0,0,348.66,256.74Z"/><path class="cls-8" d="M369.1,256.74a2.27,2.27,0,0,0-2.24,2.24v.28a2.24,2.24,0,0,0,4.48,0V259A2.27,2.27,0,0,0,369.1,256.74Z"/><path class="cls-31" d="M349.11,250.77l-2.62.34a1.15,1.15,0,0,0-1.12,1.12,1.14,1.14,0,0,0,1.12,1.12l2.62-.34a1.16,1.16,0,0,0,1.12-1.12C350.23,251.35,349.71,250.69,349.11,250.77Z"/><path class="cls-31" d="M368.64,250.77l2.62.34a1.15,1.15,0,0,1,1.12,1.12,1.13,1.13,0,0,1-1.12,1.12l-2.62-.34a1.16,1.16,0,0,1-1.12-1.12C367.52,251.35,368,250.69,368.64,250.77Z"/><path class="cls-27" d="M354.88,268.94l9.63-.47s.24,7-4.81,7.29S354.88,268.94,354.88,268.94Z"/><path class="cls-31" d="M331,258.63c-2.65-.17-6.49-22.33-.07-24.86a13.37,13.37,0,0,1-2.38-10.24.75.75,0,0,1,.17-.44c.23-.24.63-.15.94,0l7,2.34a14.11,14.11,0,0,1,.78-4.87c5.93,2.71,12.66,1.74,18.86.7,5.58-.94,11.15-1.26,15.15,3.58-.69-.84,4.62-2.86,5.3-2.91,2.56-.17,4,1,5.71,2.84,3,3.2,4,7.61,4.77,11.85,1,5.51,1.19,19.36.48,19.67-2,.88-6.73-11.68-7.58-15.54-3.2,2.16-7.11,3.07-10.95,3.74-11.64,2-21.17,1.54-32.88-.14C336.31,244.31,333.21,258.78,331,258.63Z"/><path class="cls-31" d="M355.73,243.63q-3.8,2.51-7.66,4.91a22.18,22.18,0,0,0,20.66-3.07c2.45-1.86,4.61-4.49,4.79-7.56a2.91,2.91,0,0,0-.9-2.57,2.82,2.82,0,0,0-1.71-.45C365.05,234.92,360.25,240.64,355.73,243.63Z"/></g></svg>