<svg xmlns="http://www.w3.org/2000/svg" xmlns:xlink="http://www.w3.org/1999/xlink" viewBox="0 0 450 450"><defs><style>.cls-1{fill:none;}.cls-2{isolation:isolate;}.cls-3{clip-path:url(#clip-path);}.cls-4{fill:url(#linear-gradient);}.cls-5,.cls-6,.cls-7,.cls-8,.cls-9{fill:#3dd2f2;}.cls-5{opacity:0.8;}.cls-6{opacity:0.9;}.cls-8{opacity:0.7;}.cls-21,.cls-25,.cls-39,.cls-9{opacity:0.5;}.cls-10,.cls-11,.cls-12{fill:#ecfee2;}.cls-10{opacity:0.4;}.cls-11{opacity:0.6;}.cls-13{fill:#afb3c9;}.cls-14{fill:url(#linear-gradient-2);}.cls-15{fill:#fff;}.cls-16{fill:url(#linear-gradient-3);}.cls-17{fill:url(#linear-gradient-4);}.cls-18{fill:url(#linear-gradient-5);}.cls-19,.cls-20{fill:#777c9c;}.cls-19,.cls-35,.cls-37,.cls-44,.cls-46,.cls-49{opacity:0.3;}.cls-19,.cls-21,.cls-22,.cls-25,.cls-35,.cls-37,.cls-39,.cls-44,.cls-46,.cls-49,.cls-50,.cls-52,.cls-59{mix-blend-mode:multiply;}.cls-21{fill:#4e6689;}.cls-22{fill:url(#linear-gradient-6);}.cls-23{fill:#282828;}.cls-24,.cls-25,.cls-49{fill:#27aae1;}.cls-26,.cls-35{fill:#fbab5f;}.cls-27{fill:#eb994b;}.cls-28{fill:#1e2020;}.cls-29,.cls-52{fill:#e6e7e8;}.cls-30{fill:#232426;}.cls-31{fill:#fffcff;}.cls-32{fill:#525252;}.cls-33{fill:#ff4001;}.cls-34{fill:#c7c8c9;}.cls-36{fill:#16739c;}.cls-37,.cls-41{fill:#a3b848;}.cls-38,.cls-39{fill:#505366;}.cls-40,.cls-44{fill:#fdb171;}.cls-42{fill:#d93601;}.cls-43{fill:#f2f2f2;}.cls-45{fill:#8a5d3b;}.cls-47{fill:#c49a6b;}.cls-48{fill:#58341f;}.cls-51{fill:#403d3d;}.cls-53{fill:#45332b;}.cls-54{fill:#f09f5b;}.cls-55{fill:#37120b;}.cls-56{fill:#dae3e6;}.cls-57{fill:#c90e00;}.cls-58{fill:#8f4225;}.cls-59{fill:url(#linear-gradient-7);}.cls-60{fill:#7b1e1c;}</style><clipPath id="clip-path"><rect class="cls-1" width="450" height="450"/></clipPath><linearGradient id="linear-gradient" x1="224.99" y1="226.93" x2="224.99" y2="13.09" gradientUnits="userSpaceOnUse"><stop offset="0" stop-color="#dcfbe0"/><stop offset="1" stop-color="#2bd6fb"/></linearGradient><linearGradient id="linear-gradient-2" x1="225" y1="450" x2="225" y2="286.4" gradientUnits="userSpaceOnUse"><stop offset="0" stop-color="#95a52a"/><stop offset="1" stop-color="#c7d727"/></linearGradient><linearGradient id="linear-gradient-3" x1="225" y1="289.4" x2="225" y2="259.3" gradientUnits="userSpaceOnUse"><stop offset="0" stop-color="#415a80"/><stop offset="0.38" stop-color="#4f6387"/><stop offset="1" stop-color="#617091"/></linearGradient><linearGradient id="linear-gradient-4" x1="225" y1="263.81" x2="225" y2="233.68" xlink:href="#linear-gradient-3"/><linearGradient id="linear-gradient-5" x1="225" y1="231.27" x2="225" y2="212.07" xlink:href="#linear-gradient-3"/><linearGradient id="linear-gradient-6" x1="-0.13" y1="291.45" x2="450.27" y2="291.45" xlink:href="#linear-gradient-2"/><linearGradient id="linear-gradient-7" x1="361.81" y1="292.23" x2="364.51" y2="284.95" gradientUnits="userSpaceOnUse"><stop offset="0" stop-color="#fdd0b0"/><stop offset="1" stop-color="#fff"/></linearGradient></defs><title>Situação4MM4</title><g class="cls-2"><g id="Layer_1" data-name="Layer 1"><g class="cls-3"><rect class="cls-4" y="13.09" width="449.98" height="213.84"/><polygon class="cls-5" points="449.98 35.29 82.15 64.82 449.98 41.53 449.98 35.29"/><polygon class="cls-6" points="0 67.08 449.98 32.35 449.98 25.64 0 54.34 0 67.08"/><polygon class="cls-7" points="0 0 0 50.85 449.98 17.36 449.98 0 0 0"/><polygon class="cls-8" points="0 87.39 343.09 63.02 0 92.01 0 101.13 449.98 56.66 449.98 55.43 449.98 53.99 449.98 46.4 0 80.66 0 87.39"/><polygon class="cls-9" points="449.98 72.74 194.99 96.51 449.98 81.38 449.98 72.74"/><polygon class="cls-10" points="0 129.93 216.08 111.99 0 132.17 0 129.93"/><path class="cls-10" d="M57.1,136.91l9.23-1.07c5.88-.67,14.28-1.59,24.38-2.62,5.05-.51,10.52-1.08,16.31-1.63s11.89-1.17,18.21-1.74,12.85-1.21,19.49-1.78l20.13-1.76L185,124.65c6.65-.57,13.2-1,19.53-1.54s12.47-.94,18.28-1.36,11.31-.8,16.39-1.14c10.15-.69,18.62-1.2,24.55-1.54l9.33-.5-9.24,1.07c-5.88.66-14.28,1.59-24.38,2.61-5,.52-10.51,1.09-16.3,1.64s-11.89,1.17-18.21,1.74-12.85,1.21-19.49,1.78l-20.14,1.76-20.15,1.66c-6.64.56-13.2,1-19.53,1.53s-12.46.93-18.28,1.36-11.31.8-16.38,1.14c-10.15.69-18.63,1.2-24.56,1.54Z"/><polygon class="cls-11" points="450.26 129.16 255.08 147.71 449.7 126.31 450.26 129.16"/><polygon class="cls-12" points="0 200.86 273.08 181.56 0 219.37 0 200.86"/><path class="cls-12" d="M0,226.93l450-50.77v17.28S83.59,226.93,77.59,226.93Z"/><polygon class="cls-12" points="450.27 207.83 339.07 217.93 449.7 204.98 450.27 207.83"/><rect class="cls-13" x="-6.93" y="147.25" width="452.91" height="4" transform="translate(-0.29 0.43) rotate(-0.11)"/><rect class="cls-13" x="8.79" y="149.69" width="4" height="61.27" transform="translate(-4.13 0.29) rotate(-1.31)"/><rect class="cls-13" x="29.34" y="149.69" width="4" height="61.27" transform="translate(-4.12 0.76) rotate(-1.31)"/><rect class="cls-13" x="49.89" y="149.69" width="4" height="61.27" transform="translate(-4.12 1.24) rotate(-1.31)"/><rect class="cls-13" x="70.44" y="149.69" width="4" height="61.27" transform="translate(-4.11 1.71) rotate(-1.31)"/><rect class="cls-13" x="90.99" y="149.69" width="4" height="61.27" transform="translate(-4.11 2.18) rotate(-1.31)"/><rect class="cls-13" x="111.54" y="149.69" width="4" height="61.27" transform="translate(-4.1 2.65) rotate(-1.31)"/><rect class="cls-13" x="132.09" y="149.69" width="4" height="61.27" transform="translate(-4.09 3.12) rotate(-1.31)"/><rect class="cls-13" x="152.64" y="149.69" width="4" height="61.27" transform="translate(-4.09 3.59) rotate(-1.31)"/><rect class="cls-13" x="173.19" y="149.69" width="4" height="61.27" transform="matrix(1, -0.02, 0.02, 1, -4.08, 4.06)"/><rect class="cls-13" x="193.74" y="149.69" width="4" height="61.27" transform="translate(-4.08 4.53) rotate(-1.31)"/><rect class="cls-13" x="214.29" y="149.69" width="4" height="61.27" transform="translate(-4.07 5) rotate(-1.31)"/><rect class="cls-13" x="234.85" y="149.69" width="4" height="61.27" transform="translate(-4.07 5.47) rotate(-1.31)"/><rect class="cls-13" x="255.4" y="149.69" width="4" height="61.27" transform="translate(-4.06 5.94) rotate(-1.31)"/><rect class="cls-13" x="275.95" y="149.69" width="4" height="61.27" transform="translate(-4.05 6.41) rotate(-1.31)"/><rect class="cls-13" x="296.5" y="149.69" width="4" height="61.27" transform="translate(-4.05 6.88) rotate(-1.31)"/><rect class="cls-13" x="317.05" y="149.69" width="4" height="61.27" transform="translate(-4.05 7.35) rotate(-1.31)"/><rect class="cls-13" x="337.6" y="149.69" width="4" height="61.27" transform="translate(-4.04 7.83) rotate(-1.31)"/><rect class="cls-13" x="358.15" y="149.69" width="4" height="61.27" transform="translate(-4.04 8.3) rotate(-1.31)"/><rect class="cls-13" x="378.7" y="149.69" width="4" height="61.27" transform="translate(-4.03 8.77) rotate(-1.31)"/><rect class="cls-13" x="399.25" y="149.69" width="4" height="61.27" transform="translate(-4.02 9.24) rotate(-1.31)"/><rect class="cls-13" x="419.8" y="149.69" width="4" height="61.27" transform="translate(-4.02 9.71) rotate(-1.31)"/><rect class="cls-13" x="440.35" y="149.69" width="4" height="61.27" transform="translate(-4.01 10.17) rotate(-1.31)"/><rect class="cls-14" y="286.4" width="450" height="163.6"/><path class="cls-15" d="M188.94,431.91c-62,0-112.38-16.37-112.38-36.5s50.41-36.5,112.38-36.5,112.38,16.38,112.38,36.5S250.91,431.91,188.94,431.91Zm0-71.67C127.82,360.24,78.1,376,78.1,395.41s49.72,35.18,110.84,35.18,110.84-15.78,110.84-35.18S250.06,360.24,188.94,360.24Z"/><path class="cls-15" d="M188.94,432.66c-62.38,0-113.13-16.71-113.13-37.25s50.75-37.25,113.13-37.25,113.13,16.71,113.13,37.25S251.32,432.66,188.94,432.66Zm0-71.67c-60.7,0-110.09,15.44-110.09,34.42s49.39,34.43,110.09,34.43S299,414.39,299,395.41,249.64,361,188.94,361ZM296,385.28c2.94,3.21,4.52,6.61,4.52,10.13S299,402.33,296,405.55c3-3.22,4.56-6.62,4.56-10.14S299,388.49,296,385.28Zm-214.2.07c-2.93,3.19-4.5,6.57-4.5,10.06s1.57,6.87,4.5,10.07c-2.9-3.2-4.46-6.58-4.46-10.07S78.91,388.54,81.81,385.35Z"/><rect class="cls-15" x="-171.3" y="391.65" width="718.61" height="2.48"/><rect class="cls-15" x="-74.75" y="306.04" width="528.25" height="1.88"/><polygon class="cls-16" points="-0.13 289.4 -0.13 263.68 450.13 259.3 449.87 289.4 -0.13 289.4"/><polygon class="cls-17" points="-0.13 263.81 -0.13 238.81 450.13 233.68 449.87 261.03 -0.13 263.81"/><polygon class="cls-18" points="450.13 231.27 450.13 212.22 -0.13 212.07 0.13 229.71 450.13 231.27"/><polygon class="cls-19" points="450.13 213.69 450.13 206.15 0.13 208.02 -0.13 213.54 450.13 213.69"/><polygon class="cls-20" points="450.13 212.22 450.13 204.68 0.13 206.54 -0.13 212.07 450.13 212.22"/><polygon class="cls-21" points="-0.13 242.39 -0.13 230.82 449.87 228.78 450.13 237.26 -0.13 242.39"/><polygon class="cls-20" points="-0.13 240.64 -0.13 229.07 449.87 227.03 450.13 235.51 -0.13 240.64"/><polygon class="cls-21" points="-0.13 268.88 -0.13 258.84 449.87 255.35 450.13 264.5 -0.13 268.88"/><polygon class="cls-20" points="-0.13 266.7 -0.13 256.66 449.87 253.18 450.13 262.32 -0.13 266.7"/><rect class="cls-22" x="-0.13" y="289.4" width="450.4" height="4.11"/><path class="cls-23" d="M216.75,294.88s-3.69,4.41-5.43,6.43.78,6.63,5.43,4.24,7-4.66,7.94-5,1.74-2.36,1.35-7.88Z"/><path class="cls-24" d="M215.32,223.45l.25,71.43h12.7l1.67-61.2s.09-3.51,1.14-4.16v-7.36Z"/><path class="cls-23" d="M245.41,294.88s3.67,4.41,5.42,6.43-.77,6.63-5.42,4.24-7-4.66-7.94-5-1.75-2.36-1.37-7.88Z"/><path class="cls-24" d="M246.83,223.45l-.24,71.43h-12.7l-1.68-61.2s-.26-3.78-1.13-4.16v-7.36Z"/><path class="cls-25" d="M223.25,222.8l-2,72.08h7l1.67-61.2s.09-3.51,1.14-4.16l-.1-7.36Z"/><polygon class="cls-25" points="241.83 294.88 246.59 294.88 246.83 223.45 239.25 222.82 241.83 294.88"/><path class="cls-15" d="M258.37,187.92l-5.06-20.6-14.23,5.39s8.24,14.87,10.15,20c1.08,2.9,3.89,7.08,6.39,7.33s5.06-5.27,5.06-5.27Z"/><path class="cls-26" d="M235,149.84l-3.92.52-3.93-.52s.59,5.93-4,6.27c0,0,3.82,8.86,8,8.86s8-8.86,8-8.86C234.8,155.05,235,149.84,235,149.84Z"/><path class="cls-27" d="M230.27,155.05c2.17,0,3.93-1.59,4.94-3a20.9,20.9,0,0,1-.21-2.22l-3.92.52-3.93-.52a17.67,17.67,0,0,1-.56,3.79A5.46,5.46,0,0,0,230.27,155.05Z"/><path class="cls-15" d="M222,156.69c-2.13,1.1-10.11,2.45-10.5,6.31s2.36,21.11,2.75,30.49-.39,30-.39,30h17.25v-53.8Z"/><path class="cls-15" d="M240.18,156.69c2.13,1.1,10.23,3.31,10.61,7.17s-2.47,20.25-2.85,29.63.38,30,.38,30H231.08v-53.8Z"/><polygon class="cls-15" points="239.08 156.11 230.91 164.97 223.12 156.11 219.18 157.69 230.91 175.93 242.51 157.67 239.08 156.11"/><path class="cls-26" d="M231.08,153.4c3.47,0,6.93-4.1,7.85-9a1.33,1.33,0,0,0,1.27-.48c.72-.84,1.32-2.65.81-3.62a1.41,1.41,0,0,0-2.32-.52s.24-7.79-7.61-7.79Z"/><path class="cls-26" d="M231.08,153.4c-3.47,0-6.93-4.1-7.86-9a1.31,1.31,0,0,1-1.26-.48c-.73-.84-1.34-2.65-.82-3.62a1.41,1.41,0,0,1,2.32-.52s-.24-7.79,7.62-7.79Z"/><path class="cls-28" d="M241.24,132c-.35-3.81-2.54-7.23-10.16-7.34-7.62.11-9.82,3.53-10.16,7.34a23.77,23.77,0,0,0,.75,7.64c1.55-.31,2.25,1.45,2.25,1.45-.46-3.42,2.08-8.6,3-7.92a7.2,7.2,0,0,0,8.31,0c.93-.68,3.47,4.5,3,7.92,0,0,.69-1.76,2.25-1.45A24.09,24.09,0,0,0,241.24,132Z"/><path class="cls-15" d="M254.11,174.09l.06-1.23a14.54,14.54,0,0,0-5.15-11.8l.14,13Z"/><path class="cls-15" d="M219.65,157.51s-8.21,2.78-9.85,4.07c-1.27,1-5.49,16.13-6.2,20.93s-2.17,10.28-2.31,12.2,8.94,2.84,8.94,2.84l5-18.33,4-8.5Z"/><path class="cls-29" d="M255.62,200c1.22.12,2.45-1.14,3.39-2.45-6.16-4.24-11.55-25.19-11.55-25.19s1,14,.69,17.66c0,0,0,.12.09.31.41.9.75,1.69,1,2.34C250.31,195.61,253.12,199.79,255.62,200Z"/><path class="cls-29" d="M212.16,193.83s-1.57,5.53-5.34,5.6a6.15,6.15,0,0,1-6.12-6c.18-2.47,2.24-4,3.15-5Z"/><path class="cls-30" d="M219.92,176.75l-11.66,1.94a.35.35,0,0,1-.41-.28l-.35-1.86a.35.35,0,0,1,.29-.39l11.67-1.95a.36.36,0,0,1,.41.28l.34,1.86A.34.34,0,0,1,219.92,176.75Z"/><path class="cls-31" d="M227.05,199.4l-17.3,2.89a.47.47,0,0,1-.54-.37L205,179.35a.44.44,0,0,1,.38-.52l17.3-2.88a.46.46,0,0,1,.54.36l4.17,22.58A.44.44,0,0,1,227.05,199.4Z"/><path class="cls-32" d="M227.15,199.91l-17.3,2.89a1,1,0,0,1-1.18-.79l-4.17-22.57a1,1,0,0,1,.83-1.12l17.3-2.88a1,1,0,0,1,1.17.78L228,198.8A1,1,0,0,1,227.15,199.91Zm-4.42-23.51-17.22,2.94,4.23,22.5,17.15-2.93ZM227,198.9Z"/><polygon class="cls-33" points="210.78 182.96 208.59 183.32 208.21 181.25 210.4 180.88 210.78 182.96"/><polygon class="cls-33" points="211.51 186.91 209.32 187.27 208.94 185.19 211.13 184.83 211.51 186.91"/><polygon class="cls-33" points="212.24 190.85 210.05 191.22 209.67 189.14 211.85 188.78 212.24 190.85"/><polygon class="cls-33" points="212.97 194.8 210.78 195.17 210.4 193.09 212.58 192.72 212.97 194.8"/><polygon class="cls-33" points="213.7 198.75 211.51 199.11 211.13 197.04 213.31 196.67 213.7 198.75"/><polygon class="cls-34" points="221.04 179.53 211.32 181.16 211.24 180.74 220.96 179.12 221.04 179.53"/><polygon class="cls-34" points="223.23 191.38 213.5 193 213.43 192.58 223.15 190.96 223.23 191.38"/><polygon class="cls-34" points="222.65 188.26 212.93 189.88 212.85 189.47 222.57 187.85 222.65 188.26"/><polygon class="cls-34" points="221.35 181.2 215.91 182.1 215.83 181.69 221.27 180.78 221.35 181.2"/><polygon class="cls-34" points="214.92 182.27 211.62 182.82 211.55 182.4 214.85 181.85 214.92 182.27"/><polygon class="cls-34" points="223.53 193.04 218.09 193.95 218.02 193.53 223.46 192.63 223.53 193.04"/><polygon class="cls-34" points="219.83 196.87 214.39 197.78 214.31 197.36 219.75 196.46 219.83 196.87"/><polygon class="cls-34" points="224.11 196.16 220.59 196.74 220.51 196.33 224.03 195.74 224.11 196.16"/><polygon class="cls-34" points="221.75 197.41 218.22 198 218.14 197.58 221.67 196.99 221.75 197.41"/><polygon class="cls-34" points="215.72 185.35 212.2 185.93 212.12 185.52 215.65 184.93 215.72 185.35"/><polygon class="cls-34" points="217.11 194.11 213.81 194.66 213.74 194.25 217.04 193.7 217.11 194.11"/><polygon class="cls-34" points="219.05 180.72 211.47 181.99 211.39 181.57 218.98 180.31 219.05 180.72"/><polygon class="cls-34" points="217.78 183.72 211.97 184.69 212.05 185.1 217.86 184.13 217.78 183.72"/><polygon class="cls-34" points="218.71 183.56 218.78 183.98 221.77 183.48 221.69 183.07 218.71 183.56"/><polygon class="cls-34" points="216.92 189.65 222.73 188.68 222.81 189.09 217 190.06 216.92 189.65"/><polygon class="cls-34" points="215.99 189.8 216.07 190.22 213.08 190.71 213.01 190.3 215.99 189.8"/><polygon class="cls-34" points="219.82 187.45 222.42 187.01 222.5 187.43 219.9 187.86 219.82 187.45"/><polygon class="cls-34" points="218.9 187.6 218.97 188.02 212.78 189.05 212.7 188.64 218.9 187.6"/><polygon class="cls-34" points="221.28 195.34 223.88 194.91 223.96 195.32 221.36 195.76 221.28 195.34"/><polygon class="cls-34" points="220.36 195.5 220.43 195.91 214.23 196.94 214.16 196.53 220.36 195.5"/><polygon class="cls-34" points="219.39 192.45 213.58 193.41 213.66 193.83 219.47 192.86 219.39 192.45"/><polygon class="cls-34" points="220.32 192.29 220.39 192.71 223.38 192.21 223.31 191.79 220.32 192.29"/><path class="cls-26" d="M205.64,187.69a2.85,2.85,0,0,0-2.53,3.19l1.31,3.25c.23,1.54,1,3.11,2.62,2.89l1.35-.18c1.63-.22,3.26-1.83,3-3.38,0,0-.32-1.93-.38-2.37a9.36,9.36,0,0,0-.82-1.74c-.23-1.55-1.59-2.07-3.23-1.84Z"/><polygon class="cls-24" points="223.12 156.11 219.65 157.5 219.65 157.5 231.08 169.65 242.51 157.67 239.08 156.11 230.91 164.97 223.12 156.11"/><path class="cls-26" d="M254.93,188.94c-.64.47-2.13,5.82-.53,7.55.61.65,3.17.94,4.18.89,3.71-.22,4.81-9.12,1.61-9.27C258.83,188.05,255.81,188.31,254.93,188.94Z"/><path class="cls-26" d="M257.88,188s-.42-5.16,1.07-5.46.71,1.52,1.25,3.5.95,3.09.95,3.09l-3,.44Z"/><path class="cls-24" d="M230.93,165h0l0,0Z"/><path class="cls-29" d="M239.93,160.37l-.47.49c-.49,4.59-3.47,9.65-5.77,13a2.79,2.79,0,0,0-.34-.43l.31-.37.06.06a.33.33,0,1,0,.43-.51l-.67-.56a.33.33,0,1,0-.43.51l.06,0-.3.35a3.1,3.1,0,0,0-1.31-.49V172h.09a.43.43,0,0,0,.43-.43.43.43,0,0,0-.43-.43h-1.12a.43.43,0,0,0-.43.43.43.43,0,0,0,.43.43h.1v.49a3.13,3.13,0,0,0-1.23.48l-.29-.35.06,0a.33.33,0,1,0-.43-.51l-.67.56a.32.32,0,0,0,0,.47.32.32,0,0,0,.46,0l.07-.06.31.37a2.87,2.87,0,0,0-.34.44c-2.33-3.36-5.35-8.5-5.8-13.12l-.45-.49a4.26,4.26,0,0,0,0,.5c.45,4.8,3.62,10.13,6,13.53a3.06,3.06,0,0,0-.25,1.22,3.09,3.09,0,1,0,6.18,0,3.06,3.06,0,0,0-.25-1.22c2.37-3.4,5.55-8.73,6-13.53C239.93,160.6,239.93,160.49,239.93,160.37Z"/><path class="cls-35" d="M239.46,160.86l.47-.49a5.87,5.87,0,0,0-1.59-4.52,7.51,7.51,0,0,0-1.89-1.4l-.42-.21a2.56,2.56,0,0,0,.73.87l.06,0a3.28,3.28,0,0,0,.31.2h0a5.59,5.59,0,0,1,2.36,5.33Z"/><path class="cls-35" d="M226.09,154.5a6.25,6.25,0,0,0-2.42,1.53,5.58,5.58,0,0,0-1.45,4.2l.45.49v0a5.18,5.18,0,0,1,1.93-4.95,3.33,3.33,0,0,0,.83-.52c.18-.09.35-.16.5-.22a4.75,4.75,0,0,0,.42-.58Z"/><path class="cls-36" d="M236,154a2.76,2.76,0,0,0,.73.87l.06,0a2,2,0,0,0,.31.2h0a5.59,5.59,0,0,1,2.36,5.33c-.72,7.64-8.5,16.71-8.58,16.8l.34.27c.07-.09,7.94-9.26,8.67-17A6.21,6.21,0,0,0,236,154Z"/><path class="cls-36" d="M222.67,160.39a5.11,5.11,0,0,1,3.26-5.69,4.09,4.09,0,0,0,.42-.58,5.63,5.63,0,0,0-4.11,6.31c.73,7.77,8.59,16.94,8.67,17l.34-.27C231.17,177.1,223.38,168,222.67,160.39Z"/><rect class="cls-24" x="230.57" y="171.33" width="0.93" height="1.15"/><path class="cls-36" d="M232,171.23a.43.43,0,0,1-.43.43h-1.12a.43.43,0,0,1-.43-.43h0a.43.43,0,0,1,.43-.43h1.12a.43.43,0,0,1,.43.43Z"/><polygon class="cls-24" points="229.47 172.77 228.91 173.24 228.34 172.55 228.89 172.08 229.47 172.77"/><path class="cls-15" d="M229.15,171.76a.33.33,0,0,1,0,.47l-.68.56a.32.32,0,0,1-.46,0h0a.32.32,0,0,1,0-.47l.67-.56a.33.33,0,0,1,.47,0Z"/><polygon class="cls-24" points="232.69 172.77 233.24 173.24 233.82 172.55 233.27 172.08 232.69 172.77"/><path class="cls-15" d="M233,171.76a.33.33,0,0,0,0,.47l.67.56a.33.33,0,0,0,.47,0h0a.33.33,0,0,0,0-.47l-.67-.56a.33.33,0,0,0-.47,0Z"/><path class="cls-36" d="M234.17,175.18a3.09,3.09,0,1,1-3.09-3.09A3.09,3.09,0,0,1,234.17,175.18Z"/><path class="cls-33" d="M233.5,175.18a2.42,2.42,0,1,1-2.42-2.42A2.42,2.42,0,0,1,233.5,175.18Z"/><path class="cls-15" d="M231,173.94a.12.12,0,0,1-.13-.12v-.6a.12.12,0,0,1,.13-.12.12.12,0,0,1,.12.12v.6A.12.12,0,0,1,231,173.94Z"/><path class="cls-15" d="M230.08,174.38a.11.11,0,0,1-.09,0l-.42-.42a.12.12,0,1,1,.17-.17l.43.42a.14.14,0,0,1,0,.17A.12.12,0,0,1,230.08,174.38Z"/><path class="cls-15" d="M229.72,175.36h-.6a.12.12,0,0,1-.12-.13.12.12,0,0,1,.12-.12h.6a.13.13,0,0,1,.12.12A.13.13,0,0,1,229.72,175.36Z"/><path class="cls-15" d="M229.73,176.73a.12.12,0,0,1-.09,0,.14.14,0,0,1,0-.17l.43-.42a.12.12,0,0,1,.17.17l-.42.42A.12.12,0,0,1,229.73,176.73Z"/><path class="cls-15" d="M231.13,177.26a.12.12,0,0,1-.12-.12v-.6a.12.12,0,0,1,.12-.12.13.13,0,0,1,.13.12v.6A.12.12,0,0,1,231.13,177.26Z"/><path class="cls-15" d="M232.5,176.65a.11.11,0,0,1-.08,0l-.43-.43a.14.14,0,0,1,0-.17.13.13,0,0,1,.18,0l.42.42a.13.13,0,0,1,0,.18A.14.14,0,0,1,232.5,176.65Z"/><path class="cls-15" d="M233,175.25h-.6a.12.12,0,0,1-.12-.12.13.13,0,0,1,.12-.13h.6a.12.12,0,0,1,.12.13A.12.12,0,0,1,233,175.25Z"/><path class="cls-15" d="M232,174.3a.12.12,0,0,1-.09,0,.13.13,0,0,1,0-.18l.42-.42a.11.11,0,0,1,.17,0,.13.13,0,0,1,0,.18l-.42.42A.11.11,0,0,1,232,174.3Z"/><path class="cls-37" d="M262.67,301.89c0,3.94-15.29,7.14-34.14,7.14s-34.14-3.2-34.14-7.14,15.28-7.14,34.14-7.14S262.67,298,262.67,301.89Z"/><path class="cls-37" d="M91.59,301.92c0,3.95-16.36,7.14-36.53,7.14s-36.52-3.19-36.52-7.14,16.35-7.13,36.52-7.13S91.59,298,91.59,301.92Z"/><path class="cls-37" d="M337.59,302.24c0,3.94-16.35,7.14-36.53,7.14s-36.52-3.2-36.52-7.14,16.35-7.14,36.52-7.14S337.59,298.3,337.59,302.24Z"/><path class="cls-37" d="M302,402.42c0,4.95-24.75,9-55.27,9s-55.27-4-55.27-9,24.74-9,55.27-9S302,397.46,302,402.42Z"/><ellipse class="cls-37" cx="126.42" cy="391.13" rx="55.27" ry="8.97"/><path class="cls-38" d="M273.87,379.28a38.24,38.24,0,0,1-.61,6.91c-.65,3-.71,5.1-1.88,7.25s-.17,5,2.43,4.61,4.7-3.91,5.82-5.78,2.91-7.62,3.28-8.61,1.72-5,1.25-6.12-5.47-2.21-7.2-2.62S273.87,379.28,273.87,379.28Z"/><path class="cls-39" d="M284.16,377.54a1.89,1.89,0,0,0-.85-.68,22.4,22.4,0,0,1-1.33,5.3c-.37,1-2.15,6.75-3.28,8.61s-3.23,5.39-5.82,5.78a2.4,2.4,0,0,1-1.88-.44,2.37,2.37,0,0,0,2.81,1.94c2.59-.39,4.7-3.91,5.82-5.78s2.91-7.62,3.28-8.61S284.63,378.66,284.16,377.54Z"/><path class="cls-38" d="M208.17,396.7a37.49,37.49,0,0,1-6.06,3.37c-2.83,1.13-4.63,2.27-7.06,2.51s-4.24,2.66-2.46,4.59,5.88,1.7,8,1.59,8-1.87,9-2.12,5.1-1.37,5.76-2.39-.35-5.83-1-7.49S208.17,396.7,208.17,396.7Z"/><path class="cls-39" d="M215.4,402c-.68,1.19-4.89,2.5-6,2.79s-7,2.34-9.28,2.48-6.4.39-8.27-1.8a2.43,2.43,0,0,0,.69,1.75c1.78,1.93,5.88,1.71,8,1.59s8-1.87,9-2.12,5.1-1.37,5.76-2.39a4.93,4.93,0,0,0,.12-2.6A1.79,1.79,0,0,1,215.4,402Z"/><path class="cls-40" d="M277.11,375.73c-3.45-1.55-8.52-5.18-14-8.66-5.14-3.26-13-4.06-14.68-5s-12.63-25.93-13-26.32-19.61,3.69-19.61,3.69c1.53,2.47,20.28,24.26,22.45,26.45s2.4,4.11,6.11,4.9,30.18,10,30.94,10.28S278.78,376.48,277.11,375.73Z"/><path class="cls-41" d="M215.79,339.48s15.4,27.3,16.17,27,11.31-5.57,13.38-9.65l-9.94-21.09Z"/><path class="cls-29" d="M215.79,339.48s15.4,27.3,16.17,27,11.31-5.57,13.38-9.65l-9.94-21.09Z"/><path class="cls-42" d="M235.24,342.91c.28.56,6.3,12.6,8.36,16.16q.39-.37.72-.75c-1.71-3-5.91-11.3-8.19-15.86Z"/><path class="cls-42" d="M234.43,345.74c.26.5,5.06,10.11,7.57,14.72.27-.21.53-.43.78-.64-2-3.67-5.45-10.53-7.45-14.53Z"/><path class="cls-40" d="M241.7,331.87c1.43,2.46,2.78,6-.83,9.46s-9.15,10.56-21.87,18.93a48.56,48.56,0,0,1-1.26,16.37,146.86,146.86,0,0,0-3.35,20.13c0,1.15-4.95,1-6.22-.06,0,0,.89-29.66.51-34.29-.59-7.17-.59-7.17,4.55-11.62S226,337.14,226,337.14Z"/><path class="cls-43" d="M210.27,352.37s5.52,7.12,13.85,9.5c0,0,7.75-10.45,10.64-12.67s13.33-9,6.94-17.33l-17.52,4.07Z"/><path class="cls-40" d="M186,311.61c.3.95,1,3.5,1.76,6.17,1.07-.9,2.13-1.82,3.23-2.68a24.23,24.23,0,0,1-1.28-2.43,7.74,7.74,0,0,1-.68-3.95c.56-2.28,1.09-1.32.93-3.63s-.51-4.85-1.24-4.59-.42,2.68-.42,2.68-.89-4-2.24-4-2.91,2.61-3.37,4.38.74,4,1.07,5.09S185.36,309.64,186,311.61Z"/><path class="cls-40" d="M267.5,315.62c-2.92-2.58-4.06-1.91-6.47-5.25s-10.65-14.15-12.57-14.54-15.44,1.18-19.75.89a18.12,18.12,0,0,0-9.45,2.25,4.63,4.63,0,0,1-3,.53c-5.22,1.05-7.09.29-12.12,5.91a139.06,139.06,0,0,0-10.84,14.72s.74-.78-2.69-5.75c-1.26.65-2.31.23-3.54.92a36.72,36.72,0,0,0,3.54,10.1c1.39,2.82,2.29,1.93,4.73,0s11.93-11.14,11.93-11.14A42.24,42.24,0,0,0,211.27,328c3.41,6.68,2.49,10.51,3,10.9s4.6,2.07,10,.57,12.3-2,15-2.84a13.27,13.27,0,0,0,5-3.3c.39-.38-3.92-7.7-7-11.17s-6.42-15.91-6.92-16.81c0,0,13.57-1.71,15.36-2.21a19.54,19.54,0,0,0,5.15,4.94c3.7,2.58,7.08,4.1,8.09,5.51s.09,4.89,1.74,7.08,1.11,0,3.4,2.29c.91.9,2.68.4,4.61-1.5S270.43,318.2,267.5,315.62Z"/><path class="cls-43" d="M214.39,396.76a159.08,159.08,0,0,1,2.44-16.29h0c-6,0-8.22-1.24-8.22-1.24h0c-.18,8.73-.44,17.47-.44,17.47C209.44,397.73,214.38,397.91,214.39,396.76Z"/><path class="cls-29" d="M216.83,380.47c-.47,0-.87,0-1.3,0-1.28,6.56-2.18,14.1-2.18,15s-3.25,1-5.16.44c0,.52,0,.82,0,.82,1.27,1,6.21,1.21,6.22.06a159.08,159.08,0,0,1,2.44-16.29Z"/><path class="cls-43" d="M258.11,375.22h0c8.1,2.73,16.75,5.75,17.18,5.89.77.26,3.49-4.63,1.82-5.38-3.45-1.55-8.52-5.18-14-8.66C263.1,367.07,262.05,374.36,258.11,375.22Z"/><path class="cls-29" d="M277.11,375.73c-3.45-1.55-8.52-5.18-14-8.66,0,0-.05.29-.14.76,5,3.24,9.62,6.47,12.82,7.9,1.39.63-.25,4.09-1.29,5.11l.8.27C276.06,381.37,278.78,376.48,277.11,375.73Z"/><path class="cls-33" d="M237.28,322.12c-2.07-2.37-4.29-8.87-5.66-13.08,0-.08-.5-1.83.08-2.18s9.42-2,9.42-2c0-1.83-2.28-9.05-2.28-9.06h0c-3.5.25-8.33,1.08-10.13,1a18.12,18.12,0,0,0-9.45,2.25,4.63,4.63,0,0,1-3,.53c-5.22,1.05-7.8.29-12.83,5.91a82.46,82.46,0,0,0-7.17,8.49h0s.46,3.63,5.58,7.09c0,0,4.41-5.19,4.71-4.34h0A92.14,92.14,0,0,0,211.27,328c3.41,6.68,2.49,10.51,3,10.9s4.6,2.07,10,.57,12.3-2,15-2.84a13.27,13.27,0,0,0,5-3.3C244.64,332.91,240.33,325.59,237.28,322.12Z"/><path class="cls-40" d="M220.71,290.94a15.85,15.85,0,0,0,.63,7.69s-6,5.17-9.13,4.64c0,0-.14-.09,0-1.2s.25-3.82-.67-4.58,7.52-7.35,7.52-7.35Z"/><path class="cls-44" d="M220.51,293.23s0,0,0,0a17.39,17.39,0,0,1,.18-2.25l-1.66-.8s-8.44,6.6-7.52,7.35a3.93,3.93,0,0,1,.75,2.69h0S217.29,300.5,220.51,293.23Z"/><path class="cls-45" d="M205.43,281.92c-.66.87-3.4,1.44-3.28,3,0,0-.7-.28-.81-.7a19.42,19.42,0,0,1,0-3.3c.09-1,1.5-2.65,2.44-4.14s3.7-3,5.79-4.18,6.4-1.45,8.28-.08a2.05,2.05,0,0,0,0-1.58,1.91,1.91,0,0,1,.59,1.62s.7-1.73,1.8-2a2.66,2.66,0,0,0-.94,2.3,2.3,2.3,0,0,1,1.82-.3s-1.34.2-1.14.73,2.45,1.07,3.69,5.36-.12,9.72-1.6,11.74-3.07,1.91-3.07,1.91-8.63-9.25-8.77-9.35S205.43,281.92,205.43,281.92Z"/><path class="cls-40" d="M216.7,288.5c.62-1.12,1.8-2,2.78-1.42a2.3,2.3,0,0,1,.8,2.85c-.74,2.5-2.13,3.23-3,3.17a3.87,3.87,0,0,1-1.44,2.74c-1.45,1.27-5.47,3.9-6.72,4.12a2,2,0,0,1-2.32-1.65c-.15-.91-.64-.59-1.13-1.12s0-.85,0-.85-.9-.09-.81-.44.29-1.34,0-1.46-1.53-.21-1.41-.93,1-2.61.73-3.5-1.36-1.51-1.6-1.94a12.24,12.24,0,0,1-.38-4.25s1.44-3.94,7-2.13A12.55,12.55,0,0,1,216.7,288.5Z"/><path class="cls-45" d="M202.15,285c0-1.14,2.91-1.7,3.28-3,0,0-.61.87,1.93,1.48s2.46,1.77,2.46,1.77a2.25,2.25,0,0,0-.89-2.33,6.72,6.72,0,0,1,2.8,2.31c.93,1.52,4.29,1.41,5,3.35,0,0,.41-6.08-2.2-8.35s-7.36-2.74-9.59-2.24-3.39,4.72-3.39,4.72Z"/><g class="cls-46"><path class="cls-47" d="M188.28,303.18a5.71,5.71,0,0,1-.27,1.28,7.62,7.62,0,0,1-1.34,2.58,2.08,2.08,0,0,1-.69.53.73.73,0,0,1-.91-.28,12.64,12.64,0,0,1-.49-1.28,3.65,3.65,0,0,0-.38-.83c-.12-.2-.27-.21-.27-.19s.16,0,.32.14a3.21,3.21,0,0,1,.57.78,10.12,10.12,0,0,0,.59,1.13c.19.33.57,0,.89-.33a12.1,12.1,0,0,0,1.45-2.35C188.09,303.67,188.28,303.18,188.28,303.18Z"/></g><path class="cls-33" d="M219.71,360.09c1.3-1.95,6.91-10,13.64-14.86s6.67-7.52,6.74-10.7c0-.68,0-1.38.12-2.13l-.55-.06-.45.11c-.08.72-.1,1.4-.12,2.05-.06,3-.12,5.44-6.33,9.92-6.94,5-12.69,13.33-13.93,15.18Z"/><path class="cls-33" d="M231.16,349.29a25.86,25.86,0,0,1,3.11-2.52c3.48-2.54,7.82-5.71,7.35-12.12l-1,.07c.42,5.86-3.5,8.72-6.95,11.25a24.94,24.94,0,0,0-3.23,2.62,148.91,148.91,0,0,0-9.76,12c.3.15.61.28.93.41C223.58,358.24,229,351.51,231.16,349.29Z"/><path class="cls-43" d="M239.13,305.21l2-.39c0-1.83-2.28-9.05-2.28-9.06h0c-.77.06-1.61.14-2.46.24C237.25,298.69,238.36,302.25,239.13,305.21Z"/><path class="cls-42" d="M244.25,333.29c.39-.38-3.92-7.7-7-11.17-2.07-2.37-4.29-8.87-5.66-13.08,0,0,.94,7.66,2.43,9.93s7.65,12.9,5.66,13.38a69.89,69.89,0,0,0-12.09,4.26c-3.3,1.69-9.88,2.62-13.56,1.27,0,.54.08.88.21,1,.51.38,4.6,2.07,10,.57s12.3-2,15-2.84A13.27,13.27,0,0,0,244.25,333.29Z"/><path class="cls-42" d="M205.6,309s-1.5,5.83-2.71,7.5a11.17,11.17,0,0,1-3.38,2.61,17.52,17.52,0,0,0,2.27,1.84s4.05-4.77,4.64-4.4C205.23,313,205.88,311.55,205.6,309Z"/><path class="cls-43" d="M201.78,321s.47-.55,1.11-1.27a26.14,26.14,0,0,1-5.66-7.21c-.35.46-.71.92-1,1.39h0S196.66,317.53,201.78,321Z"/><path class="cls-37" d="M201.88,320.87l.19-.22,0,0,.33-.38.09-.11q.14-.13.27-.3l.1-.11c-.6-.57-1.13-1.12-1.63-1.66a19,19,0,0,1-1.75,1.09h0c.28.27.58.53.9.8s.86.69,1.37,1l.07-.09Z"/><path class="cls-40" d="M153.34,302.25c5,4.41,6.51,5.57,8.71,4.28s7.26-7.73,7.75-8.44c.73-1,.29-3.45.29-4.45s3-4,1.79-4.05a8.69,8.69,0,0,0-4.81,2c-.95,1.09-.65,2.4-.49,4.14,0,.6-5.52,4.19-5.52,4.19s-4-3.81-7.29-5.31C148.22,292.09,153.34,302.25,153.34,302.25Z"/><path class="cls-44" d="M160.67,305.41a5.32,5.32,0,0,1-3.52-1.32l-1.42.22c3.17,2.65,4.52,3.28,6.32,2.22s5.29-5.29,6.92-7.36C169,299.19,161.75,305.3,160.67,305.41Z"/><path class="cls-38" d="M160.83,386.25c-.55,3.89,2.52,5.64,4.67,6.05s3.64-1,6.6.72a10.3,10.3,0,0,0,10.46,0c3.3-2.09,1.64-3.38-1.87-4.49A88.84,88.84,0,0,1,169,383.89c-3.24-1.71-3.13-2.09-4.56-1.41C161.33,384,161.39,382.31,160.83,386.25Z"/><path class="cls-40" d="M148.56,329.68c.91-.15,21.62,12.75,23.87,15.66s-.81,6.1-2.13,18.24-1.64,20.16-2,21.68-4.67,1.55-5.39-.08-.79-7.19-1.51-13.13c-1-8.47-2.88-6.54,2.27-20l-19-8.33Z"/><path class="cls-38" d="M103.44,364.52c-2.56-1-4.62-1.17-6.48,0s-2,3.22-5.3,4S86,372.38,85,376.16s1.11,3.59,4.43,2,7.79-4.32,10.79-5.14c3.52-1,5.4-2.77,6-4.24C107.42,365.61,103.44,364.52,103.44,364.52Z"/><path class="cls-24" d="M137.5,339.31a78.2,78.2,0,0,0,17.72,12.21s2.67-4.2,8.15-14.43c0,0-8.47-5.16-9.6-6.38s-1.12-7.92-1.12-7.92l-14.52,8.53Z"/><path class="cls-40" d="M145,339.79c.36.84-2.73,22.5-5,25.39s-10,1.63-22.1,3.26-14,2.4-15.6,2.39-2.24-3.4-1.16-4.82,4-1.94,9.59-4c8.37-3,5.67-4.93,19.93-3.14l.45-21.73Z"/><path class="cls-24" d="M149.84,326c-2,5.32-5.87,24.86-6,27.74s-14.83.08-16.31-.81c0,0,2.28-7.4,1.29-10.51s-4.74-13.76-.18-16.42Z"/><path class="cls-40" d="M121.37,289.59c-3.26,1.38-13.19,6.52-14.82,6.65s-4-.13-11,3.51S86.38,306,83.75,306s-9.59,3.67-9.93,5.84c-.13.88,1.14.17,2.64,0,2.23-.23,5.54-2.08,6-2.13,1.57-.15-2.53,3.51-1.53,3.51s2.26-1.12,4.44-2.62,1.86-3,8.59-4.31c10.3-2.06,11.42-4.55,12.76-4.88s16.61-2.68,16.61-2.68Z"/><path class="cls-43" d="M138.77,283.38c-1.07,3.4-4.74,1-10.9,2.79A82.33,82.33,0,0,0,112,293.26c-.5.49,1.74,9.32,2.57,9.65s11.49-3,12.32-2,2.49,9.32,2,14.81-5.16,11.49-3.5,12,15.15,3.16,20.81,1.33a51.77,51.77,0,0,1,7.16-2c.66-.17.5-21.81,0-24.8s1.65-12.51-7-14S138.77,283.38,138.77,283.38Z"/><path class="cls-24" d="M147,293.91c1.41-.83,2-2.79,1.65-4.93a9.53,9.53,0,0,0-2.33-.72c-8.64-1.48-7.57-4.88-7.57-4.88a2.66,2.66,0,0,1-2.7,2c-.43.87-.3,2,2,4.25C141.45,293,145.61,294.74,147,293.91Z"/><path class="cls-40" d="M137.72,280.23c1.16,2.65-.83,4.84,0,6.55s6.59,6.09,8.65,5.2,1-1.69,1.67-6.3S137.72,280.23,137.72,280.23Z"/><path class="cls-44" d="M137.72,280.23a4.28,4.28,0,0,1,.22,3.15c2.08,2.88,6.28,7.68,9.78,6a35.34,35.34,0,0,1,.3-3.68C148.73,281.07,137.72,280.23,137.72,280.23Z"/><path class="cls-40" d="M146.24,261.13a10,10,0,0,1,8.45,10.67c-.32,6-1.37,4.23-.95,6.24s-.53,5.38-5.39,8.77-11.76-5.2-11.76-7.1c0,0-2.08-.2-2.5-1.78s-.53-4.74,1.9-3.59a2.32,2.32,0,0,1-2.14-2.54C133.87,269.37,135.78,260.07,146.24,261.13Z"/><path class="cls-48" d="M136.65,277.51a5.25,5.25,0,0,0,2.59,1.86s1.29-6,1-8c0,0,3.58,1.91,5.58,1.58a11.06,11.06,0,0,1-1.58-2.48,27,27,0,0,0,6.57,2.39,6.58,6.58,0,0,0,5.66-1.58c-.37-.49-2.17-1.74-1.8-3.16.58-2.28-1.88-5.39-3-5.91-1.75-.79-3.53-.92-5.06-1.81s-5.6-1.39-7.26,1.08a5.84,5.84,0,0,0-4.49,2.15c-1.7,2.24-2.09,7-2.11,10.06,0,5,2.24,7.23,4.69,8Z"/><path class="cls-40" d="M136.65,277.51s-.07-1.92-.68-2.52-1.77-.94-1.72.51-.13,4.57,2.4,4.8a24.56,24.56,0,0,0,2.12,3.08s-.93-3.26-1.07-3.45S136.65,277.51,136.65,277.51Z"/><path class="cls-43" d="M149.44,289.36c2.79,1.16,9.73,7.94,9.73,7.94s-1.2,7.42-3.6,8.72l-7.81-2.85Z"/><path class="cls-24" d="M157.55,295.76a18.23,18.23,0,0,1-3.26,9.8h0l1.28.46c2.4-1.3,3.6-8.72,3.6-8.72S158.52,296.67,157.55,295.76Z"/><path class="cls-29" d="M153.46,305.25s0-7.61-1.86-11.14c0,0,2.55,3.62,3.11,6.2s1,2.87,1,2.87l-1.43,2.38Z"/><path class="cls-49" d="M155.72,303.18h0a15.64,15.64,0,0,1-1.43,2.38l1.28.46a4.45,4.45,0,0,0,1.58-1.93C156.22,303.54,155.72,303.18,155.72,303.18Z"/><path class="cls-24" d="M113.59,292.31a11.23,11.23,0,0,0-1.61.95c-.5.49,1.74,9.32,2.57,9.65a6.79,6.79,0,0,0,2.11-.3A70.26,70.26,0,0,1,113.59,292.31Z"/><path class="cls-29" d="M153.58,325.63c-3,.4-8.3,1.14-10.81,1.72-3.58.84-12.72-1.35-12.72-1.35a64.73,64.73,0,0,0,0-18.37c-1.5-9.4-3.5-8.73-3.63-10-.11-1.07-8.77,2.21-12.8,3.39a4.44,4.44,0,0,0,.93,1.9c.83.34,11.49-3,12.32-2s2.49,9.32,2,14.81-5.16,11.49-3.5,12,15.15,3.16,20.81,1.33a51.77,51.77,0,0,1,7.16-2C153.44,327,153.52,326.5,153.58,325.63Z"/><path class="cls-37" d="M152.49,408.71c0,1.24,5.25,2.25,11.72,2.25s11.73-1,11.73-2.25-5.25-2.24-11.73-2.24S152.49,407.47,152.49,408.71Z"/><path class="cls-43" d="M143.46,397.71a11.39,11.39,0,1,1,11.38,11.45A11.43,11.43,0,0,1,143.46,397.71Z"/><g class="cls-50"><path class="cls-51" d="M164.15,393v-1.85a11.46,11.46,0,0,1,1.86,4.34l-1.78-2.29-3.2-.3v-.19Z"/><path class="cls-51" d="M143.58,396.11l1.45-.36h0l.63,5.82.06,0-.51,2.2a11.48,11.48,0,0,0,4.47,4.11l.29,0,2.58-1.68-1.79-4.11,0,0,3.15-4.8.15-.07h5l0,0,2.19,5.24v.1l-2.84,3.63h-.09l-5.88-.1v.2l5.89.09h0l.78,1.69h.21a11.47,11.47,0,0,0,5.09-4.53v-1.54l.08,0,1.48-3c0-.19,0-.37.05-.55l-1.7,3.43.09,0-3,.42v0l-2.21-5.25,0-.1,1.72-4.35-4.52-3.12,0-.05-.49-2.53-.09,0h-.09l.47,2.48,0,.09-4.09,2.49h-.12l-4.57,0-.23-3A11.42,11.42,0,0,0,143.58,396.11Zm1.61-.47,2.19-3.13.18-.11,4.52,0h0l1.75,4.83h0v0L150.67,402l-.08.05-4.42-.51-.32-.12-.62-5.75Z"/><path class="cls-51" d="M154.84,386.25a10.94,10.94,0,0,1,1.91.17l-.79.68-1.79-.82Z"/></g><path class="cls-52" d="M153.28,406.43a10.31,10.31,0,0,0,3.35-20,11.44,11.44,0,1,1-13,13.11A10.26,10.26,0,0,0,153.28,406.43Z"/><path class="cls-43" d="M128.51,348.94c-.14.72-.3,1.4-.45,2a27.08,27.08,0,0,0,15.87,1.83c.07-.56.18-1.26.32-2.11A25.56,25.56,0,0,1,128.51,348.94Z"/><path class="cls-43" d="M152.3,350l8.9-14.23-1.69-1.07L150.57,349C151.2,349.36,151.77,349.69,152.3,350Z"/><g class="cls-46"><path class="cls-24" d="M145.75,336.61a2,2,0,0,0-.06-.6C145.61,335.8,145.64,336.08,145.75,336.61Z"/><path class="cls-24" d="M145,345.36a76.63,76.63,0,0,0,10.24,6.16s.53-.82,1.58-2.62l.35-1.41-8.39-4.33c-1.46-.75-2.65-4.91-3-6.55C145.79,338.75,145,345.34,145,345.36Z"/></g><path class="cls-40" d="M54.24,199.53c.57,2.06,1,6.23-2.81,5.11-.44-.12,5.82,5.32,8.78,6,2,.44,2.81,1.14,2.93.22s-.53-4.29.25-5.11-8-6.13-8-6.13Z"/><path class="cls-44" d="M63.1,209.52a9.64,9.64,0,0,1,.29-3.8c.79-.82-8-6.13-8-6.13l-1.19-.06a16.88,16.88,0,0,1,.45,2.81h0c0,.38.05.76.07,1.14A9.32,9.32,0,0,0,63.1,209.52Z"/><path class="cls-40" d="M61,182.35c3.51-.07,8.74,2.08,8.79,9.06,0,1.4-.39,3.69-.27,4.8.33,3.06.57,5.45-1.5,7.8-2.59,2.94-3.39,4.14-5.6,3.91s-6.71-3.15-7.44-4.78a14.48,14.48,0,0,1-1-2.7s-.32.34-1.24-.54-2.33-4.94-.34-4.71c0,0-.68-6.65.53-8.21S56.56,182.42,61,182.35Z"/><path class="cls-53" d="M51.38,187.89a2.31,2.31,0,0,1,1.94-2l-.74-.43c1-.23,1.4-1.73,2.56-2.45a2.31,2.31,0,0,1,2.26-.11,1.57,1.57,0,0,1-.8-1.15c1.14.85,2.19-.54,3.95-.87a1.73,1.73,0,0,1,2.09,1.34c.65-.25,2.14.07,3.6,1.37a6.75,6.75,0,0,0,3.65,1.44c0,.66-1.29,1-1.29,1,1.76.86,1.89,3.75,1.8,4.95s1.34,2.87,1.34,2.87c-5.9-1-7.25-4.22-7.25-4.22,0,1.36-3.24,1.69-4.14,1.87a3.59,3.59,0,0,0-1.66,1,3.21,3.21,0,0,1,.17-1.69,8.58,8.58,0,0,1-2,1.29,5.09,5.09,0,0,0-1.73,1.24h0C54.77,195,54.4,197,54.4,197c-.82-1.74-2-1.84-2-1.84S51.13,189.66,51.38,187.89Z"/><path class="cls-54" d="M75.06,249.56c4.74,2.06,6.09,3.71,5.47,8.46s-2.1,20.22-1.72,23.94a47.67,47.67,0,0,0,1,6.19l-7.22,2.27s-.61-10.5-2-14c-1-2.67-2.43-11.65-.47-15.52a15.57,15.57,0,0,1-4.73-.16c-3.54-.46-2.44-7.42-2.44-7.42Z"/><path class="cls-43" d="M58.34,242.75c5.57,1.24,16.72,6.81,16.72,6.81s-6.4,1-8.36,11.35c0,0-9.8-1.24-12.69-1.65a74.85,74.85,0,0,1-7.84-1.86V240.27Z"/><path class="cls-40" d="M59.94,241.07a22.24,22.24,0,0,1-14.51,2.41l-5-1s2.89-10.91,2.11-15.4c-.2-1.13-.61-4.52-.61-4.52s5.33-3.56,5.88-7.83c.63-4.82-.2-6.93-1.76-8.44a9.22,9.22,0,0,1,4.22-.85c2.72,0,2.65,1.89,5.08.41L63,210.06a21.3,21.3,0,0,0,3.78,2.56c2,1,2.18,2.06,3.08,5.07,1.69,5.64,2.55,8.93,3.51,11.37.82,2.07,2.21,7.77,2.21,7.77s2.91-5.38,4.8-10.08l4.22.31s-1,4.87-1.88,8.38-3.24,12.13-7,10.73c-2.82-1.06-6-5.25-9.08-10.38S64,229.17,64,229.17,59.83,239,59.94,241.07Z"/><path class="cls-43" d="M48.65,257.39V258l-15.75.72s-.72-13.76,9.65-19.57,7.66,10.74,7.66,10.74Z"/><path class="cls-33" d="M41.16,221.7C51.34,219.55,49.62,204,49.62,204h0l2.37.82c.73.3.07.17.73.3h0s3,6.73,5.44,7.94C61,214.44,63,208.68,63,208.68a4.48,4.48,0,0,0,1.13,1.53,11.75,11.75,0,0,0,2.55,1.54h0c1.65,12.78-3,18.18-3,18.18S61.28,240.68,61.41,243c0,0-9.21,4.3-18.15,2.65l-5.46-1.13s3.18-12,2.32-16.92C39.9,226.36,41.16,221.7,41.16,221.7Z"/><path class="cls-38" d="M63.7,229.93l0,.11A.66.66,0,0,1,63.7,229.93Z"/><path class="cls-42" d="M41.16,221.7s-1.26,4.66-1,5.9c.86,4.94-2.32,16.92-2.32,16.92l5,1c.67-6.94,2.16-21.23,3.41-26.27l-.41-.05A9,9,0,0,1,41.16,221.7Z"/><path class="cls-40" d="M49.63,204a13,13,0,0,0-9,4.88c-3.1,4-11.46,13.23-12.67,15.66s-.46,3.5.09,5.55S35.31,248,37.8,249.56c3,2,4.44.7,4.44.7l.15-.84S37.91,230.47,35,228.63c0,0,6.52-7,8.87-10.49C43.91,218.14,46.42,221.4,49.63,204Z"/><path class="cls-54" d="M35.75,249.69a8.87,8.87,0,0,1,8.51,0c3,1.44,2.92,13.62,1,21.87s-1.42,13.21-1.77,17.34H36.55c-.36-4.13.17-9.09-1.78-17.34S32.74,251.13,35.75,249.69Z"/><path class="cls-38" d="M42.69,288.92c1.24-3.26,2-6.16-3.21-6.16-4.35,0-3.63,3.06-2.23,6.16Z"/><path class="cls-38" d="M43.38,286.65s1.07-.39,1,2.38.63,5.48-.55,7-4.9,7.36-9.45,6.06-2.86-4.79-2-6.29c1.3-2.15,3.1-3.1,3-5.27s-.76-3.93,1.73-3.9S43.38,286.65,43.38,286.65Z"/><path class="cls-38" d="M80.34,286.7c-.92,1-4,2.33-5.48,2s-3.61-2-4-.9-1.07,4.83-.48,6.46a1.25,1.25,0,0,0-.11,1.24c.29.85,2.34,1,5,.94s10.67.35,12.86-.37,4.18-1.64,4.45-2.68.84-3.89-1.12-3.55-4.31.38-5.34-.18A25.74,25.74,0,0,1,82,287.38C81.07,286.54,80.72,286.31,80.34,286.7Z"/><path class="cls-38" d="M80.65,287.35c.5-2.3.72-6.34-.56-6.33s-2.62,1.78-1.78,6.7S80.09,290,80.09,290Z"/><path class="cls-40" d="M84.61,227.06c1.23-3.84,3.89-5.66,1.11-8.08s-5.67-2.06-6.23-.85-.65,3.75,0,4,.66.47.78,2.55l.12,2.08Z"/><path class="cls-33" d="M40.46,224.07s-1.6,2-8.19-6.88c0,0,11.3-17.27,19.16-12.55l-.9,12.13Z"/><path class="cls-33" d="M66.72,211.75c3.51.48,6.47,11.78,7.45,16a11.93,11.93,0,0,1-10,5.76l-2.58-6.13Z"/><path class="cls-42" d="M68.44,232.61,65,222.12l-1.67,9.37h0l.86,2A13.2,13.2,0,0,0,68.44,232.61Z"/><path class="cls-40" d="M382.38,173c-3.33-1.75-7.76-1-10-.82s-3.77-.38-7.27-1.52-11.1-4.64-15.79-4-9.65-.07-12.41-1.59-15.58-3.9-19.68-3.71c-2.93.13-1.09,0-3.44,0,.59,1.87,1.18,3.73,1.92,5.55,1.54,3.83,2.54,10.13,4.46,13.76a3.68,3.68,0,0,0,.37-1.67,55.16,55.16,0,0,0,21.21-3.13s10.44,4.57,17.15,2.64,6.83-1.74,10.19-1.46,8.73.37,5.85-1a10.47,10.47,0,0,0-2.78-.9c1.5,0,3.67,0,4.61.08C378.28,175.37,385.72,174.71,382.38,173Z"/><path class="cls-40" d="M315.86,217.79s1.37,9.44,1.71,15.91-8,5.63-8,5.63L302,227.93l6-7.46Z"/><path class="cls-40" d="M287.28,214.29s-1.83,11.17-2.24,18.61,14.48,2.4,14.48,2.4l1.23-1.76.53-18.16Z"/><path class="cls-40" d="M285.73,162.35c5.11,1,10.09-1.84,10.19-4.68s.09-2.25.09-2.25l5.27.1v62.12l-8.92,2.83-5.08-6.18s3.14-16.52-.32-20.19-4.7-11.17-6-15.35Z"/><path class="cls-40" d="M285.73,162.35c5.11,1,10.09-1.84,10.19-4.68s.09-2.25.09-2.25l5.27.1v62.12l-8.92,2.83-5.08-6.18s3.14-16.52-.32-20.19-4.7-11.17-6-15.35Z"/><path class="cls-40" d="M288.58,175c.36,2.46-5.12,6.15-5.12,6.15-1.27.85-2.37,5.61-3.5,8.08a8.52,8.52,0,0,1-3.73,3.69c3.41,1.2,11.86,15.9,12.65,16.8s1.37-2.22,1.37-2.22c-1.23-1.59.65-3.2,1.33-3.94s2.16-.45,3.72,1.47,1.06,5.85-1.24,7.94-5.1,5.55-10.74-.06c-3.27-3.27-14.58-11.16-17.52-16.94-1.75-3.45,1.85-12.55,5-17.86s2.81-9.12,5.81-11.4Z"/><path class="cls-40" d="M321.59,178.75c-1.3,4.18-2.54,11.69-6,15.35s-.31,20.19-.31,20.19l-1.91,4.19-12.09-.84V155.52l5.26-.1s0-.58.1,2.25,3.83,3.88,8.13,4.68Z"/><path class="cls-54" d="M304.54,159.39c.35-.43,1.19-1.24,2.08-2.16-.08-2.32-.08-1.81-.08-1.81l-5.26.1-5.27-.1s0-.51-.08,1.81c.89.92,1.74,1.73,2.09,2.16.82,1,2.17.59,2.61.57l.64,0,.66,0C302.36,160,303.72,160.36,304.54,159.39Z"/><path class="cls-40" d="M310.3,144.94h-.17c.07-.63.15-1.23.22-1.83.38-3,1.25-11.82-9.08-11.82s-9.45,8.81-9.07,11.82c.08.6.16,1.2.23,1.83h-.17c-1.58-1.18-1.71,1.92-1.06,3a6,6,0,0,1,.88,1.93c.25.7.65.8,1,.72.05.42.08.79.11,1.08.14,1.63,4,4.89,4.85,5.91s2.17.58,2.61.56l.64,0,.66,0c.43,0,1.79.39,2.61-.56s4.7-4.28,4.85-5.91c0-.29.06-.66.1-1.08.33.08.74,0,1-.72a6.49,6.49,0,0,1,.88-1.93C312,146.86,311.87,143.76,310.3,144.94Z"/><path class="cls-55" d="M308.64,129s.42,1.18-8.39,1.18h0c-.18,0-.38,0-.59,0-8.44.37-8,8.54-8,8.54h0a28.27,28.27,0,0,0,.74,6.17l.18-1a11.9,11.9,0,0,1,.47-2.22,1,1,0,0,0,.06-.18c.12-.33.26-.68.42-1,2.3-4.65,7.71-3.14,7.71-3.14s5.44-1.52,7.73,3.15c.15.34.29.67.4,1,0,.07.05.14.08.22A12.12,12.12,0,0,1,310,144l.17,1c.24-1.29.5-2.57.63-3.87h0A20.13,20.13,0,0,0,308.64,129Z"/><path class="cls-40" d="M285.47,226.46c-.85,6.74-1.36,22.46-.46,27.33s.23,6.58-.84,9.77-.72,13,.56,19.39,2.11,9.26-1.06,12.27c0,0,.56,8.62,2.29,7s3.13-2.89,4.48-3.28,2.44-2.32,1.45-4.66a12.47,12.47,0,0,1-.81-7.39c.5-2.73,4.26-13.55,4.2-17.72s-1.31-3.27,0-7.95a181.71,181.71,0,0,0,5.77-33.32Z"/><path class="cls-40" d="M317.08,226.46c.85,6.74,1.36,22.46.46,27.33s-.22,6.58.84,9.77.73,13-.55,19.39-.28,8.33.59,12.61c.76,3.74-.1,8.28-1.82,6.67s-3.14-2.89-4.48-3.28-2.44-2.32-1.46-4.66a12.47,12.47,0,0,0,.81-7.39c-.49-2.73-4.25-13.55-4.2-17.72s1.32-3.27,0-7.95a180.55,180.55,0,0,1-5.78-33.32Z"/><path class="cls-40" d="M273.51,171.84s2.95-10.47,11.52-10.47c6,0,7.68,1,10.74-1.85s0,7.15,0,7.15L281.5,177.06Z"/><path class="cls-40" d="M329.05,171.84s-3-10.47-11.53-10.47c-6,0-7.67,1-10.74-1.85s0,7.15,0,7.15l14.27,10.39Z"/><path class="cls-33" d="M301.28,165.57a8.15,8.15,0,0,1-7.59-4.61l-.05-.06-.08.06c-1.66.62-3.39.29-6.36.32l-.18.09c1.43,10.11-4.81,21.1-4.81,21.1v.06c0,3.35,1.15,8.85,3.71,11.57,3.46,3.67,1.37,20.19,1.37,20.19l5.08,6.18,8.92-2.83Z"/><path class="cls-33" d="M301.28,165.57a8.12,8.12,0,0,0,7.58-4.61l.05-.06.09.06c1.66.62,3.38.29,6.35.32l.18.09c-1.42,10.11,4.82,21.1,4.82,21.1v.06c0,4.92-1.15,9.9-3.72,12.62-3.45,3.67-1.36,19.14-1.36,19.14l-5.08,6.18-8.92-2.83Z"/><path class="cls-43" d="M287.28,214.29s-2.95,18.18-4.36,40.35l15.72,1,2.64-21.27v-19Z"/><path class="cls-43" d="M315.28,214.29s2.94,18.18,4.35,40.35l-15.72,1-2.63-21.27v-19Z"/><path class="cls-55" d="M312,294.41c-1.21-3.18-1.92-6,3.12-6,4.24,0,3.53,3,2.17,6Z"/><path class="cls-55" d="M311.31,292.19s-1-.36-.93,2.33-.61,5.33.53,6.8,4.77,7.17,9.2,5.91,2.78-4.67,1.9-6.13c-1.27-2.09-3-3-2.91-5.12s.74-3.83-1.69-3.8S311.31,292.19,311.31,292.19Z"/><path class="cls-55" d="M290.57,294.41c1.2-3.18,1.91-6-3.13-6-4.24,0-3.53,3-2.17,6Z"/><path class="cls-55" d="M291.24,292.19s1-.36.94,2.33.61,5.33-.54,6.8-4.77,7.17-9.2,5.91-2.78-4.67-1.89-6.13c1.26-2.09,3-3,2.9-5.12s-.74-3.83,1.69-3.8S291.24,292.19,291.24,292.19Z"/><path class="cls-33" d="M267.43,180.31s4.32,3.24,13.82,5.91l8.54-8.92-2.59-16s-9.33-1.59-13.69,6.76S267.43,180.31,267.43,180.31Z"/><path class="cls-33" d="M311.72,161.36s7.11-1.67,17.41,1.52c0,0-.61,13.28-5.38,19.46l-3.39.19-9.54-4.92Z"/><path class="cls-56" d="M314.52,255l5.11-.33c-1.41-22.17-4.35-40.35-4.35-40.35l-6.28.49Z"/><polygon class="cls-56" points="295.05 214.89 291.32 255.18 298.64 255.65 301.28 234.38 301.28 215.38 295.05 214.89"/><rect class="cls-15" x="286.57" y="175.06" width="9.36" height="6.26"/><rect class="cls-57" x="314.56" y="213.29" width="0.75" height="41.65" transform="translate(-26.81 41.22) rotate(-7.18)"/><rect class="cls-57" x="316.03" y="212.79" width="0.75" height="42.06" transform="translate(-26.52 40.99) rotate(-7.11)"/><rect class="cls-57" x="267.74" y="233.74" width="41.65" height="0.75" transform="translate(20.23 491.17) rotate(-82.82)"/><rect class="cls-57" x="266.07" y="233.44" width="42.06" height="0.75" transform="translate(19.24 489.45) rotate(-82.82)"/><path class="cls-33" d="M282.2,182.53c-.85,10.44,2.77,24.68,1.34,31.11,0,0,6,1.67,17.74,1.74s17.17-2,17.17-2,1.15-23,1.91-30.8Z"/><path class="cls-37" d="M413.83,366.69c0,3.83-19.14,6.93-42.74,6.93s-42.74-3.1-42.74-6.93,19.14-6.94,42.74-6.94S413.83,362.86,413.83,366.69Z"/><path class="cls-58" d="M368.34,315.85c-.86,4.23,1.75,17.76,2.13,18.65a8.15,8.15,0,0,0,4.73,5c3.61,1.62,5.35,3,10.58,8.85s5.82,5.31,8.31,5.68,4.49,2.24,4.24,4.11-1.49,3.11-1,5.48.88,6.28-2.36,6.75-5.83.09-5.61-1.52c.19-1.37,2.48-2,2.48-2s-.36-5.36-3.35-7.47-22.38-14.41-24-16.4-8.41-19.44-8.41-19.44l7.29-6.64Z"/><path class="cls-40" d="M398.34,357.66v.41A2.8,2.8,0,0,0,398.34,357.66Z"/><path class="cls-38" d="M394.61,353.79c-1.13-1.08-2.19-1.18-2.18-.28h0c0,.91-3.42,6.31-3.42,6.31h0c2.51,2.33,2.83,7.05,2.83,7.05s-2.29.62-2.48,2c-.22,1.61,2.37,2,5.61,1.52s2.86-4.38,2.36-6.75,1.49-5,1.5-7.16S396,355.1,394.61,353.79Z"/><path class="cls-24" d="M381.05,355.66c.59,0,6.11-6.12,6.21-6.51s-3.25-3.64-6.9-7.09c-2.78-2.63-6.88-3.16-8.57-6.12s-3.45-22.14-3.45-22.14l-12.26,9.76s5.26,15.86,8.22,19.44,10.35,8,12,9.5A33.23,33.23,0,0,0,381.05,355.66Z"/><path class="cls-49" d="M381.05,355.66c.59,0,6.11-6.12,6.21-6.51s-3.25-3.64-6.9-7.09c-2.78-2.63-6.88-3.16-8.57-6.12s-3.45-22.14-3.45-22.14l-12.26,9.76s5.26,15.86,8.22,19.44,10.35,8,12,9.5A33.23,33.23,0,0,0,381.05,355.66Z"/><path class="cls-49" d="M370.47,337.42c-.63.86-4.25,2.93-4.25,2.93a16.85,16.85,0,0,0,5.45-1.21c2.2-1.06,12.65,9,12.65,9.48a18.59,18.59,0,0,1-4.14,6.53c.51.31.87.51.87.51.59,0,6.11-6.12,6.21-6.51s-3.25-3.64-6.9-7.09c-2.78-2.63-6.88-3.16-8.57-6.12s-3.45-22.14-3.45-22.14l-3.09,2.46C367.59,322.22,371.08,336.57,370.47,337.42Z"/><path class="cls-58" d="M370.47,312.69c-.25,2.29-4.49,5.42-10.22,8.58s-7.47,7.64-7.34,8.26,4.48,7,5.1,9.84,1.5,11.63,2.87,14.53,3.11,4.65,3.61,6.39,0,3.74-2.81,3.74a26.48,26.48,0,0,0-7.9,1.74c-.75.38-6.35,1.62-8.47-1s.57-3.33,2.82-3.7,8-2.53,7.14-5.4a96,96,0,0,0-8.09-16.43c-3.62-5.86-6.68-10.17-6.09-12.09.27-.86,5.31-14.83,8.5-19.55S370.47,312.69,370.47,312.69Z"/><path class="cls-24" d="M349.81,348.6c2,1.39,10.13.07,10.5-.29s-1.67-9.39-2.81-11.08-4.36-7.51-4.12-7.7,11-9.93,13.6-12,4.34-4.72,3.27-5.75-21.45-4.08-21.45-4.08S342,324.49,341,326.31s-.15,3.92,1.53,6.49a111.3,111.3,0,0,1,6.4,12.8A15.16,15.16,0,0,1,349.81,348.6Z"/><path class="cls-38" d="M364.49,360.29a6.22,6.22,0,0,0-.33-.83h0s-.33-1-1-2.75-1.07-1.61-1.26-1.72-.31.24-.56.39a12.09,12.09,0,0,1-5,.85l-1-.19c.31,2.65-5.06,4.68-7.21,5s-4.94,1.08-2.82,3.7,7.72,1.37,8.47,1a29.18,29.18,0,0,1,7.87-1.34C364.45,364.43,365,362,364.49,360.29Z"/><path class="cls-49" d="M350.63,330.33s6.76,10.59,7.3,15.69c0,0-2.43,1.67-8.27,1.86a4.58,4.58,0,0,1,.15.72c2,1.39,10.13.07,10.5-.29s-1.67-9.39-2.81-11.08-4.36-7.51-4.12-7.7Z"/><path class="cls-56" d="M391.14,359.21a3.23,3.23,0,0,1-1.27,1.6h0a13.79,13.79,0,0,1,2,6.06C395.74,366.2,391.14,359.21,391.14,359.21Z"/><path class="cls-38" d="M392.43,353.51h0c0,.68-1.89,3.83-2.86,5.41l1.57.29c1-1.73,2.84-4.12,3.35-5.51C393.41,352.73,392.42,352.64,392.43,353.51Z"/><path class="cls-38" d="M389.87,360.81c-1.76-1.06-4.3-2-2.78-3.46a1.74,1.74,0,0,1,2.68.25,8.05,8.05,0,0,1,1.47,1.7C391.24,359.49,390.27,361.06,389.87,360.81Z"/><path class="cls-39" d="M398.18,355.17c.66-.13,1.27.47,1,1.47s-1.74,5-1.61,5.74,1.29,4.73,0,6.46-2.64,1.91-5,2-3.3-.27-3-1.14a27.82,27.82,0,0,0,4.58-.07c1.39-.26,2.69-1,2.65-2s-.16-3.78-.22-5.89C396.54,360.12,398.18,355.17,398.18,355.17Z"/><path class="cls-39" d="M345.31,364.78s-.56,1.32,1.78,2.09,8.85-1.85,11.11-2.12,3.59.63,5.33-.3,2.07-2.44,1.13-3.37c0,0-1.42,2.21-3,2.32s-3.65-.4-7.08.64S347.76,366,345.31,364.78Z"/><path class="cls-56" d="M350.71,361.94c2.44-.19,5.55-2.1,6-4.61l-1.93.4c-1.4,1.79-5,3.07-6.64,3.35C348.13,361.08,348.27,362.14,350.71,361.94Z"/><path class="cls-38" d="M361.9,355c-.19-.1-.31.24-.56.39a12.09,12.09,0,0,1-5,.85l-.73-.14,1.07,1.24c1.55.15,5,.26,6.25-1.1C362.42,355.1,362.07,355.09,361.9,355Z"/><path class="cls-38" d="M354.72,357.74c-.63-.93-3-3.17-1.34-3.83s3.23,2.24,3.42,3.08S354.72,357.74,354.72,357.74Z"/><path class="cls-58" d="M367.6,300.16c-2.49-3.74-6.47-13.33-6.1-16.44s-5.42-15.2-5.42-15.2l-8.28-1.62c-5.73,1.75-9,2.74-10.58,4.11s-10.72,8.35-11.84,9.22-5,1.45-6.85,2.57a20.2,20.2,0,0,1-7.64,2.62l1.28,3.62c2.82.09,7.41.14,9-.31a19.74,19.74,0,0,0,6.18-2.38c2.47-1.54,11.38-5.25,11.38-5.25s6.38,18.28,6.61,24.46c0,0,13.44,6.58,16.18,7.13s8.34.45,9,0l.62-.45S370.09,303.89,367.6,300.16Z"/><path class="cls-43" d="M361.5,283.72c.37-3.12-5.42-15.2-5.42-15.2l-8.28-1.62c-5.73,1.75-9.16,1.6-10.74,3-1,.9-5.6,4.72-8.59,7.44h0A32.76,32.76,0,0,0,333,285l6-2.26s4.12,17.41,4.36,23.59c0,0,15.39,5.81,18.13,6.36s8.34.45,9,0l.62-.45s-1-8.35-3.49-12.08S361.13,286.83,361.5,283.72Z"/><path class="cls-59" d="M368.38,287.66c-1.77-.61-2.57-.05-3,.65s-1.73,2.33-1.73,2.33L360,283.87,366,285Z"/><path class="cls-56" d="M370.47,312.69l.62-.45s-1-8.35-3.49-12.08-6.47-13.33-6.1-16.44a5.06,5.06,0,0,0-.1-1.38L360,280.83l-2.31.94a74.39,74.39,0,0,0,4,9.78c.91,2,3.35,10.47,4.63,12.45s1.55,5.6,1.55,5.6c-3.45,1.69-16.92-2.68-22.62-4.23,0,.07,0,.13,0,.19s13.44,6.58,16.18,7.13S369.84,313.14,370.47,312.69Z"/><path class="cls-58" d="M346.15,270.61c0,2.15-.84,4.11,1.49,6s7.14-.18,9.41-6S346.15,270.61,346.15,270.61Z"/><path class="cls-58" d="M312.21,285.3a7.85,7.85,0,0,1-2.52.05c-2.41-.32-12.39-2.68-12.64-2.18a1.59,1.59,0,0,0-.1,1.06s-1.67-.26-1.74.58,5,1.4,5,1.4c.37.07,1.33.28.25.35s-4.53.16-4.5.38-.22,1.1.92,1.08,3.89-.24,4.38.24-1.44,1.43-2.22,1.74-.55.73-.47.89a10.51,10.51,0,0,0,2.92-.84,6.25,6.25,0,0,1,2.94-.59,6.4,6.4,0,0,0,2.85-.06,24.7,24.7,0,0,1,4.93-.36Z"/><path class="cls-58" d="M357.05,270.61c3.77,1.29,5.26,1.12,8.53,7.75s5.79,12.94,5.51,14.27-3.36,3.29-3.92,3.48-2.25-.56-2.29.65-.05,5.14-.19,5.37-1,.75-1.17,0a25.14,25.14,0,0,1,0-3.64,24.18,24.18,0,0,1-.84,2.62c-.24.37-.94,2.29-1.36,2.27a1.23,1.23,0,0,1-.79-1.71,29.87,29.87,0,0,0,1.59-4.58c-.14-.14-3.77,3.85-4.46,3.7s-1.14-.59-1-1,3.22-3.36,2.9-4-.84-.79-2.38.14-2.34,1.5-2.85,1.08-.38-1,.93-1.92l1.73-1.17a3,3,0,0,1-2.17.3c-1.1-.34-2.27-.95-2.36-1.56s.28-.89.6-.84a8.31,8.31,0,0,0,2.06.47c.89,0,3.47-.23,4.14-.33s3.33-.23,4.45-1.31a49.59,49.59,0,0,0-2.61-4.57c-.8-1-4.35-7.57-4.35-7.57Z"/><path class="cls-43" d="M365.67,277.79c-3.27-6.63-4.85-5.89-8.62-7.18l-1.46,7s5,10.19,5.24,10.53a20,20,0,0,0,7.64-4.4C367.72,282,366.59,279.67,365.67,277.79Z"/><path class="cls-60" d="M363.66,290.64c1.67-1.39,2.66-2.94,4.72-3,0,0-.41-.75-4.17.53l-1-1.62-1.34.69Z"/><path class="cls-24" d="M367.63,281.91c-2,2.18-6.57,3.56-8,3.94.63,1.27,1.1,2.21,1.16,2.31a20.05,20.05,0,0,0,7.65-4.4C368.23,283.2,367.94,282.56,367.63,281.91Z"/><path class="cls-60" d="M346.1,271.69c.88,2.57,2.06,3.48,4.4,3.7,1.38.14,3.15.18,4.42-1.1a13.29,13.29,0,0,0,1.56-2.42c.57-1.26-6.45-5-6.45-5Z"/><path class="cls-58" d="M355.27,247.34c-3.62-.61-9.37.87-10.53,8.27-.23,1.49-.18,4-.48,5.14-.82,3.2-1.45,5.71.32,8.53,2.21,3.52,2.85,4.92,5.18,5s7.44-2.31,8.45-3.93a16.39,16.39,0,0,0,1.42-2.72s.28.41,1.37-.38,3.19-4.89,1.1-4.95c0,0,1.76-7,.74-8.81S359.84,248.1,355.27,247.34Z"/><path d="M364.33,254.71a2.45,2.45,0,0,0-1.69-2.4l.83-.34c-1-.39-1.17-2.05-2.26-3a2.39,2.39,0,0,0-2.32-.46,1.69,1.69,0,0,0,1-1.1c-1.3.73-2.18-.91-3.94-1.53a1.81,1.81,0,0,0-2.37,1.1c-.64-.37-2.23-.26-3.95.9a7,7,0,0,1-4,1c0,.71,1.18,1.28,1.18,1.28-2,.64-2.55,3.69-2.65,5s-1.83,2.84-1.83,2.84c6.25-.11,8.16-3.37,8.16-3.37-.19,1.45,3.09,2.29,4,2.63a3.74,3.74,0,0,1,1.55,1.36,3.51,3.51,0,0,0,.1-1.81,9.32,9.32,0,0,0,1.82,1.67,5.33,5.33,0,0,1,1.6,1.58h0c.16,1.68.22,3.93.22,3.93,1.12-1.72,2.34-1.64,2.34-1.64S364.3,256.63,364.33,254.71Z"/><path class="cls-60" d="M331.61,283.1c-1.47.8-5,2.16-7.74,3.89s-9.27,2.1-9.29,2.1a31.1,31.1,0,0,0,6.57-.36,19.74,19.74,0,0,0,6.18-2.38,53.92,53.92,0,0,1,5.12-2.54Z"/><polygon class="cls-56" points="331.61 283.1 338.71 281.1 339.01 282.74 333.04 285 331.61 283.1"/><path class="cls-24" d="M328.47,277.31A32.76,32.76,0,0,0,333,285l2.09-.79a72,72,0,0,1-5.5-7.94Z"/><path class="cls-49" d="M333.79,282.49l-2.18.61L333,285l2.09-.79C334.68,283.66,334.23,283.08,333.79,282.49Z"/></g></g></g></svg>